<?xml version="1.0" standalone="no"?>
<!DOCTYPE svg PUBLIC "-//W3C//DTD SVG 20010904//EN"
 "http://www.w3.org/TR/2001/REC-SVG-20010904/DTD/svg10.dtd">
<svg version="1.0" xmlns="http://www.w3.org/2000/svg"
 width="1000.000000pt" height="1000.000000pt" viewBox="0 0 1000.000000 1000.000000"
 preserveAspectRatio="xMidYMid meet">
<metadata>
Created by potrace 1.11, written by Peter Selinger 2001-2013
</metadata>
<g transform="translate(0.000000,1000.000000) scale(0.100000,-0.100000)"
fill="#000000" stroke="none">
<path d="M4719 9996 c-2 -2 -49 -6 -104 -10 -55 -3 -116 -8 -135 -11 -19 -3
-57 -7 -85 -10 -27 -3 -61 -8 -75 -10 -14 -2 -45 -6 -70 -10 -125 -18 -144
-22 -285 -51 -1063 -222 -2049 -807 -2755 -1631 -121 -141 -114 -133 -201
-248 -218 -287 -420 -629 -582 -985 -130 -284 -281 -762 -333 -1050 -2 -14 -9
-47 -14 -75 -5 -27 -12 -68 -15 -90 -4 -22 -10 -65 -16 -95 -5 -30 -11 -82
-14 -115 -3 -33 -8 -71 -10 -84 -27 -156 -27 -856 0 -1041 2 -14 6 -50 10 -81
3 -31 8 -67 10 -80 3 -13 7 -43 10 -66 25 -213 101 -531 197 -825 56 -173 52
-170 127 -143 135 47 375 11 460 -69 132 -126 144 -141 180 -219 84 -184 70
-375 -37 -517 -38 -51 -81 -93 -130 -128 l-43 -30 28 -5 c15 -3 35 -6 43 -6
287 -7 479 -7 530 0 100 14 134 19 160 24 229 44 405 95 650 191 l125 49 225
222 225 223 -267 267 -268 268 116 116 115 116 198 -199 c109 -109 202 -198
206 -198 5 0 1 8 -7 18 -17 20 -62 113 -126 262 -88 205 -178 515 -207 715 -2
17 -9 59 -14 95 -12 75 -20 145 -20 178 l-1 22 -945 0 c-520 0 -945 3 -946 8
-9 59 -13 503 -5 572 2 19 4 42 5 50 1 13 113 15 956 15 l955 0 11 55 c20 97
60 241 80 286 10 25 19 48 20 52 20 86 129 283 238 430 28 38 51 71 51 74 0 2
-19 4 -42 3 l-43 0 -2 275 c0 151 -1 286 -2 300 l-1 25 -297 0 -298 0 0 165 0
165 292 1 c161 0 296 3 299 7 3 3 6 137 6 296 0 290 0 291 22 295 49 10 305 3
309 -8 2 -6 3 -140 3 -298 -1 -282 -1 -288 19 -289 11 0 146 -1 300 -1 l280
-1 0 -161 c1 -89 -3 -163 -6 -166 -4 -3 -140 -5 -301 -5 l-293 0 0 -187 c0
-104 3 -188 7 -188 4 0 34 17 65 37 101 65 296 140 408 157 17 2 48 7 71 11
67 10 243 8 331 -4 188 -27 346 -82 535 -188 43 -24 81 -43 85 -43 4 0 7 664
6 1475 0 811 2 1475 5 1476 4 0 18 2 32 4 33 5 452 6 515 2 28 -2 60 -5 71 -5
l21 -2 1 -1837 0 -1838 31 -70 c33 -72 65 -150 99 -245 l20 -55 161 0 c89 0
166 2 171 5 5 3 254 249 552 545 538 535 728 720 886 865 45 41 82 77 82 80 0
3 -252 5 -560 5 l-560 0 0 166 0 166 748 0 749 0 104 88 c57 48 115 97 129
109 144 124 478 366 658 475 56 35 102 66 102 70 0 5 58 37 129 72 72 35 130
66 130 69 1 6 -94 125 -162 205 -151 175 -344 370 -492 499 -49 43 -103 91
-120 105 -50 44 -275 214 -360 272 -467 319 -950 545 -1497 699 -78 22 -154
43 -168 45 -14 3 -36 7 -50 11 -25 6 -91 20 -140 29 -50 10 -246 44 -287 49
-66 9 -183 23 -278 32 -51 5 -691 14 -696 10z"/>
<path d="M9567 7994 c-1 -1 -29 -4 -62 -8 -227 -23 -561 -169 -905 -394 -157
-103 -461 -332 -607 -458 -12 -11 -32 -28 -45 -38 -52 -43 -260 -227 -363
-321 -60 -55 -115 -104 -121 -110 -84 -75 -426 -407 -727 -705 -208 -206 -535
-530 -726 -720 -476 -471 -591 -583 -595 -579 -2 2 -7 33 -10 69 -9 81 -14
122 -26 185 -5 28 -12 66 -15 85 -35 215 -169 569 -282 748 -222 350 -594 616
-978 698 -117 25 -379 21 -454 -7 -14 -6 -28 -10 -31 -10 -17 3 -126 -39 -199
-77 -344 -177 -596 -566 -685 -1057 -5 -29 -12 -83 -21 -170 -6 -52 -6 -365
-1 -432 5 -61 15 -148 21 -183 2 -14 7 -45 10 -70 6 -43 46 -240 59 -285 112
-411 310 -806 537 -1075 35 -41 70 -82 77 -91 11 -14 -4 -27 -115 -101 -136
-91 -320 -203 -468 -285 -109 -61 -440 -223 -455 -223 -6 0 -18 -4 -28 -9
-161 -85 -601 -213 -847 -246 -27 -4 -60 -8 -73 -10 -139 -22 -531 -22 -650
-1 -9 2 -39 7 -67 10 -27 4 -81 16 -120 27 -202 57 -305 162 -320 327 -3 28 0
32 13 26 97 -41 230 -56 322 -38 146 30 274 184 265 320 -12 173 -138 299
-311 311 -195 14 -407 -129 -471 -317 -29 -87 -25 -295 8 -390 72 -206 239
-336 522 -404 96 -23 121 -27 242 -42 107 -13 498 -20 555 -10 14 2 59 7 100
11 85 7 134 13 170 21 14 3 41 8 62 10 69 9 318 74 455 119 398 133 838 361
1258 650 l121 83 30 -27 c150 -131 357 -259 554 -344 87 -37 251 -93 297 -101
14 -3 28 -7 30 -10 10 -9 -113 -165 -215 -275 -23 -25 -40 -47 -37 -49 4 -4
704 -6 872 -3 29 1 43 15 139 131 59 72 112 130 118 131 6 1 22 2 36 4 14 1
57 5 95 9 39 4 77 9 85 11 8 2 38 6 65 10 28 3 57 8 65 10 8 2 26 6 40 9 106
19 311 87 422 141 254 123 468 315 620 555 65 103 61 105 -33 15 -137 -131
-255 -219 -454 -342 -106 -65 -349 -165 -515 -212 -102 -29 -126 -35 -200 -47
-19 -3 -54 -9 -78 -14 l-42 -8 27 37 c15 20 33 43 40 51 7 8 40 51 75 95 34
44 65 82 68 85 3 3 26 32 51 65 162 210 427 556 446 581 81 109 173 231 181
239 4 6 33 44 63 85 29 41 59 82 66 90 19 23 147 196 348 470 99 135 184 250
188 255 5 6 100 136 213 290 274 375 388 531 456 623 31 42 77 104 101 137
163 222 658 888 667 895 3 3 38 49 78 103 41 54 80 106 87 115 48 59 711 938
873 1157 65 89 142 196 142 199 0 4 -78 4 -83 0z m-169 -115 c-48 -27 -176
-131 -332 -269 -77 -68 -446 -439 -571 -574 -200 -216 -229 -248 -290 -317
-22 -24 -74 -83 -116 -129 -62 -69 -304 -344 -418 -475 -14 -17 -55 -64 -91
-105 -36 -41 -67 -77 -70 -80 -3 -3 -30 -34 -60 -70 -30 -36 -65 -76 -77 -90
-11 -14 -81 -95 -153 -180 -73 -85 -147 -171 -164 -190 -17 -19 -53 -62 -81
-95 -27 -33 -52 -62 -55 -65 -3 -3 -53 -61 -110 -130 -58 -69 -107 -127 -110
-130 -3 -3 -43 -50 -89 -105 -46 -55 -90 -109 -100 -120 -69 -83 -440 -545
-641 -800 -134 -170 -247 -312 -250 -315 -3 -3 -21 -25 -40 -50 -103 -133
-477 -580 -486 -580 -3 0 2 12 10 28 89 157 236 657 291 992 11 65 24 230 26
334 l1 79 85 86 c47 47 232 237 412 421 429 440 1062 1073 1231 1232 196 183
209 196 296 273 43 39 85 77 94 85 8 8 65 58 125 110 60 52 116 102 125 110 9
8 47 42 84 75 38 33 74 65 80 70 128 114 389 333 547 457 331 260 606 429 827
508 72 25 108 30 70 9z m-5038 -1733 c267 -72 503 -302 680 -661 98 -199 180
-458 210 -662 6 -43 13 -89 16 -103 2 -14 7 -63 10 -110 l6 -85 -124 -116
c-67 -64 -135 -127 -149 -140 -15 -13 -71 -64 -125 -114 -150 -138 -167 -153
-334 -300 -162 -142 -296 -256 -370 -315 -24 -19 -58 -47 -75 -61 -138 -118
-532 -412 -545 -407 -17 6 -151 192 -208 288 -174 294 -292 677 -319 1030 -13
165 -7 435 12 545 5 29 12 70 21 125 3 14 16 69 29 122 123 482 405 830 763
942 46 14 104 29 130 32 26 3 48 7 50 9 12 11 265 -4 322 -19z m925 -1878 c-2
-18 -6 -67 -9 -108 -3 -41 -8 -84 -10 -95 -2 -11 -7 -40 -10 -65 -6 -43 -8
-57 -22 -125 -22 -116 -119 -406 -192 -580 -119 -282 -319 -654 -438 -811
l-23 -32 -99 29 c-154 45 -345 124 -437 182 -136 85 -278 190 -318 234 -18 20
-16 22 85 99 219 166 516 412 728 603 52 47 100 91 106 96 98 87 443 416 558
532 39 40 74 72 78 72 3 1 5 -14 3 -31z"/>
<path d="M7500 6239 c-195 -180 -352 -330 -622 -598 -170 -168 -308 -307 -308
-311 0 -3 36 -6 81 -5 94 0 72 -18 284 235 44 52 84 100 90 106 10 10 68 78
118 138 10 11 38 44 61 71 24 28 92 106 151 175 59 69 121 141 139 160 85 96
87 103 6 29z"/>
<path d="M5777 4522 l-158 -158 -4 -80 c-6 -111 -14 -215 -19 -239 -2 -11 -7
-42 -10 -69 -4 -27 -10 -54 -13 -59 -3 -5 -1 -8 4 -6 9 3 587 724 607 757 5 9
-24 12 -121 12 l-128 0 -158 -158z"/>
<path d="M3940 5943 c-187 -53 -336 -170 -463 -361 -48 -73 -131 -242 -122
-250 4 -4 305 -7 671 -7 l664 0 0 67 c1 96 1 233 0 266 -1 49 -151 192 -265
251 -90 47 -152 60 -284 59 -92 0 -133 -5 -201 -25z"/>
<path d="M3227 4673 c-6 -10 0 -254 8 -312 7 -56 13 -99 20 -146 20 -145 100
-419 153 -528 l18 -37 59 60 60 60 112 -112 c62 -62 113 -117 113 -122 0 -5
-30 -40 -67 -76 -152 -149 -146 -159 18 -33 105 80 417 330 429 343 3 3 50 43
105 90 55 47 102 87 105 90 3 3 59 52 125 110 65 58 139 123 163 146 l44 41 0
184 c0 101 -1 199 -1 217 l-1 32 -729 0 c-402 0 -732 -3 -734 -7z"/>
<path d="M4634 3422 c-91 -84 -279 -245 -394 -339 -19 -15 -40 -32 -46 -38 -6
-5 -45 -37 -87 -70 -43 -33 -77 -63 -77 -66 0 -10 155 -101 235 -138 56 -27
221 -91 231 -91 5 0 117 186 156 258 l41 75 -1 225 c-1 123 -2 226 -4 227 -2
2 -26 -18 -54 -43z"/>
<path d="M9281 7145 c-79 -103 -148 -196 -154 -206 -7 -11 -16 -19 -22 -19 -5
-1 -87 -103 -182 -228 -192 -253 -199 -263 -229 -300 -71 -90 -766 -1024 -786
-1057 -4 -7 260 -10 728 -10 485 0 734 -3 735 -10 7 -72 9 -133 9 -320 0 -121
-2 -236 -4 -255 -2 -19 -4 -41 -5 -47 -1 -10 -203 -13 -973 -13 l-973 -1 -100
-137 c-122 -168 -570 -776 -683 -927 -45 -60 -82 -112 -82 -115 0 -3 82 -5
183 -5 l182 1 55 58 c30 33 62 66 71 75 8 9 83 88 164 176 82 88 175 187 206
220 31 33 69 74 84 90 15 17 71 78 126 136 55 58 108 116 119 129 27 32 25 21
-9 -42 -107 -197 -166 -307 -181 -333 -9 -16 -43 -79 -75 -140 -32 -60 -61
-114 -65 -120 -4 -5 -29 -50 -55 -100 -27 -49 -54 -99 -62 -110 -7 -11 -13
-24 -13 -30 0 -7 74 -10 226 -10 130 0 228 -4 231 -9 11 -17 9 -307 -2 -316
-5 -4 -151 -7 -323 -7 -177 0 -316 -4 -321 -9 -5 -5 -28 -45 -51 -89 -24 -44
-56 -99 -72 -123 -16 -23 -27 -46 -24 -50 2 -4 182 -7 400 -7 218 0 396 -3
397 -7 0 -5 1 -71 1 -148 0 -77 -1 -148 -1 -159 -1 -18 -19 -19 -550 -19
l-549 0 -58 -48 c-160 -130 -434 -271 -623 -320 -98 -25 -276 -65 -311 -69
-25 -3 -58 -8 -75 -10 -16 -3 -50 -7 -75 -10 -47 -4 -47 -5 -137 -113 l-36
-43 0 -654 0 -655 -21 -1 c-12 -1 -39 -3 -61 -5 -22 -2 -141 -4 -265 -4 -191
0 -246 2 -291 9 -4 1 -7 259 -7 574 -1 314 -1 582 -1 594 l-1 23 -461 2 -462
3 201 205 c111 113 202 207 202 210 0 4 -17 12 -37 19 -59 21 -200 91 -292
144 l-85 48 -98 -98 -98 -98 -93 93 c-51 50 -95 92 -99 92 -4 0 -58 -31 -120
-68 -542 -327 -1112 -547 -1573 -608 -27 -3 -59 -8 -70 -10 -11 -2 -60 -7
-110 -10 -49 -4 -92 -10 -95 -14 -3 -3 -21 -7 -40 -7 -19 -1 -57 -1 -83 -2
l-48 -1 22 -31 c36 -52 366 -378 479 -474 477 -409 951 -685 1590 -928 102
-39 449 -140 550 -161 14 -3 59 -13 100 -21 41 -9 84 -18 95 -19 11 -2 52 -9
90 -16 39 -6 85 -13 104 -16 19 -2 46 -6 60 -9 14 -2 49 -7 76 -10 28 -3 64
-8 80 -10 212 -27 903 -27 1043 0 10 2 45 6 77 9 95 11 411 61 447 72 9 3 25
6 35 8 425 85 978 298 1393 536 417 240 734 483 1081 831 611 614 1042 1359
1275 2203 20 72 38 142 40 156 3 14 7 32 10 40 8 22 61 306 68 365 4 28 9 57
11 65 2 8 7 44 10 80 4 36 8 81 11 100 26 224 25 941 -1 1023 -2 6 -6 41 -9
77 -7 75 -10 95 -36 250 -23 131 -21 124 -50 256 -52 246 -152 562 -255 809
-58 137 -171 381 -193 414 -7 9 -47 -36 -151 -174z"/>
<path d="M6318 3160 c-13 -4 -56 -49 -108 -117 -47 -61 -113 -148 -148 -192
l-63 -81 43 17 c77 30 221 111 323 181 93 64 238 182 231 189 -6 6 -251 9
-278 3z"/>
</g>
</svg>
