<?xml version="1.0" encoding="UTF-8" standalone="no"?><!DOCTYPE svg PUBLIC "-//W3C//DTD SVG 1.1//EN" "http://www.w3.org/Graphics/SVG/1.1/DTD/svg11.dtd"><svg xmlns="http://www.w3.org/2000/svg" version="1.1" width="422" height="80"><path stroke-linejoin="round" stroke-linecap="round" stroke-width="2" stroke="rgb(52, 58, 64)" fill="none" d="M 101 34 c 0.32 0 11.89 -0.44 18 0 c 31.35 2.28 60 5.54 92 8 c 26.74 2.06 51.13 4.81 77 5 c 19.82 0.15 38.76 -2.11 59 -4 c 16.55 -1.55 33.56 -2.29 48 -6 c 7.48 -1.92 16.6 -7.63 22 -12 c 2.12 -1.72 3.7 -6.27 4 -9 c 0.28 -2.56 -0.45 -7.33 -2 -9 c -2.03 -2.19 -7.36 -4.01 -11 -5 c -3.33 -0.91 -7.34 -1 -11 -1 c -4.32 0 -8.59 0.39 -13 1 c -15.4 2.12 -29.73 5.67 -45 7 c -19.46 1.7 -38.08 1 -58 2 c -7.58 0.38 -15.57 -0.14 -22 2 c -9.51 3.17 -19.44 9.51 -29 15 c -6.33 3.64 -12.28 7.49 -18 12 c -11.82 9.32 -22.41 19.78 -34 29 c -3.03 2.41 -6.55 5.14 -10 6 c -8.94 2.24 -19.93 3.63 -30 4 c -16.98 0.63 -34.39 0.82 -51 -1 c -13.35 -1.47 -26.46 -5.38 -40 -9 c -15.87 -4.25 -43.41 -12.71 -46 -14 c -0.67 -0.33 8.1 -2.9 12 -3 c 9.16 -0.22 19.05 1.86 29 2 c 37.99 0.54 73.25 -1.66 111 0 c 39.6 1.74 77.27 5.52 116 10 c 10.57 1.22 20.45 5.54 31 7 c 18.67 2.57 36.77 3.82 56 5 c 14.37 0.88 42 1 42 1"/></svg>