<?xml version="1.0" encoding="UTF-8" standalone="no"?><!DOCTYPE svg PUBLIC "-//W3C//DTD SVG 1.1//EN" "http://www.w3.org/Graphics/SVG/1.1/DTD/svg11.dtd"><svg xmlns="http://www.w3.org/2000/svg" version="1.1" width="407" height="76"><path stroke-linejoin="round" stroke-linecap="round" stroke-width="2" stroke="rgb(52, 58, 64)" fill="none" d="M 1 8 c 0.39 -0.05 14.75 -3.1 22 -3 c 17.35 0.23 34.82 2.09 53 4 c 21.04 2.21 39.9 4.93 61 8 c 17.02 2.48 31.94 5.47 49 8 c 29.84 4.42 56.9 9.39 86 12 c 19.77 1.77 38.54 0.4 59 1 c 15.27 0.44 28.81 1.56 44 2 c 8.62 0.25 16.71 0.27 25 0 c 2.02 -0.07 6.34 -0.53 6 -1 c -1.24 -1.69 -11.01 -10.28 -17 -14 c -5.97 -3.71 -13.23 -6.91 -20 -9 c -6.9 -2.14 -14.49 -2.38 -22 -4 c -10.02 -2.16 -19.12 -5.35 -29 -7 c -12.32 -2.05 -24.45 -3.18 -37 -4 c -8.09 -0.53 -15.76 -0.2 -24 0 c -5.85 0.14 -11.49 0.14 -17 1 c -5.02 0.78 -10.63 1.82 -15 4 c -7.73 3.86 -16.75 9 -23 15 c -9.38 9 -16.87 22.18 -26 32 c -3.94 4.24 -9.1 7.73 -14 11 c -4.06 2.71 -8.55 4.98 -13 7 c -2.86 1.3 -5.99 2.55 -9 3 c -5.71 0.85 -12.45 1.23 -18 1 c -1.95 -0.08 -4.17 -1.08 -6 -2 c -2.73 -1.37 -5.42 -3.1 -8 -5 c -11.69 -8.63 -30.82 -23.14 -34 -26 c -0.31 -0.28 2.73 -1.07 4 -1 c 4.65 0.24 9.89 1.71 15 2 c 12.83 0.73 25.03 0 38 1 c 35.65 2.76 67.8 6.75 104 10 c 18.07 1.62 33.96 2.86 52 4 c 14.89 0.94 28.34 0.78 43 2 c 14.06 1.17 26.97 2.91 41 5 l 33 6"/></svg>