<?xml version="1.0" encoding="UTF-8" standalone="no"?><!DOCTYPE svg PUBLIC "-//W3C//DTD SVG 1.1//EN" "http://www.w3.org/Graphics/SVG/1.1/DTD/svg11.dtd"><svg xmlns="http://www.w3.org/2000/svg" version="1.1" width="507" height="100"><path stroke-linejoin="round" stroke-linecap="round" stroke-width="2" stroke="rgb(52, 58, 64)" fill="none" d="M 1 38 c 0.35 -0.02 13.25 -1.28 20 -1 c 26.34 1.08 51.05 4.07 78 5 c 53.46 1.84 102.61 3.26 155 3 c 15.27 -0.08 30.99 -1.37 45 -4 c 6.39 -1.2 13.27 -4.92 19 -8 c 2.56 -1.38 5.89 -3.94 7 -6 c 0.84 -1.57 0.86 -5.38 0 -7 c -1.4 -2.62 -5.15 -5.48 -8 -8 c -2.87 -2.54 -5.85 -5.18 -9 -7 c -2.97 -1.72 -6.72 -3.56 -10 -4 c -6.1 -0.81 -13.41 -0.53 -20 0 c -5.69 0.46 -11.73 1.24 -17 3 c -7.38 2.46 -14.94 6.13 -22 10 c -6.97 3.82 -13.62 8.22 -20 13 c -5.68 4.26 -11.46 8.73 -16 14 c -9.92 11.5 -18.03 25.95 -28 37 c -4.9 5.43 -11.78 10.45 -18 14 c -4.92 2.81 -11.37 4.73 -17 6 c -4.38 0.99 -9.51 1.19 -14 1 c -3.26 -0.14 -6.88 -0.92 -10 -2 c -4.38 -1.52 -8.82 -3.72 -13 -6 c -3.16 -1.72 -5.81 -4.17 -9 -6 c -8.04 -4.63 -22.98 -11.89 -24 -13 c -0.45 -0.49 7.93 -0.32 12 0 c 26.55 2.06 51.17 5.36 78 7 c 23.65 1.45 45.21 2 69 2 c 35.15 0 66.86 -0.37 102 -2 c 46.6 -2.16 89.05 -5.06 135 -9 c 13.74 -1.18 40 -6 40 -6"/></svg>