<?xml version="1.0" encoding="UTF-8" standalone="no"?><!DOCTYPE svg PUBLIC "-//W3C//DTD SVG 1.1//EN" "http://www.w3.org/Graphics/SVG/1.1/DTD/svg11.dtd"><svg xmlns="http://www.w3.org/2000/svg" version="1.1" width="388" height="74"><path stroke-linejoin="round" stroke-linecap="round" stroke-width="2" stroke="rgb(52, 58, 64)" fill="none" d="M 1 39 c 0.31 0.02 11.83 1 18 1 c 21.55 0 41.1 -1 63 -1 c 56.3 0 107.46 2.06 162 1 c 14.91 -0.29 29.87 -2.17 44 -5 c 8.78 -1.76 18.23 -5.22 26 -9 c 4.63 -2.26 9.45 -6.45 13 -10 c 1.74 -1.74 3.31 -4.75 4 -7 c 0.52 -1.68 0.76 -4.99 0 -6 c -0.8 -1.07 -4.02 -1.81 -6 -2 c -4.69 -0.45 -10.27 -0.57 -15 0 c -3.29 0.39 -6.83 1.58 -10 3 c -15.49 6.92 -31.49 13.42 -46 22 c -14.69 8.68 -27.6 20.86 -42 30 c -6.49 4.12 -13.9 7.51 -21 10 c -5.93 2.08 -12.63 3.58 -19 4 c -18.71 1.23 -37.83 1.83 -57 1 c -19.61 -0.85 -37.96 -4.26 -58 -6 c -11.71 -1.02 -33.01 -1.75 -34 -2 c -0.42 -0.1 9.33 -2.73 14 -3 c 12.06 -0.71 24.29 -0.52 37 0 c 37.86 1.55 71.85 4.42 110 6 c 28.75 1.19 54.24 0.86 83 2 c 32.26 1.28 60.99 3.67 93 5 c 9.28 0.39 27 0 27 0"/></svg>