<?xml version="1.0" encoding="UTF-8" standalone="no"?><!DOCTYPE svg PUBLIC "-//W3C//DTD SVG 1.1//EN" "http://www.w3.org/Graphics/SVG/1.1/DTD/svg11.dtd"><svg xmlns="http://www.w3.org/2000/svg" version="1.1" width="556" height="128"><path stroke-linejoin="round" stroke-linecap="round" stroke-width="2" stroke="rgb(52, 58, 64)" fill="none" d="M 26 30 c 0.03 0.26 0.8 10.2 2 15 c 1.43 5.72 3.61 11.78 6 17 c 1.14 2.49 3.12 4.96 5 7 c 2.02 2.19 4.53 4.24 7 6 c 2.16 1.54 4.71 3.43 7 4 c 2.55 0.64 6.34 0.69 9 0 c 4.49 -1.17 9.87 -3.56 14 -6 c 2.88 -1.7 5.76 -4.44 8 -7 c 2.28 -2.61 4.26 -5.87 6 -9 c 1.58 -2.85 2.98 -5.94 4 -9 c 0.96 -2.87 2 -6.25 2 -9 c 0 -2.46 -0.96 -5.74 -2 -8 c -0.81 -1.76 -2.52 -3.85 -4 -5 c -1.24 -0.97 -3.46 -2 -5 -2 c -2.91 0 -7.1 0.76 -10 2 c -3.7 1.59 -7.61 4.34 -11 7 c -4.24 3.32 -8.56 6.88 -12 11 c -9.8 11.76 -18.8 24.22 -28 37 c -3.03 4.2 -4.98 8.92 -8 13 c -3.65 4.93 -7.97 9.7 -12 14 c -0.79 0.84 -2.95 2.29 -3 2 c -0.11 -0.67 0.7 -5.99 2 -8 c 2 -3.1 5.77 -6.26 9 -9 c 3.45 -2.93 7.13 -6.07 11 -8 c 5.12 -2.56 11.82 -5.23 17 -6 c 2.93 -0.43 7.2 0.76 10 2 c 2.74 1.22 5.61 3.76 8 6 c 2.88 2.7 6.43 5.68 8 9 c 3.71 7.85 5.77 18.66 9 27 l 3 4"/><path stroke-linejoin="round" stroke-linecap="round" stroke-width="2" stroke="rgb(52, 58, 64)" fill="none" d="M 116 99 c 0.09 0.14 3.22 5.77 5 8 c 0.68 0.85 3 2 3 2"/><path stroke-linejoin="round" stroke-linecap="round" stroke-width="2" stroke="rgb(52, 58, 64)" fill="none" d="M 194 60 c 0.25 0.03 9.66 2.17 14 2 c 3.79 -0.15 8.61 -1.49 12 -3 c 2.14 -0.95 4.3 -3.15 6 -5 c 1.87 -2.04 3.46 -4.54 5 -7 c 1.84 -2.95 4.09 -5.92 5 -9 c 1.62 -5.46 2.81 -12.29 3 -18 c 0.13 -3.81 -0.54 -8.91 -2 -12 c -1.19 -2.51 -4.84 -6.23 -7 -7 c -1.59 -0.57 -5.08 0.87 -7 2 c -3.38 1.99 -6.98 4.98 -10 8 c -9.01 9.01 -17.69 18.2 -26 28 c -4.83 5.7 -8.84 11.65 -13 18 c -7.48 11.44 -13.33 22.96 -21 34 c -6.15 8.85 -16.82 21.82 -20 25 c -0.36 0.36 -2.16 -2.2 -2 -3 c 0.36 -1.79 2.35 -4.94 4 -7 c 4.92 -6.15 10.26 -13 16 -18 c 4.17 -3.63 9.91 -6.45 15 -9 c 2.76 -1.38 6.17 -2.67 9 -3 c 2.4 -0.28 5.79 0.12 8 1 c 2.35 0.94 4.96 3.13 7 5 c 1.85 1.7 3.7 3.89 5 6 c 1.27 2.06 1.82 4.84 3 7 c 0.77 1.42 1.87 2.87 3 4 c 1.13 1.13 2.84 3.09 4 3 c 2.28 -0.18 6.23 -2.3 9 -4 c 7.49 -4.59 15.02 -11.01 22 -15 c 1.59 -0.91 4.31 -1.17 6 -1 c 1.25 0.12 3.22 1.09 4 2 c 0.94 1.1 1.79 3.36 2 5 c 0.42 3.36 -0.44 7.9 0 11 c 0.15 1.02 1.36 3.2 2 3 c 3.42 -1.08 11.46 -6.59 17 -9 c 1.75 -0.76 4.25 -1.16 6 -1 c 1.55 0.14 3.87 1.02 5 2 c 1.22 1.07 2.6 3.26 3 5 c 1.46 6.32 1.42 18 3 21 c 0.54 1.03 5.34 -0.63 7 -2 c 8.85 -7.33 18.28 -18.25 28 -27 c 3.75 -3.37 7.82 -6.21 12 -9 c 2.87 -1.91 6.13 -4.04 9 -5 c 1.67 -0.56 4.65 -0.6 6 0 c 1.13 0.5 2.96 2.65 3 4 c 0.24 7.31 -1.73 18.49 -2 27 c -0.04 1.3 0.88 4.27 1 4 c 1.95 -4.2 15.92 -39.79 25 -60 c 4.56 -10.15 9.61 -19.69 15 -29 c 1.88 -3.25 5.88 -9 7 -9 c 0.9 0 2.28 6.19 2 9 c -1.27 12.7 -5.16 27.35 -7 41 c -0.49 3.61 -0.19 7.31 0 11 c 0.14 2.71 0.42 5.47 1 8 c 0.39 1.69 1.11 4.91 2 5 c 1.48 0.15 6.34 -1.96 8 -4 c 8.81 -10.82 18.17 -25.43 27 -39 c 5.17 -7.95 9.17 -16.49 14 -24 c 0.98 -1.53 3.15 -3.86 4 -4 c 0.54 -0.09 1.91 2.03 2 3 c 0.2 2.17 -0.36 5.43 -1 8 c -1.01 4.03 -2.88 7.84 -4 12 c -2.28 8.45 -4.34 16.48 -6 25 c -1.04 5.34 -2.49 16.3 -2 16 c 0.7 -0.44 6.37 -13.93 10 -21 c 2.52 -4.9 5.07 -9.31 8 -14 c 5.65 -9.04 11.13 -18.09 17 -26 c 1.47 -1.99 4.86 -5.47 6 -5 c 1.7 0.71 6.33 6.89 6 10 c -2.16 20.37 -14.64 73.36 -15 75 c -0.03 0.15 -0.51 -4.88 0 -7 c 1.07 -4.51 2.81 -9.63 5 -14 c 3.76 -7.51 8.31 -14.75 13 -22 c 2.75 -4.25 5.7 -8.35 9 -12 c 2.96 -3.28 6.47 -6.22 10 -9 c 2.83 -2.24 5.89 -4.92 9 -6 c 4.96 -1.72 11.73 -3 17 -3 c 4.07 0 8.94 1.54 13 3 l 12 6"/><path stroke-linejoin="round" stroke-linecap="round" stroke-width="2" stroke="rgb(52, 58, 64)" fill="none" d="M 380 26 l 1 1"/></svg>