<?xml version="1.0" encoding="UTF-8" standalone="no"?><!DOCTYPE svg PUBLIC "-//W3C//DTD SVG 1.1//EN" "http://www.w3.org/Graphics/SVG/1.1/DTD/svg11.dtd"><svg xmlns="http://www.w3.org/2000/svg" version="1.1" width="595" height="106"><path stroke-linejoin="round" stroke-linecap="round" stroke-width="2" stroke="rgb(52, 58, 64)" fill="none" d="M 16 91 c 0.05 -0.07 1.84 -2.84 3 -4 c 2.79 -2.79 6.7 -4.91 9 -8 c 7.04 -9.47 12.59 -21.03 20 -31 c 9.12 -12.29 19.92 -23.37 29 -35 c 1.34 -1.72 1.79 -4.19 3 -6 c 1.4 -2.11 3.79 -5.55 5 -6 c 0.66 -0.25 2.93 1.97 3 3 c 0.2 2.96 -1.04 8.02 -2 12 c -1.4 5.8 -2.79 11.63 -5 17 c -2.4 5.83 -5.59 11.62 -9 17 c -2.91 4.59 -6.45 9.01 -10 13 c -1.69 1.9 -3.8 3.9 -6 5 c -6.07 3.03 -13.41 6.65 -20 8 c -7.35 1.5 -16.19 1.22 -24 1 l -11 -2"/><path stroke-linejoin="round" stroke-linecap="round" stroke-width="2" stroke="rgb(52, 58, 64)" fill="none" d="M 123 75 c -0.02 -0.09 -0.31 -3.62 -1 -5 c -1.17 -2.33 -3.23 -5.01 -5 -7 c -0.74 -0.83 -1.99 -1.82 -3 -2 c -2.24 -0.41 -6.15 -0.67 -8 0 c -1.16 0.42 -2.33 2.56 -3 4 c -1.57 3.36 -4 11 -4 11"/><path stroke-linejoin="round" stroke-linecap="round" stroke-width="2" stroke="rgb(52, 58, 64)" fill="none" d="M 124 68 l 1 1"/><path stroke-linejoin="round" stroke-linecap="round" stroke-width="2" stroke="rgb(52, 58, 64)" fill="none" d="M 104 57 c -0.05 0.04 -2.71 1.14 -3 2 c -0.8 2.4 -1.53 7.53 -1 10 c 0.3 1.39 2.55 3.13 4 4 c 1.62 0.97 4.03 1.72 6 2 c 2.49 0.36 8 0 8 0"/><path stroke-linejoin="round" stroke-linecap="round" stroke-width="2" stroke="rgb(52, 58, 64)" fill="none" d="M 175 60 c -0.07 -0.02 -2.95 -1.15 -4 -1 c -0.92 0.13 -2.09 1.24 -3 2 c -1.07 0.89 -2.43 1.87 -3 3 c -1.27 2.53 -2.95 8.72 -3 9 c -0.02 0.11 1.2 -2.95 2 -3 c 2.93 -0.2 9.18 2.44 13 2 c 4.04 -0.47 9.35 -2.72 13 -5 c 3.89 -2.43 7.22 -7.42 11 -10 c 2.17 -1.48 6.43 -3.67 8 -3 c 1.99 0.85 4.58 5.87 6 9 c 1.79 3.93 2.22 9.24 4 13 c 1.02 2.16 3.28 4.66 5 6 c 0.91 0.71 3.36 1.57 4 1 c 1.8 -1.62 3.86 -6.91 6 -10 l 3 -3"/><path stroke-linejoin="round" stroke-linecap="round" stroke-width="2" stroke="rgb(52, 58, 64)" fill="none" d="M 246 85 c 0.38 -0.23 15.26 -8.28 22 -13 c 2.98 -2.09 6 -5.06 8 -8 c 2.77 -4.06 5.05 -9.38 7 -14 c 0.63 -1.51 0.85 -3.33 1 -5 c 0.18 -1.96 0.5 -4.51 0 -6 c -0.35 -1.06 -1.92 -2.46 -3 -3 c -1.3 -0.65 -3.66 -1.33 -5 -1 c -2.11 0.53 -5.68 2.28 -7 4 c -1.55 2.02 -3 6.23 -3 9 c 0 4.47 1.54 10.42 3 15 c 0.77 2.41 2.43 4.95 4 7 c 1.66 2.15 3.87 4.4 6 6 c 1.69 1.26 3.91 2.23 6 3 c 4.23 1.56 9.82 4.95 13 4 c 5 -1.5 13 -8 17 -13 c 4.6 -5.75 8.64 -19.01 11 -22 c 0.48 -0.61 3.54 1.75 4 3 c 1.5 4.08 0.74 11.85 3 16 c 3.15 5.77 9.63 12.02 15 17 c 3.74 3.48 8.91 7.64 13 9 c 2.85 0.95 7.34 -1 11 -1 l 13 1"/><path stroke-linejoin="round" stroke-linecap="round" stroke-width="2" stroke="rgb(52, 58, 64)" fill="none" d="M 376 86 c 0.3 -0.79 11.25 -30.48 17 -45 c 0.43 -1.09 1.9 -3.1 2 -3 c 0.11 0.11 -0.45 2.8 -1 4 c -1.07 2.34 -3.1 4.66 -4 7 c -0.68 1.76 -1.17 4.31 -1 6 c 0.12 1.25 1.4 4.28 2 4 c 2.29 -1.07 8.58 -7.91 13 -11 c 1.98 -1.38 4.57 -2.09 7 -3 c 3.03 -1.14 5.96 -2.24 9 -3 c 2.26 -0.57 5.29 -1.34 7 -1 c 1.03 0.21 2.08 1.92 3 3 c 1.09 1.27 3 2.76 3 4 c 0 2.83 -2.26 7.28 -3 11 c -0.59 2.95 -0.39 6.17 -1 9 l -2 5"/><path stroke-linejoin="round" stroke-linecap="round" stroke-width="2" stroke="rgb(52, 58, 64)" fill="none" d="M 436 84 c 0.03 -0.09 1.01 -3.63 2 -5 c 3.13 -4.34 8.23 -10.97 11 -13 c 0.73 -0.53 3.84 1.03 4 2 c 0.58 3.47 -1.6 12.2 -1 16 c 0.19 1.18 2.88 2.86 4 3 c 1.01 0.13 2.81 -1.14 4 -2 c 4.73 -3.41 9.35 -7.98 14 -11 c 1.65 -1.07 5.06 -2.63 6 -2 c 1.27 0.85 1.69 6.13 3 8 c 0.68 0.98 2.84 2.15 4 2 c 3.29 -0.41 7.96 -2.51 12 -4 c 2.43 -0.9 5.33 -1.67 7 -3 c 1.28 -1.02 1.78 -3.56 3 -5 c 2.36 -2.79 5.47 -6.44 8 -8 c 1.12 -0.69 4.62 -0.87 5 0 c 1.22 2.79 1.77 10.88 2 16 c 0.09 1.93 -1.15 4.21 -1 6 c 0.16 1.86 1.01 4.51 2 6 c 0.78 1.18 3.05 3 4 3 c 0.81 0 1.86 -2.24 3 -3 c 5.68 -3.79 12.46 -8.46 18 -11 c 1.58 -0.72 5.14 -0.86 6 0 c 1.18 1.18 1.58 5.27 2 8 c 0.92 6 -0.12 17.82 2 18 c 3.18 0.26 15.19 -10.41 22 -16 c 2.31 -1.9 4.24 -4.5 6 -7 l 6 -10"/></svg>