<?xml version="1.0" encoding="UTF-8" standalone="no"?><!DOCTYPE svg PUBLIC "-//W3C//DTD SVG 1.1//EN" "http://www.w3.org/Graphics/SVG/1.1/DTD/svg11.dtd"><svg xmlns="http://www.w3.org/2000/svg" version="1.1" width="564" height="117"><path stroke-linejoin="round" stroke-linecap="round" stroke-width="2" stroke="rgb(52, 58, 64)" fill="none" d="M 23 7 c 0.07 0.12 3 4.58 4 7 c 1.29 3.13 2.18 9.05 3 10 c 0.33 0.39 3 -2.19 3 -3 c 0 -0.95 -1.82 -2.92 -3 -4 c -2.69 -2.47 -5.99 -5.66 -9 -7 c -2.39 -1.06 -6.79 -1.51 -9 -1 c -1.38 0.32 -2.93 2.53 -4 4 c -1.52 2.09 -3.06 4.58 -4 7 c -1.33 3.42 -2.72 7.45 -3 11 c -0.35 4.37 0.39 9.29 1 14 c 0.75 5.8 1.71 11.3 3 17 c 1.09 4.81 2.39 9.36 4 14 c 1.43 4.14 2.93 8.33 5 12 c 2.17 3.84 5.33 8.54 8 11 c 1 0.92 3.71 1.35 5 1 c 1.83 -0.5 4.79 -2.38 6 -4 c 1.44 -1.92 2.31 -5.23 3 -8 c 2.99 -11.96 5.01 -24.04 8 -36 c 0.69 -2.77 1.88 -7.63 3 -8 c 1.02 -0.34 5.02 3.03 6 5 c 1.95 3.91 4.86 13.89 4 15 c -0.69 0.89 -7.92 -5.49 -11 -6 c -1.87 -0.31 -5.62 1.62 -7 3 c -1.14 1.14 -1.67 4.04 -2 6 c -0.31 1.86 -0.58 4.37 0 6 c 0.91 2.56 3.15 5.74 5 8 c 0.98 1.2 2.78 2.7 4 3 c 1 0.25 2.87 -0.44 4 -1 c 1.37 -0.68 3.13 -1.84 4 -3 c 0.93 -1.25 1.58 -3.31 2 -5 c 0.55 -2.22 0.89 -4.64 1 -7 c 0.22 -4.67 -0.12 -13.64 0 -14 c 0.07 -0.21 0.84 5.83 2 8 c 1.29 2.43 3.91 5.61 6 7 c 1.38 0.92 4.31 1.17 6 1 c 1.25 -0.12 3.36 -0.96 4 -2 c 2.48 -4.06 4.91 -10.49 7 -16 c 1.63 -4.29 3.25 -8.62 4 -13 c 1.22 -7.12 1.73 -15.1 2 -22 c 0.05 -1.29 -0.99 -4.11 -1 -4 c -0.04 0.32 -0.33 8.03 0 12 c 0.34 4.02 0.96 8.09 2 12 c 1.63 6.1 3.48 12.29 6 18 c 2.44 5.52 5.82 11.68 9 16 c 1.01 1.37 3.56 2.86 5 3 l 5 -2"/><path stroke-linejoin="round" stroke-linecap="round" stroke-width="2" stroke="rgb(52, 58, 64)" fill="none" d="M 67 47 c 0.09 0.02 3.44 1.1 5 1 c 3.11 -0.21 7.46 -0.59 10 -2 c 2.81 -1.56 5.61 -5.06 8 -8 c 7.68 -9.47 14.68 -19.99 22 -29 c 1.01 -1.24 3.5 -3.42 4 -3 c 0.83 0.69 1.75 5.3 2 8 c 1.07 11.49 0.78 23.53 2 35 c 0.43 4.05 1.89 10.89 3 12 c 0.58 0.58 3.68 -2.51 5 -4 c 1.2 -1.35 2.25 -3.31 3 -5 c 0.53 -1.19 0.89 -4.23 1 -4 c 0.52 1.11 3.64 13.58 6 19 c 0.67 1.54 2.59 3.22 4 4 c 1.27 0.7 3.97 1.6 5 1 c 2.14 -1.25 5.06 -5.18 7 -8 c 1.63 -2.37 3.11 -5.33 4 -8 c 0.7 -2.11 0.45 -4.78 1 -7 c 0.42 -1.69 1.89 -5 2 -5 c 0.1 0 -1.21 3.53 -1 5 c 0.39 2.74 1.59 7.06 3 9 c 0.8 1.1 3.8 2.33 5 2 c 1.73 -0.47 4.64 -3.1 6 -5 c 1.71 -2.4 2.42 -6.82 4 -9 c 0.72 -0.99 3.31 -2.46 4 -2 c 1.46 0.97 3.84 5.24 5 8 c 1.4 3.34 2.25 7.24 3 11 c 0.93 4.66 1.84 9.39 2 14 c 0.16 4.58 -0.32 9.38 -1 14 c -0.65 4.39 -1.63 8.9 -3 13 c -0.92 2.75 -2.28 6.12 -4 8 c -1.55 1.69 -4.75 3.31 -7 4 c -1.68 0.52 -4.65 0.6 -6 0 c -1.13 -0.5 -2.57 -2.61 -3 -4 c -0.77 -2.52 -1.14 -6.13 -1 -9 c 0.18 -3.55 0.84 -7.69 2 -11 c 1.07 -3.05 3.09 -6.22 5 -9 c 1.71 -2.49 3.76 -5.6 6 -7 c 2.54 -1.58 6.97 -3.12 10 -3 c 4.78 0.18 11.02 2.27 16 4 c 2.43 0.85 4.77 3.26 7 4 l 5 0"/><path stroke-linejoin="round" stroke-linecap="round" stroke-width="2" stroke="rgb(52, 58, 64)" fill="none" d="M 209 19 l 28 73"/><path stroke-linejoin="round" stroke-linecap="round" stroke-width="2" stroke="rgb(52, 58, 64)" fill="none" d="M 237 17 c 0.39 1.17 20.26 60.36 22 67 c 0.13 0.51 -3.71 -0.95 -5 -2 c -5.26 -4.26 -10.43 -10.5 -16 -15 c -2.96 -2.39 -6.57 -4.37 -10 -6 c -2.79 -1.32 -6.09 -2.38 -9 -3 c -1.54 -0.33 -4.02 -0.56 -5 0 c -0.88 0.5 -2.52 3.42 -2 4 c 1.3 1.46 6.87 4.34 10 5 c 2.53 0.53 6.08 -0.38 9 -1 c 3.37 -0.71 6.78 -1.75 10 -3 c 2.76 -1.07 5.57 -2.38 8 -4 c 3.48 -2.32 7.57 -6.88 10 -8 c 0.69 -0.32 2.46 1.2 3 2 c 0.61 0.92 0.4 2.91 1 4 c 0.94 1.69 2.45 3.97 4 5 c 2.06 1.38 5.57 2.63 8 3 c 1.45 0.22 3.52 -0.41 5 -1 c 1.69 -0.68 3.65 -1.8 5 -3 c 1.49 -1.32 2.98 -3.21 4 -5 c 1.57 -2.75 2.65 -7.65 4 -9 c 0.57 -0.57 3.33 0.33 4 1 c 0.67 0.67 0.42 2.84 1 4 c 1.33 2.66 3.02 5.86 5 8 c 2.1 2.26 5.66 5.56 8 6 c 2 0.38 6.76 -1.23 8 -3 c 2.61 -3.73 4.42 -11.25 6 -17 c 1.07 -3.88 1.46 -7.88 2 -12 c 0.49 -3.74 1 -7.4 1 -11 c 0 -2.63 -0.37 -5.68 -1 -8 c -0.28 -1.04 -1.58 -3.17 -2 -3 c -0.68 0.27 -2.72 3.33 -3 5 c -0.62 3.72 -0.61 8.83 0 13 c 1.02 6.92 2.71 14.32 5 21 c 1.99 5.81 7.49 16.23 8 17 c 0.14 0.2 0.67 -3.78 0 -5 c -2.51 -4.56 -6.95 -12.35 -11 -15 c -3.3 -2.16 -10.35 -1.76 -15 -2 c -1.27 -0.07 -3.91 0.39 -4 1 c -0.14 1 1.67 5.07 3 6 c 1.4 0.98 4.67 1 7 1 c 7.25 0 14.97 0.08 22 -1 c 5.66 -0.87 11.71 -3.15 17 -5 c 1.08 -0.38 3.05 -2.22 3 -2 c -0.16 0.73 -4.14 7.79 -5 11 c -0.29 1.1 0.41 2.96 1 4 c 0.61 1.07 1.96 2.61 3 3 c 1.23 0.46 3.46 0.33 5 0 c 2.91 -0.62 6.65 -1.43 9 -3 c 3.16 -2.11 6.26 -5.77 9 -9 c 2.93 -3.45 6.09 -7.08 8 -11 c 3.91 -8.04 6.99 -17.21 10 -26 c 1 -2.91 2.17 -6.56 2 -9 c -0.11 -1.54 -2.02 -4.58 -3 -5 c -0.75 -0.32 -3.47 1.05 -4 2 c -0.83 1.5 -1 4.71 -1 7 c 0 3.58 0.37 7.38 1 11 c 0.71 4.06 1.48 8.27 3 12 c 2.74 6.75 6.36 13.36 10 20 c 2.12 3.87 5.98 11.55 7 11 c 1.36 -0.74 2.45 -11.56 4 -17 c 0.4 -1.39 1.59 -4.32 2 -4 c 1.18 0.92 4.5 7.37 7 11 c 1.23 1.78 2.54 3.54 4 5 c 1.14 1.14 2.71 2.77 4 3 c 1.83 0.33 6.02 0.35 7 -1 c 3.17 -4.36 7.13 -21.22 9 -21 c 1.99 0.23 5.03 17.06 8 23 c 0.71 1.42 3.92 3.24 5 3 c 1.19 -0.26 3.05 -3.25 4 -5 c 0.94 -1.72 1.08 -4.15 2 -6 c 2.03 -4.06 4.97 -9.97 7 -12 c 0.6 -0.6 3.17 0.27 4 1 c 1.45 1.27 2.41 4.7 4 6 c 1.68 1.38 4.89 2.86 7 3 c 2.28 0.15 6.06 -0.71 8 -2 c 2.5 -1.67 4.54 -5.54 7 -8 c 1.16 -1.16 2.63 -2.39 4 -3 c 1.4 -0.62 3.81 -1.3 5 -1 c 0.99 0.25 2.31 1.9 3 3 c 0.87 1.39 1.73 3.37 2 5 c 0.35 2.12 0.39 4.81 0 7 c -0.58 3.26 -1.68 6.86 -3 10 c -1.3 3.09 -3.11 6.1 -5 9 c -2.49 3.84 -5.06 8.24 -8 11 c -1.94 1.82 -5.33 3.17 -8 4 c -2.4 0.75 -5.66 1.45 -8 1 c -4.04 -0.77 -9.51 -2.87 -13 -5 c -1.95 -1.19 -3.79 -3.88 -5 -6 c -1.32 -2.32 -2.57 -5.33 -3 -8 c -0.85 -5.32 -1.59 -12.07 -1 -17 c 0.31 -2.59 2.36 -7.04 4 -8 c 1.48 -0.86 5.73 -0.04 8 1 c 12.73 5.84 26.33 14.29 40 21 c 4.21 2.07 8.49 3.44 13 5 c 4.4 1.52 8.56 3.06 13 4 l 20 3"/></svg>