<?xml version="1.0" encoding="UTF-8" standalone="no"?><!DOCTYPE svg PUBLIC "-//W3C//DTD SVG 1.1//EN" "http://www.w3.org/Graphics/SVG/1.1/DTD/svg11.dtd"><svg xmlns="http://www.w3.org/2000/svg" version="1.1" width="315" height="103"><path stroke-linejoin="round" stroke-linecap="round" stroke-width="2" stroke="rgb(52, 58, 64)" fill="none" d="M 147 9 l 1 1"/><path stroke-linejoin="round" stroke-linecap="round" stroke-width="2" stroke="rgb(52, 58, 64)" fill="none" d="M 2 1 l -1 21"/><path stroke-linejoin="round" stroke-linecap="round" stroke-width="2" stroke="rgb(52, 58, 64)" fill="none" d="M 26 56 l 1 1"/><path stroke-linejoin="round" stroke-linecap="round" stroke-width="2" stroke="rgb(52, 58, 64)" fill="none" d="M 34 102 c 0.05 -0.21 1.63 -8.29 3 -12 c 0.89 -2.42 4 -7 4 -7"/><path stroke-linejoin="round" stroke-linecap="round" stroke-width="2" stroke="rgb(52, 58, 64)" fill="none" d="M 66 23 c -0.03 0.12 -1.85 4.78 -2 7 c -0.16 2.45 1 8 1 8"/><path stroke-linejoin="round" stroke-linecap="round" stroke-width="2" stroke="rgb(52, 58, 64)" fill="none" d="M 51 101 l 1 1"/><path stroke-linejoin="round" stroke-linecap="round" stroke-width="2" stroke="rgb(52, 58, 64)" fill="none" d="M 42 53 c 0.12 0.02 4.78 0.45 7 1 c 1.69 0.42 3.32 1.75 5 2 c 4.68 0.7 10.22 1.42 15 1 c 6.18 -0.55 13.89 -1.84 19 -4 c 2.6 -1.1 7 -7 7 -7"/><path stroke-linejoin="round" stroke-linecap="round" stroke-width="2" stroke="rgb(52, 58, 64)" fill="none" d="M 117 25 l -9 24"/><path stroke-linejoin="round" stroke-linecap="round" stroke-width="2" stroke="rgb(52, 58, 64)" fill="none" d="M 103 24 c 0.12 0.02 4.64 0.94 7 1 c 10.69 0.27 32 0 32 0"/><path stroke-linejoin="round" stroke-linecap="round" stroke-width="2" stroke="rgb(52, 58, 64)" fill="none" d="M 104 51 c 0.05 0.05 1.87 2.65 3 3 c 3.51 1.1 13 2 13 2"/><path stroke-linejoin="round" stroke-linecap="round" stroke-width="2" stroke="rgb(52, 58, 64)" fill="none" d="M 142 89 c 0.05 -0.09 1.84 -3.51 3 -5 c 1.12 -1.44 3.05 -2.47 4 -4 c 3.85 -6.17 8.39 -13.82 11 -20 c 0.69 -1.62 -0.24 -4.05 0 -6 c 0.41 -3.32 1.8 -6.85 2 -10 c 0.12 -1.88 -1.59 -6 -1 -6 c 1.12 0 8.28 3.57 10 6 c 1.65 2.33 0.35 9.22 2 11 c 1.5 1.63 7.32 2 10 2 c 0.95 0 2.05 -1.89 3 -2 c 1.61 -0.18 4.15 0.45 6 1 c 1.36 0.41 3.74 1.02 4 2 c 0.76 2.85 -0.78 9.89 0 13 c 0.3 1.2 2.79 3.19 4 3 c 5.57 -0.86 15.43 -5.91 22 -7 c 2.35 -0.39 5.54 2 8 2 c 2.75 0 6.33 -2.15 9 -2 c 2.74 0.15 6.13 2.71 9 3 c 3.34 0.33 7.49 -0.3 11 -1 c 3.02 -0.6 6.12 -2.73 9 -3 c 3.65 -0.35 8.08 0.24 12 1 c 8.06 1.57 16.16 4.48 24 6 c 2.22 0.43 5.24 0.53 7 0 c 1.07 -0.32 2.87 -2.11 3 -3 c 0.13 -0.93 -1.13 -2.84 -2 -4 c -3.04 -4.05 -6.35 -8.35 -10 -12 c -3.98 -3.98 -8.43 -8.12 -13 -11 c -4.08 -2.57 -9.27 -4.75 -14 -6 c -6.29 -1.66 -13.2 -2.43 -20 -3 c -9.42 -0.79 -18.5 -1.16 -28 -1 c -11.22 0.18 -22.03 0.55 -33 2 c -11.85 1.57 -22.84 4.88 -35 7 c -25.55 4.45 -48.98 7.29 -74 12 c -9.31 1.75 -19.2 4.02 -27 7 l -7 6"/></svg>