<?xml version="1.0" encoding="UTF-8" standalone="no"?><!DOCTYPE svg PUBLIC "-//W3C//DTD SVG 1.1//EN" "http://www.w3.org/Graphics/SVG/1.1/DTD/svg11.dtd"><svg xmlns="http://www.w3.org/2000/svg" version="1.1" width="338" height="111"><path stroke-linejoin="round" stroke-linecap="round" stroke-width="2" stroke="rgb(52, 58, 64)" fill="none" d="M 234 30 l 1 1"/><path stroke-linejoin="round" stroke-linecap="round" stroke-width="2" stroke="rgb(52, 58, 64)" fill="none" d="M 76 39 l 1 1"/><path stroke-linejoin="round" stroke-linecap="round" stroke-width="2" stroke="rgb(52, 58, 64)" fill="none" d="M 11 29 l 1 1"/><path stroke-linejoin="round" stroke-linecap="round" stroke-width="2" stroke="rgb(52, 58, 64)" fill="none" d="M 1 22 c 0.14 0.02 5.29 0.94 8 1 c 12.77 0.28 26.29 1.3 38 0 c 5.27 -0.59 10.75 -3.57 16 -6 c 13.04 -6.04 24.99 -12.65 38 -19 c 1.65 -0.81 3.38 -1.68 5 -2 c 1.51 -0.3 4.48 -0.52 5 0 c 0.43 0.43 -0.39 3.08 -1 4 c -0.54 0.8 -2.24 1.16 -3 2 c -2.41 2.65 -4.76 5.79 -7 9 c -10.46 14.98 -19.02 30.82 -30 44 c -6.87 8.24 -16.21 14.93 -25 22 c -6.81 5.48 -18.06 14.73 -21 15 c -1.49 0.14 -2.64 -10.05 -1 -13 c 3.92 -7.05 13.48 -15.65 21 -23 c 7.7 -7.53 16.17 -13.48 24 -21 c 9.55 -9.18 17.51 -19.75 27 -28 c 5.48 -4.77 19 -12 19 -12"/><path stroke-linejoin="round" stroke-linecap="round" stroke-width="2" stroke="rgb(52, 58, 64)" fill="none" d="M 81 24 c -0.07 0.02 -2.8 0.45 -4 1 c -2.34 1.07 -6.29 2.58 -7 4 c -0.56 1.11 0.82 4.57 2 6 c 3.04 3.69 8.35 7.13 12 11 c 1.93 2.04 3.7 4.56 5 7 c 1.29 2.42 1.74 5.48 3 8 c 1.72 3.44 6 10 6 10"/><path stroke-linejoin="round" stroke-linecap="round" stroke-width="2" stroke="rgb(52, 58, 64)" fill="none" d="M 146 24 c -0.07 0.02 -3.24 0.16 -4 1 c -4.88 5.37 -10.43 13.66 -16 21 c -2.11 2.78 -4.37 5.18 -6 8 c -1.97 3.41 -5.48 11.29 -5 11 c 1.45 -0.85 22.02 -21.11 27 -24 c 0.99 -0.58 2.72 5.89 4 6 c 1.68 0.14 5.18 -3.53 8 -5 c 5.61 -2.92 12.31 -6.72 17 -8 c 1.34 -0.37 4.07 1.07 5 2 c 0.71 0.71 0.39 3.08 1 4 c 0.54 0.8 2.14 2.09 3 2 l 7 -3"/><path stroke-linejoin="round" stroke-linecap="round" stroke-width="2" stroke="rgb(52, 58, 64)" fill="none" d="M 226 53 c 0.12 -0.12 5.03 -4.4 7 -7 c 5.3 -6.98 10.38 -14.66 15 -22 c 0.93 -1.48 2.24 -5.06 2 -5 c -0.37 0.09 -4.53 3.72 -6 6 c -4.96 7.69 -12.85 21.82 -14 25 c -0.2 0.56 3.51 0.4 5 0 c 3.2 -0.85 6.65 -2.95 10 -4 c 1.89 -0.59 4.28 -0.22 6 -1 c 5.2 -2.36 13.61 -9 16 -9 c 1.18 0 1.26 6.08 1 9 c -1.37 15.6 -4.94 33.1 -6 48 c -0.18 2.54 1.12 5.58 2 8 l 2 3"/><path stroke-linejoin="round" stroke-linecap="round" stroke-width="2" stroke="rgb(52, 58, 64)" fill="none" d="M 304 31 c 0.05 -0.05 1.9 -2.31 3 -3 c 1.39 -0.87 5.04 -2.5 5 -2 c -0.11 1.58 -7.13 14.98 -6 16 c 1.16 1.04 11.82 -6.2 16 -7 c 1.4 -0.27 5.05 1.81 5 3 c -0.19 4.46 -5.41 16.46 -6 21 c -0.1 0.75 2.02 1.92 3 2 c 2.74 0.21 7.11 -0.33 10 -1 l 3 -2"/></svg>