<?xml version="1.0" encoding="UTF-8" standalone="no"?><!DOCTYPE svg PUBLIC "-//W3C//DTD SVG 1.1//EN" "http://www.w3.org/Graphics/SVG/1.1/DTD/svg11.dtd"><svg xmlns="http://www.w3.org/2000/svg" version="1.1" width="553" height="151"><path stroke-linejoin="round" stroke-linecap="round" stroke-width="2" stroke="rgb(52, 58, 64)" fill="none" d="M 4 52 c 0.03 0.09 1.04 3.6 2 5 c 2.54 3.7 5.73 7.91 9 11 c 2.49 2.35 5.82 4.35 9 6 c 5.79 3 12 6.12 18 8 c 4.31 1.35 9.48 2 14 2 c 4.83 0 10.2 -0.84 15 -2 c 4.72 -1.14 9.62 -2.89 14 -5 c 4.49 -2.16 8.86 -5.02 13 -8 c 4.23 -3.05 8.5 -6.34 12 -10 c 3.36 -3.52 6.26 -7.8 9 -12 c 2.29 -3.5 4.46 -7.24 6 -11 c 1.4 -3.42 2.26 -7.28 3 -11 c 0.59 -2.95 1.48 -6.36 1 -9 c -0.74 -4.07 -3.08 -9.8 -5 -13 c -0.62 -1.03 -2.73 -1.89 -4 -2 c -2.29 -0.19 -6.11 -0.02 -8 1 c -1.83 0.99 -3.71 3.8 -5 6 c -4.28 7.3 -8.13 14.97 -12 23 c -5.07 10.53 -8.91 20.61 -14 31 c -2.74 5.61 -5.76 10.59 -9 16 c -2.94 4.9 -5.66 9.46 -9 14 c -5.14 6.98 -10.24 13.46 -16 20 c -6.84 7.77 -13.71 15.78 -21 22 c -3.54 3.02 -8.74 5.3 -13 7 c -2.04 0.82 -4.94 1.17 -7 1 c -1.57 -0.13 -4.69 -0.92 -5 -2 c -0.69 -2.41 -0.03 -8.57 1 -12 c 0.81 -2.68 3.1 -5.52 5 -8 c 2.42 -3.17 5.07 -6.38 8 -9 c 3.3 -2.96 7.15 -5.55 11 -8 c 3.55 -2.26 7.24 -4.46 11 -6 c 3.42 -1.4 7.38 -2.51 11 -3 c 3.49 -0.48 7.94 -0.93 11 0 c 3.87 1.18 8.57 4.37 12 7 c 1.93 1.48 3.86 3.79 5 6 l 10 23"/><path stroke-linejoin="round" stroke-linecap="round" stroke-width="2" stroke="rgb(52, 58, 64)" fill="none" d="M 146 85 c -0.03 -0.07 -1.57 -2.61 -2 -4 c -1.2 -3.84 -1.6 -8.41 -3 -12 c -0.81 -2.1 -2.43 -4.3 -4 -6 c -2.31 -2.5 -5.47 -5.64 -8 -7 c -1.19 -0.64 -3.66 -0.49 -5 0 c -1.93 0.7 -4.18 2.49 -6 4 c -2.14 1.78 -4.18 3.85 -6 6 c -1.84 2.18 -3.78 4.56 -5 7 c -1.34 2.69 -2.24 5.89 -3 9 c -2.29 9.4 -5.32 19.82 -6 28 c -0.2 2.44 1.41 6.9 3 8 c 1.87 1.29 7.3 1.51 10 1 c 1.94 -0.36 4.55 -2.31 6 -4 c 4.18 -4.88 8.15 -11.05 12 -17 c 3.65 -5.64 7.09 -11.44 10 -17 c 0.61 -1.16 1 -4.09 1 -4 c -0.02 0.82 -2.25 27.2 -2 38 c 0.04 1.66 2.01 5.08 3 5 c 1.83 -0.15 6.71 -3.58 9 -6 c 3.35 -3.53 5.83 -8.86 9 -13 c 1.13 -1.48 3.02 -2.49 4 -4 c 2.55 -3.94 5.07 -8.57 7 -13 c 1.36 -3.14 3.1 -10.15 3 -10 c -0.18 0.29 -5.97 11.92 -8 18 c -1.57 4.72 -2.6 10.19 -3 15 c -0.24 2.85 0.13 7.26 1 9 c 0.4 0.79 3.03 1.32 4 1 c 1.5 -0.5 3.51 -2.51 5 -4 c 2.15 -2.15 4.17 -4.49 6 -7 c 3.57 -4.91 6.42 -10.52 10 -15 c 1.55 -1.94 6 -5.55 6 -5 c 0 1.74 -4.28 15.89 -6 24 c -0.63 2.97 -0.8 5.95 -1 9 c -0.13 2.02 -0.54 4.38 0 6 c 0.65 1.95 2.45 5.22 4 6 c 1.72 0.86 5.81 0.63 8 0 c 1.97 -0.56 4.37 -2.37 6 -4 c 4.17 -4.17 8.54 -9.08 12 -14 c 2.77 -3.94 4.41 -8.82 7 -13 c 1.75 -2.83 5.23 -8.62 6 -8 c 1.27 1.02 2.46 10.86 4 16 c 0.42 1.39 1.25 2.69 2 4 c 0.6 1.05 1.22 2.22 2 3 c 0.78 0.78 2.08 1.87 3 2 c 1.05 0.15 3.1 -0.25 4 -1 c 2.62 -2.18 6.03 -5.77 8 -9 c 2.49 -4.09 4.96 -9.47 6 -14 c 0.82 -3.57 0.77 -8.45 0 -12 c -0.78 -3.57 -3.18 -8.04 -5 -11 c -0.54 -0.88 -2 -1.75 -3 -2 c -1.38 -0.34 -3.66 -0.49 -5 0 c -1.93 0.7 -4.18 2.49 -6 4 c -2.14 1.78 -4.5 3.75 -6 6 c -3.64 5.47 -7.17 11.91 -10 18 c -1.43 3.09 -2.22 6.58 -3 10 c -0.91 3.99 -2.33 8.55 -2 12 c 0.27 2.79 2.48 6.61 4 9 c 0.56 0.87 1.96 1.65 3 2 c 1.75 0.58 4.28 1.26 6 1 c 2.16 -0.33 5.17 -1.54 7 -3 c 4.42 -3.53 9.21 -8.35 13 -13 c 3.43 -4.21 6.26 -9.26 9 -14 c 0.89 -1.53 2.03 -5.09 2 -5 c -0.09 0.23 -3.82 8.58 -5 13 c -1.46 5.48 -3.17 11.83 -3 17 c 0.14 4.36 2.28 10.34 4 14 c 0.59 1.26 2.67 2.6 4 3 c 1.6 0.48 4.28 0.49 6 0 c 2.57 -0.73 5.56 -2.43 8 -4 l 6 -5"/><path stroke-linejoin="round" stroke-linecap="round" stroke-width="2" stroke="rgb(52, 58, 64)" fill="none" d="M 305 36 c -0.02 0.12 -0.32 4.76 -1 7 c -7.95 26.31 -17.29 52.92 -25 79 c -0.84 2.85 -1 9 -1 9"/><path stroke-linejoin="round" stroke-linecap="round" stroke-width="2" stroke="rgb(52, 58, 64)" fill="none" d="M 279 36 c 0.61 -0.07 23.54 -3.58 35 -4 c 6.22 -0.23 12.85 1.02 19 2 c 2.03 0.33 4.53 0.93 6 2 c 1.82 1.32 3.98 3.97 5 6 c 0.79 1.58 1.27 4.19 1 6 c -0.65 4.33 -2.24 9.7 -4 14 c -1.14 2.78 -3.07 5.62 -5 8 c -2.32 2.85 -5.16 5.54 -8 8 c -2.16 1.87 -4.51 3.51 -7 5 c -5.96 3.57 -15.59 7.75 -18 10 c -0.58 0.55 1.78 3.66 3 4 c 3.68 1.02 10.09 0.27 15 1 c 4.04 0.6 8.08 1.76 12 3 c 2.41 0.76 5.18 1.68 7 3 c 1.53 1.11 3.28 3.28 4 5 c 0.79 1.9 1.14 4.83 1 7 c -0.17 2.53 -0.87 5.75 -2 8 c -1.37 2.73 -3.81 5.47 -6 8 c -2.17 2.5 -4.46 5.21 -7 7 c -2.87 2.03 -6.54 3.59 -10 5 c -3.91 1.6 -7.93 3.06 -12 4 c -4.55 1.05 -9.44 2 -14 2 c -6.16 0 -12.89 -0.82 -19 -2 c -4.05 -0.78 -8.42 -2.09 -12 -4 c -6.11 -3.26 -12.81 -7.68 -18 -12 c -2.4 -2 -4.71 -5.26 -6 -8 c -1.19 -2.52 -1.85 -6.1 -2 -9 c -0.17 -3.16 0.08 -7.08 1 -10 c 0.94 -2.99 3.06 -6.25 5 -9 c 2 -2.83 4.45 -5.61 7 -8 c 2.73 -2.56 5.84 -5.42 9 -7 c 3.77 -1.88 8.92 -3.42 13 -4 c 2.42 -0.35 5.88 0.09 8 1 c 2.06 0.88 4.18 3.18 6 5 c 1.82 1.82 3.79 3.79 5 6 c 4.3 7.84 7.64 17.24 12 25 c 1.45 2.58 3.8 4.96 6 7 c 2.39 2.22 5.22 4.53 8 6 c 2.63 1.39 6.05 2.56 9 3 c 3.42 0.51 7.63 0.61 11 0 c 3.58 -0.65 7.55 -2.27 11 -4 c 5.81 -2.91 11.68 -6.31 17 -10 c 3.25 -2.25 6.13 -5.13 9 -8 c 2.87 -2.87 5.7 -5.82 8 -9 c 1.96 -2.72 3.88 -6.02 5 -9 c 0.77 -2.05 1.17 -4.94 1 -7 c -0.13 -1.57 -1.06 -3.9 -2 -5 c -0.78 -0.91 -2.7 -1.71 -4 -2 c -1.46 -0.32 -3.61 -0.42 -5 0 c -1.62 0.49 -3.82 1.67 -5 3 c -3.78 4.25 -8.04 9.93 -11 15 c -1.51 2.58 -2.27 5.93 -3 9 c -0.94 3.94 -2 8.4 -2 12 c 0 1.87 0.99 4.41 2 6 c 1.13 1.78 3.21 3.95 5 5 c 1.85 1.08 4.77 1.86 7 2 c 2.77 0.17 6.2 -0.26 9 -1 c 3.33 -0.88 6.86 -2.35 10 -4 c 3.8 -1.99 7.54 -4.4 11 -7 c 3.2 -2.4 6.15 -5.15 9 -8 c 2.18 -2.18 4.61 -4.53 6 -7 c 1.43 -2.54 2.82 -6.43 3 -9 c 0.1 -1.46 -1.02 -3.87 -2 -5 c -1.07 -1.22 -3.85 -3.41 -5 -3 c -2.37 0.85 -6.86 5.15 -9 8 c -1.52 2.02 -2.74 5.44 -3 8 c -0.36 3.6 -0.1 9.07 1 12 c 0.58 1.56 3.28 3.28 5 4 c 1.9 0.79 4.8 1.2 7 1 c 4.76 -0.43 10.31 -1.57 15 -3 c 2.74 -0.83 5.87 -2.25 8 -4 c 3.2 -2.64 9.11 -10.21 9 -10 c -0.12 0.24 -7.63 8.12 -10 12 c -0.92 1.51 -1 4.09 -1 6 c 0 1.91 0.24 4.47 1 6 c 0.71 1.42 2.5 3.57 4 4 c 4.54 1.3 11.91 2.49 17 2 c 4.42 -0.43 9.62 -2.89 14 -5 c 4.49 -2.16 8.96 -5.15 13 -8 c 1.5 -1.06 3.39 -4.12 4 -4 c 0.55 0.11 0.17 4.05 1 5 c 1.1 1.26 3.96 2.66 6 3 c 7.31 1.22 16.02 2.14 24 2 l 35 -3"/></svg>