<?xml version="1.0" encoding="UTF-8" standalone="no"?><!DOCTYPE svg PUBLIC "-//W3C//DTD SVG 1.1//EN" "http://www.w3.org/Graphics/SVG/1.1/DTD/svg11.dtd"><svg xmlns="http://www.w3.org/2000/svg" version="1.1" width="237" height="105"><path stroke-linejoin="round" stroke-linecap="round" stroke-width="2" stroke="rgb(52, 58, 64)" fill="none" d="M 1 3 c 0.47 0.3 17.63 12.39 27 17 c 10.04 4.94 21.35 9.72 32 12 c 11.88 2.55 25.12 2.65 38 3 c 12.17 0.33 24.88 1.02 36 -1 c 9.87 -1.79 21.16 -6.47 30 -11 c 4.71 -2.41 10.06 -7.43 13 -11 c 1.05 -1.28 1.71 -4.88 1 -6 c -1.11 -1.74 -5.41 -4.19 -8 -5 c -2.2 -0.69 -5.99 -0.81 -8 0 c -2.32 0.93 -5.07 3.68 -7 6 c -9.23 11.13 -18.4 22.62 -27 35 c -13.92 20.04 -27.44 44.07 -39 60 c -1.02 1.41 -4.17 2 -6 2 c -2.67 0 -6.14 -0.94 -9 -2 c -11.4 -4.24 -22.26 -9.45 -34 -14 c -5.05 -1.96 -9.78 -3.33 -15 -5 c -3.45 -1.1 -6.72 -2.51 -10 -3 c -3.14 -0.47 -10.15 0.1 -10 0 c 0.19 -0.13 8.62 -1.86 13 -2 c 15.98 -0.52 31.33 -0.18 48 0 c 14.94 0.16 28.1 0.37 43 1 c 26.36 1.11 49.66 2.96 76 4 c 17.65 0.69 51 1 51 1"/></svg>