<?xml version="1.0" encoding="UTF-8" standalone="no"?><!DOCTYPE svg PUBLIC "-//W3C//DTD SVG 1.1//EN" "http://www.w3.org/Graphics/SVG/1.1/DTD/svg11.dtd"><svg xmlns="http://www.w3.org/2000/svg" version="1.1" width="307" height="74"><path stroke-linejoin="round" stroke-linecap="round" stroke-width="2" stroke="rgb(52, 58, 64)" fill="none" d="M 106 47 c 0.45 0.19 17.11 9.11 26 11 c 27.7 5.88 57.5 10.05 87 13 c 21.14 2.11 42.49 2.49 63 2 c 6.96 -0.17 16.11 -1.96 21 -4 c 1.53 -0.64 3.37 -4.5 3 -6 c -0.68 -2.73 -3.92 -8.55 -7 -10 c -12.76 -6.03 -31.49 -11.65 -48 -16 c -22.02 -5.79 -43.39 -10.41 -66 -14 c -26.65 -4.23 -52.23 -7.28 -79 -9 c -20.54 -1.32 -59.93 -0.03 -61 0 c -0.39 0.01 22.38 0.98 22 1 c -1.01 0.06 -41.66 -0.51 -58 1 c -2.42 0.22 -6.26 3.37 -7 5 c -0.55 1.2 0.62 5.33 2 6 c 6.16 2.97 17.96 6.8 27 8 c 18.01 2.39 36.72 2.28 56 3 c 8.25 0.31 21.15 0.81 24 0 c 0.8 -0.23 -1.39 -5.35 -3 -6 c -11 -4.45 -29.39 -10.95 -44 -13 c -20.07 -2.81 -61.9 -1.96 -63 -2 c -0.17 -0.01 7.02 0.68 10 0 c 3.88 -0.88 8.12 -3 12 -5 l 19 -11"/></svg>