<?xml version="1.0" encoding="UTF-8" standalone="no"?><!DOCTYPE svg PUBLIC "-//W3C//DTD SVG 1.1//EN" "http://www.w3.org/Graphics/SVG/1.1/DTD/svg11.dtd"><svg xmlns="http://www.w3.org/2000/svg" version="1.1" width="503" height="106"><path stroke-linejoin="round" stroke-linecap="round" stroke-width="2" stroke="rgb(52, 58, 64)" fill="none" d="M 31 67 c -0.12 0.07 -4.79 2.45 -7 4 c -4.5 3.15 -8.66 7.63 -13 10 c -2.44 1.33 -7.77 2.86 -9 2 c -1.21 -0.85 -1.36 -6.25 -1 -9 c 0.58 -4.43 2.26 -9.46 4 -14 c 2.62 -6.84 5.23 -14.35 9 -20 c 3.16 -4.74 8.37 -8.85 13 -13 c 5.2 -4.66 10.4 -8.8 16 -13 c 3.92 -2.94 7.83 -5.64 12 -8 c 3.49 -1.97 10.93 -5.82 11 -5 c 0.11 1.34 -6.2 11.67 -10 17 c -4.52 6.33 -11.15 11.77 -15 18 c -2.81 4.54 -4.83 11.31 -6 16 c -0.28 1.13 0.3 3.7 1 4 c 1.03 0.44 4.21 -0.26 6 -1 c 7.51 -3.11 15.34 -6.97 23 -11 c 5.26 -2.77 9.87 -6.62 15 -9 c 3.99 -1.85 8.78 -3.11 13 -4 c 1.86 -0.39 6.23 -0.7 6 0 c -1.57 4.71 -12.31 23.81 -18 36 c -1.34 2.87 -2.8 6.65 -3 9 c -0.07 0.89 1.19 2.7 2 3 c 1.35 0.51 4.55 0.8 6 0 c 4.3 -2.37 9.38 -7.06 14 -11 c 4.59 -3.91 8.75 -7.75 13 -12 c 3.23 -3.23 5.82 -6.82 9 -10 c 1.84 -1.84 3.99 -3.79 6 -5 c 1.06 -0.64 4.03 -1.5 4 -1 c -0.13 2.48 -3.79 13.46 -5 20 c -0.41 2.22 -0.66 5.15 0 7 c 0.81 2.28 3.24 6.81 5 7 c 3.04 0.32 10.46 -2.34 14 -5 c 6.23 -4.68 12.25 -12.36 18 -19 c 2.99 -3.45 5.07 -7.55 8 -11 c 2.74 -3.23 6.63 -5.78 9 -9 c 2.08 -2.83 3.55 -6.56 5 -10 c 1.23 -2.92 3.13 -7.95 3 -9 c -0.06 -0.46 -2.93 0.34 -4 1 c -2.95 1.81 -6.38 4.3 -9 7 c -8.63 8.88 -18.29 18.74 -25 28 c -2.26 3.12 -3.84 8.4 -4 12 c -0.14 3.24 1.33 8.12 3 11 c 1.66 2.86 5.06 6.34 8 8 c 4.11 2.32 9.93 3.78 15 5 l 14 2"/><path stroke-linejoin="round" stroke-linecap="round" stroke-width="2" stroke="rgb(52, 58, 64)" fill="none" d="M 331 46 c -0.1 0.12 -4.3 4.43 -6 7 c -11.34 17.16 -32.46 51.07 -33 52 c -0.23 0.39 9.58 -14.02 15 -21 c 7.61 -9.81 14.86 -18.48 23 -28 c 8.11 -9.49 15.35 -19.61 24 -27 c 6.65 -5.68 15.81 -9.91 24 -14 c 4.38 -2.19 9.68 -4.18 14 -5 c 2.06 -0.39 6.91 0.16 7 1 c 0.13 1.18 -3.71 5.54 -6 8 c -15.56 16.73 -43.14 44.28 -47 49 c -0.4 0.49 5.12 0.77 7 0 c 4.69 -1.92 9.75 -6.38 15 -9 c 7.53 -3.76 15.11 -7.19 23 -10 c 7.18 -2.55 15.01 -4.94 22 -6 c 3.39 -0.51 9.06 -0.13 11 1 c 1.07 0.62 1.75 4.76 1 6 c -1.65 2.75 -7.38 5.63 -10 9 c -4.12 5.29 -8.37 12.5 -11 18 c -0.62 1.3 -0.64 4.93 0 5 c 1.26 0.14 6.46 -2.1 9 -4 c 21.7 -16.2 44.57 -34.28 66 -52 c 3.43 -2.84 6.42 -6.56 9 -10 c 1.29 -1.72 3.15 -6.15 3 -6 c -2 2.07 -46.96 47.84 -62 67 c -1.98 2.52 -0.23 8.07 0 12 c 0.1 1.67 0.08 4.74 1 5 c 2.36 0.67 8.65 -0.28 13 -1 c 20.01 -3.34 59 -11 59 -11"/></svg>