<?xml version="1.0" encoding="UTF-8" standalone="no"?><!DOCTYPE svg PUBLIC "-//W3C//DTD SVG 1.1//EN" "http://www.w3.org/Graphics/SVG/1.1/DTD/svg11.dtd"><svg xmlns="http://www.w3.org/2000/svg" version="1.1" width="514" height="91"><path stroke-linejoin="round" stroke-linecap="round" stroke-width="2" stroke="rgb(52, 58, 64)" fill="none" d="M 13 64 c -0.03 0.09 -1.09 3.49 -2 5 c -3.03 5.05 -9.25 14.89 -10 15 c -0.6 0.09 1.66 -9.38 3 -14 c 1.69 -5.81 3.16 -11.97 6 -17 c 5.56 -9.83 12.72 -19.81 20 -29 c 5.41 -6.83 11.9 -13.6 18 -19 c 2.08 -1.84 6.12 -3.83 8 -4 c 0.89 -0.08 3.33 2.21 3 3 c -2.11 5 -9.74 15.23 -14 23 c -1.35 2.47 -1.6 5.75 -3 8 c -1.75 2.79 -7 7.61 -7 8 c 0 0.3 4.55 -2.95 7 -4 c 4.51 -1.93 9.68 -4.18 14 -5 c 2.06 -0.39 5.17 0.27 7 1 c 1.1 0.44 2.61 1.96 3 3 c 0.46 1.23 0.49 3.62 0 5 c -1.02 2.85 -2.87 6.46 -5 9 c -6.29 7.49 -13.67 14.67 -21 22 c -2.9 2.9 -5.8 5.76 -9 8 l -11 6"/><path stroke-linejoin="round" stroke-linecap="round" stroke-width="2" stroke="rgb(52, 58, 64)" fill="none" d="M 95 54 c -0.07 0.05 -2.9 1.9 -4 3 c -0.8 0.8 -1.75 2 -2 3 c -0.34 1.38 -0.52 4.48 0 5 c 0.43 0.43 2.95 -1.15 4 -1 c 0.92 0.13 2.43 1.14 3 2 c 1.21 1.81 1.76 5.58 3 7 c 0.67 0.77 2.87 1.2 4 1 c 2.08 -0.38 5.01 -1.6 7 -3 c 6.7 -4.72 13.89 -10.33 20 -16 c 3.05 -2.84 5.37 -6.49 8 -10 c 2.51 -3.35 4.88 -6.53 7 -10 c 1.56 -2.55 2.82 -5.25 4 -8 c 0.83 -1.94 1.82 -4.19 2 -6 c 0.12 -1.18 -0.74 -4.26 -1 -4 c -0.96 0.96 -5.54 8.43 -8 13 c -4.69 8.71 -9.41 17.12 -13 26 c -2.7 6.67 -4.9 14.39 -6 21 c -0.46 2.74 0.23 6.48 1 9 c 0.43 1.39 2.08 4.08 3 4 c 1.73 -0.16 5.89 -3.07 8 -5 c 1.61 -1.48 2.5 -4.17 4 -6 c 1.47 -1.8 3.25 -3.64 5 -5 c 1.11 -0.86 2.8 -1.85 4 -2 c 1.11 -0.14 2.73 1 4 1 c 2.49 0 5.39 -0.42 8 -1 c 3.38 -0.75 7 -2.57 10 -3 c 1.18 -0.17 3.08 0.31 4 1 c 1.42 1.07 3.38 3.27 4 5 c 0.87 2.45 -0.32 8.39 1 9 c 1.8 0.83 8.65 -3.17 12 -3 l 8 4"/><path stroke-linejoin="round" stroke-linecap="round" stroke-width="2" stroke="rgb(52, 58, 64)" fill="none" d="M 264 15 c -0.63 1.14 -23.5 42.97 -36 65 c -1.82 3.21 -5.86 9.35 -6 9 c -0.19 -0.47 2.36 -9.39 4 -14 c 1.72 -4.82 3.7 -9.39 6 -14 c 2.78 -5.55 5.53 -10.9 9 -16 c 7.3 -10.72 15.06 -20.86 23 -31 c 1.75 -2.23 3.91 -4.48 6 -6 c 1.33 -0.97 4.26 -2.37 5 -2 c 0.71 0.35 1.48 3.66 1 5 c -2.68 7.55 -7.64 17.53 -12 26 c -1.65 3.2 -4.41 5.83 -6 9 c -2.7 5.39 -4.92 11.23 -7 17 c -0.93 2.59 -1.45 5.26 -2 8 c -0.47 2.35 -1.15 4.86 -1 7 c 0.16 2.2 0.83 5.54 2 7 c 1.08 1.35 4.57 3.33 6 3 l 7 -6"/><path stroke-linejoin="round" stroke-linecap="round" stroke-width="2" stroke="rgb(52, 58, 64)" fill="none" d="M 276 76 c 0.02 0.07 0.43 4.17 1 4 c 2.56 -0.75 10.7 -5.74 16 -9 c 3.52 -2.17 6.72 -5.13 10 -7 c 1.11 -0.63 2.75 -1 4 -1 c 1.85 0 4.53 1.71 6 1 c 7.17 -3.47 17.11 -10.18 25 -16 c 4.71 -3.47 8.86 -9.01 13 -12 c 1.19 -0.86 4.49 -1.38 5 -1 c 0.41 0.31 -0.42 2.84 -1 4 c -1.33 2.66 -3.14 5.37 -5 8 c -5.65 7.96 -11.56 15.09 -17 23 c -1.96 2.85 -3.33 5.86 -5 9 c -1.09 2.04 -2.84 4.35 -3 6 c -0.11 1.1 1.2 4.06 2 4 c 2.16 -0.17 7.85 -2.96 11 -5 c 2.21 -1.43 3.8 -4.49 6 -6 c 2.89 -1.99 6.61 -3.68 10 -5 c 2.5 -0.97 5.25 -1.41 8 -2 c 2.03 -0.43 4.25 -1.16 6 -1 c 1.55 0.14 3.32 1.25 5 2 c 1.39 0.62 3.27 1.13 4 2 c 0.67 0.8 0.29 3.29 1 4 c 0.93 0.93 3.54 2.21 5 2 c 4.54 -0.65 10.91 -2.87 16 -5 c 5.16 -2.16 9.73 -5.65 15 -8 c 16.82 -7.51 37.74 -16.6 50 -21 c 0.82 -0.29 3.33 1.69 3 2 c -1.62 1.49 -9.73 6.18 -15 9 c -9.43 5.04 -18.86 8.95 -28 14 c -3.56 1.97 -7.54 4.54 -10 7 c -1.09 1.09 -2.14 3.74 -2 5 c 0.13 1.17 1.83 3.96 3 4 c 5.87 0.21 16.54 -2.45 25 -3 c 7.06 -0.46 13.84 -0.39 21 0 c 17.78 0.97 52 4 52 4"/></svg>