<?xml version="1.0" encoding="UTF-8" standalone="no"?><!DOCTYPE svg PUBLIC "-//W3C//DTD SVG 1.1//EN" "http://www.w3.org/Graphics/SVG/1.1/DTD/svg11.dtd"><svg xmlns="http://www.w3.org/2000/svg" version="1.1" width="648" height="131"><path stroke-linejoin="round" stroke-linecap="round" stroke-width="2" stroke="rgb(52, 58, 64)" fill="none" d="M 84 26 l 1 1"/><path stroke-linejoin="round" stroke-linecap="round" stroke-width="2" stroke="rgb(52, 58, 64)" fill="none" d="M 3 30 c 0.12 -0.02 4.75 -0.37 7 -1 c 6.03 -1.69 12.08 -3.72 18 -6 c 2.79 -1.07 5.33 -3.05 8 -4 c 1.81 -0.65 6.23 -1.54 6 -1 c -1.39 3.33 -11.84 22.05 -19 32 c -6.4 8.9 -22.77 25.39 -22 25 c 1.95 -0.99 46.43 -32.37 69 -49 c 2.64 -1.95 4.55 -4.95 7 -7 c 1.45 -1.2 4.84 -3.41 5 -3 c 0.24 0.59 -1.38 5.91 -3 8 c -8.07 10.41 -18.22 21.49 -28 32 c -3.74 4.03 -8.96 7.31 -12 11 c -1.18 1.43 -1.07 4.52 -2 6 c -0.53 0.84 -3.07 2.03 -3 2 c 0.72 -0.29 23.16 -9.44 35 -15 c 16.68 -7.84 31.87 -15.31 48 -24 c 10.52 -5.66 19.86 -11.54 30 -18 c 8.77 -5.58 25.29 -17.45 25 -17 c -0.44 0.68 -22.81 19.98 -34 31 c -11.01 10.84 -20.84 21.57 -31 33 c -3.37 3.79 -6.66 7.86 -9 12 c -1.83 3.23 -3.25 7.44 -4 11 l 0 8"/><path stroke-linejoin="round" stroke-linecap="round" stroke-width="2" stroke="rgb(52, 58, 64)" fill="none" d="M 113 91 c 0.35 -0.21 13.26 -7.71 20 -12 c 4.57 -2.91 8.86 -5.83 13 -9 c 1.48 -1.13 2.56 -3.04 4 -4 c 1.37 -0.91 4.93 -2.43 5 -2 c 0.12 0.71 -3.44 5.59 -4 8 c -0.32 1.37 0.16 5.09 1 5 c 4.62 -0.49 17.9 -5.05 27 -8 c 3.48 -1.13 10.22 -4.3 10 -4 c -0.48 0.66 -12.37 9.91 -18 15 c -1.2 1.09 -3.23 3.31 -3 4 c 0.25 0.74 3.58 2.27 5 2 c 4.49 -0.86 11.51 -2.96 16 -6 c 18.19 -12.3 36.91 -27.2 55 -42 c 7.95 -6.5 21.3 -20.27 22 -21 c 0.1 -0.11 -2.95 1.06 -4 2 c -8.16 7.32 -16.15 16.17 -25 24 c -8.89 7.87 -18.03 14.35 -27 22 c -2.55 2.18 -5.31 4.68 -7 7 c -0.7 0.97 -1.46 4.11 -1 4 c 6.73 -1.65 38.75 -13.13 58 -18 c 6.69 -1.69 16.97 -2.37 21 -2 l 1 4"/><path stroke-linejoin="round" stroke-linecap="round" stroke-width="2" stroke="rgb(52, 58, 64)" fill="none" d="M 357 16 c -0.14 0.19 -5.05 7.49 -8 11 c -4.14 4.93 -8.41 9.25 -13 14 c -5.44 5.63 -10.33 10.88 -16 16 c -4.81 4.35 -10.13 7.71 -15 12 c -3.58 3.15 -6.9 6.48 -10 10 c -1.89 2.14 -3.8 4.6 -5 7 c -1.02 2.03 -2.43 5.58 -2 7 c 0.34 1.14 3.52 3.09 5 3 c 3.21 -0.19 8.41 -1.99 12 -4 c 18.59 -10.39 37.2 -21.79 56 -34 c 14.41 -9.36 40.38 -29.62 41 -29 c 0.61 0.61 -23.45 23.05 -36 34 c -5.98 5.22 -12.72 8.98 -19 14 c -5.66 4.52 -15.26 12.8 -16 14 c -0.28 0.45 5.81 0.13 8 -1 c 18.17 -9.36 38.1 -21.33 58 -33 c 10.18 -5.97 19.22 -11.64 29 -18 c 3.9 -2.53 11.17 -8.17 11 -8 c -0.81 0.83 -33.92 31.64 -48 46 c -1.14 1.16 -2.47 4.84 -2 5 c 0.75 0.25 5.49 -1.7 8 -3 c 5.79 -3.01 11.06 -6.96 17 -10 c 7.96 -4.08 15.63 -7.51 24 -11 c 12.25 -5.1 35.45 -15.21 36 -14 c 0.57 1.24 -21.4 16.86 -31 25 c -0.87 0.74 -2.28 3 -2 3 c 0.8 0 6.86 -1.53 10 -3 c 22.43 -10.49 43.92 -21.34 67 -33 c 9.82 -4.96 19.84 -10 28 -15 c 1.29 -0.79 3.22 -3.78 3 -4 c -0.23 -0.23 -3.71 0.92 -5 2 c -21.61 18.06 -44.66 38.34 -68 59 c -9.91 8.77 -19.73 16.88 -28 26 c -4.39 4.83 -8.47 11.51 -11 17 c -1.13 2.45 -1.69 7.89 -1 9 c 0.47 0.74 4.09 -0.36 6 -1 c 22.59 -7.63 44.37 -15.51 68 -24 c 12.23 -4.39 23.09 -8.28 35 -13 c 6.28 -2.49 17.68 -7.86 18 -8 c 0.16 -0.07 -6.21 2.35 -9 4 c -4.48 2.65 -12.51 8.35 -13 9 c -0.22 0.29 4.92 -0.13 7 -1 c 19.35 -8.09 39.33 -17.38 60 -27 c 14.33 -6.67 40.27 -19.49 41 -20 c 0.35 -0.24 -13.87 3.66 -21 6 c -14.87 4.88 -28.93 9.59 -43 15 l -9 5"/></svg>