<?xml version="1.0" encoding="UTF-8" standalone="no"?><!DOCTYPE svg PUBLIC "-//W3C//DTD SVG 1.1//EN" "http://www.w3.org/Graphics/SVG/1.1/DTD/svg11.dtd"><svg xmlns="http://www.w3.org/2000/svg" version="1.1" width="560" height="142"><path stroke-linejoin="round" stroke-linecap="round" stroke-width="2" stroke="rgb(52, 58, 64)" fill="none" d="M 1 43 c 0.11 0.19 3.56 8.72 6 11 c 1.85 1.72 5.91 2.26 9 3 c 5.3 1.27 10.52 2.28 16 3 c 7.43 0.98 14.83 2.16 22 2 c 7.21 -0.16 14.63 -1.6 22 -3 c 6.84 -1.3 14.02 -2.54 20 -5 c 4.83 -1.99 9.61 -5.66 14 -9 c 3.92 -2.98 7.94 -6.4 11 -10 c 2.4 -2.82 4.37 -6.57 6 -10 c 1.32 -2.79 2.48 -6.07 3 -9 c 0.44 -2.47 0.37 -5.57 0 -8 c -0.25 -1.64 -1.11 -3.76 -2 -5 c -0.59 -0.83 -2.06 -1.88 -3 -2 c -1.33 -0.17 -4.08 -0.01 -5 1 c -4.9 5.36 -11.14 14.4 -16 22 c -2.79 4.37 -4.9 9.1 -7 14 c -5.06 11.81 -8.94 23.19 -14 35 c -2.1 4.9 -4.09 9.9 -7 14 c -4.21 5.94 -9.79 12.22 -15 17 c -2.37 2.17 -6.23 4.31 -9 5 c -1.9 0.48 -4.78 -0.45 -7 -1 c -1.69 -0.42 -3.84 -0.94 -5 -2 c -2.45 -2.24 -4.93 -5.89 -7 -9 c -1.22 -1.83 -2.51 -4.06 -3 -6 c -0.43 -1.74 -0.49 -4.23 0 -6 c 1.06 -3.83 2.98 -8.57 5 -12 c 1.1 -1.87 3.2 -3.69 5 -5 c 1.7 -1.24 3.98 -2.33 6 -3 c 1.83 -0.61 4.15 -1.13 6 -1 c 2.5 0.18 5.7 0.93 8 2 c 2.4 1.12 5.27 2.94 7 5 c 4.9 5.83 9.68 13.09 14 20 c 2.37 3.8 4.25 7.82 6 12 c 2.64 6.31 4.19 13.38 7 19 c 1.28 2.56 4.24 4.53 6 7 c 1.54 2.16 2.34 5.34 4 7 c 1.66 1.66 4.66 2.93 7 4 c 1.2 0.55 2.76 1.15 4 1 c 8.87 -1.08 20.53 -2.4 29 -5 c 3.51 -1.08 6.9 -4.42 10 -7 c 2.87 -2.39 5.58 -5.12 8 -8 c 2.91 -3.46 6.07 -7.13 8 -11 c 2.56 -5.12 4.69 -11.53 6 -17 c 0.58 -2.43 0.69 -5.8 0 -8 c -0.81 -2.59 -3.22 -5.77 -5 -8 c -0.68 -0.85 -2.05 -1.89 -3 -2 c -1.61 -0.18 -5.04 -0.06 -6 1 c -1.71 1.88 -3.45 6.91 -4 10 c -0.36 2.03 0.28 4.83 1 7 c 2.2 6.61 4.91 13.82 8 20 c 1.43 2.87 3.78 5.61 6 8 c 2.04 2.2 4.59 4.52 7 6 c 1.65 1.02 4.05 1.64 6 2 c 1.55 0.28 4.01 0.76 5 0 c 2.54 -1.95 6.14 -6.39 8 -10 c 3.91 -7.6 6.83 -16.39 10 -25 c 1.6 -4.35 2.48 -8.95 4 -13 c 0.4 -1.07 1.19 -2.33 2 -3 c 1 -0.84 3.31 -2.43 4 -2 c 1.24 0.77 2.52 4.88 4 7 c 0.78 1.11 2.46 1.85 3 3 c 1.9 4.04 3.93 9.49 5 14 c 0.51 2.12 -0.39 6.34 0 7 c 0.2 0.34 2.46 -1.09 3 -2 c 3.32 -5.62 6.61 -15.03 10 -20 c 0.82 -1.2 3.82 -2.15 5 -2 c 0.93 0.12 2.24 1.85 3 3 c 6.07 9.26 14.87 26.14 18 29 c 0.86 0.79 3.7 -5.24 5 -8 c 1.31 -2.78 1.62 -6.42 3 -9 c 1.13 -2.13 3.67 -6.48 5 -6 c 4.25 1.53 13.24 11.53 20 15 c 4.72 2.43 12.9 4.51 17 4 c 2.33 -0.29 5.27 -4.48 7 -7 c 1.72 -2.51 3.29 -6 4 -9 c 0.87 -3.66 1.36 -10.93 1 -12 c -0.15 -0.45 -2.9 1.9 -4 3 c -0.8 0.8 -1.77 1.95 -2 3 c -0.98 4.42 -2.35 12.18 -2 15 c 0.1 0.77 2.79 1.15 4 1 c 3.63 -0.45 8.15 -2.67 12 -3 c 3.44 -0.3 8.49 -0.17 11 1 c 1.64 0.76 2.4 4.4 4 6 c 2.53 2.53 5.88 5.44 9 7 c 3.12 1.56 7.88 3.16 11 3 c 2.69 -0.13 6.3 -2.38 9 -4 c 2.14 -1.28 4.24 -3.1 6 -5 c 6.55 -7.08 13.84 -14.73 19 -22 c 1.68 -2.37 2.44 -5.95 3 -9 c 1.08 -5.81 1.63 -11.9 2 -18 c 0.31 -5.06 0.81 -10.96 0 -15 c -0.35 -1.73 -3.15 -4.72 -4 -5 c -0.48 -0.16 -2.05 2.05 -2 3 c 0.23 4.57 1.65 11.4 3 17 c 0.99 4.1 2.33 8.17 4 12 c 1.65 3.79 3.77 7.46 6 11 c 1.78 2.82 3.69 5.83 6 8 c 3.14 2.95 7.59 6.3 11 8 c 1.25 0.63 3.62 0.34 5 0 c 1 -0.25 2.29 -1.13 3 -2 c 3.68 -4.47 7.87 -12.26 11 -15 c 0.86 -0.75 3.55 0.31 5 1 c 4.58 2.17 9.51 6.56 14 8 c 3.06 0.98 7.44 0.51 11 0 c 7.94 -1.13 16.59 -3.98 24 -5 c 1.54 -0.21 3.33 0.96 5 1 c 12.13 0.29 25.39 0.54 37 0 l 6 -2"/></svg>