<?xml version="1.0" encoding="UTF-8" standalone="no"?><!DOCTYPE svg PUBLIC "-//W3C//DTD SVG 1.1//EN" "http://www.w3.org/Graphics/SVG/1.1/DTD/svg11.dtd"><svg xmlns="http://www.w3.org/2000/svg" version="1.1" width="651" height="143"><path stroke-linejoin="round" stroke-linecap="round" stroke-width="2" stroke="rgb(52, 58, 64)" fill="none" d="M 1 86 c 0.37 -0.49 13.36 -19.27 21 -28 c 6.33 -7.23 13.81 -13.8 21 -20 c 2.34 -2.02 5.47 -4.03 8 -5 c 1.34 -0.52 4.54 -0.74 5 0 c 0.74 1.19 0.4 5.43 0 8 c -0.91 5.93 -2.31 11.91 -4 18 c -7.56 27.17 -16.86 55.84 -23 79 c -0.31 1.16 0.82 4.3 1 4 c 3.8 -6.39 27.89 -51.22 43 -78 c 4.57 -8.1 13.67 -22.67 14 -23 c 0.28 -0.28 -8.16 13.15 -11 20 c -2.72 6.56 -4.54 14.19 -6 21 c -0.47 2.18 -0.72 6.52 0 7 c 0.69 0.46 4.71 -1.46 6 -3 c 11.09 -13.26 22.71 -30.33 35 -46 c 5.28 -6.73 14.55 -18.48 16 -19 c 0.83 -0.3 -0.84 9.48 -2 14 c -1.82 7.07 -4.96 13.72 -7 21 c -3.42 12.2 -6.57 23.83 -9 36 c -1.25 6.26 -1.81 12.68 -2 19 l 1 15"/><path stroke-linejoin="round" stroke-linecap="round" stroke-width="2" stroke="rgb(52, 58, 64)" fill="none" d="M 167 73 c -0.17 0.02 -7.58 0.07 -10 1 c -1.2 0.46 -2.54 2.61 -3 4 c -0.74 2.23 -1 5.44 -1 8 c 0 1.93 0.45 4.15 1 6 c 0.41 1.36 1.09 3.55 2 4 c 1.22 0.61 4.43 0.61 6 0 c 2.26 -0.87 4.79 -3.12 7 -5 c 6.91 -5.89 13.42 -11.56 20 -18 c 9.51 -9.31 17.9 -19.17 27 -28 c 1.69 -1.64 4.35 -3.67 6 -4 c 1.02 -0.2 3.75 0.95 4 2 c 2.03 8.56 2.56 25.26 5 36 c 0.63 2.79 3.26 7.13 5 8 c 1.34 0.67 5.72 -0.5 7 -2 c 5.47 -6.38 12.07 -16.91 17 -26 c 5.76 -10.61 14.39 -32.19 15 -33 c 0.29 -0.39 -2.32 11.22 -3 17 c -0.67 5.7 -1.34 11.54 -1 17 c 0.31 4.91 1.42 10.43 3 15 c 1.3 3.75 3.54 8.38 6 11 c 2.02 2.16 6.04 4.41 9 5 c 4.6 0.92 11.23 1.09 16 0 c 6.14 -1.4 12.74 -5.83 19 -8 c 2.15 -0.74 4.94 -1.17 7 -1 c 1.57 0.13 4.21 0.78 5 2 c 4.79 7.42 9.53 20.8 15 29 c 1.91 2.86 5.99 6.08 9 7 c 3.7 1.13 9.7 0.77 14 0 c 4.56 -0.81 9.77 -2.81 14 -5 c 4.5 -2.33 9.12 -5.67 13 -9 c 2.96 -2.53 6.8 -5.99 8 -9 c 1.1 -2.75 1.33 -8.58 0 -11 c -1.72 -3.13 -7.06 -6.46 -11 -9 c -6.32 -4.08 -13.02 -7.66 -20 -11 c -9.32 -4.46 -18.36 -8.68 -28 -12 c -10.82 -3.73 -21.82 -6.89 -33 -9 c -11.84 -2.23 -23.79 -3.29 -36 -4 c -11.12 -0.64 -21.83 -0.61 -33 0 c -13.6 0.75 -28.23 2.36 -40 4 c -1.06 0.15 -3.27 1.73 -3 2 c 0.64 0.64 5.26 2.56 8 3 c 21.38 3.47 43.19 6.64 66 9 c 40.56 4.19 77.23 7.25 118 10 c 25.84 1.74 49.87 3 75 3 c 10.43 0 20.96 -1.14 31 -3 c 7.75 -1.44 16.72 -3.68 23 -7 c 4.06 -2.15 8.45 -7.18 11 -11 l 3 -10"/><path stroke-linejoin="round" stroke-linecap="round" stroke-width="2" stroke="rgb(52, 58, 64)" fill="none" d="M 425 1 c -0.07 0.16 -3.44 6 -4 9 c -1.02 5.49 -1.41 12.13 -1 18 c 0.57 8.24 2.28 16.56 4 25 c 1.68 8.25 3.58 16 6 24 c 1.98 6.55 4.08 13.35 7 19 c 1.85 3.57 5.2 8.44 8 10 c 2.19 1.21 8.27 1.41 10 0 c 2.48 -2.01 4.51 -8.53 6 -13 c 2.15 -6.44 3.54 -13.05 5 -20 c 4.05 -19.23 10.73 -54.8 11 -56 c 0.03 -0.15 -0.27 4.72 0 7 c 0.39 3.32 0.98 6.8 2 10 c 1.62 5.07 3.27 10.59 6 15 c 5.68 9.18 13.29 19.3 20 27 c 1.61 1.85 4.66 3.22 7 4 c 2.34 0.78 5.93 1.83 8 1 c 6.56 -2.63 14.85 -9.15 22 -13 c 1.15 -0.62 3.09 -1.34 4 -1 c 1.25 0.47 3.5 2.49 4 4 c 1.54 4.62 1.49 11.84 3 17 c 0.7 2.41 2.38 5.22 4 7 c 1.45 1.59 4 3.96 6 4 c 12.78 0.25 31.22 -2.74 46 -3 c 3.27 -0.06 6.78 1.03 10 2 c 3.4 1.02 6.98 2.32 10 4 c 2.8 1.56 5.17 4.25 8 6 l 13 7"/></svg>