<?xml version="1.0" encoding="UTF-8" standalone="no"?><!DOCTYPE svg PUBLIC "-//W3C//DTD SVG 1.1//EN" "http://www.w3.org/Graphics/SVG/1.1/DTD/svg11.dtd"><svg xmlns="http://www.w3.org/2000/svg" version="1.1" width="580" height="63"><path stroke-linejoin="round" stroke-linecap="round" stroke-width="2" stroke="rgb(52, 58, 64)" fill="none" d="M 45 54 l 1 1"/><path stroke-linejoin="round" stroke-linecap="round" stroke-width="2" stroke="rgb(52, 58, 64)" fill="none" d="M 148 23 l 1 1"/><path stroke-linejoin="round" stroke-linecap="round" stroke-width="2" stroke="rgb(52, 58, 64)" fill="none" d="M 272 33 l 1 1"/><path stroke-linejoin="round" stroke-linecap="round" stroke-width="2" stroke="rgb(52, 58, 64)" fill="none" d="M 323 20 l 1 1"/><path stroke-linejoin="round" stroke-linecap="round" stroke-width="2" stroke="rgb(52, 58, 64)" fill="none" d="M 185 31 l 1 1"/><path stroke-linejoin="round" stroke-linecap="round" stroke-width="2" stroke="rgb(52, 58, 64)" fill="none" d="M 251 16 l 1 1"/><path stroke-linejoin="round" stroke-linecap="round" stroke-width="2" stroke="rgb(52, 58, 64)" fill="none" d="M 379 43 l 1 1"/><path stroke-linejoin="round" stroke-linecap="round" stroke-width="2" stroke="rgb(52, 58, 64)" fill="none" d="M 1 25 c 0 0.28 -0.67 10.94 0 16 c 0.61 4.6 2.19 9.97 4 14 c 0.97 2.16 3.22 4.86 5 6 c 1.39 0.88 4.15 1 6 1 c 1.25 0 2.88 -0.37 4 -1 c 3.92 -2.2 8.13 -5.03 12 -8 c 6.29 -4.82 11.85 -9.73 18 -15 c 3.53 -3.03 6.76 -5.76 10 -9 c 5.63 -5.63 10.33 -11.53 16 -17 c 4.13 -3.99 13 -11 13 -11"/><path stroke-linejoin="round" stroke-linecap="round" stroke-width="2" stroke="rgb(52, 58, 64)" fill="none" d="M 106 3 l -6 16"/><path stroke-linejoin="round" stroke-linecap="round" stroke-width="2" stroke="rgb(52, 58, 64)" fill="none" d="M 165 30 c -0.09 0 -3.62 -0.34 -5 0 c -1 0.25 -2.25 1.16 -3 2 c -2.09 2.32 -4.61 5.22 -6 8 c -1.45 2.9 -2.63 6.87 -3 10 c -0.25 2.12 1 7 1 7"/><path stroke-linejoin="round" stroke-linecap="round" stroke-width="2" stroke="rgb(52, 58, 64)" fill="none" d="M 228 29 c 0.09 -0.1 3.79 -5.55 5 -6 c 0.66 -0.25 2.46 1.92 3 3 c 0.65 1.3 0.91 3.33 1 5 c 0.24 4.59 0.24 9.41 0 14 c -0.09 1.67 -1 5 -1 5"/><path stroke-linejoin="round" stroke-linecap="round" stroke-width="2" stroke="rgb(52, 58, 64)" fill="none" d="M 249 11 c 0.11 -0.02 3.97 -0.91 6 -1 c 13.37 -0.58 40 -1 40 -1"/><path stroke-linejoin="round" stroke-linecap="round" stroke-width="2" stroke="rgb(52, 58, 64)" fill="none" d="M 254 51 c 0.51 0 19.18 -0.25 29 0 c 3.4 0.09 10 1 10 1"/><path stroke-linejoin="round" stroke-linecap="round" stroke-width="2" stroke="rgb(52, 58, 64)" fill="none" d="M 357 28 c -0.05 0.04 -2.66 1.12 -3 2 c -1.05 2.72 -2 7.58 -2 11 c 0 2.82 0.61 6.92 2 9 c 1.5 2.26 8 6 8 6"/><path stroke-linejoin="round" stroke-linecap="round" stroke-width="2" stroke="rgb(52, 58, 64)" fill="none" d="M 428 44 c -0.17 0.12 -8.93 6.88 -10 7 c -0.54 0.06 1.44 -4.68 1 -6 c -0.36 -1.08 -4 -3 -4 -3"/><path stroke-linejoin="round" stroke-linecap="round" stroke-width="2" stroke="rgb(52, 58, 64)" fill="none" d="M 471 55 c -0.07 -0.05 -4.25 -3 -4 -3 c 0.76 0 9.92 2.37 15 3 c 5.65 0.71 11.15 0.82 17 1 c 5.49 0.17 10.83 0.53 16 0 c 4.31 -0.45 12.78 -2.93 13 -3 c 0.12 -0.04 -5.34 0.26 -7 1 c -0.84 0.38 -2.27 2.45 -2 3 c 0.44 0.89 3.31 2.32 5 3 c 1.48 0.59 3.35 1 5 1 c 8.42 0 17.3 -0.13 26 -1 c 8.13 -0.81 24 -4 24 -4"/></svg>