<?xml version="1.0" encoding="UTF-8" standalone="no"?><!DOCTYPE svg PUBLIC "-//W3C//DTD SVG 1.1//EN" "http://www.w3.org/Graphics/SVG/1.1/DTD/svg11.dtd"><svg xmlns="http://www.w3.org/2000/svg" version="1.1" width="353" height="59"><path stroke-linejoin="round" stroke-linecap="round" stroke-width="2" stroke="rgb(52, 58, 64)" fill="none" d="M 120 56 c 0.16 0.03 6.06 2 9 2 c 10.22 0 32 -2 32 -2"/><path stroke-linejoin="round" stroke-linecap="round" stroke-width="2" stroke="rgb(52, 58, 64)" fill="none" d="M 1 19 c 0.53 -0.23 19.78 -9.24 30 -13 c 6.14 -2.26 13.75 -4.31 19 -5 c 1.2 -0.16 3 1.16 4 2 c 0.81 0.67 1.75 1.94 2 3 c 1.28 5.38 1.28 14.19 3 18 c 0.59 1.32 4.12 2.13 6 2 c 10.83 -0.77 23.65 -3.55 36 -5 c 5.11 -0.6 10.65 -1.41 15 -1 c 1.94 0.19 4.99 1.7 6 3 c 0.92 1.18 0.16 4.6 1 6 c 0.88 1.47 3.34 3.67 5 4 c 2.6 0.52 6.89 -0.07 10 -1 c 13.14 -3.94 26.46 -8.84 40 -14 c 8.01 -3.05 15.29 -7.55 23 -10 c 5.61 -1.78 12.19 -2.57 18 -3 c 2.88 -0.21 6.51 0.07 9 1 c 2.36 0.89 6.17 3.2 7 5 c 0.78 1.69 -0.28 5.66 -1 8 c -0.52 1.69 -2.93 3.39 -3 5 c -0.22 4.73 0.58 12.32 2 17 c 0.65 2.13 3.03 4.82 5 6 c 4.08 2.45 9.99 5.11 15 6 c 9.33 1.66 20 2.4 30 2 c 23.04 -0.93 69 -6 69 -6"/></svg>