<?xml version="1.0" encoding="UTF-8" standalone="no"?><!DOCTYPE svg PUBLIC "-//W3C//DTD SVG 1.1//EN" "http://www.w3.org/Graphics/SVG/1.1/DTD/svg11.dtd"><svg xmlns="http://www.w3.org/2000/svg" version="1.1" width="494" height="130"><path stroke-linejoin="round" stroke-linecap="round" stroke-width="2" stroke="rgb(52, 58, 64)" fill="none" d="M 473 1 l 1 1"/><path stroke-linejoin="round" stroke-linecap="round" stroke-width="2" stroke="rgb(52, 58, 64)" fill="none" d="M 83 35 l 1 1"/><path stroke-linejoin="round" stroke-linecap="round" stroke-width="2" stroke="rgb(52, 58, 64)" fill="none" d="M 46 27 c 0.02 0.19 1 10.81 1 11 c 0 0.14 -0.2 -5.59 -1 -8 c -1.43 -4.29 -3.74 -9.17 -6 -13 c -0.89 -1.51 -2.57 -3.35 -4 -4 c -1.79 -0.81 -5.09 -1.41 -7 -1 c -2.18 0.47 -5.02 2.34 -7 4 c -4.16 3.5 -8.92 7.72 -12 12 c -2.6 3.61 -4.58 8.59 -6 13 c -1.52 4.72 -3 10.21 -3 15 c 0 6.95 1.22 15.27 3 22 c 1.08 4.07 3.58 8.55 6 12 c 2.04 2.91 5.2 6.35 8 8 c 2.28 1.34 6.12 1.84 9 2 c 2.83 0.16 6.57 0 9 -1 c 2.69 -1.11 5.87 -3.72 8 -6 c 2.3 -2.47 4.23 -5.8 6 -9 c 5.33 -9.65 9.78 -19.65 15 -29 c 1.02 -1.83 2.54 -3.54 4 -5 c 1.14 -1.14 3.34 -3.44 4 -3 c 1.37 0.91 4.14 5.89 5 9 c 2.31 8.31 2.95 18.31 5 27 c 0.57 2.41 1.74 5.02 3 7 c 0.93 1.47 2.68 3.6 4 4 c 1.42 0.43 4.67 0.02 6 -1 c 3.57 -2.73 7.65 -7.81 11 -12 c 1.94 -2.43 3.73 -5.27 5 -8 c 0.98 -2.1 1.67 -4.7 2 -7 c 0.32 -2.21 0.63 -5.73 0 -7 c -0.37 -0.75 -3.09 -1.34 -4 -1 c -1.25 0.47 -2.93 2.53 -4 4 c -1.52 2.09 -3.1 4.61 -4 7 c -1.02 2.73 -1.65 5.96 -2 9 c -0.65 5.62 -1.23 11.77 -1 17 c 0.08 1.94 1.08 4.35 2 6 c 0.61 1.11 2.04 2.73 3 3 c 0.93 0.27 3.08 -0.31 4 -1 c 1.42 -1.07 3.1 -3.2 4 -5 c 1.64 -3.28 3.03 -7.27 4 -11 c 1.01 -3.88 2 -11.79 2 -12 c 0 -0.11 -1.9 4.07 -2 6 c -0.21 3.98 0.16 9.2 1 13 c 0.38 1.7 1.76 3.76 3 5 c 1.53 1.53 4.35 3.67 6 4 c 1.02 0.2 3.28 -0.99 4 -2 c 2.17 -3.04 4.96 -7.97 6 -12 c 1.48 -5.74 1.26 -19.11 2 -19 c 0.8 0.11 2.84 13.75 5 20 l 5 9"/><path stroke-linejoin="round" stroke-linecap="round" stroke-width="2" stroke="rgb(52, 58, 64)" fill="none" d="M 141 46 l 2 5"/><path stroke-linejoin="round" stroke-linecap="round" stroke-width="2" stroke="rgb(52, 58, 64)" fill="none" d="M 175 75 c -0.12 0.19 -5.73 7.35 -7 11 c -1.17 3.37 -1.18 8.19 -1 12 c 0.14 2.91 0.94 6.27 2 9 c 1.19 3.05 3.76 5.91 5 9 c 1.37 3.42 3.17 8.76 3 11 c -0.07 0.88 -2.79 2 -4 2 c -2.24 0 -5.38 -1.13 -8 -2 c -3.42 -1.14 -6.98 -2.32 -10 -4 c -2.8 -1.56 -6.12 -3.77 -8 -6 c -1.44 -1.7 -2.87 -4.87 -3 -7 c -0.16 -2.58 0.76 -6.52 2 -9 c 1.53 -3.07 4.26 -6.72 7 -9 c 4.86 -4.05 11.02 -7.58 17 -11 c 10.71 -6.12 23.28 -10.51 32 -17 c 4.48 -3.33 7.76 -9.91 11 -15 c 1.33 -2.09 3.57 -6.2 3 -7 c -0.6 -0.85 -5.9 -0.82 -8 0 c -3.21 1.25 -7.69 4.5 -10 7 c -1.2 1.3 -1.86 4.12 -2 6 c -0.16 2.1 -0.16 5.41 1 7 c 3.47 4.77 9.73 10.54 15 15 c 3.24 2.74 7.67 4.37 11 7 c 2.89 2.28 5.94 5.19 8 8 c 1.39 1.89 2.84 4.96 3 7 c 0.13 1.7 -0.9 4.53 -2 6 c -1.6 2.14 -4.45 5 -7 6 c -5.97 2.35 -14.13 3.68 -21 5 c -1.59 0.31 -4.16 0.56 -5 0 c -0.69 -0.46 -1.6 -3.28 -1 -4 c 3.1 -3.72 10.21 -9.96 16 -14 c 11.86 -8.28 36.37 -22.58 37 -23 c 0.11 -0.07 -5.02 1.62 -7 3 c -4.42 3.09 -9.16 7.16 -13 11 c -1.63 1.63 -3.09 3.99 -4 6 c -0.65 1.42 -1.49 4.03 -1 5 c 0.56 1.11 3.27 2.38 5 3 c 2.73 0.97 6.17 2 9 2 c 3.74 0 8.08 -1.02 12 -2 c 4.08 -1.02 8.1 -2.37 12 -4 c 4.14 -1.72 8.2 -3.72 12 -6 c 2.83 -1.7 5.79 -3.79 8 -6 c 1.59 -1.59 3.72 -4.19 4 -6 c 0.28 -1.82 -0.83 -5.54 -2 -7 c -1.08 -1.35 -4.13 -2.71 -6 -3 c -1.97 -0.3 -4.82 0.38 -7 1 c -2.35 0.67 -4.94 1.73 -7 3 c -2.11 1.3 -4.33 3.16 -6 5 c -1.54 1.7 -3.43 3.96 -4 6 c -0.95 3.41 -1.4 8.98 -1 12 c 0.14 1.06 1.94 2.65 3 3 c 1.49 0.5 4.11 0.29 6 0 c 2.3 -0.35 5.22 -0.76 7 -2 c 4.32 -3.02 9.21 -7.79 13 -12 c 2.02 -2.25 5 -7.34 5 -8 c 0 -0.38 -4.07 1.07 -5 2 c -0.71 0.71 -1 2.78 -1 4 c 0 1.22 0.33 3.2 1 4 c 0.73 0.87 2.78 2.07 4 2 c 3.64 -0.21 8.77 -1.64 13 -3 c 5.12 -1.65 11.49 -5.42 15 -6 c 0.92 -0.15 2.87 1.93 3 3 c 0.41 3.29 -0.22 8.8 -1 13 c -0.87 4.69 -2.27 9.9 -4 14 c -0.76 1.8 -2.54 4.34 -4 5 c -1.59 0.72 -5.83 0.73 -7 0 c -0.85 -0.53 -1.09 -3.42 -1 -5 c 0.23 -4.08 0.64 -9.27 2 -13 c 1.11 -3.06 3.76 -6.25 6 -9 c 2.05 -2.52 4.49 -4.99 7 -7 c 2.39 -1.91 5.34 -4 8 -5 c 2.28 -0.85 5.59 -1.17 8 -1 c 1.89 0.14 4.56 0.83 6 2 c 3.38 2.75 7.03 9.43 10 11 c 1.46 0.77 5.4 -0.8 7 -2 c 1.89 -1.42 3.92 -4.66 5 -7 c 0.76 -1.65 1.49 -5.51 1 -6 c -0.43 -0.43 -3.75 1.07 -5 2 c -1.16 0.87 -2.69 2.64 -3 4 c -0.56 2.44 -0.57 6.71 0 9 c 0.27 1.08 1.91 2.52 3 3 c 1.56 0.69 4.09 1 6 1 c 1.91 0 4.86 0.04 6 -1 c 2.18 -2 4.84 -6.69 6 -10 c 1 -2.85 1.48 -9.4 1 -10 c -0.34 -0.42 -4.29 3.29 -5 5 c -0.71 1.7 -0.59 5.1 0 7 c 0.6 1.96 2.69 5.42 4 6 c 0.97 0.43 3.63 -1.09 5 -2 c 1.44 -0.96 2.92 -2.5 4 -4 c 3.18 -4.4 7.66 -13.76 9 -14 c 0.98 -0.18 1.07 8.26 2 12 c 0.34 1.37 1.21 3.77 2 4 c 0.95 0.27 3.78 -0.94 5 -2 c 3.37 -2.92 7.12 -7.23 10 -11 c 1.3 -1.7 1.83 -4.25 3 -6 c 0.74 -1.11 2.86 -3.27 3 -3 c 0.23 0.45 -1.15 4.86 -1 7 c 0.16 2.2 0.68 6.12 2 7 c 1.82 1.21 7.34 1.38 10 1 c 1.32 -0.19 2.86 -1.86 4 -3 c 1.46 -1.46 3 -3.19 4 -5 c 2.25 -4.04 4.47 -11.47 6 -13 c 0.54 -0.54 2.57 2.23 4 3 c 2.82 1.52 5.9 2.86 9 4 c 3.29 1.21 6.57 2.18 10 3 c 3.67 0.87 7.26 1.58 11 2 c 5.37 0.6 16.46 1.28 16 1 c -1.21 -0.74 -25.94 -9.5 -39 -15 c -6.29 -2.65 -13.14 -5.69 -18 -9 c -1.74 -1.19 -3.53 -4.14 -4 -6 c -0.39 -1.57 0.03 -4.71 1 -6 c 1.59 -2.12 5.13 -5.02 8 -6 l 30 -7"/></svg>