<?xml version="1.0" encoding="UTF-8" standalone="no"?><!DOCTYPE svg PUBLIC "-//W3C//DTD SVG 1.1//EN" "http://www.w3.org/Graphics/SVG/1.1/DTD/svg11.dtd"><svg xmlns="http://www.w3.org/2000/svg" version="1.1" width="602" height="125"><path stroke-linejoin="round" stroke-linecap="round" stroke-width="2" stroke="rgb(52, 58, 64)" fill="none" d="M 1 28 c 0.09 -0.02 3.39 -1 5 -1 c 2.86 0 6.77 -0.11 9 1 c 2.43 1.22 5.72 4.35 7 7 c 2.98 6.17 5.13 14.52 7 22 c 1.48 5.91 1.74 12.19 3 18 c 0.37 1.72 1.15 4.43 2 5 c 0.65 0.43 3.7 -0.13 4 -1 c 1.87 -5.4 2.9 -18.48 5 -25 c 0.41 -1.28 3.08 -1.82 4 -3 c 1.23 -1.58 1.66 -4.43 3 -6 c 2.41 -2.81 6.06 -6.97 9 -8 c 2.7 -0.94 7.82 0.32 11 1 c 1.04 0.22 2.2 1.2 3 2 c 1.1 1.1 2.27 2.54 3 4 c 3.52 7.04 7.32 14.5 10 22 c 2.29 6.4 4.74 19.68 5 20 c 0.19 0.23 -1.18 -10.13 -1 -15 c 0.15 -3.94 0.93 -8.16 2 -12 c 1.23 -4.39 3.11 -9.22 5 -13 c 0.58 -1.15 2.22 -1.89 3 -3 c 1.48 -2.12 2.43 -5.43 4 -7 c 1.05 -1.05 4.03 -2.43 5 -2 c 1.31 0.58 3.09 3.88 4 6 c 2 4.66 3.63 9.86 5 15 l 3 15"/><path stroke-linejoin="round" stroke-linecap="round" stroke-width="2" stroke="rgb(52, 58, 64)" fill="none" d="M 153 75 c 0.02 0.07 0.41 2.96 1 4 c 0.61 1.07 1.99 2.78 3 3 c 1.45 0.32 4.15 -0.45 6 -1 c 1.36 -0.41 2.88 -1.16 4 -2 c 1.42 -1.07 3.14 -2.5 4 -4 c 1.63 -2.85 3.24 -6.67 4 -10 c 0.85 -3.72 1 -8.03 1 -12 c 0 -3.31 -0.4 -6.7 -1 -10 c -0.74 -4.06 -2.95 -11.79 -3 -12 c -0.02 -0.07 0.44 2.87 1 4 c 0.68 1.37 2.39 2.53 3 4 c 4.18 10.04 7.77 23.03 12 32 c 0.79 1.68 3.26 2.84 5 4 c 1.21 0.81 2.77 2 4 2 c 2.53 0 6.19 -0.95 9 -2 c 5.05 -1.89 10.03 -5.01 15 -7 c 1.53 -0.61 3.34 -0.83 5 -1 c 1.63 -0.16 3.77 -0.46 5 0 c 1.04 0.39 2.91 2.01 3 3 c 0.18 1.93 -0.99 5.64 -2 8 c -0.89 2.07 -2.45 4.21 -4 6 c -2.73 3.15 -6.43 5.84 -9 9 c -1.63 2 -4.13 6.24 -4 7 c 0.08 0.48 3.37 -1 5 -1 c 4.17 0 8.87 0.17 13 1 c 4 0.8 9.34 2.01 12 4 c 1.88 1.41 3.88 5.58 4 8 c 0.17 3.35 -2.83 12.17 -3 12 c -0.19 -0.19 -0.11 -9.57 1 -14 c 4.12 -16.48 10.66 -33.11 15 -50 l 3 -20"/><path stroke-linejoin="round" stroke-linecap="round" stroke-width="2" stroke="rgb(52, 58, 64)" fill="none" d="M 154 54 c 0.14 0.02 5.41 1.17 8 1 c 7.45 -0.48 15.19 -1.73 23 -3 c 4.82 -0.78 9.71 -1.31 14 -3 c 8.03 -3.17 15.95 -8.36 24 -12 c 2.19 -0.99 7 -2 7 -2"/><path stroke-linejoin="round" stroke-linecap="round" stroke-width="2" stroke="rgb(52, 58, 64)" fill="none" d="M 147 49 l 1 1"/><path stroke-linejoin="round" stroke-linecap="round" stroke-width="2" stroke="rgb(52, 58, 64)" fill="none" d="M 250 24 l 1 1"/><path stroke-linejoin="round" stroke-linecap="round" stroke-width="2" stroke="rgb(52, 58, 64)" fill="none" d="M 356 14 l 2 29"/><path stroke-linejoin="round" stroke-linecap="round" stroke-width="2" stroke="rgb(52, 58, 64)" fill="none" d="M 325 14 c 0.51 -0.02 19.12 -0.29 29 -1 c 9.25 -0.66 18.18 -2.51 27 -3 c 2.94 -0.16 6.1 0.42 9 1 c 2.02 0.4 4.79 0.95 6 2 c 1.03 0.9 2.12 3.59 2 5 c -0.17 1.99 -1.77 4.9 -3 7 c -1.03 1.77 -2.5 3.5 -4 5 c -2.82 2.82 -5.76 5.57 -9 8 c -6.19 4.64 -18.65 11.5 -19 13 c -0.24 1.04 11.13 -1.03 16 0 c 7.13 1.5 14.82 4.99 22 8 c 3.16 1.32 6.91 3.1 9 5 c 1.09 0.99 1.85 3.47 2 5 c 0.14 1.45 -0.45 3.54 -1 5 c -0.39 1.03 -1.13 2.33 -2 3 c -3.14 2.41 -7.14 4.79 -11 7 c -5.7 3.26 -11.09 6.4 -17 9 c -7.88 3.46 -15.88 6.56 -24 9 c -5.16 1.55 -10.66 2.51 -16 3 c -5.58 0.51 -11.76 0.75 -17 0 c -3.61 -0.52 -7.32 -3.03 -11 -4 c -2.53 -0.67 -6.24 -0.04 -8 -1 c -1.27 -0.7 -3.71 -4.56 -3 -5 c 2.39 -1.49 12.55 -4.17 19 -5 c 19.43 -2.49 39.58 -4.24 59 -5 l 18 2"/><path stroke-linejoin="round" stroke-linecap="round" stroke-width="2" stroke="rgb(52, 58, 64)" fill="none" d="M 453 52 c 0.11 0.03 4.11 1.1 6 2 c 4.41 2.09 8.91 4.42 13 7 c 2.16 1.37 4.16 3.16 6 5 c 2.5 2.5 6.16 5.66 7 8 c 0.5 1.39 -0.82 5.54 -2 6 c -2.07 0.8 -7.47 -1.16 -11 -1 c -3.57 0.16 -7.86 0.78 -11 2 c -2.41 0.94 -5.15 3.03 -7 5 c -2.92 3.12 -5.55 7.21 -8 11 c -1.21 1.87 -2.84 4.35 -3 6 c -0.11 1.1 1.05 3.15 2 4 c 1.71 1.52 4.74 3.35 7 4 c 1.97 0.56 4.87 0.55 7 0 c 7.7 -1.99 16.36 -4.82 24 -8 c 4.19 -1.75 8.32 -4.33 12 -7 c 3.56 -2.59 7.83 -5.49 10 -9 c 5.93 -9.57 11.18 -22.02 16 -33 c 1.08 -2.47 2 -5.59 2 -8 c 0 -2.12 -0.91 -6.18 -2 -7 c -0.91 -0.68 -4.12 0.42 -6 1 c -2.35 0.72 -4.7 1.85 -7 3 c -2.43 1.22 -4.95 2.43 -7 4 c -2.15 1.66 -4.3 3.83 -6 6 c -1.89 2.41 -3.91 5.22 -5 8 l -4 15"/><path stroke-linejoin="round" stroke-linecap="round" stroke-width="2" stroke="rgb(52, 58, 64)" fill="none" d="M 552 72 c 0.44 -0.7 23.35 -39.69 25 -40 c 1.33 -0.25 -9 37 -9 37"/><path stroke-linejoin="round" stroke-linecap="round" stroke-width="2" stroke="rgb(52, 58, 64)" fill="none" d="M 515 43 l 1 1"/><path stroke-linejoin="round" stroke-linecap="round" stroke-width="2" stroke="rgb(52, 58, 64)" fill="none" d="M 485 35 l 1 1"/><path stroke-linejoin="round" stroke-linecap="round" stroke-width="2" stroke="rgb(52, 58, 64)" fill="none" d="M 549 123 l 1 1"/><path stroke-linejoin="round" stroke-linecap="round" stroke-width="2" stroke="rgb(52, 58, 64)" fill="none" d="M 518 95 c 0 -0.86 1.32 -32.95 0 -49 c -0.99 -12.01 -4.42 -23.97 -7 -36 c -0.44 -2.08 -0.9 -4.76 -2 -6 c -1.17 -1.32 -4.15 -2.88 -6 -3 c -2.81 -0.18 -9.05 0.04 -10 2 c -2.53 5.24 -3.54 18.51 -4 27 c -0.17 3.17 0.85 6.99 2 10 c 1.41 3.7 3.74 7.45 6 11 c 2.45 3.85 5.1 7.35 8 11 c 6.37 8.02 12.34 15.63 19 23 c 2.69 2.97 9 8 9 8"/><path stroke-linejoin="round" stroke-linecap="round" stroke-width="2" stroke="rgb(52, 58, 64)" fill="none" d="M 536 111 c 0.05 -0.07 1.81 -2.88 3 -4 c 4.71 -4.45 10.34 -8.34 15 -13 c 3.67 -3.67 6.7 -7.78 10 -12 c 2.87 -3.67 5.87 -7.09 8 -11 c 3.79 -6.95 7.15 -14.56 10 -22 c 1.46 -3.81 2.7 -8.12 3 -12 c 0.34 -4.4 -0.29 -9.96 -1 -14 c -0.18 -1.04 -1.22 -2.22 -2 -3 c -0.78 -0.78 -1.97 -1.61 -3 -2 c -1.46 -0.55 -3.51 -1.2 -5 -1 c -3.06 0.41 -7.49 1.22 -10 3 c -4.77 3.38 -10.49 9.25 -14 14 c -1.68 2.28 -2.48 6.07 -3 9 c -0.44 2.47 -0.62 5.66 0 8 c 0.93 3.53 3.07 7.41 5 11 c 2.8 5.2 5.46 10.81 9 15 c 3.45 4.07 9.38 6.92 13 11 c 4.13 4.65 6.84 11.23 11 16 c 4.7 5.39 16 15 16 15"/></svg>