<?xml version="1.0" encoding="UTF-8" standalone="no"?><!DOCTYPE svg PUBLIC "-//W3C//DTD SVG 1.1//EN" "http://www.w3.org/Graphics/SVG/1.1/DTD/svg11.dtd"><svg xmlns="http://www.w3.org/2000/svg" version="1.1" width="426" height="83"><path stroke-linejoin="round" stroke-linecap="round" stroke-width="2" stroke="rgb(52, 58, 64)" fill="none" d="M 308 29 l 1 1"/><path stroke-linejoin="round" stroke-linecap="round" stroke-width="2" stroke="rgb(52, 58, 64)" fill="none" d="M 1 76 l 1 1"/><path stroke-linejoin="round" stroke-linecap="round" stroke-width="2" stroke="rgb(52, 58, 64)" fill="none" d="M 37 43 l 1 1"/><path stroke-linejoin="round" stroke-linecap="round" stroke-width="2" stroke="rgb(52, 58, 64)" fill="none" d="M 47 39 c 0 -0.09 0.32 -3.54 0 -5 c -0.29 -1.3 -1.66 -4.36 -2 -4 c -1.48 1.61 -10 17 -10 17"/><path stroke-linejoin="round" stroke-linecap="round" stroke-width="2" stroke="rgb(52, 58, 64)" fill="none" d="M 49 82 c 0 -0.82 0.55 -32.99 0 -47 c -0.05 -1.33 -2 -4 -2 -4"/><path stroke-linejoin="round" stroke-linecap="round" stroke-width="2" stroke="rgb(52, 58, 64)" fill="none" d="M 11 1 c 0.02 0.28 0.53 10.55 1 16 c 0.21 2.4 0.45 4.78 1 7 c 0.42 1.69 1.19 3.38 2 5 c 1.89 3.77 3.7 7.63 6 11 c 1.95 2.86 4.49 5.49 7 8 c 2.18 2.18 7 6 7 6"/><path stroke-linejoin="round" stroke-linecap="round" stroke-width="2" stroke="rgb(52, 58, 64)" fill="none" d="M 93 10 c 0 0.32 -0.59 12.26 0 18 c 0.38 3.63 1.35 7.82 3 11 c 3.12 6.04 7.44 13.44 12 18 c 3.4 3.4 9.97 7.35 14 8 c 2.93 0.47 7.89 -2.03 11 -4 c 6.43 -4.07 13.05 -9.79 19 -15 c 1.92 -1.68 3.1 -4.33 5 -6 c 3.65 -3.22 11.51 -8.71 12 -9 c 0.12 -0.07 -2 2.05 -2 3 c 0 2.68 0.68 7.53 2 10 c 1.01 1.89 3.83 3.74 6 5 c 3.97 2.3 13 6 13 6"/><path stroke-linejoin="round" stroke-linecap="round" stroke-width="2" stroke="rgb(52, 58, 64)" fill="none" d="M 243 32 c -0.09 0 -3.46 -0.33 -5 0 c -2.91 0.62 -8.14 1.86 -9 3 c -0.53 0.7 1.63 4.11 3 5 c 3.58 2.32 9.19 4.34 14 6 c 4.9 1.69 15 4 15 4"/><path stroke-linejoin="round" stroke-linecap="round" stroke-width="2" stroke="rgb(52, 58, 64)" fill="none" d="M 341 40 c -0.07 0.11 -2.97 3.93 -4 6 c -0.91 1.81 -1.44 3.95 -2 6 c -0.45 1.65 -1 3.47 -1 5 c 0 1.24 0.24 3.52 1 4 c 1.31 0.82 5.21 1.68 7 1 c 4.21 -1.6 9.11 -6.4 14 -9 c 5.79 -3.08 12.1 -6.23 18 -8 c 3.61 -1.08 8.33 -1.2 12 -1 l 6 2"/><path stroke-linejoin="round" stroke-linecap="round" stroke-width="2" stroke="rgb(52, 58, 64)" fill="none" d="M 403 60 c 0.09 0 3.54 -0.46 5 0 c 5.37 1.71 17 7 17 7"/></svg>