<?xml version="1.0" encoding="UTF-8" standalone="no"?><!DOCTYPE svg PUBLIC "-//W3C//DTD SVG 1.1//EN" "http://www.w3.org/Graphics/SVG/1.1/DTD/svg11.dtd"><svg xmlns="http://www.w3.org/2000/svg" version="1.1" width="603" height="140"><path stroke-linejoin="round" stroke-linecap="round" stroke-width="2" stroke="rgb(52, 58, 64)" fill="none" d="M 1 17 c 0.14 0.28 5.66 10.44 8 16 c 3.06 7.28 5.71 14.51 8 22 c 1.4 4.58 1.74 9.26 3 14 c 4.22 15.83 8.48 30.94 13 46 c 0.42 1.41 2.08 4.09 2 4 c -0.52 -0.55 -12.61 -13.89 -18 -21 c -1.74 -2.3 -3.04 -5.25 -4 -8 c -1.33 -3.8 -2.5 -7.97 -3 -12 c -0.82 -6.52 -1.7 -13.53 -1 -20 c 1.59 -14.76 7.8 -44.23 8 -45 c 0.1 -0.37 -2.66 15.28 -2 22 c 0.59 6.06 3.12 13.37 6 19 c 3.85 7.52 9.63 15.29 15 22 c 2.43 3.03 5.83 5.58 9 8 c 2.48 1.9 5.27 3.73 8 5 c 2.1 0.98 4.78 1.85 7 2 c 2.45 0.16 6.49 0.31 8 -1 c 2.6 -2.25 5.43 -8.07 7 -12 c 0.91 -2.28 1.14 -5.47 1 -8 c -0.18 -3.2 -2.33 -9.89 -2 -10 c 0.34 -0.11 3.62 5.9 5 9 c 1.27 2.86 1.66 6.31 3 9 c 1.22 2.44 3.13 4.84 5 7 c 2.46 2.84 5.21 5.64 8 8 c 1.44 1.22 3.69 3.26 5 3 c 2.63 -0.53 7.48 -3.48 10 -6 c 4.02 -4.02 8.48 -12.98 11 -15 c 0.68 -0.54 3.22 1.75 4 3 c 2.24 3.58 3.57 8.99 6 13 c 3.16 5.21 7.06 10.85 11 15 c 2 2.1 5.88 4.67 8 5 c 1.31 0.2 3.53 -1.82 5 -3 c 1.78 -1.43 3.69 -3.2 5 -5 c 1.24 -1.7 2.27 -3.93 3 -6 c 1.24 -3.53 2.72 -10.81 3 -11 c 0.22 -0.15 -0.55 6.45 0 9 c 0.35 1.65 1.62 4.16 3 5 c 3.83 2.34 10.41 5.29 15 6 c 3.18 0.49 7.59 -1 11 -2 c 2.05 -0.6 4.25 -1.83 6 -3 c 1.11 -0.74 2.61 -1.96 3 -3 c 0.46 -1.23 0.56 -3.76 0 -5 c -0.88 -1.94 -3.69 -5.35 -5 -6 c -0.6 -0.3 -2.82 1.21 -3 2 c -0.34 1.55 0.21 5.1 1 7 c 0.72 1.72 2.47 3.55 4 5 c 4.41 4.17 9.26 8.77 14 12 c 2.2 1.5 5.31 2.28 8 3 c 2.23 0.59 4.77 1 7 1 c 1.92 0 4.95 0.05 6 -1 c 1.94 -1.94 3.68 -6.61 5 -10 l 2 -8"/><path stroke-linejoin="round" stroke-linecap="round" stroke-width="2" stroke="rgb(52, 58, 64)" fill="none" d="M 184 15 c -0.07 0.07 -3.93 2.65 -4 4 c -0.19 3.42 3 14 3 14"/><path stroke-linejoin="round" stroke-linecap="round" stroke-width="2" stroke="rgb(52, 58, 64)" fill="none" d="M 257 1 c 0.02 0.18 0.24 6.74 1 10 c 4.24 18.08 9.63 35.33 14 54 c 3.2 13.65 4.92 26.64 8 40 c 0.96 4.14 4 12 4 12"/><path stroke-linejoin="round" stroke-linecap="round" stroke-width="2" stroke="rgb(52, 58, 64)" fill="none" d="M 295 18 c -0.11 0.07 -4.36 2.36 -6 4 c -6.46 6.46 -13.26 13.82 -19 21 c -2.09 2.61 -4.18 6 -5 9 c -1.04 3.8 -1.85 9.94 -1 13 c 0.51 1.84 3.79 3.73 6 5 c 10.9 6.27 22.17 12.26 34 18 c 10.74 5.21 21.88 10.78 32 14 c 3.48 1.11 8.08 0.36 12 0 c 3.33 -0.3 6.8 -1.06 10 -2 c 2.39 -0.7 5.4 -1.52 7 -3 c 2.27 -2.1 5.87 -8.87 6 -9 c 0.1 -0.1 -3.39 4.72 -4 7 c -0.6 2.26 -0.58 5.68 0 8 c 0.65 2.59 2.18 6.06 4 8 c 2.76 2.94 7.24 6.03 11 8 c 2.89 1.51 6.86 3 10 3 c 6.09 0 13.96 -1.43 20 -3 c 2.41 -0.62 4.81 -2.44 7 -4 c 4.83 -3.45 9.81 -11.51 14 -11 c 13.01 1.58 34.08 13.22 52 19 c 13.74 4.43 26.87 7.53 41 11 c 6.79 1.67 13.25 3.16 20 4 c 6.63 0.83 13.33 1.17 20 1 c 6.7 -0.17 13.22 -1.06 20 -2 l 16 -3"/></svg>