<?xml version="1.0" encoding="UTF-8" standalone="no"?><!DOCTYPE svg PUBLIC "-//W3C//DTD SVG 1.1//EN" "http://www.w3.org/Graphics/SVG/1.1/DTD/svg11.dtd"><svg xmlns="http://www.w3.org/2000/svg" version="1.1" width="606" height="119"><path stroke-linejoin="round" stroke-linecap="round" stroke-width="2" stroke="rgb(52, 58, 64)" fill="none" d="M 7 44 c 0.11 0.02 4.24 0.36 6 1 c 1.69 0.61 4.18 1.77 5 3 c 0.86 1.28 1 4.03 1 6 c 0 5.2 -1.2 10.86 -1 16 c 0.13 3.27 1.63 6.68 2 10 c 0.29 2.61 0.36 5.51 0 8 c -0.28 1.97 -1.07 4.52 -2 6 c -0.53 0.84 -2.3 2.12 -3 2 c -0.82 -0.14 -2.39 -1.93 -3 -3 c -0.59 -1.04 -1.13 -2.74 -1 -4 c 1.73 -16.7 4.81 -35.42 7 -54 c 0.56 -4.79 1.14 -9.37 1 -14 c -0.19 -5.97 -1.74 -12.38 -2 -18 c -0.06 -1.28 0.44 -2.87 1 -4 c 0.68 -1.37 1.82 -3.08 3 -4 c 1.58 -1.23 3.98 -2.33 6 -3 c 1.83 -0.61 4.08 -1 6 -1 c 2.23 0 4.88 0.35 7 1 c 2.01 0.62 4.3 1.76 6 3 c 1.8 1.31 4.05 3.26 5 5 c 0.82 1.5 1 4.07 1 6 c 0 2.56 0.09 5.92 -1 8 c -2.21 4.23 -6.31 8.92 -10 13 c -5.73 6.34 -11.61 12.34 -18 18 c -5.37 4.76 -11.35 9.15 -17 13 l -5 2"/><path stroke-linejoin="round" stroke-linecap="round" stroke-width="2" stroke="rgb(52, 58, 64)" fill="none" d="M 68 70 c -0.17 -0.05 -6.75 -2.35 -10 -3 c -1.56 -0.31 -3.54 -0.32 -5 0 c -1.3 0.29 -3.73 1.33 -4 2 c -0.22 0.54 1.17 2.41 2 3 c 1.24 0.89 3.62 2 5 2 c 1.14 0 3.17 -2.31 4 -2 c 1.19 0.45 2.45 3.84 4 5 c 2.16 1.62 5.65 3.41 8 4 c 1.08 0.27 3.08 -0.31 4 -1 c 1.42 -1.07 2.48 -3.61 4 -5 c 2.37 -2.17 5.25 -4.17 8 -6 c 1.23 -0.82 2.77 -1.86 4 -2 c 1.4 -0.16 3.95 0.21 5 1 c 1.2 0.9 1.73 3.73 3 5 c 2.17 2.17 6.33 3.72 8 6 c 1.59 2.16 2.59 6.31 3 9 c 0.18 1.17 -0.77 4 -1 4 c -0.23 0 -1.38 -3.01 -1 -4 c 1 -2.6 3.74 -6.26 6 -9 c 2.36 -2.86 5.21 -5.64 8 -8 c 1.44 -1.22 3.38 -2.51 5 -3 c 1.39 -0.42 4.6 -0.86 5 0 c 1.21 2.6 1.01 13.31 2 15 c 0.38 0.65 3.31 -2.25 5 -3 c 1.19 -0.53 2.76 -1 4 -1 c 1.53 0 3.7 0.35 5 1 c 1.08 0.54 2.33 1.88 3 3 c 1.21 2.01 1.5 6.08 3 7 c 1.98 1.22 6.88 1.28 10 1 l 12 -3"/><path stroke-linejoin="round" stroke-linecap="round" stroke-width="2" stroke="rgb(52, 58, 64)" fill="none" d="M 216 59 c -0.14 -0.12 -6.75 -4.86 -8 -7 c -0.6 -1.03 0.38 -3.6 1 -5 c 0.61 -1.37 1.73 -3.21 3 -4 c 5.11 -3.16 12.53 -7.32 18 -9 c 2.19 -0.67 5.68 0.37 8 1 c 1.04 0.28 2.33 1.19 3 2 c 0.84 1 1.61 2.62 2 4 c 0.9 3.14 1.56 6.6 2 10 c 0.57 4.35 1.52 8.91 1 13 c -1.07 8.37 -5.62 24.9 -6 26 c -0.09 0.25 -1.16 -4.25 -1 -6 c 0.14 -1.55 1.17 -3.39 2 -5 c 4.57 -8.85 8.97 -18.09 14 -26 c 1.69 -2.65 4.5 -4.83 7 -7 c 2.53 -2.19 5.51 -5.17 8 -6 c 1.76 -0.59 5.77 -0.23 7 1 c 2.57 2.57 5.37 8.65 7 13 c 1.24 3.3 1.84 7.42 2 11 c 0.17 3.86 -1.17 11.41 -1 12 c 0.08 0.29 1.84 -3.51 3 -5 c 1.12 -1.44 2.52 -2.89 4 -4 c 3.78 -2.84 7.91 -5.96 12 -8 c 2.96 -1.48 7.23 -2.8 10 -3 c 1.19 -0.08 3.08 1.08 4 2 c 1.49 1.49 2.94 3.88 4 6 c 1.91 3.82 2.76 8.81 5 12 c 2.07 2.96 6.63 7.37 9 8 c 1.42 0.38 4.52 -2.39 6 -4 c 1.93 -2.11 3.67 -5.34 5 -8 c 0.58 -1.16 0.36 -3.92 1 -4 c 1.19 -0.15 5.02 1.74 7 3 c 1.47 0.93 2.56 2.88 4 4 c 1.49 1.16 3.38 2.51 5 3 c 1.39 0.42 3.61 0.42 5 0 c 1.62 -0.49 4.04 -1.63 5 -3 c 2.59 -3.67 5.05 -9.38 7 -14 c 0.63 -1.51 1 -3.38 1 -5 c 0 -3.51 -1.36 -10.04 -1 -11 c 0.16 -0.44 3.03 1.87 4 3 c 0.87 1.01 1.36 2.6 2 4 c 1.08 2.38 2.3 4.61 3 7 c 0.94 3.2 0.89 6.98 2 10 c 1.12 3.05 3.04 7.37 5 9 c 1.34 1.12 4.79 1 7 1 c 1.59 0 3.4 -0.45 5 -1 c 7.04 -2.44 18.92 -6.84 21 -8 c 0.33 -0.19 -2.08 -1.87 -3 -2 c -1.05 -0.15 -2.85 0.43 -4 1 c -2.01 1.01 -4.15 2.52 -6 4 c -1.45 1.16 -2.93 2.58 -4 4 c -0.84 1.12 -1.55 2.64 -2 4 c -0.52 1.55 -1.27 3.66 -1 5 c 0.31 1.53 1.82 3.82 3 5 c 0.91 0.91 2.69 1.74 4 2 c 1.76 0.35 4.14 0.39 6 0 c 4.22 -0.89 8.89 -2.29 13 -4 c 3.79 -1.58 7.94 -3.56 11 -6 c 3.28 -2.62 7.1 -6.51 9 -10 c 1.75 -3.21 1.56 -8.72 3 -12 c 0.66 -1.5 3.21 -4 4 -4 c 0.62 0 1.91 2.72 2 4 c 0.21 2.88 -0.12 6.91 -1 10 c -1.7 5.94 -6.75 15.86 -7 18 c -0.07 0.57 3.63 -0.27 5 -1 c 3.27 -1.75 6.56 -5.09 10 -7 c 2.4 -1.34 5.42 -2.4 8 -3 c 1.51 -0.35 4.01 -0.78 5 0 c 2.81 2.21 6.19 9.51 9 11 c 1.63 0.86 5.56 -1.06 8 -2 c 1.73 -0.66 3.55 -1.8 5 -3 c 2.45 -2.05 5.03 -4.59 7 -7 c 0.89 -1.09 2.25 -3.37 2 -4 c -0.23 -0.58 -3.11 -1.39 -4 -1 c -1.52 0.68 -3.86 3.3 -5 5 c -0.66 0.99 -1.12 2.82 -1 4 c 0.18 1.81 0.9 4.76 2 6 c 1.17 1.32 4.06 2.51 6 3 c 1.74 0.43 4.08 0.27 6 0 c 2.63 -0.38 5.53 -0.95 8 -2 c 6.04 -2.55 12.53 -5.47 18 -9 c 4.63 -2.99 9.83 -7.09 13 -11 c 2 -2.47 3.67 -7 4 -10 c 0.26 -2.3 -0.86 -7 -2 -8 c -0.84 -0.74 -4.81 0.05 -6 1 c -1.58 1.27 -3.61 4.77 -4 7 c -0.49 2.78 0.25 6.98 1 10 c 0.5 2.01 1.82 4.15 3 6 c 1.12 1.76 2.42 3.84 4 5 c 3.09 2.27 7.45 4.99 11 6 c 2.83 0.81 6.91 0.56 10 0 c 3.91 -0.71 8.92 -1.95 12 -4 c 3.27 -2.18 6.42 -6.56 9 -10 c 1.29 -1.72 2.27 -3.98 3 -6 c 0.56 -1.54 1.11 -3.46 1 -5 c -0.2 -2.79 -0.59 -7.17 -2 -9 c -1.37 -1.78 -6.32 -4.39 -8 -4 c -1.61 0.37 -3.71 4.6 -5 7 c -0.95 1.76 -1.53 3.97 -2 6 c -0.52 2.27 -1 4.75 -1 7 c 0 2.25 0.39 4.73 1 7 c 1.72 6.38 3.53 13.04 6 19 c 1.44 3.49 3.76 7.15 6 10 l 5 4"/><path stroke-linejoin="round" stroke-linecap="round" stroke-width="2" stroke="rgb(52, 58, 64)" fill="none" d="M 375 58 l 21 1"/></svg>