<?xml version="1.0" encoding="UTF-8" standalone="no"?><!DOCTYPE svg PUBLIC "-//W3C//DTD SVG 1.1//EN" "http://www.w3.org/Graphics/SVG/1.1/DTD/svg11.dtd"><svg xmlns="http://www.w3.org/2000/svg" version="1.1" width="573" height="123"><path stroke-linejoin="round" stroke-linecap="round" stroke-width="2" stroke="rgb(52, 58, 64)" fill="none" d="M 26 14 c 0 0.21 -0.33 8.03 0 12 c 0.34 4.02 1.91 8.01 2 12 c 0.24 10.5 0.55 21.83 -1 32 c -1.36 8.95 -8 27 -8 27"/><path stroke-linejoin="round" stroke-linecap="round" stroke-width="2" stroke="rgb(52, 58, 64)" fill="none" d="M 112 5 c -0.54 0.33 -21.39 12.2 -31 19 c -3.74 2.64 -6.23 7.37 -10 10 c -13.53 9.44 -28.4 19.49 -43 27 c -8.18 4.21 -26.54 8.8 -27 9 c -0.3 0.13 11.87 -3.8 18 -5 c 7.61 -1.48 15.25 -2.27 23 -3 c 3.01 -0.28 6.45 -0.55 9 0 c 1.65 0.35 3.53 1.82 5 3 c 1.78 1.43 4.15 3.18 5 5 c 1.23 2.63 1.1 6.69 2 10 c 1.12 4.1 2.41 8.36 4 12 c 0.63 1.44 1.89 2.75 3 4 c 1.57 1.77 3.16 3.82 5 5 l 9 4"/><path stroke-linejoin="round" stroke-linecap="round" stroke-width="2" stroke="rgb(52, 58, 64)" fill="none" d="M 110 50 c -0.23 0.09 -8.85 2.93 -13 5 c -7.21 3.6 -15.65 8.04 -21 12 c -1.19 0.88 -2.12 3.63 -2 5 c 0.16 1.71 1.58 5.13 3 6 c 2.16 1.33 7.06 2.28 10 2 c 3.37 -0.32 7.66 -3.67 11 -4 c 2.63 -0.26 6.38 2.4 9 2 c 5.13 -0.79 12.06 -3.78 17 -6 c 1.16 -0.52 1.93 -2.39 3 -3 c 1.04 -0.59 2.76 -1 4 -1 c 1.53 0 4.36 0.23 5 1 c 0.63 0.76 -0.28 3.45 0 5 c 0.36 1.95 1.06 4.28 2 6 c 0.95 1.75 2.49 3.79 4 5 c 1.58 1.26 4.04 2.61 6 3 c 2.63 0.53 6.2 0.51 9 0 c 4.24 -0.77 9.08 -2.39 13 -4 c 1.44 -0.59 2.63 -2.39 4 -3 c 1.4 -0.62 3.47 -1 5 -1 c 1.24 0 2.67 0.92 4 1 c 4.19 0.25 8.7 -0.34 13 0 c 4.02 0.32 8.12 2.23 12 2 c 17.32 -1.05 37.2 -4.55 54 -6 c 1.27 -0.11 2.84 0.42 4 1 c 2.66 1.33 5.42 4.7 8 5 l 18 -2"/><path stroke-linejoin="round" stroke-linecap="round" stroke-width="2" stroke="rgb(52, 58, 64)" fill="none" d="M 232 111 c 0.19 -0.04 7.48 -0.9 11 -2 c 7.07 -2.21 14.31 -4.73 21 -8 c 7.6 -3.71 14.56 -8.31 22 -13 c 8.39 -5.29 15.54 -10.88 24 -16 c 17.61 -10.66 35.22 -19.3 52 -30 c 6.16 -3.93 11.79 -8.99 17 -14 c 3.36 -3.23 6.31 -7.16 9 -11 c 1.95 -2.78 3.81 -6.02 5 -9 c 0.7 -1.76 1.44 -4.97 1 -6 c -0.3 -0.7 -2.72 -1.06 -4 -1 c -5.29 0.25 -11.37 0.83 -17 2 c -12.2 2.53 -24.48 4.86 -36 9 c -14.32 5.14 -28.56 11.5 -42 19 c -18.35 10.24 -34.93 23.68 -53 34 c -7.46 4.26 -15.75 7.69 -24 10 c -16.56 4.64 -36.37 8.65 -51 11 c -1.51 0.24 -5.19 -1.29 -5 -2 c 0.43 -1.59 4.9 -6.97 8 -9 c 6.9 -4.53 15.64 -8.5 24 -12 c 12.61 -5.29 24.93 -10.03 38 -14 c 13.62 -4.14 27.53 -7.83 41 -10 c 6.7 -1.08 14.02 -0.41 21 0 c 4.37 0.26 9.53 0.51 13 2 c 2.8 1.2 6.43 4.48 8 7 c 1.37 2.18 1.58 5.95 2 9 c 0.59 4.32 1.55 9.03 1 13 c -0.7 5.11 -3.01 10.74 -5 16 c -1.7 4.49 -4.4 8.57 -6 13 c -1.38 3.83 -2.65 8.16 -3 12 c -0.28 3.12 -0.4 8.6 1 10 c 1.4 1.4 6.78 1.27 10 1 c 8.44 -0.7 17.15 -2.34 26 -4 c 7.59 -1.42 15.46 -2.99 22 -5 c 1.45 -0.45 4.11 -2.55 4 -3 c -0.12 -0.46 -5.25 -0.88 -5 -1 c 0.85 -0.43 11.7 -2.73 17 -5 c 6.16 -2.64 17.18 -8.87 18 -10 c 0.4 -0.55 -6.79 -1.28 -10 -1 c -7.77 0.69 -24.49 4.27 -24 4 c 1.16 -0.65 35.71 -14.74 54 -21 c 7.12 -2.44 14.59 -3.8 22 -5 c 4.93 -0.8 10.65 -1.41 15 -1 c 1.94 0.19 5.65 1.83 6 3 c 0.4 1.32 -3.11 6.57 -3 7 c 0.07 0.28 2.55 -2.35 4 -3 c 4.96 -2.23 10.87 -4.66 16 -6 c 2.1 -0.55 4.72 -0.27 7 0 c 3.32 0.39 6.67 1.68 10 2 c 3.59 0.34 7.37 0.32 11 0 c 4.02 -0.35 7.97 -1.82 12 -2 c 11.26 -0.49 23.23 -0.73 34 0 c 3.31 0.23 7.04 1.61 10 3 c 2.44 1.15 4.67 3.73 7 5 l 4 1"/></svg>