<?xml version="1.0" encoding="UTF-8" standalone="no"?><!DOCTYPE svg PUBLIC "-//W3C//DTD SVG 1.1//EN" "http://www.w3.org/Graphics/SVG/1.1/DTD/svg11.dtd"><svg xmlns="http://www.w3.org/2000/svg" version="1.1" width="384" height="106"><path stroke-linejoin="round" stroke-linecap="round" stroke-width="2" stroke="rgb(52, 58, 64)" fill="none" d="M 41 56 c 0.02 -0.24 1.16 -9.42 1 -14 c -0.16 -4.61 -0.69 -9.75 -2 -14 c -1.24 -4.03 -3.81 -8.06 -6 -12 c -1.18 -2.12 -2.4 -4.4 -4 -6 c -2.53 -2.53 -5.94 -5.03 -9 -7 c -1.44 -0.93 -3.37 -1.7 -5 -2 c -1.82 -0.33 -4.4 -0.48 -6 0 c -1.33 0.4 -3.2 1.76 -4 3 c -1.92 2.99 -4.47 7.38 -5 11 c -1.01 6.88 -0.94 15.84 0 23 c 0.65 4.92 3.08 10.69 5 15 c 0.51 1.16 1.92 2.46 3 3 c 1.3 0.65 3.7 1.4 5 1 c 2.4 -0.74 5.74 -3.11 8 -5 c 1.54 -1.28 2.49 -3.49 4 -5 c 3.83 -3.83 8.16 -8.12 12 -11 c 0.97 -0.73 3.02 -1.36 4 -1 c 2.05 0.75 4.6 3.71 7 5 c 1.76 0.95 4.19 2 6 2 c 2.37 0 5.43 -1.06 8 -2 c 4.76 -1.73 9.38 -4.71 14 -6 c 3.35 -0.94 7.45 -1 11 -1 c 1.96 0 4.3 0.29 6 1 c 2.02 0.84 4.59 2.35 6 4 c 2.28 2.66 4.77 6.62 6 10 c 1.28 3.52 1.77 8.31 2 12 c 0.08 1.25 -0.59 4.08 -1 4 c -0.64 -0.13 -3.44 -3.33 -4 -5 c -0.61 -1.83 -0.32 -4.79 0 -7 c 0.33 -2.3 0.93 -4.97 2 -7 c 2.12 -4.03 5 -8.47 8 -12 c 2.51 -2.95 5.81 -5.82 9 -8 c 2.96 -2.02 6.57 -3.63 10 -5 c 3.21 -1.28 6.73 -2.48 10 -3 c 2.82 -0.45 6.2 -0.37 9 0 c 1.97 0.26 4.41 0.99 6 2 c 1.78 1.13 3.79 3.19 5 5 c 1.3 1.95 2.51 4.63 3 7 c 1.11 5.33 1.98 16.7 2 17 c 0.01 0.09 -1 -3.42 -1 -5 c 0 -1.88 0.32 -4.24 1 -6 c 0.9 -2.34 2.43 -4.95 4 -7 c 1.66 -2.15 3.83 -4.26 6 -6 c 2.77 -2.22 5.87 -4.35 9 -6 c 3.12 -1.64 6.67 -3.12 10 -4 c 2.8 -0.74 6.19 -1.17 9 -1 c 2.56 0.15 5.83 0.84 8 2 c 2.43 1.29 5.36 3.77 7 6 c 1.75 2.39 2.98 5.94 4 9 c 0.96 2.87 0.56 8.04 2 9 c 1.57 1.05 6.73 -0.42 10 -1 c 2.37 -0.42 4.72 -1.92 7 -2 c 6.91 -0.24 15.08 -0.21 22 1 c 5.97 1.04 12.41 3.5 18 6 c 3.84 1.72 7.81 4.34 11 7 c 2.6 2.17 5.2 5.15 7 8 c 2.05 3.24 4.15 7.44 5 11 c 0.7 2.94 0.34 6.76 0 10 c -0.31 2.99 -1.01 6.19 -2 9 c -0.96 2.72 -2.37 5.71 -4 8 c -1.55 2.17 -3.87 4.4 -6 6 c -1.69 1.26 -4.18 2.67 -6 3 c -1.39 0.25 -3.65 -0.32 -5 -1 c -1.7 -0.85 -3.75 -2.47 -5 -4 c -1.57 -1.92 -3.69 -4.73 -4 -7 c -0.58 -4.24 -0.05 -10.46 1 -15 c 0.84 -3.65 2.89 -7.76 5 -11 c 2.73 -4.19 6.16 -8.78 10 -12 c 8.12 -6.8 17.9 -13.8 27 -19 c 4.36 -2.49 9.86 -3.63 15 -5 c 4.97 -1.32 10.01 -2.47 15 -3 c 4.24 -0.45 8.87 -0.59 13 0 c 4.93 0.7 10.91 2.05 15 4 c 2.23 1.06 4.78 3.87 6 6 c 1.19 2.07 2 5.54 2 8 l -2 9"/></svg>