<?xml version="1.0" encoding="UTF-8" standalone="no"?><!DOCTYPE svg PUBLIC "-//W3C//DTD SVG 1.1//EN" "http://www.w3.org/Graphics/SVG/1.1/DTD/svg11.dtd"><svg xmlns="http://www.w3.org/2000/svg" version="1.1" width="576" height="132"><path stroke-linejoin="round" stroke-linecap="round" stroke-width="2" stroke="rgb(52, 58, 64)" fill="none" d="M 26 119 c 0.4 -0.33 15.32 -12.18 23 -19 c 16.77 -14.88 32.02 -28.89 48 -44 c 2.61 -2.47 7.15 -8.1 7 -8 c -0.21 0.14 -6.28 7.23 -10 10 c -10.44 7.77 -21.8 15.87 -33 22 c -5.99 3.28 -13.56 5.45 -20 7 c -2.73 0.66 -6.12 0.34 -9 0 c -2.64 -0.31 -5.82 -0.76 -8 -2 c -4.33 -2.48 -9.42 -6.26 -13 -10 c -3.45 -3.61 -6.89 -8.78 -9 -13 c -0.94 -1.89 -1.12 -4.77 -1 -7 c 0.2 -3.84 0.89 -8.31 2 -12 c 0.81 -2.71 2.15 -5.97 4 -8 c 4.39 -4.83 10.44 -9.88 16 -14 c 3.28 -2.43 7.21 -4.49 11 -6 c 4.4 -1.76 9.24 -3.02 14 -4 c 4.95 -1.02 9.84 -1.48 15 -2 c 5.13 -0.51 9.95 -1 15 -1 c 5.38 0 10.67 0.31 16 1 c 5.08 0.66 10.13 1.61 15 3 c 4.43 1.27 8.95 2.97 13 5 c 3.15 1.57 7.07 3.55 9 6 c 2.56 3.24 4.99 8.8 6 13 c 0.85 3.52 1.53 9.12 0 12 c -3.34 6.29 -10.94 14.89 -17 20 c -3.82 3.23 -10.07 5.42 -15 7 c -2.99 0.96 -6.87 1.17 -10 1 c -2.57 -0.14 -5.67 -1.03 -8 -2 c -1.41 -0.59 -2.9 -1.9 -4 -3 c -0.8 -0.8 -2.22 -2.56 -2 -3 c 0.25 -0.5 3.17 -1.28 4 -1 c 0.73 0.24 2 2.01 2 3 c 0 5.78 -1.45 13.86 -2 21 c -0.13 1.69 -0.26 3.43 0 5 c 0.38 2.29 1.1 4.84 2 7 c 0.72 1.73 1.78 3.93 3 5 c 1.13 0.98 3.36 1.79 5 2 c 3.36 0.42 7.36 0.36 11 0 c 6.37 -0.64 12.7 -1.6 19 -3 c 5.8 -1.29 11.41 -2.97 17 -5 c 5.51 -2 14.38 -7.87 16 -7 c 1.33 0.72 -3.34 11.25 -3 14 c 0.13 1.04 3.41 1.89 5 2 c 2.67 0.19 6.23 -0.21 9 -1 c 3.98 -1.14 8.4 -3 12 -5 c 2.16 -1.2 4.4 -3.03 6 -5 c 11.12 -13.69 21.64 -28.8 33 -43 c 2.07 -2.59 5.04 -4.41 7 -7 c 4.29 -5.65 11.75 -17.39 12 -18 c 0.11 -0.26 -4.97 3.73 -7 6 c -6.25 7 -12.07 14.27 -18 22 c -5.38 7.02 -11.02 13.61 -15 21 c -5.18 9.62 -10.51 23.32 -13 31 c -0.27 0.82 1.18 2.73 2 3 c 1.6 0.53 5 0.59 7 0 c 3.2 -0.94 6.78 -3.07 10 -5 c 5.2 -3.12 10.09 -6.43 15 -10 c 2.51 -1.83 4.53 -4.24 7 -6 c 2.16 -1.54 4.58 -3 7 -4 c 3.13 -1.29 7.38 -2.8 10 -3 c 0.91 -0.07 2.91 1.27 3 2 c 0.16 1.28 -0.93 4.53 -2 6 c -1.32 1.82 -4.33 4.87 -6 5 c -1.73 0.13 -5.45 -2.31 -7 -4 c -1.72 -1.88 -2.66 -6.83 -4 -8 c -0.62 -0.54 -2.96 0.41 -4 1 c -1.07 0.61 -2.39 1.85 -3 3 c -2.19 4.14 -4.07 9.18 -6 14 c -0.8 2 -1.64 4.05 -2 6 c -0.28 1.55 -0.54 4.91 0 5 c 0.78 0.13 4.18 -2.44 6 -4 c 5.17 -4.43 10.21 -9.21 15 -14 c 1.17 -1.17 3.04 -4.08 3 -4 c -0.07 0.15 -3.11 5.59 -5 8 c -1.7 2.17 -4.59 3.99 -6 6 c -0.69 0.98 -1 2.78 -1 4 c 0 1.22 0.33 3.2 1 4 c 0.73 0.87 2.79 2.12 4 2 c 4.74 -0.45 11.74 -2.12 17 -4 c 3.78 -1.35 7.81 -3.61 11 -6 c 3.24 -2.43 6.34 -5.75 9 -9 l 9 -13"/><path stroke-linejoin="round" stroke-linecap="round" stroke-width="2" stroke="rgb(52, 58, 64)" fill="none" d="M 207 55 c 0.05 0.18 1.34 8.61 3 10 c 1.43 1.2 6.15 0.36 9 0 c 2.3 -0.29 7 -2 7 -2"/><path stroke-linejoin="round" stroke-linecap="round" stroke-width="2" stroke="rgb(52, 58, 64)" fill="none" d="M 162 50 c -0.04 0.16 -1.13 6.16 -2 9 c -0.42 1.38 -2 4 -2 4"/><path stroke-linejoin="round" stroke-linecap="round" stroke-width="2" stroke="rgb(52, 58, 64)" fill="none" d="M 334 47 c -0.19 0.18 -7.77 6.41 -11 10 c -2.66 2.95 -5.09 6.51 -7 10 c -2.03 3.72 -3.69 7.9 -5 12 c -1.35 4.21 -2.46 8.7 -3 13 c -0.44 3.54 -1.03 8.21 0 11 c 0.99 2.69 4.68 6.1 7 8 c 0.9 0.74 2.88 1.29 4 1 c 4.38 -1.15 10.28 -3.56 15 -6 c 4.86 -2.51 9.68 -5.6 14 -9 c 4.96 -3.9 9.39 -8.39 14 -13 c 4.27 -4.27 8.24 -8.39 12 -13 c 3.65 -4.48 7 -9.13 10 -14 c 2.34 -3.8 4.47 -7.91 6 -12 c 1.41 -3.77 2.64 -8.18 3 -12 c 0.27 -2.8 -0.1 -6.44 -1 -9 c -0.94 -2.67 -3 -6 -5 -8 c -2 -2 -5.32 -4.15 -8 -5 c -3.14 -0.99 -7.56 -1.3 -11 -1 c -3.85 0.33 -8.7 1.18 -12 3 c -5.71 3.15 -12.56 8.2 -17 13 c -3.35 3.62 -5.74 9.15 -8 14 c -2.4 5.14 -4.7 10.63 -6 16 c -1.3 5.37 -2.17 11.61 -2 17 c 0.15 4.82 1.45 10.35 3 15 c 1.36 4.08 3.44 9.12 6 12 c 2.22 2.5 6.62 4.87 10 6 c 4.1 1.37 9.29 1.64 14 2 l 12 0"/><path stroke-linejoin="round" stroke-linecap="round" stroke-width="2" stroke="rgb(52, 58, 64)" fill="none" d="M 339 86 c -0.02 0.09 -1.26 3.53 -1 5 c 0.64 3.64 2.11 8.73 4 12 c 1.48 2.56 4.4 5.46 7 7 c 4.24 2.51 10.41 5.29 15 6 c 3.18 0.49 7.86 -0.78 11 -2 c 2.41 -0.94 4.96 -3.13 7 -5 c 1.85 -1.7 3.68 -3.92 5 -6 c 0.91 -1.43 2.45 -4.21 2 -5 c -0.53 -0.93 -4.54 -2.54 -6 -2 c -3.66 1.35 -9.11 5.76 -13 9 c -1.92 1.6 -4.12 3.94 -5 6 c -0.91 2.12 -1.61 6.48 -1 8 c 0.41 1.02 3.41 1.89 5 2 c 2.67 0.19 6.36 0.03 9 -1 c 8.72 -3.39 18.56 -8.01 27 -13 c 6.03 -3.56 11.6 -8.28 17 -13 c 5.35 -4.68 10.41 -9.56 15 -15 c 8.18 -9.69 16.17 -19.75 23 -30 c 2.99 -4.49 5.05 -9.86 7 -15 c 1.72 -4.52 3.06 -9.3 4 -14 c 0.71 -3.56 1.63 -8 1 -11 c -0.54 -2.56 -3.44 -6.78 -5 -8 c -0.68 -0.53 -3.3 0.15 -4 1 c -4.28 5.23 -9.84 13.53 -14 21 c -15.5 27.8 -41.51 77.89 -44 83 c -0.15 0.32 3.86 -1.61 5 -3 c 10.64 -12.88 22.02 -28.18 33 -43 c 2.64 -3.56 7.08 -11.21 7 -11 c -0.26 0.65 -11.84 23.63 -17 36 c -3.28 7.86 -6.38 16.08 -8 24 c -1.28 6.27 -1.91 15.99 -1 20 c 0.29 1.27 4.4 2.32 6 2 c 2.6 -0.52 6.09 -3.1 9 -5 c 4.86 -3.17 9.68 -6.27 14 -10 c 5.33 -4.59 10.29 -9.64 15 -15 c 5.06 -5.76 9.79 -11.58 14 -18 c 8.6 -13.13 17.06 -26.6 24 -40 c 2.49 -4.82 3.71 -10.64 5 -16 c 0.69 -2.89 1.74 -7.07 1 -9 c -0.59 -1.54 -4.4 -4.11 -6 -4 c -2.09 0.15 -5.85 2.97 -8 5 c -3.25 3.06 -6.05 7.12 -9 11 c -3.57 4.69 -7.24 9.09 -10 14 c -3.16 5.62 -5.75 11.75 -8 18 c -3.83 10.64 -7.29 21.4 -10 32 c -0.89 3.49 -1.36 7.76 -1 11 c 0.25 2.23 1.64 5.79 3 7 c 1.08 0.96 4.38 1.37 6 1 c 2.15 -0.5 4.98 -2.39 7 -4 c 2.83 -2.26 5.48 -5.12 8 -8 c 4.6 -5.25 8.48 -10.4 13 -16 c 2.81 -3.48 5.54 -6.52 8 -10 c 1.55 -2.19 4.06 -7.13 4 -7 c -0.18 0.39 -7.79 14.5 -11 22 c -1.78 4.15 -4.33 10.39 -4 13 c 0.16 1.29 4.31 3.11 6 3 c 2.47 -0.16 6.26 -2.25 9 -4 c 12.8 -8.17 29.91 -22.05 38 -26 c 1.24 -0.61 4.53 3.2 5 5 c 0.94 3.55 -0.45 9.39 0 14 c 0.55 5.68 1.17 12.23 3 17 c 1.21 3.15 4.3 7.11 7 9 l 13 5"/></svg>