<?xml version="1.0" encoding="UTF-8" standalone="no"?><!DOCTYPE svg PUBLIC "-//W3C//DTD SVG 1.1//EN" "http://www.w3.org/Graphics/SVG/1.1/DTD/svg11.dtd"><svg xmlns="http://www.w3.org/2000/svg" version="1.1" width="557" height="172"><path stroke-linejoin="round" stroke-linecap="round" stroke-width="2" stroke="rgb(52, 58, 64)" fill="none" d="M 1 105 l 22 -5"/><path stroke-linejoin="round" stroke-linecap="round" stroke-width="2" stroke="rgb(52, 58, 64)" fill="none" d="M 111 12 c -0.03 0.28 -1.78 10.55 -2 16 c -0.79 19.26 -2.07 37.85 -1 57 c 1.62 29.05 9 86 9 86"/><path stroke-linejoin="round" stroke-linecap="round" stroke-width="2" stroke="rgb(52, 58, 64)" fill="none" d="M 40 103 c 0.35 -0.07 13.37 -2.18 20 -4 c 10.59 -2.91 21.63 -5.25 31 -10 c 16.29 -8.25 33.08 -21.88 48 -30 c 2.39 -1.3 9 -1 9 -1"/><path stroke-linejoin="round" stroke-linecap="round" stroke-width="2" stroke="rgb(52, 58, 64)" fill="none" d="M 203 76 l 1 1"/><path stroke-linejoin="round" stroke-linecap="round" stroke-width="2" stroke="rgb(52, 58, 64)" fill="none" d="M 158 88 l 19 -3"/><path stroke-linejoin="round" stroke-linecap="round" stroke-width="2" stroke="rgb(52, 58, 64)" fill="none" d="M 205 87 c -0.1 0.09 -5.56 3.97 -6 5 c -0.2 0.47 3 2 3 2"/><path stroke-linejoin="round" stroke-linecap="round" stroke-width="2" stroke="rgb(52, 58, 64)" fill="none" d="M 236 96 l 1 1"/><path stroke-linejoin="round" stroke-linecap="round" stroke-width="2" stroke="rgb(52, 58, 64)" fill="none" d="M 280 118 c 0.32 -0.19 12.22 -6.92 18 -11 c 5.64 -3.98 10.69 -8.31 16 -13 c 15.32 -13.54 28.56 -26.56 44 -40 c 11.07 -9.63 33 -27 33 -27"/><path stroke-linejoin="round" stroke-linecap="round" stroke-width="2" stroke="rgb(52, 58, 64)" fill="none" d="M 400 1 c -0.05 0.25 -1.6 9.37 -3 14 c -4.01 13.29 -9.02 25.42 -13 39 c -9.45 32.21 -16.98 62.6 -26 94 c -0.7 2.45 -3 7 -3 7"/><path stroke-linejoin="round" stroke-linecap="round" stroke-width="2" stroke="rgb(52, 58, 64)" fill="none" d="M 332 87 c 0.33 0.04 12.55 1.63 19 2 c 5.4 0.31 10.58 0.34 16 0 c 10.89 -0.68 21.81 -1.47 32 -3 c 2.71 -0.41 5.42 -2.4 8 -3 c 1.51 -0.35 4.77 -0.46 5 0 c 0.23 0.46 -1.87 3.03 -3 4 c -1.01 0.87 -2.88 1.11 -4 2 c -3.71 2.97 -10.5 8.63 -11 10 c -0.24 0.65 4.74 1.1 7 1 c 4.83 -0.22 11.66 0.57 15 -2 c 14.2 -10.94 29.79 -30.37 46 -45 c 11.64 -10.51 33.4 -28.79 36 -29 c 1.64 -0.13 -6.97 17.78 -11 27 c -5.63 12.87 -13.62 27.98 -17 37 c -0.3 0.8 1.33 2.89 2 3 l 4 -2"/><path stroke-linejoin="round" stroke-linecap="round" stroke-width="2" stroke="rgb(52, 58, 64)" fill="none" d="M 518 38 c 0.05 -0.05 2.33 -3.11 3 -3 c 0.79 0.13 2.8 2.69 3 4 c 0.37 2.38 -0.26 6.12 -1 9 c -1.89 7.33 -4.27 14.66 -7 22 c -2.7 7.26 -8.86 18.04 -9 21 c -0.05 1.04 5.39 0.29 8 0 c 3.32 -0.37 6.65 -1.11 10 -2 c 6.85 -1.83 19.65 -5.9 20 -6 c 0.11 -0.03 -4.21 1.05 -6 2 c -3.06 1.63 -6.98 3.8 -9 6 c -1.18 1.29 -2.15 4.4 -2 6 c 0.13 1.47 1.58 4.09 3 5 c 6.84 4.4 25 13 25 13"/></svg>