<?xml version="1.0" encoding="UTF-8" standalone="no"?><!DOCTYPE svg PUBLIC "-//W3C//DTD SVG 1.1//EN" "http://www.w3.org/Graphics/SVG/1.1/DTD/svg11.dtd"><svg xmlns="http://www.w3.org/2000/svg" version="1.1" width="680" height="137"><path stroke-linejoin="round" stroke-linecap="round" stroke-width="2" stroke="rgb(52, 58, 64)" fill="none" d="M 65 33 c -0.19 -0.35 -6.89 -13.84 -11 -20 c -2.42 -3.63 -5.9 -7.68 -9 -10 c -1.68 -1.26 -4.7 -1.67 -7 -2 c -2.21 -0.32 -4.98 -0.54 -7 0 c -2.58 0.69 -5.63 2.37 -8 4 c -2.82 1.94 -6.03 4.31 -8 7 c -4.06 5.56 -8.97 12.62 -11 19 c -2.33 7.31 -2.78 17.03 -3 25 c -0.1 3.54 1.03 7.39 2 11 c 1.37 5.1 2.8 10.44 5 15 c 2 4.16 5.26 8.8 8 12 c 0.85 0.99 2.96 2 4 2 c 0.84 0 2.27 -1.17 3 -2 c 1.45 -1.66 2.97 -3.86 4 -6 c 2.93 -6.11 5.82 -12.47 8 -19 c 2.51 -7.53 3.72 -15.26 6 -23 c 1.12 -3.81 2.49 -7.3 4 -11 c 1.56 -3.82 3.14 -7.75 5 -11 c 0.65 -1.14 2.4 -3.26 3 -3 c 1.01 0.43 3.47 4.02 4 6 c 0.66 2.47 0.25 5.96 0 9 c -1.44 17.32 -3.53 33.68 -5 51 c -0.23 2.7 -0.55 5.97 0 8 c 0.29 1.07 2.63 3.51 3 3 c 4.06 -5.57 15.74 -26.73 24 -40 c 1.13 -1.82 2.54 -3.54 4 -5 c 1.14 -1.14 3.13 -3.12 4 -3 c 0.87 0.12 2.5 2.62 3 4 c 0.71 1.95 1 4.66 1 7 c 0 10.92 -1.36 30.58 -1 33 c 0.08 0.57 3.58 -3.82 5 -6 c 4.25 -6.5 7.64 -13.68 12 -20 c 2.25 -3.26 5.35 -6.96 8 -9 c 1.12 -0.86 4.18 -1.64 5 -1 c 1.44 1.12 3.2 5.23 4 8 c 2.11 7.28 3.11 15.99 5 23 c 0.29 1.07 1.75 3.36 2 3 c 2.03 -2.92 9.03 -17.3 14 -26 c 1.82 -3.19 4.33 -7.83 6 -9 c 0.69 -0.48 3.75 0.99 4 2 c 1.02 4.07 0.43 11.89 1 18 c 0.45 4.79 1.03 9.87 2 14 c 0.25 1.05 1.29 2.9 2 3 c 1.06 0.15 3.92 -0.92 5 -2 c 2.16 -2.16 4.25 -5.89 6 -9 c 1.23 -2.19 1.63 -5 3 -7 c 2.8 -4.1 6.49 -8.49 10 -12 c 1.62 -1.62 3.99 -2.99 6 -4 c 1.15 -0.57 2.89 -1.14 4 -1 c 1.2 0.15 3.25 1.04 4 2 c 1.27 1.63 2.46 4.63 3 7 c 1.07 4.72 1.61 9.94 2 15 c 0.28 3.68 -0.45 10.55 0 11 c 0.33 0.33 3.49 -4.61 4 -7 c 1.34 -6.24 1.76 -14.18 2 -21 c 0.08 -2.29 -0.45 -6.31 -1 -7 c -0.28 -0.35 -2.82 1.15 -3 2 c -0.6 2.82 -0.72 8.28 0 12 c 1.2 6.18 3.76 13.53 6 19 c 0.48 1.16 1.93 2.11 3 3 c 0.91 0.76 2.62 2.28 3 2 c 0.54 -0.4 0.93 -3.33 1 -5 c 0.26 -6.55 -0.26 -18.59 0 -20 c 0.07 -0.35 2.24 2.55 3 4 c 2.52 4.79 4.17 10.58 7 15 c 2.3 3.59 5.73 7.54 9 10 c 2.94 2.21 7.55 4.6 11 5 l 15 -2"/><path stroke-linejoin="round" stroke-linecap="round" stroke-width="2" stroke="rgb(52, 58, 64)" fill="none" d="M 303 94 c -0.45 -0.23 -18.4 -7.93 -26 -13 c -4.81 -3.2 -9.63 -8.58 -13 -13 c -1.57 -2.06 -2.33 -5.32 -3 -8 c -0.63 -2.53 -1.64 -5.86 -1 -8 c 1.11 -3.69 4.31 -9.31 7 -12 c 1.65 -1.65 5.39 -2.54 8 -3 c 2.75 -0.48 6.18 -0.45 9 0 c 3.27 0.52 7.06 1.53 10 3 c 3.43 1.72 7.53 4.18 10 7 c 4.09 4.68 7.99 11.17 11 17 c 2.21 4.28 4.04 9.35 5 14 c 0.97 4.7 1.71 10.38 1 15 c -1.18 7.68 -3.96 16.71 -7 24 c -1.75 4.21 -4.97 8.79 -8 12 c -2.27 2.41 -5.99 5 -9 6 c -3.36 1.12 -11.83 2.6 -12 1 c -0.43 -4.15 5.63 -19.9 9 -30 c 1.74 -5.21 4.18 -9.78 6 -15 c 3.32 -9.5 6.4 -18.33 9 -28 c 3.54 -13.17 5.46 -26.37 9 -39 c 1.07 -3.81 3.28 -10 5 -11 c 1.15 -0.67 5.68 2.15 7 4 c 3.08 4.31 6.71 11.21 8 17 c 3.17 14.29 4.61 30.34 6 46 c 0.99 11.15 0.24 22.09 1 33 c 0.24 3.37 1.07 9.77 2 10 l 6 -8"/><path stroke-linejoin="round" stroke-linecap="round" stroke-width="2" stroke="rgb(52, 58, 64)" fill="none" d="M 381 23 c 0 -0.12 -0.03 -7.12 0 -7 c 0.09 0.32 2.43 11.83 3 18 c 1.81 19.64 3.14 38.12 4 58 c 0.51 11.63 0.29 23.03 0 34 c -0.04 1.33 -0.98 4.14 -1 4 c -0.12 -1.04 -1.05 -19.81 -2 -30 c -0.41 -4.46 -1 -8.71 -2 -13 c -1.35 -5.78 -2.9 -11.74 -5 -17 c -1.12 -2.8 -3.03 -6.03 -5 -8 c -1.68 -1.68 -4.72 -3.39 -7 -4 c -2.26 -0.6 -5.56 -0.46 -8 0 c -2.6 0.49 -5.75 1.6 -8 3 c -2.79 1.75 -6.34 4.27 -8 7 c -3.56 5.86 -8.03 14.51 -9 21 c -0.82 5.47 1.43 13.41 3 19 c 0.59 2.1 2.33 4.53 4 6 c 3.65 3.22 8.58 6.88 13 9 c 3.45 1.66 8.05 2.41 12 3 c 2.55 0.38 5.74 0.6 8 0 l 7 -4"/><path stroke-linejoin="round" stroke-linecap="round" stroke-width="2" stroke="rgb(52, 58, 64)" fill="none" d="M 446 66 c -0.12 0.05 -4.84 1.82 -7 3 c -1.42 0.77 -2.75 1.87 -4 3 c -6.18 5.62 -12.82 11.14 -18 17 c -2.15 2.44 -3.78 5.89 -5 9 c -1.72 4.4 -3.42 9.57 -4 14 c -0.36 2.75 0.37 6.26 1 9 c 0.31 1.35 1.11 3.7 2 4 c 1.41 0.47 5.41 0.09 7 -1 c 3.02 -2.08 6.46 -6.42 9 -10 c 3.04 -4.29 5.98 -9.18 8 -14 c 2.22 -5.3 4.9 -17.42 5 -17 c 0.17 0.72 -1.76 19.98 -2 30 c -0.1 4.01 0.38 11.01 1 12 c 0.29 0.46 3.17 -2.45 4 -4 c 3.87 -7.22 6.77 -16.8 11 -24 c 2.16 -3.67 6.93 -9.05 9 -10 c 0.87 -0.4 3.57 2.53 4 4 c 1 3.39 1 8.69 1 13 c 0 3.32 -1.57 7.17 -1 10 c 0.63 3.15 3.55 9.13 5 10 c 0.83 0.5 3.57 -2.47 5 -4 c 3.17 -3.39 6.2 -7.11 9 -11 c 3.28 -4.56 5.76 -9.32 9 -14 c 2.92 -4.22 5.95 -8.44 9 -12 c 0.73 -0.85 3.06 -2.25 3 -2 c -0.33 1.38 -5.3 12.94 -7 19 c -0.5 1.8 -0.35 4.13 0 6 c 0.61 3.26 1.49 7.32 3 10 c 1.23 2.18 4.08 5.45 6 6 c 1.86 0.53 6.09 -0.65 8 -2 c 3.12 -2.2 5.82 -6.82 9 -10 c 1.84 -1.84 4.21 -3.12 6 -5 c 4.87 -5.12 13.2 -15.9 14 -16 c 0.6 -0.08 -4.57 10.24 -6 15 c -0.44 1.47 -0.52 3.66 0 5 c 0.97 2.53 3.18 6.36 5 8 c 0.98 0.88 3.6 1.16 5 1 c 1.23 -0.14 3.06 -1.06 4 -2 c 1.8 -1.8 4.11 -4.64 5 -7 c 0.93 -2.49 1.5 -6.39 1 -9 c -0.71 -3.75 -5.51 -10.71 -5 -12 c 0.37 -0.91 6.26 0.84 9 2 c 7.97 3.38 16.63 7.91 24 12 c 1.17 0.65 2.31 1.9 3 3 c 0.87 1.39 1.74 5.36 2 5 c 0.83 -1.14 4.26 -10.48 6 -16 c 2 -6.35 4.22 -12.66 5 -19 c 1.19 -9.68 1.4 -20.11 1 -30 c -0.27 -6.66 -2.31 -18.92 -3 -20 c -0.33 -0.52 -3.39 5.97 -4 9 c -1.3 6.49 -1.58 13.85 -2 21 c -0.26 4.4 -0.25 8.58 0 13 c 0.44 7.85 0.96 15.31 2 23 c 0.64 4.77 1.84 11.84 3 14 c 0.33 0.62 3.43 -0.13 4 -1 c 2.88 -4.43 5.58 -12.92 9 -19 c 2.57 -4.57 5.87 -9.14 9 -13 c 0.99 -1.22 2.75 -2.72 4 -3 c 1.28 -0.28 3.65 0.32 5 1 c 1.7 0.85 3.57 2.47 5 4 c 3.17 3.39 5.91 7.13 9 11 c 9.45 11.81 17.99 22.26 27 34 l 6 9"/></svg>