<?xml version="1.0" encoding="UTF-8" standalone="no"?><!DOCTYPE svg PUBLIC "-//W3C//DTD SVG 1.1//EN" "http://www.w3.org/Graphics/SVG/1.1/DTD/svg11.dtd"><svg xmlns="http://www.w3.org/2000/svg" version="1.1" width="458" height="126"><path stroke-linejoin="round" stroke-linecap="round" stroke-width="2" stroke="rgb(52, 58, 64)" fill="none" d="M 55 60 c 0.02 -0.07 0.96 -2.67 1 -4 c 0.28 -9.35 0.49 -19.5 0 -29 c -0.17 -3.34 -1.85 -10.41 -2 -10 c -0.47 1.3 -3.62 21.28 -6 32 c -1 4.48 -2.95 8.53 -4 13 c -1.65 7.03 -0.93 15.93 -4 21 c -3.66 6.05 -14.9 16.86 -19 17 c -3.12 0.1 -7.71 -10.4 -11 -16 c -3.41 -5.8 -8.85 -17.68 -9 -18 c -0.04 -0.09 1.68 3.75 3 5 c 4.66 4.41 10.51 8.66 16 13 c 0.96 0.76 1.93 1.6 3 2 c 4.05 1.52 13 4 13 4"/><path stroke-linejoin="round" stroke-linecap="round" stroke-width="2" stroke="rgb(52, 58, 64)" fill="none" d="M 76 74 c -0.07 0.14 -3.31 5.42 -4 8 c -0.54 2.02 -0.57 6.14 0 7 c 0.34 0.51 3.12 -0.22 4 -1 c 4.09 -3.61 8.54 -9.54 13 -14 c 1.17 -1.17 3.24 -3.13 4 -3 c 0.68 0.11 1.91 2.72 2 4 c 0.21 2.88 -1.21 7.12 -1 10 c 0.09 1.28 1.23 4.11 2 4 c 2.32 -0.33 8.29 -3.73 12 -6 c 2.16 -1.32 4.24 -3.24 6 -5 c 0.81 -0.81 1.27 -2.76 2 -3 c 0.83 -0.28 4.18 0.93 4 1 c -0.52 0.2 -8.58 0.74 -12 2 c -2.42 0.89 -5.68 3.02 -7 5 c -1.6 2.4 -2.61 6.9 -3 10 c -0.23 1.81 0.29 5.29 1 6 c 0.48 0.48 2.87 -0.39 4 -1 c 2.97 -1.6 6.27 -3.73 9 -6 c 3.21 -2.67 6.94 -5.64 9 -9 c 3.92 -6.39 7.93 -14.59 10 -22 c 2.43 -8.67 3.75 -28.42 4 -28 c 0.3 0.5 -0.08 22.15 -1 33 l -3 14"/><path stroke-linejoin="round" stroke-linecap="round" stroke-width="2" stroke="rgb(52, 58, 64)" fill="none" d="M 138 87 c 0.09 -0.07 3.3 -3.15 5 -4 c 1.35 -0.68 4.4 -1.8 5 -1 c 2.17 2.89 4.48 11.97 7 17 c 0.58 1.16 3 3 3 3"/><path stroke-linejoin="round" stroke-linecap="round" stroke-width="2" stroke="rgb(52, 58, 64)" fill="none" d="M 155 125 c -0.02 -0.07 -0.91 -2.67 -1 -4 c -0.23 -3.22 -0.6 -6.98 0 -10 c 0.65 -3.25 1.85 -7.62 4 -10 c 6.36 -7.04 15.53 -14.07 24 -21 c 10.42 -8.52 31 -24 31 -24"/><path stroke-linejoin="round" stroke-linecap="round" stroke-width="2" stroke="rgb(52, 58, 64)" fill="none" d="M 221 85 c 0.11 -0.19 4.29 -7.13 6 -11 c 4.71 -10.66 7.91 -22.24 13 -32 c 2.63 -5.03 7.38 -10.98 11 -14 c 1.44 -1.2 4.94 -1.27 7 -1 c 2.49 0.33 6.25 1.36 8 3 c 2.95 2.77 6.09 7.79 8 12 c 2.93 6.46 7 21 7 21"/><path stroke-linejoin="round" stroke-linecap="round" stroke-width="2" stroke="rgb(52, 58, 64)" fill="none" d="M 240 85 c 0.05 -0.19 1.6 -7.58 3 -11 c 1.54 -3.76 3.61 -7.81 6 -11 c 2.43 -3.24 6.38 -9.1 9 -9 c 4.24 0.16 12.82 6.16 18 10 c 3.39 2.51 5.72 7.21 9 10 c 3.18 2.7 7.24 5.75 11 7 c 5.55 1.85 13.72 3.88 19 3 c 5.28 -0.88 12.19 -5.43 17 -9 c 3.72 -2.76 6.38 -7.51 10 -11 c 5.86 -5.65 11.64 -10.81 18 -16 c 6.6 -5.38 12.98 -10.21 20 -15 c 6.94 -4.74 13.66 -9.65 21 -13 c 11.38 -5.19 23.54 -8.77 36 -13 c 6.8 -2.31 20 -6 20 -6"/></svg>