<?xml version="1.0" encoding="UTF-8" standalone="no"?><!DOCTYPE svg PUBLIC "-//W3C//DTD SVG 1.1//EN" "http://www.w3.org/Graphics/SVG/1.1/DTD/svg11.dtd"><svg xmlns="http://www.w3.org/2000/svg" version="1.1" width="696" height="103"><path stroke-linejoin="round" stroke-linecap="round" stroke-width="2" stroke="rgb(52, 58, 64)" fill="none" d="M 34 22 c 0.37 -0.12 14.23 -4.29 21 -7 c 3.15 -1.26 5.84 -3.57 9 -5 c 7.3 -3.29 20.35 -9.59 22 -9 c 1.12 0.4 -5.58 9.07 -8 14 c -7.12 14.5 -12.96 29.19 -20 43 c -1.48 2.91 -3.75 5.75 -6 8 c -2.25 2.25 -5.16 4.32 -8 6 c -4.45 2.63 -9.38 5.81 -14 7 c -5.03 1.3 -11.8 1.9 -17 1 c -9.27 -1.61 -29 -9 -29 -9"/><path stroke-linejoin="round" stroke-linecap="round" stroke-width="2" stroke="rgb(52, 58, 64)" fill="none" d="M 102 66 c 0.39 -0.19 21.62 -10.81 22 -11 c 0.07 -0.03 -4 1.54 -4 2 c 0 0.46 2.69 1.74 4 2 c 1.76 0.35 4.4 0.48 6 0 c 1.33 -0.4 2.57 -2.23 4 -3 c 2.82 -1.52 6.29 -3.42 9 -4 c 1.4 -0.3 3.65 0.32 5 1 c 1.7 0.85 3.19 2.91 5 4 c 4.8 2.88 10.35 6.7 15 8 c 2.75 0.77 6.97 -1.32 10 -1 c 2.86 0.3 6.05 2.6 9 3 c 4.05 0.55 8.81 -0.25 13 0 c 1.33 0.08 3.54 0.31 4 1 c 0.56 0.84 -0.32 3.54 0 5 c 0.29 1.3 1.59 2.64 2 4 c 0.55 1.85 1.47 4.47 1 6 c -0.66 2.16 -3.61 4.57 -5 7 c -1.23 2.16 -1.7 5.05 -3 7 l -5 5"/><path stroke-linejoin="round" stroke-linecap="round" stroke-width="2" stroke="rgb(52, 58, 64)" fill="none" d="M 263 44 c -0.07 0.19 -2.43 7.38 -4 11 c -1.8 4.15 -6.1 11.41 -6 12 c 0.07 0.4 4.81 -3.81 7 -6 c 3.53 -3.53 6.62 -8.25 10 -11 c 1.44 -1.17 4.05 -1.64 6 -2 c 1.55 -0.28 3.9 -0.55 5 0 c 1.1 0.55 1.9 3.45 3 4 c 1.1 0.55 3.93 -0.68 5 0 c 1.98 1.26 3.86 5.05 6 7 l 5 3"/><path stroke-linejoin="round" stroke-linecap="round" stroke-width="2" stroke="rgb(52, 58, 64)" fill="none" d="M 334 58 c -0.04 0.05 -2.4 2.89 -2 3 c 1.91 0.51 11.16 0.75 17 1 c 2.06 0.09 4.32 0.52 6 0 c 2.25 -0.69 4.91 -2.48 7 -4 c 1.47 -1.07 2.9 -2.53 4 -4 c 1.84 -2.45 3.5 -5.17 5 -8 c 4.27 -8.04 11.53 -23.24 12 -24 c 0.11 -0.17 -1 4.08 -1 6 c 0 2.23 0.35 4.88 1 7 c 0.62 2.01 1.56 4.77 3 6 c 2.69 2.3 7.26 4.24 11 6 c 1.89 0.89 4.19 1.02 6 2 c 6.69 3.6 13.13 8.66 20 12 c 5.31 2.58 17 6 17 6"/><path stroke-linejoin="round" stroke-linecap="round" stroke-width="2" stroke="rgb(52, 58, 64)" fill="none" d="M 343 32 c 2.29 -0.09 85.84 -4.19 131 -5 c 32.04 -0.57 60.81 1.18 93 1 c 28.39 -0.16 53.72 -0.98 82 -2 c 10.02 -0.36 29 -2 29 -2"/></svg>