<?xml version="1.0" encoding="UTF-8" standalone="no"?><!DOCTYPE svg PUBLIC "-//W3C//DTD SVG 1.1//EN" "http://www.w3.org/Graphics/SVG/1.1/DTD/svg11.dtd"><svg xmlns="http://www.w3.org/2000/svg" version="1.1" width="535" height="129"><path stroke-linejoin="round" stroke-linecap="round" stroke-width="2" stroke="rgb(52, 58, 64)" fill="none" d="M 27 86 l 1 1"/><path stroke-linejoin="round" stroke-linecap="round" stroke-width="2" stroke="rgb(52, 58, 64)" fill="none" d="M 29 125 l 1 1"/><path stroke-linejoin="round" stroke-linecap="round" stroke-width="2" stroke="rgb(52, 58, 64)" fill="none" d="M 43 14 c -0.03 0.07 -1.91 2.67 -2 4 c -0.52 8.04 0.55 17.97 0 27 c -0.45 7.42 -2.42 14.45 -3 22 c -1.47 19.06 -3 56 -3 56"/><path stroke-linejoin="round" stroke-linecap="round" stroke-width="2" stroke="rgb(52, 58, 64)" fill="none" d="M 1 39 l 1 1"/><path stroke-linejoin="round" stroke-linecap="round" stroke-width="2" stroke="rgb(52, 58, 64)" fill="none" d="M 39 9 c 0.24 -0.07 9.18 -2.93 14 -4 c 7.4 -1.64 14.84 -3.39 22 -4 c 4.18 -0.36 9.11 0.07 13 1 c 2.67 0.64 8 4 8 4"/><path stroke-linejoin="round" stroke-linecap="round" stroke-width="2" stroke="rgb(52, 58, 64)" fill="none" d="M 86 45 c -0.49 0.16 -18.99 5.65 -28 9 c -2.47 0.92 -4.61 2.97 -7 4 c -2.16 0.93 -4.91 1.04 -7 2 c -2.07 0.95 -6 4 -6 4"/><path stroke-linejoin="round" stroke-linecap="round" stroke-width="2" stroke="rgb(52, 58, 64)" fill="none" d="M 26 71 l 6 1"/><path stroke-linejoin="round" stroke-linecap="round" stroke-width="2" stroke="rgb(52, 58, 64)" fill="none" d="M 74 128 l 1 1"/><path stroke-linejoin="round" stroke-linecap="round" stroke-width="2" stroke="rgb(52, 58, 64)" fill="none" d="M 65 5 c -0.14 0.05 -8.34 2.97 -8 3 c 1.59 0.15 27.5 -1.29 40 0 c 5.93 0.61 13.38 3.39 18 6 c 2.1 1.18 4.13 4.74 5 7 c 0.61 1.57 0.52 4.32 0 6 c -0.69 2.25 -2.42 4.89 -4 7 c -2.36 3.15 -5.08 6.41 -8 9 c -2.96 2.63 -6.48 4.89 -10 7 c -4.91 2.94 -10.27 5.07 -15 8 c -2.17 1.35 -3.98 3.9 -6 5 c -1.32 0.72 -3.44 0.41 -5 1 c -6.32 2.37 -17.81 6.01 -19 8 c -0.71 1.18 7.05 4.47 10 7 c 1.55 1.33 2.47 3.53 4 5 c 6.78 6.51 13.66 12.77 21 19 c 3.89 3.3 7.82 6.07 12 9 c 2.63 1.84 5.22 3.86 8 5 l 14 4"/><path stroke-linejoin="round" stroke-linecap="round" stroke-width="2" stroke="rgb(52, 58, 64)" fill="none" d="M 155 87 l 1 1"/><path stroke-linejoin="round" stroke-linecap="round" stroke-width="2" stroke="rgb(52, 58, 64)" fill="none" d="M 147 111 c 0.05 0.04 1.96 1.65 3 2 c 1.75 0.58 4.19 1.23 6 1 c 3.1 -0.39 10 -3 10 -3"/><path stroke-linejoin="round" stroke-linecap="round" stroke-width="2" stroke="rgb(52, 58, 64)" fill="none" d="M 170 94 c -0.07 -0.05 -2.57 -2.39 -4 -3 c -2.98 -1.28 -6.72 -2.53 -10 -3 c -3.46 -0.49 -11 0 -11 0"/><path stroke-linejoin="round" stroke-linecap="round" stroke-width="2" stroke="rgb(52, 58, 64)" fill="none" d="M 175 89 c -0.1 0 -4.37 -0.58 -6 0 c -2.56 0.91 -5.92 3.11 -8 5 c -1.28 1.17 -3 4.71 -3 5 c 0 0.18 2.18 -1.18 3 -2 c 3.39 -3.39 7.89 -7.62 10 -11 c 0.71 -1.14 0.34 -3.62 0 -5 c -0.25 -1 -2.26 -2.94 -2 -3 c 0.45 -0.11 4.14 1.84 6 2 c 1.79 0.15 4.74 0.1 6 -1 c 5.29 -4.6 11.66 -12.28 17 -19 c 5.12 -6.44 9.6 -13.15 14 -20 c 1.61 -2.51 3.14 -5.28 4 -8 c 1.07 -3.39 2.19 -8.54 2 -11 c -0.06 -0.79 -2.84 -2.46 -3 -2 c -1.54 4.35 -5.85 21.82 -8 33 c -1.21 6.29 -1.65 12.55 -2 19 c -0.33 6.08 -0.56 12.18 0 18 c 0.42 4.31 1.2 9.72 3 13 c 1.44 2.61 6.02 6.1 8 7 c 0.67 0.3 2.6 -1.13 3 -2 c 1.01 -2.22 1.05 -7.73 2 -9 c 0.43 -0.57 2.75 1 4 1 c 1.85 0 4.59 -0.3 6 -1 c 0.83 -0.42 1.22 -2.22 2 -3 c 0.78 -0.78 2.72 -2.28 3 -2 c 0.39 0.39 -0.55 3.9 0 5 c 0.55 1.1 2.84 1.84 4 3 c 2.79 2.79 6.48 6.14 8 9 l 0 6"/><path stroke-linejoin="round" stroke-linecap="round" stroke-width="2" stroke="rgb(52, 58, 64)" fill="none" d="M 273 83 c 0.05 -0.49 1.53 -18.94 3 -28 c 0.5 -3.05 3.03 -9.16 3 -9 c -0.04 0.27 -3.38 9.92 -4 15 c -2.03 16.74 -2.13 44.24 -4 51 c -0.36 1.3 -6.6 -2.34 -9 -4 c -1.56 -1.08 -2.45 -3.66 -4 -5 c -3.29 -2.85 -7.51 -5.12 -11 -8 c -2.18 -1.79 -5.87 -4.52 -6 -6 c -0.11 -1.23 3.07 -4.04 5 -5 c 7.34 -3.67 16.61 -7.58 25 -10 c 6.3 -1.82 13.28 -2.41 20 -3 c 4.65 -0.41 14 0 14 0"/><path stroke-linejoin="round" stroke-linecap="round" stroke-width="2" stroke="rgb(52, 58, 64)" fill="none" d="M 324 42 c -0.07 0.14 -3.04 5.25 -4 8 c -1.33 3.8 -2.42 7.91 -3 12 c -1.42 9.96 -2.48 20.21 -3 30 c -0.14 2.62 0.13 6.09 1 8 c 0.54 1.19 2.63 2.32 4 3 c 1.13 0.56 3.03 1.32 4 1 c 1.5 -0.5 3.51 -2.51 5 -4 c 2.15 -2.15 4.08 -4.5 6 -7 c 4.92 -6.39 12.04 -18.51 14 -19 c 1.26 -0.31 0.87 10.71 2 15 c 0.37 1.42 2.2 4.22 3 4 c 1.71 -0.47 5.98 -4.31 8 -7 c 4.7 -6.26 9.66 -13.72 13 -21 c 3.84 -8.39 6.71 -18.08 9 -27 l 1 -12"/><path stroke-linejoin="round" stroke-linecap="round" stroke-width="2" stroke="rgb(52, 58, 64)" fill="none" d="M 384 108 c 0.03 -0.09 2 -3.7 2 -5 c 0 -0.87 -2 -3 -2 -3"/><path stroke-linejoin="round" stroke-linecap="round" stroke-width="2" stroke="rgb(52, 58, 64)" fill="none" d="M 389 106 c 0.03 -0.07 1.09 -2.93 2 -4 c 2.89 -3.37 6.42 -6.89 10 -10 c 4.15 -3.61 8.52 -7.01 13 -10 c 2.45 -1.63 5.59 -3.44 8 -4 c 1.37 -0.32 3.94 0.18 5 1 c 1.49 1.16 3.21 6.11 4 6 c 0.83 -0.12 2.83 -5.01 3 -7 c 0.12 -1.41 -1.15 -4.43 -2 -5 c -0.65 -0.43 -2.91 0.37 -4 1 l -8 6"/><path stroke-linejoin="round" stroke-linecap="round" stroke-width="2" stroke="rgb(52, 58, 64)" fill="none" d="M 432 100 c 0.02 -0.07 0.35 -2.9 1 -4 c 2.48 -4.22 5.82 -10.53 9 -13 c 1.82 -1.42 6.97 -1.37 9 -1 c 0.81 0.15 1.25 2.92 2 3 c 1.52 0.17 5.33 -0.73 7 -2 c 3.4 -2.6 7.66 -9.38 10 -11 c 0.57 -0.39 2.3 1.15 3 2 c 2.1 2.56 3.87 6.66 6 9 c 0.88 0.97 2.74 1.89 4 2 c 1.99 0.18 4.95 -0.27 7 -1 c 2.34 -0.84 4.61 -3.04 7 -4 c 2.45 -0.98 6.9 -1.06 8 -2 c 0.55 -0.47 -0.96 -4.11 -1 -4 c -0.06 0.18 -0.75 5.17 0 7 c 1.31 3.18 4.32 7.17 7 10 c 3.12 3.3 7.13 6.47 11 9 l 12 6"/></svg>