<?xml version="1.0" encoding="UTF-8" standalone="no"?><!DOCTYPE svg PUBLIC "-//W3C//DTD SVG 1.1//EN" "http://www.w3.org/Graphics/SVG/1.1/DTD/svg11.dtd"><svg xmlns="http://www.w3.org/2000/svg" version="1.1" width="403" height="78"><path stroke-linejoin="round" stroke-linecap="round" stroke-width="2" stroke="rgb(52, 58, 64)" fill="none" d="M 175 1 l 1 1"/><path stroke-linejoin="round" stroke-linecap="round" stroke-width="2" stroke="rgb(52, 58, 64)" fill="none" d="M 1 27 c 0.44 -0.02 16.76 -0.06 25 -1 c 6.39 -0.73 14.05 -3.78 19 -4 c 1.27 -0.06 2.92 1.82 4 3 c 2.47 2.69 4.83 5.8 7 9 c 4.28 6.31 7.82 13.34 12 19 c 1.19 1.61 3.31 3.95 5 4 c 7.67 0.23 19.71 -0.7 29 -3 c 22.67 -5.61 44.88 -13.07 68 -21 c 24.98 -8.56 58.44 -27.96 72 -27 c 6.26 0.44 8.38 21.86 13 33 c 1.17 2.81 2.5 5.86 4 8 c 0.6 0.86 1.94 1.73 3 2 c 5.09 1.27 11.24 2.41 17 3 c 7.35 0.75 14.77 0.04 22 1 c 7.73 1.03 15.86 2.28 23 5 c 13.43 5.11 27.07 15.85 40 19 c 11.1 2.7 38 0 38 0"/></svg>