<?xml version="1.0" encoding="UTF-8" standalone="no"?><!DOCTYPE svg PUBLIC "-//W3C//DTD SVG 1.1//EN" "http://www.w3.org/Graphics/SVG/1.1/DTD/svg11.dtd"><svg xmlns="http://www.w3.org/2000/svg" version="1.1" width="355" height="111"><path stroke-linejoin="round" stroke-linecap="round" stroke-width="2" stroke="rgb(52, 58, 64)" fill="none" d="M 99 66 c 1.37 -0.23 51.46 -7.77 78 -13 c 18.64 -3.67 36.68 -6.79 54 -13 c 30.87 -11.07 62.99 -27.74 91 -39 c 1.7 -0.68 6.11 0 6 0 c -0.19 0 -7.35 -0.3 -11 0 c -4.36 0.36 -8.52 1.21 -13 2 c -7.28 1.29 -13.86 2.36 -21 4 c -9.32 2.14 -17.75 4.32 -27 7 c -16.99 4.92 -32.62 9.38 -49 15 c -7.3 2.5 -14.05 5.61 -21 9 c -6.27 3.05 -12.23 6.28 -18 10 c -4.6 2.96 -9.02 6.27 -13 10 c -6.7 6.28 -12.29 13.5 -19 20 c -4.48 4.35 -9.07 8.35 -14 12 c -4.08 3.02 -8.47 5.73 -13 8 c -5.46 2.73 -11.23 5.41 -17 7 c -7.33 2.02 -15.24 3.4 -23 4 c -13.97 1.07 -28.39 1.67 -42 1 c -6.29 -0.31 -13.31 -2.18 -19 -4 c -2.11 -0.68 -5.01 -2.44 -6 -4 c -0.97 -1.53 -1 -4.83 -1 -7 c 0 -1.27 0.24 -3.24 1 -4 c 1.48 -1.48 4.55 -3.04 7 -4 c 5.09 -1.99 10.61 -3.04 16 -5 c 9.67 -3.52 18.47 -8.21 28 -11 c 9.7 -2.84 19.75 -4.51 30 -6 c 10.76 -1.56 20.98 -2.38 32 -3 c 19.56 -1.1 37.33 -1.86 57 -2 c 30.35 -0.21 58.06 1.26 88 1 c 8.87 -0.08 17.17 -0.88 26 -2 c 15.42 -1.95 29.62 -4.31 45 -7 c 6.23 -1.09 12.08 -2.97 18 -4 l 5 0"/></svg>