<?xml version="1.0" encoding="UTF-8" standalone="no"?><!DOCTYPE svg PUBLIC "-//W3C//DTD SVG 1.1//EN" "http://www.w3.org/Graphics/SVG/1.1/DTD/svg11.dtd"><svg xmlns="http://www.w3.org/2000/svg" version="1.1" width="543" height="101"><path stroke-linejoin="round" stroke-linecap="round" stroke-width="2" stroke="rgb(52, 58, 64)" fill="none" d="M 261 1 l 1 1"/><path stroke-linejoin="round" stroke-linecap="round" stroke-width="2" stroke="rgb(52, 58, 64)" fill="none" d="M 105 29 l 1 1"/><path stroke-linejoin="round" stroke-linecap="round" stroke-width="2" stroke="rgb(52, 58, 64)" fill="none" d="M 84 20 l 1 1"/><path stroke-linejoin="round" stroke-linecap="round" stroke-width="2" stroke="rgb(52, 58, 64)" fill="none" d="M 56 53 l 1 1"/><path stroke-linejoin="round" stroke-linecap="round" stroke-width="2" stroke="rgb(52, 58, 64)" fill="none" d="M 38 39 c 0.05 0.65 1.71 24.3 3 37 c 0.77 7.6 3 22 3 22"/><path stroke-linejoin="round" stroke-linecap="round" stroke-width="2" stroke="rgb(52, 58, 64)" fill="none" d="M 1 62 c 0.07 -0.14 2.13 -5.97 4 -8 c 5.63 -6.1 12.89 -14 20 -18 c 7.77 -4.37 18.95 -7.66 28 -9 c 8.01 -1.19 17.68 0.08 26 1 c 3.34 0.37 6.88 1.75 10 3 c 1.74 0.7 3.78 1.78 5 3 c 1.22 1.22 2.85 3.62 3 5 c 0.12 1.06 -1.07 2.92 -2 4 c -9.01 10.46 -18.91 21.67 -29 32 c -3.65 3.74 -7.75 7.01 -12 10 c -4.76 3.35 -15.25 9.17 -15 9 c 0.36 -0.24 13.76 -9.07 21 -13 c 4.46 -2.42 9.35 -4.37 14 -6 c 1.86 -0.65 4.09 -1 6 -1 c 1.91 0 4.71 0.1 6 1 c 1.53 1.07 2.5 4.32 4 6 l 4 3"/><path stroke-linejoin="round" stroke-linecap="round" stroke-width="2" stroke="rgb(52, 58, 64)" fill="none" d="M 191 44 c -0.52 0.1 -20.11 4.3 -30 6 c -1.62 0.28 -3.62 0.34 -5 0 c -1 -0.25 -3 -1.39 -3 -2 c 0 -0.84 1.8 -3.16 3 -4 c 1.82 -1.27 4.6 -2.2 7 -3 c 2.6 -0.87 5.35 -1.72 8 -2 c 3.53 -0.37 7.29 -0.19 11 0 c 3.05 0.15 6.11 0.36 9 1 c 3.02 0.67 6.46 1.57 9 3 c 2.47 1.39 5.27 3.89 7 6 c 1.01 1.24 1.77 3.36 2 5 c 0.39 2.74 0.57 6.29 0 9 c -0.68 3.24 -2.35 6.81 -4 10 c -3.02 5.83 -6.3 12.47 -10 17 c -1.77 2.16 -5.2 3.83 -8 5 c -4.97 2.07 -11.15 4.08 -16 5 c -1.47 0.28 -3.52 -0.41 -5 -1 c -1.69 -0.68 -4.52 -1.81 -5 -3 c -0.58 -1.44 -0.24 -5.76 1 -7 c 2.83 -2.83 9.17 -5.84 14 -8 c 4.73 -2.12 10.15 -4.46 15 -5 c 6.45 -0.72 14.87 -0.53 21 1 c 4.96 1.24 10.27 5.07 15 8 l 6 5"/><path stroke-linejoin="round" stroke-linecap="round" stroke-width="2" stroke="rgb(52, 58, 64)" fill="none" d="M 262 52 c -0.05 0.14 -3 5.69 -3 8 c 0 2.31 1.47 6.61 3 8 c 1.48 1.34 5.23 1.42 8 2 c 3.75 0.79 7.39 1.87 11 2 c 5.5 0.2 11.3 -0.26 17 -1 c 9.85 -1.28 19.72 -4 29 -5 c 2.54 -0.27 5.56 0.39 8 1 c 1.35 0.34 3.6 1.2 4 2 c 0.37 0.74 -0.14 3.26 -1 4 c -7.55 6.55 -29.64 22 -29 22 c 0.81 0 27.21 -14.16 41 -22 c 6 -3.41 11.35 -7.02 17 -11 c 5.97 -4.21 11.79 -8.57 17 -13 c 1.22 -1.03 3 -3.91 3 -4 c 0 -0.07 -1.93 2.39 -3 3 c -1.04 0.59 -3.26 0.26 -4 1 c -1.2 1.2 -3 4.4 -3 6 c 0 1.39 1.59 4.23 3 5 c 4.88 2.66 12.59 5.72 19 7 c 11.47 2.29 23.81 2.94 36 4 l 10 0"/><path stroke-linejoin="round" stroke-linecap="round" stroke-width="2" stroke="rgb(52, 58, 64)" fill="none" d="M 267 62 c 0.09 -0.07 3.21 -2.88 5 -4 c 3.51 -2.19 7.15 -4.4 11 -6 c 8.16 -3.4 16.37 -6.45 25 -9 c 12.06 -3.56 23.49 -6.15 36 -9 c 14.81 -3.37 28.23 -6.51 43 -9 c 13.55 -2.29 26.28 -3.95 40 -5 c 22.14 -1.69 42.43 -2.21 65 -3 c 17.35 -0.6 50 -1 50 -1"/></svg>