<?xml version="1.0" encoding="UTF-8" standalone="no"?><!DOCTYPE svg PUBLIC "-//W3C//DTD SVG 1.1//EN" "http://www.w3.org/Graphics/SVG/1.1/DTD/svg11.dtd"><svg xmlns="http://www.w3.org/2000/svg" version="1.1" width="614" height="112"><path stroke-linejoin="round" stroke-linecap="round" stroke-width="2" stroke="rgb(52, 58, 64)" fill="none" d="M 69 29 c 0 0.21 0.55 8.32 0 12 c -0.39 2.62 -1.84 5.35 -3 8 c -1.21 2.77 -2.34 5.62 -4 8 c -2.9 4.15 -6.38 8.92 -10 12 c -2.59 2.2 -6.57 3.63 -10 5 c -3.21 1.28 -6.63 2.29 -10 3 c -2.92 0.62 -6.17 1.16 -9 1 c -2.88 -0.16 -6.42 -0.87 -9 -2 c -2.41 -1.05 -4.96 -3.13 -7 -5 c -1.85 -1.7 -4.06 -3.95 -5 -6 c -0.85 -1.85 -1 -4.75 -1 -7 c 0 -2.25 0.21 -4.96 1 -7 c 1.41 -3.62 3.43 -8.29 6 -11 c 3.25 -3.42 8.41 -7.03 13 -9 c 8.82 -3.78 19.42 -7.19 29 -9 c 7.58 -1.43 16.24 -1.23 24 -1 c 3.3 0.1 6.68 1.13 10 2 c 3.08 0.81 6.25 1.71 9 3 c 2.09 0.98 4.31 2.48 6 4 c 1.5 1.35 3.35 3.37 4 5 c 0.51 1.28 0.28 3.45 0 5 c -0.36 1.95 -0.86 4.55 -2 6 c -2.17 2.76 -5.72 6.3 -9 8 c -5.77 2.98 -13.59 5.34 -20 7 c -2.12 0.55 -4.95 0.37 -7 0 c -1.31 -0.24 -4.14 -1.36 -4 -2 c 0.3 -1.33 3.84 -5.2 6 -7 c 1.57 -1.31 3.99 -2.63 6 -3 c 4.82 -0.88 11.15 -1.54 16 -1 c 3.54 0.39 7.65 2.33 11 4 c 2.46 1.23 4.8 3.13 7 5 c 4.53 3.85 9.6 7.63 13 12 c 3.26 4.2 6 10.1 8 15 c 0.83 2.04 1 4.72 1 7 l -1 9"/><path stroke-linejoin="round" stroke-linecap="round" stroke-width="2" stroke="rgb(52, 58, 64)" fill="none" d="M 106 80 c 0.09 0.02 3.39 1 5 1 c 2.86 0 6.16 -0.33 9 -1 c 2.68 -0.63 5.63 -1.63 8 -3 c 3.77 -2.18 7.7 -4.99 11 -8 c 4.29 -3.91 8.76 -8.39 12 -13 c 2.87 -4.08 5.16 -9.4 7 -14 c 0.72 -1.79 1 -4.15 1 -6 c 0 -1.25 -0.44 -4 -1 -4 c -0.99 0 -4.84 2.51 -6 4 c -0.82 1.06 -0.75 3.27 -1 5 c -0.78 5.46 -2 10.76 -2 16 c 0 6.53 0.81 14.07 2 20 c 0.34 1.72 1.82 3.65 3 5 c 1.01 1.15 2.63 2.32 4 3 c 1.13 0.56 2.82 1.12 4 1 c 1.81 -0.18 4.19 -1.09 6 -2 c 2.07 -1.03 4.3 -2.44 6 -4 c 2.17 -1.99 4.24 -4.53 6 -7 c 1.54 -2.16 2.9 -4.55 4 -7 c 1.9 -4.23 3.61 -8.5 5 -13 c 2.68 -8.71 6.53 -26 7 -26 c 0.46 0 -2.27 17.08 -3 26 c -0.64 7.85 -1 15.25 -1 23 c 0 4.39 0.32 8.93 1 13 c 0.28 1.68 1.02 4.16 2 5 c 0.93 0.79 3.81 1.3 5 1 c 0.99 -0.25 2.39 -1.89 3 -3 c 0.92 -1.65 1.11 -4.11 2 -6 c 1.76 -3.74 4.51 -7.38 6 -11 c 0.72 -1.76 0.42 -4.25 1 -6 c 0.35 -1.04 1.84 -3.27 2 -3 c 0.44 0.77 0.8 7.25 2 10 c 0.92 2.11 3.23 4.42 5 6 c 1.02 0.9 2.79 2 4 2 c 2.24 0 5.7 -0.93 8 -2 c 2.4 -1.12 5.2 -2.99 7 -5 c 3.59 -4.02 6.24 -10.07 10 -14 c 3.27 -3.42 9.11 -7.65 12 -9 c 0.7 -0.32 3 2.08 3 2 c 0 -0.09 -2.04 -2.73 -3 -3 c -0.93 -0.27 -2.85 0.43 -4 1 c -2.01 1.01 -4.34 2.55 -6 4 c -0.83 0.73 -1.92 2.02 -2 3 c -0.2 2.46 0 6.57 1 9 c 1.11 2.69 3.89 5.89 6 8 c 0.94 0.94 2.79 2 4 2 c 2.24 0 6.47 -0.36 8 -2 c 6.66 -7.12 14.02 -20.07 21 -29 c 0.97 -1.25 2.62 -2.5 4 -3 c 1.95 -0.71 4.77 -1 7 -1 c 1.92 0 5.89 0.44 6 1 c 0.12 0.59 -3.23 2.97 -5 4 c -2.1 1.23 -5.18 1.73 -7 3 c -1.2 0.84 -2.36 2.59 -3 4 c -0.93 2.05 -2.25 5.03 -2 7 c 0.33 2.66 2.4 6.6 4 9 c 0.81 1.22 2.6 2.22 4 3 c 1.51 0.84 3.47 1.85 5 2 c 1.45 0.14 3.46 -0.44 5 -1 c 2.02 -0.73 4.25 -1.69 6 -3 c 7.4 -5.55 15 -11.49 22 -18 c 7.49 -6.97 16.05 -18.04 21 -22 c 0.73 -0.58 3.5 1.12 4 2 c 0.56 0.98 0.72 4.95 0 5 c -2.09 0.15 -9.67 -3.35 -14 -4 c -1.81 -0.27 -4.81 0.05 -6 1 c -1.58 1.27 -3.51 4.7 -4 7 c -0.72 3.43 -0.39 8.15 0 12 c 0.26 2.65 1.15 5.45 2 8 c 0.46 1.38 1.16 3 2 4 c 0.67 0.81 2.24 2.11 3 2 c 1.05 -0.15 2.96 -1.83 4 -3 c 1.5 -1.68 2.75 -3.92 4 -6 c 0.77 -1.29 1.74 -2.69 2 -4 c 0.35 -1.76 -0.37 -5.63 0 -6 c 0.26 -0.26 2.3 1.85 3 3 c 2.81 4.6 5.12 10.44 8 15 c 0.96 1.52 2.53 3.57 4 4 c 3.39 1 9.37 2.04 13 1 l 22 -11"/><path stroke-linejoin="round" stroke-linecap="round" stroke-width="2" stroke="rgb(52, 58, 64)" fill="none" d="M 442 3 c 0.04 0.16 1.84 6 2 9 c 0.5 9.43 -0.4 19.18 0 29 c 0.28 6.81 0.84 13.75 2 20 c 0.44 2.37 1.67 5.33 3 7 c 1.02 1.28 5 3 5 3"/><path stroke-linejoin="round" stroke-linecap="round" stroke-width="2" stroke="rgb(52, 58, 64)" fill="none" d="M 511 1 c -0.21 0.42 -7.61 16.37 -12 24 c -1.87 3.24 -4.4 6.26 -7 9 c -3.71 3.91 -7.85 7.88 -12 11 c -2.28 1.71 -5.26 3.17 -8 4 c -4.69 1.43 -10.7 3.18 -15 3 c -2.77 -0.12 -6.78 -2.33 -9 -4 c -1.31 -0.99 -2.84 -3.7 -3 -5 c -0.1 -0.8 1.21 -2.82 2 -3 c 1.55 -0.34 4.78 0.45 7 1 c 1.69 0.42 3.34 1.22 5 2 c 3.45 1.61 6.96 2.92 10 5 c 8.53 5.85 17.14 12.37 25 19 c 2.66 2.24 4.89 5.1 7 8 c 8.7 11.96 25 36 25 36"/><path stroke-linejoin="round" stroke-linecap="round" stroke-width="2" stroke="rgb(52, 58, 64)" fill="none" d="M 537 59 c -0.07 -0.03 -2.99 -1.13 -4 -2 c -1.13 -0.97 -2.24 -2.55 -3 -4 c -2.52 -4.79 -4.28 -10.29 -7 -15 c -2.23 -3.87 -5.73 -9.43 -8 -11 c -0.9 -0.62 -3.61 1.13 -5 2 c -1.1 0.69 -2.43 1.86 -3 3 c -1.58 3.15 -3.38 7.41 -4 11 c -0.64 3.68 -0.23 8.07 0 12 c 0.1 1.67 0.45 3.54 1 5 c 0.39 1.03 1.17 2.58 2 3 c 1.41 0.7 4.81 1.73 6 1 c 2.24 -1.38 5.47 -5.93 7 -9 c 1.24 -2.48 1.26 -9.37 2 -9 c 1.45 0.72 6.47 12.48 10 15 c 2.15 1.54 7.77 0.57 11 0 c 1.97 -0.35 4.31 -1.74 6 -3 c 2.13 -1.6 4.34 -3.85 6 -6 c 1.57 -2.05 2.7 -4.55 4 -7 c 1.8 -3.4 3.89 -6.51 5 -10 c 3.49 -10.97 8.76 -32.31 9 -34 c 0.05 -0.38 -4.22 3.85 -5 6 c -1.63 4.49 -2.48 10.66 -3 16 c -0.48 4.92 -0.45 10.31 0 15 c 0.19 1.98 1.11 4.22 2 6 c 0.7 1.4 1.82 3.08 3 4 c 1.58 1.23 4.07 2.8 6 3 c 3.76 0.4 9.2 0.04 13 -1 c 3 -0.82 6.3 -3.13 9 -5 c 1.48 -1.03 3.25 -2.51 4 -4 c 1.38 -2.75 3 -7.02 3 -10 c 0 -2.98 -1.85 -8.52 -3 -10 c -0.46 -0.59 -3.08 0.34 -4 1 c -1.11 0.8 -2.28 2.57 -3 4 c -1.54 3.09 -3.33 6.67 -4 10 c -0.93 4.64 -1.21 10.32 -1 15 c 0.1 2.27 0.98 4.97 2 7 c 1.2 2.4 2.92 5.49 5 7 l 17 9"/></svg>