<?xml version="1.0" encoding="UTF-8" standalone="no"?><!DOCTYPE svg PUBLIC "-//W3C//DTD SVG 1.1//EN" "http://www.w3.org/Graphics/SVG/1.1/DTD/svg11.dtd"><svg xmlns="http://www.w3.org/2000/svg" version="1.1" width="575" height="134"><path stroke-linejoin="round" stroke-linecap="round" stroke-width="2" stroke="rgb(52, 58, 64)" fill="none" d="M 10 34 l 1 1"/><path stroke-linejoin="round" stroke-linecap="round" stroke-width="2" stroke="rgb(52, 58, 64)" fill="none" d="M 129 24 l 1 1"/><path stroke-linejoin="round" stroke-linecap="round" stroke-width="2" stroke="rgb(52, 58, 64)" fill="none" d="M 1 15 c 0.03 0.07 1.04 3.14 2 4 c 2.03 1.82 5.28 4 8 5 c 3.23 1.19 7.58 2.29 11 2 c 7.5 -0.64 16.87 -2.33 24 -5 c 5.49 -2.06 12.87 -8.78 16 -10 c 0.6 -0.23 2 2.16 2 3 c 0 1.04 -1.85 2.8 -2 4 c -0.14 1.11 1.18 2.77 1 4 c -1.65 11.57 -3.87 25.32 -7 38 c -3.98 16.09 -13.76 46.08 -14 47 c -0.04 0.17 3.04 -5.28 4 -8 c 0.99 -2.81 0.94 -6.27 2 -9 c 1.19 -3.05 3.59 -5.84 5 -9 c 2.96 -6.6 4.76 -13.68 8 -20 c 3.38 -6.59 8.29 -12.45 12 -19 c 1.99 -3.52 2.96 -7.57 5 -11 c 3.27 -5.52 6.78 -11.78 11 -16 c 3.92 -3.92 9.87 -7.24 15 -10 c 3.33 -1.79 7.67 -3.38 11 -4 c 1.45 -0.27 3.6 0.38 5 1 c 1.37 0.61 3.2 1.89 4 3 c 0.66 0.92 1.11 2.8 1 4 c -0.19 2.11 -1.18 4.68 -2 7 c -1.21 3.44 -2.32 6.94 -4 10 c -1.91 3.47 -4.18 7.82 -7 10 c -3.82 2.95 -10.07 5.42 -15 7 c -2.99 0.96 -6.68 1 -10 1 c -4.31 0 -9.95 -1.57 -13 -1 c -1.17 0.22 -3.2 2.76 -3 4 c 1.88 11.78 6.39 30.97 11 46 c 3.06 9.98 12 29 12 29"/><path stroke-linejoin="round" stroke-linecap="round" stroke-width="2" stroke="rgb(52, 58, 64)" fill="none" d="M 50 94 c 0.7 -0.07 27.39 -1.71 40 -4 c 5.07 -0.92 10.16 -3.68 15 -6 c 3.49 -1.68 6.88 -3.75 10 -6 c 2.84 -2.05 5.69 -4.5 8 -7 c 1.57 -1.7 2.99 -3.99 4 -6 c 0.57 -1.15 1.15 -2.95 1 -4 c -0.13 -0.92 -1.73 -3.31 -2 -3 c -0.9 1.03 -3.71 7.34 -5 11 c -0.65 1.84 -1 4.12 -1 6 c 0 1.58 0.27 4.12 1 5 c 0.59 0.71 2.89 1.26 4 1 c 2.65 -0.61 6.6 -2.29 9 -4 c 1.9 -1.36 3.15 -4.3 5 -6 c 2.04 -1.87 5.09 -3.09 7 -5 c 1.91 -1.91 3.77 -4.48 5 -7 c 4.34 -8.93 8.54 -18.55 12 -28 c 1.51 -4.14 3 -11.88 3 -13 c 0 -0.3 -2.65 1.09 -3 2 c -1.88 4.94 -3.67 12.53 -5 19 c -1.03 4.98 -1.82 10.07 -2 15 c -0.15 3.92 0.18 8.23 1 12 c 0.8 3.66 2.43 7.46 4 11 c 1.08 2.44 2.34 5.49 4 7 c 1.57 1.42 5.12 3.13 7 3 c 1.99 -0.14 4.88 -2.52 7 -4 c 1.11 -0.78 2.3 -1.86 3 -3 c 1.84 -2.99 3.55 -6.56 5 -10 c 1.23 -2.92 2.41 -8.41 3 -9 c 0.28 -0.28 1.1 2.92 2 4 c 2.28 2.73 5.27 5.72 8 8 c 1.08 0.9 2.83 2.09 4 2 c 2.48 -0.19 7.21 -1.34 9 -3 c 1.86 -1.72 3.23 -6.11 4 -9 c 0.47 -1.76 0.2 -6.13 0 -6 c -0.28 0.19 -2.66 5.37 -3 8 c -0.6 4.61 -0.25 10.17 0 15 c 0.07 1.33 0.49 2.82 1 4 c 0.44 1.03 1.22 2.22 2 3 c 0.78 0.78 2.02 1.92 3 2 c 2.46 0.2 7.64 0.54 9 -1 c 2.57 -2.91 3.45 -11.05 6 -16 c 3.02 -5.87 7.23 -11.97 11 -17 c 0.93 -1.24 4.03 -3.35 4 -3 c -0.09 1.16 -4 10.67 -5 16 c -0.95 5.09 -1 10.75 -1 16 c 0 2.31 0.39 4.97 1 7 c 0.31 1.04 1.19 2.33 2 3 l 4 2"/><path stroke-linejoin="round" stroke-linecap="round" stroke-width="2" stroke="rgb(52, 58, 64)" fill="none" d="M 280 61 c 0.04 -0.05 2.09 -3.06 2 -3 c -0.24 0.14 -5.32 3.81 -7 6 c -1.39 1.81 -2.82 4.73 -3 7 c -0.43 5.37 -0.45 14.19 1 18 c 0.61 1.61 4.87 2.65 7 3 c 1.42 0.24 3.55 -0.31 5 -1 c 4.58 -2.17 9.58 -4.9 14 -8 c 9 -6.3 23.18 -16.29 26 -20 c 0.74 -0.97 -4.71 -4.24 -7 -5 c -2.13 -0.71 -5.81 -0.63 -8 0 c -1.97 0.56 -4.31 2.48 -6 4 c -1.5 1.35 -3.04 3.23 -4 5 c -1.28 2.37 -2.08 5.24 -3 8 c -0.79 2.36 -2 5.15 -2 7 l 2 3"/><path stroke-linejoin="round" stroke-linecap="round" stroke-width="2" stroke="rgb(52, 58, 64)" fill="none" d="M 321 67 c -0.02 0.21 -1.2 8.33 -1 12 c 0.11 1.93 1.18 4.15 2 6 c 0.47 1.06 1.22 2.22 2 3 l 3 2"/><path stroke-linejoin="round" stroke-linecap="round" stroke-width="2" stroke="rgb(52, 58, 64)" fill="none" d="M 379 27 c 0.07 0.12 2.33 5.2 4 7 c 2.07 2.24 5.27 4.63 8 6 c 2.25 1.13 5.35 1.81 8 2 c 6.44 0.46 13.62 0.62 20 0 c 3.64 -0.35 7.74 -1.43 11 -3 c 5.4 -2.6 11.28 -6.4 16 -10 c 1.95 -1.49 3.47 -3.9 5 -6 c 1.14 -1.57 2.43 -3.28 3 -5 c 1.01 -3.02 1.78 -6.94 2 -10 c 0.09 -1.24 -0.33 -3.33 -1 -4 c -0.67 -0.67 -2.92 -1.34 -4 -1 c -4.33 1.37 -10.08 4.36 -15 7 c -4.54 2.43 -9.39 4.8 -13 8 c -4.7 4.16 -8.78 9.65 -13 15 c -13.64 17.31 -25.49 34.25 -39 51 c -3.27 4.06 -7.44 7.06 -11 11 c -6 6.64 -11.09 14.9 -17 20 c -2.93 2.52 -8.48 4.12 -12 5 c -1.11 0.28 -3.93 -0.21 -4 -1 c -0.37 -4.03 0.8 -15.02 2 -21 c 0.28 -1.42 1.79 -3.57 3 -4 c 2.67 -0.95 8.96 -2.67 11 -1 c 6.59 5.39 14.42 19.11 22 28 c 1.96 2.3 4.52 4.35 7 6 c 2.4 1.6 5.26 2.91 8 4 l 7 2"/><path stroke-linejoin="round" stroke-linecap="round" stroke-width="2" stroke="rgb(52, 58, 64)" fill="none" d="M 378 103 c 0.09 -0.02 3.44 -0.44 5 -1 c 3.02 -1.08 5.92 -2.58 9 -4 c 1.4 -0.65 2.85 -1.14 4 -2 c 2.73 -2.05 5.37 -5.25 8 -7 c 1.02 -0.68 3.39 -0.21 4 -1 c 1.27 -1.63 3.25 -7.25 3 -8 c -0.16 -0.47 -3.63 1.09 -5 2 c -1.44 0.96 -2.93 2.58 -4 4 c -0.84 1.12 -1.59 2.64 -2 4 c -0.55 1.85 -1.17 4.31 -1 6 c 0.12 1.25 1.09 3.86 2 4 c 2.28 0.35 7.79 -0.87 11 -2 c 2.07 -0.73 4.3 -2.43 6 -4 c 2.5 -2.31 4.59 -5.59 7 -8 c 0.82 -0.82 2.32 -2.2 3 -2 c 1.07 0.31 2.58 2.93 4 4 c 1.12 0.84 2.81 2.08 4 2 c 2.77 -0.2 7.49 -1.16 10 -3 c 6.63 -4.86 14.17 -12.23 20 -19 c 4.28 -4.97 8.4 -11.05 11 -17 c 4.19 -9.57 7.25 -21.11 10 -31 c 0.42 -1.52 0.37 -5.12 0 -5 c -0.69 0.23 -4.76 4.52 -6 7 c -1.53 3.07 -1.74 7.34 -3 11 c -2.82 8.24 -6.38 15.9 -9 24 c -1.04 3.22 -1.87 6.73 -2 10 c -0.2 5.14 0.3 10.9 1 16 c 0.27 2.01 1.01 4.51 2 6 c 0.78 1.18 2.6 2.13 4 3 c 1.25 0.78 2.75 1.88 4 2 c 1.69 0.17 4.63 -0.05 6 -1 c 2.39 -1.65 5 -5.12 7 -8 c 3.3 -4.74 7.97 -13.87 9 -15 c 0.24 -0.27 0.47 2.81 1 4 c 0.75 1.69 1.82 3.65 3 5 c 1.01 1.15 2.6 2.3 4 3 c 1.78 0.89 4.24 2 6 2 c 1.76 0 4.35 -0.98 6 -2 c 2.41 -1.48 4.66 -3.89 7 -6 c 1.08 -0.97 2.3 -1.86 3 -3 c 1.84 -2.99 3.91 -9.88 5 -10 c 0.96 -0.11 2.2 6.74 4 9 c 1.83 2.29 5.36 5.12 8 6 c 2.64 0.88 6.86 0.47 10 0 c 3.28 -0.49 7.2 -1.52 10 -3 c 2.47 -1.31 6.03 -4.06 7 -6 l -1 -6"/><path stroke-linejoin="round" stroke-linecap="round" stroke-width="2" stroke="rgb(52, 58, 64)" fill="none" d="M 431 60 l 1 1"/></svg>