<?xml version="1.0" encoding="UTF-8" standalone="no"?><!DOCTYPE svg PUBLIC "-//W3C//DTD SVG 1.1//EN" "http://www.w3.org/Graphics/SVG/1.1/DTD/svg11.dtd"><svg xmlns="http://www.w3.org/2000/svg" version="1.1" width="419" height="28"><path stroke-linejoin="round" stroke-linecap="round" stroke-width="2" stroke="rgb(52, 58, 64)" fill="none" d="M 1 1 c 0.12 0.02 4.73 0.41 7 1 c 5.39 1.41 10.52 3.83 16 5 c 10.26 2.18 20.6 2.78 31 5 c 10.29 2.19 19.83 6.23 30 8 c 12.84 2.23 25.56 3.02 39 4 c 14.76 1.08 28.08 1.55 43 2 c 19.42 0.59 36.65 1 56 1 c 15.55 0 29.48 -0.31 45 -1 c 15.55 -0.69 29.56 -1.56 45 -3 c 14.14 -1.32 27.01 -3.85 41 -5 c 10.85 -0.89 20.91 -0.81 32 -1 c 8.66 -0.15 16.65 -0.26 25 0 l 7 1"/></svg>