<?xml version="1.0" encoding="UTF-8" standalone="no"?><!DOCTYPE svg PUBLIC "-//W3C//DTD SVG 1.1//EN" "http://www.w3.org/Graphics/SVG/1.1/DTD/svg11.dtd"><svg xmlns="http://www.w3.org/2000/svg" version="1.1" width="368" height="135"><path stroke-linejoin="round" stroke-linecap="round" stroke-width="2" stroke="rgb(52, 58, 64)" fill="none" d="M 11 39 c -0.02 0.07 -0.44 2.78 -1 4 c -2.71 5.97 -9.66 15.77 -9 18 c 0.46 1.55 10.52 1.06 14 -1 c 17.43 -10.31 38.39 -28.87 57 -41 c 3.35 -2.19 7.96 -2.94 12 -4 c 2.26 -0.59 5.11 -1.19 7 -1 c 0.96 0.1 3.28 1.62 3 2 c -0.85 1.13 -6.31 3.63 -9 6 c -11.26 9.92 -21.49 20.87 -33 31 c -5.44 4.79 -11.06 9.1 -17 13 c -4.72 3.1 -9.86 5.54 -15 8 c -2.59 1.24 -5.53 2.65 -8 3 l -6 -1"/><path stroke-linejoin="round" stroke-linecap="round" stroke-width="2" stroke="rgb(52, 58, 64)" fill="none" d="M 90 101 c -0.35 0.12 -16.33 6.83 -20 7 c -1.1 0.05 -2.1 -4.18 -2 -6 c 0.2 -3.85 1.18 -9.25 3 -13 c 3.56 -7.32 8.78 -14.95 14 -22 c 7.25 -9.8 14.74 -18.9 23 -28 c 8.38 -9.23 16.8 -17.95 26 -26 c 6.81 -5.96 14.52 -12.35 22 -16 c 5.94 -2.9 14.46 -4.65 21 -5 c 4.93 -0.27 12.58 0.88 16 3 c 2.35 1.46 4.73 6.98 5 10 c 0.3 3.34 -1.09 8.79 -3 12 c -3.95 6.65 -10.14 13.72 -16 20 c -7.92 8.5 -16.1 16.35 -25 24 c -10.43 8.96 -20.8 17.47 -32 25 c -9.13 6.14 -19.07 11.14 -29 16 c -5.12 2.51 -15.45 6.88 -16 6 c -0.57 -0.92 6.91 -10.08 11 -14 c 3.95 -3.79 9.05 -7.26 14 -10 c 7.6 -4.2 15.82 -8.22 24 -11 c 8.27 -2.81 17.41 -4.85 26 -6 c 6.12 -0.82 12.82 -0.56 19 0 c 4.66 0.42 10.06 1.43 14 3 c 2.15 0.86 6.18 3.59 6 5 c -0.31 2.46 -4.99 7.83 -8 11 c -3.15 3.31 -7.57 5.72 -11 9 c -3.93 3.75 -7.05 8.21 -11 12 c -4.48 4.3 -12.35 9.91 -14 12 c -0.32 0.41 2.2 2.2 3 2 c 2.28 -0.57 5.9 -4 9 -5 c 5.85 -1.88 12.74 -2.13 19 -4 c 12.95 -3.86 25.84 -9.77 38 -13 c 3.33 -0.88 7.56 -0.57 11 0 c 4.25 0.71 9.84 1.69 13 4 c 4.61 3.37 8.33 11.22 13 15 c 3.37 2.72 8.7 4.96 13 6 c 4.81 1.16 11 1.64 16 1 c 7.42 -0.95 16.82 -2.26 23 -6 c 14.25 -8.63 28.89 -25.12 43 -34 l 19 -5"/></svg>