<?xml version="1.0" encoding="UTF-8" standalone="no"?><!DOCTYPE svg PUBLIC "-//W3C//DTD SVG 1.1//EN" "http://www.w3.org/Graphics/SVG/1.1/DTD/svg11.dtd"><svg xmlns="http://www.w3.org/2000/svg" version="1.1" width="369" height="227"><path stroke-linejoin="round" stroke-linecap="round" stroke-width="2" stroke="rgb(52, 58, 64)" fill="none" d="M 291 85 c 0 -0.47 -0.24 -17.83 0 -27 c 0.1 -3.75 0.42 -7.27 1 -11 c 3.18 -20.54 6.37 -39.34 10 -60 c 0.85 -4.86 1.61 -9.37 3 -14 c 3.68 -12.27 8.03 -23.57 12 -36 c 1.19 -3.73 2.33 -7.41 3 -11 c 0.3 -1.57 -0.33 -3.46 0 -5 c 0.62 -2.91 3 -9 3 -9"/><path stroke-linejoin="round" stroke-linecap="round" stroke-width="2" stroke="rgb(52, 58, 64)" fill="none" d="M 3 85 c 0.03 0.12 1.59 4.6 2 7 c 1.6 9.33 3.01 18.6 4 28 c 0.35 3.32 0.32 9.36 0 10 c -0.16 0.32 -2.57 -2.55 -3 -4 c -2.02 -6.82 -4.53 -15.55 -5 -23 c -0.5 -7.94 0.49 -17.09 2 -25 c 1.08 -5.69 3.59 -11.95 6 -17 c 1.05 -2.19 3.08 -4.4 5 -6 c 3.89 -3.24 8.62 -6.32 13 -9 c 1.49 -0.91 3.32 -1.68 5 -2 c 3.45 -0.65 7.98 -1.22 11 -1 c 0.99 0.07 2.22 1.22 3 2 c 0.78 0.78 2 2.02 2 3 c 0 4.65 -0.87 11.36 -2 17 c -1.9 9.5 -3.64 19.6 -7 28 c -2.36 5.89 -7.03 11.71 -11 17 c -1.94 2.59 -7 6.71 -7 7 c 0 0.24 4.53 -3 7 -4 c 8.14 -3.31 16.78 -6.94 25 -9 c 4.65 -1.16 10.72 -1.89 15 -1 c 4.46 0.92 10.26 4.2 14 7 c 2.39 1.79 4.68 5.22 6 8 c 1.5 3.17 1.6 7.66 3 11 l 5 8"/><path stroke-linejoin="round" stroke-linecap="round" stroke-width="2" stroke="rgb(52, 58, 64)" fill="none" d="M 113 50 c 0.6 -0.23 22.47 -8.29 34 -13 c 5.24 -2.14 10.21 -4.48 15 -7 c 1.45 -0.76 2.63 -2.32 4 -3 c 1.13 -0.56 3.81 -1.39 4 -1 c 0.25 0.51 -0.85 3.95 -2 5 c -5.65 5.16 -14.74 10.46 -21 16 c -2.04 1.8 -4.34 4.84 -5 7 c -0.47 1.53 -0.18 4.97 1 6 c 5.33 4.66 16.78 9.98 23 15 c 1.52 1.23 2.33 3.98 3 6 c 0.61 1.83 1.27 4.19 1 6 c -0.65 4.33 -2.17 10.14 -4 14 c -0.89 1.88 -3.87 3.22 -5 5 c -1.01 1.59 -0.99 4.41 -2 6 c -1.13 1.78 -3.89 3.15 -5 5 c -1.69 2.82 -3.37 7.05 -4 10 c -0.24 1.13 0.25 3.36 1 4 c 1.14 0.98 4.16 1.83 6 2 c 1.48 0.13 3.47 -1.12 5 -1 c 2.47 0.19 5.52 2.28 8 2 c 13.77 -1.56 45 -8 45 -8"/><path stroke-linejoin="round" stroke-linecap="round" stroke-width="2" stroke="rgb(52, 58, 64)" fill="none" d="M 262 90 c -0.12 0.39 -6.93 21.6 -7 22 c -0.03 0.19 3.05 -7.08 5 -10 c 1.23 -1.85 3.66 -3.14 5 -5 c 2.9 -4.01 5.12 -8.79 8 -13 c 1.47 -2.15 3.15 -4.15 5 -6 c 4.2 -4.2 8.57 -8.98 13 -12 c 2.37 -1.62 6.08 -2.42 9 -3 c 1.85 -0.37 4.65 -0.6 6 0 c 1.13 0.5 3 2.68 3 4 c 0 6.12 -3.32 19.29 -3 23 c 0.07 0.8 4.09 0.88 5 0 c 7 -6.77 16.14 -20.55 25 -29 c 5.01 -4.77 11.86 -8.1 18 -12 c 1.27 -0.81 2.7 -1.71 4 -2 c 1.46 -0.32 3.89 -0.47 5 0 c 0.8 0.34 1.8 1.94 2 3 c 1.31 7.1 2.43 15.89 3 24 c 0.44 6.37 0.45 12.89 0 19 c -0.2 2.65 -1.86 5.43 -2 8 l 1 11"/></svg>