<?xml version="1.0" encoding="UTF-8" standalone="no"?><!DOCTYPE svg PUBLIC "-//W3C//DTD SVG 1.1//EN" "http://www.w3.org/Graphics/SVG/1.1/DTD/svg11.dtd"><svg xmlns="http://www.w3.org/2000/svg" version="1.1" width="388" height="65"><path stroke-linejoin="round" stroke-linecap="round" stroke-width="2" stroke="rgb(52, 58, 64)" fill="none" d="M 1 28 c 0.37 0.05 13.78 2.26 21 3 c 9.55 0.97 18.43 1.92 28 2 c 33.41 0.27 65.45 1.01 98 -1 c 16.16 -1 31.55 -4.87 48 -8 c 12.46 -2.37 24.45 -4.49 36 -8 c 6.87 -2.08 13.74 -5.74 20 -9 c 1.83 -0.95 5.12 -3.3 5 -4 c -0.12 -0.69 -4.12 -1.86 -6 -2 c -2.1 -0.16 -4.77 0.38 -7 1 c -3.69 1.02 -7.53 2.26 -11 4 c -7.83 3.92 -15.38 8.15 -23 13 c -18.72 11.91 -35.85 25.16 -54 36 c -5.4 3.23 -11.99 5.5 -18 7 c -5.64 1.41 -11.89 1.69 -18 2 c -7.08 0.36 -14.77 0.69 -21 0 c -1.99 -0.22 -4.31 -1.74 -6 -3 c -2.13 -1.6 -4.3 -3.83 -6 -6 c -1.89 -2.41 -3.78 -5.35 -5 -8 c -0.66 -1.43 -1.73 -4.6 -1 -5 c 1.72 -0.94 8.13 -1.41 12 -1 c 14.65 1.54 29.4 4.99 45 7 c 27.24 3.51 51.71 6.36 79 9 c 15.48 1.5 29.56 2.49 45 3 c 15.41 0.51 29.96 1.09 45 0 c 17.54 -1.27 34.75 -3.93 52 -7 c 7.18 -1.28 14.02 -3.76 21 -6 l 7 -3"/></svg>