<?xml version="1.0" encoding="UTF-8" standalone="no"?><!DOCTYPE svg PUBLIC "-//W3C//DTD SVG 1.1//EN" "http://www.w3.org/Graphics/SVG/1.1/DTD/svg11.dtd"><svg xmlns="http://www.w3.org/2000/svg" version="1.1" width="450" height="105"><path stroke-linejoin="round" stroke-linecap="round" stroke-width="2" stroke="rgb(52, 58, 64)" fill="none" d="M 28 1 c -0.07 0.09 -2.9 3.22 -4 5 c -1.53 2.49 -2.27 5.67 -4 8 c -5.77 7.78 -16.1 18.28 -19 23 c -0.41 0.67 1.9 2.56 3 3 c 1.83 0.73 5 0.18 7 1 c 3.3 1.36 6.93 3.7 10 6 c 3.54 2.65 8.4 5.81 10 9 c 1.55 3.09 1.9 9.55 1 13 c -0.84 3.23 -4.37 7.2 -7 10 c -2.15 2.3 -5.36 4.58 -8 6 c -1.35 0.73 -3.55 1.22 -5 1 l -8 -3"/><path stroke-linejoin="round" stroke-linecap="round" stroke-width="2" stroke="rgb(52, 58, 64)" fill="none" d="M 42 104 c 0.05 -0.12 2.53 -4.63 3 -7 c 1.13 -5.63 1.82 -11.89 2 -18 c 0.49 -16.54 -0.18 -48.16 0 -49 c 0.11 -0.52 2.16 20.14 4 30 c 0.82 4.43 2.48 8.95 4 13 c 0.4 1.07 1.19 2.33 2 3 c 1 0.84 2.94 2.12 4 2 c 1.38 -0.15 4.06 -1.7 5 -3 c 1.38 -1.9 2.59 -5.38 3 -8 c 0.53 -3.37 0.43 -7.75 0 -11 c -0.18 -1.32 -1.97 -4.18 -2 -4 c -0.07 0.4 0.11 7.16 1 10 c 0.64 2.03 2.36 4.87 4 6 c 2.16 1.49 6.09 2.38 9 3 c 1.54 0.33 3.89 0.47 5 0 c 0.8 -0.34 1.84 -1.96 2 -3 c 0.74 -4.9 0.49 -16.49 1 -17 c 0.38 -0.38 3.09 8.13 4 12 c 0.36 1.53 -0.61 3.79 0 5 c 1.12 2.24 5.08 7.23 6 7 c 0.92 -0.23 1.6 -6.02 2 -9 c 0.26 -1.94 -0.07 -5.85 0 -6 c 0.05 -0.1 0.45 2.8 1 4 l 5 9"/><path stroke-linejoin="round" stroke-linecap="round" stroke-width="2" stroke="rgb(52, 58, 64)" fill="none" d="M 130 66 c -0.03 -0.21 -1.09 -8.14 -2 -12 c -0.4 -1.71 -1.11 -3.76 -2 -5 c -0.59 -0.83 -3 -2.31 -3 -2 c 0 1.23 1.48 9.57 3 14 c 2.09 6.09 5.02 12.28 8 18 c 1.3 2.5 3.12 5.12 5 7 c 1.58 1.58 3.93 3.05 6 4 c 2.09 0.96 5.58 2.43 7 2 l 3 -5"/><path stroke-linejoin="round" stroke-linecap="round" stroke-width="2" stroke="rgb(52, 58, 64)" fill="none" d="M 49 55 c 0.07 0.02 2.67 0.94 4 1 c 6.13 0.27 19 0 19 0"/><path stroke-linejoin="round" stroke-linecap="round" stroke-width="2" stroke="rgb(52, 58, 64)" fill="none" d="M 270 18 c -0.19 -0.14 -7.18 -6.24 -11 -8 c -4.36 -2.01 -10.27 -3.38 -15 -4 c -2.46 -0.32 -5.6 0.25 -8 1 c -2.67 0.83 -5.49 2.42 -8 4 c -3.81 2.41 -9.11 4.9 -11 8 c -2.12 3.49 -2.32 9.91 -3 15 c -0.67 5 -1.17 10.11 -1 15 c 0.15 4.28 0.89 8.93 2 13 c 0.83 3.04 2.14 6.74 4 9 c 2.42 2.93 6.41 6.03 10 8 c 6.41 3.51 13.9 6.57 21 9 c 4.45 1.53 9.74 2.53 14 3 c 1.23 0.14 4.06 -0.4 4 -1 c -0.15 -1.49 -3 -6.5 -5 -9 c -1.79 -2.23 -4.59 -4.52 -7 -6 c -1.65 -1.02 -4.22 -1.11 -6 -2 c -1.4 -0.7 -4.1 -2.27 -4 -3 c 0.13 -0.93 3.2 -3.72 5 -4 c 13.25 -2.04 30.74 -3.01 47 -4 c 23.47 -1.43 44.79 -3 68 -3 c 28.33 0 83 3 83 3"/></svg>