<?xml version="1.0" encoding="UTF-8" standalone="no"?><!DOCTYPE svg PUBLIC "-//W3C//DTD SVG 1.1//EN" "http://www.w3.org/Graphics/SVG/1.1/DTD/svg11.dtd"><svg xmlns="http://www.w3.org/2000/svg" version="1.1" width="702" height="156"><path stroke-linejoin="round" stroke-linecap="round" stroke-width="2" stroke="rgb(52, 58, 64)" fill="none" d="M 27 24 c -0.04 -0.05 -1.8 -1.99 -2 -3 c -0.39 -1.95 -1.02 -5.51 0 -7 c 2.58 -3.77 8.83 -9.15 13 -12 c 1.43 -0.98 4.45 -1.31 6 -1 c 1.27 0.25 3.67 1.89 4 3 c 0.47 1.56 -1 4.77 -1 7 l 1 6"/><path stroke-linejoin="round" stroke-linecap="round" stroke-width="2" stroke="rgb(52, 58, 64)" fill="none" d="M 28 82 c -0.09 0.14 -3.78 5.2 -5 8 c -2.04 4.69 -5 15 -5 15"/><path stroke-linejoin="round" stroke-linecap="round" stroke-width="2" stroke="rgb(52, 58, 64)" fill="none" d="M 34 20 c 0.02 0.14 0.81 5.3 1 8 c 0.14 2.01 0.29 4.11 0 6 c -0.35 2.3 -1.88 4.75 -2 7 c -0.19 3.41 1.26 7.48 1 11 c -0.38 5.18 -1.52 10.81 -3 16 c -1.84 6.45 -4.51 12.43 -7 19 c -1.33 3.49 -2.35 6.8 -4 10 c -3.71 7.19 -7.71 13.84 -12 21 c -3.99 6.65 -7.72 12.69 -12 19 c -2.17 3.2 -4.59 6.35 -7 9 l -3 2"/><path stroke-linejoin="round" stroke-linecap="round" stroke-width="2" stroke="rgb(52, 58, 64)" fill="none" d="M 99 7 c -0.42 0.25 -15.95 8.97 -24 14 c -5.63 3.52 -10.55 8.18 -16 11 c -3.82 1.98 -9.64 1.98 -13 4 c -2.63 1.58 -4.43 5.57 -7 8 c -3.77 3.57 -12 10 -12 10"/><path stroke-linejoin="round" stroke-linecap="round" stroke-width="2" stroke="rgb(52, 58, 64)" fill="none" d="M 54 72 c 0.12 0.44 4.18 17.24 7 25 c 1.03 2.82 5 8 5 8"/><path stroke-linejoin="round" stroke-linecap="round" stroke-width="2" stroke="rgb(52, 58, 64)" fill="none" d="M 73 119 l 1 1"/><path stroke-linejoin="round" stroke-linecap="round" stroke-width="2" stroke="rgb(52, 58, 64)" fill="none" d="M 99 122 l 1 1"/><path stroke-linejoin="round" stroke-linecap="round" stroke-width="2" stroke="rgb(52, 58, 64)" fill="none" d="M 106 109 l 1 1"/><path stroke-linejoin="round" stroke-linecap="round" stroke-width="2" stroke="rgb(52, 58, 64)" fill="none" d="M 130 124 l 1 1"/><path stroke-linejoin="round" stroke-linecap="round" stroke-width="2" stroke="rgb(52, 58, 64)" fill="none" d="M 62 105 c 0.02 0.18 -0.52 8.48 1 10 c 1.87 1.87 8.15 2.88 12 3 c 5.94 0.19 16.42 -2.29 19 -2 c 0.56 0.06 -1.52 3.4 -1 4 c 0.96 1.11 4.86 3 7 3 c 4.03 0 9.71 -1.57 14 -3 c 2.41 -0.8 4.77 -2.51 7 -4 c 1.77 -1.18 3.51 -2.51 5 -4 c 2.15 -2.15 4.42 -4.55 6 -7 c 1.3 -2.03 3.47 -6.41 3 -7 c -0.45 -0.56 -4.87 1.15 -7 2 c -1.06 0.42 -2.23 1.16 -3 2 c -2.73 2.98 -5.91 6.52 -8 10 c -1.76 2.93 -3.43 6.94 -4 10 c -0.32 1.73 0.26 4.38 1 6 c 0.78 1.71 2.44 3.8 4 5 c 2.5 1.93 5.95 3.93 9 5 c 3.31 1.16 7.58 2.14 11 2 c 4.38 -0.18 10.03 -1.07 14 -3 c 6.99 -3.4 14.66 -9.18 21 -14 c 1.61 -1.22 2.47 -3.89 4 -5 c 1.82 -1.32 6.05 -3.27 7 -3 c 0.62 0.18 0.38 3.48 0 5 c -1.2 4.82 -5 13.47 -5 15 c 0 0.52 3.76 -1.11 5 -2 c 0.83 -0.59 1.18 -2.18 2 -3 c 3.06 -3.06 7.6 -7.71 10 -9 c 0.64 -0.35 2.71 1.12 3 2 c 1.07 3.21 0.25 12.06 2 13 c 1.86 0.99 8.96 -2.82 13 -5 c 8.86 -4.77 18.12 -12.06 26 -16 c 1.55 -0.77 4.65 -0.51 6 0 c 0.81 0.3 1.83 1.99 2 3 c 0.42 2.53 0.81 6.57 0 9 c -0.97 2.92 -6.34 8.66 -6 9 c 0.34 0.34 6.25 -3.69 9 -6 c 5.57 -4.68 10.47 -10.39 16 -15 c 2.38 -1.98 5.35 -3.78 8 -5 c 1.43 -0.66 4.04 -1.41 5 -1 c 0.84 0.36 1.65 2.62 2 4 c 1.26 5.04 1.74 10.96 3 16 c 0.35 1.38 1.1 3.35 2 4 c 1.03 0.74 3.47 1 5 1 c 1.24 0 2.88 -0.39 4 -1 c 2.33 -1.27 5.2 -2.99 7 -5 c 3.59 -4.02 9.67 -14.57 10 -14 c 0.41 0.72 -4.81 14.01 -6 21 c -1.09 6.41 -1.67 17.74 -1 20 c 0.22 0.76 4.38 -1.65 6 -3 c 4.1 -3.41 7.98 -7.78 12 -12 c 2.85 -2.99 5.56 -5.8 8 -9 c 2.92 -3.84 5.46 -7.77 8 -12 c 5.68 -9.47 10.71 -18.21 16 -28 c 6.45 -11.95 13.13 -23 18 -35 c 4.38 -10.8 9.55 -32.96 10 -34 c 0.14 -0.32 0.28 7.29 0 11 c -0.74 9.84 -1.45 19.49 -3 29 c -0.77 4.75 -3.13 9.31 -4 14 c -0.78 4.2 -0.22 8.8 -1 13 c -0.87 4.69 -3.01 9.2 -4 14 c -1.71 8.35 -2.25 16.64 -4 25 c -1.29 6.17 -5.56 18.25 -5 18 c 0.79 -0.35 10.01 -14.23 14 -22 c 8.42 -16.39 16.26 -32.93 23 -50 c 3.95 -10.01 6.71 -20.59 9 -31 c 1.36 -6.16 1.85 -18.7 2 -19 c 0.12 -0.23 0.43 9.96 0 15 c -1.25 14.54 -2.74 28.91 -5 43 c -0.71 4.43 -2.87 8.5 -4 13 c -2.29 9.15 -4.22 17.82 -6 27 c -0.58 3 -0.23 6.25 -1 9 c -0.83 3 -4.1 8.49 -4 9 c 0.07 0.33 3.75 -2.39 5 -4 c 5.47 -7.03 10.18 -15.97 16 -23 c 3.68 -4.44 9.98 -10.11 13 -12 c 0.62 -0.38 2.6 1.13 3 2 c 1.01 2.22 1.67 6.02 2 9 c 0.32 2.91 0.2 5.95 0 9 c -0.48 7.14 -0.98 14.86 -2 21 c -0.17 1.05 -1.22 2.22 -2 3 l -3 2"/><path stroke-linejoin="round" stroke-linecap="round" stroke-width="2" stroke="rgb(52, 58, 64)" fill="none" d="M 343 67 c 0.38 0.14 14.39 5.62 22 8 c 8.75 2.73 17.59 5.9 26 7 c 6.26 0.82 20 -1 20 -1"/><path stroke-linejoin="round" stroke-linecap="round" stroke-width="2" stroke="rgb(52, 58, 64)" fill="none" d="M 508 17 c -0.07 0.54 -2.34 20.53 -4 31 c -0.71 4.47 -1.86 8.52 -3 13 c -3.01 11.81 -5.55 22.57 -9 34 c -1.99 6.58 -5.89 13.87 -7 19 c -0.25 1.13 1.65 4 2 4 c 0.33 0 0.9 -4.2 1 -4 c 0.3 0.6 1.69 8.06 3 12 c 2.05 6.16 4.45 12.14 7 18 c 0.77 1.77 1.67 4.18 3 5 c 2.38 1.46 6.74 2.39 10 3 c 1.87 0.35 4.31 0.59 6 0 c 4.41 -1.54 10.45 -4.2 14 -7 c 2.14 -1.69 3.6 -5.2 5 -8 c 1.93 -3.86 3.51 -7.84 5 -12 c 1.92 -5.36 3.89 -10.61 5 -16 c 1.2 -5.83 1.65 -11.89 2 -18 c 0.33 -5.73 0.53 -11.48 0 -17 c -0.45 -4.65 -1.65 -9.43 -3 -14 c -1.32 -4.44 -3.05 -8.75 -5 -13 c -1.75 -3.82 -3.67 -7.77 -6 -11 c -1.84 -2.55 -4.51 -5.04 -7 -7 c -2.03 -1.6 -4.66 -3.1 -7 -4 c -1.76 -0.68 -4.15 -1 -6 -1 l -4 1"/><path stroke-linejoin="round" stroke-linecap="round" stroke-width="2" stroke="rgb(52, 58, 64)" fill="none" d="M 583 104 c -0.23 0.18 -9.17 6.37 -13 10 c -2.66 2.53 -5.08 5.79 -7 9 c -3.02 5.03 -5.94 10.65 -8 16 c -1.17 3.05 -2.19 7.55 -2 10 c 0.08 1.02 2.12 3.14 3 3 c 2.33 -0.36 7.5 -2.73 10 -5 c 4.29 -3.9 7.78 -10.55 12 -15 c 1.89 -1.99 4.71 -4.24 7 -5 c 2.13 -0.71 5.4 0.34 8 0 c 4.98 -0.65 10.33 -1.51 15 -3 c 3.41 -1.09 9.24 -5.76 10 -5 c 0.84 0.84 -1.52 8.3 -3 12 c -1.77 4.42 -6.8 12.32 -7 13 c -0.07 0.23 3.15 -1.77 4 -3 c 1.9 -2.74 3.58 -6.52 5 -10 c 2.29 -5.61 4.4 -11.11 6 -17 c 3.82 -14.09 7.47 -27.77 10 -42 c 1.83 -10.26 2.33 -20.46 3 -31 c 0.35 -5.42 0.61 -13.72 0 -16 c -0.16 -0.59 -3.94 0.17 -4 1 c -0.79 10.29 -0.69 33.87 0 51 c 0.32 8.12 1.8 15.82 3 24 c 0.51 3.45 0.86 7.06 2 10 c 1.06 2.72 3.18 6.36 5 8 c 0.98 0.88 4.18 1.64 5 1 c 1.44 -1.12 3.98 -8.36 4 -8 c 0.06 1.12 -3.91 25 -3 28 c 0.36 1.19 7.53 -2.82 10 -5 c 2.7 -2.38 4.83 -6.48 7 -10 c 3.26 -5.3 6.46 -10.45 9 -16 c 2.8 -6.12 4.93 -12.45 7 -19 c 2.01 -6.36 4.36 -12.72 5 -19 c 0.98 -9.59 0.7 -20.42 0 -30 c -0.27 -3.64 -1.6 -7.66 -3 -11 c -1.16 -2.76 -2.97 -6.41 -5 -8 c -2.04 -1.6 -7.01 -3.17 -9 -3 c -1.05 0.09 -2.54 2.54 -3 4 c -3.25 10.3 -6.52 22.44 -9 34 c -1.56 7.3 -2.51 14.58 -3 22 c -0.51 7.69 -1.13 15.64 0 23 c 2.13 13.82 6.11 28.76 10 42 l 5 9"/></svg>