<?xml version="1.0" encoding="UTF-8" standalone="no"?><!DOCTYPE svg PUBLIC "-//W3C//DTD SVG 1.1//EN" "http://www.w3.org/Graphics/SVG/1.1/DTD/svg11.dtd"><svg xmlns="http://www.w3.org/2000/svg" version="1.1" width="468" height="181"><path stroke-linejoin="round" stroke-linecap="round" stroke-width="2" stroke="rgb(52, 58, 64)" fill="none" d="M 34 5 c -0.33 1.16 -11.95 43.68 -19 66 c -3.18 10.08 -7.14 19.9 -11 29 c -0.62 1.47 -2.95 4.32 -3 4 c -0.17 -1.17 -0.48 -12.46 1 -18 c 3.65 -13.7 9.02 -28.65 15 -42 c 3.91 -8.73 9.66 -16.99 15 -25 c 1.95 -2.92 4.47 -5.66 7 -8 c 2.04 -1.9 5.23 -4.47 7 -5 c 0.74 -0.22 2.53 1.18 3 2 c 0.66 1.16 1 3.38 1 5 c 0 3.18 -0.39 6.65 -1 10 c -2.43 13.26 -6.82 28.89 -8 39 c -0.15 1.27 2.46 4.53 3 4 c 5.97 -5.82 23.61 -28.23 36 -42 c 2.7 -3 5.88 -5.86 9 -8 c 1.97 -1.36 4.75 -2.44 7 -3 c 1.48 -0.37 4.33 -0.76 5 0 c 1.1 1.26 1.88 5.41 2 8 c 0.2 4.41 -0.06 9.47 -1 14 c -2.7 13.01 -6.94 25.51 -10 39 c -2.78 12.28 -5.2 23.85 -7 36 c -0.88 5.97 -1 11.98 -1 18 l 1 11"/><path stroke-linejoin="round" stroke-linecap="round" stroke-width="2" stroke="rgb(52, 58, 64)" fill="none" d="M 104 28 c -0.12 0.05 -5.3 1.48 -7 3 c -4.11 3.68 -8.7 9.14 -12 14 c -2.16 3.18 -3.71 7.34 -5 11 c -0.65 1.84 -1.31 4.45 -1 6 c 0.25 1.27 1.89 3.2 3 4 c 0.92 0.66 2.95 1.29 4 1 c 2.06 -0.56 4.97 -2.4 7 -4 c 2.49 -1.96 4.84 -4.44 7 -7 c 8.67 -10.3 22.87 -28.87 25 -31 c 0.32 -0.32 -0.56 4.45 0 6 c 0.6 1.65 2.55 3.73 4 5 c 1.02 0.89 2.65 1.73 4 2 c 3.34 0.67 7.47 0.38 11 1 c 2.02 0.36 4.22 1.11 6 2 c 1.4 0.7 3.08 1.82 4 3 c 1.23 1.58 2.81 4.06 3 6 c 0.41 4.35 -0.25 10.13 -1 15 c -0.57 3.69 -3.43 11.39 -3 11 c 2.1 -1.92 33.73 -38.91 37 -42 c 0.41 -0.39 0.81 5.2 0 7 c -1.83 4.07 -5.8 8.53 -9 13 c -10.01 13.96 -18.68 26.41 -29 40 c -11.45 15.08 -33.34 42.3 -34 43 c -0.4 0.42 11.95 -18.66 19 -27 c 7.56 -8.93 16.19 -16.99 25 -25 c 6.04 -5.49 12.34 -10.19 19 -15 c 5.57 -4.03 11.17 -7.99 17 -11 c 4.28 -2.21 9.35 -3.97 14 -5 c 4.08 -0.91 9.28 -1.65 13 -1 c 3.19 0.56 7.66 2.81 10 5 c 2.44 2.29 4.94 6.68 6 10 c 1.09 3.43 1 8.02 1 12 c 0 3.65 -0.06 7.72 -1 11 c -0.95 3.32 -3.01 7.01 -5 10 c -1.9 2.84 -4.34 5.92 -7 8 c -4.71 3.69 -10.55 7.37 -16 10 c -3.93 1.9 -9.89 3.81 -13 4 l -3 -3"/><path stroke-linejoin="round" stroke-linecap="round" stroke-width="2" stroke="rgb(52, 58, 64)" fill="none" d="M 286 1 c -0.03 0.12 -1.1 4.84 -2 7 c -0.72 1.73 -2.22 3.24 -3 5 c -1.87 4.21 -3.03 8.67 -5 13 c -8.62 18.92 -16.84 35.94 -26 55 c -3.7 7.71 -7.1 14.98 -11 22 c -1.02 1.83 -4.04 5.12 -4 5 c 0.08 -0.23 3.71 -7.4 6 -11 c 7.24 -11.38 14.23 -21.8 22 -33 c 3.92 -5.65 7.73 -10.71 12 -16 c 2.87 -3.56 5.82 -6.82 9 -10 c 1.84 -1.84 5.44 -5.34 6 -5 c 0.58 0.35 -0.26 5.46 -1 8 c -3.2 10.95 -8.17 22.45 -11 33 c -0.65 2.43 -0.95 6.65 0 8 c 0.86 1.23 5.33 2.79 7 2 c 7.97 -3.77 19.75 -12.17 29 -19 c 4.72 -3.48 8.38 -8.41 13 -12 c 4.34 -3.38 12.82 -9.24 14 -9 c 0.83 0.17 -2.25 7.5 -4 11 c -6.95 13.9 -15.74 27.47 -22 41 c -1.8 3.88 -3 9.47 -3 13 c 0 1.54 1.77 4.59 3 5 c 1.91 0.64 6.25 -0.16 9 -1 c 4.62 -1.41 9.47 -3.66 14 -6 c 5.2 -2.69 10.13 -5.61 15 -9 c 10.74 -7.47 21.69 -14.72 31 -23 c 5.31 -4.72 11.24 -12.11 14 -17 c 0.76 -1.35 -0.14 -4.85 -1 -6 c -0.76 -1.02 -3.41 -1.89 -5 -2 c -2.97 -0.2 -7.05 0.02 -10 1 c -4.6 1.53 -9.35 4.39 -14 7 c -6.26 3.52 -12.15 6.94 -18 11 c -6.32 4.39 -12.05 9.01 -18 14 c -4.62 3.87 -8.78 7.78 -13 12 c -2.2 2.2 -6.44 6.12 -6 7 c 0.48 0.96 7.06 1.73 10 1 c 10.53 -2.63 22.47 -7.43 34 -12 c 28.39 -11.26 53.96 -22.84 82 -34 c 5.29 -2.11 10.8 -3.96 16 -5 c 2.79 -0.56 6.71 -0.57 9 0 c 1.08 0.27 3 2.04 3 3 c 0 2.15 -1.52 6.29 -3 9 c -6.03 11 -13.41 21.52 -20 33 c -4.05 7.05 -8.21 13.85 -11 21 c -2.42 6.21 -5 13.84 -5 20 c 0 7.03 1.88 17.25 5 23 c 2.44 4.5 9.07 8.77 14 12 l 15 7"/></svg>