<?xml version="1.0" encoding="UTF-8" standalone="no"?><!DOCTYPE svg PUBLIC "-//W3C//DTD SVG 1.1//EN" "http://www.w3.org/Graphics/SVG/1.1/DTD/svg11.dtd"><svg xmlns="http://www.w3.org/2000/svg" version="1.1" width="373" height="63"><path stroke-linejoin="round" stroke-linecap="round" stroke-width="2" stroke="rgb(52, 58, 64)" fill="none" d="M 1 1 c 0.3 0.07 11.25 3.4 17 4 c 16.49 1.72 32.74 1.66 50 3 c 13.85 1.08 26.57 1.66 40 4 c 39.18 6.82 75.95 16.14 115 23 c 11.03 1.94 21.67 2.43 33 3 c 15.73 0.8 36.14 1.82 46 1 c 1.15 -0.1 2.73 -4.32 2 -5 c -2.42 -2.24 -10.46 -5.82 -16 -8 c -7.14 -2.82 -14.47 -5.38 -22 -7 c -14.21 -3.06 -28.63 -5.35 -43 -7 c -5.94 -0.68 -12.3 -0.71 -18 0 c -4.61 0.58 -10.08 1.66 -14 4 c -14.1 8.41 -28.17 20.02 -43 30 c -3.93 2.64 -7.82 5.46 -12 7 c -8.1 2.98 -17.12 4.9 -26 7 c -4.01 0.95 -7.99 1.6 -12 2 c -2.64 0.26 -5.45 0.38 -8 0 c -3.95 -0.59 -8.11 -1.6 -12 -3 c -9.17 -3.29 -28.21 -10.32 -27 -11 c 2.07 -1.17 32.71 -1.81 50 -2 c 45.61 -0.5 86.83 -0.77 132 0 c 14.75 0.25 28.34 1.39 43 3 c 19.58 2.15 37.13 5.32 57 8 c 11.13 1.5 21.22 2.89 32 4 l 7 0"/></svg>