<?xml version="1.0" encoding="UTF-8" standalone="no"?><!DOCTYPE svg PUBLIC "-//W3C//DTD SVG 1.1//EN" "http://www.w3.org/Graphics/SVG/1.1/DTD/svg11.dtd"><svg xmlns="http://www.w3.org/2000/svg" version="1.1" width="517" height="120"><path stroke-linejoin="round" stroke-linecap="round" stroke-width="2" stroke="rgb(52, 58, 64)" fill="none" d="M 42 14 c -0.05 0.19 -0.94 8.51 -3 11 c -5 6.04 -13.85 12.38 -21 18 c -2.09 1.64 -5.37 4.48 -7 4 c -2.72 -0.8 -8.83 -6.5 -10 -9 c -0.58 -1.25 1.69 -4.28 3 -6 c 3.87 -5.09 8.72 -11.88 13 -15 c 1.95 -1.42 6.77 -1.37 9 -1 c 1.05 0.17 1.88 2.81 3 3 c 5.55 0.93 14.2 1.37 21 1 c 5.27 -0.28 10.92 -1.31 16 -3 c 12.74 -4.25 31.69 -13.22 38 -15 c 0.64 -0.18 1.44 3 1 4 c -2.85 6.41 -7.67 16.17 -13 23 c -15.73 20.16 -34.01 38.78 -51 59 c -2.66 3.16 -6.69 9.75 -7 10 c -0.16 0.13 0.64 -4.82 2 -6 c 11.62 -10.07 28.01 -21.62 43 -33 c 3.76 -2.86 7.16 -5.51 11 -8 c 2.9 -1.89 6.18 -3.12 9 -5 c 2.14 -1.43 4.21 -3.21 6 -5 c 1.15 -1.15 3.06 -4.06 3 -4 c -0.08 0.08 -2.5 3.5 -4 5 c -3.49 3.49 -8.74 6.92 -11 10 c -0.76 1.04 -0.67 5.04 0 5 c 2.3 -0.14 10.85 -3.59 16 -6 c 5.53 -2.59 11.6 -7.85 16 -9 c 1.83 -0.48 4.77 2.75 7 3 c 3.24 0.36 8.48 -1.39 11 -1 c 0.82 0.13 1.74 1.96 2 3 c 0.65 2.61 -0.07 7.47 1 9 c 0.72 1.03 4.38 1.52 6 1 c 4.77 -1.52 10.78 -5.02 16 -8 c 4.21 -2.41 7.97 -5.11 12 -8 c 6.98 -5.02 14.04 -9.73 20 -15 c 2.38 -2.11 3.78 -5.61 6 -8 c 2.04 -2.2 6.89 -6.11 7 -6 c 0.11 0.11 -4.2 4.5 -6 7 c -2.55 3.53 -4.34 7.52 -7 11 c -6.09 7.97 -12.94 14.92 -19 23 c -5.13 6.84 -9.84 13.58 -14 21 c -8.33 14.86 -21.81 41.96 -23 45 c -0.19 0.48 4.93 -2.39 7 -4 c 3.82 -2.97 7.64 -6.36 11 -10 c 4.66 -5.05 9.04 -10.29 13 -16 c 7.52 -10.83 13.57 -21.97 21 -33 c 3.12 -4.63 9.82 -12.78 10 -13 c 0.04 -0.05 -1.17 2.26 -2 3 c -1.99 1.77 -5.03 3.03 -7 5 c -4.21 4.21 -8.22 9.21 -12 14 c -1.2 1.52 -3.41 4.59 -3 5 c 0.49 0.49 5.21 -0.01 7 -1 c 3.6 -2 7.09 -6.54 11 -9 l 16 -8"/><path stroke-linejoin="round" stroke-linecap="round" stroke-width="2" stroke="rgb(52, 58, 64)" fill="none" d="M 334 2 c -0.17 -0.02 -6.93 -1.48 -10 -1 c -6.97 1.09 -14.95 3.51 -22 6 c -4.15 1.46 -8.34 3.62 -12 6 c -3.87 2.53 -7.26 5.82 -11 9 c -3.17 2.69 -6.59 5.19 -9 8 c -1.34 1.57 -2.64 4.22 -3 6 c -0.22 1.1 0.22 3.71 1 4 c 1.9 0.69 9.11 -1.02 10 0 c 0.76 0.87 -1.58 5.95 -3 8 c -1.3 1.88 -4.45 3.14 -6 5 c -1.6 1.92 -4.52 5.55 -4 7 c 0.73 2.05 6.42 7.62 9 7 c 12.97 -3.14 35.2 -14.18 53 -22 c 4.58 -2.01 8.63 -5.13 13 -7 c 2.44 -1.05 7.05 -2.41 8 -2 c 0.59 0.25 -0.25 3.76 -1 5 c -1.03 1.72 -3.2 3.53 -5 5 c -1.83 1.5 -6 3.39 -6 4 c 0 0.51 4.12 1 6 1 c 1.58 0 3.67 -1.17 5 -1 c 0.94 0.12 2.53 1.18 3 2 c 0.66 1.16 0.13 4.65 1 5 c 1.55 0.62 6.24 -0.15 9 -1 c 5.6 -1.72 12.19 -3.8 17 -7 c 7.6 -5.07 14.88 -12.38 22 -19 c 2.6 -2.42 6.53 -7.69 7 -8 c 0.18 -0.12 -0.28 3.04 -1 4 c -1.97 2.62 -5.81 5.02 -8 8 c -6.02 8.18 -12.41 17.54 -17 26 c -1.36 2.51 -2.15 6.37 -2 9 c 0.14 2.44 1.69 6.13 3 8 c 0.68 0.98 2.77 2.1 4 2 c 5.62 -0.47 14.73 -1.37 20 -4 c 4.93 -2.47 9 -9.06 14 -13 c 6.03 -4.75 13.56 -7.94 19 -13 c 8.54 -7.94 16.83 -17.75 24 -27 c 2.93 -3.78 6.88 -11.51 7 -13 c 0.05 -0.62 -4.53 -0.01 -6 1 c -8.06 5.54 -17.16 13.6 -26 21 c -6 5.02 -11.63 9.63 -17 15 c -4.7 4.7 -9.32 9.77 -13 15 c -2.49 3.53 -4.74 8.04 -6 12 c -0.94 2.96 -1.21 7.26 -1 10 c 0.08 0.98 1.14 2.69 2 3 c 2.15 0.78 6.3 1.57 9 1 c 9.04 -1.9 20.47 -4.74 29 -9 c 8.65 -4.33 17.33 -11.36 25 -18 c 7.22 -6.25 13.26 -14.98 20 -21 c 2.08 -1.86 7.33 -3.19 8 -4 c 0.27 -0.32 -3.1 -1.9 -3 -2 c 0.11 -0.11 2.74 1.1 4 1 l 22 -3"/><path stroke-linejoin="round" stroke-linecap="round" stroke-width="2" stroke="rgb(52, 58, 64)" fill="none" d="M 358 34 l 1 1"/></svg>