<?xml version="1.0" encoding="UTF-8" standalone="no"?><!DOCTYPE svg PUBLIC "-//W3C//DTD SVG 1.1//EN" "http://www.w3.org/Graphics/SVG/1.1/DTD/svg11.dtd"><svg xmlns="http://www.w3.org/2000/svg" version="1.1" width="589" height="112"><path stroke-linejoin="round" stroke-linecap="round" stroke-width="2" stroke="rgb(52, 58, 64)" fill="none" d="M 1 49 c 0.09 0 3.68 -0.44 5 0 c 1.32 0.44 3.02 1.76 4 3 c 5.06 6.39 9.73 13.98 15 21 c 1.88 2.51 3.85 4.85 6 7 c 1.49 1.49 3.25 3.12 5 4 c 1.99 1 5.05 2.32 7 2 c 3.24 -0.54 7.91 -2.88 11 -5 c 2.89 -1.98 5.61 -5.13 8 -8 c 2.58 -3.1 5.34 -6.53 7 -10 c 1.85 -3.87 2.97 -8.52 4 -13 c 2.01 -8.72 4.23 -17.49 5 -26 c 0.53 -5.79 -0.27 -12.39 -1 -18 c -0.22 -1.68 -1.05 -4.68 -2 -5 c -1.29 -0.43 -5.72 0.63 -7 2 c -2.35 2.53 -5.01 7.87 -6 12 c -3.16 13.11 -6.22 28.41 -7 42 c -0.51 8.99 1.65 19.37 3 28 c 0.21 1.37 1.09 3.55 2 4 c 1.22 0.61 5.01 0.99 6 0 c 2.65 -2.65 6.49 -9.32 8 -14 c 1.6 -4.97 1.64 -11.24 2 -17 c 0.32 -5.04 0.24 -10.03 0 -15 c -0.1 -2.01 -1 -6.11 -1 -6 c 0 0.61 0.43 23.29 1 35 c 0.1 2.03 0.42 4.25 1 6 c 0.35 1.04 1.18 2.73 2 3 c 1.6 0.53 5.54 0.97 7 0 c 2.67 -1.78 5.77 -6.56 8 -10 c 1.32 -2.05 2.2 -4.6 3 -7 c 0.87 -2.6 1.59 -5.29 2 -8 c 0.59 -3.95 1.18 -8.19 1 -12 c -0.14 -2.91 -0.98 -7.98 -2 -9 c -0.6 -0.6 -4.01 1.01 -5 2 c -0.99 0.99 -1.42 3.27 -2 5 c -0.78 2.34 -1.74 4.69 -2 7 c -0.39 3.49 -0.85 8.12 0 11 c 0.6 2.04 3.23 4.42 5 6 c 1.02 0.9 2.69 1.74 4 2 c 1.76 0.35 4.33 -0.56 6 0 c 2.87 0.96 7.96 3.22 9 5 c 0.74 1.26 -0.75 5.5 -2 7 c -1.62 1.94 -5.84 4.46 -8 5 c -1.02 0.26 -4.34 -1.34 -4 -2 c 4.14 -8.12 20.33 -31.11 29 -47 c 3.18 -5.83 6.95 -18.65 7 -19 c 0.03 -0.23 -4.66 7.86 -6 12 c -2.57 7.94 -4.88 16.65 -6 25 c -1.18 8.78 -1 18.25 -1 27 c 0 1.65 0.38 3.6 1 5 c 0.61 1.37 2.4 4.3 3 4 c 1.13 -0.57 3.73 -5.2 5 -8 c 2.01 -4.41 2.91 -9.64 5 -14 c 1.83 -3.82 5.56 -9.99 7 -11 c 0.55 -0.39 2.47 2.56 3 4 c 1.65 4.48 2.07 10.76 4 15 c 1.14 2.52 4.03 6.3 6 7 c 1.76 0.63 6.06 -0.71 8 -2 c 2.5 -1.67 5.25 -5.21 7 -8 c 1.4 -2.25 2.37 -5.25 3 -8 c 2.02 -8.85 3.68 -18.05 5 -27 c 0.34 -2.28 0.45 -4.91 0 -7 c -0.49 -2.27 -2.02 -6.44 -3 -7 c -0.64 -0.37 -3.47 1.71 -4 3 c -2.63 6.44 -5.87 16.29 -7 24 c -0.77 5.25 0.07 11.62 1 17 c 0.69 4 2.4 8.58 4 12 c 0.54 1.15 1.99 2.78 3 3 c 1.45 0.32 4.24 -0.36 6 -1 c 1.69 -0.61 3.65 -1.8 5 -3 c 1.49 -1.32 3.05 -3.18 4 -5 c 2.6 -4.96 5.55 -10.74 7 -16 c 1.08 -3.93 1.05 -12.65 1 -13 c -0.02 -0.17 -1.57 3.95 -2 6 c -0.9 4.26 -1.82 8.77 -2 13 c -0.14 3.23 0.19 7.37 1 10 c 0.34 1.11 2.18 2.86 3 3 c 0.7 0.12 2.3 -1.13 3 -2 c 3.36 -4.13 9.04 -13.68 10 -14 c 0.62 -0.21 -1.66 9.94 -1 11 c 0.4 0.64 4.58 -1.58 6 -3 c 3.16 -3.16 5.87 -8.39 9 -12 c 1.04 -1.2 2.6 -2.13 4 -3 c 1.25 -0.78 2.86 -2 4 -2 c 1.38 0 3.9 1.06 5 2 c 0.91 0.78 1.59 2.64 2 4 c 0.55 1.85 0.89 3.99 1 6 c 0.22 3.97 0.28 7.97 0 12 c -0.4 5.75 -0.48 11.95 -2 17 c -1.31 4.36 -4.14 9.98 -7 13 c -2.16 2.29 -7.36 4.65 -10 5 c -1.38 0.18 -3.65 -1.8 -5 -3 c -1.49 -1.32 -3.38 -3.27 -4 -5 c -0.87 -2.45 -1.16 -6.17 -1 -9 c 0.16 -2.88 0.87 -6.28 2 -9 c 2.09 -5.02 4.95 -10.42 8 -15 c 2.16 -3.24 5.1 -6.44 8 -9 c 2.61 -2.3 5.9 -4.45 9 -6 c 2.72 -1.36 5.97 -2.29 9 -3 c 2.57 -0.61 5.73 -1.32 8 -1 c 1.89 0.27 4.3 1.76 6 3 c 1.8 1.31 3.95 3.21 5 5 c 1.08 1.85 1.67 4.7 2 7 l 0 7"/><path stroke-linejoin="round" stroke-linecap="round" stroke-width="2" stroke="rgb(52, 58, 64)" fill="none" d="M 276 102 c -0.04 -0.05 -1.6 -1.92 -2 -3 c -1.84 -5.01 -3.09 -10.68 -5 -16 c -1.12 -3.12 -2.92 -5.9 -4 -9 c -1.25 -3.58 -2.32 -7.24 -3 -11 c -1.33 -7.33 -3.19 -15.26 -3 -22 c 0.12 -4.42 2.29 -9.73 4 -14 c 0.84 -2.11 2.44 -4.44 4 -6 c 1.56 -1.56 3.99 -3.09 6 -4 c 1.42 -0.65 3.52 -1.13 5 -1 c 1.84 0.17 4.38 1.03 6 2 c 1.45 0.87 3.04 2.56 4 4 c 0.91 1.37 1.73 3.37 2 5 c 0.35 2.12 0.7 5.09 0 7 c -1.4 3.8 -4.33 8.57 -7 12 c -1.77 2.28 -4.67 4.64 -7 6 c -1.29 0.75 -3.52 1.13 -5 1 c -1.84 -0.17 -5.51 -1.01 -6 -2 c -0.49 -0.99 0.77 -4.69 2 -6 c 3.18 -3.4 8.84 -8.56 13 -10 c 3.31 -1.14 9.44 0.01 13 1 c 1.75 0.49 3.68 2.51 5 4 c 1.2 1.35 2.65 3.35 3 5 c 0.55 2.55 0.81 6.57 0 9 c -0.97 2.92 -3.87 6.16 -6 9 c -0.83 1.11 -1.93 2.39 -3 3 c -1.04 0.59 -2.75 1 -4 1 c -1.85 0 -5.56 -0.12 -6 -1 c -0.53 -1.06 0.98 -5.12 2 -7 c 0.8 -1.46 2.57 -2.73 4 -4 c 1.62 -1.44 3.24 -3.29 5 -4 c 2.81 -1.12 7.02 -2.16 10 -2 c 2.77 0.15 6.68 1.65 9 3 c 1.22 0.71 2.39 2.63 3 4 c 0.62 1.4 0.41 3.48 1 5 c 1.03 2.67 2.44 6.06 4 8 c 0.78 0.97 3.01 2.27 4 2 c 1.9 -0.52 5.69 -2.98 7 -5 c 1.92 -2.97 3.29 -8.09 4 -12 c 0.56 -3.09 0.63 -7.03 0 -10 c -0.62 -2.92 -3.05 -8.32 -4 -9 c -0.48 -0.34 -3 2.83 -3 4 c 0 1.78 1.92 4.62 3 7 c 0.64 1.4 1.05 3.15 2 4 c 1.71 1.52 4.89 3.47 7 4 c 1.34 0.33 3.84 -0.27 5 -1 c 1.14 -0.71 1.84 -2.84 3 -4 c 3.46 -3.46 8.51 -9 11 -10 c 0.95 -0.38 3.65 2.52 4 4 c 1.06 4.46 0.29 11.58 1 17 c 0.26 2.01 0.95 4.79 2 6 c 0.9 1.03 3.7 2 5 2 c 0.87 0 2.2 -1.2 3 -2 c 1.1 -1.1 2.43 -2.57 3 -4 c 1.3 -3.26 3 -7.8 3 -11 c 0 -2.4 -2 -7.29 -3 -8 c -0.58 -0.42 -3.36 1.84 -4 3 c -0.78 1.41 -1.3 4.38 -1 6 c 0.28 1.56 1.86 3.67 3 5 c 0.71 0.82 1.94 1.7 3 2 c 3.27 0.94 7.45 1.11 11 2 c 1.71 0.43 3.53 1.09 5 2 c 2.73 1.68 5.89 3.89 8 6 c 0.94 0.94 1.85 2.8 2 4 c 0.14 1.11 -0.4 2.91 -1 4 c -0.94 1.69 -2.53 3.53 -4 5 c -1.47 1.47 -3.5 3.5 -5 4 c -0.97 0.32 -3.63 -0.38 -4 -1 c -0.37 -0.62 0.37 -2.89 1 -4 c 1.87 -3.28 4.43 -6.79 7 -10 c 2.83 -3.53 6.3 -6.45 9 -10 c 2.62 -3.44 4.73 -7.22 7 -11 c 0.78 -1.3 2.14 -3.17 2 -4 c -0.11 -0.67 -2.21 -2 -3 -2 c -0.79 0 -2.33 1.19 -3 2 c -0.84 1 -1.59 2.64 -2 4 c -0.55 1.85 -1.23 4.19 -1 6 c 0.39 3.1 1.71 7.2 3 10 c 0.52 1.14 1.92 2.46 3 3 c 1.3 0.65 3.47 1 5 1 c 1.24 0 3 -0.28 4 -1 c 4.46 -3.22 9.36 -8.75 14 -12 c 1.59 -1.11 4.45 -2.26 6 -2 c 1.77 0.29 4.51 2.51 6 4 c 0.92 0.92 1.85 2.8 2 4 c 0.14 1.11 -0.65 4.09 -1 4 c -0.49 -0.12 -3.1 -3.59 -3 -5 c 0.17 -2.39 2.4 -6.41 4 -9 c 0.92 -1.49 2.59 -3.22 4 -4 c 1.27 -0.7 3.42 -1 5 -1 c 1.88 0 4.19 0.35 6 1 c 2.67 0.95 6.06 2.18 8 4 c 2.94 2.76 6.11 10.6 8 11 c 1.39 0.3 3.86 -5.64 6 -8 c 1.07 -1.18 2.56 -2.41 4 -3 c 3.92 -1.61 9.07 -3.84 13 -4 c 3.58 -0.14 8.3 1.69 12 3 c 1.74 0.62 3.65 1.8 5 3 c 1.49 1.32 2.43 3.88 4 5 c 2.75 1.96 6.95 4.89 10 5 c 4.76 0.18 12.48 -1.27 17 -4 l 36 -28"/></svg>