<?xml version="1.0" encoding="UTF-8" standalone="no"?><!DOCTYPE svg PUBLIC "-//W3C//DTD SVG 1.1//EN" "http://www.w3.org/Graphics/SVG/1.1/DTD/svg11.dtd"><svg xmlns="http://www.w3.org/2000/svg" version="1.1" width="279" height="97"><path stroke-linejoin="round" stroke-linecap="round" stroke-width="2" stroke="rgb(52, 58, 64)" fill="none" d="M 128 51 c -0.33 -0.21 -12.36 -8.45 -19 -12 c -7.8 -4.17 -15.87 -8.34 -24 -11 c -7.86 -2.56 -16.7 -3.99 -25 -5 c -5.21 -0.64 -10.81 -0.42 -16 0 c -2.99 0.24 -7.94 0.41 -9 2 c -1.5 2.26 -2.73 10.14 -1 13 c 4.6 7.6 15.02 19.99 24 25 c 14.5 8.1 34.95 13.74 53 18 c 24.18 5.71 48.83 9.14 74 12 c 19.5 2.22 38.7 3 58 3 c 9.36 0 20.28 -1.02 28 -3 c 2.53 -0.65 6.26 -3.78 7 -6 c 1.2 -3.61 2.2 -11.81 0 -15 c -5.82 -8.43 -18.35 -20.93 -29 -27 c -18.57 -10.58 -42.31 -19.96 -64 -26 c -24.21 -6.74 -50.03 -9.73 -76 -13 c -22.63 -2.85 -45.52 -5.22 -67 -5 c -9.78 0.1 -21.96 2.67 -30 6 c -4.09 1.7 -9.3 7.29 -11 11 c -1.42 3.1 -1.53 9.95 0 13 c 2.16 4.32 8.06 10.62 13 13 c 12.74 6.15 29.61 11.23 45 15 c 20.11 4.93 40.48 8.26 61 11 c 9.61 1.28 19.86 1.25 29 1 c 2.29 -0.06 6.24 -0.7 7 -2 c 1.04 -1.78 1.68 -8.32 0 -10 c -5.36 -5.36 -17.58 -13.28 -27 -17 c -16.55 -6.54 -35.84 -11.44 -54 -15 c -13.99 -2.74 -28.36 -3.02 -43 -4 c -5.76 -0.38 -13.24 -1.25 -17 0 c -1.78 0.59 -4.72 5.64 -4 7 c 1.46 2.76 8.28 8.38 13 10 c 17.8 6.1 39.41 10.85 60 15 c 19.87 4.01 38.8 6.19 59 9 c 4.41 0.61 12.89 1.34 13 1 c 0.11 -0.33 -7.88 -3.24 -12 -4 c -21.11 -3.89 -42.28 -7.71 -64 -10 c -16.78 -1.77 -43.6 -2.4 -50 -2 c -0.69 0.04 0.76 4.7 2 5 c 18.07 4.35 51.51 9.85 77 14 c 2.93 0.48 8.57 0.33 9 0 c 0.28 -0.21 -3.23 -2.25 -5 -3 c -6.84 -2.89 -13.85 -5.53 -21 -8 c -2.63 -0.91 -8.21 -1.92 -8 -2 c 0.33 -0.13 10.41 1.5 13 0 l 6 -11"/></svg>