<?xml version="1.0" encoding="UTF-8" standalone="no"?><!DOCTYPE svg PUBLIC "-//W3C//DTD SVG 1.1//EN" "http://www.w3.org/Graphics/SVG/1.1/DTD/svg11.dtd"><svg xmlns="http://www.w3.org/2000/svg" version="1.1" width="382" height="62"><path stroke-linejoin="round" stroke-linecap="round" stroke-width="2" stroke="rgb(52, 58, 64)" fill="none" d="M 41 55 c 0 -0.59 -0.27 -22.57 0 -34 c 0.06 -2.71 0.57 -5.26 1 -8 c 0.6 -3.8 0.89 -8.78 2 -11 c 0.41 -0.82 2.85 -1.13 4 -1 c 1.5 0.17 3.67 1.03 5 2 c 2.09 1.52 5.28 3.83 6 6 c 1.28 3.85 1.63 10.47 1 15 c -0.62 4.48 -2.53 10.36 -5 14 c -2.71 3.98 -7.86 8.58 -12 11 c -3.15 1.84 -7.92 2.34 -12 3 c -6.31 1.02 -12.55 1.57 -19 2 c -3.71 0.25 -10.75 0.17 -11 0 c -0.19 -0.12 5.34 -1.91 8 -2 c 15.8 -0.55 32.14 -0.25 49 0 c 6.55 0.1 12.98 1.39 19 1 c 3.91 -0.25 8.53 -1.33 12 -3 c 5.06 -2.44 11.69 -8.71 15 -10 c 0.78 -0.3 2.39 1.87 3 3 c 1.24 2.27 1.59 7.23 3 8 c 1.36 0.74 5.74 -0.81 8 -2 c 4.34 -2.27 8.56 -6.33 13 -9 c 2.14 -1.28 5.18 -1.73 7 -3 c 1.2 -0.84 1.78 -3.29 3 -4 c 2.32 -1.35 6.09 -2.38 9 -3 c 1.54 -0.33 4.44 -0.81 5 0 c 1.15 1.65 0.96 7.29 2 10 c 0.43 1.13 2.18 2.86 3 3 c 0.7 0.12 1.97 -1.61 3 -2 c 1.46 -0.55 3.33 -0.89 5 -1 c 3.27 -0.22 8.39 -1.02 10 0 c 1.14 0.72 0.43 4.74 1 7 c 0.76 3.04 1.51 8.43 3 9 c 1.69 0.65 7.37 -2.46 10 -4 c 0.88 -0.51 1.45 -3 2 -3 c 0.65 0 2.39 1.93 3 3 c 0.59 1.04 0.4 2.91 1 4 c 0.94 1.69 2.52 4.38 4 5 c 1.85 0.77 5.59 0.57 8 0 c 4.19 -1 8.88 -2.89 13 -5 c 8.88 -4.56 17.56 -9.5 26 -15 c 6.02 -3.92 11.51 -8.39 17 -13 c 2.9 -2.44 5.9 -5.27 8 -8 c 1 -1.3 2.04 -5.09 2 -5 c -0.16 0.37 -6.22 13.81 -9 21 c -1.27 3.28 -2.65 6.85 -3 10 c -0.27 2.43 0.42 5.47 1 8 c 0.39 1.69 1.06 3.9 2 5 c 0.78 0.91 3.04 2.32 4 2 c 2.15 -0.72 5.17 -4.3 8 -6 c 3.8 -2.28 8.02 -5.56 12 -6 c 12.45 -1.38 27.47 0.21 42 0 c 9.69 -0.14 18.41 -0.4 28 -1 c 6.88 -0.43 20.34 -1.93 20 -2 c -0.51 -0.1 -20.07 0.81 -30 0 c -10.4 -0.85 -20.44 -2.89 -31 -5 c -15.17 -3.03 -28.77 -6.95 -44 -10 c -15.76 -3.15 -32.29 -8.37 -46 -8 c -9.01 0.24 -19.67 6 -29 10 l -20 11"/></svg>