<?xml version="1.0" encoding="UTF-8" standalone="no"?><!DOCTYPE svg PUBLIC "-//W3C//DTD SVG 1.1//EN" "http://www.w3.org/Graphics/SVG/1.1/DTD/svg11.dtd"><svg xmlns="http://www.w3.org/2000/svg" version="1.1" width="540" height="164"><path stroke-linejoin="round" stroke-linecap="round" stroke-width="2" stroke="rgb(52, 58, 64)" fill="none" d="M 268 43 l 1 1"/><path stroke-linejoin="round" stroke-linecap="round" stroke-width="2" stroke="rgb(52, 58, 64)" fill="none" d="M 1 71 c 0.21 0 8.11 0.37 12 0 c 2.99 -0.28 6.16 -1 9 -2 c 3.73 -1.3 7.59 -2.99 11 -5 c 3.83 -2.27 7.81 -4.93 11 -8 c 5.32 -5.12 10.16 -11.15 15 -17 c 1.54 -1.86 2.82 -3.87 4 -6 c 4.24 -7.68 8.66 -15.38 12 -23 c 1.19 -2.71 2.11 -8.22 2 -9 c -0.04 -0.3 -2.18 1.18 -3 2 c -2.41 2.41 -4.97 5.1 -7 8 c -4.98 7.12 -9.86 14.29 -14 22 c -5.61 10.45 -10.48 20.98 -15 32 c -3.24 7.89 -5.68 15.67 -8 24 c -5.21 18.69 -9.58 36.44 -14 55 c -0.63 2.64 -0.33 5.47 -1 8 c -0.97 3.68 -3.27 10.02 -4 11 c -0.23 0.3 -2.1 -2.06 -2 -3 c 0.71 -6.37 3.13 -15.8 5 -24 c 0.87 -3.81 1.67 -7.41 3 -11 c 3.04 -8.18 6.15 -16.14 10 -24 c 3.91 -7.99 8.27 -15.35 13 -23 c 4.13 -6.66 8.16 -13.02 13 -19 c 6.55 -8.1 13.85 -16.33 21 -23 c 2.36 -2.21 6.57 -4.44 9 -5 c 1.05 -0.24 4.1 1.19 4 2 c -0.34 2.74 -3.42 9.78 -6 14 c -4.61 7.55 -10.05 15.06 -16 22 c -10.21 11.91 -31.38 32.92 -32 34 c -0.32 0.55 13.08 -9.16 20 -13 c 5.06 -2.81 10.71 -5.08 16 -7 c 1.84 -0.67 5.45 -1.66 6 -1 c 0.64 0.76 -0.28 4.85 -1 7 c -1.54 4.63 -4.37 9.35 -6 14 c -0.65 1.86 -0.45 4.15 -1 6 c -0.41 1.36 -1.78 2.68 -2 4 c -0.39 2.35 -0.52 5.74 0 8 c 0.38 1.65 1.73 4.11 3 5 c 1.59 1.11 4.88 2.23 7 2 c 6.29 -0.67 14.46 -2.82 21 -5 c 3.12 -1.04 6.35 -3.06 9 -5 c 2.18 -1.6 4.07 -3.88 6 -6 c 1.45 -1.6 3.35 -3.37 4 -5 c 0.51 -1.28 -0.46 -3.77 0 -5 c 0.39 -1.04 1.87 -2.57 3 -3 c 2.71 -1.04 6.69 -1.1 10 -2 c 4.1 -1.12 11.69 -4.21 12 -4 c 0.27 0.18 -6.19 3.84 -9 6 c -1.47 1.13 -3.22 2.59 -4 4 c -0.7 1.27 -1.27 3.66 -1 5 c 0.31 1.53 1.86 3.67 3 5 c 0.71 0.82 1.93 1.59 3 2 c 3.09 1.19 6.85 2.65 10 3 c 2.43 0.27 5.47 -0.42 8 -1 c 1.69 -0.39 3.47 -1.11 5 -2 c 4.74 -2.74 9.9 -5.86 14 -9 c 1.23 -0.94 1.87 -2.87 3 -4 c 1.13 -1.13 2.56 -2.19 4 -3 c 3.86 -2.17 8.04 -4.8 12 -6 l 11 -1"/><path stroke-linejoin="round" stroke-linecap="round" stroke-width="2" stroke="rgb(52, 58, 64)" fill="none" d="M 206 95 c -0.17 -0.04 -6.99 -2.15 -10 -2 c -3.08 0.15 -7.01 1.58 -10 3 c -3.1 1.47 -6.44 3.9 -9 6 c -0.85 0.7 -1.22 2.22 -2 3 c -0.78 0.78 -2.29 1.18 -3 2 c -1.14 1.33 -2.69 3.47 -3 5 c -0.27 1.34 0.34 3.84 1 5 c 0.47 0.82 2 1.75 3 2 c 1.38 0.34 3.44 0.31 5 0 c 3.25 -0.65 7.19 -1.45 10 -3 c 3.45 -1.9 7.14 -5.14 10 -8 c 1.61 -1.61 2.99 -3.99 4 -6 c 0.57 -1.15 0.7 -4.18 1 -4 c 0.59 0.35 2.42 5.24 4 7 c 1.14 1.27 3.44 2.72 5 3 c 1.62 0.3 4.12 -0.42 6 -1 c 2.35 -0.72 4.79 -1.75 7 -3 c 5.47 -3.09 10.82 -7.29 16 -10 c 1.4 -0.73 3.47 -1 5 -1 c 1.24 0 2.87 0.44 4 1 c 1.37 0.68 3.09 1.79 4 3 c 1.87 2.5 3.18 6.27 5 9 c 0.75 1.13 1.93 2.39 3 3 c 1.04 0.59 2.73 1 4 1 c 2.17 0 5.05 -0.29 7 -1 c 1.38 -0.5 2.58 -2.29 4 -3 l 8 -3"/><path stroke-linejoin="round" stroke-linecap="round" stroke-width="2" stroke="rgb(52, 58, 64)" fill="none" d="M 346 41 c -0.19 -0.28 -7.04 -11.62 -11 -16 c -1.93 -2.13 -5.34 -3.67 -8 -5 c -1.16 -0.58 -2.74 -1.07 -4 -1 c -4.01 0.24 -9.19 0.67 -13 2 c -3.38 1.18 -6.96 3.68 -10 6 c -3.88 2.96 -7.83 6.36 -11 10 c -3.37 3.87 -6.64 8.41 -9 13 c -3.88 7.55 -7.84 16.15 -10 24 c -1.33 4.84 -1 10.75 -1 16 c 0 2.31 0.26 4.88 1 7 c 1.5 4.29 3.74 9.17 6 13 c 0.89 1.51 2.5 3 4 4 c 3.32 2.21 7.38 4.59 11 6 c 2.04 0.79 4.69 1 7 1 c 4.91 0 10.53 0.33 15 -1 c 7.18 -2.13 14.95 -6.35 22 -10 c 2.51 -1.3 5.02 -3.02 7 -5 c 5.54 -5.54 10.84 -11.81 16 -18 c 1.54 -1.85 2.94 -3.88 4 -6 c 1.91 -3.82 3.64 -7.93 5 -12 c 0.96 -2.89 2 -6.33 2 -9 c 0 -1.83 -0.87 -5.12 -2 -6 c -1.27 -0.98 -4.9 -1.32 -7 -1 c -4.05 0.61 -9.17 2.3 -13 4 c -1.8 0.8 -3.42 2.53 -5 4 c -3.15 2.92 -6.74 5.77 -9 9 c -2.15 3.07 -3.44 7.22 -5 11 c -0.81 1.98 -1.75 4.03 -2 6 c -0.39 3.12 -0.75 7.16 0 10 c 0.77 2.92 3.13 6.3 5 9 c 1.03 1.48 2.58 2.93 4 4 c 1.12 0.84 2.64 1.59 4 2 c 1.85 0.55 4.04 1 6 1 c 3.88 0 8.36 0.06 12 -1 c 6.23 -1.81 12.89 -5.07 19 -8 c 2.14 -1.03 4.35 -2.35 6 -4 c 7.44 -7.44 21.62 -23.58 22 -24 c 0.07 -0.07 -2.93 2.53 -4 4 c -1.52 2.09 -3.04 4.61 -4 7 c -0.98 2.45 -2 5.59 -2 8 c 0 2.12 0.9 5.27 2 7 c 0.97 1.52 3.3 3.76 5 4 c 4.25 0.61 11.57 0.7 16 -1 c 7.44 -2.86 15.93 -8.75 23 -14 c 5.76 -4.28 11.18 -9.93 16 -15 c 1.28 -1.35 2.56 -5.11 3 -5 c 0.46 0.12 0.24 4.47 1 6 c 0.71 1.42 2.59 2.79 4 4 c 0.9 0.77 1.94 1.62 3 2 c 2.42 0.88 5.47 2.17 8 2 c 11.14 -0.76 23.83 -2.93 36 -5 c 5.85 -0.99 12.5 -3.55 17 -4 c 0.93 -0.09 2.53 1.18 3 2 c 0.66 1.16 0.3 3.59 1 5 l 7 11"/></svg>