<?xml version="1.0" encoding="UTF-8" standalone="no"?><!DOCTYPE svg PUBLIC "-//W3C//DTD SVG 1.1//EN" "http://www.w3.org/Graphics/SVG/1.1/DTD/svg11.dtd"><svg xmlns="http://www.w3.org/2000/svg" version="1.1" width="312" height="107"><path stroke-linejoin="round" stroke-linecap="round" stroke-width="2" stroke="rgb(52, 58, 64)" fill="none" d="M 1 73 c 1.14 0.16 43.17 7.76 65 9 c 25.29 1.43 50.39 0.65 76 -1 c 21.73 -1.4 42.72 -4.08 64 -8 c 17.05 -3.14 34.3 -7.16 50 -13 c 12.37 -4.6 24.75 -11.91 36 -19 c 6.48 -4.08 14.03 -10.19 18 -15 c 1.37 -1.65 1.97 -6.24 1 -8 c -2.03 -3.7 -7.73 -9.56 -12 -12 c -4.15 -2.37 -10.64 -3.28 -16 -4 c -6.83 -0.92 -14.69 -2.18 -21 -1 c -8.64 1.62 -18.75 5.71 -27 10 c -8.67 4.5 -17.3 10.7 -25 17 c -6.84 5.6 -12.88 12.24 -19 19 c -6.79 7.51 -13.03 14.97 -19 23 c -3.78 5.08 -6.88 10.41 -10 16 c -3.33 5.96 -5.83 13.77 -9 18 c -1 1.33 -4.02 1.89 -6 2 c -9.41 0.52 -19.83 0.61 -30 0 c -18.39 -1.09 -52.61 -4.76 -54 -5 c -0.36 -0.06 9.2 -1.6 14 -2 c 11.57 -0.96 22.18 -1.47 34 -2 c 19.45 -0.86 36.67 -1.88 56 -2 c 36.57 -0.23 106 1 106 1"/></svg>