<?xml version="1.0" encoding="UTF-8" standalone="no"?><!DOCTYPE svg PUBLIC "-//W3C//DTD SVG 1.1//EN" "http://www.w3.org/Graphics/SVG/1.1/DTD/svg11.dtd"><svg xmlns="http://www.w3.org/2000/svg" version="1.1" width="488" height="89"><path stroke-linejoin="round" stroke-linecap="round" stroke-width="2" stroke="rgb(52, 58, 64)" fill="none" d="M 60 12 c 0.75 0.18 28.34 7.33 43 10 c 11.37 2.07 22.4 3.5 34 4 c 35.58 1.54 68.68 1.77 105 2 c 19.37 0.12 37.94 1.17 56 -1 c 14.62 -1.75 30.53 -6.68 44 -11 c 3.21 -1.03 6.95 -3.95 9 -6 c 0.78 -0.78 1.52 -3.4 1 -4 c -0.96 -1.11 -4.62 -2.43 -7 -3 c -4.41 -1.05 -9.63 -2.27 -14 -2 c -5.7 0.36 -11.89 2.34 -18 4 c -17.92 4.86 -34.12 9.55 -52 15 c -10.45 3.19 -19.9 6.21 -30 10 c -9.02 3.38 -17.63 6.73 -26 11 c -7.32 3.74 -13.9 8.31 -21 13 c -12.21 8.07 -23.06 18.12 -35 24 c -9.35 4.61 -21.38 7.87 -32 9 c -19.81 2.11 -40.94 1.24 -62 1 c -8.86 -0.1 -17.27 -0.89 -26 -2 c -7.16 -0.91 -14.24 -2.31 -21 -4 c -2.41 -0.6 -6.32 -1.77 -7 -3 c -0.57 -1.02 0.72 -5.14 2 -6 c 2.76 -1.84 8.57 -3.11 13 -4 c 7.23 -1.45 14.54 -2.69 22 -3 c 25.21 -1.04 49.21 -1.67 75 -1 c 66.41 1.73 126.71 4.35 193 8 c 21.03 1.16 39.88 4.29 61 6 c 17.26 1.4 32.98 1.42 50 3 c 12.35 1.15 23.87 4.13 36 5 c 11.35 0.81 34 0 34 0"/></svg>