<?xml version="1.0" encoding="UTF-8" standalone="no"?><!DOCTYPE svg PUBLIC "-//W3C//DTD SVG 1.1//EN" "http://www.w3.org/Graphics/SVG/1.1/DTD/svg11.dtd"><svg xmlns="http://www.w3.org/2000/svg" version="1.1" width="374" height="208"><path stroke-linejoin="round" stroke-linecap="round" stroke-width="2" stroke="rgb(52, 58, 64)" fill="none" d="M 249 73 c 0 -0.42 -0.64 -15.94 0 -24 c 1.38 -17.25 3.5 -34.6 6 -51 c 0.42 -2.73 2.68 -5.37 3 -8 c 0.63 -5.23 -0.43 -11.31 0 -17 c 0.58 -7.76 2.3 -15.25 3 -23 c 0.3 -3.34 -0.35 -6.66 0 -10 c 1.67 -16.17 6 -48 6 -48"/><path stroke-linejoin="round" stroke-linecap="round" stroke-width="2" stroke="rgb(52, 58, 64)" fill="none" d="M 149 67 c 0 -0.68 -0.24 -25.62 0 -39 c 0.1 -5.5 0.36 -10.59 1 -16 c 1.06 -8.88 2.54 -16.99 4 -26 c 0.62 -3.83 0.98 -7.43 2 -11 c 1.65 -5.76 3.73 -11.32 6 -17 c 1.81 -4.51 3.82 -9.12 6 -13 l 3 -3"/><path stroke-linejoin="round" stroke-linecap="round" stroke-width="2" stroke="rgb(52, 58, 64)" fill="none" d="M 51 22 c -0.1 0.26 -3.51 10.26 -6 15 c -4.16 7.9 -9 15.62 -14 23 c -1.97 2.91 -4.41 5.87 -7 8 c -2.84 2.34 -9.41 6.78 -10 6 c -0.73 -0.98 2.11 -9.67 4 -14 c 2.68 -6.12 6.19 -12.36 10 -18 c 3.82 -5.64 8.18 -12.31 13 -16 c 4.3 -3.29 11.2 -5 17 -7 c 3.9 -1.35 8.31 -2.82 12 -3 c 2.75 -0.13 6.92 0.66 9 2 c 1.94 1.25 5 4.89 5 7 c 0 3.87 -2.5 10.76 -5 15 c -3.82 6.5 -9.57 12.91 -15 19 c -5.71 6.4 -11.59 12.48 -18 18 c -5.59 4.81 -11.74 8.96 -18 13 c -4.16 2.68 -8.74 5.45 -13 7 c -2.62 0.95 -6.82 1.62 -9 1 c -1.7 -0.49 -5.59 -4.05 -5 -5 c 1.56 -2.49 9.72 -7.53 15 -11 c 6.62 -4.35 13 -8.5 20 -12 c 9.81 -4.9 19.77 -9.65 30 -13 c 9.94 -3.26 20.36 -5.05 31 -7 c 9.81 -1.8 19.23 -3.29 29 -4 c 8.68 -0.63 17.66 -1.26 26 0 c 15.48 2.33 31.53 6.61 47 11 c 6.91 1.96 13.09 5.58 20 8 c 6.7 2.35 13.36 5.22 20 6 c 12.73 1.49 27.28 2.43 40 1 c 13.11 -1.47 26.91 -5.75 40 -10 c 11.67 -3.79 23.57 -8.4 34 -14 l 20 -15"/></svg>