<?xml version="1.0" encoding="UTF-8" standalone="no"?><!DOCTYPE svg PUBLIC "-//W3C//DTD SVG 1.1//EN" "http://www.w3.org/Graphics/SVG/1.1/DTD/svg11.dtd"><svg xmlns="http://www.w3.org/2000/svg" version="1.1" width="396" height="214"><path stroke-linejoin="round" stroke-linecap="round" stroke-width="2" stroke="rgb(52, 58, 64)" fill="none" d="M 75 1 c -0.12 0.02 -4.88 0.35 -7 1 c -2.01 0.62 -4.93 1.45 -6 3 c -4.14 5.98 -8.12 15.03 -12 23 c -2.28 4.68 -6 14 -6 14"/><path stroke-linejoin="round" stroke-linecap="round" stroke-width="2" stroke="rgb(52, 58, 64)" fill="none" d="M 76 71 c -0.09 0.07 -4.1 2.3 -5 4 c -10 18.88 -20.8 41.72 -31 64 c -8.42 18.39 -14.55 38.06 -23 54 c -2.44 4.61 -8.67 7.84 -12 12 c -1.76 2.19 -4 8 -4 8"/><path stroke-linejoin="round" stroke-linecap="round" stroke-width="2" stroke="rgb(52, 58, 64)" fill="none" d="M 4 96 c 0.28 -0.4 9.83 -16.31 16 -23 c 9.51 -10.3 20.84 -19.99 32 -29 c 6.16 -4.98 20 -13 20 -13"/><path stroke-linejoin="round" stroke-linecap="round" stroke-width="2" stroke="rgb(52, 58, 64)" fill="none" d="M 86 89 l 1 1"/><path stroke-linejoin="round" stroke-linecap="round" stroke-width="2" stroke="rgb(52, 58, 64)" fill="none" d="M 77 125 l 1 1"/><path stroke-linejoin="round" stroke-linecap="round" stroke-width="2" stroke="rgb(52, 58, 64)" fill="none" d="M 74 54 l 2 -3"/><path stroke-linejoin="round" stroke-linecap="round" stroke-width="2" stroke="rgb(52, 58, 64)" fill="none" d="M 207 52 l -31 26"/><path stroke-linejoin="round" stroke-linecap="round" stroke-width="2" stroke="rgb(52, 58, 64)" fill="none" d="M 73 94 l 1 1"/><path stroke-linejoin="round" stroke-linecap="round" stroke-width="2" stroke="rgb(52, 58, 64)" fill="none" d="M 168 50 c -0.03 0.1 -1.01 4.19 -2 6 c -4.56 8.32 -15 25 -15 25"/><path stroke-linejoin="round" stroke-linecap="round" stroke-width="2" stroke="rgb(52, 58, 64)" fill="none" d="M 201 85 l 1 1"/><path stroke-linejoin="round" stroke-linecap="round" stroke-width="2" stroke="rgb(52, 58, 64)" fill="none" d="M 395 93 l 1 1"/></svg>