<?xml version="1.0" encoding="UTF-8" standalone="no"?><!DOCTYPE svg PUBLIC "-//W3C//DTD SVG 1.1//EN" "http://www.w3.org/Graphics/SVG/1.1/DTD/svg11.dtd"><svg xmlns="http://www.w3.org/2000/svg" version="1.1" width="603" height="143"><path stroke-linejoin="round" stroke-linecap="round" stroke-width="2" stroke="rgb(52, 58, 64)" fill="none" d="M 36 38 l 3 2"/><path stroke-linejoin="round" stroke-linecap="round" stroke-width="2" stroke="rgb(52, 58, 64)" fill="none" d="M 89 59 c 0.17 -0.07 6.84 -2.35 10 -4 c 4.48 -2.34 9.38 -4.84 13 -8 c 4.03 -3.53 7.44 -8.49 11 -13 c 1.51 -1.91 2.99 -3.99 4 -6 c 0.57 -1.15 1.46 -3.73 1 -4 c -0.67 -0.4 -4.34 0.17 -6 1 c -4.54 2.27 -10.08 5.7 -14 9 c -2.03 1.71 -3.12 4.96 -5 7 c -2.02 2.19 -4.89 3.77 -7 6 c -4.23 4.45 -7.68 9.52 -12 14 c -4.81 4.99 -10.23 8.96 -15 14 c -7.09 7.49 -13.04 15.8 -20 23 c -2.6 2.69 -6.28 4.47 -9 7 c -1.87 1.73 -3.12 4.55 -5 6 c -2.16 1.66 -5.45 2.44 -8 4 c -3.47 2.12 -6.53 5.09 -10 7 c -3.06 1.68 -6.8 3.15 -10 4 c -1.49 0.4 -4.24 0.63 -5 0 c -0.77 -0.64 -1.4 -3.7 -1 -5 c 0.74 -2.4 3.06 -5.54 5 -8 c 4.38 -5.54 9.04 -11.25 14 -16 c 2.85 -2.73 6.49 -5.1 10 -7 c 4.38 -2.37 10.08 -5.44 14 -6 c 1.96 -0.28 5.64 1.44 7 3 c 2.39 2.76 4.54 8.05 6 12 c 0.77 2.08 0.09 5.08 1 7 c 1.85 3.91 5.01 9.36 8 12 c 1.97 1.73 6.39 3.23 9 3 c 4.09 -0.36 9.96 -3.1 14 -5 l 3 -3"/><path stroke-linejoin="round" stroke-linecap="round" stroke-width="2" stroke="rgb(52, 58, 64)" fill="none" d="M 110 88 c -0.05 0.04 -2.2 1.2 -3 2 c -1.1 1.1 -2.14 2.57 -3 4 c -2.15 3.59 -5.18 7.55 -6 11 c -0.66 2.77 -0.56 8.55 1 10 c 2.07 1.92 9.27 3 13 3 c 2.13 0 4.76 -1.81 7 -3 c 2.77 -1.48 5.55 -3.16 8 -5 c 1.47 -1.1 2.7 -2.57 4 -4 c 2.12 -2.33 4.35 -4.52 6 -7 c 1.6 -2.4 4.07 -8.14 4 -8 c -0.09 0.18 -3.67 6.67 -5 10 c -0.61 1.52 -1.3 3.6 -1 5 c 0.58 2.71 2.28 6.76 4 9 c 1.26 1.64 3.99 2.99 6 4 l 4 1"/><path stroke-linejoin="round" stroke-linecap="round" stroke-width="2" stroke="rgb(52, 58, 64)" fill="none" d="M 264 49 c -0.19 -0.12 -7.61 -6.23 -11 -7 c -2.91 -0.66 -7.59 1 -11 2 c -2.05 0.6 -4.35 1.65 -6 3 c -5.39 4.41 -11.17 9.63 -16 15 c -4.1 4.55 -7.79 9.86 -11 15 c -1.7 2.72 -3.21 6 -4 9 c -0.8 3.06 -1.21 7.26 -1 10 c 0.08 0.98 1.22 3.04 2 3 c 3.98 -0.2 12.68 -1.81 18 -4 c 5.45 -2.24 10.76 -6.31 16 -10 c 7.34 -5.16 14.8 -10.54 21 -16 c 1.69 -1.49 2.47 -4.14 4 -6 c 3.15 -3.82 7.13 -7.04 10 -11 c 4.07 -5.62 7.91 -11.83 11 -18 c 2.17 -4.35 3.17 -9.56 5 -14 c 0.44 -1.08 1.95 -3.16 2 -3 c 0.09 0.27 -0.28 4.19 -1 6 c -3.14 7.86 -6.95 15.9 -11 24 c -4.87 9.75 -9.6 18.5 -15 28 c -4.58 8.05 -9.67 14.96 -14 23 c -5.18 9.62 -9.16 19.6 -14 29 c -0.75 1.46 -3.05 4.07 -3 4 c 0.31 -0.48 11.33 -18.71 18 -27 c 5.52 -6.87 12.43 -13.13 19 -19 c 2.65 -2.36 5.87 -4.26 9 -6 c 2.85 -1.58 5.87 -2.66 9 -4 c 1.71 -0.73 3.37 -1.7 5 -2 c 1.82 -0.33 5.19 -0.81 6 0 c 0.95 0.95 1.12 4.78 1 7 c -0.19 3.51 -1.08 7.32 -2 11 c -1.8 7.18 -3.64 13.92 -6 21 c -3.45 10.36 -10.18 28.36 -11 30 c -0.16 0.31 -1 -4.03 -1 -6 c 0 -5.2 0.25 -10.64 1 -16 c 1.62 -11.54 2.99 -23.36 6 -34 c 1.83 -6.48 5.66 -12.98 9 -19 c 1.59 -2.86 3.77 -5.44 6 -8 c 6.94 -7.97 13.57 -15.99 21 -23 c 4.43 -4.19 9.84 -7.64 15 -11 c 2.48 -1.62 5.45 -2.44 8 -4 c 3.47 -2.12 6.48 -5.03 10 -7 c 4.77 -2.67 9.78 -4.63 15 -7 c 2.4 -1.09 4.59 -2.24 7 -3 l 12 -3"/><path stroke-linejoin="round" stroke-linecap="round" stroke-width="2" stroke="rgb(52, 58, 64)" fill="none" d="M 357 106 c -0.24 -0.09 -9.86 -4.66 -14 -5 c -2.91 -0.24 -7.19 1.41 -10 3 c -4.42 2.5 -9.52 6.33 -13 10 c -2.48 2.61 -4.43 6.54 -6 10 c -1.7 3.75 -4.78 11.44 -4 12 c 0.81 0.58 8.15 -4.06 11 -7 c 7.3 -7.53 19.14 -26.35 21 -26 c 1.64 0.31 -4.02 19.67 -5 29 c -0.3 2.87 0.13 7.26 1 9 c 0.4 0.79 2.95 1.15 4 1 c 0.92 -0.13 2.22 -1.16 3 -2 c 3.7 -3.97 7.58 -8.44 11 -13 c 2.62 -3.49 5.01 -7.08 7 -11 c 12.19 -24.09 24.84 -47.97 35 -72 c 3.26 -7.72 6.29 -25.35 6 -25 c -0.37 0.44 -6.93 20.61 -11 31 c -2.05 5.23 -4.88 9.77 -7 15 c -3.68 9.1 -7.18 17.72 -10 27 c -2.92 9.62 -5.9 19.96 -7 29 c -0.45 3.69 0.95 10.5 2 12 c 0.47 0.67 3.5 -1.12 5 -2 c 2.4 -1.4 5.09 -3.09 7 -5 c 1.91 -1.91 3.7 -4.53 5 -7 c 1.97 -3.74 2.97 -8.28 5 -12 c 1.91 -3.49 5.44 -6.56 7 -10 c 1.58 -3.48 1.23 -8.47 3 -12 c 6.91 -13.82 17.06 -28.68 24 -42 c 0.87 -1.68 1.09 -6.16 1 -6 c -0.51 0.95 -9.3 21.37 -15 32 c -12.06 22.49 -36.62 63.75 -37 65 c -0.26 0.86 19.52 -28.12 30 -42 c 3.02 -4 6.47 -7.29 10 -11 c 3.36 -3.53 6.42 -7.1 10 -10 c 3.3 -2.67 7.81 -4.41 11 -7 c 1.91 -1.55 3.12 -4.41 5 -6 c 2.27 -1.92 6.14 -4.66 8 -5 c 0.84 -0.15 3.25 2.17 3 3 c -0.93 3.17 -4.65 9.95 -8 14 c -12.35 14.92 -27.01 31.01 -40 44 c -1.95 1.95 -5.84 2.43 -8 4 c -1.21 0.88 -3.13 3.24 -3 4 c 0.11 0.68 2.74 2 4 2 c 3.7 0 8.57 -1.19 13 -2 c 3.11 -0.57 6.19 -1.01 9 -2 c 2.72 -0.96 5.67 -2.3 8 -4 c 4.81 -3.5 9.74 -7.6 14 -12 c 5.73 -5.92 10.93 -12.39 16 -19 c 2.66 -3.47 7.07 -11.22 7 -11 c -0.09 0.27 -5.48 9.11 -8 14 c -2.94 5.7 -5.91 11.43 -8 17 c -0.79 2.1 -0.24 5.02 -1 7 c -0.78 2.02 -3.16 3.98 -4 6 c -0.71 1.7 -1.18 4.39 -1 6 c 0.11 0.95 1.29 2.9 2 3 c 1.06 0.15 3.78 -0.89 5 -2 c 13.26 -12.13 37.95 -37.72 42 -41 c 0.48 -0.39 0.27 4.72 0 7 c -0.39 3.32 -2.33 8.19 -2 10 c 0.13 0.73 3 1.42 4 1 c 4.23 -1.78 10.2 -5.68 15 -9 c 3.9 -2.7 7.11 -6.2 11 -9 c 4.56 -3.28 9.46 -5.66 14 -9 c 6.98 -5.14 13.73 -10.51 20 -16 c 1.57 -1.37 4.22 -4.78 4 -5 c -0.23 -0.23 -4.15 1.77 -6 3 c -5.13 3.42 -10.02 7.05 -15 11 c -4.93 3.91 -14.91 11.79 -14 12 c 1.58 0.37 20.49 -5.76 31 -8 c 5.29 -1.13 10.94 -1.76 16 -2 c 1.6 -0.08 5.14 0.3 5 1 c -0.44 2.2 -4.6 10.28 -8 14 c -6.73 7.36 -15.5 14.5 -24 21 c -8.65 6.61 -17.82 12.59 -27 18 c -3.68 2.17 -7.94 3.71 -12 5 c -3.19 1.01 -6.68 1.59 -10 2 c -1.95 0.24 -4.32 0.46 -6 0 c -1.63 -0.44 -3.82 -1.82 -5 -3 c -0.91 -0.91 -2 -2.77 -2 -4 c 0 -2.53 0.58 -6.67 2 -9 c 2.83 -4.65 7.78 -9.33 12 -14 c 2.27 -2.51 4.47 -5.11 7 -7 c 2.63 -1.97 5.87 -3.75 9 -5 c 5.09 -2.04 11.09 -4.11 16 -5 c 1.78 -0.32 4.15 0.45 6 1 c 1.36 0.41 2.92 1.08 4 2 c 5.63 4.82 11.21 11.37 17 16 c 2.22 1.77 5.23 2.94 8 4 c 4.21 1.61 8.53 2.88 13 4 c 5.03 1.26 9.9 2.24 15 3 l 12 1"/></svg>