<?xml version="1.0" encoding="UTF-8" standalone="no"?><!DOCTYPE svg PUBLIC "-//W3C//DTD SVG 1.1//EN" "http://www.w3.org/Graphics/SVG/1.1/DTD/svg11.dtd"><svg xmlns="http://www.w3.org/2000/svg" version="1.1" width="473" height="104"><path stroke-linejoin="round" stroke-linecap="round" stroke-width="2" stroke="rgb(52, 58, 64)" fill="none" d="M 225 22 c -0.09 -0.03 -3.34 -1.97 -5 -2 c -38.75 -0.59 -86.57 -4.22 -126 0 c -20.09 2.15 -42.04 12.14 -61 20 c -7.46 3.09 -15.51 8.69 -21 14 c -4.1 3.97 -8.19 10.74 -10 16 c -1.54 4.47 -1 10.61 -1 16 c 0 5.39 -1.92 15.79 1 16 c 43.67 3.08 171.52 5.34 240 1 c 9.5 -0.6 22.09 -10.97 28 -18 c 4.88 -5.81 7.06 -17.61 9 -26 c 0.91 -3.96 1.02 -9.36 0 -13 c -1.09 -3.9 -3.97 -9.34 -7 -12 c -4.49 -3.95 -11.91 -8.1 -18 -10 c -8.08 -2.51 -17.92 -3.35 -27 -4 c -9.65 -0.69 -19.74 -1.16 -29 0 c -8.9 1.11 -19.17 3.67 -27 7 c -4.61 1.96 -9.26 6.48 -13 10 c -1.65 1.55 -3.5 4.17 -4 6 c -0.35 1.29 0.23 3.85 1 5 c 0.97 1.45 3.18 3.34 5 4 c 5.86 2.11 13.38 4.39 20 5 c 10.93 1.01 25.01 1.67 34 0 c 3.19 -0.59 6.97 -5.13 9 -8 c 1.6 -2.26 2.38 -6.09 3 -9 c 0.33 -1.54 0.21 -5 0 -5 c -0.23 0 -2.14 3.74 -2 5 c 0.13 1.17 1.95 3.91 3 4 c 1.99 0.17 6.84 -1.38 9 -3 c 2.59 -1.95 4.53 -6.31 7 -9 c 1.08 -1.18 3.54 -3.23 4 -3 c 0.46 0.23 0.37 3.46 0 5 c -1.23 5.16 -4.21 10.76 -5 16 c -0.81 5.32 -0.99 15.02 0 17 c 0.44 0.88 4.81 -1.74 7 -3 c 6.47 -3.73 12.7 -7.64 19 -12 c 7.01 -4.85 12.82 -10.95 20 -15 c 18.64 -10.51 38.69 -22.31 58 -29 c 13.86 -4.8 30.58 -5.44 46 -7 c 7.62 -0.77 16.48 -0.5 23 0 c 1.02 0.08 2.77 1.16 3 2 c 0.57 2.09 -0.53 6.22 0 9 c 0.74 3.9 3.94 11.55 4 12 c 0.02 0.18 -2.56 -2.68 -3 -4 c -0.44 -1.32 0.26 -5.26 0 -5 c -1.53 1.53 -12.05 14.94 -18 23 c -4.69 6.35 -8.71 12.36 -13 19 c -3.26 5.04 -6.31 9.82 -9 15 c -2 3.85 -4.12 8.48 -5 12 c -0.28 1.11 0.68 4.31 1 4 c 4.09 -3.97 22.89 -26.37 35 -39 c 3.61 -3.76 8.36 -6.62 12 -10 c 0.84 -0.78 1.87 -3.2 2 -3 c 0.22 0.33 -0.51 4.65 0 6 c 0.3 0.81 2.21 2 3 2 c 0.79 0 1.98 -1.86 3 -2 c 3.38 -0.45 8.19 -0.4 12 0 c 2.31 0.24 4.87 1.15 7 2 c 1.06 0.42 1.98 1.89 3 2 c 4.24 0.47 10.41 0.46 15 0 l 5 -2"/></svg>