<?xml version="1.0" encoding="UTF-8" standalone="no"?><!DOCTYPE svg PUBLIC "-//W3C//DTD SVG 1.1//EN" "http://www.w3.org/Graphics/SVG/1.1/DTD/svg11.dtd"><svg xmlns="http://www.w3.org/2000/svg" version="1.1" width="554" height="145"><path stroke-linejoin="round" stroke-linecap="round" stroke-width="2" stroke="rgb(52, 58, 64)" fill="none" d="M 32 43 c -0.09 0.02 -3.48 0.39 -5 1 c -3.33 1.33 -10 5 -10 5"/><path stroke-linejoin="round" stroke-linecap="round" stroke-width="2" stroke="rgb(52, 58, 64)" fill="none" d="M 1 38 c 0.03 -0.07 1.1 -2.98 2 -4 c 1.58 -1.77 3.85 -3.49 6 -5 c 4.58 -3.21 9.44 -6.46 14 -9 c 1.13 -0.63 3.43 -1.57 4 -1 c 1.35 1.35 3.06 6 4 9 c 0.67 2.15 1.57 5.01 1 7 c -2.42 8.46 -7.67 18.27 -11 28 c -5.22 15.24 -14 45 -14 45"/><path stroke-linejoin="round" stroke-linecap="round" stroke-width="2" stroke="rgb(52, 58, 64)" fill="none" d="M 5 105 c 0.07 -0.03 3.11 -0.98 4 -2 c 10.99 -12.69 23.16 -29.85 35 -43 c 2.61 -2.9 6.56 -4.98 10 -7 c 2.15 -1.26 4.92 -2.62 7 -3 c 1.13 -0.2 3.63 0.25 4 1 c 0.63 1.27 0.77 5.12 0 7 c -1.92 4.69 -9 15 -9 15"/><path stroke-linejoin="round" stroke-linecap="round" stroke-width="2" stroke="rgb(52, 58, 64)" fill="none" d="M 54 84 c 0.07 -0.16 2.34 -6.18 4 -9 c 4.01 -6.84 8.32 -13.99 13 -20 c 2.08 -2.68 5.27 -5.11 8 -7 c 1.38 -0.96 3.47 -1.85 5 -2 c 1.45 -0.14 3.49 1.13 5 1 c 2.15 -0.18 4.84 -1.04 7 -2 c 3.73 -1.66 7.26 -4.24 11 -6 c 1.89 -0.89 4.1 -1.87 6 -2 c 2.73 -0.18 6.51 0.07 9 1 c 2.36 0.89 5.2 3.2 7 5 l 2 4"/><path stroke-linejoin="round" stroke-linecap="round" stroke-width="2" stroke="rgb(52, 58, 64)" fill="none" d="M 46 76 c 0.03 0.07 0.98 3.66 2 4 c 3.68 1.23 11.54 3.06 16 2 c 6.81 -1.61 14.63 -6.97 22 -11 c 6.99 -3.83 13.27 -7.64 20 -12 c 10.81 -6.99 20.43 -14.22 31 -21 c 2.52 -1.62 5.63 -2.49 8 -4 c 1.12 -0.72 3 -3.15 3 -3 c 0 0.24 -1.8 4.14 -3 6 c -1.78 2.78 -3.73 5.51 -6 8 c -11.9 13.03 -24.57 24.87 -36 38 c -4.24 4.87 -7.76 10.37 -11 16 c -4.47 7.78 -8.33 18.26 -12 24 c -0.56 0.88 -4.14 1.14 -4 1 c 0.59 -0.59 9.76 -6.8 14 -11 c 30 -29.71 58.36 -58.92 88 -90 c 5.52 -5.78 10.44 -11.62 15 -18 c 5.51 -7.71 13.87 -22.65 15 -24 c 0.24 -0.29 0.51 4.23 0 6 c -1.37 4.78 -3.46 10.25 -6 15 c -7.48 13.96 -14.54 28.86 -24 41 c -12.39 15.91 -31.36 30.83 -43 45 l -3 11"/><path stroke-linejoin="round" stroke-linecap="round" stroke-width="2" stroke="rgb(52, 58, 64)" fill="none" d="M 172 77 c 0.07 -0.02 2.78 -1 4 -1 c 1.22 0 3.08 0.39 4 1 c 0.8 0.54 1.16 2.25 2 3 c 2.32 2.09 5.25 4.9 8 6 c 3.35 1.34 7.97 1.76 12 2 c 6.95 0.42 14.69 1.08 21 0 c 4.58 -0.78 13.43 -5.62 14 -6 c 0.19 -0.13 -3.77 -0.46 -5 0 l -3 3"/><path stroke-linejoin="round" stroke-linecap="round" stroke-width="2" stroke="rgb(52, 58, 64)" fill="none" d="M 247 100 c 0.44 -0.23 16.78 -9.03 25 -13 c 1.2 -0.58 3.18 -1.41 4 -1 c 1.28 0.64 3.5 3.5 4 5 c 0.32 0.97 -1 2.72 -1 4 c 0 2.81 0.23 7.77 1 9 c 0.35 0.56 3.02 -1.43 4 -1 c 3.94 1.75 9.54 7.33 14 9 c 2.68 1.01 7.18 0.86 10 0 c 4.17 -1.27 8.51 -5.08 13 -7 c 4.81 -2.06 10.19 -2.92 15 -5 c 5.17 -2.24 9.99 -6 15 -8 c 3.01 -1.2 9.42 -3.07 10 -2 c 0.78 1.43 -2.25 9.1 -4 13 c -1.11 2.46 -3.16 4.82 -5 7 c -1.82 2.15 -6.19 6.1 -6 6 c 0.7 -0.37 18.68 -10.57 27 -17 c 9.22 -7.13 25.54 -23.58 26 -24 c 0.05 -0.05 -2.31 1.85 -3 3 c -3.13 5.22 -7.14 11.62 -9 17 c -0.87 2.52 -1.13 7.75 0 9 c 1.13 1.26 6.25 1.41 9 1 c 5.68 -0.84 11.95 -3.04 18 -5 c 5.53 -1.79 11.1 -3.36 16 -6 c 7.87 -4.24 15.93 -9.25 23 -15 c 12.57 -10.22 34.67 -30.25 36 -33 c 0.61 -1.26 -15.17 1.72 -22 4 c -8.74 2.91 -17.67 7.26 -26 12 c -13.47 7.67 -39 25 -39 25"/><path stroke-linejoin="round" stroke-linecap="round" stroke-width="2" stroke="rgb(52, 58, 64)" fill="none" d="M 532 87 c 0.21 0.02 8.78 -0.07 12 1 c 2.09 0.7 4.61 3.14 6 5 c 1.36 1.81 2.69 4.82 3 7 c 0.29 2.02 0.2 5.56 -1 7 c -3.02 3.62 -14 11 -14 11"/><path stroke-linejoin="round" stroke-linecap="round" stroke-width="2" stroke="rgb(52, 58, 64)" fill="none" d="M 344 54 l 1 1"/></svg>