<?xml version="1.0" encoding="UTF-8" standalone="no"?><!DOCTYPE svg PUBLIC "-//W3C//DTD SVG 1.1//EN" "http://www.w3.org/Graphics/SVG/1.1/DTD/svg11.dtd"><svg xmlns="http://www.w3.org/2000/svg" version="1.1" width="315" height="78"><path stroke-linejoin="round" stroke-linecap="round" stroke-width="2" stroke="rgb(52, 58, 64)" fill="none" d="M 2 1 l -1 53"/><path stroke-linejoin="round" stroke-linecap="round" stroke-width="2" stroke="rgb(52, 58, 64)" fill="none" d="M 49 6 c 0 0.1 -0.27 4.04 0 6 c 0.72 5.31 3 16 3 16"/><path stroke-linejoin="round" stroke-linecap="round" stroke-width="2" stroke="rgb(52, 58, 64)" fill="none" d="M 45 7 l 20 0"/><path stroke-linejoin="round" stroke-linecap="round" stroke-width="2" stroke="rgb(52, 58, 64)" fill="none" d="M 39 70 l 1 1"/><path stroke-linejoin="round" stroke-linecap="round" stroke-width="2" stroke="rgb(52, 58, 64)" fill="none" d="M 128 36 l 1 1"/><path stroke-linejoin="round" stroke-linecap="round" stroke-width="2" stroke="rgb(52, 58, 64)" fill="none" d="M 137 37 l 3 -2"/><path stroke-linejoin="round" stroke-linecap="round" stroke-width="2" stroke="rgb(52, 58, 64)" fill="none" d="M 175 33 l 1 1"/><path stroke-linejoin="round" stroke-linecap="round" stroke-width="2" stroke="rgb(52, 58, 64)" fill="none" d="M 6 11 c 0.04 0.19 1.57 7.23 2 11 c 0.93 8.12 1.64 15.8 2 24 c 0.32 7.15 -0.82 16.31 0 21 c 0.17 1 2.67 1.84 4 2 c 3.85 0.45 8.65 0.36 13 0 c 7.76 -0.65 15.22 -1.65 23 -3 c 7.9 -1.37 23 -5 23 -5"/><path stroke-linejoin="round" stroke-linecap="round" stroke-width="2" stroke="rgb(52, 58, 64)" fill="none" d="M 57 12 l 5 13"/><path stroke-linejoin="round" stroke-linecap="round" stroke-width="2" stroke="rgb(52, 58, 64)" fill="none" d="M 40 10 c 0.61 0.14 23.05 5.01 35 8 c 5.9 1.47 11.31 3.04 17 5 c 5.19 1.78 10.28 3.64 15 6 c 3.16 1.58 6.84 3.84 9 6 c 1.08 1.08 2.34 3.86 2 5 c -0.45 1.49 -3.17 3.54 -5 5 c -3.15 2.52 -6.49 5.1 -10 7 c -4.38 2.37 -9.48 3.61 -14 6 c -7.59 4 -14.77 8.45 -22 13 c -1.81 1.14 -4.87 3.2 -5 4 c -0.09 0.56 2.73 2.07 4 2 c 8.86 -0.51 21.36 -1.81 31 -4 c 4.41 -1 8.71 -3.76 13 -6 c 3.49 -1.82 6.88 -3.75 10 -6 c 2.84 -2.05 5.68 -4.41 8 -7 c 3.27 -3.65 6.79 -7.98 9 -12 c 1.21 -2.21 1.87 -8.26 2 -8 c 0.22 0.44 1.32 9.54 1 14 c -0.32 4.55 -2.79 9.84 -3 14 c -0.09 1.84 1.07 5.47 2 6 c 0.79 0.45 3.75 -1.07 5 -2 c 1.16 -0.87 1.84 -2.84 3 -4 c 3.12 -3.12 7.08 -7.44 10 -9 c 1.11 -0.59 3.86 0.17 5 1 l 6 7"/><path stroke-linejoin="round" stroke-linecap="round" stroke-width="2" stroke="rgb(52, 58, 64)" fill="none" d="M 194 39 c 0 0.28 0.47 11.25 0 16 c -0.13 1.33 -1.88 2.75 -2 4 c -0.17 1.69 0.33 5.46 1 6 c 0.49 0.4 3.18 -1.01 4 -2 c 2.14 -2.57 3.86 -7.43 6 -10 l 4 -2"/><path stroke-linejoin="round" stroke-linecap="round" stroke-width="2" stroke="rgb(52, 58, 64)" fill="none" d="M 241 38 c 0.05 0.18 2.22 6.58 3 10 c 0.91 3.99 0.92 8.76 2 12 c 0.38 1.13 1.87 2.25 3 3 c 2.73 1.82 5.88 4.06 9 5 c 7.42 2.25 16.01 4.29 24 5 c 10.43 0.93 32 0 32 0"/></svg>