<?xml version="1.0" encoding="UTF-8" standalone="no"?><!DOCTYPE svg PUBLIC "-//W3C//DTD SVG 1.1//EN" "http://www.w3.org/Graphics/SVG/1.1/DTD/svg11.dtd"><svg xmlns="http://www.w3.org/2000/svg" version="1.1" width="340" height="121"><path stroke-linejoin="round" stroke-linecap="round" stroke-width="2" stroke="rgb(52, 58, 64)" fill="none" d="M 180 74 c -0.09 -0.07 -3.25 -3.12 -5 -4 c -1.99 -1 -4.71 -1.62 -7 -2 c -1.57 -0.26 -4.08 -0.71 -5 0 c -1.48 1.15 -3.53 4.82 -4 7 c -0.41 1.91 -0.37 6.15 1 7 c 4.71 2.94 15 5.65 23 8 c 21.13 6.21 41.23 13.27 62 17 c 17.82 3.2 37.52 4.23 55 4 c 7.15 -0.09 17.36 -2.4 22 -5 c 1.95 -1.09 2.77 -6.09 3 -9 c 0.39 -4.91 1.75 -13.12 -1 -16 c -8.53 -8.93 -26.53 -19.75 -41 -28 c -23.85 -13.6 -48.26 -28.14 -73 -37 c -23.19 -8.3 -50.01 -12.76 -75 -16 c -18.25 -2.37 -39.45 -2.22 -56 -1 c -3.97 0.29 -9.8 3.49 -12 6 c -1.67 1.91 -1.65 6.67 -2 10 c -0.31 2.94 -1.09 6.81 0 9 c 2.07 4.14 6.65 10.25 11 13 c 10.75 6.8 24.72 12.11 38 18 c 20.23 8.97 39.27 17.67 59 25 c 5.98 2.22 19.34 4.02 19 4 c -2.35 -0.14 -87.51 -7.59 -134 -11 c -19.74 -1.45 -55.61 -3.07 -57 -3 c -0.45 0.02 11.93 4.22 18 5 c 14.32 1.85 28.77 2.22 44 3 c 11.74 0.6 32.71 1.74 34 1 c 0.83 -0.48 -13.12 -6.61 -20 -9 c -8.45 -2.94 -26.47 -7 -26 -7 c 0.85 0 31.37 5.1 48 7 c 40.67 4.66 77.32 8.91 118 12 c 36.4 2.76 104.15 4.9 106 5 c 0.87 0.05 -33.31 -0.41 -50 -2 c -11.51 -1.1 -34.66 -5.89 -34 -6 c 1.32 -0.23 67.12 -0.14 69 0 c 0.45 0.03 -10.64 2.33 -16 4 c -10.99 3.44 -22.29 6.59 -32 11 c -4.3 1.96 -12.41 7.03 -12 9 c 0.52 2.47 10.5 8.73 16 10 c 14.35 3.31 32.36 3.83 49 5 c 7.43 0.52 17.39 1.59 22 0 c 2.06 -0.71 3.82 -6.72 4 -9 c 0.09 -1.16 -2.53 -2.58 -3 -4 c -1.05 -3.16 -1.61 -7.33 -2 -11 l 0 -8"/></svg>