<?xml version="1.0" encoding="UTF-8" standalone="no"?><!DOCTYPE svg PUBLIC "-//W3C//DTD SVG 1.1//EN" "http://www.w3.org/Graphics/SVG/1.1/DTD/svg11.dtd"><svg xmlns="http://www.w3.org/2000/svg" version="1.1" width="657" height="556"><path stroke-linejoin="round" stroke-linecap="round" stroke-width="2" stroke="rgb(52, 58, 64)" fill="none" d="M 13 104 c -0.07 -0.11 -3.17 -3.88 -4 -6 c -2.04 -5.22 -3.9 -11.23 -5 -17 c -1.56 -8.2 -2.37 -16.55 -3 -25 c -0.38 -5.04 -0.25 -9.87 0 -15 c 0.78 -15.78 1.26 -30.28 3 -46 c 4.44 -40.22 10.28 -76.6 15 -117 c 1.49 -12.71 1.65 -24.26 3 -37 c 1.76 -16.6 3.05 -31.71 6 -48 c 10.06 -55.59 20.67 -106.26 32 -162 c 1.41 -6.96 3.09 -13.31 5 -20 c 0.79 -2.77 1.76 -5.52 3 -8 c 1.05 -2.09 2.37 -4.37 4 -6 c 4.82 -4.82 16 -14 16 -14"/><path stroke-linejoin="round" stroke-linecap="round" stroke-width="2" stroke="rgb(52, 58, 64)" fill="none" d="M 95 114 c -0.42 -0.23 -15.96 -8.37 -24 -13 c -3.19 -1.83 -6 -3.83 -9 -6 c -3.16 -2.28 -6.76 -4.41 -9 -7 c -1.76 -2.03 -3.26 -5.33 -4 -8 c -0.83 -3 -1.44 -7.05 -1 -10 c 0.47 -3.16 2.15 -7.22 4 -10 c 2.56 -3.84 6.38 -7.71 10 -11 c 3.65 -3.32 7.78 -7.02 12 -9 c 5.88 -2.75 13.8 -5.23 20 -6 c 3.61 -0.45 8.48 0.77 12 2 c 2.73 0.95 6.35 2.94 8 5 c 1.88 2.35 3.24 6.67 4 10 c 0.85 3.72 1.14 8.07 1 12 c -0.19 5.27 -0.81 10.77 -2 16 c -2.15 9.45 -5.39 18.35 -8 28 c -0.83 3.06 -1.58 6.03 -2 9 c -0.23 1.61 -0.43 5.07 0 5 c 0.73 -0.12 4.82 -3.72 6 -6 c 3.13 -6.05 5.68 -13.84 8 -21 c 1.37 -4.25 1.71 -8.75 3 -13 c 1.04 -3.43 2.39 -6.79 4 -10 c 2.07 -4.14 4.96 -10.3 7 -12 c 0.79 -0.66 4.52 0.84 5 2 c 1.34 3.25 0.98 10.13 2 15 c 0.64 3.05 1.87 5.94 3 9 c 1.28 3.47 2.32 7.76 4 10 c 0.84 1.12 3.37 1.7 5 2 c 1.82 0.33 4.32 0.46 6 0 c 1.63 -0.44 3.64 -1.77 5 -3 c 2.14 -1.95 4.06 -4.53 6 -7 c 1.81 -2.3 3.7 -4.52 5 -7 c 2.3 -4.4 4.28 -9.33 6 -14 c 0.58 -1.56 0.92 -5.16 1 -5 c 0.14 0.28 0.3 6.21 1 9 c 0.59 2.34 1.85 4.7 3 7 c 1.22 2.43 2.36 5.21 4 7 c 1.76 1.91 4.65 4.06 7 5 c 2.21 0.88 5.6 1.28 8 1 c 2.83 -0.33 6.14 -1.73 9 -3 c 3.1 -1.38 6.51 -2.98 9 -5 c 2.57 -2.09 4.95 -5.16 7 -8 c 2.25 -3.12 4.71 -6.62 6 -10 c 1.23 -3.24 1.86 -7.4 2 -11 c 0.19 -4.85 -0.02 -10.51 -1 -15 c -0.58 -2.67 -2.47 -5.51 -4 -8 c -1.1 -1.78 -2.57 -4.28 -4 -5 c -1.34 -0.67 -4.45 -0.56 -6 0 c -1.65 0.6 -3.62 2.49 -5 4 c -1.85 2.03 -3.91 4.56 -5 7 c -1.44 3.24 -2.53 7.38 -3 11 c -0.5 3.81 -0.6 8.25 0 12 c 0.68 4.25 2.06 9.28 4 13 c 1.83 3.5 5 7.48 8 10 c 2.93 2.47 7.3 4.71 11 6 c 3.59 1.25 8.39 2.45 12 2 c 6.2 -0.77 13.94 -3.35 20 -6 c 4.19 -1.83 8.34 -5 12 -8 c 3.59 -2.94 6.97 -6.44 10 -10 c 2.61 -3.07 4.99 -6.53 7 -10 c 1.62 -2.8 3 -5.99 4 -9 c 0.62 -1.86 1.33 -4.69 1 -6 c -0.19 -0.78 -2.13 -2 -3 -2 c -1.3 0 -3.6 1.06 -5 2 c -2.4 1.6 -5.1 3.79 -7 6 c -1.94 2.26 -3.62 5.23 -5 8 c -1.25 2.5 -2.86 5.54 -3 8 c -0.16 2.93 0.67 7.84 2 10 c 0.87 1.42 4.11 2.73 6 3 c 2.27 0.32 5.79 -0.12 8 -1 c 2.35 -0.94 5.24 -3.09 7 -5 c 1.64 -1.79 3.43 -4.71 4 -7 c 0.64 -2.55 0.68 -6.4 0 -9 c -0.85 -3.23 -2.84 -7.41 -5 -10 c -2.47 -2.97 -6.46 -5.94 -10 -8 c -4.21 -2.46 -9.29 -4.55 -14 -6 c -3.76 -1.16 -7.98 -1.62 -12 -2 c -2.97 -0.28 -8.89 -0.55 -9 0 c -0.12 0.58 5.15 3.81 8 5 c 11.28 4.72 23.23 8.09 35 13 c 12.84 5.35 25.26 10.77 37 17 c 4.32 2.29 8.69 5.69 12 9 c 2.39 2.39 4.71 5.94 6 9 c 1.21 2.88 1.83 6.79 2 10 c 0.15 2.85 -0.34 6.09 -1 9 l -4 13"/><path stroke-linejoin="round" stroke-linecap="round" stroke-width="2" stroke="rgb(52, 58, 64)" fill="none" d="M 372 137 c 0.05 -0.51 2.61 -19.14 3 -29 c 0.62 -15.56 -0.77 -30.52 0 -46 c 0.58 -11.52 2.18 -22.65 4 -34 c 0.87 -5.47 2.4 -11.88 4 -16 c 0.35 -0.9 2.68 -2.44 3 -2 c 1.23 1.69 4.03 8.52 5 13 c 4.31 19.93 6.95 40.48 11 61 c 0.68 3.46 1.68 6.86 3 10 c 1.3 3.09 3.71 7.87 5 9 c 0.45 0.39 2.65 -1.1 3 -2 c 1.6 -4.12 2.99 -10.48 4 -16 c 2.73 -14.91 5.04 -29.03 7 -44 c 0.75 -5.72 0.36 -11.26 1 -17 c 0.72 -6.48 2.47 -18.12 3 -19 c 0.26 -0.43 2.61 5.95 3 9 c 1.89 14.83 1.87 30.53 4 46 c 1.93 13.99 4.77 27.23 8 41 c 1.86 7.92 4.48 15.44 7 23 c 0.47 1.41 1.14 2.89 2 4 c 1.36 1.75 3.7 4.51 5 5 c 0.67 0.25 2.47 -1.16 3 -2 c 0.93 -1.48 1.83 -3.98 2 -6 c 1.43 -16.64 2.21 -34.12 3 -52 c 0.24 -5.49 -0.26 -10.84 0 -16 c 0.07 -1.33 0.91 -4.23 1 -4 c 0.92 2.51 8.26 27.77 13 42 c 1.74 5.23 3.76 10.08 6 15 c 1.12 2.46 2.55 4.65 4 7 c 1.29 2.1 2.47 4.47 4 6 c 1.24 1.24 3.65 3.11 5 3 c 1.86 -0.16 5.38 -2.38 7 -4 c 1.35 -1.35 2.32 -3.95 3 -6 c 0.94 -2.82 1.56 -5.94 2 -9 c 0.57 -3.99 1 -7.94 1 -12 c 0 -9.44 -0.12 -18.62 -1 -28 c -0.8 -8.48 -1.95 -17 -4 -25 c -1.56 -6.11 -6.31 -17.23 -7 -18 c -0.32 -0.36 -1.66 6.34 -1 9 c 3.32 13.28 8.67 28.6 14 43 c 3.85 10.41 7.94 20.7 13 30 c 3.09 5.69 7.69 11.48 12 16 c 2.33 2.44 6 4.89 9 6 c 2.79 1.03 7.22 1.49 10 1 c 2.23 -0.39 5.32 -2.32 7 -4 c 1.97 -1.97 3.75 -5.22 5 -8 c 1.68 -3.73 3.1 -7.94 4 -12 c 1.08 -4.86 1.67 -9.94 2 -15 c 0.35 -5.35 0.33 -10.62 0 -16 c -0.35 -5.76 -0.89 -11.34 -2 -17 c -1.93 -9.86 -3.84 -20.15 -7 -29 c -1.62 -4.53 -4.98 -9.23 -8 -13 c -2.1 -2.63 -6.02 -6.1 -8 -7 c -0.67 -0.3 -2.6 1.1 -3 2 c -1.87 4.2 -3.93 10.67 -5 16 c -0.89 4.46 -1.1 9.3 -1 14 c 0.23 10.74 0.88 21.28 2 32 c 0.57 5.45 1.47 10.85 3 16 c 2.11 7.11 4.63 14.82 8 21 c 2.34 4.29 6.46 9.64 10 12 c 2.53 1.69 7.82 2.18 11 2 c 2.17 -0.12 5.31 -1.59 7 -3 c 1.91 -1.59 3.62 -4.54 5 -7 c 1.58 -2.81 3.13 -5.95 4 -9 c 1.08 -3.76 1.65 -7.98 2 -12 c 0.32 -3.63 0.26 -7.29 0 -11 c -0.42 -6.1 -0.84 -12.65 -2 -18 c -0.37 -1.72 -1.82 -3.65 -3 -5 c -1.01 -1.15 -3.13 -3.22 -4 -3 c -1.11 0.28 -3.35 3.37 -4 5 c -0.51 1.28 -0.42 3.61 0 5 c 0.49 1.62 1.7 4.06 3 5 c 1.9 1.38 5.28 2.32 8 3 c 3.88 0.97 7.88 1.55 12 2 c 8.49 0.92 17.42 0.62 25 2 c 2.7 0.49 6.16 2.33 8 4 c 1.38 1.26 2.75 4.1 3 6 c 0.34 2.57 -0.31 6.11 -1 9 c -1.29 5.36 -3.77 10.65 -5 16 c -0.74 3.21 -1.19 6.96 -1 10 c 0.12 1.91 0.96 4.52 2 6 c 1.05 1.5 3.27 3.38 5 4 c 2.45 0.87 6.17 1.16 9 1 l 9 -2"/><path stroke-linejoin="round" stroke-linecap="round" stroke-width="2" stroke="rgb(52, 58, 64)" fill="none" d="M 429 43 l 1 1"/><path stroke-linejoin="round" stroke-linecap="round" stroke-width="2" stroke="rgb(52, 58, 64)" fill="none" d="M 465 10 l 1 1"/></svg>