<?xml version="1.0" encoding="UTF-8" standalone="no"?><!DOCTYPE svg PUBLIC "-//W3C//DTD SVG 1.1//EN" "http://www.w3.org/Graphics/SVG/1.1/DTD/svg11.dtd"><svg xmlns="http://www.w3.org/2000/svg" version="1.1" width="402" height="99"><path stroke-linejoin="round" stroke-linecap="round" stroke-width="2" stroke="rgb(52, 58, 64)" fill="none" d="M 4 33 c 0.02 0.1 1 4 1 6 c 0 17.14 0.08 36.07 -1 52 c -0.16 2.33 -2.97 7.34 -3 7 c -0.16 -1.8 -0.41 -26.34 0 -40 c 0.28 -9.25 0.76 -18.79 2 -27 c 0.31 -2.03 1.82 -4.43 3 -6 c 0.63 -0.84 1.99 -1.8 3 -2 c 1.95 -0.39 5.04 -0.61 7 0 c 2.88 0.9 7.65 3.32 9 5 c 0.67 0.83 -0.34 3.52 -1 5 c -2.21 4.92 -6.13 10.34 -8 15 c -0.55 1.37 -0.32 3.54 0 5 c 0.29 1.3 1.1 2.89 2 4 c 3.27 4.03 7.83 7.72 11 12 c 3.41 4.6 5.97 10.7 9 15 l 3 2"/><path stroke-linejoin="round" stroke-linecap="round" stroke-width="2" stroke="rgb(52, 58, 64)" fill="none" d="M 43 57 c 0.02 0.07 0.39 3.08 1 4 c 0.54 0.8 2.21 2 3 2 c 0.79 0 2.46 -1.2 3 -2 c 0.61 -0.92 1 -4 1 -4"/><path stroke-linejoin="round" stroke-linecap="round" stroke-width="2" stroke="rgb(52, 58, 64)" fill="none" d="M 79 23 c -0.03 0.1 -2 4.11 -2 6 c 0 4.22 0.69 9.75 2 14 c 1.24 4.03 3.83 8.96 6 12 c 0.72 1.01 2.65 1.71 4 2 c 3.04 0.65 7.22 1.58 10 1 c 2.85 -0.6 7.05 -4.84 9 -5 c 0.95 -0.08 1.87 2.87 3 4 c 1.13 1.13 2.63 2.32 4 3 c 1.13 0.56 2.67 0.91 4 1 c 3.22 0.23 7.64 -0.73 10 0 c 1.18 0.36 1.79 3.09 3 4 c 2.5 1.87 6.66 4.84 9 5 c 1.64 0.11 4.41 -2.41 6 -4 c 2.21 -2.21 4.76 -5.11 6 -8 c 3.52 -8.22 8.34 -25.61 9 -27 c 0.14 -0.3 0.33 4.32 1 6 c 0.55 1.38 2.49 2.59 3 4 c 1.03 2.88 0.99 6.81 2 10 l 5 12"/><path stroke-linejoin="round" stroke-linecap="round" stroke-width="2" stroke="rgb(52, 58, 64)" fill="none" d="M 170 26 l -8 -3"/><path stroke-linejoin="round" stroke-linecap="round" stroke-width="2" stroke="rgb(52, 58, 64)" fill="none" d="M 243 21 c 0.58 0.77 27.59 32.77 33 44 c 1.32 2.74 -3.95 11.52 -6 12 c -2.07 0.49 -8.57 -5.05 -11 -8 c -1.69 -2.06 -2.46 -5.96 -3 -9 c -1.09 -6.13 -2.36 -15.38 -2 -19 c 0.08 -0.78 3.02 -0.31 4 -1 c 2.01 -1.41 3.82 -4.4 6 -6 c 2.65 -1.94 6.09 -3.1 9 -5 c 4.86 -3.17 13.37 -11.71 14 -10 c 1.76 4.77 -0.23 44.57 0 48 c 0.02 0.36 2 -3.9 3 -4 c 1.53 -0.15 4.84 2.67 7 3 c 1.72 0.26 4.25 -0.42 6 -1 c 1.04 -0.35 2.42 -1.1 3 -2 c 3.33 -5.13 7.44 -12.03 10 -18 c 1.27 -2.96 1.04 -6.71 2 -10 c 2.07 -7.15 4.88 -13.79 7 -21 c 1.28 -4.34 2.46 -11.92 3 -13 c 0.15 -0.29 2 2 2 3 c 0 8.9 -1.57 21.01 -2 32 c -0.26 6.51 -0.36 12.62 0 19 l 2 16"/><path stroke-linejoin="round" stroke-linecap="round" stroke-width="2" stroke="rgb(52, 58, 64)" fill="none" d="M 327 28 c 0.02 -0.07 0.44 -2.8 1 -4 c 1.7 -3.65 4.93 -9.93 6 -11 c 0.31 -0.31 1.9 1.98 2 3 c 0.48 4.81 -0.28 11.18 0 17 c 0.75 15.43 2.97 43.72 3 45 c 0 0.18 -1.9 -4.07 -2 -6 c -0.21 -4.29 0.39 -9.36 1 -14 c 0.4 -3.05 0.39 -7.1 2 -9 c 3.25 -3.82 11.13 -6.95 15 -11 c 2.61 -2.73 5.02 -10.26 6 -11 c 0.42 -0.32 1.01 4.01 2 5 c 0.99 0.99 3.36 1.78 5 2 c 3.05 0.41 6.65 -0.26 10 0 c 5.4 0.42 10.98 0.91 16 2 l 7 3"/></svg>