<?xml version="1.0" encoding="UTF-8" standalone="no"?><!DOCTYPE svg PUBLIC "-//W3C//DTD SVG 1.1//EN" "http://www.w3.org/Graphics/SVG/1.1/DTD/svg11.dtd"><svg xmlns="http://www.w3.org/2000/svg" version="1.1" width="448" height="46"><path stroke-linejoin="round" stroke-linecap="round" stroke-width="2" stroke="rgb(52, 58, 64)" fill="none" d="M 1 1 c 0.02 0.1 0.39 4.17 1 6 c 0.67 2.02 1.87 4.02 3 6 c 1.59 2.78 3.22 5.77 5 8 l 3 2"/><path stroke-linejoin="round" stroke-linecap="round" stroke-width="2" stroke="rgb(52, 58, 64)" fill="none" d="M 31 45 c 0.03 -0.12 1.04 -5.09 2 -7 c 0.56 -1.11 2.39 -1.89 3 -3 c 0.92 -1.65 1.64 -4.05 2 -6 c 0.28 -1.55 -0.39 -3.56 0 -5 c 0.53 -1.93 2.27 -3.98 3 -6 l 1 -5"/><path stroke-linejoin="round" stroke-linecap="round" stroke-width="2" stroke="rgb(52, 58, 64)" fill="none" d="M 15 4 c 0.02 0.16 0.31 6.11 1 9 c 1.29 5.36 2.79 11.07 5 16 c 2.01 4.49 5.25 9.57 8 13 c 0.8 1.01 3.16 2.24 4 2 c 0.94 -0.27 2.36 -2.59 3 -4 c 0.93 -2.05 1.06 -4.78 2 -7 c 2.72 -6.42 5.86 -13.25 9 -19 c 0.63 -1.16 2.28 -1.88 3 -3 l 4 -8"/><path stroke-linejoin="round" stroke-linecap="round" stroke-width="2" stroke="rgb(52, 58, 64)" fill="none" d="M 160 30 c -0.05 -0.04 -2.16 -2 -3 -2 c -1.04 0 -4.16 1.45 -4 2 c 0.28 0.97 3.83 4.15 6 5 c 4.85 1.9 11.54 3.42 17 4 c 3.45 0.37 7.51 -0.19 11 -1 c 5 -1.15 10.44 -5 15 -5 c 6.22 0 14.56 4.01 21 5 c 1.52 0.23 3.35 -0.53 5 -1 c 3.07 -0.88 6.48 -1.49 9 -3 c 3.77 -2.26 7.31 -6.74 11 -9 c 1.89 -1.16 5 -2.38 7 -2 c 5.56 1.07 12.62 5.26 19 7 c 4.45 1.21 9.29 1.57 14 2 c 2.66 0.24 5.44 0.41 8 0 c 5.59 -0.89 11.82 -2 17 -4 c 4.78 -1.85 10.2 -5.05 14 -8 c 1.7 -1.32 2.38 -4.5 4 -6 c 2.43 -2.25 6.33 -5.05 9 -6 c 1.26 -0.45 3.84 0.34 5 1 l 2 3"/><path stroke-linejoin="round" stroke-linecap="round" stroke-width="2" stroke="rgb(52, 58, 64)" fill="none" d="M 400 6 c -0.02 0.19 -0.04 7.69 -1 11 c -1.25 4.29 -3.72 8.82 -6 13 c -1.72 3.16 -3.67 7.13 -6 9 c -2.05 1.64 -6.07 2.45 -9 3 c -2.16 0.41 -7.12 0 -7 0 c 0.23 0 8.61 0.35 13 0 c 16.98 -1.35 50 -5 50 -5"/><path stroke-linejoin="round" stroke-linecap="round" stroke-width="2" stroke="rgb(52, 58, 64)" fill="none" d="M 447 17 l 1 1"/></svg>