<?xml version="1.0" encoding="UTF-8" standalone="no"?><!DOCTYPE svg PUBLIC "-//W3C//DTD SVG 1.1//EN" "http://www.w3.org/Graphics/SVG/1.1/DTD/svg11.dtd"><svg xmlns="http://www.w3.org/2000/svg" version="1.1" width="629" height="131"><path stroke-linejoin="round" stroke-linecap="round" stroke-width="2" stroke="rgb(52, 58, 64)" fill="none" d="M 117 1 c -0.63 0.65 -23.33 24.53 -36 37 c -9.38 9.23 -18.13 17.41 -28 26 c -8.63 7.51 -16.89 14.36 -26 21 c -7.11 5.18 -14.74 9.01 -22 14 c -3.57 2.45 -10.15 8.17 -10 8 c 0.27 -0.31 10.96 -10.78 17 -16 c 9.02 -7.79 17.45 -15.27 27 -22 c 10.96 -7.72 22.07 -14.7 34 -21 c 18.16 -9.59 36.19 -17.55 55 -26 c 4.6 -2.07 9.5 -3.88 14 -5 c 1.81 -0.45 5.68 -0.87 6 0 c 0.59 1.63 -0.31 8.06 -2 11 c -7.52 13.04 -17.98 27.57 -28 41 c -5.86 7.86 -12.67 14.28 -19 22 c -4.66 5.68 -8.7 11.06 -13 17 c -2.9 4 -6.05 8.09 -8 12 c -0.82 1.65 -1.78 5.9 -1 6 c 2.11 0.28 11.74 -1.52 16 -4 c 6.77 -3.95 12.91 -11.49 20 -17 c 11.4 -8.86 22.85 -16.01 34 -25 c 9.92 -8 17.94 -18.2 28 -25 c 13.07 -8.84 28.88 -16.08 43 -23 c 2.39 -1.17 7.7 -2.69 8 -2 c 0.37 0.86 -2.92 6.46 -5 9 c -3.71 4.54 -8.34 8.88 -13 13 c -6.85 6.05 -13.61 12.13 -21 17 c -7.1 4.68 -15.02 8.11 -23 12 c -5.38 2.62 -10.64 5.28 -16 7 c -3.73 1.2 -8.37 2.38 -12 2 c -5.28 -0.55 -11.71 -3.15 -17 -5 c -1.08 -0.38 -2.79 -2.21 -3 -2 c -0.24 0.24 0.26 3.16 1 4 c 1.55 1.74 4.54 3.77 7 5 c 3.35 1.67 7.28 3.14 11 4 c 4.81 1.11 10.03 1.84 15 2 c 5.26 0.17 11.07 0.31 16 -1 c 10.8 -2.86 30.93 -12.41 33 -12 c 1.22 0.24 -9.01 10.38 -13 16 c -3.38 4.77 -8.37 12.32 -9 15 c -0.19 0.82 3.78 2.53 5 2 c 6.62 -2.87 16.34 -10.26 25 -15 c 5.58 -3.06 11.44 -5.02 17 -8 c 3.86 -2.07 7.3 -5.41 11 -7 c 2.9 -1.24 7.32 -2 10 -2 c 0.95 0 3.33 1.62 3 2 c -1.61 1.9 -8.97 8.05 -14 11 c -10.1 5.93 -23.05 12.27 -32 16 c -1.03 0.43 -3.75 -0.5 -4 -1 c -0.22 -0.44 1.11 -2.52 2 -3 c 2.88 -1.55 7.26 -2.98 11 -4 c 3.57 -0.97 7.23 -1.49 11 -2 c 3.72 -0.51 7.3 -1 11 -1 c 8.05 0 17.54 1.67 24 1 c 1.72 -0.18 3.59 -2.48 5 -4 c 2.5 -2.71 6.78 -8.12 7 -9 c 0.1 -0.39 -3.84 0.27 -5 1 c -1.14 0.71 -3.3 3.21 -3 4 c 0.43 1.14 3.98 3.16 6 4 l 6 1"/><path stroke-linejoin="round" stroke-linecap="round" stroke-width="2" stroke="rgb(52, 58, 64)" fill="none" d="M 277 82 c 0.09 -0.1 3.1 -4.33 5 -6 c 3.65 -3.22 7.74 -6.13 12 -9 c 13.56 -9.12 27.41 -18.45 40 -26 c 1.35 -0.81 4.69 -1.51 5 -1 c 0.38 0.64 -0.94 4.33 -2 6 c -2.74 4.34 -6.35 8.75 -10 13 c -8.66 10.1 -25.56 28.48 -26 29 c -0.09 0.11 3.83 -3.53 6 -5 c 6.23 -4.24 12.45 -8.12 19 -12 c 2.61 -1.55 5.74 -3.65 8 -4 c 1.36 -0.21 5.4 1.39 5 2 c -2.7 4.12 -16.63 17.73 -24 27 c -2.83 3.57 -6.86 10.14 -7 12 c -0.06 0.82 4.32 1.28 6 1 c 1.85 -0.31 4.05 -2.55 6 -3 c 2.03 -0.47 4.83 -0.33 7 0 c 1.96 0.3 5.04 0.75 6 2 l 4 11"/><path stroke-linejoin="round" stroke-linecap="round" stroke-width="2" stroke="rgb(52, 58, 64)" fill="none" d="M 447 24 c -0.1 0.05 -4.38 1.65 -6 3 c -4.1 3.41 -7.87 7.77 -12 12 c -10.5 10.74 -20.59 20.52 -30 31 c -2.06 2.29 -5 6.54 -5 8 c 0 0.84 3.67 2.47 5 2 c 13.72 -4.9 33.69 -15.65 51 -22 c 8.99 -3.3 19.59 -6.14 28 -7 c 3.32 -0.34 8.72 1.67 11 3 c 0.83 0.48 1.38 3.01 1 4 c -1 2.6 -3.67 6.32 -6 9 c -4.26 4.9 -8.96 9.66 -14 14 c -7.07 6.09 -14.29 12.31 -22 17 c -7.32 4.46 -15.85 8.16 -24 11 c -6.97 2.42 -14.85 4.27 -22 5 c -5.4 0.55 -11.74 -0.03 -17 -1 c -3.33 -0.62 -10.28 -3.53 -10 -4 c 0.34 -0.57 8.64 -1.09 13 -1 c 11.06 0.24 21.58 1.55 33 2 c 15.21 0.59 28.98 1.19 44 1 c 12.3 -0.15 24.66 -0.08 36 -2 c 7.66 -1.3 17.3 -4.2 23 -8 c 4.03 -2.69 7.22 -9.13 10 -14 c 2.46 -4.31 5.36 -9.66 6 -14 c 0.55 -3.75 -0.7 -10.21 -2 -13 c -0.53 -1.14 -3.58 -1.05 -5 -2 c -3.38 -2.25 -6.67 -7.14 -10 -8 c -4.42 -1.15 -11.36 1.16 -17 1 c -5.99 -0.17 -12.43 -2.19 -18 -2 c -3.51 0.12 -8 1.3 -11 3 c -4.11 2.32 -9.33 6.72 -12 10 c -1.04 1.28 -1.32 4.55 -1 6 c 0.22 1.01 1.89 2.39 3 3 c 1.65 0.92 3.98 1.6 6 2 c 2.9 0.58 5.94 0.92 9 1 c 9.45 0.26 24.85 -0.92 28 0 c 0.91 0.26 -2.39 4.89 -4 7 c -3.68 4.82 -10.36 10.71 -12 14 c -0.45 0.89 1.95 3.61 3 4 c 1.07 0.4 3.5 -0.34 5 -1 c 6.56 -2.88 14.19 -7.91 20 -10 c 1.33 -0.48 3.7 0.35 5 1 c 1.08 0.54 2.11 3.2 3 3 c 3.46 -0.77 10.31 -4.42 15 -7 c 1.81 -1 3.37 -3.35 5 -4 c 1.28 -0.51 3.68 -0.44 5 0 c 1.32 0.44 2.58 2.29 4 3 c 2.43 1.22 5.36 2.85 8 3 c 13.93 0.79 31.17 -0.55 45 0 c 1.66 0.07 3.76 1.11 5 2 c 0.83 0.59 1.88 1.96 2 3 c 0.77 6.9 0.36 15.89 1 24 l 2 14"/></svg>