<?xml version="1.0" encoding="UTF-8" standalone="no"?><!DOCTYPE svg PUBLIC "-//W3C//DTD SVG 1.1//EN" "http://www.w3.org/Graphics/SVG/1.1/DTD/svg11.dtd"><svg xmlns="http://www.w3.org/2000/svg" version="1.1" width="234" height="105"><path stroke-linejoin="round" stroke-linecap="round" stroke-width="2" stroke="rgb(52, 58, 64)" fill="none" d="M 43 36 c -0.04 0.05 -2.21 3.06 -2 3 c 0.96 -0.3 10.79 -3.9 15 -7 c 7.93 -5.84 20.77 -18.41 23 -21 c 0.3 -0.34 -3.06 -1.44 -4 -1 c -3.11 1.45 -7.22 5.16 -11 8 c -8.73 6.55 -16.67 12.2 -25 19 c -8.46 6.9 -16.9 13.51 -24 21 c -4.63 4.89 -8.38 11.31 -12 17 c -0.94 1.47 -1.89 3.41 -2 5 c -0.2 2.97 -0.58 9.42 1 10 c 2.87 1.06 12.21 -1.51 18 -3 c 4.42 -1.14 8.83 -2.91 13 -5 c 10.59 -5.3 22.11 -10.65 31 -17 c 4.28 -3.06 6.99 -9.99 11 -13 c 3.28 -2.46 9.26 -2.75 13 -5 c 4.2 -2.52 8.02 -6.41 12 -10 c 6.31 -5.68 12.39 -10.98 18 -17 c 3.72 -3.99 10 -12.44 10 -13 c 0 -0.41 -6.91 4.4 -10 7 c -3.22 2.71 -5.67 6.33 -9 9 c -15.47 12.44 -31.01 23.5 -47 36 c -2.87 2.24 -5.33 4.52 -8 7 c -2.13 1.98 -4.33 3.92 -6 6 c -0.88 1.1 -1.13 2.99 -2 4 l -4 3"/><path stroke-linejoin="round" stroke-linecap="round" stroke-width="2" stroke="rgb(52, 58, 64)" fill="none" d="M 170 1 c -0.1 0.16 -3.59 6.43 -6 9 c -7.4 7.9 -15.41 15.92 -24 23 c -10.54 8.69 -21.93 15.46 -33 24 c -8.47 6.54 -24 20 -24 20"/><path stroke-linejoin="round" stroke-linecap="round" stroke-width="2" stroke="rgb(52, 58, 64)" fill="none" d="M 80 90 l 1 1"/><path stroke-linejoin="round" stroke-linecap="round" stroke-width="2" stroke="rgb(52, 58, 64)" fill="none" d="M 57 69 c 0.18 0.04 6.66 1.86 10 2 c 12.45 0.52 24.88 0.31 38 0 c 16.59 -0.39 47.44 -4.34 48 -2 c 0.57 2.38 -29.24 14.7 -43 23 c -5.42 3.27 -14.35 11.35 -15 12 c -0.14 0.14 2.8 -0.42 4 -1 c 7.57 -3.64 15.68 -7.32 23 -12 c 13.15 -8.41 25.22 -17.47 38 -27 c 6.04 -4.5 11.02 -9.6 17 -14 c 5.5 -4.05 17 -11 17 -11"/><path stroke-linejoin="round" stroke-linecap="round" stroke-width="2" stroke="rgb(52, 58, 64)" fill="none" d="M 225 31 c -0.12 0.05 -4.84 1.68 -7 3 c -17.46 10.65 -34.93 21.44 -52 33 c -4.72 3.2 -8.44 7.58 -13 11 c -3.49 2.62 -8.44 4.16 -11 7 c -2.9 3.22 -8.21 12.83 -7 13 c 2.52 0.34 19.21 -6.3 29 -10 c 5.57 -2.1 10.55 -4.46 16 -7 c 4.88 -2.28 9.35 -4.37 14 -7 c 8.67 -4.89 16.44 -10.22 25 -15 c 2.89 -1.62 5.98 -2.92 9 -4 c 1.56 -0.56 5.17 -1.22 5 -1 c -0.46 0.62 -7.43 5.77 -11 9 c -3.55 3.22 -6.93 6.39 -10 10 c -4.65 5.46 -12.55 15.74 -13 17 c -0.18 0.5 5.83 -1.6 8 -3 c 2.16 -1.39 4.6 -3.73 6 -6 c 3.68 -5.98 8.3 -14.27 10 -20 c 0.55 -1.87 -0.92 -5.15 -2 -7 c -1.05 -1.79 -3.23 -3.76 -5 -5 c -1.35 -0.94 -3.32 -1.64 -5 -2 c -2.83 -0.61 -5.99 -1 -9 -1 c -6.99 0 -14.43 0.09 -21 1 c -2.67 0.37 -5.27 2.24 -8 3 l -10 2"/><path stroke-linejoin="round" stroke-linecap="round" stroke-width="2" stroke="rgb(52, 58, 64)" fill="none" d="M 170 38 l 1 1"/></svg>