<?xml version="1.0" encoding="UTF-8" standalone="no"?><!DOCTYPE svg PUBLIC "-//W3C//DTD SVG 1.1//EN" "http://www.w3.org/Graphics/SVG/1.1/DTD/svg11.dtd"><svg xmlns="http://www.w3.org/2000/svg" version="1.1" width="290" height="102"><path stroke-linejoin="round" stroke-linecap="round" stroke-width="2" stroke="rgb(52, 58, 64)" fill="none" d="M 289 60 c -0.52 -0.24 -19.76 -9.98 -30 -14 c -6.76 -2.65 -13.72 -4.18 -21 -6 c -9.21 -2.3 -17.69 -4.39 -27 -6 c -16.34 -2.83 -31.6 -5.24 -48 -7 c -12.19 -1.31 -23.78 -2.12 -36 -2 c -22.72 0.22 -44.75 1.07 -67 3 c -8.46 0.74 -17.31 2.44 -25 5 c -5.8 1.93 -12.34 5.46 -17 9 c -3.1 2.36 -7.45 6.99 -8 10 c -0.54 2.97 1.68 9.44 4 12 c 3.47 3.81 10.39 7.97 16 10 c 12.91 4.68 27.82 7.87 42 11 c 5.59 1.23 11.2 1.74 17 2 c 16.95 0.76 33.15 1.42 50 1 c 10.49 -0.26 20.42 -1.65 31 -3 c 8.26 -1.05 16.12 -2.18 24 -4 c 5.12 -1.18 11.01 -2.8 15 -5 c 1.97 -1.08 5.39 -4.72 5 -6 c -0.57 -1.87 -5.77 -5.38 -9 -7 c -6.37 -3.18 -13.8 -6.23 -21 -8 c -15.65 -3.86 -31.38 -6.2 -48 -9 c -12.03 -2.03 -23.04 -4.03 -35 -5 c -21.68 -1.75 -42.59 -2.75 -64 -3 c -7.05 -0.08 -14.45 0.54 -21 2 c -5.02 1.12 -13.34 4.19 -15 6 c -0.74 0.81 2.27 5.05 4 6 c 4.03 2.22 10.62 4.06 16 5 c 7.72 1.35 15.99 2 24 2 c 9.34 0 18.6 -0.8 28 -2 c 9.19 -1.17 18.26 -2.63 27 -5 c 7.15 -1.94 14.29 -4.83 21 -8 c 5.23 -2.47 10.82 -5.58 15 -9 c 2.73 -2.23 5.28 -5.95 7 -9 c 1.1 -1.95 1.84 -4.8 2 -7 c 0.15 -2.14 -0.17 -6.79 -1 -7 c -1.02 -0.25 -5.82 2.99 -7 5 c -1.7 2.89 -2.24 7.9 -3 12 c -0.93 5.02 -1.82 9.93 -2 15 c -0.49 13.4 0.29 27.1 0 40 c -0.03 1.33 -0.64 3.88 -1 4 c -0.32 0.11 -1.62 -1.93 -2 -3 c -1.2 -3.37 -2.55 -7.29 -3 -11 c -1.19 -9.78 -1.68 -19.7 -2 -30 c -0.36 -11.64 -0.27 -22.52 0 -34 c 0.07 -3.06 0.1 -8.36 1 -9 c 0.71 -0.51 5 2.28 6 4 c 2.19 3.78 3.63 9.8 5 15 c 3.39 12.84 5.5 25.1 9 38 c 3 11.07 6.29 21.36 10 32 c 1.34 3.84 3.18 10.02 5 11 c 1.35 0.72 6.51 -2.01 8 -4 c 3.73 -4.98 6.36 -13.26 10 -20 c 3.21 -5.94 9.38 -14.07 10 -17 c 0.2 -0.94 -4.03 -1.74 -6 -2 c -2.8 -0.37 -6.01 0.3 -9 0 c -7.05 -0.71 -13.81 -1.7 -21 -3 c -17.61 -3.18 -34.12 -5.96 -51 -10 c -6.88 -1.65 -19.64 -6.93 -20 -7 c -0.19 -0.04 6.55 4.12 10 5 c 10.35 2.65 21.64 4.18 33 6 c 5.8 0.93 11.3 1.87 17 2 c 9.33 0.21 19.57 -0.21 28 -1 l 4 -2"/><path stroke-linejoin="round" stroke-linecap="round" stroke-width="2" stroke="rgb(52, 58, 64)" fill="none" d="M 177 27 l 1 1"/></svg>