<?xml version="1.0" encoding="UTF-8" standalone="no"?><!DOCTYPE svg PUBLIC "-//W3C//DTD SVG 1.1//EN" "http://www.w3.org/Graphics/SVG/1.1/DTD/svg11.dtd"><svg xmlns="http://www.w3.org/2000/svg" version="1.1" width="477" height="84"><path stroke-linejoin="round" stroke-linecap="round" stroke-width="2" stroke="rgb(52, 58, 64)" fill="none" d="M 79 36 c -0.19 0.05 -7.52 1.54 -11 3 c -10.79 4.51 -20.94 9.69 -32 15 c -6.3 3.02 -12.1 5.63 -18 9 c -5.94 3.39 -15.64 9.75 -17 11 c -0.28 0.26 2.83 1.18 4 1 c 2.69 -0.41 6.07 -1.71 9 -3 c 13.96 -6.14 26.99 -13.31 41 -19 c 7.45 -3.03 14.96 -4.59 23 -7 c 5.92 -1.78 11.22 -3.65 17 -5 c 4.29 -1 8.92 -1.77 13 -2 c 1.58 -0.09 5 0.44 5 1 c 0 0.77 -3.05 3.91 -5 5 c -19.01 10.66 -42.05 21.25 -61 32 c -2.33 1.32 -5.86 5.73 -6 6 c -0.07 0.14 2.88 -1.09 4 -2 c 7.61 -6.2 14.79 -13.67 23 -20 c 16.98 -13.08 33.6 -23.95 51 -37 c 10.22 -7.67 27.83 -21.88 29 -23 c 0.23 -0.22 -5.19 0.74 -7 2 c -6.19 4.28 -13.28 10.53 -19 16 c -1.66 1.59 -3.5 4.17 -4 6 c -0.35 1.29 0.06 4.4 1 5 c 1.88 1.2 6.79 1.83 10 2 c 2.85 0.15 5.96 -0.49 9 -1 c 5.14 -0.86 10.62 -1.62 15 -3 c 1.43 -0.45 2.61 -2.95 4 -3 c 22.81 -0.8 54.02 -1.05 82 0 c 26.69 1 51.32 4.7 78 6 c 15.35 0.75 44.21 0 45 0 c 0.21 0 -7.99 -0.42 -12 0 c -18.17 1.93 -35.33 4.2 -54 7 c -39.24 5.87 -73.74 12.28 -113 18 c -32.17 4.69 -60.87 7.56 -93 12 c -10.42 1.44 -20.05 2.84 -30 5 c -5.48 1.19 -16.33 4.67 -16 5 c 0.4 0.4 13.53 0.16 20 -1 c 11.99 -2.14 23.9 -5.34 36 -9 c 17.23 -5.21 32.65 -11.62 50 -17 c 17.06 -5.29 32.79 -10.26 50 -14 c 26.59 -5.77 51.5 -9.57 79 -14 c 43.67 -7.03 83.23 -13.78 126 -19 c 15.46 -1.89 30.31 -1.78 46 -2 l 25 1"/></svg>