<?xml version="1.0" encoding="UTF-8" standalone="no"?><!DOCTYPE svg PUBLIC "-//W3C//DTD SVG 1.1//EN" "http://www.w3.org/Graphics/SVG/1.1/DTD/svg11.dtd"><svg xmlns="http://www.w3.org/2000/svg" version="1.1" width="407" height="123"><path stroke-linejoin="round" stroke-linecap="round" stroke-width="2" stroke="rgb(52, 58, 64)" fill="none" d="M 406 10 l 1 1"/><path stroke-linejoin="round" stroke-linecap="round" stroke-width="2" stroke="rgb(52, 58, 64)" fill="none" d="M 24 1 l 1 1"/><path stroke-linejoin="round" stroke-linecap="round" stroke-width="2" stroke="rgb(52, 58, 64)" fill="none" d="M 102 35 l 1 1"/><path stroke-linejoin="round" stroke-linecap="round" stroke-width="2" stroke="rgb(52, 58, 64)" fill="none" d="M 2 16 c -0.02 0.28 -1.36 10.78 -1 16 c 0.62 8.89 3.16 17.78 4 27 c 1.2 13.2 1.79 25.74 2 39 c 0.13 8.16 -1 24 -1 24"/><path stroke-linejoin="round" stroke-linecap="round" stroke-width="2" stroke="rgb(52, 58, 64)" fill="none" d="M 52 32 c -0.16 0.37 -5.67 14.11 -9 21 c -1.7 3.52 -3.7 6.8 -6 10 c -7.17 9.99 -14.35 19.51 -22 29 c -2.08 2.58 -5.49 6.55 -7 7 c -0.76 0.23 -3.08 -2.81 -3 -4 c 0.19 -2.8 2.31 -7.61 4 -11 c 1.56 -3.13 3.8 -7.31 6 -9 c 1.44 -1.11 5.42 -1.74 7 -1 c 2.53 1.18 5.65 5.1 8 8 c 3.28 4.06 5.74 8.93 9 13 c 2.04 2.55 4.55 4.95 7 7 c 1.45 1.2 3.65 3.11 5 3 c 1.86 -0.16 5.73 -2.14 7 -4 c 3.1 -4.55 5.83 -11.79 8 -18 c 2.85 -8.18 4.86 -16.45 7 -25 c 0.92 -3.68 0.98 -7.43 2 -11 c 1.65 -5.76 4.7 -15.44 6 -17 c 0.46 -0.56 3.24 3.17 4 5 c 2.37 5.68 4.21 12.42 6 19 c 2.31 8.49 4.41 16.59 6 25 c 0.75 3.94 0.4 7.98 1 12 c 0.76 5.1 2.55 15.27 3 15 c 0.53 -0.32 0.82 -12.01 2 -18 c 2.87 -14.59 6.36 -28.45 10 -43 c 0.78 -3.13 1.68 -6.36 3 -9 c 0.89 -1.78 2.69 -4.61 4 -5 c 1.3 -0.39 4.86 0.86 6 2 c 1.38 1.38 2.05 4.56 3 7 c 1.46 3.75 3.08 7.22 4 11 c 2.08 8.55 2.89 17.56 5 26 c 0.86 3.44 3.31 10 4 10 c 0.66 0 0.73 -7.04 2 -10 c 2.56 -5.97 6.41 -12.5 10 -18 c 1.23 -1.89 3.21 -4.23 5 -5 c 2.29 -0.98 6.54 -1.2 9 -1 c 0.98 0.08 2.21 1.15 3 2 c 10.49 11.39 20.84 24.35 32 36 c 4.27 4.46 8.93 8.66 14 12 l 33 19"/></svg>