<?xml version="1.0" encoding="UTF-8" standalone="no"?><!DOCTYPE svg PUBLIC "-//W3C//DTD SVG 1.1//EN" "http://www.w3.org/Graphics/SVG/1.1/DTD/svg11.dtd"><svg xmlns="http://www.w3.org/2000/svg" version="1.1" width="589" height="155"><path stroke-linejoin="round" stroke-linecap="round" stroke-width="2" stroke="rgb(52, 58, 64)" fill="none" d="M 491 36 c 0.52 -0.35 20.54 -12.9 30 -20 c 3.71 -2.78 6.47 -6.86 10 -10 c 2.5 -2.22 5.61 -3.78 8 -6 c 2.2 -2.04 3.81 -5.32 6 -7 c 1.81 -1.39 4.94 -1.73 7 -3 c 2.11 -1.3 3.81 -3.6 6 -5 c 9.81 -6.27 30 -18 30 -18"/><path stroke-linejoin="round" stroke-linecap="round" stroke-width="2" stroke="rgb(52, 58, 64)" fill="none" d="M 11 31 c 0.07 0.79 3.01 29.51 4 45 c 0.73 11.32 1 33 1 33"/><path stroke-linejoin="round" stroke-linecap="round" stroke-width="2" stroke="rgb(52, 58, 64)" fill="none" d="M 5 110 c -0.03 -0.12 -1.6 -4.62 -2 -7 c -0.93 -5.61 -1.57 -11.25 -2 -17 c -0.25 -3.36 -0.45 -6.76 0 -10 c 0.87 -6.29 1.57 -13.82 4 -19 c 2.13 -4.55 7.08 -8.88 11 -13 c 2.78 -2.91 5.77 -5.55 9 -8 c 6.56 -4.97 13.09 -10.37 20 -14 c 5.99 -3.15 13.37 -5.23 20 -7 c 3.14 -0.84 7.14 -1.62 10 -1 c 4.07 0.88 9.93 3.75 13 6 c 1.15 0.85 2.58 3.9 2 5 c -2.22 4.23 -7.95 12.87 -13 16 c -7.51 4.65 -19.26 7.61 -29 10 c -7.68 1.88 -18.01 1.62 -24 3 c -0.89 0.21 -2.22 2.14 -2 3 c 1.59 6.34 5.14 17.46 9 25 c 3.22 6.3 8.48 13.03 13 18 c 1.64 1.8 4.56 2.97 7 4 c 3.82 1.61 8.12 3.14 12 4 c 1.84 0.41 4.26 0.51 6 0 c 3.51 -1.03 8.19 -2.94 11 -5 c 1.67 -1.23 3.05 -3.88 4 -6 c 1.97 -4.37 4.82 -10.91 5 -14 c 0.06 -1.04 -3.42 -3.42 -4 -3 c -1 0.71 -2.65 5.53 -3 8 c -0.25 1.76 0.21 4.32 1 6 c 1.69 3.6 4.37 8.18 7 11 c 1.63 1.74 4.66 3.16 7 4 c 2.05 0.73 4.73 1 7 1 c 2.58 0 5.78 -0.08 8 -1 c 2.98 -1.23 6.5 -3.63 9 -6 c 3.94 -3.74 7.71 -8.4 11 -13 c 3.38 -4.73 6.55 -9.74 9 -15 c 4.21 -9.04 7.56 -18.43 11 -28 c 1.3 -3.63 2.41 -7.3 3 -11 c 0.73 -4.55 1.06 -13.39 1 -14 c -0.02 -0.19 -1.68 2.61 -2 4 c -1.92 8.24 -3.62 17.06 -5 26 c -1.36 8.84 -3.16 17.64 -3 26 c 0.16 8.09 1.86 17.21 4 25 c 1.4 5.09 4.46 11.4 7 15 c 0.83 1.17 3.56 2.11 5 2 c 2.28 -0.18 5.83 -1.6 8 -3 c 2.16 -1.39 4.84 -3.81 6 -6 c 1.56 -2.94 2.55 -7.38 3 -11 c 0.52 -4.13 -0.95 -10.93 0 -13 c 0.44 -0.95 4.05 0.28 6 0 c 4.97 -0.71 10.08 -1.68 15 -3 c 3.77 -1.01 7.45 -2.34 11 -4 c 6.52 -3.04 12.74 -7 19 -10 c 1.2 -0.58 2.95 -1.15 4 -1 c 0.92 0.13 2.26 2.31 3 2 c 3.86 -1.63 11.19 -6.12 16 -10 c 7.04 -5.67 16.26 -16.56 20 -19 c 0.68 -0.44 2.77 2.6 3 4 c 0.93 5.61 0.07 13.98 1 20 c 0.31 2.01 1.79 4.19 3 6 c 1.4 2.11 3.16 4.5 5 6 c 1.58 1.29 4.22 3 6 3 c 2.78 0 7.15 -1.45 10 -3 c 4.09 -2.23 8.35 -5.75 12 -9 c 2.24 -1.99 4.35 -4.52 6 -7 c 1.6 -2.4 2.82 -5.25 4 -8 c 0.83 -1.94 2 -4.1 2 -6 c 0 -4.84 -1.84 -15.58 -2 -16 c -0.08 -0.21 -1 5.37 -1 8 c 0 3.6 0.94 7.25 1 11 c 0.28 15.97 0.27 44.3 0 47 c -0.05 0.46 -3.16 -4.61 -4 -7 c -1.07 -3.02 -1.84 -6.66 -2 -10 c -0.5 -10.16 -1.15 -21.22 0 -31 c 0.77 -6.58 3.4 -13.65 6 -20 c 2.68 -6.53 6.34 -12.63 10 -19 c 4.21 -7.33 8.06 -15.87 13 -21 c 3.13 -3.25 9.19 -5.04 14 -7 c 4.18 -1.7 9.14 -3.83 13 -4 c 2.97 -0.13 7.28 1.55 10 3 c 1.84 0.98 3.57 3.22 5 5 c 1.18 1.47 3.56 3.78 3 5 c -4.32 9.5 -14.57 26.77 -23 39 c -4.75 6.89 -10.96 12.96 -17 19 c -4.37 4.37 -9.07 8.48 -14 12 c -4.32 3.08 -9.21 5.87 -14 8 c -4.04 1.8 -13.2 4.13 -13 4 c 0.34 -0.21 13.79 -6.41 21 -9 c 5.89 -2.11 11.79 -3.53 18 -5 c 6.78 -1.61 13.25 -3.18 20 -4 c 6.96 -0.85 14.14 -1.21 21 -1 c 3.97 0.12 8.12 0.96 12 2 c 4.74 1.28 12.75 3.61 14 5 c 0.59 0.66 -3.04 4.15 -5 5 c -12.07 5.25 -26.79 10.37 -41 15 c -15.24 4.96 -29.49 9.12 -45 13 l -39 8"/><path stroke-linejoin="round" stroke-linecap="round" stroke-width="2" stroke="rgb(52, 58, 64)" fill="none" d="M 433 78 c -0.09 -0.02 -3.49 -1.13 -5 -1 c -2.15 0.18 -4.93 0.97 -7 2 c -3.71 1.85 -8.31 4.52 -11 7 c -1.11 1.02 -1.88 3.42 -2 5 c -0.18 2.36 0.13 6.27 1 8 c 0.48 0.96 2.98 2.26 4 2 c 2.16 -0.54 5.67 -3.02 8 -5 c 4.2 -3.57 8.48 -7.74 12 -12 c 2.7 -3.27 4.39 -9.04 7 -11 c 1.81 -1.36 6.15 -0.19 9 -1 c 13.24 -3.78 35.47 -12.29 40 -13 c 0.78 -0.12 -2.17 5.32 -2 7 c 0.1 0.98 2.14 3.29 3 3 c 6.04 -2.01 18.22 -9.27 27 -13 c 1.78 -0.76 5.21 -1.53 6 -1 c 0.65 0.43 0.37 3.52 0 5 c -0.56 2.25 -2.83 5.08 -3 7 c -0.1 1.13 1.19 4.16 2 4 c 4.48 -0.9 15.48 -5.78 23 -9 c 1.78 -0.76 3.31 -2.32 5 -3 c 1.48 -0.59 3.67 -1.17 5 -1 c 0.94 0.12 2.27 1.17 3 2 c 1.45 1.66 2.39 4.93 4 6 c 1.84 1.22 5.43 1.09 8 2 l 9 4"/></svg>