<?xml version="1.0" encoding="UTF-8" standalone="no"?><!DOCTYPE svg PUBLIC "-//W3C//DTD SVG 1.1//EN" "http://www.w3.org/Graphics/SVG/1.1/DTD/svg11.dtd"><svg xmlns="http://www.w3.org/2000/svg" version="1.1" width="490" height="108.00000000000001"><path stroke-linejoin="round" stroke-linecap="round" stroke-width="2" stroke="rgb(52, 58, 64)" fill="none" d="M 1 64 l 1 1"/><path stroke-linejoin="round" stroke-linecap="round" stroke-width="2" stroke="rgb(52, 58, 64)" fill="none" d="M 7 91 c 0 -0.44 -0.45 -16.72 0 -25 c 0.22 -4.03 0.92 -8.55 2 -12 c 0.44 -1.42 1.85 -2.99 3 -4 c 1.35 -1.18 4.24 -3.25 5 -3 c 0.66 0.22 1.33 3.59 1 5 c -0.85 3.59 -3.06 8.34 -5 12 c -0.96 1.8 -4.38 3.97 -4 5 c 0.59 1.61 5.72 3.72 8 6 c 2.91 2.91 5.89 6.63 8 10 c 1.04 1.67 2.11 4.22 2 6 c -0.18 2.94 -1.62 7.25 -3 10 c -0.75 1.49 -2.56 3.04 -4 4 c -1.37 0.91 -5 2.18 -5 2 c 0 -0.21 3.3 -3.15 5 -4 c 1.35 -0.68 3.33 -0.9 5 -1 c 3.6 -0.23 7.51 -0.54 11 0 c 4.92 0.76 10.84 3.56 15 4 c 1.2 0.13 3.12 -1.12 4 -2 c 0.88 -0.88 1.7 -2.63 2 -4 c 0.96 -4.34 1.82 -9.41 2 -14 c 0.15 -3.91 -1 -8.23 -1 -12 c 0 -1.29 0.38 -3.63 1 -4 c 0.62 -0.37 2.93 0.33 4 1 c 3.89 2.43 8.52 7.36 12 9 c 1.18 0.56 4.36 -0.23 5 -1 c 0.63 -0.76 -0.46 -3.61 0 -5 c 0.74 -2.23 2.52 -5.1 4 -7 c 0.66 -0.85 2.37 -2.4 3 -2 c 4.33 2.75 13.22 10.46 19 16 c 2 1.92 5.57 6.87 5 7 c -0.98 0.22 -9.25 -3.67 -14 -5 c -3.57 -1 -8.04 -2 -11 -2 c -0.95 0 -3.32 1.87 -3 2 c 2 0.84 14.66 4.61 22 6 c 4.84 0.92 10.43 1.74 15 1 c 7.03 -1.14 15.21 -4.15 22 -7 c 3.18 -1.33 6.75 -5.25 9 -6 c 0.75 -0.25 2.25 1.16 3 2 c 2.09 2.32 3.72 5.87 6 8 c 2.47 2.3 6.23 5.13 9 6 c 1.81 0.57 4.86 -0.42 7 -1 c 1.36 -0.37 3.12 -1 4 -2 c 3.66 -4.14 7.1 -10.19 11 -15 c 1.78 -2.2 3.73 -4.91 6 -6 c 5.33 -2.56 12.56 -4.39 19 -6 c 4.25 -1.06 11.48 -2.69 13 -2 c 0.84 0.38 -0.8 5.4 -2 7 c -1.42 1.89 -5.32 2.98 -7 5 c -2.99 3.58 -5.74 8.74 -8 13 c -0.61 1.15 -1.34 3.09 -1 4 c 0.47 1.25 2.81 4.29 4 4 c 5.74 -1.39 16.59 -7.69 25 -11 c 2.54 -1 5.35 -1.75 8 -2 c 4.18 -0.4 9.22 -1.01 13 0 c 5.46 1.46 11.69 6.07 17 8 c 1.41 0.51 3.51 0.43 5 0 c 5.09 -1.46 10.95 -3.47 16 -6 c 7.55 -3.78 14.94 -12.47 22 -13 l 58 7"/><path stroke-linejoin="round" stroke-linecap="round" stroke-width="2" stroke="rgb(52, 58, 64)" fill="none" d="M 217 97 l 1 1"/><path stroke-linejoin="round" stroke-linecap="round" stroke-width="2" stroke="rgb(52, 58, 64)" fill="none" d="M 129 87 l 1 1"/><path stroke-linejoin="round" stroke-linecap="round" stroke-width="2" stroke="rgb(52, 58, 64)" fill="none" d="M 51 96 c -0.05 -0.04 -2.33 -1.19 -3 -2 c -0.84 -1 -1.64 -2.61 -2 -4 c -1.25 -4.74 -2.45 -10.01 -3 -15 c -0.43 -3.91 -0.49 -8.07 0 -12 c 1.17 -9.32 2.81 -19.22 5 -28 c 0.69 -2.76 2.47 -5.51 4 -8 c 1.1 -1.78 2.45 -3.67 4 -5 c 2.95 -2.53 7.52 -6.5 10 -7 c 1.3 -0.26 4.03 2.55 5 4 l 1 5"/><path stroke-linejoin="round" stroke-linecap="round" stroke-width="2" stroke="rgb(52, 58, 64)" fill="none" d="M 51 80 l 1 1"/><path stroke-linejoin="round" stroke-linecap="round" stroke-width="2" stroke="rgb(52, 58, 64)" fill="none" d="M 324 1 l 1 1"/><path stroke-linejoin="round" stroke-linecap="round" stroke-width="2" stroke="rgb(52, 58, 64)" fill="none" d="M 359 18 l -13 12"/><path stroke-linejoin="round" stroke-linecap="round" stroke-width="2" stroke="rgb(52, 58, 64)" fill="none" d="M 295 57 l 1 1"/><path stroke-linejoin="round" stroke-linecap="round" stroke-width="2" stroke="rgb(52, 58, 64)" fill="none" d="M 374 83 l 1 1"/><path stroke-linejoin="round" stroke-linecap="round" stroke-width="2" stroke="rgb(52, 58, 64)" fill="none" d="M 407 5 c -0.26 0.37 -11.92 13.48 -15 21 c -8.37 20.45 -21 67 -21 67"/><path stroke-linejoin="round" stroke-linecap="round" stroke-width="2" stroke="rgb(52, 58, 64)" fill="none" d="M 403 95 l 1 1"/><path stroke-linejoin="round" stroke-linecap="round" stroke-width="2" stroke="rgb(52, 58, 64)" fill="none" d="M 449 88 c 0.14 -0.02 5.47 -0.37 8 -1 c 2.68 -0.67 5.39 -2.56 8 -3 c 3.06 -0.51 10 0 10 0"/><path stroke-linejoin="round" stroke-linecap="round" stroke-width="2" stroke="rgb(52, 58, 64)" fill="none" d="M 489 49 l 1 1"/><path stroke-linejoin="round" stroke-linecap="round" stroke-width="2" stroke="rgb(52, 58, 64)" fill="none" d="M 489 87 l 1 1"/></svg>