<?xml version="1.0" encoding="UTF-8" standalone="no"?><!DOCTYPE svg PUBLIC "-//W3C//DTD SVG 1.1//EN" "http://www.w3.org/Graphics/SVG/1.1/DTD/svg11.dtd"><svg xmlns="http://www.w3.org/2000/svg" version="1.1" width="342" height="111"><path stroke-linejoin="round" stroke-linecap="round" stroke-width="2" stroke="rgb(52, 58, 64)" fill="none" d="M 87 8 c -0.23 -0.11 -8.69 -5.11 -13 -6 c -6.32 -1.3 -14.3 -1.39 -21 -1 c -4.25 0.25 -8.88 1.57 -13 3 c -4.43 1.53 -9.89 3.08 -13 6 c -6.96 6.54 -14.99 16.66 -20 25 c -2.43 4.04 -2.9 9.87 -4 15 c -0.93 4.35 -2.37 9.5 -2 13 c 0.2 1.92 2.47 4.93 4 6 c 1.29 0.9 4.33 1.36 6 1 c 2.45 -0.52 6.03 -2.09 8 -4 c 7.04 -6.79 19.83 -22.96 21 -24 c 0.27 -0.24 -2 5.15 -2 7 c 0 0.91 1.24 3 2 3 c 2.4 0 7.51 -1.67 11 -3 c 3.43 -1.31 6.57 -3.63 10 -5 c 3.21 -1.28 6.63 -2.29 10 -3 c 2.92 -0.62 6.43 -1.34 9 -1 c 1.9 0.25 4.6 1.6 6 3 c 2.54 2.54 4.42 7.61 7 10 c 1.61 1.49 4.66 2.72 7 3 c 7.99 0.97 17.29 0.31 26 1 c 4.07 0.32 8.06 1.06 12 2 c 3.07 0.73 6.33 1.6 9 3 c 3.43 1.81 6.72 5.13 10 7 c 1.11 0.63 2.75 1 4 1 c 1.85 0 4.19 -0.35 6 -1 c 2.67 -0.95 5.45 -2.44 8 -4 c 3.47 -2.12 6.53 -5.18 10 -7 c 3.33 -1.74 7.32 -3.03 11 -4 c 2.53 -0.67 6.2 -1.69 8 -1 c 1.74 0.67 4.44 4.06 5 6 c 0.57 2.01 -0.27 5.49 -1 8 c -1.55 5.31 -4.4 10.59 -6 16 c -1.05 3.54 -0.78 7.86 -2 11 c -0.94 2.41 -2.9 5.6 -5 7 c -5.13 3.42 -13 7 -19 9 c -2.28 0.76 -5.95 0.73 -8 0 c -2.01 -0.72 -5.74 -3.56 -6 -5 c -0.24 -1.33 2.28 -4.62 4 -6 c 6.03 -4.82 13.74 -10.45 21 -14 l 24 -8"/><path stroke-linejoin="round" stroke-linecap="round" stroke-width="2" stroke="rgb(52, 58, 64)" fill="none" d="M 287 60 c -0.03 0.09 -1.12 3.5 -2 5 c -1.4 2.4 -3.14 4.83 -5 7 c -2.14 2.49 -4.5 4.83 -7 7 c -2.53 2.19 -5.36 4.58 -8 6 c -1.35 0.73 -5.15 1.26 -5 1 c 0.35 -0.62 5.74 -6.12 9 -8 c 4.98 -2.87 11.15 -5.05 17 -7 c 6.25 -2.08 12.57 -3.81 19 -5 c 6.26 -1.15 12.93 -2.17 19 -2 c 5.17 0.15 12.64 1.62 16 3 c 0.85 0.35 1.55 3.31 1 4 c -1.44 1.8 -5.87 4.84 -9 6 c -5.34 1.98 -11.79 2.86 -18 4 c -6.81 1.25 -13.16 2.26 -20 3 c -5.76 0.62 -17 1 -17 1"/><path stroke-linejoin="round" stroke-linecap="round" stroke-width="2" stroke="rgb(52, 58, 64)" fill="none" d="M 295 63 l 1 1"/></svg>