<?xml version="1.0" encoding="UTF-8" standalone="no"?><!DOCTYPE svg PUBLIC "-//W3C//DTD SVG 1.1//EN" "http://www.w3.org/Graphics/SVG/1.1/DTD/svg11.dtd"><svg xmlns="http://www.w3.org/2000/svg" version="1.1" width="458" height="69"><path stroke-linejoin="round" stroke-linecap="round" stroke-width="2" stroke="rgb(52, 58, 64)" fill="none" d="M 32 44 c -0.07 -0.02 -2.95 -1.15 -4 -1 c -0.92 0.13 -2.89 1.33 -3 2 c -0.14 0.83 2 4 2 4"/><path stroke-linejoin="round" stroke-linecap="round" stroke-width="2" stroke="rgb(52, 58, 64)" fill="none" d="M 9 48 c -0.05 0.04 -2.19 1.19 -3 2 c -1.76 1.76 -5.42 4.95 -5 6 c 0.53 1.32 6.09 3.69 9 4 c 5.63 0.6 12.85 -0.18 19 -1 c 3.69 -0.49 7.65 -1.57 11 -3 c 3.42 -1.47 7.03 -3.69 10 -6 c 2.88 -2.24 5.48 -5.15 8 -8 c 2.54 -2.87 5.18 -5.85 7 -9 c 1.72 -2.97 2.92 -6.59 4 -10 c 0.92 -2.92 1.6 -6.02 2 -9 c 0.26 -1.94 0.43 -4.26 0 -6 c -0.49 -1.94 -1.51 -5.37 -3 -6 c -3.57 -1.5 -11.65 -2.4 -16 -2 c -1.94 0.18 -4.41 2.41 -6 4 c -2.21 2.21 -5.05 5.29 -6 8 c -1.14 3.27 -1.17 8.17 -1 12 c 0.15 3.25 0.88 6.9 2 10 c 1.81 5.04 4.42 10.06 7 15 c 1.47 2.81 3.07 5.62 5 8 c 2.32 2.85 5.27 5.72 8 8 c 1.08 0.9 4.13 2.01 4 2 c -0.4 -0.04 -9.59 -1.38 -14 -3 c -11.74 -4.31 -23.93 -9.6 -35 -15 c -2.91 -1.42 -5.63 -3.83 -8 -6 c -1.52 -1.39 -3.73 -3.49 -4 -5 c -0.27 -1.49 1.02 -4.31 2 -6 c 1.21 -2.08 3.19 -4.37 5 -6 c 1.35 -1.22 3.24 -2.23 5 -3 c 3.52 -1.54 7.3 -2.91 11 -4 c 1.92 -0.57 4.1 -1.11 6 -1 c 3.8 0.21 8.75 0.52 12 2 c 3.42 1.55 7.72 4.8 10 8 c 5.51 7.71 11.64 22.58 15 27 c 0.49 0.64 3.12 -1 4 -2 c 3.66 -4.14 7.13 -9.92 11 -15 c 1.62 -2.13 3.24 -4.24 5 -6 c 0.81 -0.81 2.3 -2.12 3 -2 c 0.82 0.14 2.56 1.9 3 3 c 0.73 1.83 0.43 4.74 1 7 c 0.76 3.04 1.66 6.9 3 9 c 0.63 0.99 3 2.31 4 2 c 2.41 -0.74 6.31 -3.69 9 -6 c 4.23 -3.62 7.81 -8.25 12 -12 c 2.13 -1.9 4.77 -4.07 7 -5 c 1.3 -0.54 3.8 -0.53 5 0 c 1.36 0.6 3.33 2.48 4 4 c 1.74 3.91 2.42 10.38 4 14 c 0.39 0.9 2.2 2.2 3 2 c 2.28 -0.57 6.64 -2.96 9 -5 c 2.29 -1.99 3.83 -5.46 6 -8 c 1.85 -2.15 3.92 -4.33 6 -6 c 1.1 -0.88 3.25 -2.32 4 -2 c 0.98 0.42 2.25 3.31 3 5 c 0.53 1.19 0.91 2.67 1 4 c 0.23 3.22 -0.33 6.74 0 10 c 0.33 3.33 1.04 8.56 2 10 c 0.39 0.58 3.35 -0.13 4 -1 c 4.25 -5.67 9.44 -16.29 14 -23 c 0.61 -0.9 2.13 -2 3 -2 c 1.3 0 4.57 0.84 5 2 c 1.36 3.7 1.02 11.6 2 17 c 0.31 1.7 1.09 4.48 2 5 c 0.87 0.49 4.09 -0.09 5 -1 c 1.85 -1.85 3.13 -6.3 5 -9 c 1.03 -1.48 2.58 -2.93 4 -4 c 1.12 -0.84 2.7 -1.71 4 -2 c 1.46 -0.32 3.45 -0.28 5 0 c 1.95 0.36 4.41 0.99 6 2 c 1.78 1.13 3.53 3.2 5 5 c 1.5 1.83 2.41 4.7 4 6 c 1.68 1.38 4.66 2.53 7 3 c 4.01 0.8 9.56 2.27 13 1 c 7.69 -2.83 16.61 -10.56 25 -15 c 2.73 -1.45 5.98 -2.4 9 -3 c 3.51 -0.7 8.02 -1.53 11 -1 c 1.95 0.34 4.77 2.33 6 4 c 2.06 2.81 2.92 7.73 5 11 c 2.45 3.85 6.01 8.6 9 11 c 1.28 1.03 4.11 1.11 6 1 c 3.48 -0.2 7.49 -0.86 11 -2 c 9.72 -3.16 19.22 -7.96 29 -11 c 5.13 -1.6 10.97 -3 16 -3 c 5.03 0 11.04 1.26 16 3 c 8.04 2.82 15.79 8.03 24 11 l 23 6"/></svg>