<?xml version="1.0" encoding="UTF-8" standalone="no"?><!DOCTYPE svg PUBLIC "-//W3C//DTD SVG 1.1//EN" "http://www.w3.org/Graphics/SVG/1.1/DTD/svg11.dtd"><svg xmlns="http://www.w3.org/2000/svg" version="1.1" width="568" height="127"><path stroke-linejoin="round" stroke-linecap="round" stroke-width="2" stroke="rgb(52, 58, 64)" fill="none" d="M 21 67 l 1 1"/><path stroke-linejoin="round" stroke-linecap="round" stroke-width="2" stroke="rgb(52, 58, 64)" fill="none" d="M 34 50 l 0 7"/><path stroke-linejoin="round" stroke-linecap="round" stroke-width="2" stroke="rgb(52, 58, 64)" fill="none" d="M 30 64 l 1 1"/><path stroke-linejoin="round" stroke-linecap="round" stroke-width="2" stroke="rgb(52, 58, 64)" fill="none" d="M 35 43 c -0.02 0.54 -0.87 29.94 -1 31 c -0.03 0.25 -1.15 -4.87 -2 -7 c -0.42 -1.06 -1.18 -2.73 -2 -3 c -1.6 -0.53 -5.03 -0.56 -7 0 c -2.26 0.65 -5.18 2.29 -7 4 c -3.53 3.32 -7.74 7.78 -10 12 c -2.42 4.53 -4.11 11.09 -5 16 c -0.32 1.78 0.38 4.13 1 6 c 1.33 4 2.83 8.66 5 12 c 1.89 2.91 5.14 5.98 8 8 c 2.49 1.76 6.08 3.35 9 4 c 2.67 0.59 6.25 0.55 9 0 c 3.57 -0.71 8.11 -2.19 11 -4 c 1.93 -1.21 3.57 -3.86 5 -6 c 1.88 -2.82 4.15 -5.95 5 -9 c 1.34 -4.77 1.83 -10.7 2 -16 c 0.16 -4.94 -0.38 -9.9 -1 -15 c -1.78 -14.74 -2.27 -30.25 -6 -43 c -2.19 -7.51 -8.41 -14.61 -13 -22 c -1.54 -2.49 -3.18 -4.98 -5 -7 c -1.06 -1.17 -3.15 -3.34 -4 -3 c -1.56 0.62 -4.82 4.63 -6 7 l -1 7"/><path stroke-linejoin="round" stroke-linecap="round" stroke-width="2" stroke="rgb(52, 58, 64)" fill="none" d="M 72 126 c 0.18 -0.02 7.11 -0.33 10 -1 c 1.04 -0.24 2.33 -1.19 3 -2 c 0.84 -1 1.87 -2.67 2 -4 c 0.47 -4.75 0.69 -10.98 0 -16 c -0.59 -4.27 -2.41 -10.22 -4 -13 c -0.48 -0.84 -2.95 -1.15 -4 -1 c -0.92 0.13 -2.41 1.17 -3 2 c -0.89 1.24 -2 3.51 -2 5 c 0 2.01 1.04 5.09 2 7 c 0.56 1.11 1.88 2.53 3 3 c 2.44 1.02 6.39 2 9 2 c 1.53 0 3.53 -1.09 5 -2 c 2.73 -1.68 5.79 -3.79 8 -6 c 1.59 -1.59 3.22 -3.93 4 -6 c 1.1 -2.93 1.91 -6.7 2 -10 c 0.23 -8.09 0.03 -16.97 -1 -25 c -0.6 -4.67 -2.37 -9.32 -4 -14 c -3.48 -9.98 -9.68 -26.47 -11 -29 c -0.19 -0.37 -1.66 2.65 -2 4 c -0.61 2.44 -1 5.33 -1 8 c 0 6.62 0.08 13.53 1 20 c 0.72 5.02 2.34 10.03 4 15 c 2.06 6.19 4.31 11.98 7 18 c 4.48 10.03 9.82 22.03 14 29 c 0.54 0.89 3.13 1.43 4 1 c 1.79 -0.89 6.08 -4.14 6 -6 c -0.17 -4.02 -5.92 -15.31 -7 -17 c -0.21 -0.33 -2 2.1 -2 3 c 0 1.57 1.13 4.12 2 6 c 1.11 2.4 2.43 5.08 4 7 c 1.25 1.53 3.26 2.95 5 4 c 1.46 0.88 3.36 1.75 5 2 c 2.43 0.37 5.95 0.73 8 0 c 2.01 -0.72 5.13 -3.14 6 -5 c 1.12 -2.4 1.2 -7.03 1 -10 c -0.11 -1.59 -1.12 -3.54 -2 -5 c -1.05 -1.74 -2.52 -3.52 -4 -5 c -1.81 -1.81 -5.81 -4.94 -6 -5 c -0.12 -0.04 1.86 3.29 3 4 c 1.16 0.73 3.34 0.83 5 1 c 1.63 0.16 3.45 0.28 5 0 c 1.95 -0.36 4.04 -1.67 6 -2 c 1.86 -0.31 6.09 -0.75 6 0 c -0.28 2.35 -6.41 12 -8 17 c -0.43 1.36 0.16 4.16 1 5 c 1.04 1.04 4.49 2.35 6 2 c 2.05 -0.47 5.29 -3.12 7 -5 c 1.33 -1.47 2.22 -3.92 3 -6 c 1.21 -3.23 3.27 -8.77 3 -10 c -0.13 -0.6 -4.35 0.13 -5 1 c -0.9 1.2 -1 4.83 -1 7 c 0 1.27 0.41 2.96 1 4 c 0.61 1.07 2.14 3.14 3 3 c 2.09 -0.35 6.5 -3 9 -5 c 2.23 -1.79 4.91 -7.12 6 -7 c 1.01 0.11 1.69 5.93 3 8 c 0.77 1.21 2.66 2.63 4 3 c 1.88 0.51 4.88 0.35 7 0 c 1.63 -0.27 3.63 -1.09 5 -2 c 1.44 -0.96 3.29 -2.58 4 -4 c 0.76 -1.53 1.23 -4.19 1 -6 c -0.39 -3.1 -1.57 -6.99 -3 -10 c -1.79 -3.76 -4.27 -7.7 -7 -11 c -5.19 -6.27 -11.88 -11.77 -17 -18 c -2.41 -2.94 -5.69 -7.24 -6 -10 c -0.24 -2.12 2.28 -6.28 4 -8 c 1.46 -1.46 4.7 -2.7 7 -3 c 4.84 -0.63 11.27 -0.64 16 0 c 1.98 0.27 4.54 1.69 6 3 c 1.57 1.41 3.32 3.88 4 6 c 2.14 6.65 4.69 14.98 5 22 c 0.33 7.52 -1.25 16.42 -3 24 c -1.17 5.06 -5.4 14.15 -6 15 c -0.19 0.27 -1 -3.38 -1 -5 c 0 -3.51 0.24 -7.41 1 -11 c 1.91 -9.06 4.02 -18.49 7 -27 c 1.58 -4.5 5.45 -11.87 7 -13 c 0.67 -0.49 3.4 3.21 4 5 c 1.52 4.56 2.33 10.52 3 16 c 1.37 11.16 2.93 32.42 3 33 c 0.01 0.12 -0.49 -4.83 0 -7 c 1.75 -7.76 4.33 -15.99 7 -24 c 1.39 -4.16 2.91 -8.77 5 -12 c 1.26 -1.94 5.27 -5.78 6 -5 c 1.89 2.03 5.11 12.42 7 19 l 10 40"/><path stroke-linejoin="round" stroke-linecap="round" stroke-width="2" stroke="rgb(52, 58, 64)" fill="none" d="M 285 109 l 1 1"/><path stroke-linejoin="round" stroke-linecap="round" stroke-width="2" stroke="rgb(52, 58, 64)" fill="none" d="M 313 64 c 0 0.25 -0.41 9.5 0 14 c 0.24 2.65 1.06 5.45 2 8 c 1.38 3.74 3.18 8.04 5 11 c 0.54 0.88 2.16 2 3 2 c 1.04 0 3.23 -1 4 -2 c 2.16 -2.8 4.77 -7.3 6 -11 c 1.3 -3.89 1.96 -13.23 2 -13 c 0.05 0.33 -1.44 13.33 -1 19 c 0.17 2.27 1.77 4.9 3 7 c 1.03 1.77 2.52 3.85 4 5 c 1.24 0.97 3.38 1.68 5 2 c 1.51 0.3 3.43 0.26 5 0 c 2.29 -0.38 5.59 -0.71 7 -2 c 1.99 -1.83 3.98 -5.95 5 -9 c 1.2 -3.6 1.88 -8.04 2 -12 c 0.2 -6.53 0.34 -13.95 -1 -20 c -1.17 -5.28 -4.11 -11.13 -7 -16 c -3.31 -5.58 -7.9 -11.13 -12 -16 l -4 -3"/><path stroke-linejoin="round" stroke-linecap="round" stroke-width="2" stroke="rgb(52, 58, 64)" fill="none" d="M 391 88 c 0.02 -0.12 1.65 -6.08 1 -7 c -0.56 -0.78 -4.49 -0.63 -6 0 c -1.97 0.82 -4.37 3.19 -6 5 c -1.22 1.35 -2.86 3.56 -3 5 c -0.13 1.33 1.1 5.11 2 5 c 2.77 -0.33 12.68 -7.14 15 -7 c 1.13 0.07 0.39 5.56 1 8 c 0.34 1.35 1.06 3.18 2 4 c 1.41 1.23 4.29 2.84 6 3 c 1.37 0.12 3.86 -0.99 5 -2 c 1.52 -1.36 3.2 -3.88 4 -6 c 2.06 -5.5 3.98 -11.9 5 -18 c 1.64 -9.84 2.78 -20.26 3 -30 c 0.1 -4.57 -0.92 -10.54 -2 -14 c -0.28 -0.88 -2.56 -2.22 -3 -2 c -0.5 0.25 -0.94 2.67 -1 4 c -0.26 5.48 -0.55 11.51 0 17 c 0.43 4.31 1.45 8.94 3 13 c 2.71 7.08 6.3 14.53 10 21 c 1.47 2.57 3.98 5.38 6 7 c 0.91 0.72 3.12 1.47 4 1 c 2.56 -1.38 7.78 -5.02 9 -8 c 1.93 -4.74 1.82 -12.67 2 -19 c 0.15 -5.31 -0.4 -10.58 -1 -16 c -0.76 -6.84 -1.51 -13.62 -3 -20 l -4 -10"/><path stroke-linejoin="round" stroke-linecap="round" stroke-width="2" stroke="rgb(52, 58, 64)" fill="none" d="M 444 25 c 0.38 1.07 15.7 41.81 22 61 c 0.58 1.78 0.85 5.95 0 6 c -2.36 0.15 -16.37 -4.7 -16 -5 c 0.47 -0.37 15.01 -0.11 21 1 c 2.05 0.38 4.17 3.5 6 4 c 1.29 0.35 3.58 -0.35 5 -1 c 2.01 -0.91 4.51 -2.51 6 -4 c 0.92 -0.92 1.65 -4 2 -4 c 0.33 0 0.24 3.24 1 4 c 1.48 1.48 4.65 3.31 7 4 c 2.92 0.86 6.78 1 10 1 c 1.95 0 4.33 -0.22 6 -1 c 2.97 -1.39 6.44 -3.9 9 -6 c 0.85 -0.7 1.62 -3.3 2 -3 c 1.29 1 4.44 7.24 7 10 c 1.51 1.63 3.89 3.11 6 4 c 3.98 1.68 8.9 3.44 13 4 c 2.73 0.37 6.26 -0.37 9 -1 c 1.35 -0.31 3.49 -0.98 4 -2 c 1.4 -2.81 3.34 -8.98 3 -12 c -0.21 -1.9 -3.13 -4.25 -5 -6 c -3.07 -2.86 -6.45 -5.73 -10 -8 c -4.72 -3.02 -9.78 -6.23 -15 -8 c -12.06 -4.1 -24.98 -7.06 -38 -10 c -8.06 -1.82 -15.86 -3.15 -24 -4 c -8.03 -0.84 -15.85 -1.13 -24 -1 c -12.57 0.21 -24.67 0.95 -37 2 c -3.39 0.29 -6.78 1.03 -10 2 c -3.4 1.02 -9.63 3.13 -10 4 c -0.26 0.61 4.62 2.55 7 3 c 7.87 1.48 16.58 2.77 25 3 c 16.38 0.44 32.11 -0.36 49 -1 c 10.36 -0.39 19.77 -1.07 30 -2 c 4.81 -0.44 9.34 -0.96 14 -2 c 10.55 -2.35 21.4 -5.18 31 -8 c 1.08 -0.32 3.11 -1.68 3 -2 c -0.12 -0.36 -2.76 -1 -4 -1 l -5 1"/></svg>