<?xml version="1.0" encoding="UTF-8" standalone="no"?><!DOCTYPE svg PUBLIC "-//W3C//DTD SVG 1.1//EN" "http://www.w3.org/Graphics/SVG/1.1/DTD/svg11.dtd"><svg xmlns="http://www.w3.org/2000/svg" version="1.1" width="571" height="119"><path stroke-linejoin="round" stroke-linecap="round" stroke-width="2" stroke="rgb(52, 58, 64)" fill="none" d="M 186 59 l 1 1"/><path stroke-linejoin="round" stroke-linecap="round" stroke-width="2" stroke="rgb(52, 58, 64)" fill="none" d="M 1 101 c 0.03 -0.21 0.57 -8.39 2 -12 c 4.68 -11.82 10.96 -24.45 17 -36 c 1.52 -2.9 4.33 -5.13 6 -8 c 4.32 -7.45 7.7 -15.36 12 -23 c 1.79 -3.19 4.25 -5.89 6 -9 c 1.23 -2.19 2.44 -4.75 3 -7 c 0.37 -1.48 0.52 -4.48 0 -5 c -0.43 -0.43 -2.88 0.39 -4 1 c -2.33 1.27 -4.62 3.22 -7 5 c -3.15 2.36 -6.58 4.58 -9 7 c -0.95 0.95 -1.85 2.8 -2 4 c -0.14 1.11 0.37 2.86 1 4 c 4.14 7.45 9.56 15.17 14 23 c 1.25 2.21 2.19 4.57 3 7 c 1.55 4.64 3.46 9.53 4 14 c 0.41 3.39 -0.2 7.79 -1 11 c -0.42 1.7 -1.62 3.99 -3 5 c -5.21 3.79 -12.77 9.08 -19 11 c -5.69 1.75 -14.87 1.45 -20 1 c -1.09 -0.09 -2.65 -1.94 -3 -3 c -0.5 -1.49 -0.17 -4.02 0 -6 c 0.17 -2.01 0.12 -4.61 1 -6 c 1.14 -1.78 3.99 -4.55 6 -5 c 3.1 -0.69 8.52 -0.16 12 1 c 4.91 1.64 10.44 5.12 15 8 c 1.52 0.96 2.9 2.53 4 4 l 5 8"/><path stroke-linejoin="round" stroke-linecap="round" stroke-width="2" stroke="rgb(52, 58, 64)" fill="none" d="M 77 72 c -0.07 0.11 -2.99 3.99 -4 6 c -0.57 1.15 -1 2.76 -1 4 c 0 1.53 0.41 4.76 1 5 c 0.58 0.23 3.06 -1.78 4 -3 c 2.18 -2.84 5.22 -10.22 6 -10 c 0.8 0.23 0.32 8.36 1 12 c 0.25 1.35 1.12 3.12 2 4 c 0.88 0.88 2.96 2.31 4 2 c 3.45 -1.01 8.92 -4.34 13 -7 c 3.54 -2.31 7.37 -6.87 10 -8 l 4 2"/><path stroke-linejoin="round" stroke-linecap="round" stroke-width="2" stroke="rgb(52, 58, 64)" fill="none" d="M 141 75 c -0.05 0.05 -2.39 1.87 -3 3 c -1.24 2.27 -2.81 5.92 -3 8 c -0.08 0.88 1.17 2.41 2 3 c 1.24 0.89 3.49 2 5 2 c 2.31 0 5.55 -1.02 8 -2 c 2.39 -0.96 4.66 -2.93 7 -4 c 1.2 -0.55 3.17 -1.28 4 -1 c 0.73 0.24 1.18 2.53 2 3 c 1.16 0.66 3.41 1 5 1 c 2.21 0 4.82 -0.38 7 -1 c 2.35 -0.67 4.98 -1.65 7 -3 c 3.77 -2.51 7.91 -5.73 11 -9 c 2.35 -2.49 4.28 -5.84 6 -9 c 2.28 -4.18 4.33 -8.56 6 -13 c 1.33 -3.54 2.33 -7.41 3 -11 c 0.3 -1.57 0.1 -4.9 0 -5 c -0.08 -0.08 -0.92 2.67 -1 4 c -0.25 4.19 0.43 8.94 0 13 c -0.21 1.98 -1.84 4.14 -2 6 c -0.15 1.79 1.31 4.2 1 6 c -0.91 5.23 -5 16.19 -5 17 c 0 0.36 3.16 -4.77 5 -6 c 1.72 -1.14 4.7 -1.65 7 -2 c 1.89 -0.29 4.24 -0.35 6 0 c 1.31 0.26 2.85 1.14 4 2 c 2.73 2.05 5.36 5.37 8 7 c 1.27 0.78 3.63 1.38 5 1 c 3.86 -1.07 9.61 -3.35 13 -6 l 10 -12"/><path stroke-linejoin="round" stroke-linecap="round" stroke-width="2" stroke="rgb(52, 58, 64)" fill="none" d="M 311 32 c -0.14 0.23 -7.05 12.15 -8 13 c -0.32 0.28 -1.44 -3.8 -1 -5 c 0.67 -1.84 3.23 -4.42 5 -6 c 1.02 -0.9 2.62 -1.58 4 -2 c 2.84 -0.87 6.21 -1.8 9 -2 c 1.54 -0.11 3.52 0.41 5 1 c 1.69 0.68 3.65 1.82 5 3 c 1.15 1.01 2.32 2.56 3 4 c 1.89 4.02 4.05 8.8 5 13 c 0.62 2.71 0.74 6.33 0 9 c -1.76 6.39 -5.12 13.72 -8 20 c -0.67 1.46 -1.85 2.85 -3 4 c -1.79 1.79 -4.22 4.29 -6 5 c -0.94 0.38 -3.82 -0.22 -4 -1 c -0.52 -2.26 0.36 -8.16 1 -12 c 0.34 -2.02 1.09 -4.19 2 -6 c 1.03 -2.07 2.48 -4.13 4 -6 c 2.83 -3.49 5.83 -8 9 -10 c 2.4 -1.52 6.94 -1.78 10 -2 c 1.24 -0.09 3.09 0.29 4 1 c 1.72 1.34 3.6 3.89 5 6 c 1.21 1.81 2.54 3.92 3 6 c 2.42 11 3.51 23.55 6 35 c 0.82 3.78 2.06 8.41 4 11 c 1.56 2.08 5.28 3.88 8 5 l 9 2"/><path stroke-linejoin="round" stroke-linecap="round" stroke-width="2" stroke="rgb(52, 58, 64)" fill="none" d="M 354 106 c 0.28 -0.19 11.35 -6.85 16 -11 c 4.42 -3.94 8.53 -9.04 12 -14 c 3.45 -4.93 7.94 -12.81 9 -16 c 0.21 -0.63 -2.21 -2 -3 -2 c -0.79 0 -2.18 1.18 -3 2 c -2.41 2.41 -5.64 5.47 -7 8 c -0.64 1.19 -0.46 3.77 0 5 c 0.39 1.04 1.93 2.39 3 3 c 1.04 0.59 2.8 1.19 4 1 c 4.5 -0.71 10.76 -1.81 15 -4 c 5.46 -2.82 12.18 -7.42 16 -12 c 3.84 -4.61 6.98 -12.13 9 -18 c 1.11 -3.22 1.05 -11.19 1 -11 c -0.09 0.31 -2.4 11.98 -3 18 c -0.4 3.96 -0.45 8.62 0 12 c 0.14 1.02 1.19 2.33 2 3 c 1 0.84 2.94 2.32 4 2 c 4.23 -1.27 11.42 -6.4 16 -8 c 1.05 -0.37 3.47 0.21 4 1 c 1.05 1.58 1.6 5.37 2 8 c 0.25 1.59 0.82 4.18 0 5 c -2.04 2.04 -10.35 4.82 -11 6 c -0.35 0.63 4.04 2.61 6 3 c 2.63 0.53 6.05 0.3 9 0 c 3.67 -0.37 7.97 -0.54 11 -2 c 4.67 -2.24 13.76 -9.82 14 -10 c 0.05 -0.04 -2.88 1.38 -3 2 c -0.12 0.62 1.5 3.22 2 3 c 1.38 -0.62 5.04 -4.51 7 -7 c 1.6 -2.03 2.29 -6.02 4 -7 c 2.13 -1.22 6.82 -1.16 10 -1 c 3.23 0.16 7.06 0.86 10 2 c 2.72 1.06 6.13 3.13 8 5 c 1.06 1.06 2.1 3.54 2 5 c -0.18 2.57 -3.6 8.28 -3 9 c 0.54 0.65 5.66 -3.12 8 -3 c 3.46 0.17 8.62 2.31 12 4 c 1.51 0.75 2.58 2.93 4 4 c 1.12 0.84 2.77 1.86 4 2 c 1.4 0.16 3.6 -0.38 5 -1 c 1.37 -0.61 2.78 -1.86 4 -3 c 3.8 -3.55 7.57 -7.14 11 -11 l 5 -7"/></svg>