<?xml version="1.0" encoding="UTF-8" standalone="no"?><!DOCTYPE svg PUBLIC "-//W3C//DTD SVG 1.1//EN" "http://www.w3.org/Graphics/SVG/1.1/DTD/svg11.dtd"><svg xmlns="http://www.w3.org/2000/svg" version="1.1" width="396" height="73"><path stroke-linejoin="round" stroke-linecap="round" stroke-width="2" stroke="rgb(52, 58, 64)" fill="none" d="M 43 32 c -0.35 0.39 -13.16 15.41 -20 22 c -2.17 2.09 -5.22 3.68 -8 5 c -3.46 1.64 -8.39 3.81 -11 4 c -0.95 0.07 -3.11 -2.33 -3 -3 c 0.13 -0.79 3.05 -1.81 4 -3 c 1.53 -1.92 2.35 -5.02 4 -7 c 3.19 -3.83 7.12 -7.26 11 -11 c 5.83 -5.62 11.45 -11.66 17 -16 c 1.5 -1.18 4.51 -1.01 6 -2 c 1.18 -0.78 3.14 -4 3 -4 c -0.18 0 -3.61 2.48 -5 4 c -2.17 2.37 -4.46 5.15 -6 8 c -2.7 4.98 -4.47 10.93 -7 16 c -0.73 1.45 -2.41 2.59 -3 4 c -0.97 2.33 -2.17 6.25 -2 8 c 0.08 0.76 1.93 1.69 3 2 c 4.23 1.24 9.15 2.07 14 3 c 4.12 0.79 7.98 1.63 12 2 l 10 0"/><path stroke-linejoin="round" stroke-linecap="round" stroke-width="2" stroke="rgb(52, 58, 64)" fill="none" d="M 131 24 c 0 0.23 0.48 8.81 0 13 c -0.5 4.3 -2.57 8.94 -3 13 c -0.2 1.85 1.16 4.25 1 6 c -0.14 1.55 -1.83 3.5 -2 5 l 1 4"/><path stroke-linejoin="round" stroke-linecap="round" stroke-width="2" stroke="rgb(52, 58, 64)" fill="none" d="M 89 50 c 0.67 -0.24 25.23 -8.85 38 -14 c 6.63 -2.68 12.51 -5.76 19 -9 c 5.94 -2.97 11.41 -5.62 17 -9 c 9.03 -5.46 26 -17 26 -17"/><path stroke-linejoin="round" stroke-linecap="round" stroke-width="2" stroke="rgb(52, 58, 64)" fill="none" d="M 125 50 c 0.14 -0.07 5.24 -2.93 8 -4 c 3.22 -1.25 10 -3 10 -3"/><path stroke-linejoin="round" stroke-linecap="round" stroke-width="2" stroke="rgb(52, 58, 64)" fill="none" d="M 179 57 c 0.12 -0.11 4.44 -4.28 7 -6 c 15.88 -10.68 32.62 -20.46 48 -31 c 2.28 -1.57 6.22 -5.66 6 -6 c -0.23 -0.34 -5.83 1.6 -8 3 c -2.16 1.39 -4.92 3.84 -6 6 c -1.3 2.59 -0.76 7.1 -2 10 c -1.59 3.7 -5.31 7.15 -7 11 c -2.86 6.54 -7 18.27 -7 21 c 0 0.87 5.15 0.04 7 -1 c 8.51 -4.75 18.05 -11.5 27 -18 c 8.45 -6.13 22.45 -20.22 24 -19 c 1.61 1.26 -7.73 20.93 -10 30 c -0.44 1.75 0.22 4.59 1 6 c 0.64 1.16 2.63 2.39 4 3 c 1.4 0.62 3.49 1.28 5 1 c 10.07 -1.85 22.05 -4.73 33 -8 c 8.27 -2.47 15.96 -5.61 24 -9 c 7.3 -3.08 14.24 -6.29 21 -10 c 3.55 -1.95 6.87 -4.46 10 -7 c 2.18 -1.77 5.93 -5.87 6 -6 c 0.05 -0.1 -3.87 2.36 -5 4 c -5.14 7.45 -10.21 16.49 -15 25 c -1.25 2.22 -3 4.98 -3 7 c 0 2.26 1.53 6.68 3 8 c 1.21 1.09 4.7 1 7 1 c 4.25 0 8.77 -0.21 13 -1 c 6.37 -1.19 12.64 -3.84 19 -5 l 14 -1"/><path stroke-linejoin="round" stroke-linecap="round" stroke-width="2" stroke="rgb(52, 58, 64)" fill="none" d="M 244 56 l 26 -4"/><path stroke-linejoin="round" stroke-linecap="round" stroke-width="2" stroke="rgb(52, 58, 64)" fill="none" d="M 246 37 l 1 1"/></svg>