<?xml version="1.0" encoding="UTF-8" standalone="no"?><!DOCTYPE svg PUBLIC "-//W3C//DTD SVG 1.1//EN" "http://www.w3.org/Graphics/SVG/1.1/DTD/svg11.dtd"><svg xmlns="http://www.w3.org/2000/svg" version="1.1" width="378" height="91"><path stroke-linejoin="round" stroke-linecap="round" stroke-width="2" stroke="rgb(52, 58, 64)" fill="none" d="M 1 90 c 0.14 -0.66 4.58 -25.36 8 -38 c 3.34 -12.36 12 -36 12 -36"/><path stroke-linejoin="round" stroke-linecap="round" stroke-width="2" stroke="rgb(52, 58, 64)" fill="none" d="M 23 6 c -0.02 0.7 -2.03 27.39 -1 40 c 0.56 6.88 3.08 15.16 6 21 c 1.99 3.97 6.72 8.54 10 11 c 1.34 1.01 5.4 2.05 6 1 c 3.79 -6.64 10.06 -23.77 14 -36 c 2.4 -7.45 3.1 -15.66 5 -23 c 0.36 -1.39 1.91 -4.26 2 -4 c 0.25 0.74 1 13 1 13"/><path stroke-linejoin="round" stroke-linecap="round" stroke-width="2" stroke="rgb(52, 58, 64)" fill="none" d="M 83 90 c 0.05 -0.12 2.25 -4.57 3 -7 c 1.93 -6.26 3.63 -12.49 5 -19 c 1.34 -6.38 2.49 -13.15 3 -19 c 0.11 -1.25 -0.95 -4.18 -1 -4 c -0.23 0.8 -2.28 11.99 -3 18 c -0.28 2.3 -0.24 4.69 0 7 c 0.42 4.01 1.09 8.14 2 12 c 0.4 1.71 1.07 3.75 2 5 c 0.87 1.16 2.88 2.86 4 3 c 1.01 0.13 3.15 -1.01 4 -2 c 2.74 -3.2 5.41 -7.82 8 -12 c 1.85 -2.99 3.72 -5.86 5 -9 c 2.36 -5.79 5.52 -17.52 6 -18 c 0.3 -0.3 -0.32 8.02 0 12 c 0.35 4.37 1.04 9.15 2 13 c 0.26 1.05 1.2 2.2 2 3 c 1.1 1.1 3.36 3.55 4 3 c 2.31 -1.98 7.77 -12.77 10 -15 c 0.45 -0.45 2.32 1.15 3 2 c 1.78 2.23 3.04 5.88 5 8 l 7 5"/><path stroke-linejoin="round" stroke-linecap="round" stroke-width="2" stroke="rgb(52, 58, 64)" fill="none" d="M 169 69 c -0.05 0.09 -2.67 3.51 -3 5 c -0.23 1.06 0.49 4.07 1 4 c 0.97 -0.14 4.16 -3.16 6 -5 c 3.18 -3.18 6.38 -6.41 9 -10 c 3.68 -5.04 6.65 -10.41 10 -16 c 2.87 -4.78 5.87 -9.11 8 -14 c 3.51 -8.05 8.82 -24.21 9 -25 c 0.06 -0.26 -4.19 4.47 -5 7 c -3.86 12.11 -8 27.1 -10 40 c -0.87 5.64 0.26 12.56 1 18 c 0.18 1.35 1.21 3.77 2 4 c 0.95 0.27 4.3 -0.78 5 -2 c 3.4 -5.89 8.42 -22.53 10 -24 c 0.71 -0.66 2.43 7.64 4 11 c 0.67 1.44 1.85 2.99 3 4 c 1.35 1.18 3.31 2.32 5 3 c 1.48 0.59 3.55 1.14 5 1 c 1.53 -0.15 3.63 -1.09 5 -2 c 1.44 -0.96 2.55 -3.13 4 -4 l 6 -2"/><path stroke-linejoin="round" stroke-linecap="round" stroke-width="2" stroke="rgb(52, 58, 64)" fill="none" d="M 295 1 c -0.09 0.03 -3.84 0.92 -5 2 c -3.06 2.84 -6.19 7.07 -9 11 c -7.4 10.36 -14.85 20.34 -21 31 c -3.75 6.51 -6.71 14.12 -9 21 c -0.91 2.73 -1.5 6.68 -1 9 c 0.35 1.64 2.57 3.57 4 5 c 0.8 0.8 2.03 2 3 2 c 3.8 0 9.85 -0.53 14 -2 c 5.65 -2 12.21 -5.37 17 -9 c 4.4 -3.34 7.69 -8.84 12 -13 c 5.52 -5.33 13.17 -9.49 17 -15 c 3.8 -5.47 5.76 -14.04 8 -21 c 0.7 -2.19 1.34 -5.29 1 -7 c -0.21 -1.03 -2.19 -3.2 -3 -3 c -2.07 0.52 -6.97 3.65 -9 6 c -1.85 2.14 -2.42 6.12 -4 9 c -2.1 3.81 -5.21 7.24 -7 11 c -1.43 3.01 -2.52 6.65 -3 10 c -0.83 5.78 -1.44 12.91 -1 18 c 0.14 1.65 1.82 3.65 3 5 c 1.01 1.15 2.69 2.8 4 3 c 2.38 0.37 6.61 0.06 9 -1 c 3.01 -1.34 6.18 -5.59 9 -7 l 5 0"/><path stroke-linejoin="round" stroke-linecap="round" stroke-width="2" stroke="rgb(52, 58, 64)" fill="none" d="M 363 7 c -0.03 0.1 -1.92 4.05 -2 6 c -0.24 6.17 1.45 13.41 1 20 c -0.87 12.61 -3.9 25.9 -5 38 c -0.17 1.92 1.18 4.39 1 6 l -2 3"/><path stroke-linejoin="round" stroke-linecap="round" stroke-width="2" stroke="rgb(52, 58, 64)" fill="none" d="M 377 9 c -0.16 0.49 -6.99 18.76 -9 28 c -1.23 5.66 -1.24 12.99 -1 18 c 0.05 1 2 3 2 3"/></svg>