<?xml version="1.0" encoding="UTF-8" standalone="no"?><!DOCTYPE svg PUBLIC "-//W3C//DTD SVG 1.1//EN" "http://www.w3.org/Graphics/SVG/1.1/DTD/svg11.dtd"><svg xmlns="http://www.w3.org/2000/svg" version="1.1" width="574" height="188"><path stroke-linejoin="round" stroke-linecap="round" stroke-width="2" stroke="rgb(52, 58, 64)" fill="none" d="M 33 1 c -0.03 0.09 -1.58 3.27 -2 5 c -1.9 7.88 -2.94 15.89 -5 24 c -2.72 10.68 -5.73 20.33 -9 31 c -1.92 6.27 -3.5 12.22 -6 18 c -2.83 6.54 -10 19 -10 19"/><path stroke-linejoin="round" stroke-linecap="round" stroke-width="2" stroke="rgb(52, 58, 64)" fill="none" d="M 81 16 c -1 0.59 -37.65 22.16 -57 34 c -3.56 2.18 -6.51 5.09 -10 7 c -3.72 2.03 -11.16 4.83 -12 5 c -0.23 0.05 1.22 -2.93 2 -3 c 1.98 -0.18 6.56 0.72 9 2 c 3.39 1.78 7.18 5.02 10 8 c 3 3.16 5.92 7.16 8 11 c 2.13 3.93 4.05 8.58 5 13 c 1.99 9.28 4 29 4 29"/><path stroke-linejoin="round" stroke-linecap="round" stroke-width="2" stroke="rgb(52, 58, 64)" fill="none" d="M 97 58 c -0.07 -0.11 -2.51 -5.11 -4 -6 c -1.24 -0.74 -4.53 -0.8 -6 0 c -4.89 2.67 -11.07 7.64 -16 12 c -3.66 3.24 -9.1 9.05 -10 11 c -0.27 0.59 2.87 2.16 4 2 c 2.73 -0.39 6.82 -2.41 10 -4 c 2.79 -1.39 5.67 -4.22 8 -5 c 1.02 -0.34 3.82 0.22 4 1 c 0.52 2.26 -0.04 8.27 -1 12 c -1.62 6.27 -5.66 13.18 -7 19 l 1 7"/><path stroke-linejoin="round" stroke-linecap="round" stroke-width="2" stroke="rgb(52, 58, 64)" fill="none" d="M 139 41 c -0.12 0.44 -3.72 17.26 -7 25 c -3.9 9.21 -9.99 19.09 -15 27 c -0.81 1.28 -4 3 -4 3"/><path stroke-linejoin="round" stroke-linecap="round" stroke-width="2" stroke="rgb(52, 58, 64)" fill="none" d="M 95 75 c 0.21 0.03 8.16 2 12 2 c 4.47 0 9.64 -0.67 14 -2 c 7.33 -2.24 15.09 -5.54 22 -9 c 3.55 -1.78 6.74 -4.47 10 -7 c 2.84 -2.21 5.67 -4.41 8 -7 c 3.6 -4 7.25 -8.42 10 -13 c 3.15 -5.25 5.48 -11.2 8 -17 c 0.85 -1.95 1.64 -4.05 2 -6 c 0.28 -1.55 0.6 -4.52 0 -5 c -0.61 -0.49 -4.19 -0.03 -5 1 c -4.04 5.16 -8.86 14.42 -13 22 c -1.96 3.59 -3.84 7.16 -5 11 c -5.16 17.11 -14.14 50.06 -14 52 c 0.07 1.04 10.45 -17 16 -24 c 1.65 -2.09 4.95 -4.25 7 -5 c 0.98 -0.36 3.58 0.16 4 1 c 1.36 2.72 1.67 9.01 3 13 c 0.58 1.74 1.98 5.14 3 5 c 2.43 -0.32 8.57 -4.33 12 -7 c 2.28 -1.77 5.89 -6.89 6 -7 c 0.06 -0.06 -3.23 3.42 -3 4 c 0.24 0.59 3.5 1.24 5 1 c 4.27 -0.67 10.13 -3.57 14 -4 c 1.19 -0.13 3.42 1.07 4 2 c 0.79 1.26 1.25 4.14 1 6 c -1 7.5 -2.69 16.07 -5 24 c -4.77 16.37 -10.01 31.81 -16 48 c -4.25 11.47 -14 33 -14 33"/><path stroke-linejoin="round" stroke-linecap="round" stroke-width="2" stroke="rgb(52, 58, 64)" fill="none" d="M 283 60 c -0.07 0.19 -3.03 7.24 -4 11 c -1.36 5.23 -1.64 10.72 -3 16 c -1.32 5.13 -2.79 10.58 -5 15 c -1.59 3.18 -4.58 6.58 -7 9 l -4 2"/><path stroke-linejoin="round" stroke-linecap="round" stroke-width="2" stroke="rgb(52, 58, 64)" fill="none" d="M 256 40 c 0.05 -0.16 1.62 -6.42 3 -9 c 1.13 -2.13 3.06 -4.4 5 -6 c 5.51 -4.55 11.75 -10.02 18 -13 c 7.04 -3.35 15.96 -5.05 24 -7 c 2.91 -0.71 6.05 -1 9 -1 c 2.95 0 6.45 0.15 9 1 c 2.03 0.68 4.51 2.51 6 4 c 0.92 0.92 1.88 2.75 2 4 c 0.17 1.69 -0.01 4.65 -1 6 c -2.19 2.98 -6.45 6.3 -10 9 c -3.44 2.62 -7.13 4.94 -11 7 c -6.91 3.67 -13.76 6.9 -21 10 c -4.63 1.98 -9.34 3.19 -14 5 c -1.4 0.55 -2.99 1.13 -4 2 c -1.13 0.97 -3 3.05 -3 4 c 0 0.81 1.92 2.46 3 3 c 1.3 0.65 3.37 1 5 1 c 4.49 0 9.56 -0.15 14 -1 c 4 -0.77 7.89 -2.52 12 -4 c 4.52 -1.63 8.92 -2.96 13 -5 c 3.82 -1.91 7.59 -4.32 11 -7 c 5.93 -4.66 12.09 -9.86 17 -15 c 1.74 -1.83 3.16 -4.66 4 -7 c 0.73 -2.05 1.41 -5.09 1 -7 c -0.47 -2.18 -2.48 -5.29 -4 -7 c -0.85 -0.95 -3.03 -2.35 -4 -2 c -2.65 0.95 -7.37 4.24 -10 7 c -3.7 3.89 -7.1 9.07 -10 14 c -3.77 6.41 -7.22 13 -10 20 c -7.68 19.32 -13.52 38.23 -21 58 c -2.12 5.6 -5.58 14.15 -7 16 c -0.35 0.45 -2.88 -2.07 -3 -3 c -0.15 -1.18 1.01 -3.6 2 -5 c 4.45 -6.28 9.79 -13.32 15 -19 c 1.85 -2.02 4.54 -3.83 7 -5 c 3.62 -1.72 9.01 -4.17 12 -4 c 1.85 0.1 4.86 3.22 6 5 c 0.88 1.39 1.17 4.12 1 6 c -0.46 5.04 -2.54 10.96 -3 16 l 1 6"/><path stroke-linejoin="round" stroke-linecap="round" stroke-width="2" stroke="rgb(52, 58, 64)" fill="none" d="M 340 115 c 0.11 -0.24 4.27 -9.24 6 -14 c 0.94 -2.57 2 -7.86 2 -8 c 0 -0.09 -1.58 3.31 -2 5 c -0.55 2.22 -1.51 5.2 -1 7 c 0.63 2.19 3.1 6.11 5 7 c 2.21 1.03 7.49 1.15 10 0 c 4.46 -2.05 10.35 -6.75 14 -11 c 5.91 -6.89 11.81 -15.82 16 -24 c 2.89 -5.65 5.91 -17.69 6 -19 c 0.03 -0.42 -3.79 2.49 -5 4 c -1.26 1.58 -2.34 3.92 -3 6 c -1.63 5.12 -3.13 10.75 -4 16 c -0.42 2.55 -0.34 5.47 0 8 c 0.31 2.3 1 5.01 2 7 c 0.88 1.75 2.55 3.73 4 5 c 1.02 0.89 2.69 1.76 4 2 c 2.05 0.37 5.12 0.75 7 0 c 4.09 -1.64 9.22 -5.02 13 -8 c 2.28 -1.8 4.35 -4.47 6 -7 c 3.29 -5.05 6.77 -10.6 9 -16 c 1.62 -3.92 2.29 -8.73 3 -13 c 0.27 -1.6 0.47 -3.89 0 -5 c -0.34 -0.8 -2.42 -2.37 -3 -2 c -1.93 1.23 -5.64 5.85 -8 9 c -1.58 2.11 -2.9 4.55 -4 7 c -1.9 4.23 -3.52 8.56 -5 13 c -0.88 2.63 -1.67 5.36 -2 8 c -0.32 2.56 -0.2 5.38 0 8 c 0.13 1.67 0.45 3.54 1 5 c 0.39 1.03 1.18 2.87 2 3 c 2.52 0.39 7.39 -0.28 11 -1 c 9.76 -1.95 19.16 -4.87 29 -7 c 2.66 -0.57 5.55 -1.16 8 -1 c 2.22 0.15 5.12 0.98 7 2 c 1.46 0.8 3.13 2.55 4 4 c 0.97 1.62 1.86 4.11 2 6 c 0.17 2.41 -0.15 5.72 -1 8 c -1 2.66 -3.07 5.53 -5 8 c -4.07 5.2 -8.51 10.51 -13 15 c -1.63 1.63 -4.69 4 -6 4 c -0.91 0 -3.38 -2.95 -3 -4 c 2.27 -6.19 8.44 -18.27 14 -26 c 6.13 -8.52 14.44 -16.68 22 -24 c 2.51 -2.43 5.87 -4.16 9 -6 c 2.59 -1.52 5.26 -2.91 8 -4 c 2.23 -0.89 4.85 -1.82 7 -2 c 1.51 -0.13 3.54 0.45 5 1 c 1.03 0.39 2.46 1.2 3 2 c 0.61 0.92 1.13 2.85 1 4 c -0.17 1.5 -0.94 3.78 -2 5 c -2.92 3.37 -10.78 9.87 -11 10 c -0.14 0.08 3.77 -5.05 6 -7 c 2.96 -2.59 6.45 -5.01 10 -7 c 7.81 -4.37 15.92 -8.99 24 -12 c 5.85 -2.18 13.43 -3.79 19 -4 c 2.45 -0.09 6.59 1.35 8 3 c 1.93 2.26 3.64 7.74 4 11 c 0.23 2.03 -0.94 5.01 -2 7 c -1.46 2.73 -3.73 5.73 -6 8 c -2.58 2.58 -5.82 4.88 -9 7 c -3.87 2.58 -7.86 5.02 -12 7 l -11 4"/><path stroke-linejoin="round" stroke-linecap="round" stroke-width="2" stroke="rgb(52, 58, 64)" fill="none" d="M 508 78 l 1 1"/><path stroke-linejoin="round" stroke-linecap="round" stroke-width="2" stroke="rgb(52, 58, 64)" fill="none" d="M 330 94 l 1 1"/></svg>