<?xml version="1.0" encoding="UTF-8" standalone="no"?><!DOCTYPE svg PUBLIC "-//W3C//DTD SVG 1.1//EN" "http://www.w3.org/Graphics/SVG/1.1/DTD/svg11.dtd"><svg xmlns="http://www.w3.org/2000/svg" version="1.1" width="407" height="38"><path stroke-linejoin="round" stroke-linecap="round" stroke-width="2" stroke="rgb(52, 58, 64)" fill="none" d="M 1 37 c 0.11 -0.05 3.98 -2.33 6 -3 c 1.83 -0.61 3.98 -0.97 6 -1 c 17.9 -0.3 35.78 -0.81 54 0 c 12.22 0.54 23.78 3.44 36 4 c 17.2 0.79 33.42 0.51 51 0 c 30.02 -0.87 58.16 -1.38 87 -4 c 11.49 -1.04 23.41 -3.53 34 -7 c 8.18 -2.68 16.18 -7.71 24 -12 c 2.51 -1.38 4.53 -3.55 7 -5 c 3.2 -1.89 6.57 -3.63 10 -5 c 3.21 -1.28 6.71 -2.63 10 -3 c 5.36 -0.6 11.42 -0.57 17 0 c 7.34 0.75 14.5 2.33 22 4 c 14.15 3.14 41 10 41 10"/></svg>