<?xml version="1.0" encoding="UTF-8" standalone="no"?><!DOCTYPE svg PUBLIC "-//W3C//DTD SVG 1.1//EN" "http://www.w3.org/Graphics/SVG/1.1/DTD/svg11.dtd"><svg xmlns="http://www.w3.org/2000/svg" version="1.1" width="658" height="178"><path stroke-linejoin="round" stroke-linecap="round" stroke-width="2" stroke="rgb(52, 58, 64)" fill="none" d="M 57 29 c -0.07 0.03 -3.49 0.89 -4 2 c -14.85 32.35 -50.1 115.91 -52 120 c -0.15 0.31 0.33 -6.69 1 -10 c 3.03 -14.87 5.9 -29.53 10 -44 c 2.25 -7.92 5.23 -15.63 9 -23 c 11 -21.5 22.12 -45.09 35 -63 c 5.47 -7.61 15.85 -13.41 24 -19 c 3.22 -2.21 7.36 -3.85 11 -5 c 2.43 -0.77 5.4 -1 8 -1 c 2.6 0 6.11 -0.02 8 1 c 1.83 0.99 5 4.02 5 6 c 0 7.19 -2.46 18.9 -5 28 c -3.79 13.56 -8.88 26.49 -14 40 c -2.38 6.28 -4.88 12.13 -8 18 c -5.33 10.02 -11.62 18.86 -17 29 c -6.58 12.41 -11.63 24.53 -18 37 l -6 10"/><path stroke-linejoin="round" stroke-linecap="round" stroke-width="2" stroke="rgb(52, 58, 64)" fill="none" d="M 88 124 c 0.23 -0.09 9.41 -2.78 13 -5 c 2.92 -1.81 5.8 -5.03 8 -8 c 5.35 -7.21 10.34 -15.16 15 -23 c 1.67 -2.81 3.93 -8.6 4 -9 c 0.03 -0.17 -2.58 1.84 -3 3 c -1.95 5.38 -4.09 13.07 -5 19 c -0.33 2.14 0.19 5.21 1 7 c 0.65 1.43 2.6 3.49 4 4 c 1.73 0.63 5.15 0.66 7 0 c 2.28 -0.81 4.8 -3.13 7 -5 c 4.53 -3.85 9.55 -7.47 13 -12 c 7.9 -10.38 14.77 -22.15 22 -34 c 5.12 -8.39 9.63 -16.52 14 -25 c 1.3 -2.53 2.4 -5.42 3 -8 c 0.35 -1.51 0.06 -5.15 0 -5 c -0.25 0.63 -4.32 13.29 -6 20 c -0.65 2.59 -0.31 5.5 -1 8 c -0.93 3.34 -2.93 6.54 -4 10 c -1.96 6.31 -3.85 12.57 -5 19 c -1.18 6.58 -1.76 13.51 -2 20 c -0.08 2.28 0.17 5.34 1 7 c 0.59 1.17 3.16 3 4 3 c 0.61 0 1.22 -2.22 2 -3 c 0.78 -0.78 2.66 -1.12 3 -2 c 1.05 -2.72 1.57 -7.34 2 -11 c 0.23 -1.97 -0.37 -4.33 0 -6 c 0.22 -1 1.35 -3.17 2 -3 c 2.65 0.71 9.95 8.25 13 7 c 9.3 -3.8 24.78 -18.08 36 -27 c 1.25 -0.99 1.99 -3.57 3 -4 c 0.83 -0.36 3.2 0.33 4 1 c 0.87 0.73 1.59 2.64 2 4 c 0.55 1.85 0.32 4.2 1 6 c 1.24 3.32 3.54 8.7 5 10 c 0.58 0.52 2.91 -1.11 4 -2 c 2.41 -1.97 4.51 -4.86 7 -7 c 2.17 -1.86 4.87 -3.1 7 -5 c 3.86 -3.43 7.06 -7.92 11 -11 c 3.52 -2.75 8.04 -5.02 12 -7 c 1.17 -0.59 3.69 -1.41 4 -1 c 0.38 0.51 -0.39 3.47 -1 5 c -1.99 4.97 -5.02 9.93 -7 15 c -0.99 2.52 -2.2 8 -2 8 c 0.22 0 2.4 -5.6 4 -8 c 1.65 -2.48 4.35 -4.52 6 -7 c 1.6 -2.4 2.4 -5.69 4 -8 c 1.26 -1.83 3.64 -3.25 5 -5 c 0.86 -1.11 1.87 -4.19 2 -4 c 0.2 0.3 0.33 4.83 0 7 c -0.3 1.96 -2.09 4.15 -2 6 c 0.21 4.46 1.78 10.11 3 15 c 0.43 1.72 1.01 3.69 2 5 l 7 7"/><path stroke-linejoin="round" stroke-linecap="round" stroke-width="2" stroke="rgb(52, 58, 64)" fill="none" d="M 374 19 c -0.12 0.45 -4.98 17.1 -7 26 c -1.37 6.03 -1.27 12.21 -3 18 c -4.91 16.46 -11.34 32.01 -17 49 c -2.28 6.84 -4.2 13.07 -6 20 c -2.66 10.23 -7 30 -7 30"/><path stroke-linejoin="round" stroke-linecap="round" stroke-width="2" stroke="rgb(52, 58, 64)" fill="none" d="M 360 32 c 0.05 -0.04 1.99 -1.8 3 -2 c 1.95 -0.39 4.72 -0.27 7 0 c 3.32 0.39 7.69 0.76 10 2 c 1.32 0.71 3.34 3.69 3 5 c -0.95 3.62 -5.02 9.63 -8 14 c -1.96 2.88 -4.3 5.93 -7 8 c -6.96 5.34 -15.16 10.34 -23 15 c -2.81 1.67 -9 4 -9 4"/><path stroke-linejoin="round" stroke-linecap="round" stroke-width="2" stroke="rgb(52, 58, 64)" fill="none" d="M 371 119 c 0.23 0.02 9.86 2.42 13 1 c 5.64 -2.55 12.26 -9.57 18 -15 c 6.75 -6.39 12.29 -13.69 19 -20 c 4.33 -4.07 13.66 -10.85 14 -11 c 0.2 -0.09 -5.06 5.18 -7 8 c -1.63 2.37 -3.08 5.25 -4 8 c -1.37 4.1 -2.36 8.72 -3 13 c -0.34 2.25 -0.81 6.82 0 7 c 1.19 0.26 6.55 -2.87 9 -5 c 4.88 -4.24 9.25 -10.5 14 -15 c 1.35 -1.28 3.98 -3.51 5 -3 c 2.36 1.18 6.71 9.24 9 10 c 1.33 0.44 4.35 -3.08 6 -5 c 4.22 -4.92 8.53 -13.44 12 -16 c 1.26 -0.93 5.27 1.04 7 2 c 0.86 0.48 1.6 1.93 2 3 c 1.52 4.05 3 8.55 4 13 c 1.35 5.97 3 18 3 18"/><path stroke-linejoin="round" stroke-linecap="round" stroke-width="2" stroke="rgb(52, 58, 64)" fill="none" d="M 562 17 c -0.02 0.35 -0.39 13.25 -1 20 c -0.4 4.43 -0.99 8.7 -2 13 c -1.68 7.14 -4.19 13.78 -6 21 c -1.27 5.06 -1.62 10.62 -3 15 c -0.45 1.43 -2.37 2.56 -3 4 c -1.59 3.64 -3.31 8 -4 12 c -0.93 5.38 -1.24 16.27 -1 17 c 0.13 0.38 3.07 -5.2 4 -8 c 3.37 -10.1 7.63 -22.11 9 -31 c 0.36 -2.35 -1.69 -5.93 -3 -8 c -0.77 -1.21 -2.67 -2.83 -4 -3 c -3.21 -0.4 -8.37 0.05 -12 1 c -3.64 0.95 -7.76 2.95 -11 5 c -2.85 1.8 -6.25 4.45 -8 7 c -1.56 2.27 -2.82 6.37 -3 9 c -0.12 1.76 0.98 4.35 2 6 c 1.48 2.41 3.72 5.61 6 7 c 3.13 1.91 8.84 4.5 12 4 c 3.81 -0.61 9.39 -4.76 13 -8 c 6.02 -5.42 10.99 -12.79 17 -19 c 3.84 -3.97 7.83 -8.16 12 -11 c 2.76 -1.88 6.57 -2.96 10 -4 c 4.25 -1.29 9.15 -2.8 13 -3 c 1.82 -0.1 5.72 0.79 6 2 c 0.68 2.89 -2 10.92 -2 15 c 0 0.97 1.29 2.9 2 3 c 1.06 0.15 3.8 -0.9 5 -2 c 5.83 -5.33 12.45 -13.95 18 -19 c 0.87 -0.8 2.95 -1.15 4 -1 c 0.92 0.13 2.52 1.1 3 2 c 1.84 3.46 3.7 8.67 5 13 c 0.66 2.2 0.9 4.64 1 7 c 0.24 5.68 0.83 11.62 0 17 c -1.11 7.22 -2.96 15.76 -6 22 c -2.56 5.26 -7.83 10.34 -12 15 c -1.39 1.55 -3.81 3.85 -5 4 c -0.79 0.1 -3.41 -2.31 -3 -3 c 3.14 -5.36 13.14 -17.82 20 -26 c 1.63 -1.95 3.87 -3.93 6 -5 c 2.85 -1.42 6.74 -2.39 10 -3 l 6 0"/></svg>