<?xml version="1.0" encoding="UTF-8" standalone="no"?><!DOCTYPE svg PUBLIC "-//W3C//DTD SVG 1.1//EN" "http://www.w3.org/Graphics/SVG/1.1/DTD/svg11.dtd"><svg xmlns="http://www.w3.org/2000/svg" version="1.1" width="528" height="100"><path stroke-linejoin="round" stroke-linecap="round" stroke-width="2" stroke="rgb(52, 58, 64)" fill="none" d="M 47 31 l 1 1"/><path stroke-linejoin="round" stroke-linecap="round" stroke-width="2" stroke="rgb(52, 58, 64)" fill="none" d="M 88 76 c 0.02 -0.72 2.64 -29.09 1 -41 c -0.77 -5.58 -5.68 -12.13 -9 -17 c -1.35 -1.98 -6 -5 -6 -5"/><path stroke-linejoin="round" stroke-linecap="round" stroke-width="2" stroke="rgb(52, 58, 64)" fill="none" d="M 1 68 l 1 1"/><path stroke-linejoin="round" stroke-linecap="round" stroke-width="2" stroke="rgb(52, 58, 64)" fill="none" d="M 166 30 l 1 1"/><path stroke-linejoin="round" stroke-linecap="round" stroke-width="2" stroke="rgb(52, 58, 64)" fill="none" d="M 223 1 c 0.09 0.11 5.07 4.13 5 6 c -0.19 5.01 -3.47 13.88 -6 20 c -1.31 3.17 -3.6 6.6 -6 9 c -3.64 3.64 -8.39 6.89 -13 10 c -7.95 5.37 -24 15 -24 15"/><path stroke-linejoin="round" stroke-linecap="round" stroke-width="2" stroke="rgb(52, 58, 64)" fill="none" d="M 215 55 c 0.26 0.12 10.38 4.36 15 7 c 2.18 1.24 4.41 3.12 6 5 c 1.92 2.27 5 8 5 8"/><path stroke-linejoin="round" stroke-linecap="round" stroke-width="2" stroke="rgb(52, 58, 64)" fill="none" d="M 167 99 l 1 1"/><path stroke-linejoin="round" stroke-linecap="round" stroke-width="2" stroke="rgb(52, 58, 64)" fill="none" d="M 295 40 c -0.1 0.16 -4.4 6.03 -6 9 c -0.61 1.13 -0.87 2.68 -1 4 c -0.19 1.93 -0.27 4.08 0 6 c 0.38 2.63 2 8 2 8"/><path stroke-linejoin="round" stroke-linecap="round" stroke-width="2" stroke="rgb(52, 58, 64)" fill="none" d="M 325 82 c 0 -0.14 -0.3 -5.34 0 -8 c 1.71 -15.12 5.78 -44.24 6 -45 c 0.12 -0.4 0 24 0 24"/><path stroke-linejoin="round" stroke-linecap="round" stroke-width="2" stroke="rgb(52, 58, 64)" fill="none" d="M 373 47 c -0.05 0.09 -2.74 3.42 -3 5 c -0.32 1.91 1.23 4.84 1 7 c -0.4 3.78 -2.57 8.31 -3 12 c -0.18 1.52 1 5 1 5"/><path stroke-linejoin="round" stroke-linecap="round" stroke-width="2" stroke="rgb(52, 58, 64)" fill="none" d="M 373 34 l 1 1"/><path stroke-linejoin="round" stroke-linecap="round" stroke-width="2" stroke="rgb(52, 58, 64)" fill="none" d="M 403 23 c 0 0.1 0.35 4.24 0 6 c -0.26 1.31 -2 4 -2 4"/><path stroke-linejoin="round" stroke-linecap="round" stroke-width="2" stroke="rgb(52, 58, 64)" fill="none" d="M 383 47 l 1 1"/><path stroke-linejoin="round" stroke-linecap="round" stroke-width="2" stroke="rgb(52, 58, 64)" fill="none" d="M 400 84 l 1 1"/><path stroke-linejoin="round" stroke-linecap="round" stroke-width="2" stroke="rgb(52, 58, 64)" fill="none" d="M 448 23 c -0.12 0.75 -7 40.57 -7 43 c 0 0.63 7 -9 7 -9"/><path stroke-linejoin="round" stroke-linecap="round" stroke-width="2" stroke="rgb(52, 58, 64)" fill="none" d="M 484 86 c 0.26 -0.12 10.41 -4.25 15 -7 c 3.55 -2.13 6.77 -5.13 10 -8 c 2.86 -2.54 5.62 -5.1 8 -8 c 3.61 -4.42 10 -14 10 -14"/><path stroke-linejoin="round" stroke-linecap="round" stroke-width="2" stroke="rgb(52, 58, 64)" fill="none" d="M 522 28 l 1 1"/></svg>