<?xml version="1.0" encoding="UTF-8" standalone="no"?><!DOCTYPE svg PUBLIC "-//W3C//DTD SVG 1.1//EN" "http://www.w3.org/Graphics/SVG/1.1/DTD/svg11.dtd"><svg xmlns="http://www.w3.org/2000/svg" version="1.1" width="509" height="220"><path stroke-linejoin="round" stroke-linecap="round" stroke-width="2" stroke="rgb(52, 58, 64)" fill="none" d="M 399 9 c 0.03 -0.26 0.95 -10.02 2 -15 c 1.65 -7.82 3.58 -15.52 6 -23 c 1.23 -3.8 3.55 -7.15 5 -11 c 4.34 -11.48 7.6 -23.39 12 -34 c 1.05 -2.53 3.7 -4.56 5 -7 c 1.29 -2.42 1.7 -5.55 3 -8 c 1.64 -3.1 4.61 -6.03 6 -9 c 0.78 -1.67 0.24 -4.47 1 -6 c 0.71 -1.42 3 -2.5 4 -4 c 2.21 -3.32 6 -11 6 -11"/><path stroke-linejoin="round" stroke-linecap="round" stroke-width="2" stroke="rgb(52, 58, 64)" fill="none" d="M 12 52 c 0.16 0.77 7.63 33.31 9 44 c 0.13 1.01 -2.58 3.21 -3 3 c -0.5 -0.25 -0.9 -3.33 -1 -5 c -0.23 -3.93 -0.3 -7.99 0 -12 c 0.37 -5.06 0.67 -10.62 2 -15 c 0.83 -2.73 3.2 -5.31 5 -8 c 1.64 -2.46 3.07 -4.96 5 -7 c 3.65 -3.87 7.87 -8.49 12 -11 c 2.89 -1.76 7.58 -2.6 11 -3 c 1.82 -0.21 6.13 0.33 6 1 c -0.27 1.33 -5.06 6.52 -8 9 c -3.18 2.68 -7.13 5 -11 7 c -6.51 3.36 -13.22 6.24 -20 9 c -2.25 0.92 -4.64 1.61 -7 2 l -11 1"/><path stroke-linejoin="round" stroke-linecap="round" stroke-width="2" stroke="rgb(52, 58, 64)" fill="none" d="M 78 83 c -0.42 -0.17 -16.97 -8.24 -24 -10 c -2.23 -0.56 -6.02 1.01 -8 2 c -0.86 0.43 -1.87 2.08 -2 3 c -0.15 1.05 0.33 3.2 1 4 c 0.73 0.87 3.19 2.4 4 2 c 1.67 -0.83 4.32 -6.39 6 -7 c 1.06 -0.39 3.89 1.75 5 3 c 1.28 1.44 1.72 4.72 3 6 c 1.02 1.02 3.74 2.14 5 2 c 1.17 -0.13 2.9 -1.9 4 -3 c 0.8 -0.8 1.56 -1.92 2 -3 c 1.83 -4.44 3.39 -14.1 5 -14 c 2.02 0.13 7.03 11.03 11 15 c 2.2 2.2 6.15 4.4 9 5 l 10 -1"/><path stroke-linejoin="round" stroke-linecap="round" stroke-width="2" stroke="rgb(52, 58, 64)" fill="none" d="M 56 87 c 0.07 -0.09 2.43 -3.88 4 -5 c 2.75 -1.96 6.49 -3.66 10 -5 c 12.31 -4.71 37 -13 37 -13"/><path stroke-linejoin="round" stroke-linecap="round" stroke-width="2" stroke="rgb(52, 58, 64)" fill="none" d="M 238 53 c -0.17 -0.16 -6.42 -6.46 -10 -9 c -4.29 -3.04 -9.26 -6.37 -14 -8 c -5.36 -1.84 -12.22 -2.56 -18 -3 c -2.55 -0.2 -5.43 0.39 -8 1 c -3.03 0.71 -6.28 1.58 -9 3 c -5.42 2.82 -11.04 6.4 -16 10 c -2.23 1.62 -4.45 3.83 -6 6 c -1.63 2.29 -2.98 5.27 -4 8 c -0.94 2.51 -2.21 5.59 -2 8 c 0.39 4.54 2.39 10.18 4 15 c 0.69 2.08 1.74 4.42 3 6 c 1.21 1.51 3.23 3.04 5 4 c 2.37 1.28 5.42 2.4 8 3 c 1.51 0.35 4.02 0.81 5 0 c 3.61 -2.98 8.18 -9.11 12 -14 c 2.24 -2.87 4.26 -5.87 6 -9 c 1.58 -2.85 2.38 -6.24 4 -9 c 1.65 -2.8 5.51 -8.39 6 -8 c 0.59 0.47 -1 8.02 -1 12 c 0 3.65 0.18 7.92 1 11 c 0.37 1.39 1.86 3.29 3 4 c 1.16 0.73 3.72 1.28 5 1 c 1.25 -0.28 2.63 -2.32 4 -3 c 1.13 -0.56 2.75 -1.08 4 -1 c 3.38 0.23 7.32 1.78 11 2 c 7.25 0.44 15.91 -1.05 22 0 c 2.38 0.41 4.59 4.06 7 5 c 3.14 1.22 7.79 2.4 11 2 c 4 -0.5 8.84 -3.9 13 -5 c 1.79 -0.47 4.22 -0.41 6 0 c 2.26 0.52 4.96 2.84 7 3 c 1.7 0.13 4.05 -1.64 6 -2 c 1.55 -0.28 3.6 -0.52 5 0 c 4.38 1.61 9.31 5.38 14 7 c 3.64 1.26 8.25 2.14 12 2 c 4.41 -0.17 9.59 -1.44 14 -3 c 6.75 -2.38 17.71 -7.14 20 -9 c 0.59 -0.48 -2.59 -3.74 -4 -4 c -3 -0.56 -9.32 0.04 -12 1 c -0.99 0.35 -2.52 3.54 -2 4 c 1.22 1.07 7.13 2.81 10 3 c 1.48 0.1 3.38 -1.68 5 -2 c 1.51 -0.3 3.44 -0.31 5 0 c 3.25 0.65 6.74 2.39 10 3 c 1.87 0.35 4.11 0.29 6 0 c 2.3 -0.35 4.94 -2 7 -2 c 1.79 0 4.18 1.04 6 2 c 5.05 2.64 10 6.71 15 9 c 2.63 1.21 6.03 1.58 9 2 c 1.61 0.23 3.57 0.48 5 0 c 4.1 -1.37 8.63 -4.54 13 -6 c 3.41 -1.14 7.45 -2 11 -2 c 5.75 0 11.9 1.59 18 2 c 4.04 0.27 8.13 0.46 12 0 c 4.3 -0.52 9.06 -1.77 13 -3 c 1.07 -0.33 2.81 -1.22 3 -2 c 0.33 -1.31 0.04 -5.07 -1 -6 c -1.62 -1.45 -6.37 -3.22 -9 -3 c -4.39 0.37 -11.05 3.14 -15 5 c -0.9 0.42 -2 2.21 -2 3 c 0 0.79 1.2 2.66 2 3 c 1.11 0.47 3.98 0.78 5 0 c 3.63 -2.77 8.38 -8.42 12 -13 c 2.67 -3.37 5.52 -7.18 7 -11 c 2.34 -6.04 4.37 -13.88 5 -20 c 0.28 -2.74 -1.88 -8.81 -2 -9 c -0.08 -0.12 -0.33 4.08 0 6 c 0.97 5.58 2.27 11.61 4 17 l 4 8"/></svg>