<?xml version="1.0" encoding="UTF-8" standalone="no"?><!DOCTYPE svg PUBLIC "-//W3C//DTD SVG 1.1//EN" "http://www.w3.org/Graphics/SVG/1.1/DTD/svg11.dtd"><svg xmlns="http://www.w3.org/2000/svg" version="1.1" width="538" height="127"><path stroke-linejoin="round" stroke-linecap="round" stroke-width="2" stroke="rgb(52, 58, 64)" fill="none" d="M 1 54 c 0.74 -0.21 27.83 -7.24 42 -12 c 26.57 -8.93 77 -28 77 -28"/><path stroke-linejoin="round" stroke-linecap="round" stroke-width="2" stroke="rgb(52, 58, 64)" fill="none" d="M 82 55 c -0.28 0.47 -10.86 17.81 -16 27 c -1.25 2.23 -3 7 -3 7"/><path stroke-linejoin="round" stroke-linecap="round" stroke-width="2" stroke="rgb(52, 58, 64)" fill="none" d="M 103 62 c 0.33 -0.26 12.38 -10.88 19 -15 c 5.39 -3.35 11.95 -5.76 18 -8 c 2.83 -1.05 6.15 -1.82 9 -2 c 2.19 -0.14 4.78 0.45 7 1 c 1.69 0.42 4.49 0.89 5 2 c 1.05 2.28 1.93 7.87 1 11 c -3.29 11.06 -10.35 23.67 -15 36 c -2.11 5.6 -5.15 14.47 -5 17 l 6 0"/><path stroke-linejoin="round" stroke-linecap="round" stroke-width="2" stroke="rgb(52, 58, 64)" fill="none" d="M 166 49 c 0.18 -0.19 6.47 -7.47 10 -11 c 2.19 -2.19 4.5 -4.24 7 -6 c 3.16 -2.23 6.62 -4.5 10 -6 c 2.39 -1.06 5.37 -1.62 8 -2 c 1.92 -0.27 4.14 -0.31 6 0 c 1.96 0.33 4.51 1.01 6 2 c 1.18 0.78 2.45 2.62 3 4 c 0.67 1.68 0.94 3.98 1 6 c 0.27 8.62 -0.24 17.19 0 26 c 0.09 3.4 1 10 1 10"/><path stroke-linejoin="round" stroke-linecap="round" stroke-width="2" stroke="rgb(52, 58, 64)" fill="none" d="M 190 7 c 0.09 -0.05 3.26 -2.61 5 -3 c 6.61 -1.47 14.75 -2.6 22 -3 c 4.58 -0.25 9.41 0.29 14 1 c 4.04 0.62 8.12 1.71 12 3 c 3.09 1.03 6.9 2.22 9 4 c 1.72 1.46 3.1 4.66 4 7 c 0.68 1.76 1.55 4.41 1 6 c -1.75 5.04 -6.52 11.12 -9 17 c -2.85 6.77 -5.9 14.83 -7 21 c -0.36 2.03 1.15 4.87 2 7 c 0.42 1.06 1.15 2.34 2 3 c 1.9 1.48 4.59 3.2 7 4 c 4.29 1.43 9.24 2.47 14 3 c 13.35 1.48 26.97 3.49 40 3 c 13.14 -0.49 40 -6 40 -6"/><path stroke-linejoin="round" stroke-linecap="round" stroke-width="2" stroke="rgb(52, 58, 64)" fill="none" d="M 333 27 c 0.1 0 4.03 0.29 6 0 c 11.63 -1.7 22.98 -4.39 35 -6 c 10.88 -1.46 20.97 -2.24 32 -3 c 8.93 -0.62 17.15 -1 26 -1 c 6.81 0 14.49 -0.38 20 1 c 2.75 0.69 6.12 3.77 8 6 c 1.44 1.7 3.54 5.08 3 7 c -3 10.61 -11.87 26.37 -16 39 c -1.28 3.91 -1.68 9.42 -1 13 c 0.49 2.59 2.97 6.41 5 8 c 2.04 1.6 6.01 2.8 9 3 c 16.42 1.08 35.03 -0.04 52 1 c 4.35 0.27 9.28 1.4 13 3 c 2.79 1.2 5.83 3.83 8 6 c 1.27 1.27 2.69 3.3 3 5 c 0.9 4.97 1 17 1 17"/></svg>