<?xml version="1.0" encoding="UTF-8" standalone="no"?><!DOCTYPE svg PUBLIC "-//W3C//DTD SVG 1.1//EN" "http://www.w3.org/Graphics/SVG/1.1/DTD/svg11.dtd"><svg xmlns="http://www.w3.org/2000/svg" version="1.1" width="421" height="87"><path stroke-linejoin="round" stroke-linecap="round" stroke-width="2" stroke="rgb(52, 58, 64)" fill="none" d="M 156 4 l 1 1"/><path stroke-linejoin="round" stroke-linecap="round" stroke-width="2" stroke="rgb(52, 58, 64)" fill="none" d="M 124 19 l 1 1"/><path stroke-linejoin="round" stroke-linecap="round" stroke-width="2" stroke="rgb(52, 58, 64)" fill="none" d="M 276 18 l -2 -3"/><path stroke-linejoin="round" stroke-linecap="round" stroke-width="2" stroke="rgb(52, 58, 64)" fill="none" d="M 14 23 l 1 1"/><path stroke-linejoin="round" stroke-linecap="round" stroke-width="2" stroke="rgb(52, 58, 64)" fill="none" d="M 31 6 c -0.16 -0.09 -6.46 -4.86 -9 -5 c -2.43 -0.13 -6.24 2.38 -9 4 c -2.8 1.65 -6.27 3.69 -8 6 c -1.87 2.49 -3.15 6.8 -4 10 c -0.4 1.49 -0.48 3.57 0 5 c 1.37 4.1 3.23 9.57 6 13 c 5.05 6.27 12.87 11.87 19 18 c 1.17 1.17 2.23 2.58 3 4 c 1.18 2.16 2.44 4.75 3 7 c 0.37 1.48 0.44 3.57 0 5 c -0.78 2.55 -2.5 5.86 -4 8 c -0.6 0.86 -2 1.75 -3 2 c -1.38 0.34 -3.89 0.47 -5 0 c -0.8 -0.34 -1.87 -2.08 -2 -3 c -0.15 -1.05 0.54 -2.69 1 -4 c 1.56 -4.42 3.03 -8.71 5 -13 c 3.8 -8.27 10.41 -21.73 12 -24 c 0.26 -0.38 1.81 2.64 2 4 c 1.05 7.33 1.03 15.99 2 24 c 0.37 3.07 1.1 6.3 2 9 c 0.35 1.06 1.19 2.7 2 3 c 1.35 0.51 4.24 0.35 6 0 c 1.31 -0.26 2.85 -1.12 4 -2 c 4.37 -3.35 9.69 -7 13 -11 c 2.61 -3.15 4.36 -8.03 6 -12 c 0.62 -1.51 0.9 -3.33 1 -5 c 0.23 -3.93 0.33 -11 0 -12 c -0.12 -0.35 -2.39 1.93 -3 3 c -0.59 1.04 -1.07 2.74 -1 4 c 0.24 4.01 1.07 8.7 2 13 c 0.74 3.41 1.72 7.02 3 10 c 0.61 1.43 1.81 3.05 3 4 c 1.92 1.53 4.82 3.53 7 4 c 1.91 0.41 5.39 0.04 7 -1 c 2.42 -1.56 5 -5.17 7 -8 c 1.94 -2.75 3.72 -6.01 5 -9 c 0.63 -1.48 1.41 -4.04 1 -5 c -0.36 -0.84 -2.94 -2.12 -4 -2 c -1.38 0.15 -3.82 1.82 -5 3 c -0.91 0.91 -1.49 2.64 -2 4 c -0.47 1.26 -1 2.72 -1 4 c 0 3.13 0.22 7.08 1 10 c 0.45 1.7 1.77 3.64 3 5 c 1.95 2.14 4.5 4.68 7 6 l 12 4"/><path stroke-linejoin="round" stroke-linecap="round" stroke-width="2" stroke="rgb(52, 58, 64)" fill="none" d="M 115 16 c 0.33 0.04 12.54 1.69 19 2 c 7.77 0.37 15.21 0.36 23 0 c 6.8 -0.32 15.45 -2.76 20 -2 c 1.63 0.27 3.58 3.91 4 6 c 1.69 8.46 1.38 19.48 3 29 c 1.04 6.1 4.9 18.5 5 18 c 0.2 -1.02 -1 -25.51 -1 -38 c 0 -2 0.42 -4.25 1 -6 c 0.35 -1.04 1.41 -3.08 2 -3 c 1.05 0.15 4.44 2.33 5 4 c 2.84 8.52 4.44 21.76 7 32 c 0.35 1.4 1.45 4 2 4 c 0.62 0 2.48 -2.53 3 -4 c 4.5 -12.67 11.43 -37.01 13 -41 c 0.13 -0.33 1.78 2 2 3 c 0.37 1.67 -0.45 4.15 0 6 c 1.79 7.41 4.03 15.87 7 23 c 1.89 4.53 5.21 9.78 8 13 c 0.98 1.13 3.94 2.35 5 2 c 1.26 -0.42 3.06 -3.31 4 -5 c 0.6 -1.09 0.87 -4.13 1 -4 c 0.2 0.2 0.19 4.39 1 6 c 1.33 2.65 3.74 6.5 6 8 c 2.08 1.39 6.39 2 9 2 c 1.53 0 3.57 -1.09 5 -2 c 2.08 -1.32 4.15 -3.15 6 -5 c 4.2 -4.2 8.34 -8.47 12 -13 c 1.95 -2.41 3.81 -5.28 5 -8 c 1.04 -2.38 1.6 -5.37 2 -8 c 0.25 -1.59 0.42 -3.61 0 -5 c -0.49 -1.62 -1.91 -4.78 -3 -5 c -1.42 -0.28 -5.18 1.73 -7 3 c -1.2 0.84 -2.45 2.62 -3 4 c -0.67 1.68 -1.47 4.35 -1 6 c 1.29 4.5 4.22 10.83 7 15 c 1.55 2.32 4.53 4.24 7 6 c 2.16 1.54 4.65 3.35 7 4 c 3.22 0.89 7.59 1.19 11 1 c 2.25 -0.12 5.05 -0.95 7 -2 c 2.09 -1.12 4.17 -3.17 6 -5 c 2.16 -2.16 4.5 -4.46 6 -7 c 2.69 -4.56 5.42 -10.27 7 -15 c 0.57 -1.72 0.46 -4.32 0 -6 c -0.44 -1.63 -1.75 -4.03 -3 -5 c -1.35 -1.05 -4.14 -1.84 -6 -2 c -1.79 -0.15 -4.24 0.36 -6 1 c -1.69 0.61 -3.65 1.78 -5 3 c -1.81 1.63 -4.05 3.86 -5 6 c -1.51 3.39 -3.13 8.35 -3 12 c 0.17 4.87 2.24 11.17 4 16 c 0.77 2.11 2.44 4.44 4 6 c 1.56 1.56 3.93 2.97 6 4 c 1.81 0.91 4.12 1.86 6 2 c 2.1 0.16 4.69 -0.5 7 -1 c 2.38 -0.51 4.78 -1.06 7 -2 c 6.42 -2.72 13.35 -7.19 19 -9 c 1.64 -0.52 4.45 0.17 6 1 c 2.35 1.27 4.43 4.58 7 6 c 6.74 3.72 14.48 7.25 22 10 c 6.11 2.24 14.02 4.32 19 5 l 3 -2"/><path stroke-linejoin="round" stroke-linecap="round" stroke-width="2" stroke="rgb(52, 58, 64)" fill="none" d="M 301 43 l 1 1"/></svg>