<?xml version="1.0" encoding="UTF-8" standalone="no"?><!DOCTYPE svg PUBLIC "-//W3C//DTD SVG 1.1//EN" "http://www.w3.org/Graphics/SVG/1.1/DTD/svg11.dtd"><svg xmlns="http://www.w3.org/2000/svg" version="1.1" width="343" height="103"><path stroke-linejoin="round" stroke-linecap="round" stroke-width="2" stroke="rgb(52, 58, 64)" fill="none" d="M 22 51 c 0.21 -0.3 7.22 -12.31 12 -17 c 11.74 -11.51 28.98 -25.54 39 -33 c 0.81 -0.6 3.95 0.27 4 1 c 0.17 2.36 -0.9 9.48 -3 13 c -8.46 14.19 -21.03 28.81 -31 44 c -4.23 6.44 -6.73 14.25 -11 20 c -3.04 4.1 -7.74 7.53 -12 11 c -4.87 3.97 -10.17 7.95 -15 11 c -1.07 0.68 -4.13 1.12 -4 1 c 0.65 -0.6 10.3 -8.4 16 -12 c 13.55 -8.56 26.9 -16.35 41 -24 c 5.85 -3.17 11.75 -5.53 18 -8 c 6.72 -2.65 19.65 -6.87 20 -7 c 0.07 -0.03 -2.88 0.37 -4 1 c -3.92 2.2 -8.47 4.98 -12 8 c -3.29 2.82 -5.84 6.84 -9 10 c -1.5 1.5 -3.75 2.47 -5 4 c -1.57 1.92 -4 5.64 -4 7 c 0 0.75 2.89 2.17 4 2 c 2.45 -0.38 6.21 -2.35 9 -4 c 4.48 -2.65 9.32 -5.73 13 -9 c 2 -1.78 3.78 -4.56 5 -7 c 1.34 -2.69 1.65 -6.68 3 -9 c 0.71 -1.22 2.57 -2.52 4 -3 c 4.1 -1.37 9.28 -2.44 14 -3 c 6.6 -0.78 13.11 -0.76 20 -1 c 3.1 -0.11 6.1 -0.39 9 0 c 4.29 0.59 9.41 1.65 13 3 c 1.14 0.43 3 2.19 3 3 c 0 0.95 -1.8 3 -3 4 c -2.59 2.16 -5.87 4.51 -9 6 c -3.66 1.74 -8.12 3.14 -12 4 c -1.84 0.41 -4.24 0.47 -6 0 c -2.89 -0.77 -6.3 -2.38 -9 -4 c -2.14 -1.28 -4.68 -3.18 -6 -5 c -1.07 -1.47 -1.82 -6.24 -2 -6 c -0.28 0.38 -1 6.78 -1 10 c 0 1.95 0.27 4.22 1 6 c 2.15 5.24 4.87 12.5 8 16 c 1.66 1.86 6.09 2.38 9 3 c 1.54 0.33 3.59 0.53 5 0 c 5.92 -2.22 13.23 -5.58 19 -9 c 2.92 -1.73 5.94 -4.32 8 -7 c 4.35 -5.66 8.93 -12.35 12 -19 c 4.8 -10.4 7.7 -21.97 12 -33 c 1.1 -2.81 4.07 -8.14 4 -8 c -0.38 0.81 -19.98 35.92 -22 46 c -0.56 2.81 7.94 5.75 11 9 l 5 8"/><path stroke-linejoin="round" stroke-linecap="round" stroke-width="2" stroke="rgb(52, 58, 64)" fill="none" d="M 271 25 c -0.21 -0.05 -8.19 -2.86 -12 -3 c -4.66 -0.17 -10.42 0.63 -15 2 c -5.01 1.5 -10.21 4.39 -15 7 c -2.49 1.36 -4.83 3.14 -7 5 c -2.49 2.14 -5.23 4.41 -7 7 c -3.04 4.45 -6.08 10.1 -8 15 c -0.91 2.32 -1 5.42 -1 8 c 0 2.27 0.13 5.04 1 7 c 1.6 3.61 4.34 8.84 7 11 c 1.88 1.53 6.24 2.21 9 2 c 5.22 -0.4 11.65 -2.15 17 -4 c 4.11 -1.42 8.55 -3.44 12 -6 c 6.56 -4.87 13.05 -10.88 19 -17 c 6.13 -6.3 12.08 -13 17 -20 c 3.6 -5.13 5.71 -11.51 9 -17 c 1.71 -2.85 4.46 -5.36 6 -8 c 0.63 -1.09 0.77 -4 1 -4 c 0.23 0 1.45 3 1 4 c -3.65 8.04 -10.77 18.88 -16 29 c -5.44 10.53 -9.39 20.98 -15 31 c -3.75 6.7 -14.03 18.53 -13 19 c 1.25 0.57 15.8 -10.09 24 -14 c 5.6 -2.67 12.94 -6.89 18 -6 c 11.24 1.97 39 16 39 16"/></svg>