<?xml version="1.0" encoding="UTF-8" standalone="no"?><!DOCTYPE svg PUBLIC "-//W3C//DTD SVG 1.1//EN" "http://www.w3.org/Graphics/SVG/1.1/DTD/svg11.dtd"><svg xmlns="http://www.w3.org/2000/svg" version="1.1" width="336" height="139"><path stroke-linejoin="round" stroke-linecap="round" stroke-width="2" stroke="rgb(52, 58, 64)" fill="none" d="M 1 51 c 0.05 0.14 1.28 6.69 3 8 c 2.99 2.29 9.74 5 14 5 c 6.47 0 14.72 -2.8 22 -5 c 10.61 -3.2 20.44 -6.86 31 -11 c 26.35 -10.34 49.65 -20.66 76 -31 c 10.56 -4.14 20.37 -7.73 31 -11 c 6.97 -2.15 14.56 -4.36 21 -5 c 2.75 -0.27 8.44 0.66 9 2 c 0.65 1.56 -2.02 7.18 -4 10 c -10.87 15.49 -24.59 30.87 -36 47 c -3.97 5.61 -7.13 11.85 -10 18 c -1.76 3.78 -4.32 9.43 -4 12 c 0.18 1.46 4.19 4.08 6 4 c 4.2 -0.19 10.9 -2.72 16 -5 c 20.29 -9.08 39.15 -19.75 60 -29 c 18.53 -8.22 36.14 -15.18 55 -22 c 9.27 -3.35 19.04 -6.54 28 -8 c 4.62 -0.75 12.6 -0.65 15 1 c 1.6 1.1 1.79 7.22 1 10 c -1.59 5.56 -6.27 11.71 -9 18 c -5.11 11.78 -10.7 23.36 -14 35 c -2.2 7.77 -2.81 16.82 -3 25 l 2 19"/></svg>