<?xml version="1.0" encoding="UTF-8" standalone="no"?><!DOCTYPE svg PUBLIC "-//W3C//DTD SVG 1.1//EN" "http://www.w3.org/Graphics/SVG/1.1/DTD/svg11.dtd"><svg xmlns="http://www.w3.org/2000/svg" version="1.1" width="438" height="134"><path stroke-linejoin="round" stroke-linecap="round" stroke-width="2" stroke="rgb(52, 58, 64)" fill="none" d="M 68 15 c 0.39 0.19 14.32 7.51 22 11 c 11.19 5.09 21.76 10.57 33 14 c 12.48 3.81 25.65 6.01 39 8 c 16.18 2.42 31.93 4.47 48 5 c 14.34 0.47 28.92 -0.46 43 -2 c 7.06 -0.77 14.36 -2.79 21 -5 c 4.13 -1.38 8.57 -3.55 12 -6 c 3.25 -2.32 7 -5.77 9 -9 c 1.99 -3.21 3.38 -8.31 4 -12 c 0.3 -1.77 -0.36 -4.24 -1 -6 c -0.61 -1.69 -1.71 -3.94 -3 -5 c -1.99 -1.62 -5.25 -3.04 -8 -4 c -3.8 -1.33 -8.03 -2.59 -12 -3 c -5.46 -0.56 -12.57 -1.85 -17 0 c -8.24 3.45 -18.09 11.13 -26 18 c -14.69 12.74 -27.14 27.26 -42 41 c -21.7 20.07 -42.25 39.7 -64 57 c -6.93 5.51 -15.97 9.43 -24 13 c -3.64 1.62 -8.03 2.62 -12 3 c -6.1 0.59 -14.03 1.66 -19 0 c -4.66 -1.55 -9.67 -6.94 -14 -11 c -6.37 -5.97 -12.49 -12.31 -18 -19 c -3.79 -4.61 -6.27 -10.16 -10 -15 c -8.83 -11.45 -19.26 -22.77 -27 -33 c -0.75 -0.99 -1.55 -3.53 -1 -4 c 1.1 -0.94 5.4 -1.89 8 -2 c 5.06 -0.21 10.63 0.31 16 1 c 7.82 1 15.13 2.33 23 4 c 31.1 6.6 58.7 13.41 90 20 c 21.44 4.51 40.57 8.43 62 12 c 19.87 3.31 38.04 6.18 58 8 c 39.98 3.66 77.1 6.41 117 8 c 20.08 0.8 42.12 -0.18 59 -1 l 3 -2"/></svg>