<?xml version="1.0" encoding="UTF-8" standalone="no"?><!DOCTYPE svg PUBLIC "-//W3C//DTD SVG 1.1//EN" "http://www.w3.org/Graphics/SVG/1.1/DTD/svg11.dtd"><svg xmlns="http://www.w3.org/2000/svg" version="1.1" width="565" height="124"><path stroke-linejoin="round" stroke-linecap="round" stroke-width="2" stroke="rgb(52, 58, 64)" fill="none" d="M 105 43 l 1 1"/><path stroke-linejoin="round" stroke-linecap="round" stroke-width="2" stroke="rgb(52, 58, 64)" fill="none" d="M 14 1 l 7 20"/><path stroke-linejoin="round" stroke-linecap="round" stroke-width="2" stroke="rgb(52, 58, 64)" fill="none" d="M 60 35 c -0.07 0.05 -2.63 2.32 -4 3 c -1.13 0.56 -3 1.25 -4 1 c -1.22 -0.3 -2.84 -1.84 -4 -3 c -2.79 -2.79 -5.16 -6.37 -8 -9 c -1.7 -1.58 -4.02 -3.47 -6 -4 c -2.47 -0.66 -6.56 -0.89 -9 0 c -4.14 1.51 -9.22 5.11 -13 8 c -1.59 1.21 -2.94 3.2 -4 5 c -2.22 3.78 -4.84 8.04 -6 12 c -1.04 3.56 -1.31 8.24 -1 12 c 0.32 3.86 1.63 8.29 3 12 c 0.89 2.42 2.45 4.81 4 7 c 2.46 3.48 4.88 7.96 8 10 c 4.71 3.08 12.07 5.52 18 7 c 4.31 1.08 9.32 1 14 1 c 4.35 0 8.78 -0.37 13 -1 c 2.36 -0.35 4.66 -1.22 7 -2 c 1.73 -0.58 3.5 -1.12 5 -2 c 2.4 -1.4 5.49 -2.99 7 -5 c 2.11 -2.82 4.29 -7.35 5 -11 c 1.17 -6.06 1.19 -13.42 1 -20 c -0.14 -4.65 -0.89 -9.56 -2 -14 c -0.84 -3.38 -2.37 -6.92 -4 -10 c -1.3 -2.46 -3.45 -5.97 -5 -7 c -0.74 -0.5 -3.59 0.28 -4 1 c -0.6 1.05 -0.27 4.03 0 6 c 1.06 7.65 3.09 15.2 4 23 c 0.78 6.69 0.37 13.28 1 20 c 0.38 4.08 1.39 12.26 2 12 c 0.79 -0.34 3.12 -9.98 5 -15 c 1.17 -3.13 2.48 -6.18 4 -9 c 0.77 -1.43 1.83 -2.94 3 -4 c 2.02 -1.82 4.65 -3.99 7 -5 c 1.93 -0.83 5.17 -1.33 7 -1 c 1.29 0.23 3.54 1.8 4 3 c 0.93 2.42 1.14 6.76 1 10 c -0.19 4.57 -2 9.56 -2 14 c 0 3.51 0.89 9.42 2 11 l 5 -1"/><path stroke-linejoin="round" stroke-linecap="round" stroke-width="2" stroke="rgb(52, 58, 64)" fill="none" d="M 148 59 c -0.31 -0.1 -13.1 -5.11 -18 -6 c -1.15 -0.21 -3.42 1.07 -4 2 c -0.79 1.26 -1 4.12 -1 6 c 0 1.58 0.35 3.7 1 5 c 0.54 1.08 1.89 2.22 3 3 c 2.12 1.48 7.51 3.64 7 4 c -1.09 0.77 -14.35 1.51 -17 3 c -0.93 0.53 0.06 4.71 1 6 c 1.33 1.83 4.6 3.6 7 5 c 1.5 0.88 3.38 1.68 5 2 c 1.51 0.3 3.43 0.26 5 0 c 2.29 -0.38 4.77 -1.11 7 -2 c 2.74 -1.09 5.49 -2.42 8 -4 c 3.81 -2.41 8.01 -5.01 11 -8 c 2.38 -2.38 4.2 -5.84 6 -9 c 2.24 -3.92 4.06 -10.06 6 -12 c 0.74 -0.74 3.94 0.13 5 1 c 2.08 1.7 4.46 5.36 6 8 c 0.63 1.09 1 2.76 1 4 c 0 1.53 -0.31 3.62 -1 5 c -1.17 2.33 -5.13 5.94 -5 7 c 0.09 0.75 4.21 1.15 6 1 c 1.86 -0.16 4.16 -1.08 6 -2 c 3.4 -1.7 7.87 -3.47 10 -6 c 2.61 -3.1 5.6 -12.68 6 -13 c 0.25 -0.2 -1 6.09 -1 9 c 0 2.28 0.39 4.97 1 7 c 0.31 1.04 1.22 2.22 2 3 c 0.78 0.78 1.96 1.65 3 2 c 1.75 0.58 4.05 1 6 1 c 3.22 0 7.21 0.03 10 -1 c 3 -1.11 7.33 -3.56 9 -6 c 2.1 -3.07 3.89 -13.37 4 -13 c 0.19 0.63 -0.09 15.71 -1 23 c -0.38 3 -1.59 6.31 -3 9 c -2.14 4.09 -5.19 8.48 -8 12 c -0.98 1.22 -2.88 2.86 -4 3 c -1.01 0.13 -3.91 -1.19 -4 -2 c -0.15 -1.37 1.33 -5.62 3 -7 c 6.81 -5.64 17.64 -11.23 26 -17 c 1.14 -0.79 1.87 -2.24 3 -3 c 3.71 -2.48 8.59 -4.24 12 -7 c 3.3 -2.67 6.41 -6.48 9 -10 c 1.98 -2.69 3.88 -5.95 5 -9 c 1.11 -3.02 1.81 -6.82 2 -10 c 0.13 -2.2 0.04 -5.7 -1 -7 c -1.12 -1.4 -5.07 -3 -7 -3 c -1.7 0 -5.19 1.62 -6 3 c -1.09 1.87 -1.46 6.22 -1 9 c 1.74 10.42 5.54 21.81 8 33 l 1 8"/><path stroke-linejoin="round" stroke-linecap="round" stroke-width="2" stroke="rgb(52, 58, 64)" fill="none" d="M 332 53 c -0.04 0.05 -1.65 1.94 -2 3 c -0.9 2.7 -1.07 6.07 -2 9 c -1.41 4.43 -3.87 8.68 -5 13 c -0.81 3.11 -1.32 10.19 -1 10 c 0.46 -0.27 4.26 -8.54 6 -13 c 1.27 -3.25 1.47 -7.05 3 -10 c 2.97 -5.73 7.02 -11.56 11 -17 c 2.37 -3.24 5.27 -6.5 8 -9 c 1.01 -0.93 2.77 -1.86 4 -2 c 1.4 -0.16 3.7 0.35 5 1 c 1.08 0.54 2.3 1.86 3 3 c 1.84 2.99 4.39 6.72 5 10 c 0.92 4.99 0.66 11.97 0 17 c -0.26 1.98 -2.67 5.89 -3 6 c -0.25 0.08 -0.4 -3.51 0 -5 c 0.85 -3.2 2.42 -6.72 4 -10 c 3.16 -6.54 6.49 -12.79 10 -19 c 0.82 -1.45 1.83 -2.96 3 -4 c 1.68 -1.5 4.14 -3.53 6 -4 c 1.57 -0.39 4.81 0.05 6 1 c 1.58 1.27 3.25 4.61 4 7 c 1.14 3.6 1.72 7.98 2 12 c 0.39 5.62 0.25 11.43 0 17 c -0.08 1.67 -0.41 3.48 -1 5 c -1.03 2.67 -2.39 6.21 -4 8 l -5 2"/><path stroke-linejoin="round" stroke-linecap="round" stroke-width="2" stroke="rgb(52, 58, 64)" fill="none" d="M 444 73 c -0.31 -0.07 -12.17 -3.45 -18 -4 c -4.44 -0.42 -9.76 0.29 -14 1 c -1.35 0.23 -3.25 1.04 -4 2 c -1.27 1.63 -2.79 4.75 -3 7 c -0.4 4.15 0.29 9.96 1 14 c 0.18 1.04 1.19 2.33 2 3 c 1 0.84 2.87 2.16 4 2 c 2.73 -0.39 7.22 -2.26 10 -4 c 2.19 -1.37 4.84 -3.81 6 -6 c 1.56 -2.94 2.96 -10.75 3 -11 c 0.01 -0.1 -1.89 2.74 -2 4 c -0.18 1.99 0.38 4.82 1 7 c 0.67 2.35 1.79 5.19 3 7 c 0.57 0.86 1.99 1.82 3 2 c 2.24 0.41 5.51 0.47 8 0 c 4.23 -0.81 9.24 -2.04 13 -4 c 4.15 -2.16 8.48 -5.64 12 -9 c 3.66 -3.5 7.06 -7.76 10 -12 c 3.03 -4.38 5.76 -9.3 8 -14 c 1.01 -2.12 1.09 -4.78 2 -7 c 1.4 -3.4 4.1 -6.68 5 -10 c 0.97 -3.57 1.18 -8.19 1 -12 c -0.14 -2.91 -1.1 -6.3 -2 -9 c -0.35 -1.06 -1.2 -2.46 -2 -3 c -0.92 -0.61 -2.8 -1.11 -4 -1 c -2.11 0.19 -4.97 0.98 -7 2 c -2.4 1.2 -5.17 2.98 -7 5 c -4.56 5.02 -9.65 11.41 -13 17 c -1.29 2.15 -1.66 5.3 -2 8 c -0.66 5.24 -1 10.72 -1 16 c 0 2.65 0.19 5.56 1 8 c 2.08 6.25 4.91 13.48 8 19 c 1.27 2.27 3.79 4.44 6 6 c 3.26 2.3 7.59 5.41 11 6 c 3.31 0.58 8.58 -0.74 12 -2 c 2.42 -0.89 4.82 -3.16 7 -5 c 2.15 -1.82 4.61 -3.84 6 -6 c 1.4 -2.17 2.44 -5.41 3 -8 c 0.39 -1.82 0.48 -4.4 0 -6 c -0.4 -1.33 -1.85 -2.99 -3 -4 c -1.35 -1.18 -3.38 -2.51 -5 -3 c -1.39 -0.42 -3.54 -0.32 -5 0 c -1.3 0.29 -3.6 1.2 -4 2 c -0.37 0.74 0.19 3.82 1 4 c 3.36 0.75 11.6 -0.45 17 0 l 7 2"/><path stroke-linejoin="round" stroke-linecap="round" stroke-width="2" stroke="rgb(52, 58, 64)" fill="none" d="M 562 82 c -0.12 -0.09 -4.56 -3.91 -7 -5 c -3.24 -1.44 -7.62 -2.58 -11 -3 c -1.51 -0.19 -3.6 0.38 -5 1 c -1.37 0.61 -3.67 1.89 -4 3 c -0.47 1.56 0.09 5.19 1 7 c 1.18 2.37 3.75 5.45 6 7 c 2.63 1.81 10.42 3.83 10 4 c -0.79 0.31 -15.54 -0.81 -20 0 c -1 0.18 -2.2 2.98 -2 4 c 0.33 1.65 2.4 4.4 4 6 c 2.53 2.53 5.77 5.17 9 7 c 6.59 3.74 21 10 21 10"/></svg>