<?xml version="1.0" encoding="UTF-8" standalone="no"?><!DOCTYPE svg PUBLIC "-//W3C//DTD SVG 1.1//EN" "http://www.w3.org/Graphics/SVG/1.1/DTD/svg11.dtd"><svg xmlns="http://www.w3.org/2000/svg" version="1.1" width="294" height="72"><path stroke-linejoin="round" stroke-linecap="round" stroke-width="2" stroke="rgb(52, 58, 64)" fill="none" d="M 163 36 c -0.17 -0.23 -6.28 -9.28 -10 -13 c -3.72 -3.72 -8.38 -7.29 -13 -10 c -6.54 -3.85 -14.05 -7.91 -21 -10 c -5.71 -1.71 -12.54 -1.73 -19 -2 c -9.8 -0.41 -21.19 -1.86 -29 0 c -4.42 1.05 -9.22 6.43 -13 10 c -1.98 1.87 -4.19 4.72 -5 7 c -0.66 1.85 -0.45 4.91 0 7 c 0.49 2.27 1.23 6.13 3 7 c 10.89 5.33 29.29 13 44 16 c 18.6 3.79 38.87 3.79 59 5 c 8.16 0.49 17.08 0.72 24 0 c 1.68 -0.17 5 -1.99 5 -3 c 0 -1.63 -2.75 -6.92 -5 -8 c -5.89 -2.84 -15.99 -4.88 -24 -6 c -8.43 -1.18 -17.14 -1 -26 -1 c -7.5 0 -15.32 -0.47 -22 1 c -6.26 1.37 -17.85 7.26 -19 8 c -0.28 0.18 3.77 1.37 5 1 c 1.55 -0.47 5.54 -3.64 5 -4 c -1.47 -0.98 -11.41 -3.84 -17 -4 c -16.97 -0.48 -36.42 -0.46 -53 2 c -9.29 1.38 -19.75 6.54 -28 10 c -1.18 0.49 -3.43 2.66 -3 3 c 1.4 1.12 8.65 4.63 13 5 c 25.61 2.16 53.62 2.46 82 3 c 26.29 0.5 52.38 1.09 76 0 c 3.64 -0.17 11.53 -3.66 11 -4 c -1.01 -0.64 -14.59 -2.4 -22 -3 c -5.01 -0.41 -14.05 -0.71 -15 0 c -0.58 0.44 4.47 5.52 7 6 c 11.01 2.11 26.3 2.61 40 3 c 22.54 0.64 64.76 0.45 66 0 c 0.84 -0.31 -29.27 -7.04 -44 -8 c -26.01 -1.69 -53.96 -1.52 -79 0 c -6.62 0.4 -17.16 4.42 -20 6 c -0.61 0.34 0.94 3.69 2 4 c 6.94 2.02 19.22 4.56 29 5 c 42.55 1.9 86.91 2 128 2 c 2.65 0 8.25 -1.98 8 -2 c -1.23 -0.11 -41.71 -0.93 -41 -1 c 0.89 -0.09 48.7 0.16 51 0 l -7 -3"/></svg>