<?xml version="1.0" encoding="UTF-8" standalone="no"?><!DOCTYPE svg PUBLIC "-//W3C//DTD SVG 1.1//EN" "http://www.w3.org/Graphics/SVG/1.1/DTD/svg11.dtd"><svg xmlns="http://www.w3.org/2000/svg" version="1.1" width="605" height="161"><path stroke-linejoin="round" stroke-linecap="round" stroke-width="2" stroke="rgb(52, 58, 64)" fill="none" d="M 119 1 c -0.07 0.07 -2.9 2.51 -4 4 c -3.51 4.76 -6.13 10.42 -10 15 c -10.8 12.76 -23.2 24.24 -34 37 c -3.87 4.58 -6.31 10.08 -10 15 c -8.6 11.47 -16.65 22.86 -26 33 c -6.15 6.68 -14.46 13.22 -21 18 c -1.21 0.88 -3.49 1.13 -5 1 c -2.15 -0.18 -6 -0.75 -7 -2 c -1.11 -1.38 -1 -5.47 -1 -8 c 0 -1.6 0.44 -3.41 1 -5 c 1.76 -5.03 3.49 -10.76 6 -15 c 1.54 -2.6 4.33 -5.58 7 -7 c 7.87 -4.17 18.44 -8.39 27 -11 c 2.64 -0.81 6.12 -0.48 9 0 c 6.9 1.15 14.32 2.71 21 5 c 5.81 1.99 11.22 5.73 17 8 c 3.51 1.38 7.45 1.65 11 3 c 6.13 2.33 18 8 18 8"/><path stroke-linejoin="round" stroke-linecap="round" stroke-width="2" stroke="rgb(52, 58, 64)" fill="none" d="M 140 121 c 0.32 -0.21 12.09 -7.75 18 -12 c 2.52 -1.81 4.82 -3.82 7 -6 c 2.51 -2.51 4.45 -5.61 7 -8 c 2.73 -2.56 6.72 -4.26 9 -7 c 4.05 -4.86 7.79 -11.33 11 -17 c 1 -1.77 1.86 -4.12 2 -6 c 0.16 -2.1 -0.38 -4.77 -1 -7 c -1.02 -3.69 -2.02 -8.17 -4 -11 c -2.28 -3.26 -6.55 -6.7 -10 -9 c -2.19 -1.46 -5.3 -2.58 -8 -3 c -7.6 -1.19 -16.41 -2.5 -24 -2 c -7.11 0.46 -22 5 -22 5"/><path stroke-linejoin="round" stroke-linecap="round" stroke-width="2" stroke="rgb(52, 58, 64)" fill="none" d="M 232 73 c -0.23 0.07 -8.8 2.36 -13 4 c -3.45 1.35 -7.04 2.98 -10 5 c -3.19 2.18 -6.26 5.26 -9 8 c -0.82 0.82 -1.59 1.93 -2 3 c -1.19 3.09 -3 7.1 -3 10 c 0 2.37 1.69 5.93 3 8 c 0.77 1.21 2.87 3 4 3 c 1.52 0 4.75 -1.55 6 -3 c 2.6 -3 5.35 -8.07 7 -12 c 0.84 -2 0.42 -4.86 1 -7 c 0.37 -1.36 1.94 -4.22 2 -4 c 0.16 0.55 -0.49 7.45 0 11 c 0.82 5.95 2.44 12.52 4 18 c 0.31 1.07 1.19 2.33 2 3 c 1 0.84 3.07 2.13 4 2 c 0.89 -0.13 2.22 -1.87 3 -3 c 2.14 -3.09 3.82 -7.16 6 -10 c 0.94 -1.22 2.63 -2.32 4 -3 c 1.13 -0.56 3.56 -1.66 4 -1 c 2.2 3.3 5 13 8 19 c 1.25 2.5 3.28 5.8 5 7 c 1 0.7 3.69 0.57 5 0 c 3.43 -1.5 8.98 -3.97 11 -7 c 3.83 -5.75 7.99 -21.63 9 -23 c 0.34 -0.46 1.12 5.58 2 8 c 0.38 1.06 1.22 2.22 2 3 c 0.78 0.78 2.21 2 3 2 c 0.79 0 2.18 -1.18 3 -2 c 3.06 -3.06 5.83 -7.58 9 -10 c 2.01 -1.54 5.92 -2.81 8 -3 c 0.88 -0.08 2.22 1.22 3 2 c 0.78 0.78 1.19 2.19 2 3 c 1.76 1.76 4.33 3.16 6 5 c 1.54 1.7 2.55 4.34 4 6 c 0.73 0.83 2.2 2.27 3 2 c 5.19 -1.73 14.03 -6.4 21 -10 c 2.83 -1.46 8.21 -4.68 8 -5 c -0.23 -0.34 -7.01 1.08 -10 2 c -1.06 0.32 -2.43 1.14 -3 2 c -1.21 1.81 -3.22 6.89 -3 7 c 0.23 0.11 3.07 -4.3 5 -6 c 9.3 -8.2 19.66 -15.69 29 -24 c 2.64 -2.35 6.53 -7.69 7 -8 c 0.18 -0.12 -0.47 2.81 -1 4 c -0.75 1.69 -1.85 3.39 -3 5 c -6.65 9.25 -14.52 18.29 -20 27 c -1.34 2.14 -2 5.52 -2 8 c 0 3.07 0.85 7.51 2 10 c 0.56 1.22 2.75 2.72 4 3 c 1.28 0.28 3.9 -0.09 5 -1 c 3.82 -3.15 7.9 -9.55 12 -13 c 1.77 -1.49 6.22 -3.26 7 -3 c 0.52 0.17 -0.9 3.33 -1 5 c -0.23 3.93 -0.6 9.18 0 12 l 3 2"/><path stroke-linejoin="round" stroke-linecap="round" stroke-width="2" stroke="rgb(52, 58, 64)" fill="none" d="M 429 31 c -0.11 0.23 -3.56 9.17 -6 13 c -2.05 3.22 -5.12 6.48 -8 9 c -2.26 1.98 -6.94 5 -8 5 c -0.56 0 -0.56 -3.69 0 -5 c 1.21 -2.83 3.64 -6.64 6 -9 c 2.66 -2.66 6.73 -5.25 10 -7 c 1.37 -0.73 3.41 -1 5 -1 c 2.21 0 5.48 0.09 7 1 c 1.26 0.75 2.79 3.32 3 5 c 0.68 5.46 0.38 12.66 0 19 c -0.29 4.72 -0.98 9.41 -2 14 c -0.98 4.42 -2.18 8.84 -4 13 c -6.21 14.23 -12.67 28.76 -20 42 c -2.81 5.07 -7.08 10.08 -11 14 c -2.08 2.08 -5.98 4.45 -8 5 c -0.77 0.21 -2.82 -1.15 -3 -2 c -0.6 -2.82 -0.57 -8.14 0 -12 c 1.07 -7.26 2.44 -15.13 5 -22 c 3.65 -9.8 8.94 -19.34 14 -29 c 2.4 -4.58 6.79 -12.27 8 -13 c 0.58 -0.35 2.34 4.98 2 7 c -0.83 5 -4.48 11.35 -6 17 c -0.76 2.84 -0.12 6.37 -1 9 c -1 2.99 -3.56 5.84 -5 9 c -3.63 7.99 -10.36 24.27 -10 24 c 0.49 -0.37 11.43 -20.36 18 -30 c 4.13 -6.07 9.06 -12.06 14 -17 c 2.43 -2.43 7.07 -5.68 9 -6 c 0.89 -0.15 2.72 2.75 3 4 c 0.28 1.28 -0.35 3.58 -1 5 c -0.91 2.01 -3.05 3.88 -4 6 c -1.97 4.37 -3.61 9.24 -5 14 c -0.95 3.27 -2 7.09 -2 10 c 0 1.54 1.04 4.83 2 5 c 1.69 0.31 6.42 -1.62 9 -3 c 2.13 -1.13 3.9 -4.02 6 -5 c 2.48 -1.16 6.1 -1.09 9 -2 c 2.39 -0.75 4.65 -2.33 7 -3 c 2.18 -0.62 5.11 -1.19 7 -1 c 0.96 0.1 2.93 1.21 3 2 c 0.19 2.22 -1.07 6.69 -2 10 c -2.11 7.5 -5.04 14.65 -7 22 c -0.68 2.57 -1 5.51 -1 8 c 0 1.27 0.37 3.79 1 4 c 0.82 0.27 3.51 -1.07 5 -2 c 6.36 -3.97 13.73 -8.39 19 -13 c 2.16 -1.89 3.53 -5.19 5 -8 c 2.23 -4.26 6 -12.44 6 -13 c 0 -0.33 -4.04 4.93 -6 6 c -1.15 0.63 -3.54 -0.32 -5 0 c -1.3 0.29 -3.33 1 -4 2 c -1.61 2.41 -4 7.24 -4 10 c 0 2.29 2.5 5.86 4 8 c 0.6 0.86 2.14 2.09 3 2 c 1.81 -0.18 5.19 -1.79 7 -3 c 0.86 -0.57 1.2 -2.2 2 -3 c 1.1 -1.1 3 -1.77 4 -3 c 4.42 -5.46 9.28 -12.05 13 -18 c 1.06 -1.7 2 -5.89 2 -6 c 0 -0.08 -2.16 2.87 -2 4 c 0.39 2.73 2.44 7.11 4 10 c 0.61 1.14 2.07 2.88 3 3 c 1.18 0.15 3.76 -1.03 5 -2 c 1.48 -1.15 3.28 -3.19 4 -5 c 1.75 -4.38 3.3 -10.07 4 -15 c 0.59 -4.13 0 -12.77 0 -13 c 0 -0.1 -0.46 4.17 0 6 c 1.45 5.78 3.44 13.87 6 18 c 1.03 1.66 5.08 2.83 7 3 c 1.13 0.1 3.09 -1.09 4 -2 c 1.18 -1.18 2.46 -3.28 3 -5 c 1.03 -3.31 1.73 -7.32 2 -11 c 0.39 -5.26 0.38 -10.71 0 -16 c -0.29 -4.02 -2 -8.09 -2 -12 c 0 -6.77 1.15 -13.8 2 -21 c 0.53 -4.49 0.71 -9.3 2 -13 c 0.85 -2.42 3.68 -6.74 5 -7 c 1.09 -0.22 4.48 3.14 5 5 c 1.48 5.3 2 13.39 2 20 c 0 7.26 -1.62 14.5 -2 22 c -0.3 5.77 -0.6 11.46 0 17 c 0.72 6.65 2.03 14.32 4 20 c 0.75 2.17 3.2 4.56 5 6 c 1.24 0.99 3.6 2.25 5 2 c 3.37 -0.6 8.76 -3.06 12 -5 c 1.25 -0.75 2.3 -2.6 3 -4 c 0.89 -1.78 1.79 -4.02 2 -6 c 0.43 -4.06 0.57 -8.79 0 -13 c -1.07 -7.95 -4.86 -23.46 -5 -24 c -0.03 -0.11 -0.37 3.52 0 5 c 0.56 2.25 2.87 4.87 3 7 l -2 9"/><path stroke-linejoin="round" stroke-linecap="round" stroke-width="2" stroke="rgb(52, 58, 64)" fill="none" d="M 549 129 c 0.18 -0.05 7.02 -1.51 10 -3 c 4.75 -2.37 9.47 -5.76 14 -9 c 2.51 -1.79 5.05 -3.86 7 -6 c 1.23 -1.36 3.11 -3.62 3 -5 c -0.16 -2.12 -2.18 -6.31 -4 -8 c -2.28 -2.12 -6.73 -4.35 -10 -5 c -4.39 -0.88 -9.92 -0.29 -15 0 c -6.8 0.39 -17.18 2.44 -20 2 c -0.71 -0.11 0.09 -3.87 1 -5 c 4.05 -5 10.26 -10.76 16 -16 c 17.96 -16.4 53 -47 53 -47"/></svg>