<?xml version="1.0" encoding="UTF-8" standalone="no"?><!DOCTYPE svg PUBLIC "-//W3C//DTD SVG 1.1//EN" "http://www.w3.org/Graphics/SVG/1.1/DTD/svg11.dtd"><svg xmlns="http://www.w3.org/2000/svg" version="1.1" width="468" height="90"><path stroke-linejoin="round" stroke-linecap="round" stroke-width="2" stroke="rgb(52, 58, 64)" fill="none" d="M 69 3 c -0.26 0.47 -9.14 18.82 -15 27 c -6.59 9.19 -14.86 17.3 -23 26 c -6.63 7.09 -13.62 12.98 -20 20 c -3.7 4.07 -10 13 -10 13"/><path stroke-linejoin="round" stroke-linecap="round" stroke-width="2" stroke="rgb(52, 58, 64)" fill="none" d="M 114 9 l 1 1"/><path stroke-linejoin="round" stroke-linecap="round" stroke-width="2" stroke="rgb(52, 58, 64)" fill="none" d="M 154 1 c -0.07 0.02 -2.88 0.39 -4 1 c -2.33 1.27 -4.49 3.54 -7 5 c -16.09 9.36 -31.32 19.07 -48 27 c -17.94 8.53 -36.19 14.21 -55 22 c -5.26 2.18 -15.29 7 -15 7 c 0.4 0 14.47 -5.07 22 -7 c 6.97 -1.78 13.89 -2.35 21 -4 c 7.58 -1.76 14.79 -4.8 22 -6 c 4.42 -0.74 9.85 -0.46 14 0 c 1.33 0.15 4 1.28 4 2 c 0 1.16 -2.31 4.49 -4 6 c -6.86 6.1 -16.07 11.81 -23 18 c -2.04 1.82 -4.3 4.89 -5 7 c -0.42 1.25 0.15 4.47 1 5 c 1.17 0.73 4.7 0.31 7 0 c 9.99 -1.35 19.99 -2.87 30 -5 c 5.83 -1.24 11.28 -3.04 17 -5 c 7.26 -2.48 13.96 -5.56 21 -8 c 1.6 -0.55 3.44 -1 5 -1 c 1.56 0 3.73 1.6 5 1 c 18.2 -8.58 63.3 -33.08 65 -34 c 0.1 -0.05 -4.13 1.15 -4 1 c 0.46 -0.53 7.11 -6.41 11 -9 c 4.04 -2.69 8.46 -4.73 13 -7 c 5.09 -2.54 9.83 -5.23 15 -7 c 7.42 -2.54 15.9 -4.78 23 -6 c 1.82 -0.31 5.93 0.12 6 1 c 0.15 1.76 -2.76 7.94 -5 11 c -3.8 5.2 -8.8 10.58 -14 15 c -14.8 12.58 -30.52 23.34 -46 36 c -7.13 5.83 -17.44 14.98 -20 18 c -0.34 0.4 2.13 2.23 3 2 c 15.49 -4.11 40.13 -13.2 61 -19 c 9.68 -2.69 19.11 -4.39 29 -6 c 6.71 -1.1 13.19 -1.73 20 -2 c 10.5 -0.41 20.64 -0.27 31 0 c 2.36 0.06 5.34 0.26 7 1 c 0.84 0.38 2.21 2.38 2 3 c -0.29 0.86 -2.86 1.86 -4 3 c -1.46 1.46 -2.88 3.24 -4 5 c -1.18 1.85 -2.27 3.98 -3 6 c -0.56 1.54 -1.17 3.67 -1 5 c 0.12 0.94 1.14 2.52 2 3 c 1.73 0.96 4.78 2 7 2 c 4.92 0 10.56 -1.04 16 -2 c 15.8 -2.8 31.54 -4.28 46 -9 c 16.57 -5.41 49 -22 49 -22"/></svg>