<?xml version="1.0" encoding="UTF-8" standalone="no"?><!DOCTYPE svg PUBLIC "-//W3C//DTD SVG 1.1//EN" "http://www.w3.org/Graphics/SVG/1.1/DTD/svg11.dtd"><svg xmlns="http://www.w3.org/2000/svg" version="1.1" width="485" height="136"><path stroke-linejoin="round" stroke-linecap="round" stroke-width="2" stroke="rgb(52, 58, 64)" fill="none" d="M 297 53 l 1 1"/><path stroke-linejoin="round" stroke-linecap="round" stroke-width="2" stroke="rgb(52, 58, 64)" fill="none" d="M 18 46 c -0.05 0.16 -2.36 5.98 -3 9 c -0.67 3.2 -0.32 6.7 -1 10 c -2.01 9.78 -5.86 28.17 -7 29 c -0.82 0.6 -3.46 -13.93 -4 -21 c -1.13 -14.88 -0.4 -30.38 -1 -45 c -0.05 -1.34 -1.01 -4.07 -1 -4 c 0.08 0.7 2.56 26.93 5 40 c 1.2 6.46 3.63 13.32 6 19 c 0.76 1.83 2.43 4.27 4 5 c 2.74 1.28 8.62 2.64 11 2 c 1.54 -0.41 3.28 -3.84 4 -6 c 4.04 -12.11 8.58 -26.1 11 -39 c 1.49 -7.96 0.31 -16.66 1 -25 c 0.31 -3.73 1.91 -11.27 2 -11 c 0.16 0.49 0.1 13.32 1 20 c 2.14 15.91 5.02 30.99 8 47 c 0.77 4.15 2.44 8.05 3 12 c 0.41 2.88 -0.51 6.3 0 9 l 3 7"/><path stroke-linejoin="round" stroke-linecap="round" stroke-width="2" stroke="rgb(52, 58, 64)" fill="none" d="M 127 69 c -0.02 -0.07 -0.44 -2.87 -1 -4 c -0.68 -1.37 -1.84 -2.84 -3 -4 c -3.12 -3.12 -6.63 -6.68 -10 -9 c -1.59 -1.09 -4.07 -1.89 -6 -2 c -3.67 -0.2 -8.72 0.03 -12 1 c -1.75 0.51 -3.52 2.52 -5 4 c -1.81 1.81 -4.29 3.87 -5 6 c -1.38 4.13 -1.63 9.94 -2 15 c -0.3 4.01 -0.24 8.14 0 12 c 0.08 1.33 0.42 3.77 1 4 c 0.63 0.25 3.74 -1.02 4 -2 c 0.76 -2.85 -0.5 -11.75 0 -13 c 0.19 -0.48 3.25 1.73 4 3 c 3.17 5.36 5.81 12.89 9 19 c 0.76 1.45 1.85 3.54 3 4 c 1.6 0.64 5.9 1.1 7 0 c 2.26 -2.26 4.8 -8.6 6 -13 c 1.69 -6.21 2.4 -20.6 3 -20 c 0.92 0.92 4.23 20.42 7 30 c 0.81 2.78 3.69 8.69 4 8 c 1.81 -4 9.6 -33.01 15 -50 c 1.44 -4.53 3.17 -10.15 5 -13 c 0.54 -0.84 3.74 -1.68 4 -1 c 2.46 6.33 6.98 24.42 10 37 c 1.04 4.32 1.58 8.64 2 13 c 0.25 2.65 -0.21 5.43 0 8 c 0.11 1.33 0.44 2.87 1 4 c 0.68 1.37 2.51 4 3 4 c 0.41 0 0.39 -3.08 1 -4 c 0.54 -0.8 2.3 -1.12 3 -2 c 6.83 -8.53 14.62 -21.39 21 -28 c 1.29 -1.34 4.83 -1.14 7 -1 c 2.53 0.17 5.86 0.8 8 2 c 2.75 1.55 5.48 4.48 8 7 c 2.52 2.52 4.59 5.59 7 8 c 0.82 0.82 1.97 1.61 3 2 c 1.46 0.55 4.26 1.49 5 1 c 0.74 -0.49 1 -3.4 1 -5 c 0 -2.53 -0.55 -5.32 -1 -8 c -0.23 -1.37 -0.44 -2.87 -1 -4 c -0.68 -1.37 -1.94 -3.79 -3 -4 c -1.54 -0.31 -5.56 0.67 -7 2 c -2.57 2.39 -5.02 7.23 -7 11 c -1.3 2.47 -2.28 5.31 -3 8 c -0.59 2.23 -1 4.75 -1 7 c 0 2.25 0.27 5.17 1 7 c 0.44 1.1 2.35 3.29 3 3 c 1.4 -0.62 4.73 -4.45 6 -7 c 2.49 -4.98 4.16 -11.08 6 -17 c 4.35 -14.03 7.55 -27.03 12 -41 c 2.77 -8.69 6.49 -16.73 9 -25 c 0.76 -2.51 1.03 -8.14 1 -8 c -0.15 0.73 -4.78 27.96 -8 42 c -1.5 6.54 -4.34 12.55 -6 19 c -1.02 3.94 -1.84 8.08 -2 12 c -0.16 3.88 -0.08 10.92 1 12 c 0.72 0.72 5.29 -2.21 7 -4 c 4.83 -5.06 9.17 -12.41 14 -18 c 1.36 -1.57 3.31 -3.06 5 -4 c 1.09 -0.6 2.82 -1.12 4 -1 c 1.81 0.18 5.26 0.62 6 2 c 3.22 6.01 5.78 17.94 9 26 c 0.59 1.46 1.8 2.97 3 4 c 3.27 2.8 7.78 5.27 11 8 c 0.85 0.72 1.65 1.96 2 3 c 0.58 1.75 1.31 4.45 1 6 c -0.25 1.27 -1.85 2.85 -3 4 c -1.79 1.79 -3.89 3.42 -6 5 c -1.95 1.46 -3.98 3.16 -6 4 c -1.7 0.71 -3.99 0.82 -6 1 c -1.65 0.15 -3.54 0.32 -5 0 c -1.3 -0.29 -3.25 -1.04 -4 -2 c -1.27 -1.63 -2.62 -4.92 -3 -7 c -0.2 -1.13 0.31 -2.96 1 -4 c 2.99 -4.49 7.05 -9.65 11 -14 c 2.67 -2.94 6.15 -5.15 9 -8 l 6 -7"/><path stroke-linejoin="round" stroke-linecap="round" stroke-width="2" stroke="rgb(52, 58, 64)" fill="none" d="M 326 14 c 0 0.3 0.3 11.2 0 17 c -0.73 14.04 -2.32 26.96 -3 41 c -0.35 7.17 0.26 14.12 0 21 c -0.06 1.67 -0.98 5.16 -1 5 c -0.14 -1.14 -2.84 -24.55 -3 -37 c -0.17 -13.43 1.75 -38.5 2 -40 c 0.07 -0.39 2.33 6.56 3 10 c 2.02 10.34 2.77 21.33 5 31 c 0.64 2.76 3.11 8.72 4 8 c 4.25 -3.43 18.56 -21.59 27 -33 c 3.9 -5.28 6.96 -11.11 10 -17 c 2.35 -4.55 3.73 -9.69 6 -14 c 0.95 -1.81 3.41 -5.29 4 -5 c 0.76 0.38 2.18 5.54 2 8 c -0.43 5.8 -2.92 12.55 -4 19 c -0.61 3.67 -1 7.49 -1 11 c 0 1.62 0.34 3.84 1 5 c 0.47 0.82 2 1.75 3 2 c 1.38 0.34 3.36 0.25 5 0 c 13.62 -2.07 27.73 -5.47 41 -7 c 3.52 -0.41 7.72 0.06 11 1 c 3.32 0.95 7.13 2.97 10 5 c 2.54 1.79 5.43 4.56 7 7 c 1.16 1.8 1.71 4.7 2 7 c 0.36 2.85 0.39 6.1 0 9 c -0.59 4.29 -1.91 8.49 -3 13 c -1.35 5.58 -1.98 11.18 -4 16 c -2.15 5.12 -5.61 10.37 -9 15 c -2.88 3.94 -6.35 8.56 -10 11 c -3.65 2.44 -9.35 3.88 -14 5 c -3.46 0.83 -7.87 1.6 -11 1 c -3.17 -0.6 -7.27 -2.95 -10 -5 c -2.25 -1.69 -4.62 -4.58 -6 -7 c -1.09 -1.91 -2 -4.82 -2 -7 c 0 -3.34 1.06 -7.38 2 -11 c 1.07 -4.09 2.21 -8.29 4 -12 c 2.47 -5.13 5.44 -10.82 9 -15 c 3.76 -4.41 8.91 -9.45 14 -12 c 9.96 -4.98 22.86 -8.98 34 -12 c 4.34 -1.17 9.55 -1.19 14 -1 c 2.93 0.13 6.36 0.94 9 2 c 2.07 0.83 4.59 2.43 6 4 c 1.31 1.46 2.27 3.98 3 6 l 1 5"/></svg>