<?xml version="1.0" encoding="UTF-8" standalone="no"?><!DOCTYPE svg PUBLIC "-//W3C//DTD SVG 1.1//EN" "http://www.w3.org/Graphics/SVG/1.1/DTD/svg11.dtd"><svg xmlns="http://www.w3.org/2000/svg" version="1.1" width="399" height="105"><path stroke-linejoin="round" stroke-linecap="round" stroke-width="2" stroke="rgb(52, 58, 64)" fill="none" d="M 12 9 c 0.09 0.56 4.04 21.27 5 32 c 0.71 7.95 0.77 16.29 0 24 c -0.53 5.3 -2.34 10.81 -4 16 c -0.99 3.1 -2.42 6.82 -4 9 c -0.72 0.99 -2.9 2 -4 2 c -1.1 0 -4.21 -1.91 -4 -2 c 0.43 -0.17 6.19 -0.54 9 0 c 5.54 1.06 11.28 3.63 17 5 c 2.6 0.62 5.55 1.16 8 1 c 2.22 -0.15 5.18 -0.88 7 -2 c 2.12 -1.31 4.34 -3.85 6 -6 c 1.57 -2.05 2.78 -4.56 4 -7 c 1.49 -2.98 3 -5.99 4 -9 c 0.62 -1.86 0.48 -5.61 1 -6 c 0.36 -0.27 1.92 2.46 3 3 c 1.3 0.65 3.29 0.84 5 1 c 9.06 0.85 18.13 0.76 27 2 c 5.41 0.75 12.57 2.39 16 4 c 0.86 0.4 1.15 2.95 1 4 c -0.13 0.92 -1.14 2.4 -2 3 c -2.14 1.5 -5.23 3.14 -8 4 c -6.69 2.08 -14.71 4.33 -21 5 c -2.12 0.23 -5.27 -0.96 -7 -2 c -1.19 -0.71 -2.78 -2.7 -3 -4 c -0.35 -2.1 -0.07 -5.76 1 -8 c 6.38 -13.3 14.49 -28.72 23 -42 c 5.05 -7.88 11.85 -15.05 18 -22 c 1.39 -1.57 5.06 -4.28 5 -4 c -0.14 0.65 -4.92 8.44 -7 13 c -5.06 11.08 -9.49 21.54 -14 33 c -3.74 9.5 -9.64 24.88 -10 28 c -0.09 0.77 4.97 -0.98 7 -2 c 2.4 -1.2 4.51 -3.86 7 -5 c 5.22 -2.39 11.25 -4.42 17 -6 c 3.88 -1.07 8.55 -2.33 12 -2 c 2.79 0.27 6.18 2.48 9 4 l 4 3"/><path stroke-linejoin="round" stroke-linecap="round" stroke-width="2" stroke="rgb(52, 58, 64)" fill="none" d="M 260 77 c 0.02 0.31 -0.17 12.73 1 18 c 0.67 3.01 3.51 8.46 5 9 c 1.13 0.41 4.95 -2.98 6 -5 c 3.14 -6.05 6.32 -14.5 8 -22 c 3.27 -14.59 5.2 -29.73 7 -45 c 0.91 -7.72 1.39 -20.3 1 -23 c -0.07 -0.52 -3.18 1.01 -4 2 c -2.14 2.57 -4.43 6.5 -6 10 c -2.73 6.08 -4.31 12.67 -7 19 c -3.09 7.27 -7.14 13.76 -10 21 c -2.84 7.19 -5.86 15.64 -7 22 c -0.31 1.74 0.95 6.1 2 6 c 3.42 -0.33 12.45 -5.71 19 -8 c 6.94 -2.43 13.95 -3.65 21 -6 c 7.26 -2.42 13.85 -5.07 21 -8 c 6.27 -2.57 12.17 -4.98 18 -8 c 3.86 -2 7.47 -4.45 11 -7 c 2.5 -1.8 4.92 -3.92 7 -6 c 0.81 -0.81 1.14 -2.4 2 -3 c 2.14 -1.5 5.57 -2.38 8 -4 c 3.48 -2.32 6.8 -5.09 10 -8 c 4.24 -3.85 8.06 -7.74 12 -12 c 4.61 -4.98 11.75 -12.18 13 -15 c 0.37 -0.83 -3.45 -3.18 -5 -3 c -12.49 1.47 -30.79 4.99 -46 9 c -15.4 4.06 -29.9 9.39 -45 15 c -8.7 3.23 -17.54 6.74 -25 11 c -3.67 2.1 -7.53 6.08 -10 9 c -0.76 0.89 -1.63 3.85 -1 4 c 3.96 0.95 17.1 1.84 26 2 c 29.7 0.53 87 0 87 0"/></svg>