<?xml version="1.0" encoding="UTF-8" standalone="no"?><!DOCTYPE svg PUBLIC "-//W3C//DTD SVG 1.1//EN" "http://www.w3.org/Graphics/SVG/1.1/DTD/svg11.dtd"><svg xmlns="http://www.w3.org/2000/svg" version="1.1" width="614" height="156"><path stroke-linejoin="round" stroke-linecap="round" stroke-width="2" stroke="rgb(52, 58, 64)" fill="none" d="M 57 44 c -0.07 0.12 -3.19 4.56 -4 7 c -2.08 6.25 -2.93 13.29 -5 20 c -3.72 12.04 -8.75 23.49 -12 35 c -0.97 3.44 -1 7.35 -1 11 c 0 3.98 1 12 1 12"/><path stroke-linejoin="round" stroke-linecap="round" stroke-width="2" stroke="rgb(52, 58, 64)" fill="none" d="M 1 51 c 0.4 0.11 15.28 4.41 23 6 c 3.59 0.74 7.4 1.2 11 1 c 8.21 -0.46 16.71 -1.62 25 -3 c 3.75 -0.63 7.64 -1.51 11 -3 c 5.41 -2.41 11.2 -5.43 16 -9 c 6.67 -4.95 12.3 -11.93 19 -17 c 5.55 -4.2 11.81 -7.56 18 -11 c 2.89 -1.6 5.88 -2.92 9 -4 c 5.61 -1.94 11.19 -3.55 17 -5 c 3.67 -0.92 7.34 -1.57 11 -2 l 6 0"/><path stroke-linejoin="round" stroke-linecap="round" stroke-width="2" stroke="rgb(52, 58, 64)" fill="none" d="M 84 126 c 0.05 -0.05 2.37 -1.83 3 -3 c 4.09 -7.64 8.59 -16.59 12 -25 c 1.52 -3.75 2.58 -8.26 3 -12 c 0.2 -1.84 -0.29 -5.29 -1 -6 c -0.48 -0.48 -3.16 0.22 -4 1 c -2.91 2.69 -6.86 7.3 -9 11 c -1.24 2.15 -1.86 5.43 -2 8 c -0.17 3.13 0.19 7.37 1 10 c 0.34 1.11 1.88 2.49 3 3 c 2.18 0.99 5.7 2.26 8 2 c 3 -0.33 7.12 -2.16 10 -4 c 5.13 -3.28 9.87 -8.84 15 -12 c 3.13 -1.92 7.47 -3.12 11 -4 c 1.51 -0.38 3.61 -0.42 5 0 c 1.62 0.49 3.98 1.72 5 3 c 1.33 1.67 1.73 5.37 3 7 c 0.75 0.96 2.8 2.08 4 2 c 3.06 -0.2 7.63 -1.8 11 -3 c 1.07 -0.38 2.27 -2.28 3 -2 c 2.47 0.95 7.07 6.75 10 7 c 3.34 0.29 9.14 -2.97 13 -5 c 2.17 -1.14 4.22 -4.29 6 -5 c 0.94 -0.38 3.41 0.29 4 1 c 0.73 0.88 0.21 4.07 1 5 c 0.84 0.98 3.37 1.7 5 2 c 1.82 0.33 4.58 -0.76 6 0 c 2.86 1.52 5.91 6.28 9 8 c 2.36 1.31 6.14 2 9 2 l 14 -2"/><path stroke-linejoin="round" stroke-linecap="round" stroke-width="2" stroke="rgb(52, 58, 64)" fill="none" d="M 290 32 c 0.02 0.79 1.43 29.96 1 45 c -0.24 8.41 -1.73 16.45 -3 25 c -1.13 7.59 -3.28 15.01 -4 22 c -0.23 2.21 1 6.88 1 7 c 0 0.07 -0.96 -2.67 -1 -4 c -0.29 -10.32 -0.36 -21.06 0 -32 c 0.32 -9.6 1.22 -18.33 2 -28 c 0.25 -3.12 -0.07 -6.86 1 -9 c 0.92 -1.85 3.97 -4.61 6 -5 c 3.92 -0.75 10.89 -0.25 15 1 c 2.73 0.83 5.47 3.81 8 6 c 2.5 2.17 4.99 4.49 7 7 c 1.91 2.39 3.81 5.19 5 8 c 2.39 5.65 4.58 17.76 6 18 c 1.28 0.21 3.38 -11.21 6 -16 c 2.86 -5.21 7.53 -11.3 11 -15 c 0.77 -0.82 3.17 -1.28 4 -1 c 0.73 0.24 1.79 1.95 2 3 c 1 4.99 0.86 12.42 2 17 c 0.28 1.13 1.86 2.3 3 3 c 2.99 1.84 8.42 2.76 10 5 c 1.72 2.44 0.61 8.53 2 12 c 1.74 4.35 4.86 11.22 8 13 c 3.09 1.75 10.55 0.47 15 0 c 1.33 -0.14 2.86 -2 4 -2 l 5 2"/><path stroke-linejoin="round" stroke-linecap="round" stroke-width="2" stroke="rgb(52, 58, 64)" fill="none" d="M 402 53 c -0.04 0.05 -1.19 2.33 -2 3 c -1 0.84 -2.88 2.21 -4 2 c -3.25 -0.61 -8.51 -2.75 -12 -5 c -6.5 -4.19 -13.18 -9.43 -19 -15 c -9.53 -9.12 -20.55 -20.64 -27 -29 c -0.98 -1.27 -0.61 -4.78 0 -6 c 0.45 -0.91 2.67 -1.88 4 -2 c 5.35 -0.49 12.12 -0.67 18 0 c 8.65 0.98 17.33 2.76 26 5 c 12.32 3.18 24.28 6.54 36 11 c 9.33 3.55 18.72 7.89 27 13 c 7.08 4.37 14.93 10.09 20 16 c 4.25 4.96 8.96 13.07 10 19 c 1.02 5.86 -0.65 15.47 -3 21 c -1.8 4.24 -6.82 8.84 -11 12 c -10.39 7.85 -22.12 15.23 -34 22 c -12.47 7.1 -24.88 14.06 -38 19 c -17.68 6.66 -37.29 13.33 -55 16 c -11.76 1.77 -26.22 0.21 -38 -2 c -8.62 -1.62 -18.48 -5.85 -26 -10 c -4.39 -2.43 -10.52 -7.71 -12 -11 c -0.86 -1.92 1.51 -6.84 3 -9 l 6 -4"/><path stroke-linejoin="round" stroke-linecap="round" stroke-width="2" stroke="rgb(52, 58, 64)" fill="none" d="M 461 104 c -0.03 0.07 -2 2.79 -2 4 c 0 2.24 2 8 2 8"/><path stroke-linejoin="round" stroke-linecap="round" stroke-width="2" stroke="rgb(52, 58, 64)" fill="none" d="M 484 126 c 0.14 -0.16 5.21 -7.68 8 -9 c 2.54 -1.21 7.75 -0.87 11 0 c 6.09 1.62 12.72 5.74 19 8 c 1.85 0.67 3.99 0.86 6 1 c 2.65 0.19 5.41 0.35 8 0 c 4.63 -0.63 9.52 -1.64 14 -3 c 3.08 -0.94 7.34 -1.8 9 -4 c 6.43 -8.5 13.24 -21.7 19 -33 c 2.92 -5.73 5.36 -11.97 7 -18 c 1.29 -4.72 2.18 -10.42 2 -15 c -0.13 -3.16 -1.41 -8.09 -3 -10 c -1.11 -1.33 -5.92 -2.93 -7 -2 c -2.33 1.99 -5.12 9.2 -7 14 c -1.75 4.46 -3.13 9.31 -4 14 c -0.78 4.2 -1.32 8.89 -1 13 c 0.32 4.21 1.26 9.17 3 13 c 3.04 6.69 7.79 14.39 12 20 c 1.3 1.73 3.93 3.11 6 4 c 2.36 1.01 5.99 2.5 8 2 c 2.44 -0.61 5.98 -3.69 8 -6 c 2.36 -2.69 4.56 -6.55 6 -10 c 1.8 -4.31 2.98 -9.29 4 -14 c 0.64 -2.93 1.39 -6.29 1 -9 c -0.54 -3.78 -2.39 -8.18 -4 -12 c -1.03 -2.44 -2.43 -5.08 -4 -7 c -1.25 -1.53 -4.11 -4.39 -5 -4 c -1.24 0.55 -3.74 5.52 -4 8 c -0.33 3.09 1 7.43 2 11 c 1.33 4.75 2.95 9.55 5 14 l 7 12"/></svg>