<?xml version="1.0" encoding="UTF-8" standalone="no"?><!DOCTYPE svg PUBLIC "-//W3C//DTD SVG 1.1//EN" "http://www.w3.org/Graphics/SVG/1.1/DTD/svg11.dtd"><svg xmlns="http://www.w3.org/2000/svg" version="1.1" width="656" height="163"><path stroke-linejoin="round" stroke-linecap="round" stroke-width="2" stroke="rgb(52, 58, 64)" fill="none" d="M 26 34 c -0.02 0.18 -0.18 6.8 -1 10 c -3.14 12.3 -6.42 25.17 -11 37 c -3.34 8.64 -12.5 23.5 -13 25 c -0.13 0.38 3.99 -3.09 6 -4 c 1.42 -0.65 3.42 -1 5 -1 c 1.88 0 4.09 0.48 6 1 c 1.69 0.46 3.53 1.08 5 2 c 3.72 2.32 7.21 5.55 11 8 c 1.87 1.21 3.99 2.38 6 3 c 2.12 0.65 4.94 1.34 7 1 c 3.41 -0.57 8.14 -2.09 11 -4 c 2.6 -1.73 5 -5.14 7 -8 c 2.62 -3.74 5.29 -7.78 7 -12 c 4.55 -11.25 8.79 -23.23 12 -35 c 1.75 -6.43 2.47 -13.28 3 -20 c 0.47 -5.98 1.25 -12.83 0 -18 c -1.18 -4.88 -4.85 -11.85 -8 -15 c -1.93 -1.93 -7.09 -3.24 -10 -3 c -4.14 0.34 -10.16 2.58 -14 5 c -4.57 2.88 -9.65 7.49 -13 12 c -5.95 8 -12.08 17.98 -16 27 c -2.43 5.58 -3.83 13.03 -4 19 c -0.15 5.3 1.44 11.62 3 17 c 1.38 4.74 3.64 9.68 6 14 l 6 8"/><path stroke-linejoin="round" stroke-linecap="round" stroke-width="2" stroke="rgb(52, 58, 64)" fill="none" d="M 85 121 c 0.11 0.05 4.57 3.33 6 3 c 1.97 -0.45 5.38 -3.67 7 -6 c 3.39 -4.87 6.86 -11.35 9 -17 c 1.36 -3.57 2.2 -9.04 2 -12 c -0.07 -1.03 -2.11 -2.87 -3 -3 c -0.93 -0.13 -2.89 1.14 -4 2 c -1.75 1.36 -3.64 3.19 -5 5 c -1.55 2.07 -2.87 4.57 -4 7 c -1.2 2.57 -2.48 5.4 -3 8 c -0.43 2.13 -0.32 4.79 0 7 c 0.33 2.3 0.66 6.33 2 7 c 2.21 1.11 8.8 0.96 12 0 c 2.67 -0.8 5.61 -3.75 8 -6 c 3.22 -3.03 6.56 -6.33 9 -10 c 6.11 -9.16 11.95 -18.91 17 -29 c 5.38 -10.76 9.81 -21.69 14 -33 c 2.55 -6.89 5.37 -15.98 6 -21 c 0.12 -0.97 -2.49 -3.43 -3 -3 c -2.06 1.74 -6.92 9.11 -10 14 c -2.64 4.2 -5.08 8.51 -7 13 c -2.06 4.81 -3.44 9.8 -5 15 c -1.53 5.1 -3.1 9.96 -4 15 c -0.76 4.23 -1 8.68 -1 13 c 0 3.66 -0.29 8.28 1 11 c 1.32 2.79 5.33 6.28 8 8 c 1.44 0.92 4.25 1.16 6 1 c 1.55 -0.14 3.54 -1.12 5 -2 c 1.74 -1.05 3.79 -2.49 5 -4 c 1.26 -1.58 2.67 -4.18 3 -6 c 0.25 -1.39 -1.25 -4.63 -1 -5 c 0.18 -0.26 2.1 2 3 2 c 1.57 0 4.69 -0.76 6 -2 c 3.7 -3.48 8.04 -9.02 11 -14 c 4.24 -7.13 7.6 -14.98 11 -23 c 5.15 -12.15 13.29 -32.65 14 -36 c 0.14 -0.66 -5.82 1.27 -7 3 c -6.2 9.06 -13 23 -19 35 c -2.43 4.87 -4.22 9.8 -6 15 c -2.3 6.72 -4.49 13.33 -6 20 c -0.8 3.53 -1.19 7.59 -1 11 c 0.12 2.25 1 5.01 2 7 c 0.88 1.75 2.53 4.12 4 5 c 1.4 0.84 4.28 1.26 6 1 c 2.16 -0.33 4.94 -1.73 7 -3 c 2.11 -1.3 4.56 -3.05 6 -5 c 2.97 -4.03 6.25 -9.63 8 -14 c 0.65 -1.63 0.54 -4.38 0 -6 c -0.65 -1.95 -4.11 -5.66 -4 -6 c 0.09 -0.27 3.36 2.84 5 3 c 4.22 0.42 10.84 -1.23 15 -1 c 1 0.06 2.85 1.19 3 2 c 0.37 2.03 -0.32 6.12 -1 9 l -4 12"/><path stroke-linejoin="round" stroke-linecap="round" stroke-width="2" stroke="rgb(52, 58, 64)" fill="none" d="M 225 22 l 1 1"/><path stroke-linejoin="round" stroke-linecap="round" stroke-width="2" stroke="rgb(52, 58, 64)" fill="none" d="M 221 119 c 0.07 0.02 2.85 1.13 4 1 c 1.5 -0.17 3.68 -0.99 5 -2 c 4.01 -3.06 8.69 -7.1 12 -11 c 2.09 -2.46 3.62 -5.9 5 -9 c 1.27 -2.86 2.52 -5.99 3 -9 c 0.81 -5.08 1.23 -11.33 1 -16 c -0.07 -1.3 -1.17 -3.92 -2 -4 c -1.59 -0.16 -5.68 1.68 -8 3 c -2.12 1.21 -4.51 3.1 -6 5 c -1.96 2.5 -4.12 5.92 -5 9 c -1.64 5.75 -3 13.47 -3 19 c 0 2.19 1.59 5.31 3 7 c 1.59 1.91 4.67 4.63 7 5 c 4.89 0.78 18 -1 18 -1"/><path stroke-linejoin="round" stroke-linecap="round" stroke-width="2" stroke="rgb(52, 58, 64)" fill="none" d="M 289 39 c -0.05 0.45 -1.58 17.18 -3 26 c -1.99 12.36 -3.86 24.14 -7 36 c -2.9 10.94 -11 32 -11 32"/><path stroke-linejoin="round" stroke-linecap="round" stroke-width="2" stroke="rgb(52, 58, 64)" fill="none" d="M 253 32 c 0.09 -0.1 3.09 -4.45 5 -6 c 3.19 -2.59 7.12 -5.17 11 -7 c 8.02 -3.79 16.61 -7.58 25 -10 c 6.3 -1.82 13.28 -2.47 20 -3 c 5.98 -0.47 12.18 -0.56 18 0 c 4.31 0.42 9.45 1.54 13 3 c 1.51 0.62 4.19 2.98 4 4 c -0.3 1.66 -3.68 5.31 -6 7 c -4.62 3.36 -10.35 6.43 -16 9 c -21.08 9.61 -43.08 17.59 -63 27 c -3.31 1.57 -9.71 5.82 -9 7 c 1.22 2.03 11.95 6.29 18 8 c 6.52 1.84 13.92 1.65 21 3 c 7.21 1.37 14.32 2.71 21 5 c 5.81 1.99 12.1 4.8 17 8 c 3.32 2.17 7.76 6.05 9 9 c 0.98 2.33 0.3 7.52 -1 10 c -1.92 3.67 -6.26 8.16 -10 11 c -5.52 4.19 -12.35 8.23 -19 11 c -13.12 5.47 -26.82 10.17 -41 14 c -28.59 7.71 -85 20 -85 20"/><path stroke-linejoin="round" stroke-linecap="round" stroke-width="2" stroke="rgb(52, 58, 64)" fill="none" d="M 367 83 c -0.33 0.12 -13.05 4.24 -19 7 c -3.18 1.47 -6.14 3.78 -9 6 c -3.18 2.47 -6.48 5.12 -9 8 c -1.98 2.26 -3.7 5.24 -5 8 c -1.31 2.78 -3.65 7.31 -3 9 c 0.61 1.59 5.69 3.86 8 4 c 2.2 0.14 5.58 -1.71 8 -3 c 2.44 -1.3 4.96 -3.1 7 -5 c 2.53 -2.34 4.84 -5.12 7 -8 c 5.97 -7.97 16.31 -23.43 17 -24 c 0.35 -0.29 -5.51 13.9 -5 14 c 0.56 0.11 6.35 -9 10 -13 c 3.31 -3.63 7.45 -7.56 11 -10 c 1.22 -0.84 3.67 -1.17 5 -1 c 0.94 0.12 2.6 1.13 3 2 c 1.01 2.22 1.71 5.97 2 9 c 0.7 7.25 0.23 15.36 1 22 c 0.16 1.35 1.13 2.99 2 4 c 0.97 1.13 2.78 2.7 4 3 c 1 0.25 3.02 -0.31 4 -1 c 2.01 -1.41 4.23 -3.82 6 -6 c 2.54 -3.13 4.95 -6.48 7 -10 c 2.63 -4.51 5.08 -9.09 7 -14 c 6.51 -16.67 12.45 -32.87 18 -50 c 2.59 -7.97 6 -22.9 6 -24 c 0 -0.44 -4.45 5.18 -6 8 c -2.02 3.67 -3.67 7.83 -5 12 c -3.39 10.66 -6.53 21.2 -9 32 c -1.2 5.24 -1.72 10.59 -2 16 c -0.39 7.38 -0.64 14.98 0 22 c 0.33 3.64 1.44 8.06 3 11 c 1.16 2.19 3.85 4.85 6 6 c 2.33 1.24 6.3 2.14 9 2 c 3.06 -0.16 7.23 -1.41 10 -3 c 3.78 -2.16 7.82 -5.66 11 -9 c 3.67 -3.85 6.94 -8.41 10 -13 c 3.68 -5.52 6.78 -11.06 10 -17 c 3.29 -6.06 6.22 -11.75 9 -18 c 2.66 -5.99 5.15 -11.89 7 -18 c 1.47 -4.84 2.14 -9.83 3 -15 c 0.85 -5.12 3.14 -12.86 2 -15 c -0.75 -1.41 -7.79 -1.1 -10 0 c -2.21 1.1 -4.45 5.18 -6 8 c -2.02 3.67 -3.64 7.83 -5 12 c -3.37 10.36 -6.98 20.92 -9 31 c -0.87 4.37 -0.37 9.4 0 14 c 0.29 3.68 1.06 7.43 2 11 c 0.72 2.73 1.69 5.93 3 8 c 0.77 1.21 2.81 3 4 3 c 2.04 0 5.87 -1.48 8 -3 c 4.42 -3.16 9.02 -7.8 13 -12 c 1.94 -2.04 4.3 -7.44 5 -7 c 1.01 0.63 1.67 8.46 3 12 c 0.54 1.43 1.89 3.2 3 4 c 0.92 0.66 2.85 1.13 4 1 c 1.5 -0.17 3.67 -1.03 5 -2 c 2.09 -1.52 4.38 -3.77 6 -6 c 3.6 -4.96 7.26 -10.39 10 -16 c 4.23 -8.67 7.72 -17.92 11 -27 c 1.04 -2.87 1.58 -6.03 2 -9 c 0.23 -1.61 0.34 -4.89 0 -5 c -0.34 -0.11 -2.3 2.6 -3 4 c -0.89 1.78 -1.6 3.98 -2 6 c -0.58 2.9 -1 6.04 -1 9 c 0 3.28 0.33 6.8 1 10 c 0.64 3.02 1.46 6.56 3 9 c 2.19 3.46 5.98 7.92 9 10 c 1.59 1.09 5.04 1.39 7 1 c 2.48 -0.5 5.57 -2.38 8 -4 c 3.48 -2.32 6.79 -5.1 10 -8 c 3.9 -3.52 7.71 -7.06 11 -11 c 3.34 -4.01 6.17 -8.47 9 -13 c 2.25 -3.59 4.3 -7.23 6 -11 c 1.29 -2.86 3.31 -7.13 3 -9 c -0.19 -1.15 -3.84 -3.23 -5 -3 c -1.4 0.28 -4.32 3.2 -5 5 c -1.06 2.82 -1.48 7.8 -1 11 c 0.43 2.86 2.19 6.55 4 9 c 2.59 3.52 6.43 6.94 10 10 c 3.43 2.94 7.11 5.66 11 8 c 6.15 3.69 12.74 7 19 10 c 1.2 0.58 4.1 1.06 4 1 c -0.34 -0.23 -8.5 -5.17 -13 -7 c -6.07 -2.47 -12.41 -4.18 -19 -6 c -9.55 -2.64 -18.41 -5.4 -28 -7 c -20.78 -3.46 -40.73 -6 -62 -8 l -55 -3"/><path stroke-linejoin="round" stroke-linecap="round" stroke-width="2" stroke="rgb(52, 58, 64)" fill="none" d="M 438 55 c -0.94 0.23 -35.49 8.2 -54 13 c -9.38 2.43 -27 8 -27 8"/></svg>