<?xml version="1.0" encoding="UTF-8" standalone="no"?><!DOCTYPE svg PUBLIC "-//W3C//DTD SVG 1.1//EN" "http://www.w3.org/Graphics/SVG/1.1/DTD/svg11.dtd"><svg xmlns="http://www.w3.org/2000/svg" version="1.1" width="417" height="69"><path stroke-linejoin="round" stroke-linecap="round" stroke-width="2" stroke="rgb(52, 58, 64)" fill="none" d="M 1 30 c 0.05 -0.07 2.21 -3.87 3 -4 c 0.67 -0.11 2.61 1.84 3 3 c 1.97 5.91 2.92 14.31 5 21 c 0.86 2.77 2.31 5.85 4 8 c 1.74 2.22 4.53 4.61 7 6 c 2.54 1.43 6.32 3.12 9 3 c 4.12 -0.18 9.32 -2.39 14 -4 c 6.2 -2.13 12.51 -3.82 18 -7 c 23.52 -13.63 60.81 -39.73 70 -44 c 1.23 -0.57 1.17 7.52 1 11 c -0.15 2.91 -1.67 6.02 -2 9 c -0.32 2.91 -0.51 6.3 0 9 c 0.43 2.28 1.59 5.31 3 7 c 1.59 1.91 4.58 4.15 7 5 c 3.7 1.29 8.71 1.85 13 2 c 5.22 0.18 10.7 -0.24 16 -1 c 6.42 -0.92 12.91 -2.08 19 -4 c 6.46 -2.04 12.58 -5.04 19 -8 c 6.96 -3.21 13.53 -6.1 20 -10 c 16.53 -9.97 33.82 -22.86 48 -31 c 1.49 -0.85 4.89 -0.69 6 0 c 0.99 0.62 1.78 3.36 2 5 c 0.41 3.05 0.3 6.7 0 10 c -0.37 4.02 -1.69 7.98 -2 12 c -0.36 4.63 -0.34 9.35 0 14 c 0.32 4.37 0.51 9.53 2 13 c 1.2 2.8 4.38 6.2 7 8 c 3.21 2.2 8.35 5.23 12 5 c 10.37 -0.65 24.49 -3.96 36 -8 c 25.32 -8.9 75 -31 75 -31"/></svg>