<?xml version="1.0" encoding="UTF-8" standalone="no"?><!DOCTYPE svg PUBLIC "-//W3C//DTD SVG 1.1//EN" "http://www.w3.org/Graphics/SVG/1.1/DTD/svg11.dtd"><svg xmlns="http://www.w3.org/2000/svg" version="1.1" width="600" height="115"><path stroke-linejoin="round" stroke-linecap="round" stroke-width="2" stroke="rgb(52, 58, 64)" fill="none" d="M 1 114 c 0.11 -0.16 4.52 -5.79 6 -9 c 4.43 -9.59 7.51 -19.9 12 -30 c 5.1 -11.46 11.47 -21.9 16 -33 c 2.04 -4.99 2.33 -11.24 4 -16 c 0.5 -1.44 2.27 -4.1 3 -4 c 0.93 0.13 3.18 3.19 4 5 c 2.02 4.48 2.63 10.74 5 15 c 2.34 4.21 6.42 10.06 10 12 c 3.21 1.74 9.55 1.19 14 1 c 2.93 -0.13 6.5 -0.66 9 -2 c 6.24 -3.34 13.26 -8.22 19 -13 c 4.06 -3.38 7.98 -7.68 11 -12 c 3.82 -5.46 6.35 -12.2 10 -18 c 2.02 -3.21 6.64 -9.85 7 -9 c 0.96 2.24 1.66 19.71 2 30 c 0.35 10.61 0.61 20.68 0 31 c -0.4 6.73 -1.55 13.97 -3 20 c -0.42 1.74 -1.69 4.01 -3 5 c -2.22 1.67 -6.15 3.91 -9 4 c -7 0.21 -15.9 -1.5 -24 -3 c -19.52 -3.61 -38.32 -7.1 -57 -12 c -7.92 -2.08 -20.75 -9.12 -23 -9 c -0.98 0.05 2.04 7.52 4 10 c 2.59 3.28 7.07 6.34 11 9 c 6.45 4.37 13.04 8.52 20 12 c 7.76 3.88 15.82 7.14 24 10 l 16 4"/><path stroke-linejoin="round" stroke-linecap="round" stroke-width="2" stroke="rgb(52, 58, 64)" fill="none" d="M 173 49 c -0.14 0.4 -5.97 15.66 -8 23 c -0.5 1.81 -0.29 4.11 0 6 c 0.35 2.3 1.28 6.28 2 7 c 0.36 0.36 2.2 -1.2 3 -2 c 1.1 -1.1 1.83 -2.96 3 -4 c 1.68 -1.5 3.88 -2.94 6 -4 c 3.82 -1.91 8.63 -4.64 12 -5 c 1.98 -0.21 6.04 1.63 7 3 c 0.88 1.26 -0.49 5.03 0 7 c 0.41 1.64 1.83 4.82 3 5 c 2.09 0.32 6.86 -1.68 10 -3 c 3.09 -1.3 5.87 -3.58 9 -5 c 4.24 -1.93 9.1 -4.13 13 -5 c 1.43 -0.32 4.09 0.09 5 1 c 1.85 1.85 3.2 6.53 5 9 c 0.63 0.87 1.96 1.84 3 2 c 4.62 0.73 11.09 1.39 16 1 c 2.91 -0.23 6.31 -2.59 9 -3 c 1.17 -0.18 2.78 1 4 1 c 1.22 0 3.12 -1.47 4 -1 c 2.56 1.38 6.44 5.1 9 8 c 2.3 2.61 4.79 6.17 6 9 c 0.56 1.31 0.81 4.06 0 5 c -2.66 3.07 -11.7 9.57 -13 10 c -0.48 0.16 0.26 -4.24 1 -6 c 1.8 -4.26 4.35 -8.85 7 -13 c 2.7 -4.21 5.95 -8.72 9 -12 c 0.91 -0.98 2.77 -1.86 4 -2 c 1.4 -0.16 3.81 1.3 5 1 c 0.99 -0.25 1.89 -2.63 3 -3 c 2.36 -0.79 6.33 -1.19 9 -1 c 1.59 0.11 3.75 1.07 5 2 c 1.16 0.87 1.8 3.02 3 4 c 2.26 1.85 5.21 3.52 8 5 l 9 4"/><path stroke-linejoin="round" stroke-linecap="round" stroke-width="2" stroke="rgb(52, 58, 64)" fill="none" d="M 427 65 c -0.07 0.16 -2.98 5.94 -4 9 c -0.96 2.87 -0.81 6.48 -2 9 c -1.29 2.74 -4.25 5.17 -6 8 c -2.59 4.18 -4.52 9.02 -7 13 c -0.71 1.14 -2.77 3.11 -3 3 c -0.22 -0.11 0.92 -2.67 1 -4 c 0.24 -3.86 -0.33 -8.03 0 -12 c 0.34 -4.02 0.93 -8.16 2 -12 c 1.23 -4.39 3.14 -8.6 5 -13 c 1.91 -4.52 3.5 -9.02 6 -13 c 4.75 -7.56 10.52 -16.92 16 -22 c 2.3 -2.13 7.49 -2.67 11 -3 c 3.09 -0.29 6.94 0.2 10 1 c 3 0.79 6.9 2.22 9 4 c 1.72 1.46 3.35 4.74 4 7 c 0.56 1.97 0.3 4.76 0 7 c -0.35 2.64 -0.63 6.1 -2 8 c -2.48 3.43 -7.02 7.01 -11 10 c -9.44 7.08 -29 20 -29 20"/><path stroke-linejoin="round" stroke-linecap="round" stroke-width="2" stroke="rgb(52, 58, 64)" fill="none" d="M 486 80 c -0.02 0.07 -1.62 3.48 -1 4 c 2.15 1.8 8.84 3.67 13 6 c 4.19 2.34 12 8 12 8"/><path stroke-linejoin="round" stroke-linecap="round" stroke-width="2" stroke="rgb(52, 58, 64)" fill="none" d="M 585 55 l -9 13"/><path stroke-linejoin="round" stroke-linecap="round" stroke-width="2" stroke="rgb(52, 58, 64)" fill="none" d="M 528 89 l 1 1"/><path stroke-linejoin="round" stroke-linecap="round" stroke-width="2" stroke="rgb(52, 58, 64)" fill="none" d="M 598 99 c -0.02 0.1 -1.18 4.39 -1 6 c 0.11 0.95 2 3 2 3"/></svg>