<?xml version="1.0" encoding="UTF-8" standalone="no"?><!DOCTYPE svg PUBLIC "-//W3C//DTD SVG 1.1//EN" "http://www.w3.org/Graphics/SVG/1.1/DTD/svg11.dtd"><svg xmlns="http://www.w3.org/2000/svg" version="1.1" width="618" height="113"><path stroke-linejoin="round" stroke-linecap="round" stroke-width="2" stroke="rgb(52, 58, 64)" fill="none" d="M 135 2 c -0.28 0.02 -10.91 0.05 -16 1 c -5.33 1 -10.67 3.02 -16 5 c -6.56 2.44 -13 5 -19 8 c -2.5 1.25 -4.53 3.55 -7 5 c -3.2 1.89 -7.09 2.83 -10 5 c -9.81 7.29 -20.91 16.43 -29 24 c -1.16 1.08 -2.27 4.05 -2 5 c 0.23 0.79 2.68 1.78 4 2 c 2.35 0.39 5.41 -0.3 8 0 c 2.98 0.35 6.33 0.88 9 2 c 3.38 1.42 7.61 3.81 10 6 c 1.1 1.01 2 3.57 2 5 c 0 1.43 -1.11 3.76 -2 5 c -0.59 0.83 -1.92 1.67 -3 2 c -7.11 2.19 -15.44 3.43 -23 6 c -10.28 3.49 -19.95 8.48 -30 12 l -10 2"/><path stroke-linejoin="round" stroke-linecap="round" stroke-width="2" stroke="rgb(52, 58, 64)" fill="none" d="M 134 42 c -0.14 0.16 -5.16 6.37 -8 9 c -1.7 1.58 -5.73 4 -6 4 c -0.19 0 1.9 -2.9 3 -4 c 0.8 -0.8 1.97 -1.61 3 -2 c 1.46 -0.55 3.47 -1 5 -1 c 1.24 0 3.08 0.39 4 1 c 0.8 0.54 1.14 2.57 2 3 c 1.98 0.99 5.53 2.18 8 2 c 6.12 -0.44 13.64 -2.15 20 -4 c 3.77 -1.09 7.22 -3.74 11 -5 c 5.16 -1.72 15.72 -3.94 16 -4 c 0.11 -0.02 -4.24 1.05 -6 2 c -2.4 1.29 -4.98 3.18 -7 5 c -1.17 1.06 -2.7 2.78 -3 4 c -0.25 1 0.29 4.06 1 4 c 3.92 -0.34 15.07 -3.38 22 -6 c 5.17 -1.96 10.61 -6.46 15 -8 c 1.32 -0.46 4.46 0.32 5 1 l -1 4"/><path stroke-linejoin="round" stroke-linecap="round" stroke-width="2" stroke="rgb(52, 58, 64)" fill="none" d="M 144 1 c -0.28 0.75 -11.22 28.41 -16 43 c -1.92 5.86 -2.97 12.08 -4 18 c -0.28 1.6 -0.23 4.77 0 5 c 0.17 0.17 1.19 -2.33 2 -3 c 1 -0.84 2.77 -1.86 4 -2 c 1.4 -0.16 3.39 0.52 5 1 c 1.7 0.51 3.77 0.96 5 2 c 2.74 2.32 6.01 5.72 8 9 c 3.47 5.72 6.28 12.58 9 19 c 0.94 2.22 1.63 4.64 2 7 c 0.62 3.9 1 12 1 12"/><path stroke-linejoin="round" stroke-linecap="round" stroke-width="2" stroke="rgb(52, 58, 64)" fill="none" d="M 230 42 c -0.09 -0.03 -3.62 -2 -5 -2 c -1.14 0 -2.72 1.21 -4 2 c -5.81 3.6 -11.34 7.04 -17 11 c -4.58 3.21 -9.42 6.11 -13 10 c -7.77 8.44 -20.5 25.63 -22 28 c -0.21 0.34 3.58 -0.35 5 -1 c 2.01 -0.91 4.14 -2.47 6 -4 c 3.82 -3.15 7.65 -6.32 11 -10 c 7.04 -7.72 14.92 -19.13 20 -24 c 0.67 -0.64 3.52 0.2 4 1 c 1.08 1.79 1.1 6.3 2 9 c 0.35 1.06 1.35 3.22 2 3 c 5.02 -1.67 18.87 -9.81 25 -12 c 0.8 -0.28 1.96 1.65 3 2 c 1.75 0.58 4.21 1.15 6 1 c 1.86 -0.16 4.89 -2.56 6 -2 c 1.42 0.71 2.52 5.85 4 7 c 0.92 0.71 3.62 -0.34 5 0 c 1 0.25 2.32 1.15 3 2 c 1.78 2.23 3.11 5.59 5 8 c 1.7 2.17 3.91 4.48 6 6 c 1.33 0.97 3.32 1.81 5 2 c 9.72 1.08 31 2 31 2"/><path stroke-linejoin="round" stroke-linecap="round" stroke-width="2" stroke="rgb(52, 58, 64)" fill="none" d="M 375 5 c -0.03 0.07 -1.64 2.6 -2 4 c -2.88 11.25 -6.51 25.3 -8 35 c -0.19 1.21 1.16 3 2 4 c 0.67 0.81 2.5 2.43 3 2 c 2.48 -2.13 7.31 -9.78 11 -14 c 0.75 -0.85 2.57 -2.36 3 -2 c 0.9 0.75 1.68 5.18 3 7 c 1.11 1.53 3.3 3.15 5 4 c 1.35 0.68 3.51 1.27 5 1 c 5.16 -0.94 11.97 -2.94 17 -5 c 1.82 -0.74 3.54 -2.54 5 -4 c 1.14 -1.14 2.82 -4.39 3 -4 c 0.54 1.19 0.91 11.29 2 15 c 0.26 0.88 1.95 1.47 3 2 c 1.57 0.79 3.32 1.7 5 2 c 3.76 0.66 8.3 1.34 12 1 c 3.21 -0.29 6.75 -2.35 10 -3 c 1.56 -0.31 3.54 -0.32 5 0 c 1.3 0.29 3.66 0.98 4 2 c 1.23 3.68 0.87 11.24 2 16 c 0.41 1.72 1.69 4.44 3 5 c 2.49 1.07 7.82 1.74 11 1 c 5.93 -1.38 15.81 -7.36 19 -8 c 0.64 -0.13 1 2.76 1 4 c 0 1.53 -1.09 3.42 -1 5 c 0.22 3.76 1.05 8.44 2 12 c 0.28 1.06 1.21 3 2 3 c 3.34 0 10.31 -1.57 15 -3 c 2.74 -0.83 5.53 -2.39 8 -4 c 4.15 -2.7 8.15 -5.79 12 -9 c 2.18 -1.82 4.24 -5.36 6 -6 c 1.11 -0.41 3.36 1.75 5 2 c 2.43 0.37 5.39 0.29 8 0 c 3.32 -0.37 6.76 -1 10 -2 c 5.42 -1.67 10.56 -4.26 16 -6 c 2.94 -0.94 6.98 -2.34 9 -2 c 1.1 0.18 2.32 2.63 3 4 c 0.56 1.13 0.47 2.81 1 4 c 0.75 1.69 1.66 3.79 3 5 l 19 15"/></svg>