<?xml version="1.0" encoding="UTF-8" standalone="no"?><!DOCTYPE svg PUBLIC "-//W3C//DTD SVG 1.1//EN" "http://www.w3.org/Graphics/SVG/1.1/DTD/svg11.dtd"><svg xmlns="http://www.w3.org/2000/svg" version="1.1" width="416" height="88"><path stroke-linejoin="round" stroke-linecap="round" stroke-width="2" stroke="rgb(52, 58, 64)" fill="none" d="M 29 25 c 0.04 0.19 1.08 7.33 2 11 c 1.45 5.81 2.72 11.78 5 17 c 2.26 5.16 5.56 10.65 9 15 c 2.65 3.34 6.73 6.96 10 9 c 1.48 0.92 4.54 1.58 6 1 c 2.73 -1.09 7.03 -4.49 9 -7 c 1.26 -1.6 1.01 -4.89 2 -7 c 1.59 -3.39 5.21 -6.85 6 -10 c 0.68 -2.72 -0.21 -6.85 -1 -10 c -1.16 -4.66 -2.93 -9.55 -5 -14 c -2.24 -4.83 -4.74 -10.42 -8 -14 c -3.2 -3.51 -8.5 -6.48 -13 -9 c -3.7 -2.07 -8.02 -4.12 -12 -5 c -4.6 -1.02 -9.93 -1 -15 -1 c -7.09 0 -15.91 0.11 -21 1 c -0.87 0.15 -2.43 2.84 -2 3 c 2.19 0.82 11.94 1.71 18 3 c 5.15 1.09 9.95 3.33 15 4 c 9.79 1.3 19.85 1.81 30 2 c 7.77 0.15 16.51 -1.98 23 -1 c 3.29 0.5 6.93 3.65 10 6 c 6.91 5.3 13.04 11.43 20 17 c 3.24 2.59 9.18 4.69 10 7 c 0.72 2.04 -3.4 6.98 -4 10 c -0.29 1.43 0.07 4.75 1 5 c 2.56 0.68 10.7 -1.58 14 -1 c 1.18 0.21 2.45 2.62 3 4 c 0.67 1.68 0.26 4.38 1 6 c 0.78 1.71 2.51 3.68 4 5 c 1.35 1.2 3.26 2.3 5 3 c 3.12 1.25 6.75 2.35 10 3 l 5 0"/><path stroke-linejoin="round" stroke-linecap="round" stroke-width="2" stroke="rgb(52, 58, 64)" fill="none" d="M 215 64 c -0.28 0.26 -11.53 9.86 -16 15 c -1.82 2.1 -4 8 -4 8"/><path stroke-linejoin="round" stroke-linecap="round" stroke-width="2" stroke="rgb(52, 58, 64)" fill="none" d="M 250 60 l -5 -1"/><path stroke-linejoin="round" stroke-linecap="round" stroke-width="2" stroke="rgb(52, 58, 64)" fill="none" d="M 129 51 c 0.42 -0.12 15.76 -5.15 24 -7 c 11.38 -2.55 22.36 -3.61 34 -6 c 13.49 -2.77 25.52 -6.3 39 -9 c 14.01 -2.8 27.32 -3.98 41 -7 c 9.26 -2.04 17.8 -4.99 27 -8 c 8.68 -2.84 23.61 -10.5 25 -9 c 1.34 1.45 -7.93 15.24 -13 22 c -8.87 11.83 -19 23.23 -29 34 c -2.87 3.09 -9.64 7.37 -10 8 c -0.17 0.3 4.19 -0.27 6 -1 c 10.12 -4.1 20.32 -10.3 31 -14 c 14.32 -4.97 30.97 -9.01 44 -12 c 1.18 -0.27 3.92 0.36 4 1 c 0.15 1.19 -3.71 6.19 -3 7 c 0.93 1.07 6.77 1.14 10 1 c 4.23 -0.18 10.07 -2.2 13 -2 c 0.8 0.05 1.61 1.97 2 3 c 0.55 1.46 -0.07 4.45 1 5 c 7.2 3.71 23.56 7.14 32 12 l 8 11"/></svg>