<?xml version="1.0" encoding="UTF-8" standalone="no"?><!DOCTYPE svg PUBLIC "-//W3C//DTD SVG 1.1//EN" "http://www.w3.org/Graphics/SVG/1.1/DTD/svg11.dtd"><svg xmlns="http://www.w3.org/2000/svg" version="1.1" width="469" height="112"><path stroke-linejoin="round" stroke-linecap="round" stroke-width="2" stroke="rgb(52, 58, 64)" fill="none" d="M 1 38 c 0.3 -0.24 11.36 -11.51 17 -14 c 4.36 -1.92 12.04 -1.99 17 -1 c 5.73 1.15 13.11 4.19 18 8 c 16.71 13.02 33.02 29.27 50 45 c 6.43 5.95 11.23 17.41 18 18 c 92.37 8.1 318.19 13.08 347 14 c 0.35 0.01 -2.11 -3.17 -3 -3 c -3.02 0.57 -8.83 6.12 -13 6 c -27.79 -0.77 -71.82 -1.27 -95 -9 c -9.04 -3.01 -15.28 -19.49 -22 -30 c -6.39 -9.99 -12.01 -20.39 -17 -31 c -2.99 -6.36 -4.12 -13.59 -7 -20 c -3.1 -6.9 -6.71 -20.75 -11 -20 c -21.9 3.83 -72.14 28.79 -109 41 c -13.6 4.5 -27.77 6.63 -42 9 c -7.98 1.33 -15.81 1.5 -24 2 c -3.06 0.19 -6.35 0.41 -9 0 c -1.32 -0.2 -2.73 -2.05 -4 -2 c -6.88 0.25 -15.89 1.62 -24 3 c -7.89 1.34 -20.57 6.79 -23 5 c -2 -1.47 2.24 -12.65 4 -19 c 3.33 -11.99 5.98 -31.52 11 -35 c 3.68 -2.56 16.45 7.49 25 10 c 10.71 3.14 21.62 5.32 33 7 c 37.07 5.48 71.53 9.69 109 14 c 10.25 1.18 19.95 0.82 30 2 c 7.14 0.84 13.95 3.71 21 4 c 33.32 1.37 70.71 2.57 101 1 c 4.96 -0.26 11.09 -4.39 15 -7 l 3 -5"/></svg>