<?xml version="1.0" encoding="UTF-8" standalone="no"?><!DOCTYPE svg PUBLIC "-//W3C//DTD SVG 1.1//EN" "http://www.w3.org/Graphics/SVG/1.1/DTD/svg11.dtd"><svg xmlns="http://www.w3.org/2000/svg" version="1.1" width="463" height="294"><path stroke-linejoin="round" stroke-linecap="round" stroke-width="2" stroke="rgb(52, 58, 64)" fill="none" d="M 189 11 l 1 1"/><path stroke-linejoin="round" stroke-linecap="round" stroke-width="2" stroke="rgb(52, 58, 64)" fill="none" d="M 153 18 c -0.37 -0.05 -14.23 -1.6 -21 -3 c -2.73 -0.56 -5.73 -1.76 -8 -3 c -1.13 -0.61 -2.39 -1.89 -3 -3 c -0.92 -1.65 -1.67 -4.04 -2 -6 c -0.31 -1.86 -0.35 -4.09 0 -6 c 0.95 -5.24 3.07 -10.62 4 -16 c 0.73 -4.26 0.27 -8.81 1 -13 c 0.58 -3.35 2.27 -6.54 3 -10 c 3.68 -17.55 6.32 -34.03 10 -52 c 2.21 -10.79 4.14 -20.62 7 -31 c 2.56 -9.3 9 -27 9 -27"/><path stroke-linejoin="round" stroke-linecap="round" stroke-width="2" stroke="rgb(52, 58, 64)" fill="none" d="M 58 140 c -0.07 -0.11 -3.29 -3.88 -4 -6 c -2.12 -6.36 -3.54 -13.71 -5 -21 c -3.36 -16.81 -5.3 -32.97 -9 -49 c -1.27 -5.5 -3.77 -10.6 -6 -16 c -1.87 -4.52 -3.6 -9.05 -6 -13 c -2.15 -3.53 -4.97 -7.4 -8 -10 c -3.61 -3.1 -9.59 -6.8 -13 -8 c -1 -0.35 -3.12 1.12 -4 2 c -0.88 0.88 -2.14 2.82 -2 4 c 0.42 3.58 1.88 9.17 4 13 c 9.52 17.19 22.36 34.93 32 52 c 1.65 2.92 2.65 6.85 3 10 c 0.27 2.43 -0.12 5.79 -1 8 c -0.94 2.35 -3.12 4.96 -5 7 c -2.02 2.19 -4.47 4.35 -7 6 c -5.05 3.29 -16.26 9.19 -16 9 c 0.62 -0.47 24.86 -16.05 37 -25 c 7.14 -5.26 17.98 -17 20 -17 c 1.33 0 -2.53 11.63 -3 17 c -0.16 1.89 0.24 4.47 1 6 c 0.71 1.42 2.56 3.04 4 4 c 1.37 0.91 3.45 1.86 5 2 c 1.75 0.16 4.24 -0.32 6 -1 c 2.34 -0.9 5.08 -2.4 7 -4 c 1.86 -1.55 3.99 -3.86 5 -6 c 1.47 -3.12 2.62 -7.55 3 -11 c 0.24 -2.14 -1.07 -7.1 -1 -7 c 0.1 0.15 1.71 6.87 3 10 c 1 2.42 2.45 4.79 4 7 c 3.15 4.5 6.52 9.52 10 13 c 1.42 1.42 3.92 2.05 6 3 c 1.67 0.76 3.54 2 5 2 c 1.72 0 4.54 -0.88 6 -2 c 2.45 -1.89 5.14 -5.13 7 -8 c 2.35 -3.62 3.78 -8.22 6 -12 c 1.06 -1.8 2.58 -3.37 4 -5 c 0.94 -1.08 1.93 -2.39 3 -3 c 1.04 -0.59 3.17 -1.36 4 -1 c 1.01 0.43 2.9 2.73 3 4 c 0.18 2.33 -1.01 6.19 -2 9 l -4 8"/><path stroke-linejoin="round" stroke-linecap="round" stroke-width="2" stroke="rgb(52, 58, 64)" fill="none" d="M 181 90 c 0.02 -0.12 1 -4.75 1 -7 c 0 -2.25 -0.32 -4.95 -1 -7 c -0.56 -1.69 -1.96 -4.77 -3 -5 c -1.2 -0.27 -5.23 1.55 -6 3 c -1.4 2.63 -1.8 8.16 -2 12 c -0.12 2.23 0.35 4.88 1 7 c 0.62 2.01 1.67 4.53 3 6 c 1.71 1.88 4.95 4.25 7 5 c 0.98 0.36 3.08 -0.34 4 -1 c 1.11 -0.8 2.06 -2.59 3 -4 c 1.09 -1.64 2.35 -3.26 3 -5 c 1.28 -3.41 2.29 -10.41 3 -11 c 0.42 -0.35 1.79 4.27 3 6 c 1.02 1.46 2.56 3.04 4 4 c 1.37 0.91 3.4 1.9 5 2 c 3.28 0.2 7.86 -0.01 11 -1 c 2.68 -0.85 6.6 -5.14 8 -5 l 2 6"/><path stroke-linejoin="round" stroke-linecap="round" stroke-width="2" stroke="rgb(52, 58, 64)" fill="none" d="M 259 139 c 0.16 -0.23 6.48 -8.5 9 -13 c 2.07 -3.7 3.46 -7.83 5 -12 c 1.88 -5.07 3.54 -9.83 5 -15 c 1.61 -5.71 2.94 -11.19 4 -17 c 0.98 -5.36 1.64 -10.59 2 -16 c 0.31 -4.7 0.53 -9.55 0 -14 c -0.44 -3.63 -1.47 -7.93 -3 -11 c -1.24 -2.48 -3.83 -5.01 -6 -7 c -1.7 -1.56 -4.05 -3.35 -6 -4 c -1.62 -0.54 -4.68 -0.77 -6 0 c -2.02 1.18 -5.07 4.68 -6 7 c -0.81 2.01 -0.42 5.49 0 8 c 0.54 3.27 1.49 6.98 3 10 c 4.02 8.04 8.99 16.03 14 24 c 2.45 3.9 5.55 7.15 8 11 c 2.26 3.55 4.3 7.23 6 11 c 1.29 2.86 2.51 6.06 3 9 c 0.46 2.79 1.14 7.06 0 9 c -1.62 2.76 -6.56 5.77 -10 8 c -2.05 1.32 -5.01 2.83 -7 3 c -1.41 0.12 -5.27 -1.35 -5 -2 c 0.71 -1.7 6.81 -6.45 10 -10 c 2.89 -3.21 5.48 -6.48 8 -10 c 2.56 -3.59 5.18 -7.2 7 -11 c 1.76 -3.68 2.98 -7.92 4 -12 c 0.98 -3.92 1.84 -8.08 2 -12 c 0.16 -3.88 0.2 -8.53 -1 -12 c -1.91 -5.55 -7.58 -15.19 -9 -17 c -0.27 -0.34 -1.91 2.03 -2 3 c -0.2 2.17 0.29 5.42 1 8 c 5.26 19.01 10.78 38.34 17 57 c 1.4 4.21 3.76 8.08 6 12 c 1.8 3.16 3.84 6.19 6 9 c 1.13 1.47 2.68 3.6 4 4 c 1.42 0.43 4.71 -0.1 6 -1 c 1.53 -1.07 3.21 -3.87 4 -6 c 2.39 -6.46 4.2 -13.82 6 -21 c 0.92 -3.68 1.71 -7.32 2 -11 c 0.37 -4.6 -0.13 -14.21 0 -14 c 0.17 0.29 1.22 13.47 3 19 c 1 3.11 3.7 6.3 6 9 c 3.3 3.89 7.16 7.97 11 11 c 2.21 1.74 5.41 3.35 8 4 c 2.32 0.58 5.67 0.5 8 0 c 1.96 -0.42 4.53 -1.67 6 -3 c 1.88 -1.71 3.46 -4.54 5 -7 c 1.84 -2.95 4.05 -5.92 5 -9 c 1.59 -5.16 2.52 -11.7 3 -17 c 0.14 -1.57 -0.64 -4.88 -1 -5 c -0.31 -0.1 -1.89 2.74 -2 4 c -0.18 1.99 0.3 4.89 1 7 c 0.89 2.67 2.44 5.5 4 8 c 1.75 2.8 3.75 5.75 6 8 c 2.25 2.25 5.22 4.68 8 6 c 3.17 1.5 7.48 2.68 11 3 c 3.41 0.31 7.62 -0.12 11 -1 c 3.98 -1.04 8.94 -2.71 12 -5 c 3.01 -2.26 5.76 -6.47 8 -10 c 2.35 -3.7 4.59 -7.92 6 -12 c 1.51 -4.35 2.66 -9.46 3 -14 c 0.31 -4.13 -0.15 -8.92 -1 -13 c -0.76 -3.66 -1.91 -8.39 -4 -11 c -2.68 -3.34 -8.08 -7.04 -12 -9 c -2.11 -1.05 -5.67 -1.31 -8 -1 c -2.2 0.29 -5.18 1.68 -7 3 c -1.53 1.11 -3.34 3.27 -4 5 c -0.84 2.17 -1.28 5.45 -1 8 c 1.32 11.86 4.97 25.94 6 37 c 0.17 1.87 -0.93 4.45 -2 6 l -7 7"/><path stroke-linejoin="round" stroke-linecap="round" stroke-width="2" stroke="rgb(52, 58, 64)" fill="none" d="M 240 107 c 1.1 -0.05 41.27 -2.47 63 -3 c 20.68 -0.5 39.35 0.26 60 0 c 6.55 -0.08 19 -1 19 -1"/></svg>