<?xml version="1.0" encoding="UTF-8" standalone="no"?><!DOCTYPE svg PUBLIC "-//W3C//DTD SVG 1.1//EN" "http://www.w3.org/Graphics/SVG/1.1/DTD/svg11.dtd"><svg xmlns="http://www.w3.org/2000/svg" version="1.1" width="454" height="203"><path stroke-linejoin="round" stroke-linecap="round" stroke-width="2" stroke="rgb(52, 58, 64)" fill="none" d="M 453 50 c -0.1 -0.19 -4.77 -7.3 -6 -11 c -1.3 -3.89 -2 -9.03 -2 -13 c 0 -2.2 1.58 -4.6 2 -7 c 1.59 -9.01 3.21 -17.93 4 -27 c 0.55 -6.31 0 -19 0 -19"/><path stroke-linejoin="round" stroke-linecap="round" stroke-width="2" stroke="rgb(52, 58, 64)" fill="none" d="M 1 94 c 0 0.1 -0.47 4.18 0 6 c 1.75 6.73 4.93 13.76 7 21 c 2.02 7.06 4.89 18.9 5 21 c 0.02 0.43 -3.88 -1.39 -4 -2 c -0.12 -0.58 1.99 -2.78 3 -3 c 1.45 -0.32 4.11 1.16 6 1 c 5.37 -0.47 11.55 -2.56 17 -3 c 2.55 -0.2 5.5 1.24 8 1 c 4.13 -0.39 8.9 -1.63 13 -3 c 2.75 -0.92 6.83 -2.66 8 -4 c 0.54 -0.62 -1 -2.78 -1 -4 c 0 -1.22 1.27 -2.86 1 -4 c -1.19 -5 -3.29 -12.31 -6 -17 c -1.91 -3.31 -5.88 -6.5 -9 -9 c -1.65 -1.32 -3.98 -2.27 -6 -3 c -1.54 -0.56 -3.33 -0.85 -5 -1 c -1.96 -0.18 -4.18 -0.33 -6 0 c -1.63 0.3 -3.54 1.12 -5 2 c -1.74 1.05 -3.67 2.45 -5 4 c -2.53 2.95 -5.86 6.75 -7 10 c -0.93 2.66 -0.98 7.27 0 10 c 1.72 4.77 5.72 10.41 9 15 c 1.59 2.23 3.77 4.41 6 6 c 4.59 3.28 9.94 6.97 15 9 c 4.43 1.77 10.53 3.17 15 3 c 3.69 -0.14 8.45 -2.22 12 -4 c 2.81 -1.4 6.51 -3.63 8 -6 c 2.03 -3.22 3.16 -8.78 4 -13 c 0.43 -2.17 -0.39 -6.34 0 -7 c 0.2 -0.34 2.39 1.12 3 2 c 2.11 3.05 3.77 7.55 6 11 c 1.39 2.15 3.17 4.08 5 6 c 5.31 5.56 11.4 13.32 16 16 c 1.68 0.98 6.9 -1.06 8 -2 c 0.55 -0.47 -1.15 -2.95 -1 -4 c 0.13 -0.92 1.21 -2.82 2 -3 c 1.55 -0.34 4.71 0.43 7 1 c 5.74 1.44 11.2 3.75 17 5 c 6.62 1.43 13.72 2.5 20 3 c 1.58 0.13 3.7 -0.35 5 -1 c 1.08 -0.54 2.65 -1.94 3 -3 c 0.5 -1.49 0.33 -4.18 0 -6 c -0.3 -1.63 -1.06 -3.55 -2 -5 c -3.26 -5.02 -6.78 -11.08 -11 -15 c -4.59 -4.26 -11.2 -7.89 -17 -11 c -3.35 -1.8 -7.27 -3.03 -11 -4 c -3.88 -1.01 -8.16 -2.19 -12 -2 l -29 4"/><path stroke-linejoin="round" stroke-linecap="round" stroke-width="2" stroke="rgb(52, 58, 64)" fill="none" d="M 222 138 c -0.07 -0.02 -2.77 -1.09 -4 -1 c -2.74 0.21 -6.13 1.04 -9 2 c -3.06 1.02 -6.41 2.4 -9 4 c -1.49 0.92 -2.9 2.53 -4 4 c -1.84 2.45 -3.67 5.34 -5 8 c -0.58 1.16 -1 2.73 -1 4 c 0 2.49 -0.04 6.36 1 8 c 0.87 1.36 3.99 2.38 6 3 c 2.12 0.65 4.91 1.26 7 1 c 2.81 -0.35 6.7 -1.74 9 -3 c 0.87 -0.48 1.65 -1.96 2 -3 c 0.58 -1.75 1 -4.12 1 -6 c 0 -1.58 -0.2 -3.79 -1 -5 c -1.56 -2.34 -5.69 -4.76 -7 -7 c -0.66 -1.13 -0.88 -4.12 0 -5 c 4.62 -4.62 14.48 -10.52 21 -16 c 1.58 -1.33 2.45 -3.84 4 -5 c 2.16 -1.62 8.09 -4.13 8 -4 c -0.12 0.18 -7.46 4.46 -10 7 c -1.4 1.4 -2.32 3.95 -3 6 c -0.94 2.82 -2.67 6.99 -2 9 c 0.67 2.01 4.57 4.71 7 6 c 2.17 1.16 5.35 1.74 8 2 c 3.85 0.39 8.14 0.59 12 0 c 8.9 -1.37 18.76 -3.41 27 -6 c 2.81 -0.88 5.57 -3.13 8 -5 c 1.82 -1.4 3.95 -3.17 5 -5 c 1.4 -2.46 3.31 -7.13 3 -9 c -0.19 -1.15 -3.33 -2.77 -5 -3 c -4.88 -0.67 -11.59 -0.81 -17 0 l -23 6"/><path stroke-linejoin="round" stroke-linecap="round" stroke-width="2" stroke="rgb(52, 58, 64)" fill="none" d="M 331 138 c -0.28 0.02 -10.99 0 -16 1 c -4.65 0.93 -10 3 -14 5 c -1.52 0.76 -3.07 2.53 -4 4 c -1.26 1.98 -2.28 4.65 -3 7 c -0.58 1.88 -1 4.12 -1 6 c 0 1.58 0.15 3.87 1 5 c 1.77 2.36 5.22 6.03 8 7 c 3.94 1.37 10.27 1.35 15 1 c 3.89 -0.29 8.3 -1.49 12 -3 c 5.08 -2.07 11.35 -4.66 15 -8 c 3.28 -3 6.18 -8.76 8 -13 c 0.96 -2.24 0.83 -5.3 1 -8 c 0.17 -2.68 0.38 -5.41 0 -8 c -0.93 -6.28 -2.44 -12.77 -4 -19 c -0.43 -1.73 -2 -5.09 -2 -5 c 0 0.11 1.11 4.22 2 6 c 0.7 1.4 2.47 2.56 3 4 c 1.65 4.48 2.47 10.15 4 15 c 0.44 1.4 1.29 4.16 2 4 c 2.08 -0.48 7.49 -4.37 11 -7 c 5.93 -4.44 10.97 -9.73 17 -14 c 7.75 -5.48 15.63 -10.16 24 -15 c 7.01 -4.05 13.73 -7.65 21 -11 c 5.92 -2.73 15.98 -6.64 18 -7 c 0.43 -0.08 -0.31 3.02 -1 4 c -1.41 2.01 -4.18 3.82 -6 6 c -3.21 3.85 -5.53 8.45 -9 12 c -10.8 11.05 -22.11 21.84 -34 32 c -6.57 5.62 -13.8 11.12 -21 15 l -18 6"/><path stroke-linejoin="round" stroke-linecap="round" stroke-width="2" stroke="rgb(52, 58, 64)" fill="none" d="M 317 90 c 0.05 -0.12 2.2 -7.45 3 -7 c 2.18 1.22 9.01 10.38 13 16 c 3.38 4.77 5.73 10.1 9 15 c 2.13 3.19 4.44 6.15 7 9 c 3.5 3.89 7.32 8.01 11 11 c 1.27 1.04 3.3 1.69 5 2 c 5.4 0.98 11.48 2.3 17 2 c 12.67 -0.68 31.13 -2.84 39 -5 c 1.22 -0.33 0.39 -4.17 1 -6 c 0.67 -2.02 1.73 -4.27 3 -6 c 2.28 -3.11 5.03 -6.4 8 -9 c 4.93 -4.32 16 -12 16 -12"/></svg>