<?xml version="1.0" encoding="UTF-8" standalone="no"?><!DOCTYPE svg PUBLIC "-//W3C//DTD SVG 1.1//EN" "http://www.w3.org/Graphics/SVG/1.1/DTD/svg11.dtd"><svg xmlns="http://www.w3.org/2000/svg" version="1.1" width="630" height="107"><path stroke-linejoin="round" stroke-linecap="round" stroke-width="2" stroke="rgb(52, 58, 64)" fill="none" d="M 19 21 c 0.02 0.07 0.41 2.96 1 4 c 0.61 1.07 1.85 2.82 3 3 c 15.28 2.33 39.71 7.91 56 6 c 12.04 -1.41 26.07 -10.6 38 -17 c 5.73 -3.08 13.53 -9.35 16 -12 c 0.45 -0.48 -1.43 -3.21 -2 -3 c -1.79 0.65 -6.32 4.32 -9 7 c -9.98 9.98 -18.88 20.88 -29 31 c -4.06 4.06 -8.39 7.62 -13 11 c -5.48 4.02 -10.99 7.83 -17 11 c -12.47 6.58 -24.86 12.05 -38 18 c -5.05 2.29 -9.93 4.38 -15 6 c -3.2 1.02 -9.78 2.55 -10 2 c -0.23 -0.57 5.18 -5.52 8 -7 c 3.02 -1.59 7.24 -2.25 11 -3 c 4.66 -0.93 9.48 -2.12 14 -2 c 7.41 0.2 16.11 0.93 23 3 c 5.72 1.71 12.13 5.75 17 9 c 1.62 1.08 2.51 3.51 4 5 c 2.15 2.15 4.76 4.88 7 6 c 1.21 0.61 3.54 0.32 5 0 c 1.3 -0.29 2.62 -1.58 4 -2 c 2.84 -0.87 6.22 -0.87 9 -2 c 9.32 -3.78 20.46 -7.97 28 -13 c 3.32 -2.21 4.98 -7.82 8 -11 c 3.47 -3.65 8.76 -6.19 12 -10 c 5.8 -6.84 11.67 -15 16 -23 c 4.16 -7.69 6.6 -18.89 10 -25 c 0.68 -1.22 3.82 -2.15 5 -2 c 0.93 0.12 3.11 2.04 3 3 c -0.4 3.56 -2.9 10.28 -5 15 c -1.85 4.15 -4.23 8.28 -7 12 c -9.94 13.34 -23.1 27.79 -31 39 c -0.79 1.12 -0.47 3.89 0 5 c 0.34 0.8 1.96 1.83 3 2 c 4.33 0.72 10.02 1 15 1 c 3.33 0 6.6 -0.92 10 -1 c 10.5 -0.26 20.75 0.75 31 0 l 24 -4"/><path stroke-linejoin="round" stroke-linecap="round" stroke-width="2" stroke="rgb(52, 58, 64)" fill="none" d="M 264 71 c 0.18 -0.19 6.53 -8.14 10 -11 c 1.78 -1.46 5.32 -1.62 7 -3 c 1.59 -1.3 2.47 -4.47 4 -6 c 1.24 -1.24 3.9 -1.64 5 -3 c 4.09 -5.06 8.57 -12.19 12 -18 c 0.65 -1.11 1 -2.78 1 -4 c 0 -1.22 -0.3 -3.7 -1 -4 c -1.03 -0.44 -4.24 0.2 -6 1 c -15.78 7.17 -32.63 15.44 -49 24 c -5.66 2.96 -10.89 6.38 -16 10 c -2.88 2.04 -5.98 4.57 -8 7 c -1.03 1.23 -2 3.62 -2 5 c 0 1.14 1.13 3.27 2 4 c 0.8 0.67 2.73 1.08 4 1 c 8.09 -0.54 17.6 -2.49 26 -3 c 2.27 -0.14 5.17 0.27 7 1 l 3 3"/><path stroke-linejoin="round" stroke-linecap="round" stroke-width="2" stroke="rgb(52, 58, 64)" fill="none" d="M 343 89 c 0.07 -0.19 2.05 -7.81 4 -11 c 5.13 -8.39 11.37 -16.99 18 -25 c 9.59 -11.59 21.12 -22.24 30 -33 c 1.52 -1.84 3.13 -7 3 -7 c -0.14 0 -3 4.58 -4 7 c -1.29 3.13 -1.73 6.75 -3 10 c -1.74 4.46 -3.8 8.61 -6 13 c -2.27 4.53 -4.29 8.83 -7 13 c -6.06 9.32 -11.85 19.34 -19 27 c -6.32 6.77 -15.2 13.62 -23 18 c -4.99 2.8 -13.04 4.32 -18 5 c -1.19 0.16 -4.37 -1.84 -4 -2 c 4.19 -1.81 31.86 -10.72 48 -17 c 8.37 -3.25 16.39 -6.57 24 -11 c 14.79 -8.61 28.93 -17.89 43 -28 c 9.94 -7.14 19.3 -15.05 28 -23 c 2.74 -2.5 5.17 -5.95 7 -9 c 1.02 -1.69 2.28 -4.59 2 -6 c -0.25 -1.26 -2.72 -3.9 -4 -4 c -2.14 -0.16 -6.41 1.56 -9 3 c -3.11 1.73 -5.81 4.97 -9 7 c -4.13 2.63 -10.19 3.84 -13 7 c -4.34 4.88 -8.88 13.47 -11 20 c -1.58 4.87 -1.35 11.56 -1 17 c 0.29 4.57 2.78 10.27 3 14 c 0.06 0.94 -1.11 2.44 -2 3 c -3.88 2.42 -9.13 5.14 -14 7 c -9.15 3.49 -19.15 5.86 -28 9 c -1.08 0.38 -3.27 1.96 -3 2 c 3.5 0.48 31.08 3.45 47 4 c 13.51 0.47 27.22 0.02 40 -1 c 3.33 -0.27 6.59 -2.43 10 -3 c 10.54 -1.76 21.78 -3.19 32 -4 c 1.93 -0.15 3.99 0.91 6 1 c 5.3 0.24 10.68 0.44 16 0 c 6.72 -0.56 13.28 -1.62 20 -3 c 8.22 -1.68 16.93 -3.56 24 -6 c 1.83 -0.63 3.29 -3.22 5 -4 c 1.62 -0.74 4.78 0.16 6 -1 c 9.78 -9.28 22.25 -23.64 33 -36 c 2.69 -3.09 5.17 -6.47 7 -10 c 2.75 -5.31 5.86 -11.67 7 -17 c 0.69 -3.2 -0.32 -7.82 -1 -11 c -0.22 -1.04 -1.22 -2.93 -2 -3 c -1.98 -0.18 -6.48 0.81 -9 2 c -2.74 1.29 -5.48 3.8 -8 6 c -2.85 2.49 -5.72 5.11 -8 8 c -2.63 3.33 -5.65 7.18 -7 11 c -2.43 6.9 -3.95 15.27 -5 23 l -1 21"/></svg>