<?xml version="1.0" encoding="UTF-8" standalone="no"?><!DOCTYPE svg PUBLIC "-//W3C//DTD SVG 1.1//EN" "http://www.w3.org/Graphics/SVG/1.1/DTD/svg11.dtd"><svg xmlns="http://www.w3.org/2000/svg" version="1.1" width="335" height="75"><path stroke-linejoin="round" stroke-linecap="round" stroke-width="2" stroke="rgb(52, 58, 64)" fill="none" d="M 11 9 c 0 0.44 0.54 16.57 0 25 c -0.81 12.55 -2.36 26.09 -4 37 c -0.16 1.06 -1.77 3.3 -2 3 c -0.73 -0.98 -3.5 -7.39 -4 -11 c -0.77 -5.55 -0.42 -12.11 0 -18 c 0.24 -3.34 0.97 -6.9 2 -10 c 0.91 -2.72 2.17 -5.97 4 -8 c 3.77 -4.19 9.26 -8.77 14 -12 c 2.2 -1.5 5.8 -2.82 8 -3 c 1.15 -0.1 3.74 1.02 4 2 c 0.76 2.85 0.53 8.91 0 13 c -0.43 3.29 -1.49 7.11 -3 10 c -1.97 3.76 -5 8.5 -8 11 c -2.38 1.98 -8.02 4 -10 4 c -0.82 0 -1.59 -2.64 -2 -4 c -0.55 -1.85 -0.87 -3.99 -1 -6 l 0 -9"/><path stroke-linejoin="round" stroke-linecap="round" stroke-width="2" stroke="rgb(52, 58, 64)" fill="none" d="M 54 14 c 0.07 0.05 2.58 2.29 4 3 c 2.43 1.22 5.47 2.7 8 3 c 2.68 0.31 6.37 -0.18 9 -1 c 2.34 -0.73 4.66 -2.93 7 -4 c 1.2 -0.55 4.16 -1.15 4 -1 c -1.98 1.87 -25.46 22.72 -39 34 c -4.87 4.06 -14.47 10.69 -15 11 c -0.14 0.08 1.87 -3.03 3 -4 c 1.01 -0.87 2.7 -1.71 4 -2 c 1.46 -0.32 3.46 -0.33 5 0 c 2.91 0.62 6.25 1.71 9 3 l 6 4"/><path stroke-linejoin="round" stroke-linecap="round" stroke-width="2" stroke="rgb(52, 58, 64)" fill="none" d="M 111 60 c 0.1 0 4.22 0.41 6 0 c 2.26 -0.52 4.9 -1.77 7 -3 c 1.77 -1.03 3.66 -2.45 5 -4 c 2.85 -3.29 6.62 -7.33 8 -11 c 1.32 -3.52 1.43 -8.95 1 -13 c -0.52 -4.82 -2.27 -10.16 -4 -15 c -1.59 -4.46 -4.7 -11.56 -6 -13 c -0.39 -0.43 -2.75 2.01 -3 3 c -0.3 1.19 0.41 3.52 1 5 c 0.68 1.69 1.78 3.93 3 5 c 1.13 0.98 3.32 1.68 5 2 c 3.45 0.65 7.93 1.61 11 1 c 2.86 -0.57 6.86 -2.86 9 -5 c 2.72 -2.72 7.23 -11.13 7 -11 c -0.37 0.21 -11.36 9.73 -14 15 c -2.75 5.49 -3.81 14.47 -4 21 c -0.12 4.37 2.97 13.73 3 14 c 0.01 0.1 -0.87 -3.94 -2 -5 c -3.9 -3.67 -10.09 -8.82 -15 -11 l -12 -1"/><path stroke-linejoin="round" stroke-linecap="round" stroke-width="2" stroke="rgb(52, 58, 64)" fill="none" d="M 175 57 c 0.09 -0.02 3.48 -0.41 5 -1 c 2.67 -1.03 6.65 -2.48 8 -4 c 0.75 -0.85 0.46 -3.77 0 -5 c -0.39 -1.04 -1.85 -2.46 -3 -3 c -3.42 -1.6 -7.92 -2.8 -12 -4 c -1.64 -0.48 -3.39 -1 -5 -1 c -2.86 0 -7.03 0.1 -9 1 c -0.97 0.44 -2.38 3.24 -2 4 c 0.61 1.22 3.99 2.99 6 4 c 1.15 0.57 2.85 1.19 4 1 c 2.38 -0.4 6.32 -1.46 8 -3 c 1.76 -1.61 3.41 -8.64 4 -8 c 1.67 1.78 9.1 21.86 10 23 c 0.32 0.41 0.23 -6.25 1 -9 c 0.83 -3 2.47 -6.37 4 -9 c 0.66 -1.13 1.99 -2.78 3 -3 c 1.45 -0.32 4.47 0.24 6 1 c 1.42 0.71 3.32 2.53 4 4 c 1.11 2.4 1.1 6.3 2 9 c 0.35 1.06 1.24 2.92 2 3 c 1.75 0.17 5.55 -1.02 8 -2 c 2.39 -0.96 5.22 -2.38 7 -4 c 1.59 -1.45 3.77 -5.85 4 -6 c 0.13 -0.09 -1.2 2.87 -1 4 c 0.38 2.08 1.62 5.62 3 7 c 1.14 1.14 4.3 2.13 6 2 c 2.04 -0.16 4.84 -1.82 7 -3 c 1.42 -0.77 3.34 -1.75 4 -3 c 1.68 -3.15 3.93 -11.35 4 -12 c 0.02 -0.22 -2.46 1.85 -3 3 c -1.6 3.42 -3.33 8.43 -4 12 c -0.22 1.16 0.33 3.2 1 4 c 0.73 0.87 2.77 1.86 4 2 c 1.4 0.16 3.46 -0.44 5 -1 c 2.02 -0.73 4.58 -1.58 6 -3 c 3.16 -3.16 6.56 -7.82 9 -12 c 2.11 -3.62 3.91 -7.92 5 -12 c 1.53 -5.72 2.51 -12.37 3 -18 c 0.14 -1.57 -0.83 -5.24 -1 -5 c -0.43 0.6 -2.99 7.97 -4 12 c -0.64 2.57 -0.86 5.29 -1 8 c -0.2 4.03 -0.4 8.19 0 12 c 0.24 2.31 0.9 5.05 2 7 c 1.72 3.05 4.63 7.02 7 9 c 1.06 0.88 3.6 1.16 5 1 c 1.23 -0.14 3.23 -0.97 4 -2 c 3.64 -4.86 7.56 -11.85 11 -18 c 1.24 -2.22 2.56 -4.63 3 -7 c 1.16 -6.25 2.09 -18.47 2 -20 c -0.02 -0.32 -2.26 1.89 -3 3 c -1.17 1.75 -2.75 4.01 -3 6 c -0.67 5.33 -0.23 11.95 0 18 c 0.1 2.71 0.22 5.55 1 8 c 1.47 4.63 4.59 12.12 6 14 l 3 -2"/><path stroke-linejoin="round" stroke-linecap="round" stroke-width="2" stroke="rgb(52, 58, 64)" fill="none" d="M 334 33 c -0.09 -0.03 -3.27 -1.61 -5 -2 c -11.48 -2.58 -23.01 -5.19 -35 -7 c -12.83 -1.93 -25.38 -3.29 -38 -4 c -4.97 -0.28 -15 1 -15 1"/></svg>