<?xml version="1.0" encoding="UTF-8" standalone="no"?><!DOCTYPE svg PUBLIC "-//W3C//DTD SVG 1.1//EN" "http://www.w3.org/Graphics/SVG/1.1/DTD/svg11.dtd"><svg xmlns="http://www.w3.org/2000/svg" version="1.1" width="324" height="110"><path stroke-linejoin="round" stroke-linecap="round" stroke-width="2" stroke="rgb(52, 58, 64)" fill="none" d="M 145 20 l 1 1"/><path stroke-linejoin="round" stroke-linecap="round" stroke-width="2" stroke="rgb(52, 58, 64)" fill="none" d="M 192 27 l 1 1"/><path stroke-linejoin="round" stroke-linecap="round" stroke-width="2" stroke="rgb(52, 58, 64)" fill="none" d="M 47 35 l 1 1"/><path stroke-linejoin="round" stroke-linecap="round" stroke-width="2" stroke="rgb(52, 58, 64)" fill="none" d="M 37 14 c 0.56 0.02 21.04 0.31 32 1 c 11 0.69 20.9 2.25 32 3 c 29.74 2.02 56.42 4.21 86 5 c 35.03 0.93 69.75 2.02 102 0 c 8.6 -0.54 18.68 -4.67 26 -8 c 2.67 -1.21 5.44 -4.66 7 -7 c 0.8 -1.21 1.56 -4.22 1 -5 c -0.69 -0.97 -4.76 -2.86 -6 -2 c -13.86 9.55 -38.28 28.33 -55 44 c -9.12 8.54 -16.4 19.43 -24 30 c -8.01 11.14 -12.92 32.12 -22 34 c -22.28 4.6 -70.01 -2.23 -99 -9 c -12.95 -3.03 -24.8 -16.04 -38 -23 c -11.71 -6.17 -24 -10.1 -36 -16 c -8.04 -3.95 -15 -8.81 -23 -13 c -6.37 -3.34 -18.66 -7.87 -19 -9 l 16 -1"/></svg>