<?xml version="1.0" encoding="UTF-8" standalone="no"?><!DOCTYPE svg PUBLIC "-//W3C//DTD SVG 1.1//EN" "http://www.w3.org/Graphics/SVG/1.1/DTD/svg11.dtd"><svg xmlns="http://www.w3.org/2000/svg" version="1.1" width="441" height="168"><path stroke-linejoin="round" stroke-linecap="round" stroke-width="2" stroke="rgb(52, 58, 64)" fill="none" d="M 20 89 c -0.12 0.32 -4.48 12.7 -7 18 c -0.55 1.16 -2.14 3.09 -3 3 c -1.64 -0.16 -5.65 -2.35 -7 -4 c -1.22 -1.49 -1.88 -4.75 -2 -7 c -0.19 -3.41 0.07 -7.54 1 -11 c 2.66 -9.9 6.07 -20.4 10 -30 c 2 -4.9 4.97 -9.53 8 -14 c 4.02 -5.94 8.38 -11.72 13 -17 c 2.29 -2.62 5.22 -5.01 8 -7 c 1.76 -1.25 4.69 -3.26 6 -3 c 1.25 0.25 3.48 3.32 4 5 c 0.65 2.1 0.49 5.54 0 8 c -0.78 3.9 -2.34 8.05 -4 12 c -5.46 13.01 -12.07 25.67 -17 38 c -0.84 2.09 -1.7 6.42 -1 7 c 0.72 0.6 5.01 -0.86 7 -2 c 6.91 -3.95 13.9 -10.13 21 -14 c 3.56 -1.94 9.81 -4.58 12 -4 c 1.48 0.39 2.92 5.44 3 8 c 0.22 6.93 -2.96 19.31 -2 23 c 0.33 1.28 5.95 1.02 8 0 c 8.53 -4.26 21.01 -14.51 28 -18 c 0.94 -0.47 3.81 1.15 4 2 c 0.31 1.39 -2.51 6.24 -2 7 c 0.42 0.64 4.49 -0.08 6 -1 c 3.88 -2.37 7.81 -7.38 12 -10 c 3.49 -2.18 8.63 -4.4 12 -5 c 1.4 -0.25 4.43 0.8 5 2 c 2.08 4.36 4.19 12.94 5 19 c 0.45 3.41 -0.18 7.92 -1 11 c -0.37 1.39 -2.14 3.71 -3 4 c -0.62 0.21 -2.47 -1.16 -3 -2 c -0.93 -1.48 -1.74 -4.03 -2 -6 c -0.37 -2.8 -0.4 -6.08 0 -9 c 0.91 -6.63 1.97 -13.73 4 -20 c 1.87 -5.77 4.76 -11.68 8 -17 c 6.08 -9.98 12.9 -20.3 20 -29 c 2.86 -3.51 7.13 -6.19 11 -9 c 3.55 -2.58 10.03 -7.36 11 -7 c 0.78 0.29 -1.39 7.11 -3 10 c -4.46 7.98 -11.1 15.75 -16 24 c -2.43 4.09 -4.12 8.5 -6 13 c -1.53 3.68 -3.2 7.34 -4 11 c -0.82 3.77 -1.22 8.53 -1 12 c 0.08 1.29 1.1 3.35 2 4 c 1.03 0.74 3.6 1.39 5 1 c 5.92 -1.66 13.18 -5.65 20 -8 c 3.92 -1.35 9.36 -3 12 -3 c 0.77 0 1.87 2.08 2 3 c 0.15 1.05 -1.48 3.52 -1 4 c 0.71 0.71 4.3 1.48 6 1 c 7.8 -2.19 17.34 -6.21 26 -10 c 7.64 -3.34 21.35 -11 22 -11 c 0.45 0 -8.87 7.03 -13 11 c -4.64 4.46 -9.34 9.37 -13 14 c -1.03 1.31 -2.51 4.28 -2 5 c 0.69 0.97 5.25 2.52 7 2 c 2.94 -0.86 7.08 -4.27 10 -7 c 7.28 -6.81 14.19 -14.24 21 -22 c 5.42 -6.18 10.64 -12.18 15 -19 c 11.06 -17.31 31 -54.07 31 -53 c 0 1.32 -21.07 45.55 -31 69 c -2.2 5.2 -3.77 10.84 -5 16 c -0.37 1.54 -0.62 4.38 0 5 c 0.62 0.62 3.66 0.52 5 0 c 2.53 -0.97 5.94 -2.86 8 -5 c 6.83 -7.07 13.4 -15.53 20 -24 c 9.22 -11.82 25.22 -34.22 26 -35 c 0.31 -0.31 -4.17 10.84 -7 16 c -8.64 15.75 -18.54 30.02 -27 46 c -6.81 12.87 -13.21 25.83 -18 39 c -3.08 8.48 -5.06 18.8 -6 27 c -0.28 2.44 0.93 5.86 2 8 c 0.73 1.47 2.78 3.89 4 4 c 1.65 0.15 5.51 -1.67 7 -3 c 1.06 -0.94 1.7 -3.37 2 -5 c 0.33 -1.82 0.45 -4.19 0 -6 c -1.12 -4.5 -3.03 -9.48 -5 -14 c -1.36 -3.13 -3.6 -5.85 -5 -9 c -2.63 -5.91 -5.39 -12.26 -7 -18 c -0.58 -2.08 -0.47 -4.97 0 -7 c 0.45 -1.95 1.69 -4.43 3 -6 c 1.8 -2.16 4.5 -4.38 7 -6 c 3.03 -1.96 6.57 -3.69 10 -5 c 3.49 -1.33 7.2 -2.26 11 -3 c 11.82 -2.31 31.06 -6.12 35 -6 c 0.84 0.03 -1.37 5.59 -3 7 c -4.81 4.15 -13.45 8.04 -19 12 c -0.89 0.64 -2.2 3.07 -2 3 c 0.86 -0.29 9.47 -4.28 14 -7 c 8.98 -5.39 17.09 -11.5 26 -17 c 2.57 -1.58 5.24 -2.93 8 -4 c 3.22 -1.25 8.62 -3.55 10 -3 c 0.93 0.37 0.76 5.07 0 7 c -2.57 6.54 -8.63 15.08 -11 21 c -0.41 1.03 0.29 3.29 1 4 c 0.93 0.93 3.4 2.07 5 2 c 12.83 -0.53 31.17 -3.49 43 -4 c 0.99 -0.04 3.34 1.69 3 2 c -1.77 1.63 -11.04 6.4 -16 10 c -2.23 1.62 -4.33 3.92 -6 6 c -0.88 1.1 -2.35 3.83 -2 4 c 0.49 0.25 4.45 -0.93 6 -2 c 2.43 -1.68 4.93 -4.42 7 -7 c 7.31 -9.13 15.13 -18.28 21 -28 c 4.58 -7.59 7.8 -16.63 11 -25 c 1.08 -2.83 2.18 -6.81 2 -9 c -0.08 -1.01 -2.35 -3.29 -3 -3 c -1.4 0.62 -4.49 4.48 -6 7 c -2.35 3.92 -4.46 8.53 -6 13 c -2.11 6.14 -3.97 12.56 -5 19 c -1.63 10.21 -3 20.98 -3 31 c 0 6.19 1.15 13.27 3 19 c 1.64 5.06 4.91 10.46 8 15 l 9 10"/></svg>