<?xml version="1.0" encoding="UTF-8" standalone="no"?><!DOCTYPE svg PUBLIC "-//W3C//DTD SVG 1.1//EN" "http://www.w3.org/Graphics/SVG/1.1/DTD/svg11.dtd"><svg xmlns="http://www.w3.org/2000/svg" version="1.1" width="392" height="76"><path stroke-linejoin="round" stroke-linecap="round" stroke-width="2" stroke="rgb(52, 58, 64)" fill="none" d="M 66 16 c -0.12 -0.21 -4.5 -9.09 -7 -12 c -0.97 -1.13 -3.31 -1.58 -5 -2 c -2.22 -0.55 -4.77 -1.17 -7 -1 c -6.07 0.47 -13.26 1.28 -19 3 c -3.74 1.12 -7.51 3.73 -11 6 c -3.17 2.06 -6.44 4.44 -9 7 c -1.93 1.93 -3.88 4.6 -5 7 c -1.07 2.3 -1.67 5.36 -2 8 c -0.32 2.56 -0.5 5.67 0 8 c 0.42 1.96 1.72 4.72 3 6 l 5 2"/><path stroke-linejoin="round" stroke-linecap="round" stroke-width="2" stroke="rgb(52, 58, 64)" fill="none" d="M 84 21 c -0.07 0.09 -3.12 3.25 -4 5 c -1 1.99 -1.82 4.85 -2 7 c -0.13 1.51 0.34 3.84 1 5 c 0.47 0.82 2.16 2 3 2 c 1.04 0 2.88 -1.16 4 -2 c 1.42 -1.07 2.93 -2.58 4 -4 c 0.84 -1.12 1.13 -2.99 2 -4 c 0.97 -1.13 3.05 -3 4 -3 c 0.81 0 2.39 1.93 3 3 c 0.59 1.04 0.4 2.91 1 4 l 4 5"/><path stroke-linejoin="round" stroke-linecap="round" stroke-width="2" stroke="rgb(52, 58, 64)" fill="none" d="M 126 18 c -0.07 0.23 -2.48 8.95 -4 13 c -0.4 1.07 -2 3 -2 3"/><path stroke-linejoin="round" stroke-linecap="round" stroke-width="2" stroke="rgb(52, 58, 64)" fill="none" d="M 138 18 c 0.07 0.11 2.86 5.57 4 6 c 0.79 0.3 3.08 -1.77 4 -3 c 2.82 -3.76 7.12 -12.67 8 -13 c 0.58 -0.22 -0.23 6.78 0 10 c 0.09 1.33 0.17 3.28 1 4 c 3.34 2.9 9.33 6.67 14 9 c 2.31 1.16 8 2 8 2"/><path stroke-linejoin="round" stroke-linecap="round" stroke-width="2" stroke="rgb(52, 58, 64)" fill="none" d="M 231 11 c -0.16 0.37 -8.72 20.55 -9 21 c -0.13 0.2 1.13 -6.75 2 -10 c 0.46 -1.72 1.13 -3.61 2 -5 c 0.69 -1.1 1.96 -2.61 3 -3 c 1.23 -0.46 3.89 -0.47 5 0 c 0.8 0.34 1.59 1.93 2 3 c 1.19 3.09 2.13 9.63 3 10 c 0.67 0.29 2.42 -5.24 4 -7 c 1.14 -1.27 3.65 -1.8 5 -3 c 1.49 -1.32 2.54 -3.54 4 -5 c 1.14 -1.14 2.68 -2.56 4 -3 c 1.32 -0.44 4.62 -0.91 5 0 c 1.87 4.48 3.1 17.83 5 24 l 3 2"/><path stroke-linejoin="round" stroke-linecap="round" stroke-width="2" stroke="rgb(52, 58, 64)" fill="none" d="M 293 22 c 0.03 0.09 0.92 4.24 2 5 c 1.65 1.16 5.84 2.17 8 2 c 1.53 -0.12 4.74 -3.44 5 -3 c 0.37 0.62 -1.68 5.3 -2 8 c -0.67 5.57 -0.33 11.43 -1 17 c -0.32 2.7 -1.89 5.4 -2 8 c -0.21 5.06 1 16 1 16"/><path stroke-linejoin="round" stroke-linecap="round" stroke-width="2" stroke="rgb(52, 58, 64)" fill="none" d="M 325 66 c 0.12 -0.17 5.37 -6.48 7 -10 c 2.54 -5.47 4.31 -11.97 6 -18 c 0.63 -2.25 0.83 -6.75 1 -7 c 0.1 -0.15 0.25 3.63 1 4 c 1.27 0.63 4.98 0.54 7 0 c 2.58 -0.69 5.43 -3.27 8 -4 c 1.72 -0.49 5.04 -0.69 6 0 c 0.82 0.58 0.24 5.09 1 5 c 2.62 -0.31 10.71 -5.08 16 -7 c 1.84 -0.67 4.18 -1.14 6 -1 l 7 2"/></svg>