<?xml version="1.0" encoding="UTF-8" standalone="no"?><!DOCTYPE svg PUBLIC "-//W3C//DTD SVG 1.1//EN" "http://www.w3.org/Graphics/SVG/1.1/DTD/svg11.dtd"><svg xmlns="http://www.w3.org/2000/svg" version="1.1" width="384" height="115"><path stroke-linejoin="round" stroke-linecap="round" stroke-width="2" stroke="rgb(52, 58, 64)" fill="none" d="M 1 23 c 0.18 0.09 6.53 4.1 10 5 c 12.65 3.29 26.51 6.82 40 8 c 28.45 2.48 57.37 4.06 86 3 c 25.47 -0.94 50.57 -4.76 76 -9 c 17.09 -2.85 32.88 -7.6 50 -12 c 6.95 -1.79 13.67 -3.72 20 -6 c 1.77 -0.64 5.38 -2.56 5 -3 c -0.75 -0.88 -7.25 -3.23 -11 -4 c -9.06 -1.86 -18.62 -3.62 -28 -4 c -15.59 -0.62 -32.52 -0.63 -47 1 c -4.98 0.56 -10.62 3.41 -15 6 c -4.23 2.51 -8.52 6.26 -12 10 c -5.39 5.79 -10.01 12.3 -15 19 c -9.16 12.29 -17.55 23.43 -26 36 c -6.23 9.27 -10.99 18.99 -17 28 c -1.95 2.93 -4.43 6.08 -7 8 c -2.38 1.78 -6 3.38 -9 4 c -4.57 0.95 -10.76 2.17 -15 1 c -7.83 -2.15 -16.7 -7.63 -25 -12 c -4.57 -2.41 -9.94 -5.38 -13 -8 c -0.83 -0.71 -1.61 -3.94 -1 -4 c 7.76 -0.76 34.07 -1.15 52 -1 c 24.48 0.2 46.29 1.65 71 2 c 74.1 1.04 213 2 213 2"/></svg>