<?xml version="1.0" encoding="UTF-8" standalone="no"?><!DOCTYPE svg PUBLIC "-//W3C//DTD SVG 1.1//EN" "http://www.w3.org/Graphics/SVG/1.1/DTD/svg11.dtd"><svg xmlns="http://www.w3.org/2000/svg" version="1.1" width="558" height="153"><path stroke-linejoin="round" stroke-linecap="round" stroke-width="2" stroke="rgb(52, 58, 64)" fill="none" d="M 67 78 c -0.33 0.05 -12.53 2.32 -19 3 c -6.4 0.67 -12.94 1.38 -19 1 c -4.25 -0.27 -8.78 -1.73 -13 -3 c -2.41 -0.72 -4.79 -1.81 -7 -3 c -2.09 -1.13 -4.85 -2.42 -6 -4 c -1.16 -1.6 -1.77 -4.69 -2 -7 c -0.41 -4.13 -0.52 -8.87 0 -13 c 0.45 -3.62 1.71 -7.44 3 -11 c 1.37 -3.77 2.7 -8 5 -11 c 4.98 -6.5 11.82 -13.51 18 -19 c 2.43 -2.16 5.88 -3.6 9 -5 c 3.55 -1.6 7.32 -3.03 11 -4 c 2.53 -0.67 5.75 -1.42 8 -1 c 2.5 0.47 5.86 2.29 8 4 c 2.55 2.04 5.04 5.12 7 8 c 2.98 4.37 5.95 9.21 8 14 c 1.85 4.32 3.26 9.23 4 14 c 2.25 14.51 3.82 29.11 5 44 c 0.51 6.39 0.38 12.66 0 19 c -0.29 4.72 -0.7 9.55 -2 14 c -3.31 11.35 -12 34 -12 34"/><path stroke-linejoin="round" stroke-linecap="round" stroke-width="2" stroke="rgb(52, 58, 64)" fill="none" d="M 129 31 c -0.28 0.66 -10.37 26.2 -16 38 c -1.07 2.23 -3.56 3.84 -5 6 c -3.23 4.84 -6.31 9.82 -9 15 c -2 3.85 -3.06 8.34 -5 12 c -0.96 1.8 -4 5 -4 5"/><path stroke-linejoin="round" stroke-linecap="round" stroke-width="2" stroke="rgb(52, 58, 64)" fill="none" d="M 124 67 c -0.19 0.07 -7.45 2.4 -11 4 c -3.12 1.4 -6.15 3.06 -9 5 c -5.54 3.77 -11.67 7.5 -16 12 c -3.9 4.05 -10 15 -10 15"/><path stroke-linejoin="round" stroke-linecap="round" stroke-width="2" stroke="rgb(52, 58, 64)" fill="none" d="M 95 113 c 0.03 -0.09 1.57 -3.29 2 -5 c 0.89 -3.55 0.69 -7.65 2 -11 c 3.87 -9.91 8.69 -20.26 14 -30 c 4.76 -8.73 10.46 -17.44 16 -25 c 1.46 -1.99 4.76 -4.69 6 -5 c 0.57 -0.14 1.9 1.98 2 3 c 0.49 5.1 0.39 12.02 0 18 c -0.28 4.37 -2 8.86 -2 13 c 0 3.83 1.06 8.06 2 12 c 0.73 3.07 1.71 6.25 3 9 c 0.98 2.09 2.55 4.73 4 6 c 0.83 0.73 2.85 1.13 4 1 c 1.5 -0.17 4.05 -0.82 5 -2 c 4.83 -6.04 10.51 -14.95 15 -23 c 5.27 -9.44 13.55 -28.34 14 -29 c 0.19 -0.27 -2.54 8.69 -3 13 c -0.52 4.84 -0.25 10.09 0 15 c 0.08 1.67 0.27 3.84 1 5 c 0.71 1.14 3.01 3.35 4 3 c 3.14 -1.11 9.08 -7.43 13 -9 c 1.75 -0.7 5.5 0.17 7 1 c 0.95 0.53 1.8 2.68 2 4 l 0 9"/><path stroke-linejoin="round" stroke-linecap="round" stroke-width="2" stroke="rgb(52, 58, 64)" fill="none" d="M 184 137 c 0.07 -0.4 2.02 -15.38 4 -23 c 4.77 -18.38 9.29 -37.23 16 -54 c 3.64 -9.09 12.76 -21.91 16 -26 c 0.38 -0.48 2.91 1.14 3 2 c 0.67 6.7 0.47 18.77 0 28 c -0.19 3.68 -1.85 7.41 -2 11 c -0.17 4.19 0.9 12.54 1 13 c 0.03 0.14 0.4 -2.81 1 -4 c 7.51 -15.02 21.63 -42.54 24 -46 c 0.38 -0.55 2.11 5.54 2 8 c -0.19 4.28 -2.54 9.66 -3 14 c -0.16 1.54 0.34 4.91 1 5 c 0.94 0.13 4.39 -2.39 6 -4 c 2.86 -2.86 5.63 -6.55 8 -10 c 1.24 -1.8 2.95 -6.3 3 -6 c 0.14 0.76 -0.33 11.43 -1 17 c -0.32 2.7 -2.54 5.93 -2 8 c 0.86 3.27 4.64 9.59 7 11 c 1.49 0.89 5.7 -0.93 8 -2 c 2.4 -1.12 4.96 -3.05 7 -5 c 5.54 -5.3 12.26 -10.98 16 -17 c 3.39 -5.46 5.54 -13.54 7 -20 c 0.76 -3.35 0.34 -11.28 0 -11 c -0.52 0.44 -4.87 10.54 -6 16 c -3.14 15.19 -7 47 -7 47"/><path stroke-linejoin="round" stroke-linecap="round" stroke-width="2" stroke="rgb(52, 58, 64)" fill="none" d="M 299 71 c 0 -0.12 -0.31 -4.7 0 -7 c 1.02 -7.66 2.36 -15.19 4 -23 c 1.44 -6.9 5 -20 5 -20"/><path stroke-linejoin="round" stroke-linecap="round" stroke-width="2" stroke="rgb(52, 58, 64)" fill="none" d="M 302 81 c 0.28 -0.19 10.56 -7.69 16 -11 c 2.13 -1.3 4.92 -2.85 7 -3 c 1.99 -0.14 6.37 0.73 7 2 c 0.88 1.75 -1 10 -1 10"/><path stroke-linejoin="round" stroke-linecap="round" stroke-width="2" stroke="rgb(52, 58, 64)" fill="none" d="M 341 107 l 1 1"/><path stroke-linejoin="round" stroke-linecap="round" stroke-width="2" stroke="rgb(52, 58, 64)" fill="none" d="M 374 37 l -3 13"/><path stroke-linejoin="round" stroke-linecap="round" stroke-width="2" stroke="rgb(52, 58, 64)" fill="none" d="M 367 107 c 0.12 -0.33 4.21 -13.01 7 -19 c 1.8 -3.85 5.86 -10.24 7 -11 c 0.47 -0.32 1.75 3.32 2 5 c 0.7 4.68 -0.28 11.72 1 15 c 0.57 1.46 4.87 3.82 6 3 c 5.61 -4.06 18.06 -19.82 23 -24 c 0.54 -0.45 2.73 1.14 3 2 c 0.81 2.65 0.19 7.59 1 11 c 0.79 3.33 2.39 7.59 4 10 c 0.67 1 3.14 2.39 4 2 c 1.9 -0.86 4.86 -4.51 7 -7 c 1.86 -2.17 3.47 -4.51 5 -7 c 3.9 -6.35 9.49 -17.38 11 -19 c 0.37 -0.4 1.11 3.76 2 5 l 3 2"/><path stroke-linejoin="round" stroke-linecap="round" stroke-width="2" stroke="rgb(52, 58, 64)" fill="none" d="M 483 60 c -0.02 -0.09 -0.38 -3.6 -1 -5 c -0.61 -1.37 -3 -3.05 -3 -4 c 0 -0.81 2.04 -2.89 3 -3 c 1.42 -0.16 4.86 0.86 6 2 c 1.38 1.38 2.61 4.64 3 7 c 1.19 7.16 0.86 19.42 2 23 c 0.25 0.79 3.88 -0.14 5 -1 c 2.65 -2.04 5.06 -6.83 8 -9 c 2.95 -2.18 8.1 -4.64 11 -5 c 1.4 -0.18 3.64 1.76 5 3 c 2.47 2.26 5.07 7.59 7 8 c 1.56 0.34 5.08 -3.08 7 -5 c 2.23 -2.23 4.12 -5.18 6 -8 c 2.19 -3.28 4.32 -6.51 6 -10 c 2.32 -4.84 4.14 -9.83 6 -15 c 1.2 -3.34 3.24 -7.09 3 -10 l -5 -14"/></svg>