<?xml version="1.0" encoding="UTF-8" standalone="no"?><!DOCTYPE svg PUBLIC "-//W3C//DTD SVG 1.1//EN" "http://www.w3.org/Graphics/SVG/1.1/DTD/svg11.dtd"><svg xmlns="http://www.w3.org/2000/svg" version="1.1" width="514" height="134"><path stroke-linejoin="round" stroke-linecap="round" stroke-width="2" stroke="rgb(52, 58, 64)" fill="none" d="M 32 29 l 1 1"/><path stroke-linejoin="round" stroke-linecap="round" stroke-width="2" stroke="rgb(52, 58, 64)" fill="none" d="M 23 25 l 1 1"/><path stroke-linejoin="round" stroke-linecap="round" stroke-width="2" stroke="rgb(52, 58, 64)" fill="none" d="M 10 28 c 0.18 0 6.74 -0.33 10 0 c 3.33 0.33 6.81 2.16 10 2 c 9.14 -0.47 20.25 -2.2 29 -4 c 1.74 -0.36 3.93 -1.78 5 -3 c 0.98 -1.13 1.43 -3.29 2 -5 c 0.44 -1.31 1.11 -2.8 1 -4 c -0.19 -2.11 -1.04 -5.09 -2 -7 c -0.56 -1.11 -2.64 -3.27 -3 -3 c -0.52 0.39 -1.19 4.09 -1 6 c 1.08 10.78 3.94 22.58 5 34 c 0.62 6.65 1.1 14.14 0 20 c -0.74 3.93 -3.77 8.02 -6 12 c -2.54 4.53 -4.66 9.66 -8 13 c -5.77 5.77 -14 12.4 -21 16 c -4.32 2.22 -10.82 2.62 -16 3 c -3.52 0.26 -8.79 0.26 -11 -1 c -1.52 -0.87 -3.58 -5.33 -3 -7 c 1.26 -3.59 6.4 -9.4 10 -13 c 2.07 -2.07 5.28 -4 8 -5 c 3.23 -1.19 7.32 -1.78 11 -2 c 7.25 -0.44 15.39 -1.35 22 0 c 7.14 1.46 14.69 5.66 22 9 c 4.54 2.08 8.91 5.49 13 7 c 1.66 0.61 4.15 0.37 6 0 c 2.92 -0.58 6.95 -1.36 9 -3 c 2.33 -1.87 4.25 -5.93 6 -9 c 0.87 -1.53 0.87 -4.39 2 -5 c 2.34 -1.26 7.86 -0.78 11 -2 c 2.41 -0.94 4.67 -3.73 7 -5 c 1.12 -0.61 2.92 -1.27 4 -1 c 2.35 0.59 5.59 3.44 8 4 c 1.37 0.32 3.39 -0.52 5 -1 c 1.7 -0.51 3.54 -1.12 5 -2 c 1.74 -1.05 3.3 -3.15 5 -4 c 1.35 -0.68 3.63 -1.32 5 -1 c 2.41 0.56 5.63 2.49 8 4 c 1.12 0.72 2.3 1.85 3 3 c 2.81 4.6 6.41 10.24 8 15 c 0.84 2.52 0.76 7.62 0 9 c -0.42 0.76 -4.52 0.6 -5 0 c -0.49 -0.61 0.16 -4.16 1 -5 l 6 -2"/><path stroke-linejoin="round" stroke-linecap="round" stroke-width="2" stroke="rgb(52, 58, 64)" fill="none" d="M 220 72 c -0.14 -0.07 -5.33 -2.97 -8 -4 c -1.52 -0.59 -3.55 -1.14 -5 -1 c -1.53 0.15 -4.88 1.4 -5 2 c -0.11 0.56 2.88 2.86 4 3 c 1.01 0.13 2.7 -1.71 4 -2 c 1.46 -0.32 3.61 -0.42 5 0 c 1.62 0.49 3.65 1.82 5 3 l 3 4"/><path stroke-linejoin="round" stroke-linecap="round" stroke-width="2" stroke="rgb(52, 58, 64)" fill="none" d="M 65 32 l 1 1"/><path stroke-linejoin="round" stroke-linecap="round" stroke-width="2" stroke="rgb(52, 58, 64)" fill="none" d="M 290 84 c 0.02 0.1 0.45 4.15 1 6 c 0.41 1.36 2 4 2 4"/><path stroke-linejoin="round" stroke-linecap="round" stroke-width="2" stroke="rgb(52, 58, 64)" fill="none" d="M 270 108 c -0.03 -0.1 -1.11 -4.11 -2 -6 c -1.76 -3.74 -3.79 -7.29 -6 -11 c -6.4 -10.76 -13.26 -20.48 -19 -31 c -2.2 -4.03 -3.82 -8.61 -5 -13 c -1.12 -4.14 -2 -8.91 -2 -13 c 0 -3.17 0.76 -7.2 2 -10 c 1.22 -2.74 3.72 -5.87 6 -8 c 2.47 -2.3 5.84 -4.28 9 -6 c 4.18 -2.28 8.58 -4.53 13 -6 c 4.42 -1.47 9.36 -2.46 14 -3 c 3.89 -0.45 8.72 -0.94 12 0 c 2.96 0.85 7.11 3.57 9 6 l 5 12"/><path stroke-linejoin="round" stroke-linecap="round" stroke-width="2" stroke="rgb(52, 58, 64)" fill="none" d="M 317 40 c 0.14 0.09 6.18 2.86 8 5 c 3.37 3.96 8.41 10.6 9 15 c 0.53 3.98 -2.82 10.33 -5 15 c -2.41 5.16 -6.31 9.78 -9 15 c -2.69 5.21 -3.87 11.93 -7 16 c -2.94 3.82 -8.85 6.39 -13 10 c -3.58 3.11 -6.39 7.33 -10 10 c -3.77 2.79 -9.41 6 -13 7 c -1.31 0.36 -3.76 -1.03 -5 -2 c -1.48 -1.15 -3.53 -3.45 -4 -5 c -0.37 -1.23 0.08 -4.17 1 -5 c 1.78 -1.6 5.93 -2.92 9 -4 c 2.57 -0.91 5.22 -1.43 8 -2 c 8.92 -1.84 17.14 -3.56 26 -5 c 3.7 -0.6 7.49 -0.3 11 -1 c 3.02 -0.6 6.36 -1.68 9 -3 c 1.78 -0.89 3.53 -2.53 5 -4 c 1.47 -1.47 3.34 -3.23 4 -5 c 1.16 -3.09 2.35 -8.06 2 -11 c -0.22 -1.89 -2.49 -4.18 -4 -6 c -1.78 -2.14 -3.77 -4.59 -6 -6 c -3.76 -2.38 -8.71 -4.8 -13 -6 c -3.61 -1.01 -8.16 -1 -12 -1 c -1.63 0 -3.7 0.35 -5 1 c -1.08 0.54 -3 2.26 -3 3 c 0 0.74 1.87 2.34 3 3 c 2.63 1.53 6.22 3.48 9 4 c 2 0.37 4.8 -1.13 7 -1 c 3.18 0.19 7.09 2 10 2 c 1.54 0 3.56 -2.11 5 -2 c 2.28 0.18 6.28 1.63 8 3 c 1.08 0.87 1.72 3.3 2 5 c 1 6.02 0.68 13.5 2 19 c 0.5 2.08 2.52 5.33 4 6 c 1.45 0.66 5.24 -0.01 7 -1 c 2.99 -1.68 5.83 -5.58 9 -8 c 2.48 -1.9 5.67 -4.22 8 -5 c 1.02 -0.34 3.52 0.2 4 1 c 1.08 1.79 1.03 8.64 2 9 c 0.89 0.33 4.21 -5.11 6 -6 c 0.87 -0.43 3.08 0.39 4 1 c 0.8 0.54 1.58 3.24 2 3 c 1.01 -0.57 3.01 -5.41 5 -7 c 2.58 -2.07 7.99 -5.29 10 -5 c 1.45 0.21 2.52 4.88 4 7 c 0.78 1.11 1.9 2.31 3 3 c 1.39 0.87 3.47 1.85 5 2 c 1.45 0.14 3.67 -1.17 5 -1 c 0.94 0.12 1.92 1.59 3 2 c 8.27 3.14 17.73 7.43 26 9 c 4.82 0.92 11.57 0.36 16 -1 c 3.37 -1.04 7.18 -4.33 10 -7 c 2.96 -2.8 5.59 -6.47 8 -10 c 2.61 -3.83 5.63 -8.05 7 -12 c 1.09 -3.14 1.32 -7.62 1 -11 c -0.3 -3.2 -1.49 -7.32 -3 -10 c -1.23 -2.18 -3.77 -5.13 -6 -6 c -4.53 -1.77 -11.52 -3 -17 -3 c -7.99 0 -16.39 1.72 -25 3 c -23.89 3.56 -47.25 8.1 -69 11 c -1.89 0.25 -6.3 -0.89 -6 -1 c 2.78 -1.04 35.28 -11.84 54 -17 c 24.86 -6.85 48.33 -12.52 73 -18 c 5.62 -1.25 17.68 -2.85 17 -2 c -2.32 2.89 -29.92 23.85 -45 37 c -14.47 12.62 -32 27.87 -41 38 c -1.14 1.28 -0.03 5.97 1 7 c 1.03 1.03 4.91 1.26 7 1 c 2.81 -0.35 6.74 -1.3 9 -3 c 5.06 -3.8 9.64 -10.1 15 -15 c 10.39 -9.49 21.56 -17.82 31 -27 c 2.48 -2.42 6.14 -7.2 6 -9 c -0.1 -1.35 -4.66 -3.16 -7 -4 c -2.05 -0.73 -4.86 -1.42 -7 -1 c -21.46 4.24 -45.06 10.76 -69 16 c -12.4 2.72 -23.63 4.97 -36 7 c -8.5 1.39 -16.82 2.53 -25 3 c -3.27 0.19 -10.09 -0.19 -10 -1 c 0.12 -1.1 7.18 -6.24 11 -8 l 15 -4"/></svg>