<?xml version="1.0" encoding="UTF-8" standalone="no"?><!DOCTYPE svg PUBLIC "-//W3C//DTD SVG 1.1//EN" "http://www.w3.org/Graphics/SVG/1.1/DTD/svg11.dtd"><svg xmlns="http://www.w3.org/2000/svg" version="1.1" width="505" height="131"><path stroke-linejoin="round" stroke-linecap="round" stroke-width="2" stroke="rgb(52, 58, 64)" fill="none" d="M 78 2 c -0.21 0.32 -8.19 11.62 -12 18 c -18.17 30.38 -34.2 61.06 -52 89 c -3.18 4.98 -13 13 -13 13"/><path stroke-linejoin="round" stroke-linecap="round" stroke-width="2" stroke="rgb(52, 58, 64)" fill="none" d="M 78 121 l 1 1"/><path stroke-linejoin="round" stroke-linecap="round" stroke-width="2" stroke="rgb(52, 58, 64)" fill="none" d="M 121 75 l 1 1"/><path stroke-linejoin="round" stroke-linecap="round" stroke-width="2" stroke="rgb(52, 58, 64)" fill="none" d="M 138 79 l 6 2"/><path stroke-linejoin="round" stroke-linecap="round" stroke-width="2" stroke="rgb(52, 58, 64)" fill="none" d="M 250 22 l 1 1"/><path stroke-linejoin="round" stroke-linecap="round" stroke-width="2" stroke="rgb(52, 58, 64)" fill="none" d="M 40 31 c 0.05 -0.07 1.85 -2.85 3 -4 c 2.12 -2.12 4.5 -4.08 7 -6 c 6.39 -4.92 12.57 -10.38 19 -14 c 3.7 -2.08 8.56 -2.89 13 -4 c 3.65 -0.91 7.33 -1.67 11 -2 c 3.61 -0.33 7.73 -0.65 11 0 c 2.93 0.59 6 2.5 9 4 c 3.13 1.57 6.45 2.93 9 5 c 4.21 3.41 10.19 7.82 12 12 c 1.93 4.44 1.48 12.26 1 18 c -0.49 5.87 -2.04 12.26 -4 18 c -2.66 7.8 -5.19 17.45 -10 23 c -6.98 8.06 -19.11 15.76 -29 22 c -5 3.15 -11.15 4.93 -17 7 c -4.63 1.64 -9.43 3.17 -14 4 c -2.51 0.46 -6.38 0.99 -8 0 c -1.91 -1.17 -4.14 -5.42 -5 -8 c -0.64 -1.91 -0.55 -4.93 0 -7 c 1.01 -3.85 2.67 -8.85 5 -12 c 2.92 -3.95 8.22 -7.05 12 -11 c 3.96 -4.13 7.04 -9.42 11 -13 c 2.71 -2.45 6.79 -4.93 10 -6 c 2.2 -0.73 5.56 -0.46 8 0 c 2.6 0.49 6.13 1.69 8 3 c 0.98 0.68 1.66 2.6 2 4 c 4.19 17.05 12 53 12 53"/><path stroke-linejoin="round" stroke-linecap="round" stroke-width="2" stroke="rgb(52, 58, 64)" fill="none" d="M 140 124 c 0.07 -0.02 2.91 -0.4 4 -1 c 1.69 -0.94 3.56 -2.45 5 -4 c 7.5 -8.06 14.34 -17.34 22 -25 c 3.13 -3.13 9.91 -8.12 11 -8 c 0.74 0.08 -1.09 6.1 -2 9 c -0.75 2.39 -3.46 6.54 -3 7 c 0.46 0.46 5.05 -1.62 7 -3 c 3.45 -2.43 6.59 -7.03 10 -9 c 2.34 -1.35 6.47 -2 9 -2 c 1.23 0 3.35 1.1 4 2 c 0.74 1.03 1.14 3.55 1 5 c -0.15 1.53 -1.89 3.41 -2 5 c -0.2 2.97 -0.04 7.75 1 10 c 0.6 1.3 3.31 2.39 5 3 c 1.76 0.64 4.27 1.32 6 1 c 3.06 -0.57 7.21 -2.03 10 -4 c 10.3 -7.29 21.07 -16.1 31 -25 c 6.18 -5.53 11.95 -11.64 17 -18 c 3.85 -4.85 6.94 -10.45 10 -16 c 2.32 -4.21 4.63 -8.59 6 -13 c 1.56 -5.01 3.12 -14.33 3 -16 c -0.03 -0.46 -3.43 0.93 -4 2 c -3.9 7.3 -7.3 18.88 -12 28 c -6.77 13.14 -15 24.83 -22 38 c -4.56 8.59 -8.28 17.23 -12 26 c -0.95 2.23 -2 4.99 -2 7 c 0 1.49 1.08 4.66 2 5 c 1.08 0.4 4.32 -0.89 6 -2 c 14.26 -9.41 28.94 -20.87 44 -31 c 3.51 -2.36 7.26 -4.24 11 -6 c 1.89 -0.89 6.15 -2.52 6 -2 c -0.61 2.13 -9.85 17.41 -12 23 c -0.3 0.78 1.4 3.22 2 3 c 2.76 -1.03 9.63 -5.64 14 -9 c 4.27 -3.29 7.72 -7.44 12 -11 c 8.04 -6.7 22.81 -18.68 24 -19 c 0.68 -0.18 -8.57 12.71 -9 15 c -0.15 0.8 4.38 1.56 6 1 c 6.79 -2.34 15.33 -6.89 23 -11 c 11.46 -6.14 22.06 -12.04 33 -19 c 11.55 -7.35 22.61 -14.58 33 -23 c 8.95 -7.26 22.95 -23.49 25 -24 c 1.16 -0.29 -3.03 12.59 -5 19 l -7 20"/><path stroke-linejoin="round" stroke-linecap="round" stroke-width="2" stroke="rgb(52, 58, 64)" fill="none" d="M 413 130 c 0.3 -0.21 10.96 -8.22 17 -12 c 25.13 -15.74 74 -45 74 -45"/></svg>