<?xml version="1.0" encoding="UTF-8" standalone="no"?><!DOCTYPE svg PUBLIC "-//W3C//DTD SVG 1.1//EN" "http://www.w3.org/Graphics/SVG/1.1/DTD/svg11.dtd"><svg xmlns="http://www.w3.org/2000/svg" version="1.1" width="486" height="128"><path stroke-linejoin="round" stroke-linecap="round" stroke-width="2" stroke="rgb(52, 58, 64)" fill="none" d="M 48 14 c -0.05 0.05 -1.85 2.22 -3 3 c -14.26 9.71 -43.51 28.1 -44 29 c -0.37 0.69 24.34 -11.3 37 -16 c 8.15 -3.02 17.25 -5.55 25 -7 c 2.11 -0.4 5.35 0.1 7 1 c 1.5 0.82 3.06 3.31 4 5 c 0.6 1.09 1.28 2.87 1 4 c -1.17 4.69 -3.6 10.86 -6 16 c -2.26 4.85 -4.79 9.8 -8 14 c -6.34 8.31 -13.44 16.29 -21 24 c -9.73 9.92 -30 28 -30 28"/><path stroke-linejoin="round" stroke-linecap="round" stroke-width="2" stroke="rgb(52, 58, 64)" fill="none" d="M 139 31 c -0.14 0.09 -5.95 2.95 -8 5 c -2.96 2.96 -4.85 7.85 -8 11 c -9.99 9.99 -20.6 20 -32 29 c -14.21 11.22 -30.4 20.87 -44 31 c -1.26 0.94 -3.18 4.1 -3 4 c 1.14 -0.62 17.84 -10.85 27 -17 c 35.11 -23.59 67.98 -45.22 101 -69 c 6.3 -4.54 11.05 -10.9 17 -16 c 3.47 -2.97 10.31 -8.46 11 -8 c 0.66 0.44 -3.04 8.08 -5 12 c -2.77 5.53 -5.72 10.63 -9 16 c -4.26 6.98 -8.23 13.53 -13 20 c -4.68 6.35 -9.57 12.4 -15 18 c -5.25 5.42 -10.88 10.63 -17 15 c -10.19 7.28 -31.43 19.67 -32 20 c -0.12 0.07 3.81 -3.65 6 -5 c 6.39 -3.93 13.13 -7.57 20 -11 c 3.24 -1.62 6.59 -2.92 10 -4 c 2.92 -0.92 6.09 -1.86 9 -2 c 3.81 -0.18 8.88 -0.36 12 1 c 3.69 1.6 7.27 7.13 11 9 c 2.94 1.47 7.54 2.21 11 2 c 6.92 -0.42 14.61 -2.27 22 -4 c 8.59 -2.01 18.03 -3.04 25 -7 c 13.42 -7.64 26.64 -19.36 40 -30 c 8.52 -6.79 16.49 -14.07 24 -21 c 0.85 -0.78 2.04 -3.05 2 -3 c -0.09 0.12 -3.56 4.5 -5 7 c -3.59 6.23 -6.13 12.98 -10 19 c -5.15 8.01 -10.71 15.83 -17 23 c -8.09 9.21 -16.57 18.6 -26 26 c -11.88 9.32 -36.92 23.85 -39 25 c -0.26 0.15 1.71 -3.65 3 -5 c 6.11 -6.37 12.92 -12.98 20 -19 c 6.42 -5.46 12.98 -10.76 20 -15 c 7.16 -4.33 15.05 -7.79 23 -11 c 7.88 -3.19 15.72 -5.55 24 -8 c 6.75 -1.99 13.29 -3.85 20 -5 c 4.89 -0.84 10.02 -1 15 -1 c 3.33 0 7.08 0.22 10 1 c 1.7 0.45 3.65 1.78 5 3 c 1.81 1.63 3.14 4.61 5 6 c 1.81 1.36 4.58 2.35 7 3 c 7.48 1.99 15.12 3.8 23 5 c 12.12 1.85 23.79 3.37 36 4 c 14.16 0.73 27.81 0.61 42 0 l 28 -3"/></svg>