<?xml version="1.0" encoding="UTF-8" standalone="no"?><!DOCTYPE svg PUBLIC "-//W3C//DTD SVG 1.1//EN" "http://www.w3.org/Graphics/SVG/1.1/DTD/svg11.dtd"><svg xmlns="http://www.w3.org/2000/svg" version="1.1" width="541" height="137"><path stroke-linejoin="round" stroke-linecap="round" stroke-width="2" stroke="rgb(52, 58, 64)" fill="none" d="M 214 1 l 1 1"/><path stroke-linejoin="round" stroke-linecap="round" stroke-width="2" stroke="rgb(52, 58, 64)" fill="none" d="M 37 64 c -0.09 0.12 -3.09 5.24 -5 7 c -1.79 1.64 -4.58 3.11 -7 4 c -3.71 1.37 -8.15 2.67 -12 3 c -3.44 0.3 -9.54 0.58 -11 -1 c -1.59 -1.72 -1.89 -8.71 -1 -12 c 1.19 -4.4 5 -9.8 8 -14 c 1.84 -2.58 4.51 -4.86 7 -7 c 2.17 -1.86 4.67 -3.73 7 -5 c 1.12 -0.61 2.95 -1.15 4 -1 c 0.92 0.13 2.68 1.08 3 2 c 2.44 7.09 5.57 17.93 7 27 c 1.54 9.78 2 20.14 2 30 c 0 4.96 -0.48 10.78 -2 15 c -1.23 3.41 -4.54 7.54 -7 10 c -1.09 1.09 -4.68 2.56 -5 2 c -0.54 -0.95 0.19 -6.22 1 -9 c 1.45 -4.96 3.44 -10.48 6 -15 c 2.95 -5.21 7.09 -10.65 11 -15 c 1.81 -2.01 5.12 -3.12 7 -5 c 1.58 -1.58 2.42 -4.3 4 -6 c 2.63 -2.84 5.85 -5.77 9 -8 c 2.34 -1.65 8.13 -4.42 8 -4 c -0.25 0.84 -8.87 9.39 -11 14 c -1.44 3.12 -1.2 11.08 -1 12 c 0.07 0.32 2.46 -1.85 3 -3 c 1.9 -4.04 4.07 -13.18 5 -14 c 0.48 -0.42 2.41 4.62 3 7 c 1.03 4.11 0.31 12.03 2 13 c 1.67 0.95 8.82 -2.73 12 -5 c 3.29 -2.35 5.88 -7.1 9 -10 c 1.35 -1.26 3.64 -1.77 5 -3 c 2.14 -1.95 3.88 -4.88 6 -7 c 1.15 -1.15 4 -2.78 4 -3 c 0 -0.18 -2.96 0.34 -4 1 c -2.32 1.48 -5.14 3.81 -7 6 c -1.62 1.92 -3.35 4.74 -4 7 c -0.56 1.97 -0.35 4.88 0 7 c 0.27 1.63 0.98 4.24 2 5 c 1.15 0.86 4.62 1.75 6 1 c 5.17 -2.8 12.11 -8.97 18 -14 c 5.67 -4.84 10.87 -9.87 16 -15 c 1.17 -1.17 1.85 -2.99 3 -4 c 1.35 -1.18 4.71 -3 5 -3 c 0.18 0 -1.19 2.33 -2 3 c -1 0.84 -2.99 1.13 -4 2 c -1.13 0.97 -2.15 2.59 -3 4 c -1.14 1.9 -2.27 3.93 -3 6 c -1.24 3.53 -3 8.6 -3 11 c 0 0.76 2.21 2 3 2 c 0.79 0 2.32 -1.15 3 -2 c 1.78 -2.23 4.07 -7.47 5 -8 c 0.44 -0.25 1.83 2.68 2 4 c 0.44 3.55 0.45 8.06 0 12 c -0.88 7.67 -3.43 15.45 -4 23 c -0.41 5.51 0.8 16.19 1 17 c 0.06 0.26 1.91 -3.35 2 -5 c 0.53 -9.52 0.28 -20.72 0 -31 c -0.05 -2.02 -1.09 -5.73 -1 -6 c 0.05 -0.16 1.22 2.22 2 3 c 0.78 0.78 2.16 2 3 2 c 1.04 0 2.99 -1.07 4 -2 c 2.73 -2.5 6.25 -5.77 8 -9 c 2.3 -4.24 4.56 -15.35 5 -15 c 0.53 0.43 -0.26 12.77 0 19 c 0.07 1.67 0.35 5 1 5 c 1.1 0 5.21 -3.06 7 -5 c 1.96 -2.12 3.92 -7.59 5 -8 c 0.67 -0.25 1.81 3.54 3 5 c 1.73 2.12 4.34 5.34 6 6 c 0.88 0.35 3.09 -1.09 4 -2 c 1.18 -1.18 2.32 -3.31 3 -5 c 0.59 -1.48 0.89 -5 1 -5 c 0.11 0 -0.36 3.47 0 5 c 0.91 3.87 3.04 12.11 4 12 c 1.06 -0.12 3.97 -8.69 5 -13 c 0.89 -3.73 0.84 -7.9 1 -12 c 0.18 -4.43 0.31 -8.65 0 -13 c -0.36 -5.06 -1.82 -10.06 -2 -15 c -0.15 -4.26 1.31 -8.87 1 -13 c -0.34 -4.54 -2.46 -14.11 -3 -14 c -0.57 0.11 -1.86 10.01 -2 15 c -0.19 6.6 1.17 13.35 1 20 c -0.16 6.01 -2.23 12.14 -2 18 c 0.42 10.43 2.02 22.33 4 32 c 0.5 2.42 2.9 6.59 4 7 c 0.77 0.29 3.12 -2.48 4 -4 c 2.58 -4.46 5.08 -9.82 7 -15 c 2.43 -6.53 5.09 -19.77 6 -20 c 0.79 -0.2 1.03 12.17 2 18 c 0.34 2.04 1.16 5.44 2 6 c 0.59 0.39 2.88 -1.11 4 -2 c 3.71 -2.97 8.93 -8.88 11 -10 c 0.5 -0.27 2.08 2.04 2 3 c -0.74 9.19 -2.77 22.65 -5 34 c -1.48 7.53 -5.7 21.39 -6 22 c -0.13 0.27 -0.51 -6.78 0 -10 c 1.46 -9.23 3.44 -19.15 6 -28 c 1 -3.46 3.08 -6.93 5 -10 c 1.34 -2.15 3.19 -4.19 5 -6 c 1.48 -1.48 3.26 -2.84 5 -4 c 1.21 -0.81 2.8 -1.85 4 -2 c 1.11 -0.14 3.77 0.25 4 1 c 0.49 1.65 -1.07 6.01 -1 9 c 0.26 10.6 1.36 31.68 2 32 c 0.58 0.29 2.21 -19.38 4 -29 c 0.89 -4.78 3.62 -13.39 4 -14 l 1 6"/><path stroke-linejoin="round" stroke-linecap="round" stroke-width="2" stroke="rgb(52, 58, 64)" fill="none" d="M 357 66 c -0.09 -0.23 -2.83 -9.12 -5 -13 c -2.34 -4.18 -5.94 -9.52 -9 -12 c -1.44 -1.17 -4.79 -1 -7 -1 c -1.59 0 -3.78 0.22 -5 1 c -2.04 1.3 -4.55 3.74 -6 6 c -3.66 5.72 -7.48 12.7 -10 19 c -1.31 3.28 -1.63 7.33 -2 11 c -0.3 2.95 -0.19 6 0 9 c 0.15 2.36 0.32 4.95 1 7 c 0.56 1.69 1.78 3.78 3 5 c 1.22 1.22 3.38 2.51 5 3 c 1.39 0.42 3.45 0.28 5 0 c 1.95 -0.36 4.37 -0.89 6 -2 c 6.23 -4.24 13.02 -9.66 19 -15 c 3.32 -2.97 6.57 -6.44 9 -10 c 2.42 -3.55 4.28 -7.86 6 -12 c 1.63 -3.9 3.13 -7.92 4 -12 c 1.45 -6.85 2.38 -13.94 3 -21 c 0.38 -4.33 0.33 -11.91 0 -13 c -0.11 -0.36 -2.31 1.9 -3 3 c -0.87 1.39 -1.52 3.27 -2 5 c -1.19 4.28 -2.28 8.56 -3 13 c -0.97 6.03 -1.48 11.79 -2 18 c -0.51 6.18 -1.58 12.2 -1 18 c 1.05 10.47 3.64 22.56 6 32 c 0.36 1.45 2.14 3.71 3 4 c 0.62 0.21 2.64 -1.13 3 -2 c 1.03 -2.47 1.09 -6.74 2 -10 c 0.76 -2.73 2.4 -5.42 3 -8 c 0.35 -1.51 -0.42 -3.61 0 -5 c 0.49 -1.62 2.39 -3.31 3 -5 c 0.64 -1.76 0.85 -6.28 1 -6 c 0.5 0.92 3.55 13.22 6 19 c 1.06 2.5 3.23 5.01 5 7 c 0.74 0.83 2 1.75 3 2 c 1.38 0.34 4.17 0.83 5 0 c 2.3 -2.3 5.04 -11.48 7 -12 c 1.6 -0.43 5.27 5.72 8 8 c 1.08 0.9 3.31 2.56 4 2 c 2.96 -2.4 8.74 -9.82 12 -15 c 2.21 -3.51 3.57 -7.88 5 -12 c 1.26 -3.61 2.68 -7.36 3 -11 c 0.65 -7.34 0.62 -15.56 0 -23 c -0.36 -4.32 -1.77 -9.06 -3 -13 c -0.33 -1.07 -1.52 -3.16 -2 -3 c -0.85 0.28 -3.05 3.25 -4 5 c -0.94 1.72 -1.77 3.97 -2 6 c -1.72 15.48 -3.17 32.2 -4 48 c -0.16 2.97 0.3 6.21 1 9 c 0.59 2.34 1.79 4.99 3 7 c 0.67 1.12 1.94 2.65 3 3 c 1.49 0.5 4.66 0.87 6 0 c 4.27 -2.78 10.37 -8.21 14 -13 c 4.33 -5.72 8.48 -13.14 11 -20 c 3.3 -8.97 6.81 -28.5 7 -29 c 0.08 -0.22 -0.9 8.55 -1 13 c -0.24 11.27 -0.61 21.99 0 33 c 0.39 7.08 2.17 18.97 3 21 c 0.22 0.54 3.2 -2.47 4 -4 c 2.29 -4.36 5.87 -14.75 6 -15 c 0.09 -0.18 -4 10.01 -4 11 c 0 0.38 2.89 -1.1 4 -2 c 4.03 -3.27 7.99 -7.94 12 -11 c 1.32 -1.01 3.38 -1.68 5 -2 c 1.51 -0.3 4.16 -0.56 5 0 c 0.69 0.46 1.09 2.77 1 4 c -0.21 2.74 -2.78 8.44 -2 9 c 0.83 0.6 5.94 -3.03 9 -4 c 3.16 -1 6.94 -1.78 10 -2 c 1.24 -0.09 2.8 0.45 4 1 c 2.34 1.07 5.22 2.38 7 4 c 1.59 1.45 3.09 3.99 4 6 l 1 5"/><path stroke-linejoin="round" stroke-linecap="round" stroke-width="2" stroke="rgb(52, 58, 64)" fill="none" d="M 482 62 c -0.14 0.05 -5.26 2.45 -8 3 c -10.39 2.08 -21.03 3.8 -32 5 c -13.93 1.53 -41 3 -41 3"/><path stroke-linejoin="round" stroke-linecap="round" stroke-width="2" stroke="rgb(52, 58, 64)" fill="none" d="M 392 75 l 1 1"/></svg>