<?xml version="1.0" encoding="UTF-8" standalone="no"?><!DOCTYPE svg PUBLIC "-//W3C//DTD SVG 1.1//EN" "http://www.w3.org/Graphics/SVG/1.1/DTD/svg11.dtd"><svg xmlns="http://www.w3.org/2000/svg" version="1.1" width="328" height="61"><path stroke-linejoin="round" stroke-linecap="round" stroke-width="2" stroke="rgb(52, 58, 64)" fill="none" d="M 1 4 c 0.35 0 13.12 0.26 20 0 c 19.98 -0.77 38.13 -2.65 58 -3 c 18.82 -0.33 35.93 1 55 1 c 29.47 0 72.12 -1.61 85 -1 c 0.77 0.04 -0.37 3.47 -1 5 c -3.27 7.91 -6.78 16.24 -11 24 c -4.17 7.67 -9.17 15.02 -14 22 c -1.05 1.51 -2.58 2.93 -4 4 c -1.12 0.84 -2.62 1.61 -4 2 c -3.14 0.9 -6.68 1.59 -10 2 c -1.95 0.24 -4.32 0.46 -6 0 c -1.63 -0.44 -4.41 -1.65 -5 -3 c -1.33 -3.04 -2.93 -9.69 -2 -13 c 1.06 -3.77 6.09 -9.09 9 -12 c 0.8 -0.8 2.66 -0.96 4 -1 c 22.05 -0.61 44.85 0.31 68 -1 c 24.97 -1.42 48.9 -4.13 73 -7 l 11 -3"/></svg>