<?xml version="1.0" encoding="UTF-8" standalone="no"?><!DOCTYPE svg PUBLIC "-//W3C//DTD SVG 1.1//EN" "http://www.w3.org/Graphics/SVG/1.1/DTD/svg11.dtd"><svg xmlns="http://www.w3.org/2000/svg" version="1.1" width="528" height="107"><path stroke-linejoin="round" stroke-linecap="round" stroke-width="2" stroke="rgb(52, 58, 64)" fill="none" d="M 100 1 l 1 1"/><path stroke-linejoin="round" stroke-linecap="round" stroke-width="2" stroke="rgb(52, 58, 64)" fill="none" d="M 81 22 l 1 1"/><path stroke-linejoin="round" stroke-linecap="round" stroke-width="2" stroke="rgb(52, 58, 64)" fill="none" d="M 22 37 c 0.19 0.12 7.24 5.21 11 7 c 3.01 1.43 6.54 2.1 10 3 c 4.43 1.15 8.61 2.35 13 3 c 4.62 0.68 9.58 1.62 14 1 c 11.6 -1.62 24.97 -5.17 36 -8 c 1.08 -0.28 2.88 -1.38 3 -2 c 0.12 -0.62 -1.31 -3.18 -2 -3 c -5.78 1.54 -19.42 6.17 -28 11 c -17.72 9.97 -34.49 23.09 -52 34 c -2.78 1.73 -6 3.06 -9 4 c -2.15 0.67 -4.72 1 -7 1 c -3.25 0 -8.61 0.25 -10 -1 c -1.11 -1 -0.75 -5.76 0 -8 c 1.38 -4.13 4.38 -8.96 7 -13 c 1.64 -2.52 3.91 -5.61 6 -7 c 1.38 -0.92 4.09 -1 6 -1 c 1.91 0 4.24 0.32 6 1 c 2.34 0.9 5.41 2.15 7 4 c 6.08 7.05 11.75 18.53 18 25 c 2.45 2.54 7.24 3.75 11 5 l 13 3"/><path stroke-linejoin="round" stroke-linecap="round" stroke-width="2" stroke="rgb(52, 58, 64)" fill="none" d="M 160 63 c -0.05 0.11 -2.55 3.99 -3 6 c -0.8 3.62 -1.89 10.21 -1 12 c 0.52 1.04 4.98 0.61 7 0 c 4.14 -1.24 11.42 -6.13 13 -6 c 0.78 0.07 -1.67 5.94 -1 7 c 0.57 0.92 4.48 1.66 6 1 c 6.95 -3.01 15.87 -9.68 24 -14 c 2.5 -1.33 5.32 -2.46 8 -3 c 3.77 -0.75 8.9 -1.69 12 -1 c 2.01 0.45 4.77 3.24 6 5 c 0.8 1.15 1 3.47 1 5 c 0 1.24 -1.09 2.76 -1 4 c 0.22 3.06 1.56 6.68 2 10 c 0.22 1.63 0.61 3.71 0 5 l -8 12"/><path stroke-linejoin="round" stroke-linecap="round" stroke-width="2" stroke="rgb(52, 58, 64)" fill="none" d="M 169 51 l 1 1"/><path stroke-linejoin="round" stroke-linecap="round" stroke-width="2" stroke="rgb(52, 58, 64)" fill="none" d="M 280 50 c 0.07 -0.07 2.48 -3.42 4 -4 c 4.7 -1.79 13.25 -3.8 17 -4 c 0.77 -0.04 1.22 2.22 2 3 c 0.78 0.78 2.7 1.19 3 2 c 0.51 1.35 0.46 4.17 0 6 c -1.45 5.78 -4.25 11.87 -6 18 c -0.94 3.3 -1.06 6.8 -2 10 c -0.7 2.39 -3.53 6.82 -3 7 c 0.72 0.24 6.76 -2.91 9 -5 c 2.35 -2.19 3.68 -6.4 6 -9 c 2.88 -3.24 6.46 -6.14 10 -9 c 3.58 -2.9 7.23 -5.69 11 -8 c 2.11 -1.29 5.34 -3 7 -3 c 0.92 0 2.75 2.01 3 3 c 0.3 1.19 -1.16 3.6 -1 5 c 0.14 1.23 1.08 3.75 2 4 c 1.87 0.51 6.19 -0.21 9 -1 c 5.3 -1.49 10.67 -4.38 16 -6 c 2.2 -0.67 4.64 -0.82 7 -1 c 2 -0.15 4.24 -0.35 6 0 c 1.31 0.26 3.12 1.12 4 2 c 0.88 0.88 1.16 3 2 4 c 0.67 0.81 2 1.75 3 2 c 1.38 0.34 3.49 0.41 5 0 c 5.43 -1.48 11.32 -4.34 17 -6 c 2.23 -0.65 5.04 -1.39 7 -1 c 2.48 0.5 6.34 2.34 8 4 c 1.17 1.17 1.01 4.27 2 6 c 1.56 2.73 3.84 7.61 6 8 c 3.56 0.65 11.03 -2.16 16 -4 c 3.78 -1.4 7.5 -3.71 11 -6 c 4.2 -2.74 7.77 -6.34 12 -9 c 4.79 -3.02 13.57 -8.12 15 -8 c 0.8 0.07 -3 7.06 -3 9 c 0 0.74 1.98 1.89 3 2 c 4.53 0.48 11.1 0.47 16 0 c 1.65 -0.16 3.51 -2 5 -2 c 2.01 0 4.87 1.15 7 2 c 1.06 0.42 2.35 1.13 3 2 c 2.1 2.81 4.5 6.62 6 10 l 2 8"/><path stroke-linejoin="round" stroke-linecap="round" stroke-width="2" stroke="rgb(52, 58, 64)" fill="none" d="M 472 43 l 1 1"/></svg>