<?xml version="1.0" encoding="UTF-8" standalone="no"?><!DOCTYPE svg PUBLIC "-//W3C//DTD SVG 1.1//EN" "http://www.w3.org/Graphics/SVG/1.1/DTD/svg11.dtd"><svg xmlns="http://www.w3.org/2000/svg" version="1.1" width="467" height="194"><path stroke-linejoin="round" stroke-linecap="round" stroke-width="2" stroke="rgb(52, 58, 64)" fill="none" d="M 439 79 c 0.02 -0.12 0.37 -4.75 1 -7 c 1.69 -6.03 3.72 -11.91 6 -18 c 2.86 -7.62 6.55 -14.48 9 -22 c 2.22 -6.83 2.79 -14.36 5 -21 c 1.38 -4.13 6 -12 6 -12"/><path stroke-linejoin="round" stroke-linecap="round" stroke-width="2" stroke="rgb(52, 58, 64)" fill="none" d="M 50 37 l 1 1"/><path stroke-linejoin="round" stroke-linecap="round" stroke-width="2" stroke="rgb(52, 58, 64)" fill="none" d="M 29 115 l 1 1"/><path stroke-linejoin="round" stroke-linecap="round" stroke-width="2" stroke="rgb(52, 58, 64)" fill="none" d="M 114 114 l 1 1"/><path stroke-linejoin="round" stroke-linecap="round" stroke-width="2" stroke="rgb(52, 58, 64)" fill="none" d="M 150 42 l 1 1"/><path stroke-linejoin="round" stroke-linecap="round" stroke-width="2" stroke="rgb(52, 58, 64)" fill="none" d="M 74 72 l 1 1"/><path stroke-linejoin="round" stroke-linecap="round" stroke-width="2" stroke="rgb(52, 58, 64)" fill="none" d="M 68 41 l -9 1"/><path stroke-linejoin="round" stroke-linecap="round" stroke-width="2" stroke="rgb(52, 58, 64)" fill="none" d="M 1 84 l 1 1"/><path stroke-linejoin="round" stroke-linecap="round" stroke-width="2" stroke="rgb(52, 58, 64)" fill="none" d="M 24 112 l 1 1"/><path stroke-linejoin="round" stroke-linecap="round" stroke-width="2" stroke="rgb(52, 58, 64)" fill="none" d="M 153 64 l 1 1"/><path stroke-linejoin="round" stroke-linecap="round" stroke-width="2" stroke="rgb(52, 58, 64)" fill="none" d="M 80 44 c -0.4 0.16 -15.89 5.56 -23 9 c -2.88 1.39 -5.97 3.6 -8 6 c -4.96 5.87 -10.18 13.64 -14 20 c -0.8 1.33 -1.31 3.93 -1 5 c 0.22 0.76 2.93 1.22 3 2 c 0.18 1.98 -1.82 6.15 -2 9 c -0.14 2.19 0.6 4.6 1 7 c 0.29 1.73 0.38 3.6 1 5 c 0.61 1.37 1.8 3.16 3 4 c 1.82 1.27 4.71 2.6 7 3 c 3 0.53 6.8 0.52 10 0 c 6.9 -1.11 14.15 -2.84 21 -5 c 5.83 -1.84 12.71 -3.37 17 -7 c 15.86 -13.42 32.41 -32.1 48 -48 c 0.83 -0.84 1.74 -1.96 2 -3 c 0.65 -2.61 1.31 -9 1 -9 c -0.34 0 -2.38 6.3 -4 9 c -1.28 2.14 -3.88 3.91 -5 6 c -1.05 1.95 -1.84 4.8 -2 7 c -0.15 2.14 0.45 4.78 1 7 c 0.42 1.69 0.99 3.76 2 5 c 1.73 2.11 4.76 4.88 7 6 l 5 0"/><path stroke-linejoin="round" stroke-linecap="round" stroke-width="2" stroke="rgb(52, 58, 64)" fill="none" d="M 243 37 c -0.54 0.44 -22.04 16.26 -31 25 c -3.74 3.65 -8.11 10.43 -9 14 c -0.39 1.54 2.29 5.05 4 6 c 3.46 1.92 9.67 2.47 14 4 c 1.07 0.38 2.47 1.16 3 2 c 0.93 1.48 2.1 4.19 2 6 c -0.2 3.54 -1.62 8.17 -3 12 c -1.6 4.43 -3.49 9.17 -6 13 c -2.98 4.56 -7.07 8.73 -11 13 c -3.92 4.26 -7.72 8.44 -12 12 c -3.63 3.03 -11.8 7.85 -12 8 l 4 -2"/><path stroke-linejoin="round" stroke-linecap="round" stroke-width="2" stroke="rgb(52, 58, 64)" fill="none" d="M 289 85 c -0.07 0.21 -3 7.84 -4 12 c -3.73 15.47 -6.84 30.03 -10 46 c -3.07 15.5 -4.85 34.19 -8 45 c -0.46 1.59 -4.48 3 -6 3 c -1.13 0 -3.51 -1.77 -4 -3 c -1.2 -2.99 -2 -8.11 -2 -12 c 0 -6.11 0.66 -12.89 2 -19 c 1.62 -7.38 3.63 -15.93 7 -22 c 2.79 -5.03 8.76 -9.02 13 -14 c 7.41 -8.72 13.71 -17.36 21 -26 c 1.85 -2.19 3.88 -4.27 6 -6 c 1.46 -1.19 3.47 -2.69 5 -3 c 1.34 -0.27 4.76 0.41 5 1 c 0.23 0.58 -2.24 2.55 -3 4 c -2.52 4.79 -5.67 10.57 -7 15 c -0.41 1.36 0.15 5.08 1 5 c 5 -0.5 20.22 -6.19 29 -8 c 1.49 -0.31 3.33 0.9 5 1 c 3.93 0.23 8.01 0.44 12 0 c 14.44 -1.58 28.24 -3.65 43 -6 c 9 -1.44 17.07 -3.65 26 -5 c 9.16 -1.38 18.44 -2.47 27 -3 l 5 1"/></svg>