<?xml version="1.0" encoding="UTF-8" standalone="no"?><!DOCTYPE svg PUBLIC "-//W3C//DTD SVG 1.1//EN" "http://www.w3.org/Graphics/SVG/1.1/DTD/svg11.dtd"><svg xmlns="http://www.w3.org/2000/svg" version="1.1" width="560" height="170"><path stroke-linejoin="round" stroke-linecap="round" stroke-width="2" stroke="rgb(52, 58, 64)" fill="none" d="M 328 42 c -0.02 -0.1 -1 -4.05 -1 -6 c 0 -3.22 0.41 -6.67 1 -10 c 1.09 -6.11 2.28 -11.98 4 -18 c 3.04 -10.64 6.31 -20.66 10 -31 c 1.37 -3.84 3.76 -7.28 5 -11 c 1.05 -3.14 0.99 -6.76 2 -10 c 2 -6.43 4.95 -12.47 7 -19 c 1.67 -5.32 3.1 -10.62 4 -16 c 0.76 -4.58 1.42 -10.23 1 -14 l -3 -4"/><path stroke-linejoin="round" stroke-linecap="round" stroke-width="2" stroke="rgb(52, 58, 64)" fill="none" d="M 1 56 c 0.05 0.04 2 1.78 3 2 c 1.67 0.37 4.26 0.43 6 0 c 1.94 -0.49 4.35 -1.68 6 -3 c 3.12 -2.5 6.75 -5.69 9 -9 c 3.16 -4.65 6.43 -10.75 8 -16 c 1.24 -4.12 1.23 -9.93 1 -14 c -0.07 -1.3 -1.13 -3.67 -2 -4 c -1.19 -0.44 -4.59 0.22 -6 1 c -1.16 0.64 -2.39 2.63 -3 4 c -0.62 1.4 -0.83 3.34 -1 5 c -0.16 1.63 -0.3 3.49 0 5 c 0.32 1.62 0.98 3.98 2 5 c 1.28 1.28 4.13 2.71 6 3 c 1.97 0.3 4.74 -0.37 7 -1 c 8.37 -2.35 16.95 -6.05 25 -8 c 2.45 -0.59 5.51 -0.36 8 0 c 1.97 0.28 4.65 0.95 6 2 c 1.25 0.97 2.48 3.31 3 5 c 0.72 2.34 1 5.4 1 8 c 0 2.6 -0.06 5.84 -1 8 c -1.17 2.68 -3.68 5.95 -6 8 c -3.03 2.67 -7.37 5.62 -11 7 c -2.8 1.07 -6.84 1.17 -10 1 c -2.9 -0.15 -6.04 -1.13 -9 -2 c -2.74 -0.81 -5.87 -1.48 -8 -3 c -4.42 -3.16 -12.78 -11.78 -13 -12 c -0.15 -0.15 5.78 5.8 9 8 c 3.95 2.7 8.72 5.63 13 7 c 3.49 1.12 8.19 1.18 12 1 c 2.91 -0.14 5.99 -1.16 9 -2 c 3.09 -0.86 6.24 -1.62 9 -3 c 5.09 -2.55 11.09 -7.56 15 -9 c 1 -0.37 3.27 1.13 4 2 c 0.67 0.8 0.47 2.81 1 4 c 0.75 1.69 1.81 3.54 3 5 c 1.73 2.12 3.94 4.8 6 6 c 1.48 0.86 4.24 1.25 6 1 c 2.47 -0.35 5.5 -1.75 8 -3 c 2.77 -1.38 5.44 -3.11 8 -5 c 5.21 -3.85 10.42 -9.38 15 -12 c 1.43 -0.82 4.53 -0.8 6 0 c 4.89 2.67 10.58 9.54 16 12 c 4.68 2.13 11.87 3.17 17 3 c 4.04 -0.13 8.96 -2.22 13 -4 c 4.13 -1.82 8.21 -4.36 12 -7 c 3.88 -2.7 7.88 -5.7 11 -9 c 2.68 -2.83 5 -6.51 7 -10 c 1.98 -3.46 4.07 -7.47 5 -11 c 0.62 -2.34 0.63 -5.81 0 -8 c -0.56 -1.97 -2.38 -4.65 -4 -6 c -2.01 -1.67 -5.52 -3.9 -8 -4 c -4.52 -0.19 -11.04 1.47 -16 3 c -3.41 1.05 -7.01 3.01 -10 5 c -2.84 1.9 -5.96 4.45 -8 7 c -1.71 2.14 -3.22 5.33 -4 8 c -0.79 2.7 -1.3 6.28 -1 9 c 0.32 2.85 1.61 6.37 3 9 c 1.47 2.78 3.7 5.85 6 8 c 2.8 2.63 6.62 5.48 10 7 c 2.83 1.27 6.76 1.85 10 2 c 3.51 0.17 7.49 -0.3 11 -1 c 3.02 -0.6 6.56 -1.41 9 -3 c 4.74 -3.09 10.02 -8.02 14 -12 c 0.97 -0.97 2.23 -3.77 2 -4 c -0.23 -0.23 -3.67 1.13 -4 2 c -0.44 1.19 0.24 4.47 1 6 c 0.71 1.42 2.52 3.63 4 4 c 4.19 1.05 11.16 1.65 16 1 c 4.49 -0.6 9.7 -2.78 14 -5 c 6.5 -3.35 13.73 -9.48 19 -12 c 0.97 -0.46 3.29 0.29 4 1 c 0.93 0.93 1.13 3.61 2 5 c 0.69 1.1 1.87 2.43 3 3 c 2.53 1.27 6.2 3 9 3 c 5.09 0 11.62 -1.44 17 -3 c 4.74 -1.38 9.49 -3.66 14 -6 c 4.52 -2.34 10.07 -7.85 13 -8 c 1.77 -0.09 3.75 5.67 6 7 c 2.79 1.64 7.39 2.46 11 3 c 2.85 0.43 6.07 0.37 9 0 c 4.98 -0.62 10.38 -1.23 15 -3 c 10.67 -4.08 24.31 -12.44 32 -15 c 1.09 -0.36 3.57 1.99 4 3 c 0.36 0.83 -1.13 2.85 -1 4 c 0.17 1.5 0.91 4.91 2 5 c 4.48 0.37 14.79 -1.33 22 -3 c 11.5 -2.67 22.47 -7.22 34 -10 c 6.58 -1.58 13.16 -2.26 20 -3 c 5.76 -0.62 11.42 -1.18 17 -1 c 4.63 0.15 9.61 0.82 14 2 c 4.04 1.09 8.5 2.9 12 5 c 2.86 1.72 6.68 4.5 8 7 c 1.25 2.36 1.55 7.12 1 10 c -0.66 3.46 -2.79 7.86 -5 11 l -14 16"/></svg>