<?xml version="1.0" encoding="UTF-8" standalone="no"?><!DOCTYPE svg PUBLIC "-//W3C//DTD SVG 1.1//EN" "http://www.w3.org/Graphics/SVG/1.1/DTD/svg11.dtd"><svg xmlns="http://www.w3.org/2000/svg" version="1.1" width="546" height="141"><path stroke-linejoin="round" stroke-linecap="round" stroke-width="2" stroke="rgb(52, 58, 64)" fill="none" d="M 248 13 l 1 1"/><path stroke-linejoin="round" stroke-linecap="round" stroke-width="2" stroke="rgb(52, 58, 64)" fill="none" d="M 250 21 c 0.07 -0.05 2.86 -1.86 4 -3 c 1.46 -1.46 4 -5 4 -5"/><path stroke-linejoin="round" stroke-linecap="round" stroke-width="2" stroke="rgb(52, 58, 64)" fill="none" d="M 545 13 c -0.09 -0.14 -4.22 -5.67 -5 -8 c -0.34 -1.02 0.95 -2.67 1 -4 c 0.28 -7.74 0 -24 0 -24"/><path stroke-linejoin="round" stroke-linecap="round" stroke-width="2" stroke="rgb(52, 58, 64)" fill="none" d="M 90 86 l 1 1"/><path stroke-linejoin="round" stroke-linecap="round" stroke-width="2" stroke="rgb(52, 58, 64)" fill="none" d="M 3 49 c 0.02 0.1 0.93 3.98 1 6 c 0.26 7.29 0.48 14.62 0 22 c -0.53 8.11 -3 24 -3 24"/><path stroke-linejoin="round" stroke-linecap="round" stroke-width="2" stroke="rgb(52, 58, 64)" fill="none" d="M 22 54 c -0.03 0.26 -1.72 9.89 -2 15 c -0.73 13.17 -1 26.52 -1 39 c 0 1.32 0.54 3.89 1 4 c 0.47 0.12 2.42 -1.84 3 -3 c 2.2 -4.41 5.12 -14.45 6 -15 c 0.56 -0.35 0.88 6.93 2 10 c 1.47 4.04 4.26 11.33 6 12 c 1.29 0.49 5.04 -4.51 7 -7 c 1.6 -2.03 2.84 -4.53 4 -7 c 4.26 -9.06 10.72 -26.11 12 -27 c 0.78 -0.54 0.36 12.01 1 18 c 0.36 3.39 0.9 7.07 2 10 c 0.78 2.07 2.58 5.48 4 6 c 1.43 0.52 6.03 -0.45 7 -2 c 4.36 -6.97 9.17 -20.16 13 -30 c 0.71 -1.83 0.96 -6.16 1 -6 c 0.09 0.36 0.42 9.32 1 14 c 0.42 3.4 1.06 6.8 2 10 c 0.7 2.39 1.68 5.97 3 7 c 1.04 0.81 4.49 0.63 6 0 c 1.97 -0.82 4.56 -3.08 6 -5 c 2.32 -3.09 4.25 -7.18 6 -11 c 1.95 -4.25 4.6 -12.6 5 -13 c 0.23 -0.23 -0.28 5.37 0 8 c 0.39 3.67 0.81 7.77 2 11 c 1 2.72 3 6.31 5 8 c 1.81 1.53 5.5 2.88 8 3 c 3.85 0.18 10.11 0.03 13 -2 l 14 -17"/><path stroke-linejoin="round" stroke-linecap="round" stroke-width="2" stroke="rgb(52, 58, 64)" fill="none" d="M 45 70 c 0.53 -0.07 19.93 -2.32 30 -4 c 4.12 -0.69 12 -3 12 -3"/><path stroke-linejoin="round" stroke-linecap="round" stroke-width="2" stroke="rgb(52, 58, 64)" fill="none" d="M 170 49 c 0.09 0.32 3.61 11.86 5 18 c 0.98 4.32 1.63 8.57 2 13 c 0.65 7.75 1.67 21.22 1 23 c -0.29 0.77 -5.66 -4.46 -7 -7 c -1.67 -3.17 -2.38 -7.96 -3 -12 c -0.71 -4.59 -1.33 -9.57 -1 -14 c 0.31 -4.21 1.55 -9 3 -13 c 1.12 -3.08 3.12 -6.18 5 -9 c 1.43 -2.14 3.28 -4.66 5 -6 c 0.91 -0.71 2.73 -1 4 -1 c 2.17 0 5.15 0.15 7 1 c 2.05 0.94 5.29 3.29 6 5 c 0.64 1.54 -0.39 4.73 -1 7 c -2.06 7.73 -4.86 15.22 -7 23 c -0.54 1.97 -1 4.06 -1 6 c 0 2.89 -0.33 7.19 1 9 c 1.71 2.33 6.62 4.71 10 6 c 3.24 1.23 7.56 1.79 11 2 c 1.57 0.1 3.6 -0.38 5 -1 c 1.37 -0.61 3.22 -1.82 4 -3 c 0.99 -1.49 1.92 -5.92 2 -6 c 0.06 -0.06 -1 3.42 -1 5 l 1 6"/><path stroke-linejoin="round" stroke-linecap="round" stroke-width="2" stroke="rgb(52, 58, 64)" fill="none" d="M 209 49 l -1 6"/><path stroke-linejoin="round" stroke-linecap="round" stroke-width="2" stroke="rgb(52, 58, 64)" fill="none" d="M 245 78 c -0.03 0.12 -1.86 4.77 -2 7 c -0.17 2.77 0.01 8.67 1 9 c 1.1 0.37 6.21 -3.61 8 -6 c 2.8 -3.74 4.89 -9.1 7 -14 c 4.36 -10.11 10.63 -31.03 12 -30 c 1.79 1.34 1.8 28.82 4 42 c 0.68 4.06 3.08 9.9 5 12 c 0.89 0.97 4.49 0.63 6 0 c 1.97 -0.82 4.17 -3.17 6 -5 c 2.16 -2.16 3.77 -5.07 6 -7 c 2.61 -2.26 6.76 -5.48 9 -6 c 1.04 -0.24 2.84 1.84 4 3 c 3.46 3.46 6.31 9.02 10 11 c 4.58 2.45 12.32 4.37 18 4 c 18.07 -1.19 38.69 -7.42 58 -9 c 13.16 -1.07 26.5 0.26 40 1 l 15 2"/></svg>