<?xml version="1.0" encoding="UTF-8" standalone="no"?><!DOCTYPE svg PUBLIC "-//W3C//DTD SVG 1.1//EN" "http://www.w3.org/Graphics/SVG/1.1/DTD/svg11.dtd"><svg xmlns="http://www.w3.org/2000/svg" version="1.1" width="629" height="256"><path stroke-linejoin="round" stroke-linecap="round" stroke-width="2" stroke="rgb(52, 58, 64)" fill="none" d="M 585 33 c 0.04 -0.16 1.65 -6.02 2 -9 c 0.3 -2.59 -0.3 -5.33 0 -8 c 1.72 -15.47 4.27 -30.08 6 -46 c 1.72 -15.85 2.1 -30.3 4 -46 c 1.87 -15.48 7 -45 7 -45"/><path stroke-linejoin="round" stroke-linecap="round" stroke-width="2" stroke="rgb(52, 58, 64)" fill="none" d="M 11 60 c -0.17 0.84 -7.49 33.51 -10 48 c -0.21 1.22 0.35 4.12 1 4 c 3.38 -0.64 13.32 -5.6 20 -8 c 1.58 -0.57 3.42 -1 5 -1 c 1.88 0 3.98 0.91 6 1 c 5.63 0.24 11.66 0.71 17 0 c 4.27 -0.57 8.8 -2.36 13 -4 c 3.45 -1.35 6.75 -3.12 10 -5 c 3.15 -1.82 6.81 -3.65 9 -6 c 2.09 -2.24 3.44 -5.88 5 -9 c 1.15 -2.31 2.25 -4.61 3 -7 c 0.91 -2.9 1.58 -6.03 2 -9 c 0.23 -1.61 0.55 -3.65 0 -5 c -1.54 -3.74 -4.29 -8.45 -7 -12 c -2.48 -3.25 -5.7 -6.36 -9 -9 c -6.68 -5.35 -13.79 -10.35 -21 -15 c -3.12 -2.02 -6.61 -3.75 -10 -5 c -2.79 -1.03 -6.15 -2 -9 -2 c -4.06 0 -10.6 -0.2 -13 2 c -4.17 3.83 -8.47 13.16 -11 20 c -2.95 7.99 -4.93 17.63 -6 26 c -0.52 4.09 0.03 8.96 1 13 l 6 16"/><path stroke-linejoin="round" stroke-linecap="round" stroke-width="2" stroke="rgb(52, 58, 64)" fill="none" d="M 128 80 c -0.14 0.09 -5.88 3.04 -8 5 c -1.94 1.79 -5.13 5.94 -5 7 c 0.09 0.75 4.21 1.28 6 1 c 4.01 -0.63 9.61 -3.58 13 -4 c 0.9 -0.11 2.22 1.22 3 2 c 0.78 0.78 1.16 2.37 2 3 c 1.57 1.18 3.91 2.24 6 3 c 5.23 1.9 10.79 3.05 16 5 l 8 4"/><path stroke-linejoin="round" stroke-linecap="round" stroke-width="2" stroke="rgb(52, 58, 64)" fill="none" d="M 143 86 c 0.26 0.04 10.28 0.93 15 2 c 2.37 0.54 5.21 1.57 7 3 c 2.83 2.26 5.06 6.83 8 9 c 2.95 2.18 7.22 3.95 11 5 c 7.97 2.21 17.59 4.28 25 5 c 1.84 0.18 4.41 -0.99 6 -2 c 1.78 -1.13 3.36 -3.22 5 -5 c 2.47 -2.68 5.17 -5.18 7 -8 c 1.69 -2.62 2.48 -6.61 4 -9 c 0.56 -0.87 1.92 -1.57 3 -2 c 7.03 -2.81 14.84 -5.04 22 -8 l 7 -4"/><path stroke-linejoin="round" stroke-linecap="round" stroke-width="2" stroke="rgb(52, 58, 64)" fill="none" d="M 291 52 c -0.02 0.21 0.01 8.33 -1 12 c -1.54 5.6 -5.29 11.63 -7 17 c -0.46 1.46 -0.34 3.62 0 5 c 0.25 1 1.22 2.22 2 3 c 0.78 0.78 1.94 1.7 3 2 c 4.52 1.25 11.17 1.51 15 3 c 1.25 0.49 2.46 2.59 3 4 c 1 2.6 0.98 6.56 2 9 c 0.47 1.12 1.87 2.57 3 3 c 2.71 1.04 6.67 1.65 10 2 c 2.94 0.31 6.33 0.59 9 0 c 2.92 -0.65 6.34 -2.27 9 -4 c 4.81 -3.14 11.18 -6.93 14 -11 c 2.46 -3.55 3.27 -10.07 4 -15 l 0 -12"/><path stroke-linejoin="round" stroke-linecap="round" stroke-width="2" stroke="rgb(52, 58, 64)" fill="none" d="M 362 108 c 0.05 0.05 1.88 2.49 3 3 c 2.18 0.99 5.89 2.47 8 2 c 2.99 -0.66 7.82 -3.31 10 -6 c 5.71 -7.03 11.09 -17.07 16 -26 c 2.45 -4.45 4.66 -9.3 6 -14 c 1.25 -4.36 1.76 -9.28 2 -14 c 0.43 -8.34 0.27 -16.71 0 -25 c -0.07 -2.02 -0.94 -6.23 -1 -6 c -0.29 1.02 -3.81 17.87 -5 27 c -0.83 6.33 -0.87 12.45 -1 19 c -0.21 10.32 -0.37 19.77 0 30 c 0.31 8.55 2 25 2 25"/><path stroke-linejoin="round" stroke-linecap="round" stroke-width="2" stroke="rgb(52, 58, 64)" fill="none" d="M 432 102 c 0.12 -0.02 4.68 -1 7 -1 c 6.25 0 12.64 0.36 19 1 c 3.74 0.37 7.61 0.93 11 2 c 2.72 0.86 5.99 2.33 8 4 c 1.62 1.35 2.99 3.99 4 6 c 0.57 1.15 0.69 2.61 1 4 c 0.38 1.72 1.17 3.67 1 5 c -0.12 0.94 -1.88 2.06 -2 3 c -0.17 1.33 0.16 4.16 1 5 c 1.04 1.04 4.09 2.14 6 2 c 23.05 -1.69 50.63 -4.98 76 -8 c 2.74 -0.33 5.42 -2.06 8 -2 c 11.32 0.26 24.49 3.21 36 3 c 6.5 -0.12 20 -4 20 -4"/><path stroke-linejoin="round" stroke-linecap="round" stroke-width="2" stroke="rgb(52, 58, 64)" fill="none" d="M 354 44 l 1 1"/></svg>