<?xml version="1.0" encoding="UTF-8" standalone="no"?><!DOCTYPE svg PUBLIC "-//W3C//DTD SVG 1.1//EN" "http://www.w3.org/Graphics/SVG/1.1/DTD/svg11.dtd"><svg xmlns="http://www.w3.org/2000/svg" version="1.1" width="463" height="218"><path stroke-linejoin="round" stroke-linecap="round" stroke-width="2" stroke="rgb(52, 58, 64)" fill="none" d="M 19 38 c -0.09 0.19 -4.32 7.28 -5 11 c -1.85 10.19 -1.64 21.74 -3 33 c -1.04 8.61 -3.08 16.5 -4 25 c -0.77 7.06 -1.18 14.03 -1 21 c 0.15 5.68 2 11.65 2 17 c 0 2.88 -2 9 -2 9"/><path stroke-linejoin="round" stroke-linecap="round" stroke-width="2" stroke="rgb(52, 58, 64)" fill="none" d="M 62 2 c 0.03 0.23 1.57 8.56 2 13 c 0.59 6.09 1.2 12.14 1 18 c -0.13 3.96 -0.81 8.21 -2 12 c -2.42 7.7 -5.31 15.98 -9 23 c -2.78 5.28 -7.04 10.42 -11 15 c -2.26 2.62 -5.2 4.8 -8 7 c -1.9 1.49 -3.87 2.93 -6 4 c -5.16 2.58 -10.74 5.38 -16 7 c -3.03 0.93 -7.9 1.53 -10 1 c -0.94 -0.23 -2.3 -3.11 -2 -4 c 0.47 -1.41 3.18 -3.88 5 -5 c 2.2 -1.35 5.32 -2.4 8 -3 c 3.15 -0.7 6.98 -1.41 10 -1 c 3.8 0.52 8.24 2.5 12 4 c 1.07 0.43 2.37 1.16 3 2 c 1.18 1.57 2.54 3.94 3 6 c 1.45 6.51 1.54 14.68 3 21 c 0.4 1.74 1.67 3.82 3 5 c 4.25 3.78 9.92 7.52 15 11 c 1.22 0.84 2.69 1.74 4 2 c 1.76 0.35 4.54 0.58 6 0 c 1.38 -0.55 3.08 -2.51 4 -4 c 1.6 -2.59 3.25 -5.92 4 -9 c 1.84 -7.61 3.21 -16.64 4 -24 c 0.13 -1.25 -0.99 -4.13 -1 -4 c -0.07 0.96 -1.87 21.66 -1 31 c 0.36 3.91 3.24 10.4 5 12 c 0.86 0.78 4.92 -0.7 6 -2 c 3.15 -3.78 6.73 -10.47 9 -16 c 2.97 -7.25 4.93 -15.16 7 -23 c 0.96 -3.64 0.78 -7.86 2 -11 c 0.94 -2.41 3.23 -5.01 5 -7 c 0.74 -0.83 1.96 -1.65 3 -2 c 1.75 -0.58 4.92 -1.54 6 -1 c 0.96 0.48 2.24 3.52 2 5 c -1.19 7.4 -5.06 17.28 -7 26 c -0.72 3.26 -1 6.87 -1 10 c 0 1.28 0.56 2.69 1 4 c 0.57 1.71 1.03 3.76 2 5 c 1.15 1.48 3.25 3.12 5 4 c 1.99 1 5.01 2.14 7 2 c 2.08 -0.15 5.23 -1.51 7 -3 c 4.1 -3.45 9.06 -8.27 12 -13 c 4.39 -7.06 7.84 -15.68 11 -24 c 4.27 -11.26 7.34 -22.23 11 -34 c 1.17 -3.75 2.29 -7.22 3 -11 c 1.65 -8.72 3.33 -17.51 4 -26 c 0.31 -3.89 -0.2 -8.38 -1 -12 c -0.45 -2.01 -2.21 -6 -3 -6 c -0.84 0 -2.94 3.88 -4 6 c -1.91 3.82 -3.92 7.88 -5 12 c -2.54 9.71 -5.22 20 -6 30 c -1.2 15.37 -0.43 30.94 0 47 c 0.25 9.25 1.61 17.76 2 27 c 0.3 7.17 0.08 20.5 0 21 c -0.04 0.22 -1.63 -5.96 -2 -9 c -0.64 -5.29 -1 -10.59 -1 -16 c 0 -7.1 0.29 -14.14 1 -21 c 0.28 -2.69 1.03 -5.46 2 -8 c 1.68 -4.4 3.75 -8.96 6 -13 c 1 -1.81 2.5 -3.5 4 -5 c 2.48 -2.48 5.5 -6.26 8 -7 c 2.17 -0.64 6.16 1.13 9 2 c 1.38 0.42 2.99 1.13 4 2 c 1.13 0.97 2.41 2.59 3 4 c 0.97 2.33 1.74 5.35 2 8 c 0.39 3.85 0.43 8.33 0 12 c -0.19 1.65 -1.09 3.53 -2 5 c -1.68 2.73 -3.89 5.89 -6 8 c -0.94 0.94 -2.71 1.91 -4 2 c -3.18 0.21 -10.83 -2.11 -11 -1 c -0.26 1.67 5.72 9.4 9 14 c 3.51 4.92 7.16 9.68 11 14 c 1.38 1.55 3.37 3.35 5 4 c 1.28 0.51 3.54 0.32 5 0 c 1.3 -0.29 3 -1.16 4 -2 l 2 -3"/><path stroke-linejoin="round" stroke-linecap="round" stroke-width="2" stroke="rgb(52, 58, 64)" fill="none" d="M 280 145 c -0.05 -0.05 -2.36 -1.85 -3 -3 c -2.5 -4.5 -5.24 -9.88 -7 -15 c -1.86 -5.4 -3.25 -11.29 -4 -17 c -0.9 -6.87 -1.48 -14.09 -1 -21 c 0.84 -11.94 2.62 -24.1 5 -36 c 1.64 -8.18 4.23 -16.08 7 -24 c 1.94 -5.53 4.15 -11.08 7 -16 c 3.04 -5.24 7.11 -10.42 11 -15 c 1.63 -1.92 3.92 -3.79 6 -5 c 1.69 -0.98 4.14 -1.84 6 -2 c 1.79 -0.15 4.56 0.08 6 1 c 2.67 1.72 6.1 5.03 8 8 c 3.15 4.93 6.15 11.44 8 17 c 0.99 2.98 1.11 6.7 1 10 c -0.22 6.92 -0.19 15.04 -2 21 c -1.23 4.07 -5.02 8.46 -8 12 c -2.2 2.61 -5.18 5.17 -8 7 c -2.62 1.69 -5.9 2.92 -9 4 c -3.58 1.25 -7.28 2.26 -11 3 c -2.95 0.59 -6.07 1 -9 1 c -2.61 0 -5.57 -0.23 -8 -1 c -3.64 -1.15 -8.22 -3.01 -11 -5 c -1.34 -0.96 -2.69 -3.47 -3 -5 l 1 -5"/><path stroke-linejoin="round" stroke-linecap="round" stroke-width="2" stroke="rgb(52, 58, 64)" fill="none" d="M 294 118 c 0.07 0.11 2.41 4.7 4 6 c 1.68 1.38 4.65 2.37 7 3 c 2.48 0.66 5.39 1 8 1 c 2.93 0 6.49 -0.03 9 -1 c 2.99 -1.16 6.97 -3.65 9 -6 c 1.85 -2.14 3.68 -6.3 4 -9 c 0.27 -2.26 -1.12 -5.58 -2 -8 c -0.38 -1.06 -1.2 -2.2 -2 -3 c -1.1 -1.1 -2.69 -2.8 -4 -3 c -2.38 -0.37 -6.1 0.42 -9 1 c -2.02 0.4 -4.48 0.88 -6 2 c -3.06 2.25 -6.27 5.85 -9 9 c -1.55 1.79 -2.88 3.89 -4 6 c -1.53 2.88 -3.25 6 -4 9 c -0.84 3.36 -1.65 8.08 -1 11 c 0.51 2.27 3.09 5.41 5 7 c 1.69 1.41 4.8 2.71 7 3 c 2.33 0.31 5.78 -0.08 8 -1 c 2.98 -1.23 6.25 -3.76 9 -6 c 2.52 -2.05 4.52 -4.9 7 -7 c 1.81 -1.53 4.44 -2.35 6 -4 c 3.85 -4.07 7.8 -9.32 11 -14 c 0.97 -1.41 0.99 -3.71 2 -5 c 2.4 -3.05 5.95 -6.42 9 -9 c 1.07 -0.91 2.77 -1.86 4 -2 c 1.4 -0.16 3.97 0.26 5 1 c 0.9 0.65 2.16 2.78 2 4 c -0.97 7.52 -4.39 18.14 -6 27 c -0.35 1.92 -0.48 4.4 0 6 c 0.4 1.33 1.87 3.5 3 4 c 1.35 0.6 4.4 0.67 6 0 c 4.06 -1.71 8.92 -5.03 13 -8 c 3.22 -2.34 6.15 -5.15 9 -8 c 2.18 -2.18 3.79 -4.92 6 -7 c 3.07 -2.88 8.16 -7.39 10 -8 c 0.64 -0.21 2.54 3.28 2 4 c -2.24 2.98 -9.94 7.73 -14 12 c -2.38 2.5 -4.37 5.94 -6 9 c -0.95 1.79 -2.28 4.59 -2 6 c 0.25 1.26 2.62 3.45 4 4 c 1.46 0.58 4.15 0.37 6 0 c 2.92 -0.58 6.16 -1.78 9 -3 c 1.75 -0.75 3.46 -1.82 5 -3 c 4.13 -3.16 8.3 -6.55 12 -10 c 1.18 -1.11 2.45 -2.62 3 -4 c 0.67 -1.68 1.32 -4.55 1 -6 c -0.22 -1.01 -2.53 -3.31 -3 -3 c -0.84 0.56 -2.69 4.82 -3 7 c -0.29 2.02 0.45 4.78 1 7 c 0.42 1.69 1.06 3.9 2 5 c 0.78 0.91 2.79 2 4 2 c 2.24 0 5.56 -1.06 8 -2 c 1.73 -0.66 3.7 -1.7 5 -3 c 4.42 -4.42 9.26 -9.81 13 -15 c 2.1 -2.92 5.04 -10.19 5 -10 c -0.07 0.36 -4.02 13.74 -7 20 c -3.28 6.9 -8.6 13.21 -12 20 c -1.84 3.68 -2.28 8.24 -4 12 c -1.89 4.13 -4.89 7.78 -7 12 c -4.69 9.38 -8.16 19.48 -13 28 l -8 9"/><path stroke-linejoin="round" stroke-linecap="round" stroke-width="2" stroke="rgb(52, 58, 64)" fill="none" d="M 116 24 c -0.09 -0.05 -3.37 -2.56 -5 -3 c -1.68 -0.46 -4.11 -0.29 -6 0 c -2.3 0.35 -4.84 1.07 -7 2 c -2.39 1.03 -4.97 2.4 -7 4 c -2.49 1.96 -5.1 4.53 -7 7 c -1.28 1.67 -2.55 4.05 -3 6 c -0.47 2.03 -0.47 4.97 0 7 c 0.45 1.95 1.76 4.3 3 6 c 1.31 1.8 3.14 3.84 5 5 c 3.18 1.99 7.6 4.56 11 5 c 3.43 0.45 8.55 -0.92 12 -2 c 1.42 -0.44 3.41 -1.83 4 -3 c 0.83 -1.66 1.14 -4.83 1 -7 c -0.17 -2.53 -1.06 -5.49 -2 -8 c -1.02 -2.73 -2.34 -5.73 -4 -8 c -1.84 -2.51 -4.52 -5.23 -7 -7 c -1.91 -1.36 -4.76 -2.76 -7 -3 l -12 1"/></svg>