<?xml version="1.0" encoding="UTF-8" standalone="no"?><!DOCTYPE svg PUBLIC "-//W3C//DTD SVG 1.1//EN" "http://www.w3.org/Graphics/SVG/1.1/DTD/svg11.dtd"><svg xmlns="http://www.w3.org/2000/svg" version="1.1" width="554" height="138"><path stroke-linejoin="round" stroke-linecap="round" stroke-width="2" stroke="rgb(52, 58, 64)" fill="none" d="M 9 37 l 1 1"/><path stroke-linejoin="round" stroke-linecap="round" stroke-width="2" stroke="rgb(52, 58, 64)" fill="none" d="M 39 111 l 8 -23"/><path stroke-linejoin="round" stroke-linecap="round" stroke-width="2" stroke="rgb(52, 58, 64)" fill="none" d="M 99 61 l 1 1"/><path stroke-linejoin="round" stroke-linecap="round" stroke-width="2" stroke="rgb(52, 58, 64)" fill="none" d="M 119 93 c 0 -0.12 -0.3 -4.76 0 -7 c 0.35 -2.64 0.85 -5.7 2 -8 c 2.01 -4.02 5.02 -8.32 8 -12 c 2.63 -3.24 6.11 -5.77 9 -9 c 5.63 -6.31 10.26 -12.79 16 -19 c 6.53 -7.08 20 -20 20 -20"/><path stroke-linejoin="round" stroke-linecap="round" stroke-width="2" stroke="rgb(52, 58, 64)" fill="none" d="M 1 34 c 0.1 0.09 5.26 2.99 6 5 c 2.41 6.57 4.68 16.75 5 25 c 0.66 17.16 -4.83 51.12 -2 53 c 2.41 1.61 16.74 -25.25 26 -37 c 4.34 -5.51 9.72 -9.9 15 -15 c 4.75 -4.59 9.05 -8.97 14 -13 c 4.1 -3.34 8.57 -6.47 13 -9 c 2.39 -1.37 5.41 -2.44 8 -3 c 1.82 -0.39 4.24 -0.35 6 0 c 1.31 0.26 2.98 1.09 4 2 c 2.09 1.88 4.93 4.5 6 7 c 1.66 3.88 2.06 9.14 3 14 c 1.13 5.86 2.82 11.59 3 17 c 0.14 4.12 -1.74 8.63 -2 13 c -0.4 6.65 -0.26 13.45 0 20 c 0.07 1.67 0.26 4.51 1 5 c 0.74 0.49 4.51 -0.12 5 -1 c 0.77 -1.38 -0.59 -5.56 0 -8 c 1.63 -6.76 3.85 -14.4 7 -21 c 7.12 -14.94 15.28 -29.62 24 -44 c 4.73 -7.81 10.19 -15.07 16 -22 c 4.53 -5.41 9.71 -11.17 15 -15 l 14 -6"/><path stroke-linejoin="round" stroke-linecap="round" stroke-width="2" stroke="rgb(52, 58, 64)" fill="none" d="M 132 84 c 0.12 0 4.69 0.24 7 0 c 4.01 -0.42 8.01 -1 12 -2 c 10.9 -2.72 21.35 -5.39 32 -9 c 10.35 -3.51 20.29 -7.32 30 -12 c 8.35 -4.02 17.32 -8.65 24 -14 c 4.28 -3.43 8.23 -9.19 11 -14 c 1.97 -3.41 4 -8.62 4 -12 c 0 -2.64 -2.53 -7.69 -4 -9 c -0.76 -0.68 -3.5 0.33 -5 1 c -14.34 6.44 -32.13 12.52 -44 21 c -7.45 5.32 -14.7 15.73 -19 24 c -3.79 7.28 -6.25 17.6 -7 26 c -0.84 9.38 -1.02 23.46 2 30 c 1.84 3.99 10.72 8.26 16 9 c 11.79 1.65 41 -1 41 -1"/><path stroke-linejoin="round" stroke-linecap="round" stroke-width="2" stroke="rgb(52, 58, 64)" fill="none" d="M 193 83 c 0.09 0.02 3.41 1.14 5 1 c 9.45 -0.81 20.12 -1.85 30 -4 c 13.23 -2.88 26.23 -6.42 39 -11 c 13.41 -4.81 27.41 -10.16 39 -17 c 7.92 -4.68 16.88 -12.37 22 -19 c 2.95 -3.82 4.38 -11.26 5 -16 c 0.27 -2.06 -0.98 -7.28 -2 -7 c -3.76 1.05 -14.99 9.53 -23 14 c -6.65 3.71 -14.48 5.52 -20 10 c -16.58 13.45 -31.86 30.25 -49 46 c -8.49 7.81 -24.41 21.52 -25 22 c -0.09 0.07 1.8 -3.73 3 -4 c 3.61 -0.8 15 0 15 0"/><path stroke-linejoin="round" stroke-linecap="round" stroke-width="2" stroke="rgb(52, 58, 64)" fill="none" d="M 334 125 l 1 1"/><path stroke-linejoin="round" stroke-linecap="round" stroke-width="2" stroke="rgb(52, 58, 64)" fill="none" d="M 247 137 l 1 1"/><path stroke-linejoin="round" stroke-linecap="round" stroke-width="2" stroke="rgb(52, 58, 64)" fill="none" d="M 314 125 c 0.03 -0.12 0.97 -4.95 2 -7 c 1.53 -3.05 4.25 -5.89 6 -9 c 1.23 -2.19 1.77 -4.9 3 -7 c 1.03 -1.77 2.95 -3.26 4 -5 c 0.88 -1.46 2.11 -4.78 2 -5 c -0.09 -0.17 -2.39 1.93 -3 3 c -0.59 1.04 -1 2.75 -1 4 l 1 6"/><path stroke-linejoin="round" stroke-linecap="round" stroke-width="2" stroke="rgb(52, 58, 64)" fill="none" d="M 378 83 c -0.07 0.05 -3.42 1.76 -4 3 c -1.43 3.07 -2.31 8.07 -3 12 c -0.28 1.59 -0.44 3.68 0 5 c 0.44 1.32 1.77 3.34 3 4 c 2.57 1.38 7.32 3.89 10 3 c 15.75 -5.25 44.89 -20.79 56 -25 c 0.65 -0.25 2.34 2.28 2 3 c -2.27 4.74 -12.15 18.2 -13 20 c -0.15 0.31 3.3 -0.22 4 -1 c 1.51 -1.7 2.18 -5.97 4 -8 c 3.46 -3.87 8.37 -7.6 13 -11 c 6.86 -5.04 19.29 -13.28 21 -14 c 0.43 -0.18 -1.05 4.24 -2 6 c -1.29 2.4 -3.61 4.57 -5 7 c -1.23 2.16 -2.84 4.96 -3 7 c -0.13 1.7 1 4.67 2 6 c 0.7 0.94 2.81 2.08 4 2 c 2.77 -0.2 6.74 -1.72 10 -3 c 6.16 -2.42 11.92 -5.02 18 -8 c 12.14 -5.96 23.21 -11.5 35 -18 c 8.06 -4.45 23 -14 23 -14"/></svg>