<?xml version="1.0" encoding="UTF-8" standalone="no"?><!DOCTYPE svg PUBLIC "-//W3C//DTD SVG 1.1//EN" "http://www.w3.org/Graphics/SVG/1.1/DTD/svg11.dtd"><svg xmlns="http://www.w3.org/2000/svg" version="1.1" width="338" height="78"><path stroke-linejoin="round" stroke-linecap="round" stroke-width="2" stroke="rgb(52, 58, 64)" fill="none" d="M 1 48 c 0.09 -0.05 3.26 -2.48 5 -3 c 4.57 -1.37 9.85 -2.22 15 -3 c 6.09 -0.92 11.9 -1.95 18 -2 c 35.68 -0.29 69.42 0.1 106 1 c 19.7 0.48 37.27 2.35 57 3 c 22.47 0.74 42.36 0.77 65 1 c 11.49 0.12 21.87 0.56 33 0 c 9.16 -0.46 19.28 -0.91 27 -3 c 3.47 -0.94 8.62 -4.55 10 -7 c 1.02 -1.82 -0.03 -6.49 -1 -9 c -1.16 -2.99 -3.74 -6.39 -6 -9 c -1.93 -2.23 -4.5 -4.24 -7 -6 c -3.16 -2.23 -6.61 -5 -10 -6 c -4.97 -1.47 -11.18 -1.72 -17 -2 c -22.11 -1.08 -42.77 -1.75 -65 -2 c -8.21 -0.09 -15.95 0.18 -24 1 c -8.49 0.87 -17.5 1.77 -25 4 c -4.11 1.22 -9.08 4.08 -12 7 c -3.5 3.5 -6.84 9.09 -9 14 c -3.69 8.4 -5.31 18.97 -9 27 c -1.66 3.62 -5.17 7.37 -8 10 c -1.48 1.38 -3.93 2.41 -6 3 c -4.71 1.35 -10.03 2.81 -15 3 c -12.02 0.46 -24.57 0.19 -37 -1 c -19.34 -1.85 -37.9 -5.57 -57 -8 c -1.99 -0.25 -6.11 0.04 -6 0 c 0.21 -0.08 7.28 -1.72 11 -2 c 9.66 -0.72 19.16 -0.34 29 -1 c 5.47 -0.36 10.58 -1.77 16 -2 c 10.75 -0.45 21.31 -0.93 32 0 c 20.22 1.76 39.16 5.64 60 8 c 34.25 3.88 67.27 6.14 99 10 l 8 3"/></svg>