<?xml version="1.0" encoding="UTF-8" standalone="no"?><!DOCTYPE svg PUBLIC "-//W3C//DTD SVG 1.1//EN" "http://www.w3.org/Graphics/SVG/1.1/DTD/svg11.dtd"><svg xmlns="http://www.w3.org/2000/svg" version="1.1" width="252" height="36"><path stroke-linejoin="round" stroke-linecap="round" stroke-width="2" stroke="rgb(52, 58, 64)" fill="none" d="M 1 1 c 0.23 0.14 8.47 5.73 13 8 c 5.46 2.73 11.1 4.88 17 7 c 7.41 2.66 14.47 5.35 22 7 c 13.9 3.04 27.52 5.01 42 7 c 12.99 1.79 24.99 3.13 38 4 c 12.61 0.84 24.27 1 37 1 c 12.73 0 24.58 -0.03 37 -1 c 9.16 -0.72 17.96 -2.33 27 -4 c 3.78 -0.7 7.47 -1.76 11 -3 l 6 -3"/></svg>