<?xml version="1.0" encoding="UTF-8" standalone="no"?><!DOCTYPE svg PUBLIC "-//W3C//DTD SVG 1.1//EN" "http://www.w3.org/Graphics/SVG/1.1/DTD/svg11.dtd"><svg xmlns="http://www.w3.org/2000/svg" version="1.1" width="425" height="109"><path stroke-linejoin="round" stroke-linecap="round" stroke-width="2" stroke="rgb(52, 58, 64)" fill="none" d="M 1 39 c 0.16 -0.37 6.34 -13.78 9 -21 c 2.06 -5.6 4.56 -16.05 5 -17 c 0.1 -0.22 0.94 2.67 1 4 c 0.27 6.45 -0.27 13.55 0 20 c 0.06 1.33 0.44 2.87 1 4 c 0.68 1.37 1.9 2.9 3 4 c 0.8 0.8 1.94 1.75 3 2 c 5.38 1.28 13.03 1.21 18 3 c 2.51 0.9 4.6 4.4 7 6 c 1.4 0.94 3.28 1.59 5 2 c 5.2 1.24 12.12 0.62 16 3 c 5.23 3.2 9.85 11.09 15 16 c 1.69 1.61 3.86 3.06 6 4 c 6 2.64 12.65 4.97 19 7 c 1.91 0.61 4.16 0.33 6 1 c 5.29 1.92 10.58 4.97 16 7 l 8 2"/><path stroke-linejoin="round" stroke-linecap="round" stroke-width="2" stroke="rgb(52, 58, 64)" fill="none" d="M 170 39 c 0.03 0.09 1.08 3.5 2 5 c 3.68 6.04 7.67 12.22 12 18 c 2.7 3.59 6.22 6.42 9 10 c 4.3 5.53 7.5 12 12 17 c 4.29 4.77 9.72 10.05 15 13 c 5.3 2.96 19 6 19 6"/><path stroke-linejoin="round" stroke-linecap="round" stroke-width="2" stroke="rgb(52, 58, 64)" fill="none" d="M 276 10 c 0.04 0.42 0.72 16.32 2 24 c 0.67 4.04 2.44 7.97 4 12 c 2.54 6.56 4.84 13.52 8 19 c 1.52 2.63 4.52 6.21 7 7 c 3.75 1.19 10.17 0.25 15 0 c 1.33 -0.07 2.78 -1 4 -1 c 1.22 0 2.88 0.39 4 1 c 2.33 1.27 4.54 3.83 7 5 c 3.62 1.72 8.36 3.36 12 4 c 1.47 0.26 3.74 -0.18 5 -1 c 3.86 -2.5 7.85 -8 12 -10 c 4.06 -1.95 10.02 -2.38 15 -3 c 2.93 -0.37 5.95 -0.16 9 0 c 3.4 0.18 6.84 0.14 10 1 c 11.25 3.07 34 11 34 11"/></svg>