<?xml version="1.0" encoding="UTF-8" standalone="no"?><!DOCTYPE svg PUBLIC "-//W3C//DTD SVG 1.1//EN" "http://www.w3.org/Graphics/SVG/1.1/DTD/svg11.dtd"><svg xmlns="http://www.w3.org/2000/svg" version="1.1" width="544" height="275"><path stroke-linejoin="round" stroke-linecap="round" stroke-width="2" stroke="rgb(52, 58, 64)" fill="none" d="M 474 29 c 0.04 -0.17 1.09 -6.65 2 -10 c 3.17 -11.63 5.48 -23.24 10 -34 c 6.73 -16.02 16.55 -31.07 24 -47 c 2.23 -4.77 3.01 -10.11 5 -15 c 1.69 -4.15 3.7 -8.09 6 -12 c 4.48 -7.61 9.92 -14.39 14 -22 c 3.23 -6.02 8 -19 8 -19"/><path stroke-linejoin="round" stroke-linecap="round" stroke-width="2" stroke="rgb(52, 58, 64)" fill="none" d="M 342 108 c -0.04 -0.05 -1.84 -1.95 -2 -3 c -1.03 -6.71 -1.82 -15.14 -2 -23 c -0.5 -21.78 -1.08 -42.21 0 -64 c 1.65 -33.48 8 -98 8 -98"/><path stroke-linejoin="round" stroke-linecap="round" stroke-width="2" stroke="rgb(52, 58, 64)" fill="none" d="M 38 50 c -0.07 0.02 -2.82 0.41 -4 1 c -5.26 2.63 -11.46 5.4 -16 9 c -4.72 3.75 -9.39 9.26 -13 14 c -1.44 1.89 -2.53 4.66 -3 7 c -0.8 4.01 -1.22 9.11 -1 13 c 0.09 1.61 0.97 3.77 2 5 c 2.02 2.43 5.37 5.25 8 7 c 1.02 0.68 2.75 1 4 1 c 1.85 0 4.59 -0.3 6 -1 c 0.83 -0.42 1.2 -2.2 2 -3 c 1.1 -1.1 2.99 -1.85 4 -3 c 1.18 -1.35 2.52 -3.28 3 -5 c 1.08 -3.89 1.78 -8.87 2 -13 c 0.1 -1.91 -0.3 -4.24 -1 -6 c -1.19 -2.98 -3.08 -6.69 -5 -9 c -1.09 -1.31 -3.38 -2.51 -5 -3 l -5 0"/><path stroke-linejoin="round" stroke-linecap="round" stroke-width="2" stroke="rgb(52, 58, 64)" fill="none" d="M 39 50 c 0.11 1.1 4.53 42.97 6 63 c 0.12 1.61 -0.45 4.89 -1 5 c -0.61 0.12 -2.98 -2.54 -4 -4 c -1.21 -1.73 -2.32 -3.95 -3 -6 c -0.94 -2.82 -1.56 -5.94 -2 -9 c -0.57 -3.99 -1 -8 -1 -12 c 0 -4.33 0.3 -8.77 1 -13 c 0.62 -3.7 1.41 -7.98 3 -11 c 1.48 -2.82 4.36 -5.84 7 -8 c 4.47 -3.66 9.92 -7.25 15 -10 c 2.67 -1.45 5.96 -2.24 9 -3 c 2.26 -0.57 4.98 -1.29 7 -1 c 2.18 0.31 6.76 1.94 7 3 c 0.24 1.09 -3.12 4.23 -5 6 c -4.09 3.87 -8.88 7.09 -13 11 c -2.57 2.44 -4.5 5.69 -7 8 c -1.7 1.57 -5 2.33 -6 4 c -1.58 2.64 -2.8 7.94 -3 11 c -0.08 1.2 1.11 2.98 2 4 c 1.27 1.45 3.26 2.95 5 4 c 1.46 0.88 3.79 0.93 5 2 c 3.99 3.52 8.41 8.51 12 13 c 1.64 2.04 2.89 4.6 4 7 c 0.87 1.88 1.64 4.05 2 6 c 0.28 1.55 0.3 3.49 0 5 c -0.32 1.62 -1.13 3.61 -2 5 c -0.69 1.1 -1.9 2.12 -3 3 c -2.23 1.78 -4.56 3.78 -7 5 c -2.69 1.34 -5.93 2.27 -9 3 c -3.94 0.94 -8.38 2.29 -12 2 l -13 -4"/><path stroke-linejoin="round" stroke-linecap="round" stroke-width="2" stroke="rgb(52, 58, 64)" fill="none" d="M 109 50 c 0.05 0.28 2.36 10.52 3 16 c 1.39 11.82 1.69 23.22 3 35 c 0.38 3.42 1.67 6.67 2 10 c 0.33 3.26 0.34 9.2 0 10 c -0.15 0.34 -2.44 -1.89 -3 -3 c -0.96 -1.91 -1.63 -4.62 -2 -7 c -0.96 -6.24 -1.81 -12.69 -2 -19 c -0.14 -4.63 -0.01 -10.57 1 -14 c 0.36 -1.22 3.13 -3.22 4 -3 c 1.11 0.28 3 3.19 4 5 c 2.58 4.69 4.93 9.82 7 15 c 1.98 4.95 3.8 10.18 5 15 c 0.38 1.52 0.04 5.12 0 5 c -0.13 -0.43 -3.38 -12.23 -4 -18 c -0.34 -3.14 0.22 -8.6 1 -10 c 0.32 -0.57 2.98 0.32 4 1 c 2.63 1.75 5.84 4.36 8 7 c 3.66 4.47 10 15 10 15"/><path stroke-linejoin="round" stroke-linecap="round" stroke-width="2" stroke="rgb(52, 58, 64)" fill="none" d="M 198 83 c -0.09 0 -3.52 -0.37 -5 0 c -2.25 0.56 -4.75 1.78 -7 3 c -5.82 3.16 -13.05 5.9 -17 10 c -3.85 4 -7.2 12.05 -9 17 c -0.48 1.31 0.13 4.23 1 5 c 1.25 1.09 4.88 2.11 7 2 c 3.6 -0.19 8.41 -1.6 12 -3 c 2.1 -0.81 4.3 -2.44 6 -4 c 2.17 -1.99 4.24 -4.53 6 -7 c 1.54 -2.16 2.93 -4.66 4 -7 c 0.55 -1.2 0.92 -4.2 1 -4 c 0.33 0.86 3.95 16.4 4 17 c 0.02 0.2 -2.43 -3.28 -3 -5 c -1.01 -3.02 -2.14 -6.94 -2 -10 c 0.17 -3.72 1.56 -8.72 3 -12 c 0.66 -1.5 2.56 -2.88 4 -4 c 1.49 -1.16 3.27 -2.13 5 -3 c 1.6 -0.8 3.38 -1.68 5 -2 c 1.51 -0.3 3.4 -0.18 5 0 c 1.32 0.15 2.81 0.47 4 1 c 1.69 0.75 4.33 1.8 5 3 c 0.69 1.23 0.43 4.26 0 6 c -0.49 1.94 -2.43 3.95 -3 6 c -1.03 3.71 -2.17 8.41 -2 12 c 0.13 2.8 1.21 7.32 3 9 c 2.71 2.54 8.69 5.14 13 6 c 6.63 1.33 14.87 1.38 22 1 c 5.27 -0.28 11.13 -1.52 16 -3 c 2.41 -0.73 4.88 -2.52 7 -4 c 1.11 -0.78 2.52 -1.91 3 -3 c 0.69 -1.56 1 -4.15 1 -6 c 0 -1.25 -1 -4.07 -1 -4 c 0 0.09 0.39 3.47 1 5 c 1.99 4.97 6.82 14.77 7 15 c 0.11 0.14 -2.83 -6.97 -3 -10 c -0.13 -2.39 0.93 -5.86 2 -8 c 0.73 -1.47 2.58 -2.93 4 -4 c 1.12 -0.84 2.72 -2 4 -2 c 4.88 0 11.32 1.09 17 2 c 2.73 0.44 5.65 0.88 8 2 c 4.35 2.07 9.38 4.86 13 8 c 3.7 3.22 7.35 8.14 10 12 l 1 4"/><path stroke-linejoin="round" stroke-linecap="round" stroke-width="2" stroke="rgb(52, 58, 64)" fill="none" d="M 261 122 c 1 0 37.9 0.53 57 0 c 5.07 -0.14 9.97 -1.9 15 -2 c 11.96 -0.23 25.17 0.19 36 1 c 1.34 0.1 3.87 1.49 4 2 c 0.1 0.41 -2.5 2.43 -3 2 c -2.29 -1.93 -7.6 -8.58 -10 -13 c -1.67 -3.07 -2.8 -7.94 -3 -11 c -0.08 -1.2 1.17 -4.09 2 -4 c 3.17 0.35 10.88 3.64 16 6 c 3.49 1.61 6.5 4.43 10 6 c 6.08 2.73 12.7 5.13 19 7 c 2.51 0.74 5.59 1.17 8 1 c 1.89 -0.14 4.35 -1.08 6 -2 c 1.11 -0.61 2.53 -1.88 3 -3 c 1.02 -2.44 2 -6.2 2 -9 c 0 -3.1 -1.68 -6.62 -2 -10 c -0.68 -7.3 -1.43 -15.13 -1 -22 l 3 -10"/></svg>