<?xml version="1.0" encoding="UTF-8" standalone="no"?><!DOCTYPE svg PUBLIC "-//W3C//DTD SVG 1.1//EN" "http://www.w3.org/Graphics/SVG/1.1/DTD/svg11.dtd"><svg xmlns="http://www.w3.org/2000/svg" version="1.1" width="554" height="106"><path stroke-linejoin="round" stroke-linecap="round" stroke-width="2" stroke="rgb(52, 58, 64)" fill="none" d="M 66 75 c -0.09 0 -3.49 0.3 -5 0 c -1.62 -0.32 -3.35 -1.84 -5 -2 c -4.59 -0.46 -10.23 0.43 -15 0 c -2.31 -0.21 -4.8 -1.06 -7 -2 c -4.74 -2.03 -10.29 -4.32 -14 -7 c -1.71 -1.23 -2.97 -3.93 -4 -6 c -0.91 -1.81 -2.1 -4.19 -2 -6 c 0.2 -3.54 1.4 -8.79 3 -12 c 1.1 -2.2 3.8 -4.49 6 -6 c 2.89 -1.99 6.52 -3.69 10 -5 c 7.19 -2.7 14.68 -5.17 22 -7 c 3.19 -0.8 6.87 -1.17 10 -1 c 2.57 0.14 5.74 0.96 8 2 c 1.76 0.81 3.99 2.42 5 4 c 1.7 2.65 4.23 7.18 4 10 c -0.33 3.98 -3.63 9.62 -6 14 c -1.9 3.51 -4.37 6.85 -7 10 c -5.79 6.95 -11.5 14.38 -18 20 c -5.43 4.7 -12.37 8.13 -19 12 c -5.67 3.31 -11.23 6.44 -17 9 c -3.13 1.39 -7.43 3 -10 3 c -1.23 0 -3.73 -2.06 -4 -3 c -0.24 -0.84 1.07 -3.42 2 -4 c 1.26 -0.79 4.24 -0.32 6 -1 c 2.34 -0.9 4.56 -3.03 7 -4 c 4.11 -1.64 8.69 -2.4 13 -4 c 4.83 -1.79 9.24 -4.52 14 -6 c 4.78 -1.48 10.47 -1.21 15 -3 c 7.68 -3.03 15.61 -7.44 23 -12 c 8.38 -5.17 23.56 -16.73 24 -17 c 0.16 -0.1 -5.73 4.42 -8 7 c -2.61 2.96 -4.96 6.61 -7 10 c -0.9 1.5 -1.68 3.38 -2 5 c -0.3 1.51 -0.51 3.72 0 5 c 0.65 1.63 2.66 4.41 4 5 c 1.06 0.47 3.73 -0.3 5 -1 c 1.41 -0.78 3.04 -2.56 4 -4 c 0.91 -1.37 2 -3.54 2 -5 c 0 -1.72 -1.08 -4.35 -2 -6 c -0.61 -1.11 -2.18 -2.86 -3 -3 c -0.7 -0.12 -2.78 1.24 -3 2 c -0.31 1.07 0.14 3.88 1 5 c 2.04 2.65 5.95 5.82 9 8 c 1.36 0.97 3.47 2.08 5 2 c 4.06 -0.21 10.55 -0.93 14 -3 c 3.92 -2.35 8.19 -7.78 11 -12 c 2.24 -3.37 4.84 -9.95 5 -12 c 0.05 -0.65 -3.44 -1.62 -4 -1 c -2.02 2.21 -5.3 8.74 -7 13 c -0.82 2.04 -1.15 4.86 -1 7 c 0.16 2.2 1.1 4.84 2 7 c 0.72 1.73 1.63 4.15 3 5 l 13 5"/><path stroke-linejoin="round" stroke-linecap="round" stroke-width="2" stroke="rgb(52, 58, 64)" fill="none" d="M 180 5 c -0.02 0.07 -1 2.7 -1 4 c 0 5.38 0.02 11.59 1 17 c 0.97 5.32 2.82 11.24 5 16 c 1.3 2.84 3.96 6.17 6 8 c 0.84 0.76 3.02 1.36 4 1 c 2.05 -0.75 4.99 -4.71 7 -5 c 1.78 -0.25 5.04 1.6 7 3 c 4.74 3.39 9.38 9.69 14 12 c 3.02 1.51 8.95 1.97 12 1 c 3.24 -1.03 7.76 -4.89 10 -8 c 3.28 -4.56 8 -17 8 -17"/><path stroke-linejoin="round" stroke-linecap="round" stroke-width="2" stroke="rgb(52, 58, 64)" fill="none" d="M 274 94 c 0.21 -0.31 8.28 -11.7 12 -18 c 4.07 -6.91 8.27 -13.91 11 -21 c 2.12 -5.52 3.93 -17.68 4 -18 c 0.04 -0.16 -1.79 6 -2 9 c -0.45 6.5 -0.38 13.31 0 20 c 0.29 5.06 0.52 10.94 2 15 c 0.9 2.48 4.28 7.25 6 7 c 3.36 -0.48 11.33 -6.03 15 -10 c 4.02 -4.34 8.13 -11.1 10 -17 c 4.16 -13.14 6.3 -28.44 9 -43 c 0.68 -3.66 1.21 -10.17 1 -11 c -0.08 -0.32 -2.31 1.86 -3 3 c -2.17 3.61 -4.28 7.86 -6 12 c -1.63 3.9 -3.33 7.96 -4 12 c -1.28 7.68 -2.42 16.83 -2 24 c 0.19 3.21 2.29 7.09 4 10 c 1.47 2.49 3.7 5.91 6 7 c 3.81 1.81 10.46 2.79 15 3 c 2.16 0.1 4.99 -0.93 7 -2 c 3.38 -1.79 6.87 -4.46 10 -7 c 2.18 -1.77 4.36 -3.81 6 -6 c 2.26 -3.01 4.43 -6.54 6 -10 c 1.7 -3.75 3.06 -7.87 4 -12 c 2.42 -10.63 4.66 -22.08 6 -32 c 0.21 -1.55 -0.45 -3.54 -1 -5 c -0.39 -1.03 -1.21 -2.82 -2 -3 c -1.55 -0.34 -5.29 0.02 -7 1 c -2.39 1.37 -5.53 4.38 -7 7 c -2.87 5.12 -5.59 11.94 -7 18 c -1.84 7.9 -3.21 17.5 -3 25 c 0.1 3.48 2.31 7.61 4 11 c 1.56 3.13 3.73 6.27 6 9 c 2.67 3.21 6.34 7.48 9 9 c 1.06 0.61 3.52 -0.38 5 -1 c 2.34 -0.97 5.49 -2.34 7 -4 c 1.42 -1.57 2.38 -6.75 3 -7 c 0.44 -0.17 1.07 4.07 2 5 c 0.71 0.71 2.7 1 4 1 c 5.06 0 12.53 -1.58 16 -1 c 0.97 0.16 1.1 3.35 2 4 c 1.03 0.74 3.6 1.16 5 1 c 1.23 -0.14 2.98 -2.2 4 -2 c 1.65 0.33 4.44 2.44 6 4 c 1.56 1.56 2.56 5.04 4 6 c 1 0.67 3.68 0.44 5 0 c 1.32 -0.44 2.57 -2.34 4 -3 c 2.71 -1.25 6.31 -2.59 9 -3 c 1.17 -0.18 2.91 0.37 4 1 c 2.64 1.54 5.56 5.39 8 6 c 2.01 0.5 5.9 -0.87 8 -2 c 1.8 -0.97 3.17 -3.52 5 -5 c 3.51 -2.85 7.42 -5.85 11 -8 c 1.09 -0.65 2.68 -0.85 4 -1 c 1.6 -0.18 3.65 -0.59 5 0 c 5.54 2.41 11.89 7.06 18 10 c 2.82 1.36 6.03 2.71 9 3 l 22 0"/><path stroke-linejoin="round" stroke-linecap="round" stroke-width="2" stroke="rgb(52, 58, 64)" fill="none" d="M 483 53 l 1 1"/><path stroke-linejoin="round" stroke-linecap="round" stroke-width="2" stroke="rgb(52, 58, 64)" fill="none" d="M 278 23 l 1 1"/></svg>