<?xml version="1.0" encoding="UTF-8" standalone="no"?><!DOCTYPE svg PUBLIC "-//W3C//DTD SVG 1.1//EN" "http://www.w3.org/Graphics/SVG/1.1/DTD/svg11.dtd"><svg xmlns="http://www.w3.org/2000/svg" version="1.1" width="349" height="81"><path stroke-linejoin="round" stroke-linecap="round" stroke-width="2" stroke="rgb(52, 58, 64)" fill="none" d="M 13 14 l 1 1"/><path stroke-linejoin="round" stroke-linecap="round" stroke-width="2" stroke="rgb(52, 58, 64)" fill="none" d="M 10 11 l 1 1"/><path stroke-linejoin="round" stroke-linecap="round" stroke-width="2" stroke="rgb(52, 58, 64)" fill="none" d="M 24 12 c -0.05 0.12 -1.72 4.86 -3 7 c -2.67 4.44 -6.3 8.42 -9 13 c -4.04 6.87 -11 21 -11 21"/><path stroke-linejoin="round" stroke-linecap="round" stroke-width="2" stroke="rgb(52, 58, 64)" fill="none" d="M 81 8 c -0.52 0.39 -19.77 15.69 -30 22 c -5.05 3.12 -11.31 5.4 -17 7 c -4.68 1.32 -10.07 1.82 -15 2 c -3.92 0.15 -8.64 -0.16 -12 -1 l -4 -3"/><path stroke-linejoin="round" stroke-linecap="round" stroke-width="2" stroke="rgb(52, 58, 64)" fill="none" d="M 20 32 l 8 16"/><path stroke-linejoin="round" stroke-linecap="round" stroke-width="2" stroke="rgb(52, 58, 64)" fill="none" d="M 42 59 c 0.26 -0.12 10.5 -4.26 15 -7 c 2.89 -1.76 8.13 -7.13 8 -7 c -0.2 0.2 -10.96 8.92 -12 11 c -0.37 0.75 3.58 3.17 5 3 c 3.17 -0.37 10.58 -5 12 -5 c 0.56 0 -1.41 4.04 -1 5 c 0.36 0.84 2.86 2.24 4 2 c 5.41 -1.13 13.72 -4.34 20 -7 c 2.14 -0.9 4.3 -2.41 6 -4 c 3.5 -3.28 6.55 -7.78 10 -11 c 1.35 -1.26 5 -3.31 5 -3 c 0 0.5 -3.53 5.19 -5 8 c -2.23 4.26 -6 13 -6 13"/><path stroke-linejoin="round" stroke-linecap="round" stroke-width="2" stroke="rgb(52, 58, 64)" fill="none" d="M 125 48 l -33 2"/><path stroke-linejoin="round" stroke-linecap="round" stroke-width="2" stroke="rgb(52, 58, 64)" fill="none" d="M 181 16 c 0.04 -0.05 1.65 -1.96 2 -3 c 0.58 -1.75 1 -4.09 1 -6 c 0 -1.91 0.02 -5.69 -1 -6 c -2.03 -0.63 -8.66 0.44 -12 2 c -5.94 2.77 -12.56 7.44 -18 12 c -6.76 5.66 -12.96 12.45 -19 19 c -1.93 2.1 -3.53 4.55 -5 7 c -1.53 2.55 -3.17 5.26 -4 8 c -1.43 4.69 -2.6 10.19 -3 15 c -0.24 2.85 0 6.84 1 9 c 0.7 1.53 3.22 3.17 5 4 c 2.91 1.36 6.88 3.2 10 3 c 11.21 -0.72 37 -6 37 -6"/><path stroke-linejoin="round" stroke-linecap="round" stroke-width="2" stroke="rgb(52, 58, 64)" fill="none" d="M 178 36 c -0.26 0.14 -10.4 5.19 -15 8 c -1.15 0.7 -2.39 1.93 -3 3 c -0.59 1.04 -1.25 3 -1 4 c 0.3 1.22 1.88 3.69 3 4 c 1.81 0.49 5.39 -0.42 8 -1 c 3.38 -0.75 8.31 -3.31 10 -3 c 0.83 0.15 0.18 4.42 1 5 c 0.96 0.69 4.47 0.73 6 0 c 4.04 -1.91 12.75 -8.88 13 -9 c 0.14 -0.07 -6.8 5.51 -7 6 c -0.11 0.27 3.52 -0.38 5 -1 c 2.34 -0.97 4.88 -2.52 7 -4 c 1.11 -0.78 1.9 -2.31 3 -3 c 1.39 -0.87 4.64 -2.24 5 -2 c 0.3 0.2 -1.16 3 -2 4 c -0.67 0.81 -2.2 1.2 -3 2 c -1.1 1.1 -3.35 3.86 -3 4 c 0.58 0.23 5.47 -1.1 8 -2 c 2.06 -0.73 4.32 -1.68 6 -3 c 4.42 -3.49 8.94 -7.62 13 -12 c 9.12 -9.82 25.51 -30.49 26 -30 c 0.5 0.5 -14.84 22.23 -22 34 c -3.4 5.59 -6.25 11.25 -9 17 c -0.9 1.89 -2.15 4.4 -2 6 c 0.13 1.47 2.02 4.58 3 5 c 0.75 0.32 2.87 -1.11 4 -2 c 5.02 -3.96 10.25 -8.5 15 -13 c 1.53 -1.45 3.2 -4.87 4 -5 c 0.56 -0.09 1.13 3.67 2 4 c 1.19 0.44 4.19 -0.35 6 -1 l 8 -4"/><path stroke-linejoin="round" stroke-linecap="round" stroke-width="2" stroke="rgb(52, 58, 64)" fill="none" d="M 281 48 c 0.12 0 4.79 0.37 7 0 c 3.6 -0.6 7.82 -1.61 11 -3 c 1.79 -0.78 3.87 -2.38 5 -4 c 3.87 -5.56 8.12 -12.62 11 -19 c 1.62 -3.59 2.38 -8.06 3 -12 c 0.35 -2.23 0.78 -6.22 0 -7 c -0.67 -0.67 -5.02 -0.19 -6 1 c -4.12 4.98 -9.4 14.43 -13 22 c -2.99 6.28 -6.27 13.96 -7 20 c -0.46 3.8 1.55 9.68 3 13 c 0.55 1.25 2.67 2.82 4 3 c 2.94 0.39 8.15 0.3 11 -1 c 3.67 -1.67 7.57 -5.71 11 -9 c 4.28 -4.09 9.05 -8.23 12 -13 c 5.37 -8.68 10.2 -19.64 14 -29 c 0.95 -2.34 1.91 -7.75 1 -8 c -1.47 -0.4 -9.29 2.56 -12 5 c -3.18 2.86 -5.57 8.46 -8 13 c -2.64 4.92 -5.87 10.14 -7 15 c -1.03 4.4 -0.56 10.11 0 15 l 4 20"/></svg>