<?xml version="1.0" encoding="UTF-8" standalone="no"?><!DOCTYPE svg PUBLIC "-//W3C//DTD SVG 1.1//EN" "http://www.w3.org/Graphics/SVG/1.1/DTD/svg11.dtd"><svg xmlns="http://www.w3.org/2000/svg" version="1.1" width="596" height="112"><path stroke-linejoin="round" stroke-linecap="round" stroke-width="2" stroke="rgb(52, 58, 64)" fill="none" d="M 62 50 c -0.4 0.09 -15.13 3.74 -23 5 c -9.08 1.45 -18.67 3.2 -27 3 c -4.46 -0.11 -10.34 -2.28 -14 -4 c -1.26 -0.59 -3.32 -2.94 -3 -4 c 1.17 -3.89 5.64 -11.38 9 -16 c 1.69 -2.32 4.53 -4.61 7 -6 c 2.54 -1.43 5.98 -2.33 9 -3 c 2.89 -0.64 6.05 -1 9 -1 c 2.95 0 6.37 0.18 9 1 c 2.34 0.73 6.41 2.22 7 4 c 1.25 3.76 0.79 11.57 0 17 c -1.16 7.9 -3.49 16.47 -6 24 c -1.04 3.13 -3.57 5.93 -5 9 c -0.88 1.89 -1.08 4.35 -2 6 c -0.61 1.11 -2.93 3.21 -3 3 c -0.1 -0.31 1.03 -4.15 2 -6 c 8.94 -16.99 17.95 -35.44 28 -51 c 3.42 -5.3 9.05 -9.42 14 -14 c 4.26 -3.94 8.58 -8.19 13 -11 c 2.46 -1.57 6.19 -2.65 9 -3 c 2.09 -0.26 6.17 -0.07 7 1 c 0.94 1.2 0.81 5.99 0 8 c -0.93 2.32 -4.23 4.46 -6 7 c -6.64 9.56 -12.2 19.43 -19 29 c -4.05 5.69 -13.37 15.91 -13 16 c 0.41 0.1 10.94 -10.6 17 -15 c 7.2 -5.22 15.35 -10.49 23 -14 c 4.07 -1.87 11.54 -3.33 14 -3 c 0.88 0.12 1.56 3.75 1 5 c -3.06 6.82 -8.96 16.02 -14 24 c -3.12 4.94 -6.33 9.54 -10 14 c -4.07 4.96 -13.68 13.75 -13 14 c 0.84 0.32 13.68 -7.86 21 -11 c 11.53 -4.94 25.7 -10.38 35 -13 c 1.11 -0.31 4.25 1.32 4 2 c -1.14 3.09 -7.14 11.94 -11 17 c -1.22 1.6 -4.36 2.72 -5 4 c -0.41 0.82 0.27 4.05 1 4 c 4.71 -0.35 18.02 -4.71 26 -6 c 1.52 -0.25 4.62 0.36 5 1 c 0.33 0.56 -2.41 4.08 -2 4 c 4.46 -0.89 34.21 -10.24 47 -13 c 1.17 -0.25 3.67 1.13 4 2 c 0.44 1.19 -0.45 4.15 -1 6 c -0.41 1.36 -2.39 4.09 -2 4 c 4.5 -1.05 32.85 -10.83 49 -15 c 4.11 -1.06 8.71 -1 13 -1 c 2.98 0 6.55 0.13 9 1 c 1.73 0.62 5 2.76 5 4 c 0 1.99 -3.03 6.37 -5 9 c -1.89 2.53 -4.41 5.04 -7 7 c -5.65 4.29 -11.88 8.62 -18 12 c -3.31 1.83 -10.32 4.79 -11 4 c -0.7 -0.81 2.6 -8.09 5 -11 c 8 -9.7 18.2 -19.87 28 -29 c 4.86 -4.53 10.74 -7.71 16 -12 c 3.91 -3.19 7.13 -6.9 11 -10 l 9 -6"/><path stroke-linejoin="round" stroke-linecap="round" stroke-width="2" stroke="rgb(52, 58, 64)" fill="none" d="M 361 33 c -0.09 0.03 -3.61 1.13 -5 2 c -1.1 0.69 -1.88 2.28 -3 3 c -2.37 1.51 -5.24 2.86 -8 4 c -2.93 1.21 -5.92 2.32 -9 3 c -5.92 1.32 -12.26 2.54 -18 3 c -2.23 0.18 -5.1 -0.21 -7 -1 c -1.72 -0.72 -3.57 -2.57 -5 -4 c -0.8 -0.8 -1.88 -2.06 -2 -3 c -0.17 -1.33 0.38 -3.52 1 -5 c 0.97 -2.34 2.22 -5.43 4 -7 c 3.37 -2.97 8.58 -5.98 13 -8 c 3.3 -1.51 7.48 -2.68 11 -3 c 3.41 -0.31 7.71 0.13 11 1 c 2.67 0.7 5.99 2.33 8 4 c 1.62 1.35 3.64 4.06 4 6 c 0.51 2.7 -0.05 6.95 -1 10 c -2.25 7.21 -5.61 14.68 -9 22 c -3.06 6.61 -6.13 13.19 -10 19 c -3.32 4.99 -7.74 9.53 -12 14 c -2.78 2.92 -6.18 5.18 -9 8 c -1.5 1.5 -3.2 5.11 -4 5 c -0.84 -0.12 -2.84 -4.35 -3 -6 c -0.11 -1.1 1.21 -2.71 2 -4 c 8.37 -13.65 16.04 -26.67 25 -40 c 5.7 -8.48 11.49 -16.26 18 -24 c 5.98 -7.12 12.21 -14.95 19 -20 c 5.4 -4.01 13.34 -6.71 20 -9 c 3.7 -1.27 9.08 -2.52 12 -2 c 1.7 0.3 3.87 3.22 5 5 c 1.01 1.59 2.72 4.64 2 6 c -3.68 6.93 -11.98 17.67 -19 26 c -12.96 15.37 -26.82 32.23 -40 44 c -3.79 3.38 -14.86 6.34 -16 6 c -0.72 -0.22 3.55 -6.94 6 -9 c 3.34 -2.81 8.94 -4.29 13 -7 c 4.9 -3.27 9.08 -8.23 14 -11 c 5.34 -3 15.72 -7 18 -7 c 0.83 0 -0.03 5.16 -1 7 c -2.05 3.9 -5.68 8.25 -9 12 c -4.38 4.96 -9.05 9.42 -14 14 c -4.26 3.94 -8.84 8.23 -13 11 c -1.25 0.83 -4.77 1.34 -5 1 c -0.23 -0.34 1.73 -3.12 3 -4 c 10.89 -7.54 23.69 -16.43 36 -23 c 7.39 -3.94 15.76 -6.18 24 -9 c 3.66 -1.26 7.4 -2.4 11 -3 c 2.21 -0.37 6.27 -0.85 7 0 c 0.73 0.85 0.02 5.17 -1 7 c -3.21 5.74 -8.42 12.22 -13 18 c -1.75 2.21 -6.36 6 -6 6 c 0.65 0 9.32 -3.72 14 -6 c 9.34 -4.56 18.24 -9 27 -14 c 2.88 -1.65 6 -5.5 8 -6 c 1 -0.25 4.08 2.05 4 3 c -0.16 1.95 -5.6 7.68 -5 9 c 0.59 1.3 7.12 0.97 10 2 c 1.41 0.51 2.78 3.2 4 3 c 6.85 -1.1 18.09 -4.95 27 -8 c 3.82 -1.31 7.36 -3.85 11 -5 c 2.43 -0.77 5.59 -1.17 8 -1 c 1.89 0.14 5.13 0.99 6 2 c 0.69 0.8 0.59 3.65 0 5 c -2.7 6.14 -7.72 13.44 -11 20 c -0.59 1.18 -1.39 4.04 -1 4 c 1.07 -0.12 6.53 -3.55 10 -5 c 4.62 -1.92 9.13 -3.49 14 -5 c 9.54 -2.95 19.3 -7.05 28 -8 c 5.45 -0.59 13.08 0.96 18 3 l 11 9"/></svg>