<?xml version="1.0" encoding="UTF-8" standalone="no"?><!DOCTYPE svg PUBLIC "-//W3C//DTD SVG 1.1//EN" "http://www.w3.org/Graphics/SVG/1.1/DTD/svg11.dtd"><svg xmlns="http://www.w3.org/2000/svg" version="1.1" width="431" height="70"><path stroke-linejoin="round" stroke-linecap="round" stroke-width="2" stroke="rgb(52, 58, 64)" fill="none" d="M 1 16 c 0.16 0 6.34 0.69 9 0 c 4.49 -1.17 9.13 -4.26 14 -6 c 9.4 -3.36 22.36 -8.82 28 -9 c 1.72 -0.05 3.11 5.33 4 8 c 0.7 2.11 0.43 4.71 1 7 c 1.44 5.74 2.87 11.88 5 17 c 1.03 2.48 2.83 6.39 5 7 c 12.29 3.48 31.62 6.24 48 8 c 21.59 2.31 42.06 3.68 64 4 c 47.57 0.7 92.08 0.73 139 -1 c 17.33 -0.64 33.74 -4.77 51 -6 c 11.09 -0.79 24.13 -2.58 33 0 c 7.31 2.13 14.83 10.48 22 16 c 1.49 1.15 2.93 2.58 4 4 l 2 4"/></svg>