<?xml version="1.0" encoding="UTF-8" standalone="no"?><!DOCTYPE svg PUBLIC "-//W3C//DTD SVG 1.1//EN" "http://www.w3.org/Graphics/SVG/1.1/DTD/svg11.dtd"><svg xmlns="http://www.w3.org/2000/svg" version="1.1" width="355.0325443786982" height="259.6538461538462"><path stroke-linejoin="round" stroke-linecap="round" stroke-width="2" stroke="rgb(52, 58, 64)" fill="none" d="M 105 89.69 l 1 1"/><path stroke-linejoin="round" stroke-linecap="round" stroke-width="2" stroke="rgb(52, 58, 64)" fill="none" d="M 14.36 123.08 l 1 1"/><path stroke-linejoin="round" stroke-linecap="round" stroke-width="2" stroke="rgb(52, 58, 64)" fill="none" d="M 1.95 86.83 c -0.02 0.07 -1.03 2.62 -0.95 3.82 c 0.22 3.53 0.62 8.15 1.91 11.45 c 1.38 3.54 4.14 7.45 6.68 10.5 c 2.07 2.48 5.12 5.01 7.63 6.68 c 0.97 0.65 2.55 0.87 3.82 0.95 c 3.69 0.23 10.95 -1.66 11.45 0 c 0.99 3.25 -2.95 14.94 -4.77 21.95 c -0.35 1.33 -1.1 2.74 -1.91 3.82 c -1.02 1.36 -2.49 2.99 -3.82 3.82 c -0.97 0.6 -2.72 1.2 -3.82 0.95 c -3.94 -0.88 -13.36 -4.77 -13.36 -4.77"/><path stroke-linejoin="round" stroke-linecap="round" stroke-width="2" stroke="rgb(52, 58, 64)" fill="none" d="M 46.8 152.66 c 0.25 -0.08 9.83 -2.82 14.31 -4.77 c 2.67 -1.16 5.95 -3.09 7.63 -4.77 c 0.74 -0.74 0.91 -3.91 0.95 -3.82 c 0.07 0.14 -0.48 4.3 0 5.72 c 0.34 1.01 1.84 1.98 2.86 2.86 c 1.21 1.04 2.5 2.38 3.82 2.86 c 1.86 0.68 4.65 1.24 6.68 0.95 c 4.17 -0.6 9.38 -2.11 13.36 -3.82 c 2.35 -1.01 4.78 -3.08 6.68 -4.77 c 0.8 -0.71 1.14 -2.35 1.91 -2.86 c 0.88 -0.58 2.65 -0.95 3.82 -0.95 c 1.16 0 3.23 0.17 3.82 0.95 c 1.73 2.3 2.88 7.84 4.77 10.5 c 0.91 1.28 3.11 2.28 4.77 2.86 c 3.53 1.25 7.7 2.2 11.45 2.86 c 1.52 0.27 3.72 0.68 4.77 0 c 2.68 -1.72 7.05 -7.89 8.59 -8.59 c 0.54 -0.25 1.02 3.42 1.91 3.82 c 1.38 0.61 4.57 0.43 6.68 0 c 9.95 -2.04 20.95 -6.38 30.53 -7.63 c 4.11 -0.54 9.36 0.77 13.36 1.91 c 2.28 0.65 4.66 2.4 6.68 3.82 c 1.06 0.74 2.86 2.77 2.86 2.86 c 0 0.08 -1.85 -1.54 -2.86 -1.91 c -2.31 -0.84 -5.12 -1.52 -7.63 -1.91 c -1.52 -0.23 -3.38 0.31 -4.77 0 l -3.82 -1.91"/><path stroke-linejoin="round" stroke-linecap="round" stroke-width="2" stroke="rgb(52, 58, 64)" fill="none" d="M 325.41 114.5 c -0.07 0.07 -2.99 2.35 -3.82 3.82 c -3.08 5.44 -5.38 12.56 -8.59 18.13 c -1.41 2.44 -4.33 4.21 -5.72 6.68 c -5.41 9.59 -14.77 29.65 -15.27 30.53 c -0.07 0.13 0.89 -3.18 0.95 -4.77 c 0.25 -6.57 -0.77 -13.85 0 -20.04 c 0.43 -3.45 2.29 -7.11 3.82 -10.5 c 1.34 -2.98 2.93 -5.9 4.77 -8.59 c 2.29 -3.34 4.67 -7.13 7.63 -9.54 c 5.2 -4.24 11.82 -8.3 18.13 -11.45 c 6.93 -3.47 15.03 -6.36 21.95 -8.59 c 1.4 -0.45 5 -0.5 4.77 0 c -1.86 4.07 -13.65 21.82 -20.04 33.39 c -3.99 7.23 -8.63 16.55 -10.5 21.95 c -0.26 0.76 1.12 2.17 1.91 2.86 c 1.58 1.39 3.7 2.69 5.72 3.82 c 3.76 2.09 7.6 4.32 11.45 5.72 l 9.54 1.91"/><path stroke-linejoin="round" stroke-linecap="round" stroke-width="2" stroke="rgb(52, 58, 64)" fill="none" d="M 202.02 39 c 0.07 -0.02 3.13 -0.19 4 -1 c 8.76 -8.22 19.14 -20.41 29 -30 c 2.03 -1.98 6.06 -2.85 7 -5 c 3.04 -6.96 6.09 -18.01 7 -27 c 1.7 -16.76 1.28 -35.33 1 -52 c -0.04 -2.64 -2 -8 -2 -8"/></svg>