<?xml version="1.0" encoding="UTF-8" standalone="no"?><!DOCTYPE svg PUBLIC "-//W3C//DTD SVG 1.1//EN" "http://www.w3.org/Graphics/SVG/1.1/DTD/svg11.dtd"><svg xmlns="http://www.w3.org/2000/svg" version="1.1" width="599" height="148"><path stroke-linejoin="round" stroke-linecap="round" stroke-width="2" stroke="rgb(52, 58, 64)" fill="none" d="M 33 45 c -0.16 0.02 -8.69 -0.49 -9 1 c -0.8 3.84 3.08 15.15 4 23 c 1.11 9.44 1.74 18.85 2 28 c 0.07 2.31 -0.43 4.74 -1 7 c -0.76 3.04 -1.76 6.02 -3 9 c -4.55 10.97 -10.96 26.93 -14 32 c -0.39 0.65 -3.45 -0.95 -4 -2 c -2.22 -4.22 -4.73 -11.37 -6 -17 c -0.99 -4.38 -1 -9.35 -1 -14 c 0 -3.33 0.33 -6.8 1 -10 c 0.64 -3.02 1.78 -6.16 3 -9 c 0.75 -1.75 1.93 -4.9 3 -5 c 1.64 -0.15 5.87 2.25 8 4 c 3.2 2.64 6.33 6.51 9 10 c 1.6 2.09 2.24 5.17 4 7 c 6.5 6.75 15.36 16.18 22 20 l 11 -1"/><path stroke-linejoin="round" stroke-linecap="round" stroke-width="2" stroke="rgb(52, 58, 64)" fill="none" d="M 75 26 c -0.05 -0.17 -1.57 -6.99 -3 -10 c -1.79 -3.76 -4.41 -8.01 -7 -11 c -1.43 -1.65 -3.98 -3.16 -6 -4 c -1.7 -0.71 -4.07 -1 -6 -1 c -2.56 0 -5.52 0.34 -8 1 c -2.35 0.63 -4.9 1.77 -7 3 c -1.77 1.03 -3.89 2.47 -5 4 c -1.32 1.82 -2.14 4.59 -3 7 c -0.82 2.3 -1.58 4.63 -2 7 c -0.58 3.27 -1.16 6.71 -1 10 c 0.5 10.21 1.54 20.59 3 31 c 0.91 6.49 1.66 13.45 4 19 c 2.71 6.43 12 19 12 19"/><path stroke-linejoin="round" stroke-linecap="round" stroke-width="2" stroke="rgb(52, 58, 64)" fill="none" d="M 112 79 c -0.26 0.19 -11.09 6.91 -15 11 c -2.92 3.06 -5.15 8.06 -7 12 c -0.68 1.44 -0.83 3.3 -1 5 c -0.5 5.02 -1.31 10.17 -1 15 c 0.34 5.23 1.37 11.51 3 16 c 0.78 2.15 3.16 4.77 5 6 c 1.72 1.14 5.26 2.46 7 2 c 2.39 -0.64 6.4 -3.59 8 -6 c 2.59 -3.89 4.76 -9.91 6 -15 c 2.02 -8.3 2.91 -17.31 4 -26 c 0.25 -1.98 0.33 -4.11 0 -6 c -0.63 -3.6 -1.84 -9.34 -3 -11 c -0.42 -0.6 -3.6 0.21 -4 1 c -0.87 1.74 -1.35 6.23 -1 9 c 0.59 4.75 1.69 10.87 4 15 c 3.6 6.44 9.83 16.18 15 19 c 3.85 2.1 13.48 1.07 18 -1 c 5.68 -2.6 12.75 -9.56 17 -15 c 3.52 -4.51 6.38 -11.17 8 -17 c 3.24 -11.68 5.67 -24.68 7 -37 c 0.99 -9.16 0.7 -19.14 0 -28 c -0.26 -3.3 -2.25 -6.62 -3 -10 c -0.58 -2.61 -0.16 -5.83 -1 -8 c -0.66 -1.73 -2.57 -3.57 -4 -5 c -0.8 -0.8 -2.09 -2.07 -3 -2 c -2.62 0.2 -7.6 1.46 -10 3 c -1.66 1.06 -3 3.88 -4 6 c -1.94 4.1 -3.56 8.52 -5 13 c -1.61 5 -3.15 9.9 -4 15 c -1.49 8.93 -3.41 18.34 -3 27 c 0.55 11.64 3.38 24.34 6 36 c 1 4.45 2.6 9.61 5 13 l 12 11"/><path stroke-linejoin="round" stroke-linecap="round" stroke-width="2" stroke="rgb(52, 58, 64)" fill="none" d="M 199 129 c -0.02 -0.26 -0.28 -10.46 -1 -15 c -0.21 -1.35 -1.5 -4.17 -2 -4 c -0.8 0.27 -3.36 3.97 -4 6 c -0.89 2.84 -1 6.69 -1 10 c 0 3.97 0.38 8.1 1 12 c 0.37 2.36 2 7 2 7"/><path stroke-linejoin="round" stroke-linecap="round" stroke-width="2" stroke="rgb(52, 58, 64)" fill="none" d="M 279 26 c -0.07 0.05 -2.83 1.83 -4 3 c -9.8 9.8 -18.98 21.12 -29 30 c -4.2 3.72 -9.98 6.49 -15 9 c -2.09 1.04 -4.99 2 -7 2 c -1.49 0 -4.83 -1.04 -5 -2 c -0.31 -1.69 1.55 -6.33 3 -9 c 2.75 -5.08 6.28 -10.54 10 -15 c 2.77 -3.33 6.51 -6.17 10 -9 c 1.87 -1.52 3.93 -3.05 6 -4 c 2.09 -0.96 4.7 -1.69 7 -2 c 2.53 -0.34 5.9 -0.65 8 0 c 1.68 0.52 3.79 2.49 5 4 c 1.26 1.58 2.46 3.99 3 6 c 0.72 2.72 1 6.01 1 9 c 0 4.96 0.21 10.32 -1 15 c -3.32 12.8 -9.71 26.04 -13 39 c -1.61 6.34 -2 20 -2 20"/><path stroke-linejoin="round" stroke-linecap="round" stroke-width="2" stroke="rgb(52, 58, 64)" fill="none" d="M 323 16 c -0.05 0.51 -1.48 19.19 -3 29 c -2.23 14.39 -5.57 27.71 -8 42 c -0.63 3.69 -0.26 7.41 -1 11 c -1.59 7.72 -3.79 15.55 -6 23 c -0.42 1.4 -1.7 4.22 -2 4 c -0.48 -0.36 -1.64 -4.6 -2 -7 c -1.97 -12.95 -3.1 -25.68 -5 -39 c -0.49 -3.45 -1.09 -6.74 -2 -10 c -0.76 -2.73 -1.76 -5.52 -3 -8 c -1.05 -2.09 -2.47 -4.47 -4 -6 c -1.24 -1.24 -3.31 -2.25 -5 -3 c -1.19 -0.53 -3.06 -1.38 -4 -1 c -1.78 0.71 -4.37 3.19 -6 5 c -1.22 1.35 -2.36 3.23 -3 5 c -2.28 6.33 -4.65 13.23 -6 20 c -1.63 8.17 -2.5 16.94 -3 25 c -0.14 2.26 0.06 5.05 1 7 c 3.09 6.42 7.63 15.63 12 20 c 2.14 2.14 7.71 2.82 11 3 c 2.1 0.12 4.64 -1.21 7 -2 c 3.8 -1.27 7.87 -2.08 11 -4 c 5.13 -3.16 10.31 -7.76 15 -12 c 2.25 -2.04 4.28 -4.47 6 -7 c 3.94 -5.79 8.52 -11.79 11 -18 c 3.29 -8.21 6.43 -21.5 7 -27 c 0.09 -0.88 -2.96 -2 -4 -2 c -0.84 0 -2.2 1.2 -3 2 c -1.1 1.1 -2.24 2.56 -3 4 c -2.19 4.13 -4.5 8.5 -6 13 c -2.82 8.46 -5.81 17.64 -7 26 c -0.71 4.98 -0.16 11.19 1 16 c 1.04 4.3 3.68 9.41 6 13 c 1.04 1.6 3.72 4 5 4 c 1.28 0 3.52 -2.52 5 -4 c 1.81 -1.81 3.63 -3.87 5 -6 c 1.57 -2.44 3.18 -5.24 4 -8 c 1.77 -5.98 2.68 -12.39 4 -19 c 0.76 -3.8 1.65 -7.33 2 -11 c 0.31 -3.28 0.27 -6.66 0 -10 c -0.4 -5.06 -0.87 -10.71 -2 -15 c -0.37 -1.42 -2.35 -4.11 -3 -4 c -0.76 0.13 -3.4 3.68 -3 5 c 1.65 5.35 6.85 15.39 11 21 c 1.89 2.56 6.14 4.86 9 6 c 1.58 0.63 4.26 0.43 6 0 c 1.94 -0.49 4.35 -1.68 6 -3 c 3.12 -2.5 6.37 -5.81 9 -9 c 1.95 -2.36 3.58 -5.16 5 -8 c 4.98 -9.96 12.44 -25.16 14 -30 c 0.19 -0.6 -3.43 -1.62 -4 -1 c -2.25 2.44 -6.58 9.12 -8 14 c -4.31 14.83 -7.45 32.17 -10 48 c -0.73 4.52 -0.25 9.49 0 14 c 0.07 1.33 0.37 2.89 1 4 c 1.87 3.28 4.65 8.19 7 10 c 1.16 0.89 4.45 0.56 6 0 c 1.65 -0.6 3.52 -2.52 5 -4 c 1.81 -1.81 3.57 -3.86 5 -6 c 1.88 -2.82 3.6 -5.88 5 -9 c 1.6 -3.55 2.36 -7.45 4 -11 c 2.38 -5.16 5.84 -9.76 8 -15 c 4.19 -10.14 7.86 -20.41 11 -31 c 2.25 -7.58 4.13 -15.61 5 -23 c 0.41 -3.47 -0.1 -8.83 -1 -11 c -0.34 -0.81 -3.17 -1.36 -4 -1 c -1.01 0.43 -2.29 2.58 -3 4 c -1.22 2.43 -2.35 5.25 -3 8 c -2.01 8.54 -4.08 17.15 -5 26 c -2.11 20.44 -3.11 41.19 -4 61 c -0.09 1.97 0.28 5.64 1 6 c 0.69 0.35 4.35 -1.56 5 -3 c 3.55 -7.8 5.99 -20.39 10 -30 c 2.61 -6.26 6.32 -12.37 10 -18 c 1.9 -2.9 5.41 -7.2 7 -8 c 0.64 -0.32 2.78 1.91 3 3 c 0.62 3.09 0.33 8.03 0 12 c -0.34 4.02 -0.42 8.64 -2 12 c -3.39 7.2 -9.47 15.95 -14 22 c -0.78 1.04 -3.26 2.25 -4 2 c -0.74 -0.25 -1.92 -2.71 -2 -4 c -0.22 -3.77 0.07 -9.11 1 -13 c 0.64 -2.67 2.15 -5.97 4 -8 c 4.7 -5.14 11.37 -11.7 17 -15 c 3.02 -1.77 8.24 -1.78 12 -2 c 1.58 -0.09 4.03 0.14 5 1 c 1.54 1.36 3.1 4.66 4 7 c 0.68 1.76 1.12 4.12 1 6 c -0.2 3.15 -1.59 6.68 -2 10 c -0.24 1.95 -0.69 4.89 0 6 c 0.62 0.99 3.64 2.21 5 2 c 2.26 -0.35 5.6 -2.4 8 -4 c 2.48 -1.65 4.55 -4.42 7 -6 c 2.03 -1.3 4.58 -2.07 7 -3 c 2.01 -0.77 4.35 -2.14 6 -2 c 1.75 0.15 5.47 1.47 6 3 c 1.83 5.28 1.53 15.9 3 23 c 0.43 2.05 1.8 4.8 3 6 c 0.74 0.74 3 1.25 4 1 c 1.22 -0.3 3.17 -1.76 4 -3 c 2.22 -3.33 4.23 -7.88 6 -12 c 1.25 -2.91 3 -6.85 3 -9 c 0 -0.96 -2.26 -1.89 -3 -3 c -1.17 -1.75 -1.68 -4.68 -3 -6 c -1.32 -1.32 -4.05 -2.55 -6 -3 c -2.03 -0.47 -5.4 -0.64 -7 0 c -1.15 0.46 -2.41 2.59 -3 4 l -2 8"/><path stroke-linejoin="round" stroke-linecap="round" stroke-width="2" stroke="rgb(52, 58, 64)" fill="none" d="M 550 103 c 0.07 -0.16 2.4 -6.41 4 -9 c 0.92 -1.49 2.52 -3.14 4 -4 c 2.23 -1.3 5.8 -2.82 8 -3 c 1.15 -0.1 3.84 1.11 4 2 c 0.33 1.83 -1.06 6.18 -2 9 c -0.68 2.05 -1.86 4.03 -3 6 c -2.6 4.49 -5.12 8.79 -8 13 c -1.47 2.15 -3.12 4.7 -5 6 c -2.05 1.42 -5.32 2.4 -8 3 c -3.15 0.7 -6.86 0.37 -10 1 l -5 2"/><path stroke-linejoin="round" stroke-linecap="round" stroke-width="2" stroke="rgb(52, 58, 64)" fill="none" d="M 597 90 c 0.02 -0.07 1.01 -4.07 1 -4 c -0.04 0.42 -1.25 16.78 -3 24 c -0.75 3.08 -3.2 5.94 -5 9 c -1.65 2.8 -2.86 6.04 -5 8 c -5.36 4.91 -19 14 -19 14"/></svg>