<?xml version="1.0" encoding="UTF-8" standalone="no"?><!DOCTYPE svg PUBLIC "-//W3C//DTD SVG 1.1//EN" "http://www.w3.org/Graphics/SVG/1.1/DTD/svg11.dtd"><svg xmlns="http://www.w3.org/2000/svg" version="1.1" width="526" height="128"><path stroke-linejoin="round" stroke-linecap="round" stroke-width="2" stroke="rgb(52, 58, 64)" fill="none" d="M 120 7 l 1 4"/><path stroke-linejoin="round" stroke-linecap="round" stroke-width="2" stroke="rgb(52, 58, 64)" fill="none" d="M 58 1 l 1 1"/><path stroke-linejoin="round" stroke-linecap="round" stroke-width="2" stroke="rgb(52, 58, 64)" fill="none" d="M 38 8 l 1 1"/><path stroke-linejoin="round" stroke-linecap="round" stroke-width="2" stroke="rgb(52, 58, 64)" fill="none" d="M 52 51 c -0.19 -0.17 -8.25 -6.79 -11 -10 c -0.76 -0.89 -0.4 -2.91 -1 -4 c -0.94 -1.69 -2.98 -3.21 -4 -5 c -1.57 -2.75 -3.17 -5.93 -4 -9 c -1.45 -5.38 -3.29 -16.14 -3 -17 c 0.17 -0.5 4.91 5.18 6 8 c 2 5.21 3.46 12.02 4 18 c 0.77 8.43 0.8 17.65 0 26 c -0.5 5.3 -1.9 11.23 -4 16 c -2.69 6.1 -7.01 12.46 -11 18 c -1.87 2.6 -4.57 5.32 -7 7 c -1.55 1.07 -4.04 1.67 -6 2 c -1.86 0.31 -4.4 0.48 -6 0 c -1.33 -0.4 -3.73 -2.06 -4 -3 c -0.24 -0.84 1.04 -3.04 2 -4 c 3.05 -3.05 6.94 -7.38 11 -9 c 16.17 -6.47 36.79 -12.12 54 -17 c 1.82 -0.52 4.28 0.57 6 0 c 4.73 -1.58 10.21 -4.48 15 -7 c 1.45 -0.76 2.78 -2.7 4 -3 c 1 -0.25 3.41 0.29 4 1 c 0.73 0.88 0.34 3.84 1 5 c 0.47 0.82 2.12 2.21 3 2 c 9.69 -2.36 25.99 -7.9 38 -12 c 1.09 -0.37 2.89 -2.11 3 -2 c 0.11 0.11 -1.92 2.02 -2 3 c -0.2 2.46 0.23 6.48 1 9 c 0.43 1.39 1.81 3.05 3 4 l 7 4"/><path stroke-linejoin="round" stroke-linecap="round" stroke-width="2" stroke="rgb(52, 58, 64)" fill="none" d="M 221 27 c -0.14 0.54 -4.8 20.77 -8 31 c -1.83 5.87 -7 16.68 -7 17 c 0 0.27 4.42 -9.48 7 -14 c 1.42 -2.48 3.14 -4.77 5 -7 c 3.21 -3.85 6.63 -8.08 10 -11 c 1.22 -1.06 3.43 -1.87 5 -2 c 2.06 -0.17 4.78 0.45 7 1 c 1.69 0.42 3.61 1.13 5 2 c 1.1 0.69 2.08 1.92 3 3 c 1.09 1.27 2.33 2.56 3 4 c 1.57 3.36 3.35 7.74 4 11 c 0.23 1.15 -1 2.78 -1 4 c 0 1.22 0.73 4.22 1 4 c 0.66 -0.55 2.98 -6.35 5 -9 c 3.19 -4.19 7.23 -8.46 11 -12 c 1.35 -1.27 3.38 -2.51 5 -3 c 1.39 -0.42 4.27 -0.73 5 0 c 1.06 1.06 1.67 4.7 2 7 c 0.32 2.21 0.44 4.78 0 7 c -2.15 10.77 -8 33 -8 33"/><path stroke-linejoin="round" stroke-linecap="round" stroke-width="2" stroke="rgb(52, 58, 64)" fill="none" d="M 363 60 c -0.05 -0.04 -1.96 -1.65 -3 -2 c -1.75 -0.58 -4.23 -1.3 -6 -1 c -3.69 0.62 -8.55 2.07 -12 4 c -4.48 2.51 -9.52 6.33 -13 10 c -2.48 2.61 -6.13 8.85 -6 10 c 0.08 0.7 4.97 -0.39 7 -1 c 1.04 -0.31 2.2 -1.2 3 -2 c 1.1 -1.1 1.85 -2.99 3 -4 c 1.35 -1.18 3.37 -2.56 5 -3 c 1.68 -0.46 4.95 -0.6 6 0 c 0.72 0.41 0.18 3.71 1 4 c 2.59 0.92 9.23 -0.21 13 1 c 4.92 1.58 10.04 5.65 15 8 c 1.2 0.57 2.78 1 4 1 c 1.22 0 2.86 -0.39 4 -1 c 3.61 -1.93 8.13 -4.13 11 -7 c 4.7 -4.7 8.41 -11.72 13 -17 c 1.98 -2.27 4.65 -4.73 7 -6 c 1.55 -0.83 4.45 -1.31 6 -1 c 1.27 0.25 3.47 1.77 4 3 c 1.17 2.74 1.63 7.33 2 11 c 0.3 2.95 0.38 6.05 0 9 c -0.94 7.32 -2.39 14.63 -4 22 c -0.75 3.44 -1.64 6.94 -3 10 c -1.23 2.76 -3.13 5.57 -5 8 c -1.4 1.82 -3.2 3.5 -5 5 c -2.19 1.83 -4.65 3.99 -7 5 c -1.93 0.83 -5.11 1.19 -7 1 c -0.96 -0.1 -2.78 -1.24 -3 -2 c -0.31 -1.07 0.38 -3.6 1 -5 c 0.61 -1.37 1.86 -2.86 3 -4 c 1.46 -1.46 3.51 -2.51 5 -4 c 2.15 -2.15 3.73 -5.07 6 -7 c 4.23 -3.6 9.37 -6.37 14 -10 c 8.03 -6.3 15.63 -12.2 23 -19 c 5.76 -5.32 11 -11.09 16 -17 c 2.32 -2.74 4.37 -5.94 6 -9 c 0.95 -1.79 1.95 -5.9 2 -6 c 0.03 -0.06 -1.08 2.75 -1 4 c 0.23 3.69 1.07 8.26 2 12 c 0.34 1.37 1.13 2.99 2 4 c 0.97 1.13 2.83 2.87 4 3 c 1.26 0.14 3.76 -1.11 5 -2 c 0.83 -0.59 1.18 -2.29 2 -3 c 1.33 -1.14 3.53 -1.82 5 -3 c 1.78 -1.43 3.12 -3.96 5 -5 c 3.69 -2.05 8.67 -3.7 13 -5 c 2.2 -0.66 4.77 -1 7 -1 c 1.92 0 4.42 0.21 6 1 c 2.03 1.02 5.35 3.69 6 5 c 0.3 0.6 -1.61 1.97 -2 3 c -0.55 1.46 -0.32 3.65 -1 5 c -0.85 1.7 -2.97 3.23 -4 5 c -1.23 2.1 -1.77 4.84 -3 7 c -1.39 2.43 -5.22 6.78 -5 7 c 0.22 0.22 4.97 -3.15 7 -5 l 4 -5"/></svg>