<?xml version="1.0" encoding="UTF-8" standalone="no"?><!DOCTYPE svg PUBLIC "-//W3C//DTD SVG 1.1//EN" "http://www.w3.org/Graphics/SVG/1.1/DTD/svg11.dtd"><svg xmlns="http://www.w3.org/2000/svg" version="1.1" width="568" height="122"><path stroke-linejoin="round" stroke-linecap="round" stroke-width="2" stroke="rgb(52, 58, 64)" fill="none" d="M 46 71 c 0.19 -0.58 7.79 -21.67 11 -33 c 2.55 -9.01 5.05 -18.91 6 -27 c 0.25 -2.13 -1.04 -5.09 -2 -7 c -0.56 -1.11 -2.01 -2.75 -3 -3 c -1.19 -0.3 -3.68 0.25 -5 1 c -2.95 1.69 -6.15 4.44 -9 7 c -3.89 3.5 -8.09 6.95 -11 11 c -4.52 6.29 -8.17 13.67 -12 21 c -4.04 7.72 -7.71 15.04 -11 23 c -3.14 7.6 -6.05 15.41 -8 23 c -0.97 3.75 -1.34 8.3 -1 12 c 0.29 3.21 1.55 7.28 3 10 c 0.98 1.84 3.3 3.86 5 5 c 0.99 0.66 3.14 1.55 4 1 c 6.39 -4.11 17.22 -11.82 24 -19 c 9.8 -10.37 23.57 -33.82 27 -35 c 1.95 -0.67 0.66 18.73 2 25 c 0.27 1.25 2.92 3.28 4 3 c 3.68 -0.97 10.23 -4.91 15 -8 c 7.63 -4.95 14.77 -11.35 22 -16 c 1.68 -1.08 4.32 -2.22 6 -2 c 2.61 0.35 8.05 1.92 9 4 c 1.95 4.25 1.42 18.74 2 20 c 0.23 0.5 2.52 -4.88 4 -7 c 0.78 -1.11 1.92 -2.46 3 -3 c 1.3 -0.65 3.58 -1.24 5 -1 c 2.13 0.35 4.89 1.73 7 3 c 2.77 1.66 5.36 4.46 8 6 c 1.09 0.63 3.14 1.49 4 1 c 2.82 -1.61 6.49 -6.27 10 -9 c 2.46 -1.91 5.56 -4.3 8 -5 c 1.58 -0.45 4.52 0.14 6 1 c 2.06 1.2 4.4 3.82 6 6 c 1.94 2.65 3.13 6.5 5 9 c 0.91 1.21 2.63 2.32 4 3 c 1.13 0.56 2.77 1.09 4 1 c 2.74 -0.21 6.07 -2 9 -2 c 8.92 0 19.06 2.21 28 2 c 4.56 -0.11 9.52 -1.64 14 -3 c 3.08 -0.94 5.89 -2.96 9 -4 c 4.9 -1.63 14.74 -4.09 15 -4 c 0.22 0.07 -8.38 2.83 -12 5 c -6.17 3.7 -12.83 8.2 -18 13 c -3.82 3.55 -7.44 8.82 -10 13 c -0.79 1.3 -1 3.47 -1 5 c 0 1.24 0.69 4.2 1 4 c 0.7 -0.47 3.04 -6.2 5 -8 l 7 -3"/><path stroke-linejoin="round" stroke-linecap="round" stroke-width="2" stroke="rgb(52, 58, 64)" fill="none" d="M 329 33 l -6 52"/><path stroke-linejoin="round" stroke-linecap="round" stroke-width="2" stroke="rgb(52, 58, 64)" fill="none" d="M 362 43 c 0 0.75 -0.53 28.91 0 43 c 0.13 3.34 1.58 6.6 2 10 c 0.58 4.68 1.83 13.4 1 14 c -0.72 0.51 -4.94 -6.96 -8 -9 c -5.34 -3.56 -12.45 -6.16 -19 -9 c -3.65 -1.58 -7.34 -3.39 -11 -4 c -5.95 -0.99 -13.14 -1.23 -19 -1 c -1.95 0.08 -4.35 1.08 -6 2 c -1.11 0.61 -2.86 2.18 -3 3 c -0.12 0.7 1.2 2.46 2 3 c 0.92 0.61 2.81 1.22 4 1 c 6.88 -1.27 15.36 -3.5 23 -6 c 9.97 -3.26 19 -7.52 29 -11 c 5.72 -1.99 11.84 -4.06 17 -5 c 1.49 -0.27 4.6 -0.03 5 1 c 1.77 4.52 1.76 16.09 4 22 c 0.99 2.62 4.96 5.89 7 7 c 0.85 0.46 3.26 -0.19 4 -1 c 2.34 -2.55 5.66 -7.29 7 -11 c 1.45 -4.03 2.5 -10.04 2 -14 c -0.39 -3.13 -3.94 -9.34 -5 -10 c -0.55 -0.35 -2.39 3.31 -3 5 c -0.64 1.76 -1.54 4.79 -1 6 c 0.51 1.16 3.58 3.33 5 3 c 7.53 -1.77 19.86 -8.04 29 -11 c 1.47 -0.48 3.62 -0.34 5 0 c 1 0.25 2.64 1.08 3 2 c 3 7.76 5.8 21.12 9 29 c 0.53 1.3 3.04 3.26 4 3 c 1.77 -0.48 4.79 -5.45 7 -6 c 2.21 -0.55 6.7 2.6 9 2 c 3.04 -0.8 6.61 -4.96 10 -7 c 1.5 -0.9 3.65 -1.06 5 -2 c 1.77 -1.24 3.18 -3.88 5 -5 c 2.2 -1.35 5.62 -2.6 8 -3 c 1.15 -0.19 2.85 0.43 4 1 c 2.01 1.01 4.64 2.48 6 4 c 1.01 1.14 2 3.62 2 5 c 0 1.14 -1.09 3.09 -2 4 c -1.18 1.18 -3.31 2.32 -5 3 c -1.48 0.59 -3.7 0.35 -5 1 c -1.08 0.54 -3.24 2.84 -3 3 c 0.35 0.23 4.24 -0.36 6 -1 c 1.69 -0.61 3.53 -1.77 5 -3 c 6.77 -5.69 15.26 -17.58 20 -18 c 3.62 -0.32 8.79 10.81 14 15 l 32 22"/></svg>