<?xml version="1.0" encoding="UTF-8" standalone="no"?><!DOCTYPE svg PUBLIC "-//W3C//DTD SVG 1.1//EN" "http://www.w3.org/Graphics/SVG/1.1/DTD/svg11.dtd"><svg xmlns="http://www.w3.org/2000/svg" version="1.1" width="482" height="156"><path stroke-linejoin="round" stroke-linecap="round" stroke-width="2" stroke="rgb(52, 58, 64)" fill="none" d="M 49 101 l 1 1"/><path stroke-linejoin="round" stroke-linecap="round" stroke-width="2" stroke="rgb(52, 58, 64)" fill="none" d="M 11 76 c -0.09 0.11 -3.96 3.82 -5 6 c -2.1 4.4 -4.13 10.41 -5 15 c -0.34 1.77 0.17 5.17 1 6 c 0.68 0.68 3.54 0.42 5 0 c 2.87 -0.82 6.15 -2.32 9 -4 c 24.04 -14.12 46.83 -29.34 71 -43 c 6.65 -3.76 13.93 -6.77 21 -9 c 5.34 -1.69 11.64 -2.81 17 -3 c 3.47 -0.12 8.26 0.83 11 2 c 1.23 0.53 2.88 2.79 3 4 c 0.15 1.53 -0.81 4.54 -2 6 c -4.27 5.22 -10.85 10.4 -16 16 c -2.59 2.82 -6.13 6.4 -7 9 c -0.48 1.44 0.79 5.29 2 6 c 1.93 1.12 7.08 1.82 10 1 c 17.84 -4.98 38.08 -14.02 58 -20 c 14.02 -4.21 28.02 -8.12 42 -10 c 12.96 -1.74 27.26 -2.24 40 -1 c 10.5 1.02 22.65 4.07 32 8 c 6.3 2.64 14.86 8.37 18 13 c 2.13 3.14 1.37 10.35 1 15 c -0.26 3.23 -1.48 7.08 -3 10 c -2.3 4.42 -5.27 9.96 -9 13 c -8.05 6.57 -19.07 12.46 -29 18 c -4.43 2.47 -9.29 4.55 -14 6 c -3.76 1.16 -9.49 2.36 -12 2 c -0.92 -0.13 -2.6 -3.22 -2 -4 c 9.63 -12.63 28.89 -40.94 47 -55 c 39.16 -30.41 88.91 -61.99 132 -84 c 15.18 -7.75 54 -11 54 -11"/></svg>