<?xml version="1.0" encoding="UTF-8" standalone="no"?><!DOCTYPE svg PUBLIC "-//W3C//DTD SVG 1.1//EN" "http://www.w3.org/Graphics/SVG/1.1/DTD/svg11.dtd"><svg xmlns="http://www.w3.org/2000/svg" version="1.1" width="480" height="154"><path stroke-linejoin="round" stroke-linecap="round" stroke-width="2" stroke="rgb(52, 58, 64)" fill="none" d="M 1 61 c 0.07 0.35 2.22 13.49 4 20 c 1.21 4.45 3.03 8.87 5 13 c 1.33 2.8 3.07 5.89 5 8 c 1.48 1.61 3.97 3.32 6 4 c 2.55 0.85 6.36 1.42 9 1 c 3.14 -0.5 6.8 -2.4 10 -4 c 3.46 -1.73 7.29 -3.5 10 -6 c 5.59 -5.16 11.53 -11.82 16 -18 c 2.24 -3.1 4.1 -7.27 5 -11 c 1.66 -6.85 3 -15 3 -22 c 0 -5.45 -1.71 -11.39 -3 -17 c -0.71 -3.08 -1.79 -6.04 -3 -9 c -1.83 -4.47 -3.82 -9.73 -6 -13 c -0.68 -1.02 -3.17 -2.14 -4 -2 c -0.67 0.11 -1.73 1.94 -2 3 c -1.27 5.09 -2.37 11.33 -3 17 c -0.37 3.29 -0.26 6.65 0 10 c 0.42 5.4 0.69 10.86 2 16 c 2.65 10.39 6.91 20.46 10 31 c 0.97 3.3 0.77 7.04 2 10 c 1.95 4.68 5.09 9.97 8 14 c 1.15 1.6 3.37 3.35 5 4 c 1.28 0.51 3.45 0.28 5 0 c 1.95 -0.36 4.8 -0.73 6 -2 c 3.41 -3.63 7.51 -10.02 10 -15 c 1.27 -2.55 1.7 -6.01 2 -9 c 0.36 -3.56 0.46 -7.48 0 -11 c -0.52 -3.96 -1.55 -8.38 -3 -12 c -1.1 -2.76 -5 -8.23 -5 -8 c 0 0.36 3.55 9.17 5 14 c 1.61 5.36 2.35 11.52 4 16 c 0.43 1.15 2.25 3.22 3 3 c 1.62 -0.49 5.1 -3.79 7 -6 c 1.94 -2.26 3.9 -5.19 5 -8 c 2.45 -6.22 4.67 -13.35 6 -20 c 0.96 -4.79 1 -15.26 1 -15 c 0 0.46 -1.16 17.2 -1 26 c 0.18 10.17 1.28 26.75 2 30 c 0.12 0.54 3.18 -1.74 4 -3 c 3.15 -4.85 5.67 -11.58 9 -17 c 1.98 -3.21 4.38 -6.71 7 -9 c 2.36 -2.07 6.15 -4.64 9 -5 c 4.19 -0.52 10.81 0.54 15 2 c 2.77 0.96 6.12 3.68 8 6 c 2.1 2.59 4.1 6.68 5 10 c 0.97 3.57 1.29 8.19 1 12 c -0.35 4.53 -1.42 9.72 -3 14 c -1.63 4.41 -4.22 9.14 -7 13 c -3.07 4.26 -7.05 8.41 -11 12 c -3.3 3 -7.29 6.23 -11 8 c -2.78 1.32 -7.26 2.32 -10 2 c -2.16 -0.25 -6.13 -2.25 -7 -4 c -1.3 -2.61 -1.98 -8.66 -1 -12 c 2.01 -6.82 6.65 -15.39 11 -22 c 3.76 -5.71 8.9 -11.39 14 -16 c 5 -4.51 11.02 -8.26 17 -12 l 23 -13"/><path stroke-linejoin="round" stroke-linecap="round" stroke-width="2" stroke="rgb(52, 58, 64)" fill="none" d="M 335 81 c -0.37 0.05 -13.9 1.64 -21 3 c -8.92 1.71 -17.24 4.39 -26 6 c -3.96 0.73 -7.9 0.8 -12 1 c -3.06 0.15 -6.45 0.64 -9 0 c -2.29 -0.57 -5.49 -2.34 -7 -4 c -1.42 -1.57 -2.87 -4.87 -3 -7 c -0.16 -2.58 1 -6.16 2 -9 c 1.3 -3.73 3.01 -7.43 5 -11 c 7.83 -14.05 17.09 -27.71 24 -41 c 1.34 -2.58 1.6 -6.02 2 -9 c 0.26 -1.94 0.37 -4.33 0 -6 c -0.22 -1 -1.2 -2.84 -2 -3 c -1.79 -0.36 -5.91 0.24 -8 1 c -1.1 0.4 -2.53 1.88 -3 3 c -1.02 2.44 -2.46 6.4 -2 9 c 1.02 5.71 4.17 12.81 7 19 c 4.24 9.3 9.43 17.64 14 27 c 2.63 5.38 5.24 10.47 7 16 c 3.23 10.13 5.98 20.65 8 31 c 0.95 4.86 1 9.98 1 15 c 0 4.36 -0.41 8.68 -1 13 c -0.42 3.05 -0.94 6.36 -2 9 c -0.83 2.07 -2.41 4.7 -4 6 c -1.68 1.38 -5.57 3.55 -7 3 c -1.88 -0.72 -5.12 -5.36 -6 -8 c -0.88 -2.64 -0.74 -6.95 0 -10 c 2.11 -8.69 5.56 -17.87 9 -27 c 5.48 -14.54 11.88 -27.99 17 -42 c 1.15 -3.15 1.61 -6.68 2 -10 c 0.27 -2.28 0.03 -7.12 0 -7 c -0.07 0.24 -2 9.47 -2 14 c 0 5.17 1.03 10.91 2 16 c 0.32 1.7 1.02 3.87 2 5 c 1.07 1.22 3.38 2.51 5 3 c 1.39 0.42 3.61 0.42 5 0 c 1.62 -0.49 3.76 -1.76 5 -3 c 1.53 -1.53 2.87 -3.91 4 -6 c 1.19 -2.21 2.29 -4.58 3 -7 c 1.62 -5.54 3.22 -17.29 4 -17 c 0.91 0.34 2.33 13.55 4 20 c 0.62 2.41 1.74 5.02 3 7 c 0.93 1.47 2.91 4.1 4 4 c 1.66 -0.15 5.51 -3.06 7 -5 c 1.48 -1.92 2.64 -5.33 3 -8 c 0.92 -6.88 1.05 -21.18 1 -22 c -0.01 -0.2 -2.16 3.52 -2 5 c 0.42 4.01 2.17 9.79 4 14 c 1.36 3.13 3.84 6.84 6 9 c 1.08 1.08 3.74 2.14 5 2 c 1.17 -0.13 3.22 -1.75 4 -3 c 2.24 -3.58 4.84 -8.64 6 -13 c 1.39 -5.21 2 -16.69 2 -17 c 0 -0.13 -1.69 4.7 -2 7 c -0.34 2.53 -0.28 5.37 0 8 c 0.39 3.67 0.97 7.69 2 11 c 0.54 1.72 1.97 4.9 3 5 c 1.42 0.14 5.38 -2.38 7 -4 c 1.35 -1.35 2.46 -3.93 3 -6 c 1.71 -6.61 3.73 -20.2 4 -21 c 0.08 -0.23 1.05 4.02 1 6 c -0.28 11.07 -2 22.53 -2 34 c 0 11.13 0.82 22.11 2 33 c 0.48 4.4 1.73 8.78 3 13 c 0.72 2.41 1.7 5.7 3 7 c 0.87 0.87 3.88 1.51 5 1 c 1.86 -0.84 4.4 -3.79 6 -6 c 2.61 -3.62 5.05 -7.81 7 -12 c 2.72 -5.82 5.53 -11.88 7 -18 c 2.46 -10.27 3.99 -21.27 5 -32 c 0.66 -6.96 0.55 -14.08 0 -21 c -0.45 -5.69 -1.37 -11.76 -3 -17 c -1.26 -4.07 -3.49 -8.99 -6 -12 c -2.02 -2.43 -6.12 -5.28 -9 -6 c -2.94 -0.74 -7.79 0.04 -11 1 c -2.99 0.9 -6.75 2.89 -9 5 c -2.67 2.5 -5.55 6.61 -7 10 c -1.33 3.1 -2.15 7.65 -2 11 c 0.16 3.42 1.44 7.88 3 11 c 1.56 3.12 4.36 6.67 7 9 c 2.7 2.38 6.65 5.16 10 6 c 5.18 1.29 12.53 1.68 18 1 c 4.51 -0.56 9.86 -2.77 14 -5 c 4.18 -2.25 8.77 -5.61 12 -9 c 3.11 -3.26 5.83 -7.84 8 -12 c 2.09 -4.02 4.19 -8.77 5 -13 c 0.76 -3.95 0.4 -8.82 0 -13 c -0.25 -2.65 -0.73 -6.16 -2 -8 c -1.33 -1.92 -4.76 -4.44 -7 -5 c -2.36 -0.59 -6.38 0.05 -9 1 c -4.26 1.55 -9.37 4.16 -13 7 c -3.66 2.86 -7.69 6.99 -10 11 c -3.69 6.41 -7.15 14.79 -9 22 c -1.33 5.17 -1.48 11.61 -1 17 c 0.49 5.53 2.36 11.34 4 17 l 5 14"/></svg>