<?xml version="1.0" encoding="UTF-8" standalone="no"?><!DOCTYPE svg PUBLIC "-//W3C//DTD SVG 1.1//EN" "http://www.w3.org/Graphics/SVG/1.1/DTD/svg11.dtd"><svg xmlns="http://www.w3.org/2000/svg" version="1.1" width="283" height="128"><path stroke-linejoin="round" stroke-linecap="round" stroke-width="2" stroke="rgb(52, 58, 64)" fill="none" d="M 63 1 c -0.65 0.61 -24.18 25.59 -37 35 c -7.43 5.46 -18.09 8.38 -27 12 c -1.54 0.62 -4.8 1.1 -5 1 c -0.14 -0.07 1.94 -1.68 3 -2 c 2.99 -0.92 6.57 -1.54 10 -2 c 6.76 -0.9 13.13 -1.59 20 -2 c 10.27 -0.62 19.7 -1 30 -1 c 11.67 0 22.29 0.3 34 1 c 23.14 1.37 44.19 4.25 67 5 c 18.68 0.61 36.72 0.68 55 -1 c 18.19 -1.67 38.75 -7.48 54 -9 c 1.87 -0.19 4.83 1.68 6 3 c 1.1 1.24 2.35 4.49 2 6 c -0.47 2.05 -3.01 5.11 -5 7 c -4.45 4.22 -9.62 8.72 -15 12 c -9.77 5.95 -20.15 10.98 -31 16 c -21.03 9.73 -40.83 18.8 -62 27 c -10.11 3.91 -20.3 6.47 -31 9 c -15.21 3.6 -30.72 7.33 -45 9 l -15 -2"/></svg>