<?xml version="1.0" encoding="UTF-8" standalone="no"?><!DOCTYPE svg PUBLIC "-//W3C//DTD SVG 1.1//EN" "http://www.w3.org/Graphics/SVG/1.1/DTD/svg11.dtd"><svg xmlns="http://www.w3.org/2000/svg" version="1.1" width="546" height="128"><path stroke-linejoin="round" stroke-linecap="round" stroke-width="2" stroke="rgb(52, 58, 64)" fill="none" d="M 121 31 l 1 1"/><path stroke-linejoin="round" stroke-linecap="round" stroke-width="2" stroke="rgb(52, 58, 64)" fill="none" d="M 44 6 l 1 1"/><path stroke-linejoin="round" stroke-linecap="round" stroke-width="2" stroke="rgb(52, 58, 64)" fill="none" d="M 69 56 l 1 1"/><path stroke-linejoin="round" stroke-linecap="round" stroke-width="2" stroke="rgb(52, 58, 64)" fill="none" d="M 197 59 c 0.61 -0.07 22.9 -2.93 35 -4 c 15.15 -1.34 28.92 -2.29 44 -3 c 6.84 -0.32 13.41 -0.53 20 0 c 5.69 0.46 17 3 17 3"/><path stroke-linejoin="round" stroke-linecap="round" stroke-width="2" stroke="rgb(52, 58, 64)" fill="none" d="M 360 91 l 1 1"/><path stroke-linejoin="round" stroke-linecap="round" stroke-width="2" stroke="rgb(52, 58, 64)" fill="none" d="M 238 20 l -4 15"/><path stroke-linejoin="round" stroke-linecap="round" stroke-width="2" stroke="rgb(52, 58, 64)" fill="none" d="M 193 78 l 1 1"/><path stroke-linejoin="round" stroke-linecap="round" stroke-width="2" stroke="rgb(52, 58, 64)" fill="none" d="M 357 11 l 1 1"/><path stroke-linejoin="round" stroke-linecap="round" stroke-width="2" stroke="rgb(52, 58, 64)" fill="none" d="M 273 1 c -0.33 0.16 -13.05 5.4 -19 9 c -8.32 5.03 -16.09 10.92 -24 17 c -5.34 4.1 -11.38 8.18 -15 13 c -3.83 5.11 -6.5 12.64 -9 19 c -1.1 2.79 -2.25 6.34 -2 9 c 0.35 3.65 2.31 8.62 4 12 c 0.75 1.51 2.59 3.22 4 4 c 1.27 0.7 3.57 0.34 5 1 c 2.65 1.22 5.26 4.34 8 5 c 6.12 1.48 13.85 1.67 21 2 c 7.8 0.35 23 0 23 0"/><path stroke-linejoin="round" stroke-linecap="round" stroke-width="2" stroke="rgb(52, 58, 64)" fill="none" d="M 301 96 c 0.23 -0.14 9.03 -4.94 13 -8 c 4.61 -3.54 9.71 -7.62 13 -12 c 3.32 -4.43 6.4 -11.42 8 -16 c 0.37 -1.05 -0.75 -4.2 -1 -4 c -0.55 0.44 -3.73 5.54 -4 8 c -0.31 2.8 0.88 7.19 2 10 c 0.71 1.76 2.52 3.85 4 5 c 1.24 0.97 3.38 1.68 5 2 c 1.51 0.3 3.81 0.67 5 0 c 3.39 -1.91 8.13 -5.65 11 -9 c 2.8 -3.27 5.49 -10.64 7 -12 c 0.46 -0.42 2.31 1.86 3 3 c 2.17 3.61 4.18 7.9 6 12 c 0.86 1.93 1.64 4.05 2 6 c 0.28 1.55 -0.53 4.79 0 5 c 0.62 0.25 3.76 -1.76 5 -3 c 1.53 -1.53 3.06 -3.83 4 -6 c 6.61 -15.22 11.79 -31.92 19 -47 c 3.71 -7.76 12.88 -20.8 14 -22 c 0.3 -0.32 0.41 4.84 0 7 c -0.55 2.93 -2.28 5.9 -3 9 c -1.63 6.98 -2.24 14.2 -4 21 c -0.88 3.43 -3.28 6.67 -4 10 c -0.88 4.03 -1 8.83 -1 13 c 0 1.63 0.18 4.73 1 5 c 1.33 0.44 5.57 -1.8 8 -2 c 1.21 -0.1 2.99 0.37 4 1 c 1.39 0.87 2.56 3.04 4 4 c 1.37 0.91 3.28 1.59 5 2 c 5.2 1.24 10.49 2.29 16 3 c 15.67 2.02 31.14 2.34 46 5 c 7.11 1.27 14.35 4.21 21 7 c 3.5 1.47 6.49 4.36 10 6 c 6.48 3.03 13.84 5.04 20 8 l 5 4"/><path stroke-linejoin="round" stroke-linecap="round" stroke-width="2" stroke="rgb(52, 58, 64)" fill="none" d="M 11 44 c -0.04 0.05 -1.87 2.08 -2 3 c -0.15 1.05 1.18 2.83 1 4 c -0.41 2.69 -2.43 5.94 -3 9 c -1.4 7.49 -1.57 15.61 -3 23 c -0.53 2.72 -3.23 7.66 -3 8 c 0.19 0.28 3.77 -3.15 5 -5 c 1.95 -2.92 3.04 -6.76 5 -10 c 7.88 -13.04 15.72 -26.36 24 -38 c 1.96 -2.75 5.18 -4.88 8 -7 c 2.51 -1.88 5.35 -3.86 8 -5 c 1.71 -0.73 4.15 -1 6 -1 c 1.25 0 2.96 0.41 4 1 c 1.07 0.61 2.66 1.89 3 3 c 0.81 2.63 1 6.66 1 10 c 0 5.66 -0.36 11.26 -1 17 c -0.72 6.48 -1.46 14.16 -3 19 c -0.4 1.26 -3.93 3.28 -4 3 c -0.11 -0.43 2.34 -4.62 3 -7 c 0.97 -3.5 0.77 -7.59 2 -11 c 3 -8.32 6.94 -17.12 11 -25 c 1.49 -2.88 4.2 -6.74 6 -8 c 0.74 -0.52 3.6 0.21 4 1 c 0.87 1.74 0.3 6.07 1 9 c 2.97 12.41 6.2 24.65 10 37 l 6 15"/><path stroke-linejoin="round" stroke-linecap="round" stroke-width="2" stroke="rgb(52, 58, 64)" fill="none" d="M 155 32 c -0.07 -0.05 -2.66 -2.63 -4 -3 c -1.88 -0.51 -5.34 -0.88 -7 0 c -3.19 1.69 -8.89 5.49 -10 9 c -3.74 11.9 -4.83 29.57 -7 45 c -0.57 4.08 -1 8.05 -1 12 c 0 2.97 1.16 6.17 1 9 c -0.16 2.88 -0.94 6.36 -2 9 c -0.83 2.07 -2.55 4.13 -4 6 c -0.85 1.1 -1.89 2.44 -3 3 c -1.91 0.96 -4.7 1.71 -7 2 c -2.85 0.36 -6.15 -0.43 -9 0 c -3.61 0.54 -7.72 3.23 -11 3 c -5.1 -0.36 -11.86 -3.04 -17 -5 c -1.45 -0.55 -3.8 -1.92 -4 -3 c -0.32 -1.78 0.71 -6.06 2 -8 c 1.67 -2.5 5.1 -5.31 8 -7 c 4.76 -2.78 10.52 -5.22 16 -7 c 6.78 -2.2 13.86 -3.75 21 -5 c 6.32 -1.11 12.66 -1.82 19 -2 c 5.65 -0.16 11.41 0.25 17 1 c 4.38 0.58 8.69 1.74 13 3 c 3.78 1.1 7.58 2.39 11 4 c 2.11 0.99 3.89 2.95 6 4 l 10 4"/></svg>