<?xml version="1.0" encoding="UTF-8" standalone="no"?><!DOCTYPE svg PUBLIC "-//W3C//DTD SVG 1.1//EN" "http://www.w3.org/Graphics/SVG/1.1/DTD/svg11.dtd"><svg xmlns="http://www.w3.org/2000/svg" version="1.1" width="563" height="117"><path stroke-linejoin="round" stroke-linecap="round" stroke-width="2" stroke="rgb(52, 58, 64)" fill="none" d="M 562 78 l -3 38"/><path stroke-linejoin="round" stroke-linecap="round" stroke-width="2" stroke="rgb(52, 58, 64)" fill="none" d="M 215 46 l 1 1"/><path stroke-linejoin="round" stroke-linecap="round" stroke-width="2" stroke="rgb(52, 58, 64)" fill="none" d="M 39 27 l 7 24"/><path stroke-linejoin="round" stroke-linecap="round" stroke-width="2" stroke="rgb(52, 58, 64)" fill="none" d="M 1 41 c 0.18 -0.12 6.39 -5.29 10 -7 c 15.75 -7.48 32.64 -14.77 49 -21 c 4.39 -1.67 9.24 -2.24 14 -3 c 3.67 -0.59 7.38 -1 11 -1 c 2.97 0 8.04 0.45 9 1 c 0.38 0.22 -1.2 2.2 -2 3 c -1.1 1.1 -2.54 2.32 -4 3 c -8.26 3.85 -17.64 6.94 -26 11 c -3.2 1.56 -6.44 3.9 -9 6 c -0.85 0.7 -2.41 2.5 -2 3 c 1.55 1.89 7.06 6.12 11 8 c 9.64 4.59 20.59 7.64 31 12 c 4.2 1.76 12 6 12 6"/><path stroke-linejoin="round" stroke-linecap="round" stroke-width="2" stroke="rgb(52, 58, 64)" fill="none" d="M 86 79 c 0.14 -0.07 5.46 -2.43 8 -4 c 4.49 -2.78 8.88 -5.8 13 -9 c 1.84 -1.43 3.23 -3.76 5 -5 c 1.35 -0.94 3.76 -1.11 5 -2 c 0.83 -0.59 2.02 -3.11 2 -3 c -0.05 0.28 -3.51 8.11 -3 9 c 0.39 0.68 4.93 -0.97 7 -2 c 3.71 -1.85 7.16 -5.22 11 -7 c 5.31 -2.46 11.15 -4.35 17 -6 c 7.32 -2.06 14.78 -3.71 22 -5 c 1.92 -0.34 4.33 0.37 6 0 c 1 -0.22 3.19 -1.97 3 -2 c -0.48 -0.08 -6.21 0.3 -9 1 c -2.34 0.59 -5.3 1.53 -7 3 c -2.86 2.48 -8.11 9.33 -8 10 c 0.09 0.52 6.29 -2.24 9 -4 c 10.45 -6.79 21.47 -13.91 31 -22 c 7.98 -6.77 21.57 -22.65 22 -23 c 0.26 -0.21 -7.68 10.08 -12 15 c -5.57 6.34 -14.12 13.97 -17 18 c -0.42 0.59 1.17 2.75 2 3 c 1.84 0.55 6.16 -0.55 8 0 l 2 3"/><path stroke-linejoin="round" stroke-linecap="round" stroke-width="2" stroke="rgb(52, 58, 64)" fill="none" d="M 247 34 c -0.17 0.07 -7.03 2.17 -10 4 c -8.1 5 -23.42 16.23 -24 17 c -0.31 0.42 10.41 -4.13 15 -5 c 1.77 -0.34 4.14 1.19 6 1 c 4.39 -0.44 10.89 -3 14 -3 c 0.78 0 1.17 2.88 2 3 c 2.76 0.39 8.53 -1.22 12 -1 c 1.29 0.08 4 1.32 4 2 c 0 0.97 -2.46 3.69 -4 5 c -2.61 2.21 -6.44 3.9 -9 6 c -0.85 0.7 -1.87 2.08 -2 3 c -0.15 1.05 0.26 3.16 1 4 c 1.55 1.74 4.59 3.95 7 5 c 2.58 1.13 6.67 2.18 9 2 c 1.27 -0.1 2.54 -2.48 4 -3 c 6.36 -2.29 14.38 -3.71 21 -6 c 1.77 -0.61 4.51 -1.58 5 -3 c 2.48 -7.22 5.04 -21.31 6 -29 c 0.12 -0.94 -1.46 -3.09 -2 -3 c -0.85 0.14 -3.22 2.59 -4 4 c -0.7 1.27 -0.38 3.6 -1 5 l -3 4"/><path stroke-linejoin="round" stroke-linecap="round" stroke-width="2" stroke="rgb(52, 58, 64)" fill="none" d="M 350 12 l 1 1"/><path stroke-linejoin="round" stroke-linecap="round" stroke-width="2" stroke="rgb(52, 58, 64)" fill="none" d="M 327 4 c -0.09 0.02 -3.78 0.22 -5 1 c -2.04 1.3 -4.1 3.84 -6 6 c -3.19 3.61 -6.3 7.1 -9 11 c -3.32 4.8 -5.67 10.08 -9 15 c -4.49 6.64 -14 19 -14 19"/><path stroke-linejoin="round" stroke-linecap="round" stroke-width="2" stroke="rgb(52, 58, 64)" fill="none" d="M 337 16 c 0.49 -0.09 18.73 -2.68 28 -5 c 10.93 -2.73 22.41 -7.67 32 -10 c 1.46 -0.35 5 0.5 5 1 c 0 0.62 -3.5 2.5 -5 4 c -2.48 2.48 -4.36 5.68 -7 8 c -8.3 7.3 -16.99 14.3 -26 21 c -4.11 3.06 -8.49 6.2 -13 8 c -6.74 2.69 -22.56 5.62 -22 6 c 0.77 0.51 20.55 0.69 31 0 c 15.26 -1 29.74 -2.89 45 -5 c 6.88 -0.95 19.57 -3.86 20 -4 c 0.17 -0.06 -5.53 -0.44 -8 0 c -2.93 0.52 -6.01 1.77 -9 3 c -10.29 4.22 -20.4 8.33 -30 13 c -2.53 1.23 -7.2 5.07 -7 5 c 0.96 -0.34 30.8 -13.84 38 -16 c 0.78 -0.23 1.26 3.75 2 4 c 0.74 0.25 2.62 -1.63 4 -2 c 3.44 -0.92 8.54 -2.19 11 -2 c 0.79 0.06 1.22 2.81 2 3 c 1.31 0.33 4.17 -0.39 6 -1 c 2.02 -0.67 4.43 -3.22 6 -3 c 2.21 0.32 5.4 4.23 8 5 c 2.48 0.73 6.56 0.94 9 0 c 5.35 -2.06 12.25 -6.28 17 -10 c 2.41 -1.89 5.88 -8.12 6 -8 c 0.13 0.13 -5.38 7.99 -5 9 c 0.3 0.79 5.72 -0.05 8 -1 c 5.2 -2.17 10.7 -5.74 16 -9 c 3.52 -2.17 9.17 -7.24 10 -7 c 0.65 0.19 -1.64 6.18 -3 9 c -3.27 6.78 -7.57 13.13 -11 20 c -1.62 3.24 -3.82 7.87 -4 10 c -0.06 0.71 2.27 2.28 3 2 c 2.47 -0.95 6.89 -4.37 10 -7 c 5.59 -4.73 10.97 -9.55 16 -15 c 11.23 -12.16 31.02 -35.7 32 -37 c 0.19 -0.25 -6.19 2.8 -8 5 c -5.26 6.4 -10.07 14.96 -15 23 c -4.34 7.08 -12.11 19.5 -12 21 c 0.07 0.92 8.84 -4.46 13 -7 c 1.8 -1.1 3.7 -3.67 5 -4 c 0.73 -0.18 2.2 1.2 3 2 l 3 4"/><path stroke-linejoin="round" stroke-linecap="round" stroke-width="2" stroke="rgb(52, 58, 64)" fill="none" d="M 485 26 l 11 4"/></svg>