<?xml version="1.0" encoding="UTF-8" standalone="no"?><!DOCTYPE svg PUBLIC "-//W3C//DTD SVG 1.1//EN" "http://www.w3.org/Graphics/SVG/1.1/DTD/svg11.dtd"><svg xmlns="http://www.w3.org/2000/svg" version="1.1" width="570" height="202"><path stroke-linejoin="round" stroke-linecap="round" stroke-width="2" stroke="rgb(52, 58, 64)" fill="none" d="M 1 35 c 0.3 0.75 11.46 28.05 17 43 c 4.81 12.99 8.14 25.6 13 38 c 1.79 4.56 6.87 13.65 7 13 c 0.29 -1.46 -2.28 -21.76 -3 -33 c -0.3 -4.75 -0.32 -9.26 0 -14 c 0.7 -10.54 1.45 -20.79 3 -31 c 0.77 -5.09 2.38 -9.99 4 -15 c 1.78 -5.51 3.68 -10.7 6 -16 c 2.43 -5.54 5.02 -10.74 8 -16 c 2.77 -4.89 9 -14 9 -14"/><path stroke-linejoin="round" stroke-linecap="round" stroke-width="2" stroke="rgb(52, 58, 64)" fill="none" d="M 79 111 c 0.07 -0.23 3.11 -8.78 4 -13 c 0.39 -1.86 0.35 -4.24 0 -6 c -0.26 -1.31 -1.01 -3.28 -2 -4 c -2.18 -1.58 -6.3 -3.68 -9 -4 c -2.26 -0.27 -5.49 1.06 -8 2 c -2.73 1.02 -5.56 2.43 -8 4 c -2.13 1.37 -4.5 3.16 -6 5 c -1.29 1.58 -2.38 3.99 -3 6 c -0.65 2.12 -1.16 4.9 -1 7 c 0.14 1.88 0.93 4.4 2 6 c 2.04 3.05 5.14 6.53 8 9 c 1.91 1.66 4.66 3.03 7 4 c 1.48 0.62 3.44 1 5 1 c 1.56 0 3.7 -0.35 5 -1 c 1.08 -0.54 2.31 -1.9 3 -3 c 0.87 -1.39 1.7 -3.37 2 -5 c 0.33 -1.82 0.39 -4.14 0 -6 c -0.89 -4.22 -2.39 -9.08 -4 -13 c -0.59 -1.44 -1.9 -2.9 -3 -4 c -0.8 -0.8 -3.04 -2.26 -3 -2 c 0.18 1.15 2.8 10.44 5 15 c 2 4.16 5.16 8.72 8 12 c 1.15 1.33 3.31 2.32 5 3 c 1.48 0.59 3.44 1 5 1 c 1.56 0 3.58 -0.35 5 -1 c 2.01 -0.91 4.17 -2.44 6 -4 c 7.19 -6.13 18.83 -18.54 21 -19 c 1.16 -0.24 -1.82 10.06 -2 15 c -0.15 4.26 0.45 13 1 13 c 0.57 0 2.39 -8.79 4 -13 c 1.06 -2.77 2.66 -6.83 4 -8 c 0.62 -0.54 2.98 0.32 4 1 c 2.63 1.75 5.16 4.95 8 7 c 3.12 2.25 6.71 4.46 10 6 c 1.44 0.67 3.71 1.35 5 1 c 1.83 -0.5 4.31 -2.48 6 -4 c 1.5 -1.35 3.41 -3.23 4 -5 c 1.21 -3.64 2.18 -9.15 2 -13 c -0.12 -2.5 -2.1 -7.1 -3 -8 c -0.38 -0.38 -2.41 1.17 -3 2 c -0.89 1.24 -1.54 3.31 -2 5 c -0.52 1.91 -1 4.09 -1 6 c 0 1.91 0.32 4.24 1 6 c 0.9 2.34 2.27 5.89 4 7 c 2.19 1.41 6.89 1.79 10 2 l 5 -1"/><path stroke-linejoin="round" stroke-linecap="round" stroke-width="2" stroke="rgb(52, 58, 64)" fill="none" d="M 221 81 c -0.09 0.12 -3.18 4.98 -5 7 c -1.06 1.17 -2.59 2.06 -4 3 c -1.64 1.09 -3.25 2.25 -5 3 c -2.84 1.22 -8.35 2.22 -9 3 c -0.34 0.41 2.62 2.5 4 3 c 1.95 0.71 4.74 0.41 7 1 c 4.04 1.06 8.87 2.44 12 4 c 0.89 0.45 2.4 2.6 2 3 c -1.09 1.09 -6.05 3.51 -9 4 c -4.49 0.75 -10.41 0.46 -15 0 c -1.65 -0.16 -3.87 -1.02 -5 -2 l -3 -5"/><path stroke-linejoin="round" stroke-linecap="round" stroke-width="2" stroke="rgb(52, 58, 64)" fill="none" d="M 273 93 c -0.07 0.03 -2.63 1.7 -4 2 c -4.34 0.96 -9.45 1.8 -14 2 c -2.91 0.13 -6.05 -1 -9 -1 c -2.95 0 -8.19 0.19 -9 1 c -0.52 0.52 1.78 3.65 3 5 c 1.63 1.81 3.83 3.7 6 5 c 4.35 2.61 9.76 4.51 14 7 c 1.15 0.68 3.2 2.41 3 3 c -0.27 0.82 -3.34 2.88 -5 3 c -6.25 0.46 -14.68 -0.46 -22 -1 c -1.69 -0.13 -3.57 -0.34 -5 -1 l -8 -5"/><path stroke-linejoin="round" stroke-linecap="round" stroke-width="2" stroke="rgb(52, 58, 64)" fill="none" d="M 321 103 c -0.21 0.03 -8.04 1.05 -12 2 c -4.43 1.06 -9.17 2.18 -13 4 c -2.81 1.34 -6.51 3.84 -8 6 c -1.06 1.53 -1.19 5.11 -1 7 c 0.1 0.96 1.14 2.71 2 3 c 2.4 0.8 6.96 1.19 10 1 c 1.91 -0.12 4.23 -1 6 -2 c 5.67 -3.21 12.94 -9.46 17 -11 c 1 -0.38 3.36 1.84 4 3 c 0.78 1.41 0.26 4.24 1 6 c 1.8 4.26 4.19 9.36 7 13 c 2.56 3.32 6.55 6.24 10 9 l 5 3"/><path stroke-linejoin="round" stroke-linecap="round" stroke-width="2" stroke="rgb(52, 58, 64)" fill="none" d="M 349 149 c -0.02 0.09 -0.56 5.09 -1 5 c -0.62 -0.12 -3.08 -3.91 -4 -6 c -1.33 -3.03 -2.29 -6.59 -3 -10 c -0.96 -4.62 -1.9 -9.32 -2 -14 c -0.23 -10.92 -0.06 -22.19 1 -33 c 0.59 -6.04 2.01 -12.29 4 -18 c 2.95 -8.46 6.64 -17.09 11 -25 c 4.6 -8.35 10.37 -16.97 16 -24 c 1.95 -2.44 5.36 -4.58 8 -6 c 1.35 -0.73 3.93 -1.4 5 -1 c 1.05 0.39 2.9 2.64 3 4 c 0.47 6.56 0.54 16.42 -1 24 c -2.68 13.18 -7.31 26.56 -12 40 c -5.55 15.9 -11.07 30.75 -18 46 c -8.35 18.36 -17.85 36.65 -27 53 c -1.3 2.33 -4.04 4.93 -6 6 l -5 0"/><path stroke-linejoin="round" stroke-linecap="round" stroke-width="2" stroke="rgb(52, 58, 64)" fill="none" d="M 190 30 c 0.05 0.16 1.29 6.86 3 9 c 3.08 3.84 8.27 8.58 13 11 c 9.49 4.85 21.33 8.68 32 12 c 4.11 1.28 8.54 1.59 13 2 c 10.52 0.96 20.57 1.78 31 2 c 5.38 0.11 10.62 -0.3 16 -1 c 10.21 -1.33 19.66 -3.52 30 -5 c 6.49 -0.93 12.56 -1.46 19 -2 c 1.69 -0.14 3.41 -0.25 5 0 c 2.63 0.4 5.86 0.8 8 2 c 2.75 1.55 6.03 4.49 8 7 c 1.41 1.8 2.55 4.66 3 7 c 0.82 4.31 1.13 9.34 1 14 c -0.21 7.67 -0.86 15.38 -2 23 c -0.87 5.77 -2.33 11.75 -4 17 c -0.56 1.75 -3.02 5.2 -3 5 c 0.09 -0.73 2.82 -14.13 5 -21 c 2.17 -6.85 4.9 -13.46 8 -20 c 2.96 -6.25 6.35 -12.2 10 -18 c 2.02 -3.21 6.01 -8.75 7 -9 c 0.61 -0.15 1 4.72 1 7 c 0 3.25 -1 6.63 -1 10 c 0 10.4 -0.11 20.8 1 31 c 0.88 8.06 2.73 16.37 5 24 c 1.32 4.46 4.18 12.02 6 13 c 1.17 0.63 5.26 -3.78 7 -6 c 1.69 -2.15 3.04 -5.22 4 -8 c 2.34 -6.8 4.51 -13.9 6 -21 c 1.17 -5.56 2 -16.1 2 -17 c 0 -0.19 -1.79 1.95 -2 3 c -1 4.99 -2.15 11.53 -2 17 c 0.17 6.14 1.58 13.09 3 19 c 0.49 2.06 1.77 4.59 3 6 c 0.82 0.94 2.8 1.85 4 2 c 1.11 0.14 3.22 -0.22 4 -1 c 2.05 -2.05 4.61 -5.85 6 -9 c 2.15 -4.88 3.86 -10.66 5 -16 c 0.82 -3.83 1 -11.79 1 -12 c 0 -0.12 -1.22 4.83 -1 7 c 0.41 4.1 1.54 9.45 3 13 c 0.62 1.51 2.57 3.35 4 4 c 1.79 0.81 5.53 1.87 7 1 c 3.09 -1.82 7.24 -7.14 10 -11 c 2.08 -2.91 4.18 -6.6 5 -10 c 1.71 -7.05 2.57 -15.44 3 -23 c 0.22 -3.92 0.08 -10.92 -1 -12 c -0.72 -0.72 -5.45 2.31 -7 4 c -1.72 1.88 -2.93 5.24 -4 8 c -1.25 3.22 -2.39 6.61 -3 10 c -1.05 5.88 -2 12.25 -2 18 c 0 3.55 1.03 7.5 2 11 c 0.66 2.38 1.73 5.18 3 7 c 0.84 1.2 2.79 2.88 4 3 c 1.53 0.15 4.24 -1.05 6 -2 c 2.4 -1.29 4.96 -3.05 7 -5 c 5.54 -5.3 11.84 -11.31 16 -17 c 1.69 -2.31 2.42 -6.08 3 -9 c 0.37 -1.85 0.37 -4.33 0 -6 c -0.22 -1 -1.33 -2.89 -2 -3 c -0.83 -0.14 -3.06 1.06 -4 2 c -1.8 1.8 -3.88 4.6 -5 7 c -1.07 2.3 -1.52 5.28 -2 8 c -0.53 2.99 -1 6.09 -1 9 c 0 2.28 0.19 5.21 1 7 c 0.65 1.43 2.55 3.13 4 4 c 1.62 0.97 4.22 2.11 6 2 c 2.94 -0.18 7.12 -1.44 10 -3 c 4.74 -2.57 9.96 -6.37 14 -10 c 2.35 -2.11 4.25 -5.2 6 -8 c 1.56 -2.5 2.98 -5.27 4 -8 c 0.94 -2.51 2.53 -7.07 2 -8 c -0.39 -0.68 -4.54 0.1 -6 1 c -2.37 1.46 -5.34 4.51 -7 7 c -1.43 2.15 -2.24 5.27 -3 8 c -0.91 3.26 -1.61 6.68 -2 10 c -0.27 2.28 -0.71 5.3 0 7 c 0.71 1.71 3.28 3.97 5 5 c 1.24 0.75 3.66 1.33 5 1 c 2.11 -0.53 4.89 -2.42 7 -4 c 3.15 -2.36 6.82 -4.92 9 -8 c 4.79 -6.75 9.23 -15.08 13 -23 c 2.89 -6.07 5.53 -12.51 7 -19 c 3.15 -13.97 5.69 -28.59 7 -43 c 1.02 -11.24 0.27 -22.52 0 -34 c -0.07 -3.06 -0.5 -8.25 -1 -9 c -0.23 -0.35 -2.5 1.85 -3 3 c -1.61 3.69 -2.91 8.52 -4 13 c -1.63 6.71 -2.87 13.06 -4 20 c -3.7 22.71 -7.11 43.32 -10 66 c -1.56 12.27 -2.29 23.71 -3 36 c -0.31 5.44 -0.4 10.77 0 16 l 2 10"/></svg>