<?xml version="1.0" encoding="UTF-8" standalone="no"?><!DOCTYPE svg PUBLIC "-//W3C//DTD SVG 1.1//EN" "http://www.w3.org/Graphics/SVG/1.1/DTD/svg11.dtd"><svg xmlns="http://www.w3.org/2000/svg" version="1.1" width="383" height="64"><path stroke-linejoin="round" stroke-linecap="round" stroke-width="2" stroke="rgb(52, 58, 64)" fill="none" d="M 69 38 l 1 1"/><path stroke-linejoin="round" stroke-linecap="round" stroke-width="2" stroke="rgb(52, 58, 64)" fill="none" d="M 1 32 c 1 0.02 37.25 1 57 1 c 24.25 0 45.73 -0.26 70 -1 c 32.97 -1 62.83 -1.32 95 -4 c 24.93 -2.08 47.76 -6.24 73 -10 c 14.25 -2.12 26.94 -4.22 41 -7 c 15.58 -3.08 44.18 -9.84 45 -10 c 0.1 -0.02 -3.5 1.1 -5 2 c -3.39 2.04 -6.43 4.89 -10 7 c -14.78 8.76 -29.12 17.79 -44 25 c -6.79 3.29 -14.42 5.51 -22 7 c -34.97 6.88 -68.95 12.35 -105 18 c -9.87 1.55 -19.14 2.58 -29 3 c -14.2 0.6 -27.64 0.26 -42 0 c -4.8 -0.09 -10.29 0.24 -14 -1 c -2.44 -0.81 -6.17 -4.33 -7 -6 c -0.4 -0.81 0.99 -3.95 2 -4 c 18.79 -0.88 54.16 -0.23 83 0 c 15.64 0.12 29.53 0.14 45 1 c 27.92 1.55 81 6 81 6"/></svg>