<?xml version="1.0" encoding="UTF-8" standalone="no"?><!DOCTYPE svg PUBLIC "-//W3C//DTD SVG 1.1//EN" "http://www.w3.org/Graphics/SVG/1.1/DTD/svg11.dtd"><svg xmlns="http://www.w3.org/2000/svg" version="1.1" width="365" height="152"><path stroke-linejoin="round" stroke-linecap="round" stroke-width="2" stroke="rgb(52, 58, 64)" fill="none" d="M 360 46 c 0.02 -0.09 0.41 -3.52 1 -5 c 0.68 -1.69 3 -5 3 -5"/><path stroke-linejoin="round" stroke-linecap="round" stroke-width="2" stroke="rgb(52, 58, 64)" fill="none" d="M 1 97 c 0.33 -0.07 12.94 -2.18 19 -4 c 3.77 -1.13 7.43 -3.07 11 -5 c 4.51 -2.44 8.81 -4.94 13 -8 c 24.71 -18.02 49.17 -35.23 72 -54 c 6.82 -5.61 12.31 -13.23 18 -20 c 1.23 -1.47 3.24 -4.52 3 -5 c -0.21 -0.42 -3.55 0.3 -5 1 c -6.5 3.12 -14.25 6.73 -20 11 c -4.1 3.04 -7 8.2 -11 12 c -9.23 8.75 -19.4 16.04 -28 25 c -7.01 7.31 -13.02 15.78 -19 24 c -2.01 2.76 -3.74 5.95 -5 9 c -1.01 2.45 -2 5.63 -2 8 c 0 1.81 1.07 4.52 2 6 c 0.53 0.84 2 1.95 3 2 c 4.44 0.23 11.04 0.03 16 -1 l 13 -5"/><path stroke-linejoin="round" stroke-linecap="round" stroke-width="2" stroke="rgb(52, 58, 64)" fill="none" d="M 74 70 c -0.09 0.05 -3.84 1.67 -5 3 c -3.15 3.6 -7.16 8.46 -9 13 c -2.88 7.1 -5.07 17.71 -6 24 c -0.14 0.92 1.29 2.9 2 3 c 1.06 0.15 3.5 -1.1 5 -2 c 3.39 -2.04 6.85 -4.4 10 -7 c 4.57 -3.77 8.89 -7.62 13 -12 c 11.51 -12.26 22.13 -24.04 33 -37 c 6.89 -8.21 13.03 -16.41 19 -25 c 2.38 -3.43 6.16 -11.16 6 -11 c -0.29 0.29 -8.88 12.79 -14 19 c -10.92 13.24 -22.47 24.78 -33 38 c -5.28 6.63 -11.04 15.07 -14 21 c -0.6 1.2 0.26 5.12 1 5 c 2.74 -0.46 11.4 -4.97 17 -8 c 6.95 -3.76 13.55 -8.65 20 -12 c 1.41 -0.73 5.08 -1.51 5 -1 c -0.24 1.57 -4.18 9.71 -7 14 c -4.1 6.25 -8.9 12.39 -14 18 c -4.91 5.4 -10.24 10.64 -16 15 c -7.8 5.9 -16.6 11.16 -25 16 c -2.42 1.39 -5.8 2.82 -8 3 c -1.15 0.1 -3.7 -1.11 -4 -2 c -0.47 -1.41 0.43 -4.74 1 -7 c 0.76 -3.04 1.49 -6.3 3 -9 c 10.58 -18.87 22.03 -38.01 34 -57 c 3.61 -5.72 7.34 -11.57 12 -16 c 8.62 -8.2 19.91 -15.33 29 -23 c 1.23 -1.04 2.65 -4.26 3 -4 c 0.49 0.37 1.14 4.83 1 7 c -0.17 2.53 -0.69 5.8 -2 8 c -6.53 10.97 -22.81 33.31 -23 34 c -0.14 0.51 12.75 -15.63 20 -23 c 12.79 -13.01 36.35 -35.09 39 -37 c 0.56 -0.41 -1.44 7.64 -3 11 c -4.65 10.03 -11.7 20.04 -16 30 c -1.81 4.19 -2.78 10.07 -3 14 c -0.07 1.23 1.16 3 2 4 c 0.67 0.81 2.27 1.17 3 2 c 1.45 1.66 2.87 3.91 4 6 c 1.19 2.21 2.64 4.66 3 7 c 0.9 5.84 2.68 13.95 1 19 c -2.43 7.29 -9.69 15.51 -15 23 c -2.06 2.9 -4.49 5.49 -7 8 c -2.18 2.18 -4.55 4.31 -7 6 c -1.78 1.23 -4.05 2.55 -6 3 c -2.03 0.47 -5.09 0.68 -7 0 c -3.19 -1.12 -7.29 -3.6 -10 -6 c -2.97 -2.64 -6.25 -6.5 -8 -10 c -1.99 -3.98 -3.4 -9.6 -4 -14 c -0.33 -2.44 0.15 -5.72 1 -8 c 1 -2.66 3.14 -5.46 5 -8 c 1.82 -2.48 3.77 -5.21 6 -7 l 9 -5"/><path stroke-linejoin="round" stroke-linecap="round" stroke-width="2" stroke="rgb(52, 58, 64)" fill="none" d="M 184 80 c 0.09 0.02 3.67 1.17 5 1 c 0.94 -0.12 2.87 -1.18 3 -2 c 0.39 -2.52 0.01 -9.7 -1 -11 c -0.58 -0.75 -4.28 0.99 -6 2 c -3.7 2.18 -8.15 5.15 -11 8 c -1.41 1.41 -2.22 3.92 -3 6 c -1.21 3.23 -3 7.6 -3 10 c 0 0.98 2.11 2.87 3 3 c 0.93 0.13 2.99 -1.13 4 -2 c 1.13 -0.97 1.83 -2.96 3 -4 c 1.68 -1.5 4.4 -2.4 6 -4 c 2.53 -2.53 5.03 -5.94 7 -9 c 0.93 -1.44 2.02 -5.09 2 -5 c -0.03 0.2 -2.62 7.55 -3 11 c -0.24 2.14 0.26 6.11 1 7 c 0.43 0.52 2.8 -0.43 4 -1 c 5.61 -2.67 11.9 -5.3 17 -9 c 11.68 -8.47 23.03 -18.01 34 -28 c 7.92 -7.22 14.82 -15.05 22 -23 c 2.26 -2.5 4.9 -5.44 6 -8 c 0.66 -1.53 0.21 -6.26 0 -6 c -0.79 1.01 -8.12 12.98 -11 20 c -7.11 17.31 -13 35 -19 53 c -1.42 4.26 -2.97 12.77 -3 13 c -0.01 0.09 1.87 -3.35 2 -5 c 0.49 -6.13 0.57 -13.5 0 -20 c -0.41 -4.66 -1.67 -9.45 -3 -14 c -1 -3.42 -2.02 -7.33 -4 -10 c -4.28 -5.78 -10.47 -12.13 -16 -17 c -2.44 -2.15 -5.89 -3.78 -9 -5 c -4.4 -1.72 -11.29 -4.17 -14 -4 c -1 0.06 -2.72 4.28 -2 5 c 2.46 2.46 10.56 6.92 16 9 c 5.46 2.09 11.88 3.08 18 4 c 7.33 1.1 14.5 1.63 22 2 c 6.45 0.31 12.82 0.56 19 0 c 4.66 -0.42 9.85 -1.28 14 -3 c 5.06 -2.1 11.01 -5.58 15 -9 c 2.47 -2.12 4.4 -6.03 6 -9 c 0.61 -1.13 1.15 -2.95 1 -4 c -0.13 -0.92 -1.91 -3.31 -2 -3 c -1.14 3.98 -6.04 30.07 -10 45 c -1.74 6.56 -4.29 12.72 -7 19 c -2.7 6.24 -5.82 12.17 -9 18 c -0.79 1.45 -2.96 4.33 -3 4 c -0.17 -1.24 1 -12.72 1 -19 c 0 -2.66 -0.33 -5.44 -1 -8 c -1.31 -5.02 -5.16 -12.24 -5 -15 c 0.06 -1.1 3.95 -1.63 6 -2 c 7.2 -1.29 14.55 -1.7 22 -3 l 18 -4"/></svg>