<?xml version="1.0" encoding="UTF-8" standalone="no"?><!DOCTYPE svg PUBLIC "-//W3C//DTD SVG 1.1//EN" "http://www.w3.org/Graphics/SVG/1.1/DTD/svg11.dtd"><svg xmlns="http://www.w3.org/2000/svg" version="1.1" width="592" height="125"><path stroke-linejoin="round" stroke-linecap="round" stroke-width="2" stroke="rgb(52, 58, 64)" fill="none" d="M 56 27 l 1 1"/><path stroke-linejoin="round" stroke-linecap="round" stroke-width="2" stroke="rgb(52, 58, 64)" fill="none" d="M 48 9 c 0.07 0.03 2.88 1.16 4 2 c 1.42 1.07 2.45 3.68 4 4 c 17.75 3.65 46.08 9.04 64 10 c 3.47 0.18 7.93 -3.61 11 -6 c 2.61 -2.03 5.05 -5.14 7 -8 c 2.3 -3.37 6 -8.68 6 -11 c 0 -1.33 -3.99 -3.09 -6 -4 c -1.42 -0.65 -3.47 -1.23 -5 -1 c -6.76 1 -14.68 2.97 -22 5 c -4.82 1.34 -9.39 2.95 -14 5 c -16.78 7.46 -32.75 16.82 -49 23 c -6.71 2.55 -15.28 3.22 -22 4 c -1.24 0.14 -4.21 -0.86 -4 -1 c 0.52 -0.35 6.58 -2.22 10 -3 c 3.99 -0.91 7.97 -1.81 12 -2 c 9.94 -0.47 20.23 -0.67 30 0 c 4.66 0.32 9.32 1.7 14 3 c 7.55 2.1 22 7 22 7"/><path stroke-linejoin="round" stroke-linecap="round" stroke-width="2" stroke="rgb(52, 58, 64)" fill="none" d="M 12 40 c 0.35 0.16 13.15 6.47 20 9 c 5.84 2.15 11.82 3.68 18 5 c 8.05 1.72 15.86 3.13 24 4 c 7.7 0.82 15.44 1.35 23 1 c 6.64 -0.31 13.34 -1.6 20 -3 c 6.15 -1.29 12.24 -2.89 18 -5 c 4.14 -1.52 8.84 -3.47 12 -6 c 3.02 -2.41 5.91 -6.52 8 -10 c 1.76 -2.93 3.67 -7 4 -10 c 0.26 -2.3 -0.92 -6.02 -2 -8 c -0.66 -1.2 -2.61 -2.57 -4 -3 c -2.52 -0.77 -6.15 -1.36 -9 -1 c -12.16 1.55 -25.36 4.05 -38 7 c -7.55 1.76 -15.44 3.81 -22 7 c -5.91 2.88 -12 7.5 -17 12 c -4.77 4.29 -9.65 9.59 -13 15 c -5.05 8.16 -8.33 17.87 -13 27 c -2.52 4.91 -5.13 9.7 -8 14 c -1.01 1.51 -2.71 3.77 -4 4 c -1.66 0.3 -4.9 -0.95 -7 -2 c -6.99 -3.5 -18.97 -9.39 -21 -12 c -0.77 -1 4.49 -5.43 7 -6 c 7.63 -1.75 19.22 -2.41 28 -2 c 4.85 0.23 10.1 2.31 15 4 c 4.81 1.66 10.18 3.52 14 6 c 2.31 1.5 3.83 5.01 6 7 l 6 4"/><path stroke-linejoin="round" stroke-linecap="round" stroke-width="2" stroke="rgb(52, 58, 64)" fill="none" d="M 54 110 c 0.23 -0.11 9.09 -3.56 13 -6 c 3.88 -2.42 7.1 -6.35 11 -9 c 4.42 -3.01 9.74 -4.93 14 -8 c 3.93 -2.83 7.42 -6.42 11 -10 c 4.26 -4.26 9.01 -8.86 12 -13 c 0.86 -1.19 1.17 -3.67 1 -5 c -0.12 -0.94 -1.62 -3.28 -2 -3 c -1.13 0.85 -5.75 6.32 -6 9 c -0.3 3.13 2.44 8.87 4 12 c 0.45 0.89 2.14 2.09 3 2 c 1.81 -0.18 4.61 -2.25 7 -3 c 2.9 -0.91 6.52 -0.76 9 -2 c 3.07 -1.53 6.14 -4.45 9 -7 c 3.2 -2.84 7.53 -9.25 9 -9 c 1.32 0.22 1.61 7.82 3 11 c 0.78 1.79 2.42 3.84 4 5 l 11 6"/><path stroke-linejoin="round" stroke-linecap="round" stroke-width="2" stroke="rgb(52, 58, 64)" fill="none" d="M 212 74 c -0.1 -0.03 -3.99 -1.7 -6 -2 c -4.47 -0.67 -9.42 -1 -14 -1 c -2.31 0 -4.95 0.23 -7 1 c -2.98 1.12 -6.53 3.2 -9 5 c -0.87 0.63 -2.09 2.17 -2 3 c 0.17 1.55 1.77 4.22 3 6 c 1.69 2.45 5.5 4.74 6 7 c 0.61 2.74 -0.75 7.97 -2 11 c -0.87 2.11 -3.17 4.17 -5 6 c -2.16 2.16 -4.59 4.52 -7 6 c -1.65 1.02 -4.16 1.83 -6 2 c -1.48 0.13 -4.62 -0.15 -5 -1 c -0.6 -1.35 0.17 -5.62 1 -8 c 1.38 -3.95 3.25 -8.95 6 -12 c 5.96 -6.6 14.31 -13.13 22 -19 c 4.99 -3.81 10.86 -6.33 16 -10 c 4.26 -3.04 7.99 -6.43 12 -10 c 5.27 -4.69 10.11 -8.98 15 -14 c 8.44 -8.66 22.48 -23.89 24 -26 c 0.26 -0.36 -4.9 -0.15 -6 1 c -4.4 4.62 -10 12.91 -14 20 c -7.7 13.64 -19.79 38.07 -21 42 c -0.24 0.79 6.08 -2.42 9 -3 c 1.85 -0.37 4.25 -0.58 6 0 c 9.43 3.14 30 12 30 12"/><path stroke-linejoin="round" stroke-linecap="round" stroke-width="2" stroke="rgb(52, 58, 64)" fill="none" d="M 285 19 c -0.03 0.09 -1.66 3.28 -2 5 c -1.94 9.72 -4.29 20.07 -5 30 c -0.61 8.49 0.14 17.44 1 26 c 0.47 4.71 2.47 12.84 3 14 c 0.13 0.29 1.66 -1.93 2 -3 c 1.55 -4.9 4 -16 4 -16"/><path stroke-linejoin="round" stroke-linecap="round" stroke-width="2" stroke="rgb(52, 58, 64)" fill="none" d="M 305 87 c 0.09 0.14 3.22 5.77 5 8 c 0.68 0.85 2.05 1.89 3 2 c 1.61 0.18 4.61 -0.12 6 -1 c 1.78 -1.14 3.57 -3.86 5 -6 c 1.88 -2.82 3.58 -5.87 5 -9 c 1.93 -4.24 3.58 -8.49 5 -13 c 2.65 -8.41 5.01 -16.45 7 -25 c 1.4 -6.01 3 -18 3 -18"/><path stroke-linejoin="round" stroke-linecap="round" stroke-width="2" stroke="rgb(52, 58, 64)" fill="none" d="M 378 55 c -0.14 0.04 -6.16 0.78 -8 2 c -1.61 1.07 -2.42 4.42 -4 6 c -1.88 1.88 -5.32 2.98 -7 5 c -2.99 3.58 -5.99 8.77 -8 13 c -0.8 1.69 -1.62 5.13 -1 6 c 0.62 0.87 4.51 1.53 6 1 c 2.45 -0.87 5.98 -3.8 8 -6 c 1.35 -1.48 2.53 -3.99 3 -6 c 0.78 -3.32 1.72 -7.99 1 -11 c -0.76 -3.17 -5.47 -7.7 -6 -10 c -0.19 -0.84 1.85 -2.71 3 -3 c 5.73 -1.43 14.38 -2.79 21 -3 c 3.18 -0.1 7.53 0.97 10 2 c 0.87 0.36 2.13 2.08 2 3 c -0.94 6.57 -3.73 16.66 -6 25 c -0.76 2.77 -2.28 5.31 -3 8 c -0.59 2.23 -1 4.79 -1 7 l 1 5"/><path stroke-linejoin="round" stroke-linecap="round" stroke-width="2" stroke="rgb(52, 58, 64)" fill="none" d="M 416 45 c -0.04 0.16 -1.89 6.06 -2 9 c -0.21 5.76 1 18 1 18"/><path stroke-linejoin="round" stroke-linecap="round" stroke-width="2" stroke="rgb(52, 58, 64)" fill="none" d="M 487 25 c -0.09 0.11 -3.03 4.49 -5 6 c -6.36 4.89 -13.71 9.5 -21 14 c -4.27 2.63 -8.47 5.11 -13 7 c -7.47 3.11 -15.4 5.99 -23 8 c -3.45 0.91 -10.56 0.74 -11 1 c -0.25 0.15 4.14 1.07 6 2 c 4.73 2.37 9.82 4.96 14 8 c 2.93 2.13 5.65 5.1 8 8 c 3.28 4.06 6.48 8.5 9 13 c 2.07 3.7 5 12 5 12"/><path stroke-linejoin="round" stroke-linecap="round" stroke-width="2" stroke="rgb(52, 58, 64)" fill="none" d="M 473 52 c -0.05 0.35 -2.46 13.28 -3 20 c -0.46 5.65 -0.82 17.18 0 17 c 1.01 -0.22 7.54 -19.22 9 -19 c 1.48 0.23 2.79 18.72 4 21 c 0.36 0.68 3.81 -2.42 5 -4 c 2.58 -3.43 5.49 -10.64 7 -12 c 0.46 -0.42 2.31 1.9 3 3 c 0.87 1.39 1.06 3.9 2 5 l 4 2"/><path stroke-linejoin="round" stroke-linecap="round" stroke-width="2" stroke="rgb(52, 58, 64)" fill="none" d="M 551 71 c -0.17 -0.11 -6.69 -4.35 -10 -6 c -1.17 -0.58 -2.72 -1 -4 -1 c -2.81 0 -6.68 0.11 -9 1 c -1.45 0.56 -2.9 2.53 -4 4 c -1.84 2.45 -4.03 5.47 -5 8 c -0.52 1.34 -0.41 5.21 0 5 c 1.34 -0.67 8.31 -7.11 12 -11 c 2.27 -2.39 4.8 -7.73 6 -8 c 0.81 -0.18 2.22 3.92 3 6 c 1.21 3.23 1.64 7.66 3 10 c 0.58 1 2.96 2 4 2 c 0.84 0 2.52 -2.32 3 -2 c 0.9 0.6 2.79 4.07 3 6 c 0.38 3.46 -1.78 10.96 -1 12 c 0.52 0.7 5.73 -2.42 7 -4 c 0.95 -1.19 0.22 -4.59 1 -6 c 0.64 -1.16 3.2 -1.89 4 -3 c 0.66 -0.92 0.71 -4.15 1 -4 c 0.47 0.24 1.58 4.47 3 6 c 6.75 7.27 23 22 23 22"/></svg>