<?xml version="1.0" encoding="UTF-8" standalone="no"?><!DOCTYPE svg PUBLIC "-//W3C//DTD SVG 1.1//EN" "http://www.w3.org/Graphics/SVG/1.1/DTD/svg11.dtd"><svg xmlns="http://www.w3.org/2000/svg" version="1.1" width="544" height="136"><path stroke-linejoin="round" stroke-linecap="round" stroke-width="2" stroke="rgb(52, 58, 64)" fill="none" d="M 496 40 c 0.11 -0.31 3.63 -11.97 6 -18 c 5.15 -13.1 10.72 -24.79 16 -38 c 3.69 -9.23 6.09 -18.53 10 -27 c 1.96 -4.24 5.1 -8.13 8 -12 c 2.14 -2.85 7 -8 7 -8"/><path stroke-linejoin="round" stroke-linecap="round" stroke-width="2" stroke="rgb(52, 58, 64)" fill="none" d="M 58 29 c 0 0.28 0.25 10.76 0 16 c -0.08 1.67 -0.45 3.54 -1 5 c -0.39 1.03 -1.09 2.8 -2 3 c -12.06 2.71 -32.9 4.81 -47 8 c -2.13 0.48 -4.84 2.51 -6 4 c -0.82 1.06 -1.67 4.49 -1 5 c 1.2 0.9 6.22 1.46 9 1 c 10.42 -1.74 22.56 -4.45 33 -8 c 6.88 -2.34 13.55 -6.2 20 -10 c 6.64 -3.92 12.32 -8.77 19 -13 c 10.15 -6.42 20.1 -13.16 30 -18 c 3.78 -1.84 8.71 -2.39 13 -3 c 2.57 -0.37 5.95 -0.73 8 0 c 2.01 0.72 5.09 3 6 5 c 2.3 5.02 3.76 12.81 5 19 c 0.38 1.89 -0.54 4.38 0 6 c 0.65 1.95 2.48 4.31 4 6 c 1.35 1.5 3.22 2.9 5 4 c 2.49 1.53 5.73 4.11 8 4 c 3.3 -0.17 8.33 -2.98 12 -5 c 2.82 -1.55 5.14 -4.4 8 -6 c 5.37 -3 11.57 -6.91 17 -8 c 5.21 -1.04 12.25 0.07 18 1 c 4.34 0.7 8.54 3.04 13 4 c 7.97 1.72 15.76 3.02 24 4 c 11.9 1.41 23.05 2.53 35 3 c 14.29 0.56 27.59 0.38 42 0 c 11.34 -0.3 33 -2 33 -2"/></svg>