<?xml version="1.0" encoding="UTF-8" standalone="no"?><!DOCTYPE svg PUBLIC "-//W3C//DTD SVG 1.1//EN" "http://www.w3.org/Graphics/SVG/1.1/DTD/svg11.dtd"><svg xmlns="http://www.w3.org/2000/svg" version="1.1" width="575" height="176"><path stroke-linejoin="round" stroke-linecap="round" stroke-width="2" stroke="rgb(52, 58, 64)" fill="none" d="M 131 15 l 1 1"/><path stroke-linejoin="round" stroke-linecap="round" stroke-width="2" stroke="rgb(52, 58, 64)" fill="none" d="M 19 50 c -0.09 0.26 -4.14 9.94 -5 15 c -1.75 10.28 -2.56 21.09 -3 32 c -0.58 14.59 0.45 39.7 0 43 c -0.08 0.6 -4.31 -3.84 -5 -6 c -1.7 -5.31 -2.39 -12.51 -3 -19 c -1.08 -11.5 -2.95 -23.22 -2 -34 c 0.98 -11.05 4.84 -22.62 8 -34 c 1.92 -6.91 4.12 -13.69 7 -20 c 2.38 -5.21 5.7 -10.15 9 -15 c 2.41 -3.55 5.12 -6.93 8 -10 c 2.08 -2.21 4.75 -5.25 7 -6 c 1.97 -0.66 6.35 -0.1 8 1 c 1.65 1.1 2.94 4.58 4 7 c 1.25 2.85 2.61 6.04 3 9 c 0.57 4.36 0.32 9.32 0 14 c -0.35 5.06 -1.03 9.99 -2 15 c -1.06 5.46 -2.3 10.74 -4 16 c -1.66 5.15 -3.7 10.06 -6 15 c -2.1 4.52 -4.32 8.84 -7 13 c -4.04 6.26 -8.4 12.48 -13 18 l -7 6"/><path stroke-linejoin="round" stroke-linecap="round" stroke-width="2" stroke="rgb(52, 58, 64)" fill="none" d="M 56 107 c -0.19 0.02 -7.55 0.35 -11 1 c -1.68 0.32 -3.54 1.12 -5 2 c -1.74 1.05 -3.53 2.53 -5 4 c -1.47 1.47 -2.92 3.21 -4 5 c -1.88 3.13 -4.17 7.09 -5 10 c -0.31 1.07 0.4 2.91 1 4 c 0.94 1.69 2.51 4.6 4 5 c 2.56 0.68 8 -0.06 11 -1 c 1.74 -0.54 3.5 -2.5 5 -4 c 3.16 -3.16 6.68 -6.63 9 -10 c 1.09 -1.59 1.08 -4.17 2 -6 c 1.37 -2.73 4.49 -8.43 5 -8 c 0.71 0.59 0.32 8.93 1 13 c 0.28 1.68 1.12 3.54 2 5 c 1.05 1.74 2.94 5.24 4 5 c 1.99 -0.46 6.82 -4.94 9 -8 c 4.14 -5.79 7.91 -13.2 11 -20 c 1.84 -4.05 2.94 -8.57 4 -13 c 0.95 -3.96 1.65 -7.98 2 -12 c 0.32 -3.63 0.33 -7.39 0 -11 c -0.33 -3.67 -1.08 -7.56 -2 -11 c -0.37 -1.38 -1.26 -3.75 -2 -4 c -0.74 -0.25 -3.52 1.04 -4 2 c -0.87 1.73 -0.91 5.29 -1 8 c -0.25 7.39 -0.86 14.76 0 22 c 2.13 18.03 5.66 35.63 9 54 c 0.75 4.15 1.93 11.06 3 12 c 0.61 0.53 4.24 -3.05 5 -5 c 4.04 -10.36 6.7 -24.03 11 -36 c 3.48 -9.69 10.35 -25.06 12 -28 c 0.19 -0.35 2.14 2.07 2 3 c -1.46 9.76 -5.54 24.42 -8 37 c -0.59 3.01 -1.3 6.28 -1 9 c 0.32 2.85 1.57 6.86 3 9 c 0.88 1.32 3.5 2.87 5 3 c 1.88 0.16 5.29 -0.82 7 -2 c 2.16 -1.5 4.3 -4.45 6 -7 c 4.96 -7.44 11.35 -22.49 14 -23 c 1.99 -0.38 4.64 16.13 7 19 c 0.85 1.03 5.4 -0.74 7 -2 c 2.51 -1.97 5.36 -5.88 7 -9 c 1.5 -2.85 2.57 -7 3 -10 c 0.17 -1.18 -0.37 -2.99 -1 -4 c -0.87 -1.39 -2.64 -3.4 -4 -4 c -1.2 -0.53 -4.37 -0.84 -5 0 c -1.6 2.13 -3.62 8.12 -4 12 c -0.57 5.84 0.07 13.67 1 19 c 0.24 1.4 2.14 4 3 4 c 1.1 0 3.87 -2.39 5 -4 c 3.23 -4.62 6.5 -10.58 9 -16 c 1.42 -3.08 3 -9.8 3 -10 c 0 -0.13 -2.32 3.95 -3 6 c -0.94 2.82 -1.8 6.21 -2 9 c -0.11 1.54 0.45 3.54 1 5 c 0.39 1.03 1.19 2.33 2 3 c 1 0.84 2.7 1.71 4 2 c 1.46 0.32 3.44 0.31 5 0 c 3.25 -0.65 6.98 -1.55 10 -3 l 13 -8"/><path stroke-linejoin="round" stroke-linecap="round" stroke-width="2" stroke="rgb(52, 58, 64)" fill="none" d="M 226 100 c -0.09 0.21 -3.99 7.97 -5 12 c -1.25 5 -1.78 10.84 -2 16 c -0.1 2.26 0.19 6.33 1 7 c 0.61 0.51 3.85 -0.97 5 -2 c 1.83 -1.65 3.23 -5.01 5 -7 c 0.74 -0.83 2.51 -2.35 3 -2 c 1.1 0.78 2.42 5.24 4 7 c 1.14 1.27 3.51 2.67 5 3 c 1.06 0.23 3.03 -0.3 4 -1 l 7 -7"/><path stroke-linejoin="round" stroke-linecap="round" stroke-width="2" stroke="rgb(52, 58, 64)" fill="none" d="M 203 78 l 1 1"/><path stroke-linejoin="round" stroke-linecap="round" stroke-width="2" stroke="rgb(52, 58, 64)" fill="none" d="M 134 86 l 1 1"/><path stroke-linejoin="round" stroke-linecap="round" stroke-width="2" stroke="rgb(52, 58, 64)" fill="none" d="M 61 83 l 17 -2"/><path stroke-linejoin="round" stroke-linecap="round" stroke-width="2" stroke="rgb(52, 58, 64)" fill="none" d="M 237 51 c 0.49 0.07 18.77 2.2 28 4 c 4.44 0.87 8.96 2.22 13 4 c 4.13 1.82 8.59 4.27 12 7 c 2.96 2.37 6.18 5.81 8 9 c 1.91 3.35 3.37 8.08 4 12 c 0.65 4.03 0.68 8.92 0 13 c -0.93 5.56 -2.87 11.88 -5 17 c -1.03 2.48 -3.12 5.29 -5 7 c -1.47 1.33 -4.29 2.84 -6 3 c -1.37 0.12 -4.1 -0.97 -5 -2 c -1.05 -1.21 -1.75 -4.03 -2 -6 c -0.39 -3.12 -0.4 -6.76 0 -10 c 0.58 -4.64 1.19 -9.84 3 -14 c 3.63 -8.32 8.98 -17.35 14 -25 c 1.73 -2.64 4.51 -5.34 7 -7 c 2.15 -1.43 5.79 -3 8 -3 c 1.73 0 4.69 1.59 6 3 c 2.27 2.46 4.65 6.62 6 10 c 1.18 2.95 1.67 6.67 2 10 c 0.33 3.26 0.56 6.91 0 10 c -0.71 3.91 -3.36 11.25 -4 12 c -0.27 0.32 -1.89 -3.41 -2 -5 c -0.19 -2.67 0.15 -6.32 1 -9 c 1.05 -3.31 2.98 -6.91 5 -10 c 3.61 -5.52 8.03 -12.63 12 -16 c 1.6 -1.36 6.19 -1.6 8 -1 c 1.44 0.48 2.97 3.23 4 5 c 1.23 2.1 2.74 4.64 3 7 c 1.62 14.6 1.58 31.94 3 47 l 2 6"/><path stroke-linejoin="round" stroke-linecap="round" stroke-width="2" stroke="rgb(52, 58, 64)" fill="none" d="M 446 123 c -0.04 0.05 -1.22 2.22 -2 3 c -0.78 0.78 -1.93 1.52 -3 2 c -2.52 1.15 -5.33 2.57 -8 3 c -5.32 0.85 -11.56 1.35 -17 1 c -4.57 -0.29 -9.43 -1.65 -14 -3 c -4.44 -1.32 -9.07 -2.87 -13 -5 c -3.84 -2.08 -7.95 -4.95 -11 -8 c -3.36 -3.36 -6.56 -7.82 -9 -12 c -2.11 -3.62 -4.08 -8.02 -5 -12 c -0.99 -4.29 -1.49 -9.73 -1 -14 c 0.44 -3.85 2.09 -8.65 4 -12 c 1.82 -3.19 5.08 -6.56 8 -9 c 2.83 -2.36 6.68 -4.94 10 -6 c 3.43 -1.09 8.52 -1.6 12 -1 c 3.49 0.61 7.91 2.88 11 5 c 2.89 1.98 6.45 5 8 8 c 3.03 5.87 5.96 14.26 7 21 c 0.84 5.49 -0.03 12.2 -1 18 c -1 6.01 -2.67 12.42 -5 18 c -2.56 6.15 -6.29 12.16 -10 18 c -3.36 5.27 -6.93 10.58 -11 15 c -3.41 3.71 -7.8 6.94 -12 10 c -3.14 2.28 -6.7 4.72 -10 6 c -2.28 0.89 -6.19 1.6 -8 1 c -1.44 -0.48 -3.38 -3.27 -4 -5 c -0.87 -2.45 -1.27 -6.2 -1 -9 c 0.36 -3.82 1.44 -8.32 3 -12 c 3 -7.06 6.65 -14.54 11 -21 c 5.88 -8.72 13.01 -16.76 20 -25 c 2.47 -2.91 5.21 -5.8 8 -8 c 1.66 -1.3 4.92 -3.27 6 -3 c 0.87 0.22 2.28 3.56 2 5 c -1.14 5.91 -5.25 14.27 -7 21 c -0.47 1.82 -0.56 4.45 0 6 c 0.6 1.65 2.54 4.34 4 5 c 1.59 0.72 4.83 0.51 7 0 c 8.71 -2.05 18.39 -4.67 27 -8 c 5.88 -2.27 11.5 -5.63 17 -9 c 4.92 -3.01 9.78 -6.29 14 -10 c 3.99 -3.51 8.19 -7.78 11 -12 c 2.24 -3.37 4.31 -8.23 5 -12 c 0.53 -2.92 0 -7.15 -1 -10 c -1.16 -3.31 -3.58 -7.42 -6 -10 c -2.54 -2.7 -6.5 -5.25 -10 -7 c -4.26 -2.13 -9.87 -4.41 -14 -5 c -2.02 -0.29 -5.12 0.98 -7 2 c -1.46 0.8 -3.4 2.56 -4 4 c -0.86 2.06 -1.14 5.47 -1 8 c 0.18 3.2 0.96 6.78 2 10 c 2.62 8.1 6.17 15.73 9 24 c 1.61 4.7 3.25 9.28 4 14 c 1.23 7.81 2 16.28 2 24 c 0 3.59 -2 10.8 -2 11 c 0 0.18 1 -6.84 2 -10 c 0.97 -3.06 2.24 -6.51 4 -9 c 2.02 -2.86 5.15 -5.48 8 -8 c 2.87 -2.54 5.89 -5.27 9 -7 c 2.59 -1.44 5.97 -2.29 9 -3 c 2.57 -0.61 5.87 -1.46 8 -1 c 1.91 0.41 4.93 2.47 6 4 c 0.9 1.29 1.13 4.15 1 6 c -0.18 2.5 -0.84 5.69 -2 8 c -2.33 4.67 -6.19 11.19 -9 14 c -0.84 0.84 -4.69 0.62 -5 0 c -0.39 -0.79 0.99 -4.41 2 -6 c 1.13 -1.78 3.18 -3.88 5 -5 c 2.2 -1.35 5.44 -2.74 8 -3 c 3.6 -0.36 8.62 -0.28 12 1 c 5.53 2.1 11.23 7.69 17 10 c 5.39 2.16 12.35 3.62 18 4 c 3.73 0.25 8.8 -0.56 12 -2 l 8 -7"/></svg>