<?xml version="1.0" encoding="UTF-8" standalone="no"?><!DOCTYPE svg PUBLIC "-//W3C//DTD SVG 1.1//EN" "http://www.w3.org/Graphics/SVG/1.1/DTD/svg11.dtd"><svg xmlns="http://www.w3.org/2000/svg" version="1.1" width="479" height="82"><path stroke-linejoin="round" stroke-linecap="round" stroke-width="2" stroke="rgb(52, 58, 64)" fill="none" d="M 78 51 c -0.26 0.05 -10.35 1.45 -15 3 c -4.08 1.36 -7.82 4.54 -12 6 c -10.05 3.51 -20.68 6.54 -31 9 c -3.53 0.84 -8 1.63 -11 1 c -2.56 -0.54 -7.64 -3.04 -8 -5 c -0.66 -3.63 2.15 -11.85 4 -17 c 1 -2.78 2.95 -5.84 5 -8 c 4.02 -4.23 9.23 -9.25 14 -12 c 3.2 -1.84 8.65 -2.79 12 -3 c 1.21 -0.08 2.99 1.13 4 2 c 1.13 0.97 2.3 2.6 3 4 c 0.89 1.78 2 4.13 2 6 c 0 3.6 -3.02 12.07 -2 12 c 1.79 -0.12 17 -13 17 -13"/><path stroke-linejoin="round" stroke-linecap="round" stroke-width="2" stroke="rgb(52, 58, 64)" fill="none" d="M 81 61 c -0.02 0.07 -1.14 4.15 -1 4 c 1.08 -1.13 13.27 -16.43 20 -24 c 1.08 -1.21 3.7 -3.3 4 -3 c 0.37 0.37 -1.62 6.05 -1 6 c 1.49 -0.12 8.91 -5.49 13 -7 c 1.66 -0.61 4.65 -0.51 6 0 c 0.81 0.3 1.2 2.84 2 3 c 1.79 0.36 5.38 -1 8 -1 c 3.27 0 7.74 -0.13 10 1 c 1.62 0.81 3.53 4.14 4 6 c 0.39 1.57 -0.33 4.17 -1 6 c -1.59 4.3 -6 13 -6 13"/><path stroke-linejoin="round" stroke-linecap="round" stroke-width="2" stroke="rgb(52, 58, 64)" fill="none" d="M 219 13 c 0.11 0.03 4.67 1 6 2 c 0.94 0.7 1.66 2.65 2 4 c 0.61 2.44 1.27 5.57 1 8 c -0.35 3.15 -1.62 6.81 -3 10 c -3.95 9.14 -13.77 27.54 -13 27 c 1.66 -1.16 27.99 -31.7 43 -48 c 4.94 -5.37 11.61 -12.55 15 -15 c 0.58 -0.42 2.83 1.13 3 2 c 0.87 4.36 1.4 12.4 1 18 c -0.23 3.24 -2.46 6.59 -3 10 c -1.78 11.18 -4 34 -4 34"/><path stroke-linejoin="round" stroke-linecap="round" stroke-width="2" stroke="rgb(52, 58, 64)" fill="none" d="M 280 81 c 0.18 -0.12 7.24 -4.24 10 -7 c 4.98 -4.98 9.27 -12.02 14 -17 c 1.25 -1.32 3.54 -1.81 5 -3 c 2.12 -1.73 4.29 -3.76 6 -6 c 6.93 -9.06 13.41 -18.39 20 -28 c 1.54 -2.25 3.04 -4.61 4 -7 c 0.98 -2.45 2.32 -8.24 2 -8 c -0.81 0.59 -10.11 10.59 -13 16 c -2 3.76 -2.31 9.38 -3 14 c -0.29 1.94 -0.24 4.05 0 6 c 0.41 3.32 0.96 7.29 2 10 c 0.43 1.13 1.99 2.92 3 3 c 2.19 0.18 6.37 -0.72 9 -2 c 9.82 -4.79 21.51 -13.12 30 -17 c 1.25 -0.57 3.54 0.45 5 1 c 1.03 0.39 2.82 1.21 3 2 c 0.34 1.55 -0.15 4.97 -1 7 c -2.31 5.53 -9 17 -9 17"/><path stroke-linejoin="round" stroke-linecap="round" stroke-width="2" stroke="rgb(52, 58, 64)" fill="none" d="M 402 49 l 1 1"/><path stroke-linejoin="round" stroke-linecap="round" stroke-width="2" stroke="rgb(52, 58, 64)" fill="none" d="M 440 36 c 0.02 0.16 0.35 6.39 1 9 c 0.26 1.04 1.22 2.22 2 3 c 0.78 0.78 1.92 1.59 3 2 c 5.68 2.16 11.83 4.27 18 6 c 4.65 1.31 14 3 14 3"/></svg>