<?xml version="1.0" encoding="UTF-8" standalone="no"?><!DOCTYPE svg PUBLIC "-//W3C//DTD SVG 1.1//EN" "http://www.w3.org/Graphics/SVG/1.1/DTD/svg11.dtd"><svg xmlns="http://www.w3.org/2000/svg" version="1.1" width="325" height="122"><path stroke-linejoin="round" stroke-linecap="round" stroke-width="2" stroke="rgb(52, 58, 64)" fill="none" d="M 34 5 c 0 0.96 0.94 36.88 0 55 c -0.38 7.37 -3.08 14.68 -4 22 c -0.41 3.27 0.05 10.17 0 10 c -0.12 -0.43 -2.9 -16.37 -4 -25 c -1.31 -10.27 -2.56 -20.02 -3 -30 c -0.22 -4.98 0.34 -10.14 1 -15 c 0.32 -2.35 1.04 -4.91 2 -7 c 0.95 -2.07 2.28 -4.82 4 -6 c 3.95 -2.7 10.21 -5.6 15 -7 c 2.6 -0.76 6.02 -0.32 9 0 c 6.36 0.68 13.37 1.33 19 3 c 2.76 0.82 5.57 3.13 8 5 c 1.82 1.4 3.57 3.22 5 5 c 1.18 1.47 2.39 3.31 3 5 c 0.64 1.76 1.48 4.31 1 6 c -1.88 6.59 -7.86 17.45 -9 22 c -0.17 0.69 1.97 1.91 3 2 c 9.47 0.79 22.7 0 33 1 c 2.67 0.26 5.99 1.46 8 3 c 3.17 2.42 7.23 6.85 9 10 c 0.79 1.4 0.43 4.26 0 6 c -0.49 1.94 -1.77 4.22 -3 6 c -1.69 2.45 -3.76 5.02 -6 7 c -3.3 2.92 -7.14 5.48 -11 8 c -3.94 2.57 -7.78 5.19 -12 7 c -9.7 4.16 -19.97 8.54 -30 11 c -8.53 2.09 -18.09 2.54 -27 3 c -3.95 0.2 -8.3 -0.01 -12 -1 c -5.93 -1.58 -12.65 -4.22 -18 -7 c -2.56 -1.33 -5.01 -3.83 -7 -6 c -1.56 -1.7 -3.23 -3.9 -4 -6 c -1.43 -3.88 -2.79 -9.36 -3 -13 c -0.07 -1.22 1.16 -3 2 -4 c 0.67 -0.81 1.93 -1.62 3 -2 c 4.33 -1.53 9.63 -4 14 -4 c 7 0 15.85 2.05 23 4 c 3.42 0.93 6.83 3.01 10 5 c 8.58 5.39 16.37 11.34 25 17 c 2.3 1.51 4.66 2.93 7 4 c 1.2 0.55 2.62 0.72 4 1 c 2.03 0.41 4.54 1.66 6 1 c 4.12 -1.85 9.48 -7.24 14 -10 c 1.08 -0.66 2.8 -0.45 4 -1 c 2.34 -1.07 4.89 -3.47 7 -4 c 1.34 -0.33 3.71 0.25 5 1 c 2.33 1.36 4.54 4.52 7 6 c 2.28 1.37 5.33 2.49 8 3 c 4.08 0.78 9.06 0.3 13 1 c 1.35 0.24 2.62 1.69 4 2 c 5.64 1.28 12.61 2.78 18 3 l 6 -2"/><path stroke-linejoin="round" stroke-linecap="round" stroke-width="2" stroke="rgb(52, 58, 64)" fill="none" d="M 284 25 c -0.02 -0.07 -0.2 -3.27 -1 -4 c -2.27 -2.06 -6.7 -4.72 -10 -6 c -2.28 -0.89 -5.4 -1.16 -8 -1 c -8.11 0.49 -16.94 1.13 -25 3 c -10.42 2.42 -21.15 6.16 -31 10 c -3.53 1.38 -6.91 3.72 -10 6 c -3.19 2.35 -6.48 5.12 -9 8 c -1.98 2.26 -3.32 5.2 -5 8 c -1.43 2.39 -3.78 4.79 -4 7 c -0.36 3.6 0.04 10.52 2 13 c 2.13 2.7 8.89 3.59 13 6 c 7.24 4.26 14 9.03 21 14 c 3.55 2.52 6.92 5.09 10 8 c 2.9 2.74 5.15 6.15 8 9 c 2.18 2.18 5.4 3.86 7 6 c 1.1 1.47 1.08 4.35 2 6 c 0.61 1.11 2.8 3.2 3 3 c 0.24 -0.24 -1 -3.39 -1 -5 c 0 -2.86 0.18 -6.13 1 -9 c 9.41 -32.77 20.33 -65.93 30 -99 c 0.66 -2.26 1.01 -7.12 1 -7 c -0.04 0.7 -2.56 26.52 -3 40 c -0.23 7.07 0.24 14.01 1 21 c 0.59 5.42 1.74 11.2 3 16 c 0.28 1.06 1.14 2.71 2 3 c 2.4 0.8 6.98 0.25 10 1 c 2.01 0.5 4.14 1.8 6 3 c 2.78 1.78 5.29 5 8 6 c 2.99 1.1 7.71 1.35 11 1 c 2.55 -0.27 7.36 -2.36 8 -3 c 0.27 -0.27 -1.96 -1.76 -3 -2 l -10 -1"/><path stroke-linejoin="round" stroke-linecap="round" stroke-width="2" stroke="rgb(52, 58, 64)" fill="none" d="M 312 38 l 1 1"/></svg>