<?xml version="1.0" encoding="UTF-8" standalone="no"?><!DOCTYPE svg PUBLIC "-//W3C//DTD SVG 1.1//EN" "http://www.w3.org/Graphics/SVG/1.1/DTD/svg11.dtd"><svg xmlns="http://www.w3.org/2000/svg" version="1.1" width="308" height="96"><path stroke-linejoin="round" stroke-linecap="round" stroke-width="2" stroke="rgb(52, 58, 64)" fill="none" d="M 1 33 c 0.44 0.02 16.54 0.23 25 1 c 10.24 0.93 19.69 3.19 30 4 c 28.68 2.26 55.02 3.99 84 5 c 30.66 1.06 58.39 1.23 89 1 c 15.83 -0.12 31 -0.41 46 -2 c 6.71 -0.71 13.49 -2.98 20 -5 c 3.11 -0.97 6.37 -2.47 9 -4 c 1.13 -0.66 3.37 -2.42 3 -3 c -1.12 -1.76 -6.38 -6.14 -10 -8 c -8.25 -4.23 -17.73 -8.07 -27 -11 c -10.79 -3.42 -21.79 -5.76 -33 -8 c -5.65 -1.13 -11.24 -1.65 -17 -2 c -5.38 -0.33 -10.75 -0.49 -16 0 c -5.34 0.5 -10.84 1.61 -16 3 c -3.41 0.92 -7.06 2.21 -10 4 c -4.47 2.72 -9.42 6.26 -13 10 c -3.45 3.61 -6.98 8.41 -9 13 c -3.75 8.54 -6.22 18.36 -9 28 c -1.65 5.72 -1.89 11.97 -4 17 c -2.01 4.79 -5.7 10.08 -9 14 c -1.71 2.03 -4.62 4.58 -7 5 c -5.81 1.04 -13.93 0.37 -21 0 c -5.76 -0.3 -11.32 -1.09 -17 -2 c -2.73 -0.44 -5.36 -1.09 -8 -2 c -14.97 -5.18 -28.79 -10.66 -44 -16 c -4.42 -1.55 -8.61 -2.9 -13 -4 c -2.28 -0.57 -5.02 -0.24 -7 -1 c -2.02 -0.78 -6.47 -3.97 -6 -4 c 4.97 -0.28 50.28 -0.89 76 0 c 13.27 0.46 25.74 3.29 39 4 c 12.17 0.65 23.52 -0.29 36 0 c 46.46 1.09 134 4 134 4"/></svg>