<?xml version="1.0" encoding="UTF-8" standalone="no"?><!DOCTYPE svg PUBLIC "-//W3C//DTD SVG 1.1//EN" "http://www.w3.org/Graphics/SVG/1.1/DTD/svg11.dtd"><svg xmlns="http://www.w3.org/2000/svg" version="1.1" width="580" height="103"><path stroke-linejoin="round" stroke-linecap="round" stroke-width="2" stroke="rgb(52, 58, 64)" fill="none" d="M 124 38 l 1 1"/><path stroke-linejoin="round" stroke-linecap="round" stroke-width="2" stroke="rgb(52, 58, 64)" fill="none" d="M 158 58 l 1 1"/><path stroke-linejoin="round" stroke-linecap="round" stroke-width="2" stroke="rgb(52, 58, 64)" fill="none" d="M 38 7 c 0 -0.1 0 -6.1 0 -6 c 0 0.26 0.37 10.04 0 15 c -0.3 4.02 -1.03 8.12 -2 12 c -0.68 2.72 -1.73 5.46 -3 8 c -2.73 5.47 -7 10.46 -9 16 c -3.5 9.67 -8 31 -8 31"/><path stroke-linejoin="round" stroke-linecap="round" stroke-width="2" stroke="rgb(52, 58, 64)" fill="none" d="M 1 102 l 1 1"/><path stroke-linejoin="round" stroke-linecap="round" stroke-width="2" stroke="rgb(52, 58, 64)" fill="none" d="M 76 12 c 0.04 0.14 1.6 5.37 2 8 c 0.25 1.59 0.25 3.41 0 5 c -0.4 2.63 -0.81 5.93 -2 8 c -1.22 2.13 -3.72 5.3 -6 6 c -8.17 2.5 -21.52 4.25 -30 5 c -1.25 0.11 -3.9 -1.22 -4 -2 l 3 -6"/><path stroke-linejoin="round" stroke-linecap="round" stroke-width="2" stroke="rgb(52, 58, 64)" fill="none" d="M 102 69 c -0.07 -0.09 -2.58 -3.93 -4 -5 c -0.92 -0.69 -2.72 -1 -4 -1 c -2.81 0 -6.26 0.37 -9 1 c -1.35 0.31 -4 2 -4 2"/><path stroke-linejoin="round" stroke-linecap="round" stroke-width="2" stroke="rgb(52, 58, 64)" fill="none" d="M 69 82 l 1 1"/><path stroke-linejoin="round" stroke-linecap="round" stroke-width="2" stroke="rgb(52, 58, 64)" fill="none" d="M 77 87 c 0.21 -0.09 8.33 -2.98 12 -5 c 2.82 -1.55 5.79 -3.79 8 -6 c 1.59 -1.59 3.94 -5.89 4 -6 c 0.04 -0.08 -3 4 -3 4"/><path stroke-linejoin="round" stroke-linecap="round" stroke-width="2" stroke="rgb(52, 58, 64)" fill="none" d="M 138 60 c 0.21 -0.26 8.47 -9.81 12 -15 c 2.05 -3.02 3.49 -6.52 5 -10 c 1.88 -4.33 4.12 -8.79 5 -13 c 0.69 -3.33 -0.15 -10.56 0 -11 c 0.07 -0.22 2.63 3.92 2 5 c -3.61 6.15 -14.25 15.88 -19 24 c -2.75 4.7 -3.59 11.17 -5 17 c -1.3 5.36 -3 16 -3 16"/><path stroke-linejoin="round" stroke-linecap="round" stroke-width="2" stroke="rgb(52, 58, 64)" fill="none" d="M 135 41 c 0.11 0.21 3.49 9.8 6 12 c 1.91 1.67 10 2 10 2"/><path stroke-linejoin="round" stroke-linecap="round" stroke-width="2" stroke="rgb(52, 58, 64)" fill="none" d="M 179 55 l 1 1"/><path stroke-linejoin="round" stroke-linecap="round" stroke-width="2" stroke="rgb(52, 58, 64)" fill="none" d="M 142 45 c -0.02 -0.07 -0.29 -3.41 -1 -4 c -0.88 -0.73 -3.41 -1 -5 -1 c -2.21 0 -6.63 0.51 -7 1 c -0.26 0.35 2.59 2.46 4 3 c 2.6 1 6.13 2 9 2 c 5.03 0 10.6 -1.58 16 -2 c 3.35 -0.26 6.78 -0.23 10 0 c 1.33 0.09 2.85 0.43 4 1 c 2.01 1.01 4.32 2.5 6 4 l 3 4"/><path stroke-linejoin="round" stroke-linecap="round" stroke-width="2" stroke="rgb(52, 58, 64)" fill="none" d="M 96 71 c -0.16 -0.14 -6.62 -6.9 -9 -8 c -0.88 -0.41 -3.09 1.02 -4 2 c -3.35 3.59 -7.39 8.58 -10 13 c -1.51 2.55 -3 6.85 -3 9 c 0 0.96 1.86 2.35 3 3 c 3.25 1.86 7.3 3.52 11 5 c 1.26 0.5 2.85 1.13 4 1 c 1.5 -0.17 3.75 -1.07 5 -2 c 1.16 -0.87 2.46 -2.57 3 -4 c 1.33 -3.54 1.67 -8.46 3 -12 c 0.54 -1.43 3.12 -3.64 3 -4 l -4 1"/><path stroke-linejoin="round" stroke-linecap="round" stroke-width="2" stroke="rgb(52, 58, 64)" fill="none" d="M 111 77 l 8 -10"/><path stroke-linejoin="round" stroke-linecap="round" stroke-width="2" stroke="rgb(52, 58, 64)" fill="none" d="M 105 70 c 0.05 0.05 3.33 2.41 3 3 c -0.77 1.39 -7.23 4.61 -8 6 c -0.33 0.59 2.61 1.96 3 3 c 0.46 1.23 -0.47 3.89 0 5 c 0.34 0.8 2.3 1.15 3 2 c 2.1 2.56 3.95 6.95 6 9 c 0.78 0.78 2.85 1.13 4 1 c 1.5 -0.17 3.68 -0.99 5 -2 c 4.01 -3.06 8.29 -7.09 12 -11 c 2.6 -2.74 5.66 -5.99 7 -9 c 1.06 -2.39 0.68 -8.37 1 -9 c 0.13 -0.25 2.07 2.11 2 3 c -0.2 2.35 -3.34 6.5 -3 9 c 0.51 3.77 3.82 9.73 6 13 c 0.68 1.02 2.75 1.88 4 2 l 6 -1"/><path stroke-linejoin="round" stroke-linecap="round" stroke-width="2" stroke="rgb(52, 58, 64)" fill="none" d="M 264 9 c -0.02 0.07 -1.22 2.84 -1 4 c 0.67 3.57 2.14 8.61 4 12 c 1.57 2.85 4.68 6.1 7 8 c 0.9 0.74 3.65 1.35 4 1 c 0.35 -0.35 -0.37 -2.89 -1 -4 c -1.87 -3.28 -5.19 -6.57 -7 -10 c -1.4 -2.67 -1.65 -8.19 -3 -9 c -1.08 -0.65 -4.98 1.65 -7 3 c -3.77 2.51 -7.99 5.59 -11 9 c -4.41 4.99 -10.09 11.27 -12 17 c -2.3 6.91 -2 16.77 -2 25 c 0 5.62 0.84 12.15 2 17 c 0.34 1.42 1.84 3.13 3 4 c 1.25 0.93 3.31 1.73 5 2 c 6.33 1.01 13.42 0.87 20 2 l 15 4"/><path stroke-linejoin="round" stroke-linecap="round" stroke-width="2" stroke="rgb(52, 58, 64)" fill="none" d="M 342 60 c -0.21 -0.02 -8.36 -0.32 -12 -1 c -1.35 -0.25 -2.69 -1.76 -4 -2 c -2.05 -0.37 -5.04 -0.61 -7 0 c -2.88 0.9 -6.67 3.02 -9 5 c -1.63 1.38 -3.32 3.97 -4 6 c -0.85 2.55 -1.51 6.79 -1 9 c 0.32 1.38 2.54 3.2 4 4 c 1.88 1.02 4.8 1.84 7 2 c 2.14 0.15 5.05 -0.29 7 -1 c 1.38 -0.5 2.9 -1.9 4 -3 c 0.8 -0.8 1.36 -1.94 2 -3 c 2.45 -4.09 5.02 -8.04 7 -12 c 0.59 -1.17 1.12 -4.06 1 -4 c -0.17 0.09 -2.56 3.37 -3 5 c -0.46 1.68 -0.15 4 0 6 c 0.18 2.36 0.39 4.97 1 7 c 0.31 1.04 1.72 1.96 2 3 c 0.63 2.32 0.26 5.77 1 8 c 0.46 1.39 1.84 3.36 3 4 c 1.41 0.78 4.27 1.32 6 1 c 3.06 -0.57 7.09 -2.29 10 -4 c 2.49 -1.47 4.94 -3.75 7 -6 c 5.25 -5.72 10.59 -15.63 15 -18 c 2.2 -1.18 7.58 2.39 11 4 c 2.11 0.99 5.23 2.62 6 4 c 0.54 0.97 -0.34 3.57 -1 5 c -1.22 2.65 -4.46 5.84 -5 8 c -0.26 1.02 1.06 3.06 2 4 c 2.11 2.11 5.36 4.46 8 6 c 1.09 0.63 2.73 1 4 1 c 2.49 0 6.11 0.23 8 -1 c 4.82 -3.14 11.09 -9.4 15 -14 c 1.21 -1.42 1.06 -4.28 2 -6 c 0.95 -1.75 2.95 -3.18 4 -5 c 3.89 -6.75 7.7 -13.79 11 -21 c 2.07 -4.52 3.66 -9.32 5 -14 c 0.64 -2.23 1 -4.73 1 -7 c 0 -2.58 -0.49 -8.22 -1 -8 c -0.8 0.34 -4.51 7.16 -6 11 c -3.13 8.05 -5.99 16.97 -8 25 c -0.54 2.14 0.24 4.69 0 7 c -0.42 4.01 -2 8.34 -2 12 c 0 2.19 1.04 5.09 2 7 c 0.56 1.11 1.87 2.25 3 3 c 2.73 1.82 6.03 4.45 9 5 c 5.19 0.96 12.63 0.93 18 0 c 3.6 -0.62 8.05 -2.82 11 -5 c 2.94 -2.17 5.55 -5.88 8 -9 c 1.19 -1.51 2.38 -3.27 3 -5 c 0.97 -2.73 2.32 -7.39 2 -9 c -0.14 -0.72 -3.16 -1.52 -4 -1 c -3.31 2.07 -8.96 7.31 -12 11 c -1.18 1.43 -2 4.28 -2 6 c 0 1.46 1.06 3.6 2 5 c 1.6 2.4 4.02 5.74 6 7 c 1.07 0.68 3.45 0.28 5 0 c 1.95 -0.36 4.26 -0.99 6 -2 c 4.36 -2.52 8.5 -6.9 13 -9 c 5.05 -2.36 11.64 -4.18 17 -5 c 2.74 -0.42 6.48 0.23 9 1 c 1.39 0.43 3.22 1.82 4 3 c 0.99 1.49 0.96 4.96 2 6 c 0.84 0.84 3.28 0.75 5 1 c 3.05 0.44 5.94 0.91 9 1 c 8.78 0.25 18.26 0.52 26 0 l 4 -2"/><path stroke-linejoin="round" stroke-linecap="round" stroke-width="2" stroke="rgb(52, 58, 64)" fill="none" d="M 422 47 l 63 -4"/></svg>