<?xml version="1.0" encoding="UTF-8" standalone="no"?><!DOCTYPE svg PUBLIC "-//W3C//DTD SVG 1.1//EN" "http://www.w3.org/Graphics/SVG/1.1/DTD/svg11.dtd"><svg xmlns="http://www.w3.org/2000/svg" version="1.1" width="543" height="165"><path stroke-linejoin="round" stroke-linecap="round" stroke-width="2" stroke="rgb(52, 58, 64)" fill="none" d="M 36 1 l 1 1"/><path stroke-linejoin="round" stroke-linecap="round" stroke-width="2" stroke="rgb(52, 58, 64)" fill="none" d="M 34 5 c -0.05 0.04 -2.42 1.12 -3 2 c -1.81 2.72 -4.16 6.53 -5 10 c -3.66 15.14 -5.03 32.14 -9 48 c -3.08 12.33 -7.75 24.4 -12 36 c -0.65 1.78 -2.25 3.31 -3 5 c -0.53 1.19 -1.24 3.76 -1 4 c 0.21 0.21 2.04 -1.9 3 -2 c 1.89 -0.19 4.97 0.14 7 1 c 6.17 2.61 12.46 6.84 19 10 c 3.28 1.58 6.58 3 10 4 c 4.55 1.33 9.36 2.44 14 3 c 3.57 0.43 7.87 0.78 11 0 c 2.93 -0.73 6.41 -2.98 9 -5 c 3.2 -2.49 6.68 -5.75 9 -9 c 2.45 -3.43 4.59 -7.92 6 -12 c 1.51 -4.35 2.55 -9.35 3 -14 c 0.53 -5.52 0.47 -11.37 0 -17 c -0.53 -6.37 -1.49 -12.8 -3 -19 c -1.49 -6.11 -3.15 -12.71 -6 -18 c -3.88 -7.2 -9.59 -14.96 -15 -21 c -2.85 -3.18 -7.28 -6.38 -11 -8 c -3.33 -1.45 -8.41 -2.3 -12 -2 c -3.73 0.31 -8.79 2.01 -12 4 c -3.23 2 -6.74 5.77 -9 9 c -2.15 3.07 -4.12 7.35 -5 11 c -1.02 4.24 -1.75 9.94 -1 14 c 0.77 4.14 3.67 8.84 6 13 c 2.34 4.19 4.92 8.61 8 12 c 3.34 3.67 7.64 7.72 12 10 c 9.02 4.72 30 12 30 12"/><path stroke-linejoin="round" stroke-linecap="round" stroke-width="2" stroke="rgb(52, 58, 64)" fill="none" d="M 138 92 c -0.05 -0.05 -1.86 -2.48 -3 -3 c -2.8 -1.29 -6.9 -2.85 -10 -3 c -3.32 -0.16 -7.43 1.03 -11 2 c -3.74 1.02 -7.45 2.4 -11 4 c -3.12 1.4 -6.53 2.92 -9 5 c -3.57 3 -8.77 8.36 -10 11 c -0.41 0.89 1.96 4.1 3 4 c 3.75 -0.37 12.04 -3.19 17 -6 c 6.87 -3.9 14.77 -12.28 20 -15 c 1.13 -0.59 4.55 0.87 5 2 c 1.09 2.74 0.16 9.2 1 13 c 0.38 1.7 1.97 4.9 3 5 c 1.42 0.14 4.78 -2.45 7 -4 c 5.52 -3.84 11.85 -10.79 16 -12 c 1.96 -0.57 6.71 2.81 8 5 c 2.43 4.11 3.02 11.49 5 17 c 1 2.78 2.43 5.84 4 8 c 0.88 1.21 2.66 2.63 4 3 l 7 0"/><path stroke-linejoin="round" stroke-linecap="round" stroke-width="2" stroke="rgb(52, 58, 64)" fill="none" d="M 291 93 l 1 1"/><path stroke-linejoin="round" stroke-linecap="round" stroke-width="2" stroke="rgb(52, 58, 64)" fill="none" d="M 198 17 c 0.09 0.18 3.08 6.8 5 10 c 2.1 3.49 7 10 7 10"/><path stroke-linejoin="round" stroke-linecap="round" stroke-width="2" stroke="rgb(52, 58, 64)" fill="none" d="M 188 14 c 0.26 0.07 10.16 2.19 15 4 c 8.51 3.19 16.74 8.66 25 11 c 6.38 1.8 14.42 2.2 21 2 c 3.86 -0.12 8.09 -1.7 12 -3 c 4.11 -1.37 8.03 -3.1 12 -5 c 3.82 -1.83 7.62 -3.62 11 -6 c 5.56 -3.91 14.71 -12.45 16 -13 c 0.45 -0.19 -1.01 4.8 -2 7 c -4.98 11.06 -11 21.59 -16 33 c -3.5 7.97 -5.95 15.61 -9 24 c -6.7 18.43 -13.03 35.4 -19 53 c -0.64 1.9 -1 4.15 -1 6 c 0 1.25 0.61 4.22 1 4 c 1.14 -0.63 6.18 -5.64 8 -9 c 6.49 -11.98 11.31 -27 18 -39 c 2.65 -4.76 7.34 -10.3 11 -13 c 1.73 -1.28 6.06 -1.49 8 -1 c 1.36 0.34 3.4 2.56 4 4 c 0.86 2.06 1.3 5.52 1 8 c -0.65 5.38 -2.35 11.42 -4 17 c -1.02 3.44 -4.25 8.99 -4 10 c 0.15 0.59 4.24 -0.99 6 -2 c 5.01 -2.87 9.88 -6.98 15 -10 c 2.16 -1.28 4.65 -2.28 7 -3 c 1.88 -0.58 5.49 -1.87 6 -1 c 1.09 1.86 -0.25 11.61 1 13 c 0.82 0.91 5.72 -1.63 8 -3 c 2.46 -1.48 6.27 -6.12 7 -6 c 0.56 0.09 -0.24 5.02 -1 7 c -0.78 2.02 -3.09 3.99 -4 6 c -0.65 1.42 -1.47 3.94 -1 5 c 0.59 1.34 3.46 3.74 5 4 c 1.75 0.29 4.84 -1.05 7 -2 c 3.06 -1.34 6.15 -3.04 9 -5 c 8.93 -6.12 23.62 -18.27 26 -19 c 0.92 -0.28 -1.26 8.45 -3 12 c -5.98 12.22 -13.91 24.19 -21 37 c -1.86 3.37 -3.65 6.55 -5 10 c -1.64 4.2 -4 12.56 -4 13 c 0 0.23 3.01 -3.89 4 -6 c 1.61 -3.42 2.85 -7.16 4 -11 c 6.04 -20.14 10.77 -40.3 17 -59 c 1.18 -3.55 3.68 -7.32 6 -10 c 1.71 -1.98 4.72 -4.19 7 -5 c 1.85 -0.66 5.03 -0.56 7 0 c 2.26 0.65 5.34 2.34 7 4 c 1.66 1.66 3.06 4.58 4 7 c 1.33 3.42 2.62 7.55 3 11 c 0.24 2.14 -0.39 4.97 -1 7 c -0.31 1.04 -1.15 2.3 -2 3 c -2.56 2.1 -5.89 4.88 -9 6 c -4.67 1.68 -10.96 2.54 -16 3 c -1.88 0.17 -6.1 -1.02 -6 -1 c 0.28 0.06 11.11 3.16 16 3 c 4.66 -0.15 10.45 -2.01 15 -4 c 5.78 -2.53 12.24 -6.12 17 -10 c 3.77 -3.07 6.45 -8.45 10 -12 c 1.96 -1.96 4.89 -4.3 7 -5 c 1.25 -0.42 3.33 0.91 5 1 c 4.26 0.24 8.63 0.34 13 0 c 8.8 -0.68 19.74 -4.25 26 -3 c 3.22 0.64 5.77 6.77 9 10 c 4.59 4.59 9.09 8.73 14 13 c 2.93 2.55 5.77 5.02 9 7 l 22 12"/></svg>