<?xml version="1.0" encoding="UTF-8" standalone="no"?><!DOCTYPE svg PUBLIC "-//W3C//DTD SVG 1.1//EN" "http://www.w3.org/Graphics/SVG/1.1/DTD/svg11.dtd"><svg xmlns="http://www.w3.org/2000/svg" version="1.1" width="651" height="128"><path stroke-linejoin="round" stroke-linecap="round" stroke-width="2" stroke="rgb(52, 58, 64)" fill="none" d="M 22 10 c 0 0.09 -0.35 3.42 0 5 c 3.87 17.56 9.69 35.78 13 54 c 2.04 11.2 1.64 22.86 3 34 c 0.29 2.38 2 7 2 7"/><path stroke-linejoin="round" stroke-linecap="round" stroke-width="2" stroke="rgb(52, 58, 64)" fill="none" d="M 1 19 c 0.05 -0.1 1.68 -4.83 3 -6 c 1.24 -1.1 4.15 -2 6 -2 c 2.98 0 6.77 1.02 10 2 c 4.41 1.34 8.75 3.04 13 5 c 4.5 2.08 8.76 4.39 13 7 c 4.55 2.8 8.87 5.69 13 9 c 4.26 3.4 8.51 7.02 12 11 c 3.39 3.87 6.68 8.53 9 13 c 1.86 3.57 3.54 8.16 4 12 c 0.47 3.96 0.63 9.75 -1 13 c -2.48 4.95 -8.29 11.16 -13 15 c -3.72 3.03 -9.39 5.64 -14 7 c -3.84 1.14 -8.87 1.31 -13 1 c -4.54 -0.34 -9.8 -1.42 -14 -3 c -3.42 -1.28 -7.3 -3.62 -10 -6 c -2.64 -2.33 -5.36 -5.88 -7 -9 c -1.5 -2.85 -2.67 -6.83 -3 -10 c -0.29 -2.75 0 -6.57 1 -9 c 1.11 -2.69 3.67 -6.08 6 -8 c 2.92 -2.41 7.3 -4.77 11 -6 c 3.89 -1.3 8.63 -1.7 13 -2 c 5.32 -0.37 10.88 -0.64 16 0 c 5.28 0.66 11.11 1.96 16 4 c 6.77 2.82 14.14 6.69 20 11 l 14 14"/><path stroke-linejoin="round" stroke-linecap="round" stroke-width="2" stroke="rgb(52, 58, 64)" fill="none" d="M 141 80 c 0.02 -0.07 0.91 -2.67 1 -4 c 0.24 -3.54 0.37 -7.47 0 -11 c -0.28 -2.65 -0.99 -5.55 -2 -8 c -1.26 -3.05 -2.88 -6.55 -5 -9 c -3.93 -4.55 -9.36 -9.84 -14 -13 c -2 -1.37 -5.37 -1.62 -8 -2 c -1.92 -0.27 -4.24 -0.35 -6 0 c -1.31 0.26 -3.18 1.06 -4 2 c -1.23 1.41 -2.43 3.95 -3 6 c -1.03 3.71 -2.38 8.37 -2 12 c 0.55 5.28 3.08 11.47 5 17 c 0.73 2.09 1.77 4.59 3 6 c 0.82 0.94 2.9 2.11 4 2 c 1.65 -0.16 4.43 -1.69 6 -3 c 2.16 -1.8 4.38 -4.5 6 -7 c 1.96 -3.03 3.55 -6.56 5 -10 c 1.23 -2.92 2.24 -5.96 3 -9 c 0.57 -2.26 1 -4.83 1 -7 c 0 -1.27 -0.67 -4 -1 -4 c -0.35 0 -1.91 2.71 -2 4 c -0.21 3.18 0.24 7.46 1 11 c 1.22 5.69 2.96 11.78 5 17 c 0.83 2.12 2.55 4.13 4 6 c 0.85 1.1 2.01 2.75 3 3 c 1.19 0.3 3.84 -0.27 5 -1 c 1.14 -0.71 2.15 -2.59 3 -4 c 1.14 -1.9 2.33 -3.98 3 -6 c 0.61 -1.83 1.26 -4.28 1 -6 c -0.33 -2.16 -3.04 -7.13 -3 -7 c 0.09 0.32 3.56 12.68 6 18 c 1 2.19 3.18 4.18 5 6 c 1.82 1.82 3.92 3.68 6 5 c 1.43 0.91 3.47 1.85 5 2 c 1.45 0.14 3.73 -0.3 5 -1 c 1.41 -0.78 3.01 -2.52 4 -4 c 1.56 -2.34 3.35 -5.41 4 -8 c 0.58 -2.32 -0.45 -7.89 0 -8 c 0.45 -0.11 2.35 5.02 4 7 c 3.19 3.83 7.07 8.1 11 11 c 3.39 2.51 8.57 5.49 12 6 c 2.18 0.33 7.06 -1.34 8 -3 c 1.43 -2.54 1.15 -8.74 1 -13 c -0.18 -4.94 -0.98 -10.13 -2 -15 c -0.64 -3.05 -2.8 -8.73 -3 -9 c -0.11 -0.14 -0.26 3.37 0 5 c 2.05 12.57 6.17 35.35 7 38 c 0.14 0.46 2.43 -3.91 3 -6 c 2.35 -8.61 3.3 -18.49 6 -27 c 1.53 -4.81 4.2 -10.45 7 -14 c 1.69 -2.14 5.34 -3.94 8 -5 c 1.99 -0.8 5.03 -1.3 7 -1 c 1.87 0.29 4.31 1.74 6 3 c 2.13 1.6 4.61 3.84 6 6 c 1.4 2.17 2.13 5.23 3 8 c 1.17 3.69 2.49 7.26 3 11 c 1.81 13.2 1.99 28.68 4 40 l 4 5"/><path stroke-linejoin="round" stroke-linecap="round" stroke-width="2" stroke="rgb(52, 58, 64)" fill="none" d="M 319 32 c 0.02 0.19 0.15 7.49 1 11 c 2.1 8.64 5.07 17.2 8 26 c 1.16 3.48 2.35 6.84 4 10 c 2.34 4.48 5.59 10.78 8 13 c 0.8 0.74 4.05 -0.17 5 -1 c 1.26 -1.1 2.22 -3.92 3 -6 c 1.21 -3.23 2.14 -6.56 3 -10 c 0.84 -3.36 1.63 -6.59 2 -10 c 0.98 -9.05 1.35 -24.49 2 -27 c 0.14 -0.52 3.1 2.47 4 4 c 3.22 5.44 5.46 12.34 9 18 c 4.78 7.65 10.62 15.27 16 22 c 0.99 1.24 2.68 2.56 4 3 c 1.32 0.44 4.02 0.56 5 0 c 0.88 -0.5 1.63 -2.64 2 -4 c 0.58 -2.14 1.38 -4.86 1 -7 c -1.79 -9.96 -4.75 -21.34 -8 -32 c -2.84 -9.3 -7.75 -19 -10 -27 l 1 -5"/><path stroke-linejoin="round" stroke-linecap="round" stroke-width="2" stroke="rgb(52, 58, 64)" fill="none" d="M 405 39 c 0.37 -0.02 14.04 -1 21 -1 c 2.67 0 5.56 0.39 8 1 c 1.35 0.34 4.38 1.67 4 2 c -1.96 1.72 -13.57 7.71 -20 12 c -2.54 1.69 -5.01 3.83 -7 6 c -1.56 1.7 -3.16 3.98 -4 6 c -0.71 1.7 -1.16 4.25 -1 6 c 0.14 1.55 0.92 3.92 2 5 c 2.16 2.16 5.9 4.45 9 6 c 2.72 1.36 5.97 2.29 9 3 c 2.57 0.61 5.58 1.39 8 1 c 5.32 -0.85 12.44 -2.47 17 -5 c 3.64 -2.02 7.71 -6.31 10 -10 c 3.34 -5.38 7.87 -18.67 8 -19 c 0.03 -0.07 -1.93 2.7 -2 4 c -0.23 4.67 0.29 10.7 1 16 c 0.63 4.73 1.76 9.77 3 14 c 0.31 1.07 1.33 2.89 2 3 l 4 -2"/><path stroke-linejoin="round" stroke-linecap="round" stroke-width="2" stroke="rgb(52, 58, 64)" fill="none" d="M 454 23 l 2 4"/><path stroke-linejoin="round" stroke-linecap="round" stroke-width="2" stroke="rgb(52, 58, 64)" fill="none" d="M 533 67 c -0.09 -0.1 -3.56 -3.85 -5 -6 c -2.55 -3.83 -4.18 -8.86 -7 -12 c -2.77 -3.07 -7.79 -6.59 -11 -8 c -1.21 -0.53 -3.65 0.32 -5 1 c -1.7 0.85 -3.62 2.49 -5 4 c -1.85 2.03 -3.7 4.56 -5 7 c -1.29 2.42 -2.37 5.32 -3 8 c -0.67 2.84 -1.17 6.23 -1 9 c 0.14 2.23 0.98 5.12 2 7 c 0.8 1.46 2.56 3.04 4 4 c 1.37 0.91 3.61 2.2 5 2 c 2.54 -0.36 6.6 -2.29 9 -4 c 1.9 -1.36 4.13 -3.89 5 -6 c 1.25 -3.03 1.8 -7.52 2 -11 c 0.11 -1.89 -1 -6.11 -1 -6 c 0 0.14 0.29 5.47 1 8 c 1.58 5.66 4.54 11.36 6 17 c 0.82 3.15 1 6.67 1 10 c 0 4.98 -0.38 10.03 -1 15 c -0.38 3.05 -0.76 6.67 -2 9 c -1.15 2.15 -3.86 4.22 -6 6 c -1.82 1.51 -3.93 2.87 -6 4 c -1.55 0.84 -3.47 1.85 -5 2 c -1.45 0.14 -4.36 -0.04 -5 -1 c -1.43 -2.15 -2.65 -7.51 -3 -11 c -0.28 -2.78 0.21 -6.3 1 -9 c 0.78 -2.67 2.44 -5.5 4 -8 c 1.75 -2.8 3.69 -5.81 6 -8 c 3.47 -3.28 7.82 -6.21 12 -9 c 2.87 -1.91 6.24 -3.03 9 -5 c 4.18 -2.99 8.02 -6.49 12 -10 c 1.8 -1.59 3.87 -3.22 5 -5 c 1.01 -1.59 1.77 -4.03 2 -6 c 0.4 -3.43 0.68 -7.52 0 -11 c -2.56 -13.06 -6.54 -27.62 -10 -40 c -0.3 -1.08 -2.01 -3.19 -2 -3 c 0.06 1.51 1.71 18.41 3 28 c 1.11 8.28 2.46 15.74 4 24 c 1.23 6.59 2.44 12.77 4 19 c 0.43 1.73 1.49 5.17 2 5 c 0.77 -0.26 3.58 -4.68 4 -7 c 0.78 -4.31 -0.24 -10.03 0 -15 c 0.1 -2.01 0.45 -4.15 1 -6 c 0.41 -1.36 1.62 -4.4 2 -4 c 3.12 3.25 14.32 19.53 22 29 c 2.39 2.94 5.21 5.64 8 8 c 1.44 1.22 3.37 2.56 5 3 c 1.68 0.46 4.32 0.46 6 0 c 1.63 -0.44 3.76 -1.76 5 -3 c 1.53 -1.53 3.24 -3.88 4 -6 c 2.08 -5.79 4.38 -12.82 5 -19 c 0.66 -6.61 -0.2 -13.94 -1 -21 c -1.23 -10.88 -4.9 -30.61 -5 -32 c -0.02 -0.25 2.44 3.24 3 5 c 1.99 6.23 3.57 13.08 5 20 c 2.69 12.98 3.98 25.5 7 38 c 1.65 6.85 4.16 14.11 7 20 c 1.23 2.56 3.93 6.17 6 7 c 2.03 0.81 6.84 0 9 -1 c 1.53 -0.7 3.04 -3.21 4 -5 l 4 -10"/><path stroke-linejoin="round" stroke-linecap="round" stroke-width="2" stroke="rgb(52, 58, 64)" fill="none" d="M 593 47 c 0.09 -0.03 3.32 -1.64 5 -2 c 2.83 -0.61 5.89 -0.79 9 -1 c 12.37 -0.82 36 -2 36 -2"/></svg>