<?xml version="1.0" encoding="UTF-8" standalone="no"?><!DOCTYPE svg PUBLIC "-//W3C//DTD SVG 1.1//EN" "http://www.w3.org/Graphics/SVG/1.1/DTD/svg11.dtd"><svg xmlns="http://www.w3.org/2000/svg" version="1.1" width="576" height="159"><path stroke-linejoin="round" stroke-linecap="round" stroke-width="2" stroke="rgb(52, 58, 64)" fill="none" d="M 443 80 c -0.02 -0.35 -1.55 -13.47 -1 -20 c 1.09 -12.87 3.09 -26.67 6 -39 c 1.29 -5.46 4.28 -11.18 7 -16 c 1.44 -2.54 6 -7 6 -7"/><path stroke-linejoin="round" stroke-linecap="round" stroke-width="2" stroke="rgb(52, 58, 64)" fill="none" d="M 1 25 l 1 1"/><path stroke-linejoin="round" stroke-linecap="round" stroke-width="2" stroke="rgb(52, 58, 64)" fill="none" d="M 129 56 l 1 1"/><path stroke-linejoin="round" stroke-linecap="round" stroke-width="2" stroke="rgb(52, 58, 64)" fill="none" d="M 78 99 l 1 1"/><path stroke-linejoin="round" stroke-linecap="round" stroke-width="2" stroke="rgb(52, 58, 64)" fill="none" d="M 82 97 l 1 1"/><path stroke-linejoin="round" stroke-linecap="round" stroke-width="2" stroke="rgb(52, 58, 64)" fill="none" d="M 40 71 c 0 -0.09 -0.73 -3.95 0 -5 c 1.75 -2.53 5.67 -6 9 -8 c 9.64 -5.78 20.86 -11.85 31 -16 c 3.82 -1.56 8.64 -1.6 13 -2 c 2.98 -0.27 6.25 -0.48 9 0 c 2.61 0.46 5.57 1.78 8 3 c 1.42 0.71 3.66 1.78 4 3 c 1.02 3.68 1.19 10.15 1 15 c -0.14 3.6 -1 7.43 -2 11 c -1.33 4.75 -3.13 9.25 -5 14 c -1.91 4.86 -3.65 9.4 -6 14 c -5.11 9.99 -10.05 19.97 -16 29 c -3.57 5.41 -11.7 15.24 -13 15 c -1.12 -0.2 0.89 -11.67 2 -17 c 0.49 -2.37 2.33 -4.65 3 -7 c 0.62 -2.18 0.41 -4.74 1 -7 c 1.06 -4.04 2.43 -8.19 4 -12 c 0.72 -1.76 1.81 -3.47 3 -5 c 3.47 -4.46 6.91 -9.52 11 -13 c 4.53 -3.86 10.56 -7.05 16 -10 c 2.46 -1.33 5.25 -2.25 8 -3 c 4.61 -1.26 9.72 -2.81 14 -3 c 2.46 -0.11 7.06 0.79 8 2 c 0.81 1.04 0.15 5.44 -1 7 c -2.87 3.9 -8.95 7.95 -13 12 c -0.82 0.82 -2 2.21 -2 3 c 0 0.79 1.78 1.96 2 3 c 0.68 3.18 0.92 7.25 1 11 c 0.26 11.89 -0.52 25.06 0 35 c 0.05 1.02 1.17 2.75 2 3 c 1.84 0.55 5.74 0.52 8 0 c 1.65 -0.38 3.24 -2.26 5 -3 c 4.49 -1.89 9.87 -4.08 14 -5 c 1.15 -0.25 3.08 0.39 4 1 c 0.8 0.54 1.35 3 2 3 c 1.05 0 3.35 -1.9 5 -3 c 2.44 -1.63 5.12 -3.01 7 -5 c 3.9 -4.11 8.02 -9.03 11 -14 l 10 -21"/><path stroke-linejoin="round" stroke-linecap="round" stroke-width="2" stroke="rgb(52, 58, 64)" fill="none" d="M 202 99 l 1 1"/><path stroke-linejoin="round" stroke-linecap="round" stroke-width="2" stroke="rgb(52, 58, 64)" fill="none" d="M 199 98 c 0.02 0.26 0.12 11.04 1 15 c 0.25 1.12 2.3 3.23 3 3 c 1.41 -0.47 6 -6 6 -6"/><path stroke-linejoin="round" stroke-linecap="round" stroke-width="2" stroke="rgb(52, 58, 64)" fill="none" d="M 233 55 c -0.19 0.32 -7.81 11.82 -11 18 c -2.11 4.08 -3.44 8.49 -5 13 c -1.52 4.4 -3 8.55 -4 13 c -1.35 5.97 -2.5 12.47 -3 18 c -0.11 1.25 0.41 2.96 1 4 c 0.61 1.07 1.89 2.66 3 3 c 2.63 0.81 7.26 1.21 10 1 c 0.98 -0.08 2 -1.75 3 -2 c 1.38 -0.34 4.02 -0.56 5 0 c 0.88 0.5 1.13 3.27 2 4 c 0.8 0.67 2.68 0.87 4 1 c 1.93 0.19 4.32 0.61 6 0 c 5.02 -1.82 10.72 -5.12 16 -8 c 2.13 -1.16 4.38 -2.38 6 -4 c 3.18 -3.18 7.41 -6.95 9 -11 c 5.85 -14.87 15 -50 15 -50"/><path stroke-linejoin="round" stroke-linecap="round" stroke-width="2" stroke="rgb(52, 58, 64)" fill="none" d="M 301 64 l -22 45"/><path stroke-linejoin="round" stroke-linecap="round" stroke-width="2" stroke="rgb(52, 58, 64)" fill="none" d="M 248 73 c 0.47 0.28 17.64 10.75 27 16 c 4.67 2.62 14 7 14 7"/><path stroke-linejoin="round" stroke-linecap="round" stroke-width="2" stroke="rgb(52, 58, 64)" fill="none" d="M 353 77 c -0.12 0 -4.91 0.45 -7 0 c -2.27 -0.49 -4.92 -2.62 -7 -3 c -1.13 -0.2 -3.06 1.38 -4 1 c -1.78 -0.71 -6.11 -4.66 -6 -5 c 0.11 -0.32 5.64 0.78 7 2 c 1.42 1.28 2.34 4.6 3 7 c 1.32 4.82 2.55 10 3 15 c 0.53 5.88 1.13 12.48 0 18 c -1.73 8.43 -5.5 18.06 -9 26 c -1.27 2.89 -5.14 7.63 -6 8 c -0.44 0.19 -1.08 -3.4 -1 -5 c 0.24 -4.73 0.97 -9.97 2 -15 c 2.71 -13.32 5.4 -26.28 9 -39 c 1.37 -4.84 4.2 -9.19 6 -14 c 1.24 -3.3 1.72 -7.02 3 -10 c 0.61 -1.43 2.6 -4.2 3 -4 c 0.49 0.25 0.94 3.98 1 6 c 0.28 9.94 -0.46 19.98 0 30 c 0.21 4.72 1.01 9.32 2 14 c 1.73 8.19 3.43 16.29 6 24 c 1.72 5.16 4.46 11.4 7 15 c 0.83 1.17 3.58 2.19 5 2 c 2.83 -0.38 7.38 -2.15 10 -4 c 2.58 -1.82 4.94 -5.19 7 -8 c 1.56 -2.13 3.03 -4.66 4 -7 c 0.62 -1.48 1.38 -4.49 1 -5 c -0.31 -0.41 -2.96 0.41 -4 1 c -1.07 0.61 -2.35 1.86 -3 3 c -1.86 3.25 -4.41 8.03 -5 11 c -0.22 1.1 1.18 2.86 2 4 c 0.77 1.08 1.9 2.31 3 3 c 1.39 0.87 3.54 2.1 5 2 c 2.57 -0.18 7.11 -3.44 9 -3 c 1.44 0.33 2.55 4.73 4 6 c 0.83 0.73 2.64 0.81 4 1 c 3.32 0.47 7.57 2.07 10 1 c 4.64 -2.04 9.78 -8.24 15 -12 c 3.17 -2.28 7.96 -5.49 10 -6 c 0.63 -0.16 1.18 2.53 2 3 c 1.16 0.66 3.42 1 5 1 c 1.88 0 4.24 -0.26 6 -1 c 4.26 -1.8 8.74 -5.3 13 -7 c 2.04 -0.82 4.97 -0.39 7 -1 c 1.04 -0.31 2.08 -1.87 3 -2 c 1.05 -0.15 2.83 0.42 4 1 c 3.31 1.65 6.75 5.07 10 6 c 3.07 0.88 7.54 0.49 11 0 c 3.28 -0.47 6.9 -2.61 10 -3 c 1.81 -0.23 5.17 0.17 6 1 c 0.68 0.68 -0.46 3.77 0 5 c 0.39 1.04 2.18 2.86 3 3 c 0.7 0.12 2.06 -1.88 3 -2 c 1.33 -0.17 3.52 0.41 5 1 c 1.69 0.68 3.25 2.62 5 3 c 9.72 2.1 22.42 2.6 32 5 l 8 5"/></svg>