<?xml version="1.0" encoding="UTF-8" standalone="no"?><!DOCTYPE svg PUBLIC "-//W3C//DTD SVG 1.1//EN" "http://www.w3.org/Graphics/SVG/1.1/DTD/svg11.dtd"><svg xmlns="http://www.w3.org/2000/svg" version="1.1" width="529" height="115"><path stroke-linejoin="round" stroke-linecap="round" stroke-width="2" stroke="rgb(52, 58, 64)" fill="none" d="M 1 29 c 0.56 -0.33 20.94 -12.71 32 -19 c 3.99 -2.27 7.93 -4.74 12 -6 c 5.24 -1.63 11.7 -2.52 17 -3 c 1.57 -0.14 3.84 0.34 5 1 c 0.82 0.47 2 2.09 2 3 c 0 1.85 -0.98 4.97 -2 7 c -1.2 2.4 -3.19 4.66 -5 7 c -6.46 8.34 -12.46 16.42 -19 24 c -1.67 1.93 -4.17 3.17 -6 5 c -2.16 2.16 -6.78 6.48 -6 7 c 1.53 1.02 12.22 0.17 18 1 c 3.35 0.48 6.92 1.59 10 3 c 4.76 2.18 10.36 4.94 14 8 c 2.13 1.79 4.05 5.27 5 8 c 1.23 3.52 1.79 8.2 2 12 c 0.11 1.9 -0.15 4.4 -1 6 c -1.9 3.59 -5.11 7.7 -8 11 c -1.66 1.9 -3.9 3.47 -6 5 c -1.57 1.14 -3.27 2.34 -5 3 c -2.44 0.94 -6.5 2.45 -8 2 c -0.98 -0.29 -2 -3.51 -2 -5 c 0 -2.01 0.9 -4.95 2 -7 c 3.72 -6.95 7.87 -15.01 13 -21 c 6.47 -7.55 15.13 -15.1 23 -21 c 3.62 -2.71 8.9 -4.63 13 -6 c 1.43 -0.48 4.57 -0.65 5 0 c 0.53 0.79 -0.39 4.1 -1 6 c -1.7 5.35 -4.61 10.89 -6 16 c -0.49 1.79 -0.52 5.48 0 6 c 0.39 0.39 3.14 -1.04 4 -2 c 1.82 -2.03 3.78 -5.35 5 -8 c 0.66 -1.43 0.38 -3.52 1 -5 c 0.97 -2.34 2.4 -6.43 4 -7 c 2.02 -0.72 6.67 1.73 10 2 c 4.9 0.39 10.39 0.99 15 0 c 8.74 -1.87 20.18 -5.94 27 -9 c 1.07 -0.48 2.14 -3.17 2 -4 c -0.11 -0.67 -2.2 -2.1 -3 -2 c -1.3 0.16 -3.49 1.8 -5 3 c -5.13 4.1 -10.95 8.37 -15 13 c -2.56 2.92 -5.46 8.12 -6 11 c -0.25 1.34 1.73 4.66 3 5 c 2.63 0.7 8.28 -0.15 12 -1 l 10 -4"/><path stroke-linejoin="round" stroke-linecap="round" stroke-width="2" stroke="rgb(52, 58, 64)" fill="none" d="M 229 48 c -0.02 0.09 -0.37 3.52 -1 5 c -1.28 2.99 -3.62 5.86 -5 9 c -2.29 5.22 -6.3 16.22 -6 16 c 0.44 -0.31 8.08 -14.68 13 -21 c 4.22 -5.43 10.04 -9.69 15 -15 c 4.98 -5.32 8.91 -11.05 14 -16 c 6.63 -6.44 14.45 -13.39 21 -18 c 1.44 -1.01 4.58 -1.43 6 -1 c 1.32 0.4 3.86 3.15 4 4 c 0.09 0.54 -2.2 1.2 -3 2 c -1.43 1.43 -2.43 3.61 -4 5 c -7.29 6.48 -14.9 13.88 -23 19 c -7.77 4.92 -17.12 8.36 -26 12 c -4.22 1.73 -12.6 3.8 -13 4 c -0.15 0.07 3.49 -0.3 5 0 c 1.62 0.32 3.5 1.08 5 2 c 7.03 4.32 13.71 9.5 21 14 c 4.27 2.63 8.91 5.49 13 7 c 1.66 0.61 4.05 0.24 6 0 c 3.32 -0.41 6.74 -1.09 10 -2 c 2.73 -0.76 5.45 -1.73 8 -3 c 6.14 -3.07 13.98 -8.66 18 -10 c 0.83 -0.28 3 2.35 3 3 c 0 0.55 -2.2 1.2 -3 2 c -1.1 1.1 -2.86 2.88 -3 4 c -0.13 1.01 1.11 3.7 2 4 c 1.41 0.47 5.07 -0.17 7 -1 c 2.35 -1.01 5.97 -3.06 7 -5 c 1.21 -2.26 -0.76 -8.72 1 -10 c 3.83 -2.79 14.18 -3.73 21 -6 c 2.1 -0.7 3.95 -2.32 6 -3 c 2.82 -0.94 9.29 -2.37 9 -2 c -0.8 1.02 -13.88 10.72 -20 16 c -0.86 0.74 -2.31 2.87 -2 3 c 0.62 0.25 5.09 -0.05 7 -1 c 5.47 -2.73 12.93 -9.17 17 -11 c 0.73 -0.33 2.41 1.17 3 2 c 0.89 1.24 1.03 3.59 2 5 c 3.2 4.68 8.3 9.51 11 14 c 0.92 1.53 0.42 4.25 1 6 c 0.35 1.04 2 2.13 2 3 c 0 1.3 -1.06 3.9 -2 5 c -0.78 0.91 -2.65 1.71 -4 2 c -3.04 0.65 -6.6 0.79 -10 1 c -2.03 0.13 -4.18 0.33 -6 0 c -1.63 -0.3 -4.66 -1.08 -5 -2 c -0.4 -1.08 0.93 -4.53 2 -6 c 1.32 -1.82 3.83 -3.5 6 -5 c 12.04 -8.31 34.38 -23 36 -24 c 0.13 -0.08 -2.11 2.24 -2 3 c 0.15 1.05 2.07 3.88 3 4 c 1.08 0.13 3.22 -2.36 5 -3 c 9.94 -3.59 24.76 -10.34 31 -10 c 2.57 0.14 3.36 12.05 6 12 c 9.58 -0.18 31.43 -9.48 47 -13 c 4.8 -1.08 10.04 -1.15 15 -1 c 5.98 0.18 12.54 0.64 18 2 c 3.37 0.84 9.46 3.66 10 5 c 0.37 0.94 -3.87 3.87 -6 5 c -2.58 1.38 -5.96 2.48 -9 3 c -6.44 1.11 -13.64 1.75 -20 2 c -1.61 0.06 -5.14 -0.51 -5 -1 c 0.26 -0.89 4.51 -4.53 7 -6 l 10 -4"/></svg>