<?xml version="1.0" encoding="UTF-8" standalone="no"?><!DOCTYPE svg PUBLIC "-//W3C//DTD SVG 1.1//EN" "http://www.w3.org/Graphics/SVG/1.1/DTD/svg11.dtd"><svg xmlns="http://www.w3.org/2000/svg" version="1.1" width="648" height="69"><path stroke-linejoin="round" stroke-linecap="round" stroke-width="2" stroke="rgb(52, 58, 64)" fill="none" d="M 1 6 c 0.21 0.07 8.06 3.47 12 4 c 5.61 0.75 12.05 0.5 18 0 c 6.03 -0.5 12.36 -1.44 18 -3 c 3.74 -1.03 8.2 -4.4 11 -5 c 0.84 -0.18 2.85 1.15 3 2 c 0.63 3.55 0.49 10.1 0 15 c -0.5 4.99 -1.63 10.43 -3 15 c -0.52 1.74 -2.3 3.26 -3 5 c -1.25 3.12 -3.24 9.17 -3 10 c 0.13 0.46 4 -1.84 5 -3 c 0.7 -0.82 0.41 -2.96 1 -4 c 0.61 -1.07 2.26 -1.89 3 -3 c 1.17 -1.75 1.65 -4.38 3 -6 c 3.41 -4.1 7.78 -8.74 12 -12 c 2.78 -2.15 6.97 -3.04 10 -5 c 2.5 -1.62 4.53 -4.69 7 -6 c 2.8 -1.48 9.03 -4.29 10 -3 c 1.77 2.36 -0.13 19.08 2 19 c 3.57 -0.13 16.81 -13.99 25 -20 c 1.38 -1.01 4.68 -2.68 5 -2 c 0.88 1.91 0.31 10.03 1 15 c 0.65 4.74 1.77 9.56 3 14 c 0.39 1.39 1.16 3 2 4 l 3 2"/><path stroke-linejoin="round" stroke-linecap="round" stroke-width="2" stroke="rgb(52, 58, 64)" fill="none" d="M 182 24 l 1 1"/><path stroke-linejoin="round" stroke-linecap="round" stroke-width="2" stroke="rgb(52, 58, 64)" fill="none" d="M 182 52 l 1 1"/><path stroke-linejoin="round" stroke-linecap="round" stroke-width="2" stroke="rgb(52, 58, 64)" fill="none" d="M 214 21 c -0.03 -0.07 -1.32 -3.89 -2 -4 c -0.76 -0.13 -3.13 1.84 -4 3 c -0.93 1.25 -2 5 -2 5"/><path stroke-linejoin="round" stroke-linecap="round" stroke-width="2" stroke="rgb(52, 58, 64)" fill="none" d="M 227 53 l 1 1"/><path stroke-linejoin="round" stroke-linecap="round" stroke-width="2" stroke="rgb(52, 58, 64)" fill="none" d="M 256 21 l -3 3"/><path stroke-linejoin="round" stroke-linecap="round" stroke-width="2" stroke="rgb(52, 58, 64)" fill="none" d="M 256 43 l 15 -7"/><path stroke-linejoin="round" stroke-linecap="round" stroke-width="2" stroke="rgb(52, 58, 64)" fill="none" d="M 267 49 c 0.07 -0.12 2.26 -5.12 4 -7 c 6.58 -7.08 15.64 -16.05 22 -21 c 1.05 -0.81 4.15 -0.75 5 0 c 1.52 1.35 3.44 5.59 4 8 c 0.32 1.37 -1.31 3.93 -1 5 l 3 2"/><path stroke-linejoin="round" stroke-linecap="round" stroke-width="2" stroke="rgb(52, 58, 64)" fill="none" d="M 330 31 c 0.14 -0.12 5.35 -6.2 8 -7 c 3.01 -0.9 12 1 12 1"/><path stroke-linejoin="round" stroke-linecap="round" stroke-width="2" stroke="rgb(52, 58, 64)" fill="none" d="M 373 43 l 1 1"/><path stroke-linejoin="round" stroke-linecap="round" stroke-width="2" stroke="rgb(52, 58, 64)" fill="none" d="M 349 35 l 1 1"/><path stroke-linejoin="round" stroke-linecap="round" stroke-width="2" stroke="rgb(52, 58, 64)" fill="none" d="M 396 25 c -0.05 0.04 -2.46 1.2 -3 2 c -0.61 0.92 -1.37 3.38 -1 4 c 0.37 0.62 2.88 0.39 4 1 c 2.33 1.27 4.6 3.8 7 5 c 2.03 1.02 7 2 7 2"/><path stroke-linejoin="round" stroke-linecap="round" stroke-width="2" stroke="rgb(52, 58, 64)" fill="none" d="M 467 27 c -0.3 0.18 -11.36 7.49 -17 10 c -2.91 1.3 -7.02 2 -10 2 c -1.85 0 -4.25 -0.96 -6 -2 c -10.21 -6.07 -22.23 -13.18 -31 -20 c -2.24 -1.74 -5 -8 -5 -8"/><path stroke-linejoin="round" stroke-linecap="round" stroke-width="2" stroke="rgb(52, 58, 64)" fill="none" d="M 441 1 c 0.11 0.02 4.25 0.42 6 1 c 1.04 0.35 2.69 1.14 3 2 c 0.78 2.15 1.16 6.17 1 9 c -0.16 2.88 -0.86 6.23 -2 9 c -3.43 8.32 -12 25 -12 25"/><path stroke-linejoin="round" stroke-linecap="round" stroke-width="2" stroke="rgb(52, 58, 64)" fill="none" d="M 385 68 c 0.05 -0.21 1.34 -8.55 3 -12 c 2.12 -4.42 5.68 -8.89 9 -13 c 3.72 -4.6 7.73 -9.12 12 -13 c 2.95 -2.68 10 -7 10 -7"/><path stroke-linejoin="round" stroke-linecap="round" stroke-width="2" stroke="rgb(52, 58, 64)" fill="none" d="M 529 8 c -0.21 0.19 -7.67 7.75 -12 11 c -7.68 5.76 -16.28 10.27 -24 16 c -3.98 2.95 -11 10 -11 10"/><path stroke-linejoin="round" stroke-linecap="round" stroke-width="2" stroke="rgb(52, 58, 64)" fill="none" d="M 526 11 c 0.07 0.28 2.36 10.7 4 16 c 1.39 4.47 5 13 5 13"/><path stroke-linejoin="round" stroke-linecap="round" stroke-width="2" stroke="rgb(52, 58, 64)" fill="none" d="M 494 41 l 36 -13"/><path stroke-linejoin="round" stroke-linecap="round" stroke-width="2" stroke="rgb(52, 58, 64)" fill="none" d="M 578 23 c -0.07 0.02 -2.96 0.3 -4 1 c -5.42 3.62 -12.49 8.73 -17 13 c -1.13 1.07 -2.11 4.66 -2 5 c 0.08 0.23 2.52 -1.1 3 -2 c 1.84 -3.46 3.04 -8.7 5 -13 c 3.14 -6.91 8.7 -19.13 10 -20 c 0.71 -0.47 0.92 8.55 2 12 c 0.44 1.42 1.83 2.96 3 4 c 1.68 1.5 3.9 3.23 6 4 c 3.88 1.43 9.68 1.55 13 3 c 1.25 0.55 1.74 3.26 3 4 c 3.83 2.25 9.22 4.55 14 6 c 6.1 1.85 13.57 1.69 19 4 c 4.82 2.04 14 10 14 10"/></svg>