<?xml version="1.0" encoding="UTF-8" standalone="no"?><!DOCTYPE svg PUBLIC "-//W3C//DTD SVG 1.1//EN" "http://www.w3.org/Graphics/SVG/1.1/DTD/svg11.dtd"><svg xmlns="http://www.w3.org/2000/svg" version="1.1" width="357" height="102"><path stroke-linejoin="round" stroke-linecap="round" stroke-width="2" stroke="rgb(52, 58, 64)" fill="none" d="M 1 27 c 0.1 0.09 3.85 4.59 6 5 c 8.54 1.62 20.49 2.1 31 2 c 25.05 -0.24 48.37 -1.62 74 -3 c 19.43 -1.05 36.6 -3.05 56 -4 c 30.07 -1.47 57.82 -1.02 87 -3 c 10.53 -0.71 20.44 -3.02 31 -5 c 5.87 -1.1 12.34 -2.09 17 -4 c 1.89 -0.77 4.87 -3.61 5 -5 c 0.13 -1.41 -2.38 -4.79 -4 -6 c -1.92 -1.44 -5.39 -2.54 -8 -3 c -2.75 -0.48 -6.06 -0.31 -9 0 c -3.33 0.35 -7 0.78 -10 2 c -5.66 2.31 -11.38 5.66 -17 9 c -6.97 4.15 -13.88 7.93 -20 13 c -19.25 15.95 -36.53 33.12 -56 50 c -6.28 5.44 -12.4 10.32 -19 15 c -3.79 2.69 -7.92 5.49 -12 7 c -4.49 1.66 -9.93 2.44 -15 3 c -6.96 0.77 -14.15 1.53 -21 1 c -10.23 -0.79 -20.38 -3.14 -31 -5 c -3.12 -0.55 -6.1 -1.09 -9 -2 c -2.39 -0.75 -4.99 -1.79 -7 -3 c -1.12 -0.67 -2.85 -1.94 -3 -3 c -0.39 -2.76 -0.34 -8.62 1 -11 c 1.14 -2.03 5.22 -4.39 8 -5 c 9.78 -2.15 21.69 -2.97 33 -4 c 7.49 -0.68 14.51 -1 22 -1 c 7.49 0 14.64 0.04 22 1 c 18.62 2.42 35.92 6.16 55 9 c 13.46 2 25.82 4.17 39 5 c 13.4 0.85 26.24 0.35 40 0 c 13.09 -0.34 25.59 -0.5 38 -2 c 6.72 -0.81 13.96 -2.66 20 -5 l 11 -7"/></svg>