<?xml version="1.0" encoding="UTF-8" standalone="no"?><!DOCTYPE svg PUBLIC "-//W3C//DTD SVG 1.1//EN" "http://www.w3.org/Graphics/SVG/1.1/DTD/svg11.dtd"><svg xmlns="http://www.w3.org/2000/svg" version="1.1" width="602" height="77"><path stroke-linejoin="round" stroke-linecap="round" stroke-width="2" stroke="rgb(52, 58, 64)" fill="none" d="M 1 24 c 0.03 0.26 1.77 9.93 2 15 c 0.44 9.71 0.27 19.31 0 29 c -0.07 2.36 -1.03 7.12 -1 7 c 0.12 -0.49 3.19 -19.04 6 -28 c 2.46 -7.84 6.52 -16.54 10 -23 c 0.69 -1.29 2.68 -2.56 4 -3 c 1.32 -0.44 4.09 -0.68 5 0 c 1.22 0.91 2.3 3.9 3 6 c 2.27 6.82 4.54 14.19 6 21 c 0.47 2.18 -0.3 4.76 0 7 c 0.35 2.64 1.65 8.53 2 8 c 1.86 -2.84 14.3 -32.37 19 -40 c 0.54 -0.88 4.5 -0.07 5 1 c 2.96 6.34 5.44 20.46 9 29 c 1.08 2.59 3.93 6.39 6 7 c 2.51 0.74 8.65 -0.27 11 -2 c 3.03 -2.23 6.25 -8.29 8 -12 c 0.61 -1.29 0.1 -4.9 0 -5 c -0.08 -0.08 -1.27 3.07 -1 4 c 0.27 0.96 1.92 2.46 3 3 c 1.3 0.65 3.48 1.18 5 1 c 3.69 -0.43 8.26 -2.58 12 -3 c 1.84 -0.2 4.15 0.45 6 1 c 1.36 0.41 2.99 1.13 4 2 c 1.13 0.97 1.87 2.87 3 4 c 1.13 1.13 2.6 2.22 4 3 c 1.51 0.84 3.5 1.83 5 2 c 1.15 0.13 3.07 -1.43 4 -1 c 2.58 1.19 5.97 6.15 9 7 c 4.26 1.19 11.41 0.66 16 0 c 1.67 -0.24 3.31 -2.32 5 -3 c 1.48 -0.59 3.56 -0.33 5 -1 c 3.29 -1.54 6.69 -4.35 10 -6 c 1.17 -0.58 3.82 -1.53 4 -1 c 0.43 1.3 -1.24 9.04 -1 10 c 0.09 0.34 2.63 -1.1 3 -2 c 1.59 -3.87 3.24 -14.24 4 -15 c 0.42 -0.42 1.73 6.37 3 8 c 0.61 0.79 3.02 0.28 4 1 c 3.54 2.59 7.75 8.86 11 10 c 2.08 0.73 6.31 -1.66 9 -3 c 2.44 -1.22 4.87 -3.1 7 -5 c 4.19 -3.75 8.87 -7.77 12 -12 c 2.23 -3.01 3.18 -8.04 5 -11 c 0.54 -0.88 2.65 -2.43 3 -2 c 1.25 1.56 2.98 8.33 5 12 c 1.55 2.82 4.5 8.67 6 8 c 4.67 -2.09 16.21 -13.47 23 -21 c 5.32 -5.9 13.74 -19.6 14 -20 c 0.04 -0.07 -2.39 1.87 -3 3 c -1.24 2.27 -2.08 5.2 -3 8 c -5.29 16.15 -11.23 33.01 -15 47 c -0.39 1.45 0.58 5 1 5 c 0.48 0 1.75 -3.75 3 -5 c 1.85 -1.85 4.95 -4.25 7 -5 c 0.98 -0.36 2.8 0.45 4 1 c 2.34 1.07 5.01 3.67 7 4 c 1.33 0.22 3.75 -1.07 5 -2 c 1.16 -0.87 2.39 -2.63 3 -4 c 0.62 -1.4 1.4 -3.93 1 -5 c -0.39 -1.05 -2.58 -2.23 -4 -3 c -2.16 -1.18 -4.66 -2.45 -7 -3 c -3.09 -0.73 -6.78 -1.27 -10 -1 c -8.44 0.7 -17.87 1.78 -26 4 c -6.09 1.66 -12.98 4.86 -18 8 c -2.35 1.47 -5.53 5.59 -6 7 c -0.18 0.55 2.09 2 3 2 c 1.85 0 4.63 -1.58 7 -2 c 3.27 -0.58 6.69 -0.39 10 -1 c 5.76 -1.07 11.34 -2.36 17 -4 c 4.82 -1.4 9.18 -3.66 14 -5 l 22 -5"/><path stroke-linejoin="round" stroke-linecap="round" stroke-width="2" stroke="rgb(52, 58, 64)" fill="none" d="M 444 12 c -0.04 -0.05 -1.17 -2.27 -2 -3 c -1.66 -1.45 -3.93 -2.97 -6 -4 c -1.81 -0.91 -3.96 -1.61 -6 -2 c -4.89 -0.93 -10.77 -2.73 -15 -2 c -4.37 0.75 -9.75 4.3 -14 7 c -2.88 1.84 -5.49 4.49 -8 7 c -2.18 2.18 -4.45 4.52 -6 7 c -1.66 2.65 -3.75 6.06 -4 9 c -0.66 7.75 -0.6 18.6 1 26 c 0.8 3.71 4.5 7.82 7 11 c 0.96 1.22 2.6 2.3 4 3 c 1.78 0.89 4.34 2 6 2 c 1.17 0 3.81 -1.15 4 -2 c 0.31 -1.39 -1.07 -4.95 -2 -7 c -0.64 -1.41 -1.8 -2.98 -3 -4 c -2.93 -2.48 -6.73 -5.25 -10 -7 c -1.37 -0.73 -4.75 -0.63 -5 -1 c -0.17 -0.26 2.05 -1.89 3 -2 c 1.61 -0.18 4.15 1.2 6 1 c 4.06 -0.43 8.85 -2.62 13 -3 c 2.82 -0.26 7.11 -0.16 9 1 c 1.68 1.04 2.46 5.64 4 7 c 0.97 0.86 3.55 1.14 5 1 c 1.53 -0.15 3.61 -1.13 5 -2 c 1.1 -0.69 1.93 -3 3 -3 c 8.1 0 22.43 1.28 32 3 c 2.4 0.43 4.91 2.4 7 4 c 3.49 2.67 8.09 8.04 10 9 c 0.51 0.26 1.18 -2.29 2 -3 c 1.33 -1.14 3.4 -2.77 5 -3 c 2.49 -0.36 6.19 1 9 1 c 1.28 0 2.78 -1 4 -1 c 1.22 0 2.87 0.39 4 1 c 2.97 1.6 6.34 5.33 9 6 c 1.79 0.45 5.28 -0.73 7 -2 c 4.01 -2.95 9.15 -7.66 12 -12 c 3.08 -4.71 5.2 -11.24 7 -17 c 1.5 -4.8 1.61 -10.22 3 -15 c 0.9 -3.08 3.26 -8.38 4 -9 c 0.34 -0.28 1.64 2.61 2 4 c 1.9 7.34 2.8 15.49 5 23 c 1.8 6.16 4.41 12.1 7 18 c 1.08 2.46 2.45 4.93 4 7 c 1.36 1.81 3.23 3.4 5 5 c 1.61 1.45 3.3 3.15 5 4 c 1.35 0.68 3.55 1.14 5 1 c 1.53 -0.15 4.01 -1.01 5 -2 c 0.99 -0.99 1.83 -3.5 2 -5 c 0.13 -1.15 -1.15 -2.95 -1 -4 c 0.13 -0.92 1.87 -2.08 2 -3 c 0.15 -1.05 -0.24 -3.11 -1 -4 c -2.75 -3.21 -7.14 -7.11 -11 -10 c -2.67 -2 -5.95 -3.98 -9 -5 c -3.6 -1.2 -7.85 -1.45 -12 -2 c -6.17 -0.82 -12.09 -1.79 -18 -2 c -3.28 -0.12 -10.18 0.98 -10 1 c 0.35 0.03 13.17 0.29 20 0 c 9.24 -0.39 17.95 -1.02 27 -2 c 3.41 -0.37 6.66 -1.74 10 -2 l 16 0"/></svg>