<?xml version="1.0" encoding="UTF-8" standalone="no"?><!DOCTYPE svg PUBLIC "-//W3C//DTD SVG 1.1//EN" "http://www.w3.org/Graphics/SVG/1.1/DTD/svg11.dtd"><svg xmlns="http://www.w3.org/2000/svg" version="1.1" width="352" height="125"><path stroke-linejoin="round" stroke-linecap="round" stroke-width="2" stroke="rgb(52, 58, 64)" fill="none" d="M 258 32 c -0.07 0.03 -2.6 1.61 -4 2 c -9.05 2.54 -18.24 4.8 -28 7 c -39.48 8.9 -74.89 15.65 -114 25 c -24.3 5.81 -46.16 12.05 -70 19 c -9.04 2.64 -18.38 5.19 -26 9 c -4.33 2.16 -9.63 6.37 -12 10 c -2.02 3.1 -2.8 9.09 -3 13 c -0.11 2.14 0.54 7.03 2 7 c 45.48 -0.99 169 -1.95 227 -12 c 10.68 -1.85 20.51 -21.05 27 -32 c 4.37 -7.36 6.5 -18.17 8 -27 c 1.07 -6.27 1.4 -14.25 0 -20 c -1.34 -5.53 -4.91 -13.75 -9 -17 c -5.73 -4.55 -16.66 -8.25 -25 -10 c -11.5 -2.41 -25 -3.19 -37 -3 c -8.18 0.13 -19.07 2.24 -25 4 c -1.05 0.31 -2.51 3.36 -2 4 c 1.34 1.67 6.86 4.74 10 6 c 1.35 0.54 5.11 0.05 5 0 c -0.2 -0.1 -6.02 -1.6 -9 -2 c -1.94 -0.26 -6.16 -0.05 -6 0 c 1.08 0.34 25.06 6.96 38 10 c 4.33 1.02 13.29 2.16 13 2 c -0.84 -0.46 -22.91 -9.92 -35 -14 c -14.01 -4.73 -41.25 -11.83 -42 -12 c -0.28 -0.06 9.79 4.38 15 6 c 14.41 4.47 41.73 11.52 43 12 c 0.31 0.12 -7.36 0.39 -11 0 c -8.71 -0.94 -21.86 -4.32 -26 -4 c -0.95 0.07 -1.16 5.55 0 6 c 14.78 5.67 47.99 16.24 73 22 c 30.63 7.05 60.62 11.13 92 16 c 8.09 1.26 24.41 2.12 24 2 c -2.21 -0.63 -117.42 -29.26 -125 -31 c -0.25 -0.06 1.83 2.76 3 3 c 15.58 3.17 53.65 9.28 56 9 c 1.06 -0.12 -14.49 -9.76 -22 -13 c -6.7 -2.89 -21.58 -6 -22 -6 c -0.27 0 8.65 5.11 13 6 c 7.93 1.63 25.55 1.97 26 2 c 0.23 0.02 -12.19 -1.3 -13 -1 c -0.4 0.15 3.3 3.15 5 4 c 1.35 0.68 3.35 1 5 1 l 22 -1"/></svg>