<?xml version="1.0" encoding="UTF-8" standalone="no"?><!DOCTYPE svg PUBLIC "-//W3C//DTD SVG 1.1//EN" "http://www.w3.org/Graphics/SVG/1.1/DTD/svg11.dtd"><svg xmlns="http://www.w3.org/2000/svg" version="1.1" width="345" height="58"><path stroke-linejoin="round" stroke-linecap="round" stroke-width="2" stroke="rgb(52, 58, 64)" fill="none" d="M 1 22 c 0.79 0.05 29.56 2.36 45 3 c 9.24 0.39 17.79 0.42 27 0 c 13.34 -0.61 26.17 -0.7 39 -3 c 26.26 -4.71 51.57 -12.76 78 -18 c 9.3 -1.84 26.95 -4.28 28 -3 c 0.88 1.08 -13 8.91 -19 14 c -5.03 4.27 -9.01 9.48 -14 14 c -5.9 5.35 -11.65 10.65 -18 15 c -6.19 4.24 -13.37 8.95 -20 11 c -6.42 1.99 -14.65 2.21 -22 2 c -27.02 -0.79 -54.38 -2.36 -81 -5 c -6.76 -0.67 -13.23 -3.84 -20 -5 c -6.93 -1.18 -19.75 -1.58 -21 -2 c -0.4 -0.13 3.99 -2.5 6 -3 c 3.02 -0.75 6.59 -0.95 10 -1 c 17.96 -0.29 35.12 -0.67 53 0 c 9.17 0.34 17.7 2.28 27 3 c 13.03 1 24.86 1.7 38 2 c 32.11 0.74 61.58 2.34 93 1 c 31.9 -1.36 63.28 -4.96 94 -9 l 20 -6"/></svg>