<?xml version="1.0" encoding="UTF-8" standalone="no"?><!DOCTYPE svg PUBLIC "-//W3C//DTD SVG 1.1//EN" "http://www.w3.org/Graphics/SVG/1.1/DTD/svg11.dtd"><svg xmlns="http://www.w3.org/2000/svg" version="1.1" width="223" height="80"><path stroke-linejoin="round" stroke-linecap="round" stroke-width="2" stroke="rgb(52, 58, 64)" fill="none" d="M 9 7 c -0.05 0.11 -2.44 3.93 -3 6 c -1.7 6.31 -3.06 13.23 -4 20 c -0.74 5.32 -1.16 10.73 -1 16 c 0.17 5.31 0.72 11.06 2 16 c 0.96 3.7 2.81 8.97 5 11 c 1.67 1.55 9 2 9 2"/><path stroke-linejoin="round" stroke-linecap="round" stroke-width="2" stroke="rgb(52, 58, 64)" fill="none" d="M 77 1 c -0.3 0.09 -11.45 2.96 -17 5 c -4.49 1.64 -8.85 3.6 -13 6 c -8.6 4.98 -18.28 10.4 -25 16 c -2.33 1.94 -5 6.43 -5 9 c 0 3.24 2.63 9.33 5 12 c 2.29 2.57 7.18 4.73 11 6 c 8.81 2.94 18.9 5.91 28 7 c 6.95 0.83 15.58 -0.05 22 -1 c 1.7 -0.25 4.49 -1.84 5 -3 c 0.54 -1.21 -0.22 -4.91 -1 -6 c -0.53 -0.74 -3.35 -1.43 -4 -1 c -0.85 0.57 -2.55 4.17 -2 5 c 0.91 1.37 5.26 3.2 8 4 c 4.99 1.45 10.76 2.89 16 3 c 10.01 0.21 20.74 -0.74 31 -2 c 6.09 -0.75 12.21 -2.19 18 -4 c 4.79 -1.5 10.02 -3.53 14 -6 c 2.59 -1.6 5.43 -4.56 7 -7 c 1.16 -1.8 2.48 -5.32 2 -7 c -0.61 -2.13 -3.68 -5.67 -6 -7 c -3.98 -2.27 -10.09 -4.26 -15 -5 c -5.59 -0.85 -12.37 -0.83 -18 0 c -5.25 0.77 -11.54 2.6 -16 5 c -3.58 1.93 -8.86 5.84 -10 9 c -1.36 3.77 -0.94 12.4 1 16 c 1.98 3.68 8.34 7.72 13 10 c 9.08 4.43 19.94 8.29 30 11 c 6.99 1.88 14.69 2.66 22 3 c 6.92 0.32 14.33 0.21 21 -1 l 23 -7"/></svg>