<?xml version="1.0" encoding="UTF-8" standalone="no"?><!DOCTYPE svg PUBLIC "-//W3C//DTD SVG 1.1//EN" "http://www.w3.org/Graphics/SVG/1.1/DTD/svg11.dtd"><svg xmlns="http://www.w3.org/2000/svg" version="1.1" width="624" height="240"><path stroke-linejoin="round" stroke-linecap="round" stroke-width="2" stroke="rgb(52, 58, 64)" fill="none" d="M 30 38 c -0.17 0.32 -6.92 11.7 -10 18 c -4.76 9.72 -13 29 -13 29"/><path stroke-linejoin="round" stroke-linecap="round" stroke-width="2" stroke="rgb(52, 58, 64)" fill="none" d="M 82 60 c -0.07 -0.12 -2.36 -5.08 -4 -7 c -2.16 -2.53 -5.16 -4.76 -8 -7 c -3.63 -2.87 -7.14 -5.59 -11 -8 c -4.19 -2.62 -8.59 -5.3 -13 -7 c -3.99 -1.53 -8.7 -2.46 -13 -3 c -3.54 -0.44 -7.63 -0.53 -11 0 c -2.62 0.41 -6.98 1.47 -8 3 c -1.07 1.61 -0.68 6.27 0 9 c 1.85 7.39 4.76 16.08 8 23 c 1.52 3.24 7 9 7 9"/><path stroke-linejoin="round" stroke-linecap="round" stroke-width="2" stroke="rgb(52, 58, 64)" fill="none" d="M 33 28 c -0.05 0.4 -1.52 15.39 -3 23 c -1.2 6.13 -5 18 -5 18"/><path stroke-linejoin="round" stroke-linecap="round" stroke-width="2" stroke="rgb(52, 58, 64)" fill="none" d="M 1 85 l 1 1"/><path stroke-linejoin="round" stroke-linecap="round" stroke-width="2" stroke="rgb(52, 58, 64)" fill="none" d="M 34 37 c -0.17 0.28 -6.36 11.07 -10 16 c -1.91 2.59 -5.16 4.49 -7 7 c -1.66 2.27 -2.47 5.51 -4 8 c -1.1 1.78 -3.19 3.24 -4 5 c -1.04 2.26 -2.45 6.35 -2 8 c 0.32 1.17 3.38 2.94 5 3 c 5.6 0.22 13.56 -0.6 20 -2 c 8.71 -1.89 17.63 -5.97 26 -8 c 2.15 -0.52 4.83 0.33 7 0 c 1.96 -0.3 4.03 -1.77 6 -2 c 3.43 -0.4 7.75 0.43 11 0 c 1.32 -0.18 3.27 -1.13 4 -2 c 0.67 -0.8 1 -2.72 1 -4 c 0 -2.81 -0.07 -6.32 -1 -9 c -1.93 -5.56 -5.04 -12.22 -8 -17 c -1.01 -1.63 -3.26 -2.84 -5 -4 c -1.21 -0.81 -2.64 -1.59 -4 -2 c -1.85 -0.55 -4.18 -1.14 -6 -1 c -2.18 0.17 -5.2 0.84 -7 2 c -2.44 1.57 -4.83 4.5 -7 7 c -2.19 2.53 -4.44 5.23 -6 8 c -1.33 2.37 -2.49 5.33 -3 8 l -1 13"/><path stroke-linejoin="round" stroke-linecap="round" stroke-width="2" stroke="rgb(52, 58, 64)" fill="none" d="M 110 75 l 1 1"/><path stroke-linejoin="round" stroke-linecap="round" stroke-width="2" stroke="rgb(52, 58, 64)" fill="none" d="M 193 110 l 29 4"/><path stroke-linejoin="round" stroke-linecap="round" stroke-width="2" stroke="rgb(52, 58, 64)" fill="none" d="M 114 42 c 0.02 0.07 1 2.73 1 4 c 0 2.17 -0.38 4.77 -1 7 c -1.02 3.69 -2.98 7.26 -4 11 c -0.97 3.57 -1.57 7.34 -2 11 c -0.23 1.97 -0.23 4.03 0 6 c 0.43 3.66 0.71 7.93 2 11 c 1.16 2.75 3.8 5.98 6 8 c 1.48 1.35 3.99 2.63 6 3 c 4.82 0.88 10.94 1.21 16 1 c 2.6 -0.11 6.79 -0.48 8 -2 c 2 -2.5 3.33 -8.63 4 -13 c 1.29 -8.38 2.52 -17.79 2 -26 c -0.43 -6.79 -2.58 -15.96 -5 -21 c -0.9 -1.88 -5.54 -3.84 -7 -4 c -0.65 -0.07 -2 2.03 -2 3 c 0 4.08 0.76 10.65 2 15 c 0.59 2.07 2.46 4.17 4 6 c 3.79 4.5 7.8 9.02 12 13 c 2.04 1.94 4.57 3.61 7 5 c 2.16 1.23 4.65 2.33 7 3 c 2.18 0.62 4.75 1 7 1 c 2.25 0 5 -0.18 7 -1 c 3.3 -1.36 7.46 -3.63 10 -6 c 2.05 -1.91 3.67 -5.34 5 -8 c 0.58 -1.16 1 -2.73 1 -4 c 0 -2.17 -0.32 -4.95 -1 -7 c -0.56 -1.69 -2.02 -4.58 -3 -5 c -0.75 -0.32 -3.77 1.21 -4 2 c -0.27 0.95 1.07 3.75 2 5 c 0.87 1.16 2.67 2.83 4 3 c 3.21 0.4 8.05 -1 12 -1 c 2.97 0 6.39 0.35 9 1 c 1.04 0.26 2.29 1.18 3 2 c 1.14 1.33 2.25 3.31 3 5 c 0.53 1.19 0.44 2.87 1 4 c 0.68 1.37 1.85 2.85 3 4 c 1.79 1.79 4.1 4.91 6 5 c 3.78 0.18 10.41 -3.62 15 -4 c 2.73 -0.23 6.78 0.99 9 2 c 0.87 0.4 1.32 3.07 2 3 c 1.68 -0.17 5.85 -2.31 8 -4 c 2.22 -1.74 3.89 -5.27 6 -7 c 1.24 -1.01 3.36 -1.78 5 -2 c 3.05 -0.41 6.83 -0.37 10 0 c 2.31 0.27 4.78 2 7 2 c 4.92 0 10.7 -1.02 16 -2 c 3.75 -0.69 9.68 -2.12 11 -3 c 0.42 -0.28 -1.38 -2.88 -2 -3 c -0.62 -0.12 -2.84 1.2 -3 2 c -0.36 1.79 0.13 6.09 1 8 c 0.54 1.19 2.87 1.87 4 3 c 1.13 1.13 1.85 3.54 3 4 l 7 0"/><path stroke-linejoin="round" stroke-linecap="round" stroke-width="2" stroke="rgb(52, 58, 64)" fill="none" d="M 373 27 c -0.02 0.09 -0.9 3.33 -1 5 c -0.23 3.93 0.61 8.15 0 12 c -1.35 8.56 -3.56 17.72 -6 26 c -0.82 2.78 -4 8 -4 8"/><path stroke-linejoin="round" stroke-linecap="round" stroke-width="2" stroke="rgb(52, 58, 64)" fill="none" d="M 412 23 c 0 0.19 -0.34 7.34 0 11 c 0.66 7.06 2.24 13.95 3 21 c 0.25 2.33 0.64 5.55 0 7 c -0.41 0.93 -2.77 2.16 -4 2 c -11.46 -1.53 -28.34 -6.07 -41 -8 c -1.55 -0.24 -3.52 0.41 -5 1 c -1.69 0.68 -4.4 1.95 -5 3 c -0.43 0.74 0.34 3.08 1 4 c 0.8 1.11 2.56 2.47 4 3 c 4.48 1.65 9.93 2.94 15 4 c 2.95 0.62 6.1 1.2 9 1 c 6.48 -0.45 13.41 -1.52 20 -3 c 6.81 -1.53 14.65 -3.68 20 -6 c 1.28 -0.56 2.66 -4.11 3 -4 c 0.34 0.11 -0.72 4.38 0 5 c 1.02 0.88 4.75 1 7 1 c 2.25 0 4.81 -0.35 7 -1 c 3.34 -0.98 7.3 -4.14 10 -4 c 2.58 0.14 5.92 3.88 9 5 c 4 1.45 9.01 1.67 13 3 c 1.74 0.58 3.24 2.35 5 3 c 4.38 1.61 9.52 3.74 14 4 c 6.18 0.36 14.66 0 20 -2 c 4.15 -1.56 8.49 -6.49 12 -10 c 1.62 -1.62 3.72 -4.19 4 -6 c 0.28 -1.82 -1.04 -5.27 -2 -7 c -0.48 -0.86 -2.3 -2.12 -3 -2 c -0.82 0.14 -3 2.19 -3 3 c 0 0.95 1.91 2.73 3 4 c 0.92 1.08 1.86 2.35 3 3 c 3.25 1.86 7.35 4.19 11 5 c 4.84 1.08 10.62 1 16 1 c 5.05 0 10.2 -0.14 15 -1 c 4.34 -0.78 9.17 -2.18 13 -4 c 2.81 -1.34 5.93 -3.76 8 -6 c 1.67 -1.8 2.97 -4.61 4 -7 c 0.93 -2.16 2.12 -4.9 2 -7 c -0.18 -3.29 -1.59 -8.18 -3 -11 c -0.62 -1.24 -3.94 -3.45 -4 -3 c -0.22 1.63 0.52 12.65 2 18 c 1.02 3.7 3.64 7.79 6 11 c 2.14 2.9 5.1 5.62 8 8 l 14 10"/><path stroke-linejoin="round" stroke-linecap="round" stroke-width="2" stroke="rgb(52, 58, 64)" fill="none" d="M 554 119 c 0.02 -0.23 0.25 -8.86 1 -13 c 0.55 -3.01 2.58 -5.93 3 -9 c 2.85 -20.81 4.27 -42.18 7 -64 c 0.69 -5.52 1.58 -10.71 3 -16 c 2.29 -8.52 5.6 -16.35 8 -25 c 2.73 -9.83 4.77 -18.97 7 -29 c 1.22 -5.47 2.28 -10.52 3 -16 c 0.98 -7.43 0.83 -14.78 2 -22 c 0.82 -5.07 3.07 -10.11 4 -15 c 0.36 -1.89 -0.41 -4.16 0 -6 c 0.86 -3.88 3.13 -7.99 4 -12 l 1 -11"/></svg>