<?xml version="1.0" encoding="UTF-8" standalone="no"?><!DOCTYPE svg PUBLIC "-//W3C//DTD SVG 1.1//EN" "http://www.w3.org/Graphics/SVG/1.1/DTD/svg11.dtd"><svg xmlns="http://www.w3.org/2000/svg" version="1.1" width="600" height="103"><path stroke-linejoin="round" stroke-linecap="round" stroke-width="2" stroke="rgb(52, 58, 64)" fill="none" d="M 449 23 l 1 1"/><path stroke-linejoin="round" stroke-linecap="round" stroke-width="2" stroke="rgb(52, 58, 64)" fill="none" d="M 17 20 c 0.23 0.04 8.85 0.83 13 2 c 6.39 1.8 12.54 4.92 19 7 c 2.94 0.95 6.33 2 9 2 c 1.83 0 6 -2 6 -2"/><path stroke-linejoin="round" stroke-linecap="round" stroke-width="2" stroke="rgb(52, 58, 64)" fill="none" d="M 63 8 l 1 1"/><path stroke-linejoin="round" stroke-linecap="round" stroke-width="2" stroke="rgb(52, 58, 64)" fill="none" d="M 5 30 l 1 1"/><path stroke-linejoin="round" stroke-linecap="round" stroke-width="2" stroke="rgb(52, 58, 64)" fill="none" d="M 1 44 c 0.11 -0.51 4.26 -24.74 6 -29 c 0.32 -0.77 3.65 0.98 5 2 c 6.25 4.69 12.33 10.85 19 16 c 5.21 4.02 10.63 7.68 16 11 c 1.49 0.92 3.3 1.49 5 2 c 1.61 0.48 3.6 1.37 5 1 c 4.17 -1.1 9.76 -3.67 14 -6 c 2.17 -1.2 4.35 -4.5 6 -5 l 4 2"/><path stroke-linejoin="round" stroke-linecap="round" stroke-width="2" stroke="rgb(52, 58, 64)" fill="none" d="M 92 55 l 4 -7"/><path stroke-linejoin="round" stroke-linecap="round" stroke-width="2" stroke="rgb(52, 58, 64)" fill="none" d="M 113 64 c 0.23 -0.19 8.58 -8.06 13 -11 c 2.22 -1.48 6.24 -3.16 8 -3 c 1.03 0.09 1.82 3.08 3 4 c 1.58 1.23 4.22 3.2 6 3 c 5.8 -0.64 14.03 -3.61 21 -6 c 5.87 -2.01 11.36 -5.04 17 -7 c 1.87 -0.65 4.11 -1.11 6 -1 c 3.48 0.2 11 2 11 2"/><path stroke-linejoin="round" stroke-linecap="round" stroke-width="2" stroke="rgb(52, 58, 64)" fill="none" d="M 209 51 c -0.17 -0.11 -6.77 -3.75 -10 -6 c -4.54 -3.16 -8.81 -7.29 -13 -10 c -1.05 -0.68 -2.99 -0.37 -4 -1 c -1.39 -0.87 -2.57 -3.59 -4 -4 c -2.52 -0.72 -7.16 -0.57 -10 0 l -5 3"/><path stroke-linejoin="round" stroke-linecap="round" stroke-width="2" stroke="rgb(52, 58, 64)" fill="none" d="M 169 60 c 0.18 -0.19 7.04 -7.05 10 -11 c 4.03 -5.37 8.31 -11.14 11 -17 c 2.78 -6.04 4.49 -13.33 6 -20 c 0.8 -3.53 1.08 -10.39 1 -11 c -0.02 -0.2 -1.79 1.95 -2 3 c -1 4.99 -2 17 -2 17"/><path stroke-linejoin="round" stroke-linecap="round" stroke-width="2" stroke="rgb(52, 58, 64)" fill="none" d="M 213 57 c 0.11 -0.05 4.13 -1.78 6 -3 c 4.8 -3.12 9.57 -6.31 14 -10 c 5.65 -4.71 13.25 -13.84 16 -15 c 0.96 -0.4 3 5.51 3 7 c 0 0.7 -1.98 1.85 -3 2 c -3.1 0.44 -7.86 -0.7 -11 0 c -2.3 0.51 -4.97 2.4 -7 4 c -2.49 1.96 -4.9 4.52 -7 7 c -1.53 1.81 -4.4 5.7 -4 6 c 0.48 0.36 6.08 -1.44 8 -3 c 2.88 -2.34 8 -10 8 -10"/><path stroke-linejoin="round" stroke-linecap="round" stroke-width="2" stroke="rgb(52, 58, 64)" fill="none" d="M 95 17 l 1 1"/><path stroke-linejoin="round" stroke-linecap="round" stroke-width="2" stroke="rgb(52, 58, 64)" fill="none" d="M 338 67 c -0.21 0.05 -7.97 2.5 -12 3 c -6.52 0.82 -14.19 2.1 -20 1 c -5.45 -1.03 -12.24 -5.14 -17 -8 c -1.27 -0.76 -2.23 -2.58 -3 -4 c -1.18 -2.16 -3.2 -5 -3 -7 c 0.37 -3.66 3.66 -8.59 5 -13 c 0.98 -3.23 0.72 -7.09 2 -10 c 2.2 -4.99 5.81 -10.34 9 -15 c 1.03 -1.51 2.56 -2.88 4 -4 c 1.49 -1.16 3.31 -2.25 5 -3 c 1.19 -0.53 2.79 -1.1 4 -1 c 2.43 0.2 5.56 1.06 8 2 c 1.73 0.66 3.65 1.8 5 3 c 1.49 1.32 3.62 3.22 4 5 c 1.38 6.42 1.79 15.33 2 23 c 0.13 4.66 -0.31 9.33 -1 14 c -1 6.78 -2.36 13.43 -4 20 c -0.69 2.75 -1.75 5.41 -3 8 c -3.47 7.18 -11 21 -11 21"/><path stroke-linejoin="round" stroke-linecap="round" stroke-width="2" stroke="rgb(52, 58, 64)" fill="none" d="M 375 37 c -0.21 0.02 -8.49 0.18 -12 1 c -1.7 0.4 -3.79 1.7 -5 3 c -2.83 3.04 -5.82 7.3 -8 11 c -1.01 1.72 -1.16 5.44 -2 6 c -0.59 0.39 -3.08 -1.08 -4 -2 c -1.49 -1.49 -4.69 -5.23 -4 -6 c 1.3 -1.44 8.89 -2.36 13 -4 c 2.44 -0.97 4.91 -2.48 7 -4 c 1.47 -1.07 2.71 -2.56 4 -4 c 4.53 -5.06 9.26 -9.81 13 -15 c 2.1 -2.92 3.55 -6.56 5 -10 c 1.23 -2.92 2.88 -9.12 3 -9 c 0.13 0.13 -1.59 6.68 -2 10 c -0.24 1.95 -0.25 4.03 0 6 c 0.75 6 1.56 12.23 3 18 c 0.85 3.41 2.36 6.88 4 10 c 1.65 3.13 5.06 9.85 6 9 c 2.54 -2.27 8.19 -17.7 13 -26 c 2.48 -4.28 6.49 -9.87 9 -12 c 0.69 -0.58 3.79 0.15 4 1 c 1.19 4.75 1.04 15.32 2 23 c 0.38 3.07 1.1 6.3 2 9 c 0.35 1.06 1.19 2.33 2 3 c 1 0.84 2.99 2.13 4 2 c 1.12 -0.14 2.84 -1.84 4 -3 c 3.12 -3.12 6.69 -6.76 9 -10 c 0.71 -0.99 0.41 -2.96 1 -4 c 0.61 -1.07 2.11 -2.87 3 -3 c 0.93 -0.13 3.54 0.96 4 2 c 1.7 3.83 3.46 15.28 4 16 c 0.27 0.36 1.01 -5.82 2 -8 c 0.51 -1.12 2.39 -1.93 3 -3 c 0.59 -1.04 0.87 -4.24 1 -4 c 0.56 1.03 3.51 12.64 6 17 c 1 1.74 3.93 2.97 6 4 c 1.81 0.91 4.16 1.83 6 2 c 1.48 0.13 3.59 -0.27 5 -1 c 7.09 -3.68 14.85 -9.15 22 -13 c 1.15 -0.62 2.78 -1 4 -1 c 1.22 0 4.06 0.43 4 1 c -0.15 1.31 -3 6 -5 8 c -2 2 -5.42 4.14 -8 5 c -1.91 0.64 -5.09 0.68 -7 0 c -3.19 -1.12 -7.16 -3.69 -10 -6 c -2.25 -1.83 -6.79 -6.71 -6 -7 c 1.88 -0.7 14.72 1.32 22 1 c 8 -0.35 16.29 -1.46 24 -3 c 3.73 -0.75 8.12 -2.45 11 -4 c 0.89 -0.48 1.4 -1.95 2 -3 c 0.75 -1.31 2 -2.96 2 -4 c 0 -0.84 -1.22 -2.22 -2 -3 c -0.78 -0.78 -2.05 -1.89 -3 -2 c -1.61 -0.18 -4.32 0.33 -6 1 c -1.38 0.55 -3.19 1.78 -4 3 c -1.6 2.4 -3.03 5.94 -4 9 c -1 3.16 -2 7.18 -2 10 c 0 1.24 1.13 3.27 2 4 c 0.8 0.67 3.26 1.5 4 1 c 1.55 -1.03 3.63 -4.53 5 -7 c 1.93 -3.47 3.18 -8.04 5 -11 c 0.54 -0.88 2.24 -2.11 3 -2 c 1.05 0.15 3.59 1.73 4 3 c 1.82 5.68 2.26 15.29 4 22 c 0.45 1.75 1.96 5 3 5 c 1.84 0 6.64 -2.8 9 -5 c 6.5 -6.04 17.67 -20.06 19 -21 c 0.43 -0.31 -1.65 6.02 -2 9 c -0.3 2.59 -0.41 5.76 0 8 c 0.18 1.01 1.17 2.9 2 3 c 3.24 0.4 9.46 -0.35 14 -1 l 7 -2"/></svg>