<?xml version="1.0" encoding="UTF-8" standalone="no"?><!DOCTYPE svg PUBLIC "-//W3C//DTD SVG 1.1//EN" "http://www.w3.org/Graphics/SVG/1.1/DTD/svg11.dtd"><svg xmlns="http://www.w3.org/2000/svg" version="1.1" width="570" height="136"><path stroke-linejoin="round" stroke-linecap="round" stroke-width="2" stroke="rgb(52, 58, 64)" fill="none" d="M 1 51 c 0.05 0.7 1.64 26.67 3 40 c 0.31 3.06 1.58 5.92 2 9 c 0.92 6.7 1.01 13.54 2 20 c 0.31 2.03 2 6 2 6"/><path stroke-linejoin="round" stroke-linecap="round" stroke-width="2" stroke="rgb(52, 58, 64)" fill="none" d="M 14 89 l 1 -11"/><path stroke-linejoin="round" stroke-linecap="round" stroke-width="2" stroke="rgb(52, 58, 64)" fill="none" d="M 61 97 c 0.11 0.05 4.07 2.47 6 3 c 1.44 0.39 5 0 5 0"/><path stroke-linejoin="round" stroke-linecap="round" stroke-width="2" stroke="rgb(52, 58, 64)" fill="none" d="M 92 118 c -0.44 -0.09 -16.71 -2.7 -25 -5 c -16.05 -4.46 -44.67 -12.96 -47 -15 c -1.12 -0.98 15.53 -3.36 23 -6 c 9.58 -3.38 18.59 -7.53 28 -12 c 10.78 -5.12 20.48 -10.25 31 -16 c 7.7 -4.21 15.73 -7.75 22 -13 c 9.54 -7.99 25.92 -25.55 27 -28 c 0.45 -1.03 -11.16 1.24 -16 3 c -5.72 2.08 -11.33 5.71 -17 9 c -4.9 2.85 -10.05 5.59 -14 9 c -3.04 2.63 -5.54 6.52 -8 10 c -1.55 2.19 -3.54 4.69 -4 7 l 0 13"/><path stroke-linejoin="round" stroke-linecap="round" stroke-width="2" stroke="rgb(52, 58, 64)" fill="none" d="M 170 54 l 1 1"/><path stroke-linejoin="round" stroke-linecap="round" stroke-width="2" stroke="rgb(52, 58, 64)" fill="none" d="M 202 64 c -0.09 0.14 -3.06 5.51 -5 8 c -5.1 6.55 -16 19 -16 19"/><path stroke-linejoin="round" stroke-linecap="round" stroke-width="2" stroke="rgb(52, 58, 64)" fill="none" d="M 251 12 c -0.14 0.09 -5.17 3.67 -8 5 c -7.81 3.66 -16.08 6.23 -24 10 c -6.27 2.99 -12.23 6.28 -18 10 c -4.6 2.96 -8.81 6.44 -13 10 c -2.53 2.15 -7.51 5.89 -7 7 c 0.65 1.42 8.19 3.75 12 4 c 5.45 0.36 18 -2 18 -2"/><path stroke-linejoin="round" stroke-linecap="round" stroke-width="2" stroke="rgb(52, 58, 64)" fill="none" d="M 442 62 c -0.07 -0.19 -2.14 -8.12 -4 -11 c -1.47 -2.27 -4.8 -3.8 -7 -6 c -4.9 -4.9 -14 -15 -14 -15"/><path stroke-linejoin="round" stroke-linecap="round" stroke-width="2" stroke="rgb(52, 58, 64)" fill="none" d="M 428 5 c 0.11 0.23 4.31 8.46 6 13 c 4.75 12.74 13 38 13 38"/><path stroke-linejoin="round" stroke-linecap="round" stroke-width="2" stroke="rgb(52, 58, 64)" fill="none" d="M 487 1 c 0.02 0.09 0.38 3.52 1 5 c 0.97 2.34 3.01 4.52 4 7 c 4.32 10.79 7.61 21.7 12 33 c 4.59 11.84 8.98 22.9 14 34 c 1.29 2.85 2.95 5.84 5 8 c 3.69 3.9 13 11 13 11"/><path stroke-linejoin="round" stroke-linecap="round" stroke-width="2" stroke="rgb(52, 58, 64)" fill="none" d="M 359 76 c 1.94 -0.42 72.57 -15.24 111 -24 c 28.56 -6.51 54.65 -13.95 82 -20 c 4.23 -0.93 9.06 -0.3 13 -1 c 1.35 -0.24 4 -2 4 -2"/><path stroke-linejoin="round" stroke-linecap="round" stroke-width="2" stroke="rgb(52, 58, 64)" fill="none" d="M 220 48 c -0.12 0.03 -4.84 1.07 -7 2 c -2.39 1.03 -5.22 2.38 -7 4 c -1.59 1.45 -2.38 4.38 -4 6 c -3.51 3.51 -9.19 6.58 -12 10 c -1.31 1.59 -1.81 4.89 -2 7 c -0.11 1.2 0.44 2.87 1 4 c 0.68 1.37 1.72 3.5 3 4 c 5.26 2.06 13.1 3.69 20 5 c 14.58 2.78 28.79 4.27 43 7 c 3.09 0.6 6.16 1.78 9 3 c 1.75 0.75 5 1.99 5 3 c 0 1.63 -2.75 6.34 -5 8 c -8.02 5.9 -18.94 11.39 -29 17 c -4.68 2.61 -14 7 -14 7"/><path stroke-linejoin="round" stroke-linecap="round" stroke-width="2" stroke="rgb(52, 58, 64)" fill="none" d="M 271 92 c -0.05 0.04 -3.24 1.48 -3 2 c 0.8 1.75 5.26 6.26 8 9 c 0.82 0.82 1.99 1.84 3 2 c 2.81 0.43 7.01 0.75 10 0 c 5.78 -1.45 12.58 -4.29 18 -7 c 2.19 -1.1 4.16 -3.16 6 -5 c 2.84 -2.84 5.65 -5.94 8 -9 c 0.87 -1.14 2 -2.96 2 -4 c 0 -0.84 -1.71 -3.22 -2 -3 c -0.51 0.38 -1.86 4.12 -2 6 c -0.16 2.1 0.39 4.97 1 7 c 0.31 1.04 1.13 2.52 2 3 c 2.3 1.26 6.3 3 9 3 c 3.24 0 7.74 -1.7 11 -3 c 1.43 -0.57 3.03 -1.87 4 -3 c 0.87 -1.01 1.88 -2.75 2 -4 c 0.17 -1.69 -0.22 -4.59 -1 -6 c -0.64 -1.16 -3.06 -1.78 -4 -3 c -2.18 -2.84 -5.67 -7.66 -6 -10 c -0.16 -1.13 2.89 -2.52 4 -4 c 2.84 -3.78 5.75 -7.81 8 -12 c 2.38 -4.42 4.04 -12.49 6 -14 c 1.04 -0.8 5.25 2.19 7 4 c 8 8.26 15.63 19.15 24 28 c 3.23 3.41 7.12 6.14 11 9 c 3.93 2.91 7.84 5.92 12 8 c 4.29 2.15 9.27 3.77 14 5 c 4.19 1.09 8.63 1.69 13 2 c 4.98 0.36 10 0.34 15 0 c 4.71 -0.33 9.37 -1.01 14 -2 c 4.77 -1.02 9.72 -2.06 14 -4 c 6.45 -2.93 13.69 -7.01 19 -11 c 2.08 -1.56 3.71 -4.6 5 -7 c 0.95 -1.76 1.45 -3.92 2 -6 c 1.15 -4.38 2.29 -8.73 3 -13 l 0 -5"/></svg>