<?xml version="1.0" encoding="UTF-8" standalone="no"?><!DOCTYPE svg PUBLIC "-//W3C//DTD SVG 1.1//EN" "http://www.w3.org/Graphics/SVG/1.1/DTD/svg11.dtd"><svg xmlns="http://www.w3.org/2000/svg" version="1.1" width="578" height="118"><path stroke-linejoin="round" stroke-linecap="round" stroke-width="2" stroke="rgb(52, 58, 64)" fill="none" d="M 1 27 c 0.07 0.18 2.43 6.85 4 10 c 1.05 2.11 2.34 4.81 4 6 c 2.48 1.77 6.92 3.71 10 4 c 3.2 0.3 7.62 -0.79 11 -2 c 5.68 -2.03 11.7 -4.75 17 -8 c 9.31 -5.71 17.6 -12.81 27 -19 c 5.61 -3.7 11.21 -6.99 17 -10 c 2.51 -1.3 7.12 -3.51 8 -3 c 0.73 0.42 -0.45 4.78 -1 7 c -0.42 1.69 -1.16 3.45 -2 5 c -1.13 2.07 -2.86 3.86 -4 6 c -4.24 7.96 -8.55 15.67 -12 24 c -4.63 11.2 -9.02 22.71 -12 34 c -1.58 5.98 -2 13.06 -2 19 c 0 2.56 1.02 5.55 2 8 c 0.96 2.39 2.43 5.43 4 7 c 1.05 1.05 3.56 2.18 5 2 c 3.12 -0.39 8.2 -1.79 11 -4 c 10.49 -8.3 20.88 -19.73 32 -30 c 2.34 -2.16 4.59 -4.25 7 -6 c 1.17 -0.85 3.26 -2.25 4 -2 c 0.74 0.25 2.05 2.73 2 4 c -0.24 6.58 -3.21 17.62 -3 23 c 0.04 1.16 2.71 2.77 4 3 c 1.83 0.33 5 -0.14 7 -1 c 4.56 -1.96 9.23 -5.72 14 -8 c 2.81 -1.34 7.13 -3.31 9 -3 c 1.15 0.19 2.56 3.37 3 5 c 0.46 1.68 -0.37 4.15 0 6 c 0.58 2.92 1.31 8.1 3 9 c 2.14 1.14 8.52 0.16 12 -1 c 4.91 -1.64 10.26 -4.95 15 -8 c 4.57 -2.94 8.79 -6.46 13 -10 c 2.18 -1.83 3.85 -4.18 6 -6 c 2.18 -1.84 4.88 -3.09 7 -5 c 4.87 -4.4 9.43 -9.01 14 -14 c 6.72 -7.33 13.43 -14.36 19 -22 c 3.26 -4.47 6.76 -11.29 8 -15 c 0.26 -0.79 -1.47 -3.26 -2 -3 c -2.28 1.14 -8.59 6.29 -12 10 c -4.07 4.42 -7.56 9.7 -11 15 c -5.4 8.3 -10.37 16.37 -15 25 c -2.77 5.17 -5.18 10.54 -7 16 l -4 17"/><path stroke-linejoin="round" stroke-linecap="round" stroke-width="2" stroke="rgb(52, 58, 64)" fill="none" d="M 206 65 l 1 1"/><path stroke-linejoin="round" stroke-linecap="round" stroke-width="2" stroke="rgb(52, 58, 64)" fill="none" d="M 337 43 c 0.16 -0.07 6.85 -2.12 9 -4 c 2.66 -2.33 5.48 -6.62 7 -10 c 1.27 -2.83 2.19 -7.39 2 -10 c -0.09 -1.28 -1.9 -3.82 -3 -4 c -2.02 -0.34 -6.16 1.13 -9 2 c -1.38 0.42 -2.68 1.23 -4 2 c -5.17 2.99 -10.26 5.6 -15 9 c -5.96 4.29 -11.77 8.96 -17 14 c -4.05 3.9 -8.05 8.41 -11 13 c -2.87 4.46 -5.12 9.84 -7 15 c -2.12 5.82 -4.37 12.57 -5 18 c -0.28 2.4 1.06 5.49 2 8 c 1.02 2.73 2.43 5.84 4 8 c 0.88 1.21 2.59 2.41 4 3 c 2.33 0.97 5.36 1.69 8 2 c 2.88 0.34 6.26 0.63 9 0 c 5.48 -1.27 17 -6 17 -6"/><path stroke-linejoin="round" stroke-linecap="round" stroke-width="2" stroke="rgb(52, 58, 64)" fill="none" d="M 374 91 l 1 1"/><path stroke-linejoin="round" stroke-linecap="round" stroke-width="2" stroke="rgb(52, 58, 64)" fill="none" d="M 443 31 c 0.05 -0.04 2.25 -1.15 3 -2 c 3.69 -4.22 7.59 -9.27 11 -14 c 0.86 -1.19 1.59 -2.64 2 -4 c 0.55 -1.85 1 -4.15 1 -6 c 0 -1.25 -0.28 -3.59 -1 -4 c -1.05 -0.6 -4.37 -0.58 -6 0 c -2.56 0.91 -5.91 2.91 -8 5 c -4.89 4.89 -9.67 10.94 -14 17 c -7.52 10.53 -14.4 20.92 -21 32 c -3.86 6.47 -7.12 13.44 -10 20 c -0.66 1.5 -1.4 3.7 -1 5 c 0.74 2.4 2.77 6.71 5 8 c 5.24 3.02 21 7 21 7"/><path stroke-linejoin="round" stroke-linecap="round" stroke-width="2" stroke="rgb(52, 58, 64)" fill="none" d="M 490 56 c -0.07 0.03 -3.05 1.05 -4 2 c -2.73 2.73 -5.75 6.62 -8 10 c -0.95 1.42 -1.7 3.37 -2 5 c -0.33 1.82 -0.35 4.24 0 6 c 0.26 1.31 1.11 2.98 2 4 c 1.27 1.45 3.31 3.06 5 4 c 1.09 0.6 3.06 1.47 4 1 c 3.9 -1.95 9.95 -6.33 14 -10 c 2.69 -2.43 4.89 -5.84 7 -9 c 1.9 -2.85 3.57 -5.93 5 -9 c 0.88 -1.89 2.26 -5.34 2 -6 c -0.17 -0.43 -3.52 0.17 -4 1 c -1.33 2.28 -2.37 7.4 -3 11 c -0.33 1.89 -0.51 4.65 0 6 c 0.3 0.81 1.96 1.72 3 2 c 2.32 0.63 5.52 1.25 8 1 c 3.8 -0.38 8.3 -1.52 12 -3 c 4.42 -1.77 10.93 -6.7 13 -7 c 0.72 -0.1 1.37 3.59 1 5 c -1.4 5.36 -5.02 11.86 -7 18 c -1.37 4.24 -4.04 12.72 -3 13 c 1.34 0.37 9.83 -6.17 14 -10 c 7.72 -7.08 14.54 -15.81 22 -23 c 1.69 -1.63 5.53 -4.12 6 -4 c 0.35 0.09 -1.06 3.55 -2 5 c -3.26 5.02 -7.58 9.72 -11 15 l -11 19"/></svg>