<?xml version="1.0" encoding="UTF-8" standalone="no"?><!DOCTYPE svg PUBLIC "-//W3C//DTD SVG 1.1//EN" "http://www.w3.org/Graphics/SVG/1.1/DTD/svg11.dtd"><svg xmlns="http://www.w3.org/2000/svg" version="1.1" width="275" height="75"><path stroke-linejoin="round" stroke-linecap="round" stroke-width="2" stroke="rgb(52, 58, 64)" fill="none" d="M 1 1 l 1 1"/><path stroke-linejoin="round" stroke-linecap="round" stroke-width="2" stroke="rgb(52, 58, 64)" fill="none" d="M 39 12 l 1 1"/><path stroke-linejoin="round" stroke-linecap="round" stroke-width="2" stroke="rgb(52, 58, 64)" fill="none" d="M 80 16 c -0.07 0.03 -2.91 1.09 -4 2 c -4.67 3.89 -9.1 9.27 -14 13 c -3.21 2.44 -7.23 4.3 -11 6 c -2.86 1.29 -6.29 1.75 -9 3 c -1.43 0.66 -2.92 1.8 -4 3 c -4.44 4.96 -12.78 14.59 -13 16 c -0.12 0.78 7.47 -1.76 11 -3 c 2.07 -0.73 4.07 -2.93 6 -3 c 5.77 -0.22 20 2 20 2"/><path stroke-linejoin="round" stroke-linecap="round" stroke-width="2" stroke="rgb(52, 58, 64)" fill="none" d="M 82 56 l 6 0"/><path stroke-linejoin="round" stroke-linecap="round" stroke-width="2" stroke="rgb(52, 58, 64)" fill="none" d="M 102 56 c 0.21 -0.3 11.74 -16.74 12 -17 c 0.14 -0.14 -3.83 6.69 -5 10 c -0.74 2.09 -1.47 5.59 -1 7 c 0.3 0.89 2.7 1.71 4 2 c 1.46 0.32 3.44 0.31 5 0 c 3.25 -0.65 9.59 -3 10 -3 c 0.2 0 -3.5 1.8 -4 3 c -0.9 2.17 -0.11 6.68 -1 9 c -0.56 1.45 -3.04 4.26 -4 4 c -1.67 -0.46 -4.99 -4.49 -7 -7 c -1.91 -2.39 -3.16 -5.55 -5 -8 c -1.1 -1.47 -4.42 -3.86 -4 -4 c 0.98 -0.33 8.91 1.19 13 1 l 8 -2"/><path stroke-linejoin="round" stroke-linecap="round" stroke-width="2" stroke="rgb(52, 58, 64)" fill="none" d="M 140 50 c 0.23 -0.14 8.47 -5.56 13 -8 c 4.24 -2.29 10.36 -6.66 13 -6 c 2.4 0.6 4.26 8.58 7 11 c 2.27 2 7.32 4.5 10 4 c 4.79 -0.89 16.67 -8.93 17 -9 c 0.25 -0.05 -7.86 5.74 -12 8 c -3.09 1.69 -9.65 4 -10 4 c -0.21 0 3.53 -2.47 5 -4 c 5.84 -6.11 13.92 -17.24 17 -19 c 0.97 -0.56 3.1 4.61 4 7 c 1.02 2.73 0.48 6.72 2 9 c 5.15 7.72 13.95 17.7 20 24 c 0.8 0.83 4.09 0.73 4 1 c -0.12 0.36 -5.08 2.05 -5 2 c 0.27 -0.17 10.87 -5.54 16 -9 c 11.41 -7.68 33 -24 33 -24"/></svg>