<?xml version="1.0" encoding="UTF-8" standalone="no"?><!DOCTYPE svg PUBLIC "-//W3C//DTD SVG 1.1//EN" "http://www.w3.org/Graphics/SVG/1.1/DTD/svg11.dtd"><svg xmlns="http://www.w3.org/2000/svg" version="1.1" width="529" height="119"><path stroke-linejoin="round" stroke-linecap="round" stroke-width="2" stroke="rgb(52, 58, 64)" fill="none" d="M 517 63 c 0.02 -0.17 0.32 -6.7 1 -10 c 2.35 -11.48 5.83 -22.88 8 -34 c 0.43 -2.23 -0.26 -4.7 0 -7 c 0.41 -3.67 2 -11 2 -11"/><path stroke-linejoin="round" stroke-linecap="round" stroke-width="2" stroke="rgb(52, 58, 64)" fill="none" d="M 299 57 l 1 1"/><path stroke-linejoin="round" stroke-linecap="round" stroke-width="2" stroke="rgb(52, 58, 64)" fill="none" d="M 35 56 c -0.05 -0.09 -1.78 -3.78 -3 -5 c -1.22 -1.22 -3.24 -2.33 -5 -3 c -5.07 -1.93 -11.26 -4.38 -16 -5 c -2.06 -0.27 -5.54 0.83 -7 2 c -1.35 1.08 -2.77 4.08 -3 6 c -0.37 3.16 0.3 7.49 1 11 c 0.6 3.02 1.58 6.27 3 9 c 3.15 6.08 7.06 12.21 11 18 c 1.72 2.53 3.81 5.14 6 7 c 1.92 1.62 4.66 3.27 7 4 c 2.63 0.82 6.13 1.14 9 1 c 3.55 -0.18 7.33 -1.13 11 -2 c 3.43 -0.82 6.86 -1.64 10 -3 c 4.43 -1.93 9.56 -3.9 13 -7 c 9.23 -8.31 18.89 -19.03 27 -29 c 3.3 -4.06 7.48 -15 8 -14 c 1.2 2.3 2.49 24.64 4 37 c 0.17 1.37 0.33 3.2 1 4 c 0.73 0.87 3.45 2.66 4 2 c 6.4 -7.72 20.2 -29.74 30 -43 c 0.93 -1.26 2.78 -2.7 4 -3 c 1 -0.25 3.94 0.18 4 1 c 0.58 7.56 -1.23 25.28 -1 38 c 0.11 6.06 1.03 12.17 2 18 c 0.34 2.04 0.95 4.79 2 6 c 0.9 1.03 3.91 2.54 5 2 c 3 -1.5 8.14 -6.34 11 -10 c 2.84 -3.63 5.37 -8.65 7 -13 c 1.24 -3.3 0.95 -7.84 2 -11 c 0.47 -1.42 2.14 -3.71 3 -4 c 0.62 -0.21 2.53 1.18 3 2 c 0.66 1.16 0.38 3.6 1 5 l 3 4"/><path stroke-linejoin="round" stroke-linecap="round" stroke-width="2" stroke="rgb(52, 58, 64)" fill="none" d="M 250 73 c -0.17 0.12 -7.11 4.59 -10 7 c -0.85 0.71 -2 2.21 -2 3 c 0 0.79 1.27 2.91 2 3 c 1.28 0.16 4.31 -1.02 6 -2 c 2.08 -1.21 3.84 -4.03 6 -5 c 4.03 -1.81 9.6 -2.32 14 -4 c 2.43 -0.93 4.71 -3.43 7 -4 c 2.55 -0.64 6.06 0.39 9 0 c 6.97 -0.93 14.5 -3.57 21 -4 c 2.8 -0.19 6.56 0.98 9 2 c 1.12 0.47 3 1.99 3 3 c 0 3.42 -3.65 10.76 -3 14 c 0.42 2.08 4.83 3.83 7 6 c 2.17 2.17 5.11 4.57 6 7 c 1.17 3.17 1.2 8.28 1 12 c -0.12 2.25 -2.53 7.13 -2 7 c 1.25 -0.31 9.94 -6.31 14 -10 c 3.03 -2.75 5.04 -7.04 8 -10 c 3.28 -3.28 7.57 -5.74 11 -9 c 3.25 -3.09 5.59 -7.53 9 -10 c 5.78 -4.19 13.86 -8.3 20 -11 c 1.35 -0.59 3.62 -0.52 5 0 c 3.45 1.3 9.26 3.54 11 6 c 1.53 2.17 1.26 7.48 1 11 c -0.38 5.18 -3 12.06 -3 16 c 0 1.03 2 3.05 3 3 c 3.87 -0.2 10.73 -3.25 16 -4 c 3.83 -0.55 8.5 -0.91 12 0 c 4.83 1.25 10.07 5.48 15 7 l 11 1"/></svg>