<?xml version="1.0" encoding="UTF-8" standalone="no"?><!DOCTYPE svg PUBLIC "-//W3C//DTD SVG 1.1//EN" "http://www.w3.org/Graphics/SVG/1.1/DTD/svg11.dtd"><svg xmlns="http://www.w3.org/2000/svg" version="1.1" width="676" height="122"><path stroke-linejoin="round" stroke-linecap="round" stroke-width="2" stroke="rgb(52, 58, 64)" fill="none" d="M 1 26 c 0.18 0.04 6.86 2 10 2 c 3.44 0 7.76 -0.68 11 -2 c 5.32 -2.17 15.2 -9.69 16 -9 c 0.77 0.66 -6.71 9.82 -9 15 c -2.6 5.9 -4.41 12.65 -6 19 c -0.72 2.88 -0.92 5.94 -1 9 c -0.26 9.45 0.07 27.44 0 28 c -0.03 0.22 -2 -7.44 -2 -11 c 0 -6.08 0.71 -12.88 2 -19 c 1.34 -6.39 3.39 -13.22 6 -19 c 1.89 -4.19 5.05 -8.46 8 -12 c 1.89 -2.26 4.76 -4.88 7 -6 c 1.21 -0.61 3.77 -0.46 5 0 c 1.04 0.39 2.26 1.89 3 3 c 1.17 1.75 2.27 3.94 3 6 c 0.9 2.53 2.09 5.48 2 8 c -0.22 6.19 -1.42 13.5 -3 20 c -1.73 7.11 -6.43 19.94 -7 21 c -0.16 0.29 -1.23 -4.12 -1 -6 c 1.03 -8.48 2.72 -18.55 5 -27 c 0.93 -3.44 3.12 -6.75 5 -10 c 1.82 -3.15 3.76 -6.25 6 -9 c 2.05 -2.52 4.52 -4.9 7 -7 c 1.81 -1.53 3.97 -3.36 6 -4 c 2.84 -0.89 7.79 -2.11 10 -1 c 3.27 1.64 7.86 7.26 10 11 c 1.47 2.57 1.7 6.67 2 10 c 0.36 3.92 0.64 8.12 0 12 c -2.65 16.17 -9.85 48.14 -10 49 l 3 -8"/><path stroke-linejoin="round" stroke-linecap="round" stroke-width="2" stroke="rgb(52, 58, 64)" fill="none" d="M 123 76 c 0.09 -0.17 3.67 -6.67 5 -10 c 0.61 -1.52 0.83 -3.34 1 -5 c 0.16 -1.63 0.3 -3.49 0 -5 c -0.32 -1.62 -1.02 -4.16 -2 -5 c -0.93 -0.79 -3.47 -1 -5 -1 c -1.24 0 -2.98 0.32 -4 1 c -2.63 1.75 -5.97 4.39 -8 7 c -2.39 3.07 -4.52 7.29 -6 11 c -1.09 2.73 -1.81 6.17 -2 9 c -0.12 1.86 0.17 5.52 1 6 c 0.87 0.49 4.63 -0.86 6 -2 c 2.17 -1.81 4.68 -5.22 6 -8 c 1.5 -3.17 2.53 -7.38 3 -11 c 0.5 -3.81 -0.07 -12.23 0 -12 c 0.17 0.53 3.07 18.89 5 28 c 0.37 1.72 1.21 3.43 2 5 c 0.53 1.05 1.27 2.91 2 3 c 1.28 0.16 4.74 -0.86 6 -2 c 1.61 -1.45 2.94 -4.53 4 -7 c 3.96 -9.23 7.04 -18.77 11 -28 c 1.06 -2.47 2.44 -4.87 4 -7 c 2.06 -2.81 4.96 -6.7 7 -8 c 0.79 -0.5 3.2 0.33 4 1 c 0.87 0.73 1.97 2.68 2 4 c 0.27 13.91 -1.27 33.09 -1 47 c 0.03 1.32 1.54 4 2 4 l 2 -4"/><path stroke-linejoin="round" stroke-linecap="round" stroke-width="2" stroke="rgb(52, 58, 64)" fill="none" d="M 207 82 c -0.02 -0.35 -0.25 -13.96 -1 -20 c -0.17 -1.35 -1.16 -2.88 -2 -4 c -1.07 -1.42 -2.67 -3.8 -4 -4 c -2.17 -0.33 -6.4 0.84 -9 2 c -3.05 1.36 -6.67 3.56 -9 6 c -4.31 4.52 -9.33 11.11 -12 16 c -0.8 1.47 -0.46 4.32 0 6 c 0.44 1.63 1.95 4.4 3 5 c 0.74 0.43 2.91 -0.4 4 -1 c 1.69 -0.94 3.41 -2.53 5 -4 c 2.81 -2.59 5.74 -5.17 8 -8 c 1.61 -2.02 2.69 -4.56 4 -7 c 1.09 -2.03 2.32 -3.95 3 -6 c 0.94 -2.82 1.75 -9.37 2 -9 c 0.5 0.75 2 12.25 4 18 c 3.64 10.48 9.2 20.54 13 31 c 1.51 4.15 2.29 8.73 3 13 c 0.27 1.6 0.54 5.06 0 5 c -1.18 -0.13 -6.84 -3.84 -9 -6 c -1.08 -1.08 -1.61 -3.31 -2 -5 c -0.58 -2.53 -1 -5.44 -1 -8 c 0 -1.93 0.39 -4.17 1 -6 c 0.67 -2.02 1.64 -4.44 3 -6 c 3.02 -3.46 7.08 -7.23 11 -10 c 3.89 -2.76 8.59 -4.91 13 -7 c 1.89 -0.9 4.05 -1.64 6 -2 c 1.55 -0.28 3.56 -0.39 5 0 c 1.93 0.53 5.01 1.57 6 3 c 1.54 2.22 2.76 9.76 3 10 c 0.16 0.16 0.24 -4.69 0 -7 c -0.42 -4.01 -0.56 -8.8 -2 -12 c -1.26 -2.79 -4.68 -6.1 -7 -8 c -0.9 -0.74 -2.87 -1.24 -4 -1 c -2.95 0.63 -7.18 2.31 -10 4 c -1.85 1.11 -3.53 3.2 -5 5 c -1.5 1.83 -2.94 3.88 -4 6 c -1.91 3.82 -3.58 7.98 -5 12 c -0.56 1.58 -1.16 3.6 -1 5 c 0.14 1.23 1.1 3.35 2 4 c 1.03 0.74 3.6 1.16 5 1 c 1.23 -0.14 2.88 -1.16 4 -2 c 1.42 -1.07 3.04 -2.51 4 -4 c 1.9 -2.95 4.13 -6.63 5 -10 c 1.34 -5.16 0.62 -14.69 2 -17 c 0.59 -0.98 5.01 1 7 2 c 1.75 0.88 3.72 2.46 5 4 c 1.89 2.26 4 5.24 5 8 c 1.52 4.19 2.46 9.36 3 14 c 0.45 3.89 -0.23 8.07 0 12 c 0.1 1.67 0.3 3.73 1 5 c 0.78 1.41 2.75 4.07 4 4 c 3.08 -0.18 9.32 -2.76 13 -5 c 3.55 -2.16 7.54 -5.73 10 -9 c 2.21 -2.94 4.14 -7.79 5 -11 c 0.29 -1.1 -0.39 -3.08 -1 -4 c -0.54 -0.8 -2.17 -2.09 -3 -2 c -1.55 0.17 -4.15 1.82 -6 3 c -1.76 1.12 -3.64 2.45 -5 4 c -3.18 3.63 -7.1 7.89 -9 12 c -1.81 3.92 -3 10.89 -3 14 c 0 0.78 1.97 1.61 3 2 c 1.46 0.55 3.52 1.13 5 1 c 1.84 -0.17 4.24 -1.05 6 -2 c 2.4 -1.29 4.96 -3.1 7 -5 c 2.53 -2.34 5.38 -5.07 7 -8 c 3.48 -6.3 6.32 -13.84 9 -21 c 1.34 -3.57 2.45 -7.31 3 -11 c 0.77 -5.19 0.84 -10.5 1 -16 c 0.18 -6.17 0.42 -12.11 0 -18 c -0.24 -3.34 -2 -10.18 -2 -10 c 0 0.42 1.78 15.8 2 24 c 0.47 17.71 -0.3 34.95 0 52 l 1 5"/><path stroke-linejoin="round" stroke-linecap="round" stroke-width="2" stroke="rgb(52, 58, 64)" fill="none" d="M 285 65 c 0.31 0.02 12.03 1.33 18 1 c 11.99 -0.67 36 -4 36 -4"/><path stroke-linejoin="round" stroke-linecap="round" stroke-width="2" stroke="rgb(52, 58, 64)" fill="none" d="M 350 39 c 0.02 0.35 1.15 13.29 1 20 c -0.18 8.07 -0.45 16.41 -2 24 c -1.37 6.68 -5.49 17.28 -7 20 c -0.26 0.46 -2.66 -1.15 -3 -2 c -0.76 -1.9 -0.91 -5.29 -1 -8 c -0.25 -7.39 -0.53 -14.61 0 -22 c 0.82 -11.51 1.9 -23.28 4 -34 c 0.8 -4.07 2.97 -8.28 5 -12 c 1.91 -3.49 4.45 -6.77 7 -10 c 2.52 -3.19 5.13 -6.66 8 -9 c 2.14 -1.73 5.33 -3.11 8 -4 c 2.11 -0.7 5.44 -1.57 7 -1 c 1.41 0.51 3.88 3.5 4 5 c 0.15 2 -1.49 6.07 -3 8 c -1.77 2.25 -5.14 4.31 -8 6 c -6.14 3.64 -15.95 9.08 -19 10 c -0.59 0.18 -1.59 -3.54 -1 -4 c 1.48 -1.15 6.9 -2.61 10 -3 c 1.81 -0.23 4.17 0.39 6 1 c 2.02 0.67 4.66 1.57 6 3 c 2.88 3.08 6.34 7.79 8 12 c 3.1 7.86 5.17 17.31 7 26 c 0.82 3.89 1 8.03 1 12 c 0 3.31 -0.33 6.8 -1 10 c -0.64 3.02 -1.78 6.16 -3 9 c -0.75 1.75 -1.8 3.65 -3 5 c -1.32 1.49 -3.33 3.44 -5 4 c -1.83 0.61 -4.79 0.32 -7 0 c -2.3 -0.33 -5.01 -0.88 -7 -2 c -5.31 -3 -11.19 -6.96 -16 -11 c -3.34 -2.8 -6.36 -6.43 -9 -10 c -2.99 -4.05 -5.88 -8.76 -8 -13 c -0.71 -1.42 -1.42 -4.79 -1 -5 c 0.48 -0.24 3.5 1.8 5 3 c 3.45 2.76 6.43 6.32 10 9 c 4.42 3.32 9.18 6.11 14 9 c 1.94 1.17 4.03 2.65 6 3 c 3.23 0.57 7.77 0.57 11 0 c 1.97 -0.35 4.3 -1.76 6 -3 c 1.8 -1.31 3.38 -3.22 5 -5 c 1.79 -1.96 3.59 -3.84 5 -6 c 2.9 -4.47 5.06 -9.49 8 -14 c 2.08 -3.19 4.67 -6.88 7 -9 c 0.84 -0.77 3 -1.25 4 -1 c 1.22 0.3 3.54 1.85 4 3 c 0.64 1.6 0.24 4.67 0 7 c -0.77 7.4 -2.5 14.99 -3 22 c -0.14 1.92 0.45 4.15 1 6 c 0.41 1.36 1.12 3.12 2 4 c 0.88 0.88 2.77 1.86 4 2 c 1.4 0.16 3.79 -0.15 5 -1 c 3.85 -2.72 8.74 -6.93 12 -11 c 4.5 -5.62 8.57 -12.6 12 -19 c 1.45 -2.7 3.15 -9.07 3 -9 c -0.17 0.09 -3.71 6.55 -5 10 c -1.68 4.49 -3.39 9.4 -4 14 c -0.67 5.06 -1.31 13.04 0 16 c 0.68 1.52 6.37 2.86 8 2 c 2.81 -1.49 7.36 -7.17 9 -11 c 1.99 -4.65 3.19 -12.19 3 -17 c -0.1 -2.49 -2.34 -5.84 -4 -8 c -1.45 -1.88 -3.89 -3.7 -6 -5 c -2.06 -1.27 -4.74 -2.48 -7 -3 c -1.78 -0.41 -4.32 -0.46 -6 0 c -1.63 0.44 -5 1.99 -5 3 c 0 1.63 2.97 6.26 5 8 c 2.12 1.82 5.95 3.13 9 4 c 3.76 1.08 7.98 1.68 12 2 c 4.3 0.34 8.7 0.34 13 0 c 4.02 -0.32 8.37 -0.7 12 -2 c 5.34 -1.91 11.76 -5.1 16 -8 c 1.38 -0.94 2.25 -3.31 3 -5 c 0.53 -1.19 1 -2.78 1 -4 c 0 -1.22 -0.77 -4 -1 -4 c -0.23 0 -0.91 2.67 -1 4 c -0.23 3.22 -0.28 6.67 0 10 c 0.39 4.71 0.48 10.04 2 14 c 1.55 4.04 5.16 8.72 8 12 c 1.15 1.33 3.31 2.44 5 3 c 2.05 0.68 4.91 1.26 7 1 c 2.81 -0.35 6.84 -1.51 9 -3 c 1.64 -1.13 3.11 -3.87 4 -6 c 2.34 -5.61 4.82 -12.58 6 -18 c 0.32 -1.46 -0.95 -5.16 -1 -5 c -0.11 0.34 -1 7.42 -1 11 c 0 2.29 0.38 4.77 1 7 c 1.02 3.69 2.31 7.61 4 11 c 1.56 3.13 3.64 7.23 6 9 c 2.28 1.71 7.13 2.81 10 3 c 1.48 0.1 3.87 -1.02 5 -2 c 1.22 -1.07 2.35 -3.26 3 -5 c 1.28 -3.41 2.62 -7.55 3 -11 c 0.24 -2.14 -0.83 -6.75 -1 -7 c -0.1 -0.15 -1.43 3.13 -1 4 c 0.89 1.79 3.91 4.48 6 6 c 1.33 0.97 3.38 1.68 5 2 c 1.51 0.3 3.45 0.28 5 0 c 1.95 -0.36 4.19 -1.09 6 -2 c 2.07 -1.03 4.3 -2.4 6 -4 c 4.16 -3.93 9.49 -11.33 12 -13 c 0.6 -0.4 2.46 1.92 3 3 c 0.65 1.3 0.83 3.3 1 5 c 0.5 5.02 1 9.94 1 15 c 0 6.41 -1.24 13.7 -1 19 c 0.05 1 1.78 3.35 2 3 c 1.58 -2.55 7.47 -15.69 11 -24 c 2.29 -5.38 3.78 -10.82 6 -16 c 0.76 -1.77 1.86 -3.67 3 -5 c 0.71 -0.82 2.08 -1.87 3 -2 c 1.05 -0.15 3.16 0.23 4 1 c 2.33 2.12 5.36 5.72 7 9 c 5.8 11.6 10.45 25.9 16 37 c 0.97 1.95 3.25 3.64 5 5 l 4 2"/></svg>