<?xml version="1.0" encoding="UTF-8" standalone="no"?><!DOCTYPE svg PUBLIC "-//W3C//DTD SVG 1.1//EN" "http://www.w3.org/Graphics/SVG/1.1/DTD/svg11.dtd"><svg xmlns="http://www.w3.org/2000/svg" version="1.1" width="632" height="155"><path stroke-linejoin="round" stroke-linecap="round" stroke-width="2" stroke="rgb(52, 58, 64)" fill="none" d="M 11 1 c 0.16 0.67 6.25 24.95 9 38 c 1.35 6.43 2.14 12.44 3 19 c 0.86 6.52 1.81 12.68 2 19 c 0.15 4.97 -0.12 10.25 -1 15 c -0.74 4 -2.15 8.86 -4 12 c -1.14 1.94 -3.92 3.79 -6 5 c -1.69 0.98 -4.24 2 -6 2 c -1.76 0 -5.24 -0.81 -6 -2 c -1.08 -1.7 -1.5 -6.68 -1 -9 c 0.35 -1.64 2.49 -3.79 4 -5 c 1.58 -1.26 3.99 -2.42 6 -3 c 2.42 -0.69 5.66 -1.52 8 -1 c 5.87 1.3 12.62 5.26 19 7 c 4.45 1.21 10.11 2.37 14 2 c 2.22 -0.21 5.55 -2.22 7 -4 c 2.41 -2.96 4.4 -7.9 6 -12 c 1.36 -3.48 2.59 -7.32 3 -11 c 0.9 -8.08 1.4 -16.91 1 -25 c -0.25 -4.94 -1.42 -10.43 -3 -15 c -1.3 -3.75 -3.54 -8.38 -6 -11 c -2.02 -2.16 -6.1 -4.15 -9 -5 c -2.25 -0.66 -5.74 -0.6 -8 0 c -2.28 0.61 -5.32 2.32 -7 4 c -1.97 1.97 -3.52 5.21 -5 8 c -1.54 2.91 -3.38 6.08 -4 9 c -0.63 2.97 -0.18 6.63 0 10 c 0.16 3.05 -0.09 6.59 1 9 c 1.63 3.63 4.99 8.78 8 11 c 2.52 1.86 7.62 3 11 3 c 4.25 0 9.79 -1.35 14 -3 c 4.74 -1.86 9.65 -4.94 14 -8 c 4.59 -3.23 9.65 -6.85 13 -11 c 4.59 -5.69 9.53 -14.17 12 -20 c 0.64 -1.52 -0.21 -5.66 -1 -6 c -0.87 -0.37 -4.83 1.59 -6 3 c -1.72 2.07 -3.27 5.96 -4 9 c -1.19 4.97 -1.73 10.59 -2 16 c -0.4 8.06 -0.45 16.09 0 24 c 0.21 3.68 0.9 7.69 2 11 c 0.8 2.39 3.4 7.6 4 7 c 1.63 -1.63 7.26 -13.1 9 -20 c 5.76 -22.77 13.3 -72.05 14 -71 c 0.84 1.25 -3.83 83.21 -4 86 c -0.01 0.13 -1.22 -2.81 -1 -4 c 0.98 -5.38 3.03 -12.09 5 -18 c 1.04 -3.12 2.35 -6.44 4 -9 c 1.18 -1.84 3.25 -4.38 5 -5 c 2.22 -0.79 6.9 -0.81 9 0 c 1.5 0.58 3.25 3.24 4 5 c 1.09 2.54 2 6.13 2 9 c 0 5.03 -1.01 11.06 -2 16 c -0.27 1.37 -1.25 2.69 -2 4 c -0.6 1.05 -1.96 3.17 -2 3 c -0.09 -0.34 0.25 -4.82 1 -7 c 5.12 -14.8 12.09 -29.81 17 -45 c 2.08 -6.44 3.75 -20.71 4 -20 c 0.64 1.8 5.55 34.13 7 51 c 0.53 6.24 -0.31 12.79 -1 19 c -0.3 2.69 -1.15 5.45 -2 8 c -0.46 1.38 -1.33 3.73 -2 4 c -0.54 0.22 -2.84 -1.15 -3 -2 c -0.62 -3.31 -0.55 -9.59 0 -14 c 0.41 -3.29 1.64 -6.94 3 -10 c 1.23 -2.76 3.06 -5.74 5 -8 c 1.9 -2.21 4.59 -4.52 7 -6 c 1.65 -1.02 4.17 -2 6 -2 c 2.67 0 7.31 0.42 9 2 c 2.46 2.3 5.07 8.3 6 12 c 0.56 2.23 -0.2 5.59 -1 8 c -1.43 4.29 -3.82 9.12 -6 13 c -0.65 1.15 -2.53 3.12 -3 3 c -0.46 -0.11 -1.42 -2.97 -1 -4 c 2.63 -6.47 7.79 -15.15 12 -23 c 0.95 -1.76 1.74 -3.65 3 -5 c 2.9 -3.12 8.09 -8.04 10 -9 c 0.51 -0.26 1.93 1.98 2 3 c 0.51 7.38 -0.49 17.62 0 26 c 0.16 2.66 1.03 5.67 2 8 c 0.59 1.41 2.01 3.75 3 4 c 1.07 0.27 3.76 -1.01 5 -2 c 1.8 -1.44 3.86 -3.81 5 -6 c 2.69 -5.15 5.21 -11.39 7 -17 c 0.79 -2.46 0.98 -8.14 1 -8 c 0.03 0.28 -0.39 10.74 0 16 c 0.27 3.68 0.81 7.77 2 11 c 1 2.72 3.04 6.2 5 8 c 1.59 1.45 5.44 3.66 7 3 l 12 -11"/><path stroke-linejoin="round" stroke-linecap="round" stroke-width="2" stroke="rgb(52, 58, 64)" fill="none" d="M 216 31 c 0.07 0.02 2.77 1.13 4 1 c 4.57 -0.48 10.26 -1.42 15 -3 c 7.09 -2.36 13.78 -6.24 21 -9 c 4.3 -1.64 8.56 -2.89 13 -4 c 3.65 -0.91 7.91 -2.33 11 -2 c 2.48 0.26 6.24 2.24 8 4 c 1.76 1.76 3.5 5.28 4 8 c 1.69 9.18 3 20.05 3 30 c 0 12.25 -1.5 24.54 -3 37 c -0.87 7.17 -2.7 18.4 -4 21 c -0.35 0.71 -4.14 -1.66 -5 -3 c -1.73 -2.7 -3.25 -7.25 -4 -11 c -1.87 -9.37 -3.36 -19.43 -4 -29 c -0.35 -5.24 0.33 -10.65 1 -16 c 0.68 -5.43 1.51 -10.87 3 -16 c 1.48 -5.09 3.57 -10.31 6 -15 c 2.17 -4.19 4.92 -8.75 8 -12 c 2.91 -3.06 7.51 -7.16 11 -8 c 3.63 -0.87 10.5 0.76 14 2 c 1.24 0.44 2.58 2.56 3 4 c 1.71 5.88 3.83 13.71 4 20 c 0.14 5.32 -1.47 11.56 -3 17 c -1.43 5.09 -4.22 9.85 -6 15 c -1.26 3.63 -2.37 7.4 -3 11 c -0.33 1.89 -0.69 4.77 0 6 c 0.67 1.2 3.34 2.69 5 3 c 3.13 0.59 7.43 -0.43 11 0 c 4.64 0.56 9.58 1.53 14 3 c 4.42 1.47 9.61 3.38 13 6 c 3.37 2.6 7.62 7.26 9 11 c 1.56 4.22 1.75 11.2 1 16 c -0.8 5.12 -3.33 11.22 -6 16 c -3.47 6.21 -8.67 13.67 -13 18 c -1.42 1.42 -6.01 2.62 -7 2 c -0.96 -0.6 -1.5 -5.01 -1 -7 c 1.3 -5.18 4.16 -11.59 7 -17 c 4.16 -7.93 8.95 -15.26 14 -23 c 5.25 -8.05 10.15 -15.44 16 -23 c 10.54 -13.61 30.74 -37.65 32 -39 c 0.21 -0.23 -3.33 5.82 -3 8 c 0.51 3.43 3.26 9.65 6 12 c 3.3 2.83 9.9 4.69 15 6 c 7.68 1.97 15.84 3.47 24 4 c 33.23 2.16 64.52 2.86 99 4 c 28.55 0.95 82 2 82 2"/></svg>