<?xml version="1.0" encoding="UTF-8" standalone="no"?><!DOCTYPE svg PUBLIC "-//W3C//DTD SVG 1.1//EN" "http://www.w3.org/Graphics/SVG/1.1/DTD/svg11.dtd"><svg xmlns="http://www.w3.org/2000/svg" version="1.1" width="415" height="86"><path stroke-linejoin="round" stroke-linecap="round" stroke-width="2" stroke="rgb(52, 58, 64)" fill="none" d="M 31 20 c 0.04 0.51 1.52 19.06 2 29 c 0.2 4.1 0.24 8.14 0 12 c -0.08 1.33 -1 4.08 -1 4 c 0 -0.27 0.01 -9.62 1 -14 c 1.27 -5.63 3.32 -11.95 6 -17 c 2.77 -5.21 6.86 -10.86 11 -15 c 3.83 -3.83 10.22 -8.41 14 -10 c 1.18 -0.5 3.76 1.11 5 2 c 0.83 0.59 2.17 2.23 2 3 c -0.34 1.54 -2.5 4.17 -4 6 c -1.47 1.8 -3.16 3.55 -5 5 c -4.48 3.54 -9.16 7.21 -14 10 c -3.66 2.11 -8.02 3.86 -12 5 c -2.77 0.79 -9 0.56 -9 1 c 0 0.46 6.15 1.65 9 3 c 9.15 4.32 18.04 10.76 27 14 c 5.96 2.16 13.73 3.16 20 3 c 6.02 -0.15 14.1 -1.74 19 -4 c 2.69 -1.24 5.2 -5.15 7 -8 c 2.05 -3.24 3.63 -7.23 5 -11 c 1.29 -3.56 2.48 -7.38 3 -11 c 0.45 -3.17 0.65 -7.09 0 -10 c -0.58 -2.6 -2.24 -5.97 -4 -8 c -2.24 -2.59 -5.98 -5.73 -9 -7 c -2.66 -1.12 -6.74 -1.13 -10 -1 c -5.24 0.2 -10.83 0.78 -16 2 c -7.4 1.75 -14.95 4.08 -22 7 c -6.55 2.72 -12.83 6.19 -19 10 c -9.72 6 -19.67 12.34 -28 19 c -2.81 2.24 -5.66 5.99 -7 9 c -1.06 2.39 -1.17 6.19 -1 9 c 0.15 2.56 0.92 6.2 2 8 c 0.58 0.97 2.71 2 4 2 c 6.66 0 15.06 -1.16 23 -2 c 8.32 -0.88 15.94 -1.55 24 -3 c 8.89 -1.6 17.49 -3.39 26 -6 c 7.88 -2.41 15.31 -5.63 23 -9 c 6.26 -2.75 11.93 -5.69 18 -9 c 9.05 -4.94 25.43 -15.19 26 -15 c 0.5 0.17 -13.74 10.94 -20 17 c -4.06 3.93 -7.81 8.35 -11 13 c -4.79 6.98 -9.78 15.31 -13 22 c -0.63 1.31 -0.56 4.02 0 5 c 0.5 0.88 2.8 2.16 4 2 c 5.25 -0.69 12.59 -2.99 19 -5 c 11.03 -3.46 21.08 -6.92 32 -11 c 12.17 -4.54 23.36 -8.67 35 -14 c 12.84 -5.88 25.1 -13.46 37 -19 c 1.74 -0.81 5.63 -1.37 6 -1 c 0.3 0.3 -1.75 3.01 -3 4 c -12.82 10.2 -27.67 20.14 -41 31 c -4.77 3.89 -8.47 8.92 -13 13 c -2.12 1.91 -7.31 5.05 -7 5 c 1.13 -0.2 19.78 -5.59 30 -9 c 13.53 -4.51 25.8 -8.69 39 -14 c 21.83 -8.78 43.58 -19.29 63 -27 c 1.42 -0.56 5.26 -0.24 5 0 c -1.77 1.61 -17.51 13.57 -27 20 c -10.66 7.23 -30.94 19 -32 20 c -0.4 0.38 9.3 -1.67 14 -3 c 18.15 -5.15 34.61 -10.68 53 -16 c 7.89 -2.29 15.12 -4.2 23 -6 c 4.03 -0.92 8.31 -1.77 12 -2 c 1.25 -0.08 4.27 0.58 4 1 c -1.56 2.47 -10.36 12.36 -16 18 c -3 3 -7.14 5.14 -10 8 c -1.61 1.61 -4.68 5.82 -4 6 c 1.81 0.48 12.58 -0.91 19 -2 c 23.6 -4.02 69 -13 69 -13"/></svg>