<?xml version="1.0" encoding="UTF-8" standalone="no"?><!DOCTYPE svg PUBLIC "-//W3C//DTD SVG 1.1//EN" "http://www.w3.org/Graphics/SVG/1.1/DTD/svg11.dtd"><svg xmlns="http://www.w3.org/2000/svg" version="1.1" width="627" height="167"><path stroke-linejoin="round" stroke-linecap="round" stroke-width="2" stroke="rgb(52, 58, 64)" fill="none" d="M 1 76 l 1 1"/><path stroke-linejoin="round" stroke-linecap="round" stroke-width="2" stroke="rgb(52, 58, 64)" fill="none" d="M 9 81 l 1 1"/><path stroke-linejoin="round" stroke-linecap="round" stroke-width="2" stroke="rgb(52, 58, 64)" fill="none" d="M 15 49 c -0.02 0.1 -1 4.04 -1 6 c 0 3.55 -0.03 7.64 1 11 c 2.5 8.18 10 25 10 25"/><path stroke-linejoin="round" stroke-linecap="round" stroke-width="2" stroke="rgb(52, 58, 64)" fill="none" d="M 28 56 c 0.04 -0.05 2.26 -2.39 2 -3 c -0.47 -1.09 -3.46 -3.74 -5 -4 c -1.75 -0.29 -5.01 0.94 -7 2 c -2.73 1.46 -6.33 3.61 -8 6 c -2.55 3.64 -5.64 9.59 -6 14 c -0.54 6.71 1.42 15.41 3 23 c 1.77 8.49 4.17 16.63 7 25 c 4.66 13.78 9.77 26.92 15 40 c 0.71 1.79 1.86 3.67 3 5 c 0.71 0.82 2.3 2.12 3 2 c 0.82 -0.14 2.22 -1.89 3 -3 l 4 -7"/><path stroke-linejoin="round" stroke-linecap="round" stroke-width="2" stroke="rgb(52, 58, 64)" fill="none" d="M 84 98 c -0.03 -0.07 -1.13 -2.99 -2 -4 c -0.97 -1.13 -2.64 -2.71 -4 -3 c -2.72 -0.58 -6.95 -0.41 -10 0 c -1.64 0.22 -3.63 1.09 -5 2 c -1.44 0.96 -3.24 2.48 -4 4 c -2 4 -4.32 9.55 -5 14 c -0.55 3.6 0.04 9.32 1 12 c 0.35 0.99 2.9 2.11 4 2 c 1.65 -0.16 5.06 -1.39 6 -3 c 7 -12 18.44 -42.27 22 -45 c 1.66 -1.27 4.78 15.15 8 22 c 1.99 4.22 5.26 8.8 8 12 c 0.85 0.99 2.86 2 4 2 c 1.38 0 4.1 -0.9 5 -2 c 1.65 -2.01 3.22 -8.22 4 -9 c 0.29 -0.29 1.61 1.97 2 3 c 0.55 1.46 0.42 5.13 1 5 c 1.21 -0.27 6.12 -4.39 8 -7 c 2.14 -2.96 3.83 -7.17 5 -11 c 3.81 -12.44 6.85 -24.94 10 -38 c 1.3 -5.41 2.28 -10.69 3 -16 c 0.27 -1.96 0.02 -6.1 0 -6 c -0.07 0.4 -1.62 15.25 -3 23 c -1.34 7.54 -2.58 15.03 -5 22 c -2.84 8.15 -10.67 21.72 -11 24 c -0.11 0.74 5.79 -1.46 8 -3 c 8.27 -5.76 17.26 -12.92 25 -20 c 3.78 -3.45 7.39 -7.66 10 -12 c 5.22 -8.7 9.71 -18.62 14 -28 c 1 -2.18 1.96 -7.25 2 -7 c 0.15 0.88 1.17 16.58 1 25 c -0.17 8.44 -0.47 16.84 -2 25 c -2.46 13.1 -5.8 27.8 -10 39 c -1.26 3.35 -6.25 5.73 -8 9 c -2.95 5.5 -6.89 18.66 -7 19 c -0.04 0.13 2.43 -4.61 3 -7 c 1.38 -5.74 1.58 -12.02 3 -18 c 1.95 -8.19 4.89 -15.76 7 -24 c 1.29 -5.04 2.38 -10.02 3 -15 c 0.37 -2.93 0.55 -6.45 0 -9 c -0.35 -1.65 -1.84 -4.27 -3 -5 c -1 -0.62 -3.77 -0.46 -5 0 c -1.04 0.39 -2.25 1.87 -3 3 c -1.82 2.73 -3.62 6 -5 9 c -0.55 1.2 -1 2.73 -1 4 c 0 2.17 0.03 5.47 1 7 c 0.99 1.56 3.93 3.05 6 4 c 2.09 0.96 4.62 1.52 7 2 c 2.63 0.53 5.47 1 8 1 c 1.6 0 3.58 -0.35 5 -1 c 2.01 -0.91 4.62 -2.37 6 -4 c 1.98 -2.33 3.62 -6 5 -9 c 0.55 -1.2 0.86 -4.22 1 -4 c 0.42 0.68 2.49 11.04 4 12 c 1.03 0.65 4.67 -3.73 7 -5 c 1.12 -0.61 3.08 -0.39 4 -1 c 0.8 -0.54 1.2 -2.66 2 -3 c 1.11 -0.47 4.4 -0.93 5 0 c 3.26 5.09 7.2 16.81 11 25 c 0.5 1.08 1.22 2.22 2 3 c 0.78 0.78 2.58 2.42 3 2 c 1.46 -1.46 3.68 -10.15 6 -11 c 2.52 -0.93 9.31 2.39 13 4 c 1.15 0.5 1.96 2.61 3 3 c 1.23 0.46 3.45 0.28 5 0 c 1.95 -0.36 4.31 -1.02 6 -2 c 2.08 -1.21 4.01 -4.72 6 -5 c 3.86 -0.55 9.94 1.61 15 2 c 3.68 0.28 7.46 0.24 11 0 l 4 -1"/><path stroke-linejoin="round" stroke-linecap="round" stroke-width="2" stroke="rgb(52, 58, 64)" fill="none" d="M 128 51 l -3 -2"/><path stroke-linejoin="round" stroke-linecap="round" stroke-width="2" stroke="rgb(52, 58, 64)" fill="none" d="M 360 53 c -0.17 0.21 -7.01 7.82 -10 12 c -1.97 2.76 -3.07 6.16 -5 9 c -3.08 4.52 -7.01 8.52 -10 13 c -1.63 2.45 -4.04 8.25 -4 8 c 0.33 -1.89 8.76 -44.2 14 -66 c 1.08 -4.5 3.07 -8.76 5 -13 c 1.42 -3.13 3.04 -6.5 5 -9 c 1.49 -1.9 4.46 -5.39 6 -5 c 3.4 0.85 11.85 7.13 14 10 c 0.79 1.05 -0.85 4.47 -2 6 c -3.47 4.62 -9.02 9.02 -13 14 c -4.05 5.06 -7.5 10.44 -11 16 c -2.26 3.59 -3.84 7.65 -6 11 c -0.73 1.14 -3.44 2.6 -3 3 c 1.61 1.47 10.79 4.65 14 7 c 0.84 0.62 1 2.78 1 4 c 0 1.22 -0.17 3.27 -1 4 c -3.92 3.46 -10.47 7.6 -16 11 c -3.19 1.96 -6.67 3.67 -10 5 c -1.52 0.61 -3.6 1.16 -5 1 l -4 -2"/><path stroke-linejoin="round" stroke-linecap="round" stroke-width="2" stroke="rgb(52, 58, 64)" fill="none" d="M 415 71 c -0.1 0.03 -4.25 1.01 -6 2 c -3.38 1.9 -7.05 4.47 -10 7 c -1.55 1.33 -3.05 3.25 -4 5 c -0.94 1.72 -2.13 4.3 -2 6 c 0.16 2.04 2.33 7.19 3 7 c 0.87 -0.25 2.48 -6.18 4 -9 c 0.77 -1.43 2.06 -3.73 3 -4 c 0.84 -0.24 3.42 1 4 2 c 1.36 2.34 2.65 6.7 3 10 c 0.61 5.68 0.49 12.65 0 18 c -0.12 1.33 -2.25 3.37 -2 4 c 0.23 0.58 2.95 1.29 4 1 c 2.06 -0.56 5.82 -2.06 7 -4 c 5.19 -8.49 10.48 -20.98 15 -32 c 3.24 -7.89 5.38 -20.56 8 -24 c 0.88 -1.16 5.4 2.48 8 3 c 2.13 0.43 5.27 0.87 7 0 c 4.06 -2.03 9.31 -6.54 13 -10 c 1.31 -1.23 2.64 -5.41 3 -5 c 0.84 0.96 3.52 8.65 4 13 c 1.47 13.46 2.41 28.23 2 42 c -0.25 8.62 -2.23 18.43 -4 26 c -0.34 1.44 -2.87 4.26 -3 4 c -0.21 -0.42 0.31 -5.5 1 -8 c 0.93 -3.34 2.3 -6.83 4 -10 c 5.66 -10.54 12.17 -20.44 18 -31 c 1.24 -2.24 1.67 -5.07 3 -7 c 1.49 -2.15 5.67 -6.66 6 -6 c 0.7 1.41 -0.49 12.65 0 18 c 0.12 1.33 1.48 4.3 2 4 c 1.72 -1 7.68 -6.93 10 -11 c 5.32 -9.3 10.18 -20.34 14 -31 c 4.19 -11.71 7.05 -23.95 10 -36 c 0.71 -2.92 1.1 -9.24 1 -9 c -0.72 1.68 -15.38 39.32 -23 60 c -1.99 5.39 -2.92 10.79 -5 16 c -2.61 6.53 -9.21 18.69 -9 19 c 0.19 0.29 7.12 -10.67 11 -16 c 1.56 -2.15 3.21 -4.21 5 -6 c 1.15 -1.15 3.31 -3.23 4 -3 c 0.74 0.25 1.83 3.5 2 5 l -1 4"/><path stroke-linejoin="round" stroke-linecap="round" stroke-width="2" stroke="rgb(52, 58, 64)" fill="none" d="M 566 64 l 1 1"/><path stroke-linejoin="round" stroke-linecap="round" stroke-width="2" stroke="rgb(52, 58, 64)" fill="none" d="M 580 66 c -0.09 0.03 -3.73 0.96 -5 2 c -3.99 3.29 -8.7 7.65 -12 12 c -3.84 5.06 -7.81 11.28 -10 17 c -1.91 5 -2.53 11.63 -3 17 c -0.16 1.89 0.78 6.22 1 6 c 0.38 -0.38 2.92 -6.76 3 -10 c 0.23 -9.32 -1.74 -29.54 -2 -30 c -0.2 -0.35 -2.45 19.72 -2 23 c 0.1 0.72 3.65 -0.32 5 -1 c 1.7 -0.85 3.56 -2.47 5 -4 c 3.83 -4.07 7.77 -8.41 11 -13 c 3.06 -4.35 5.95 -9.43 8 -14 c 0.78 -1.72 0.42 -4.25 1 -6 c 0.35 -1.04 1.95 -3.27 2 -3 c 0.42 2.2 1.7 19.34 3 29 c 0.37 2.73 1.81 5.53 2 8 c 0.12 1.53 -0.89 5 -1 5 l 0 -5"/><path stroke-linejoin="round" stroke-linecap="round" stroke-width="2" stroke="rgb(52, 58, 64)" fill="none" d="M 603 86 c -0.05 -0.07 -1.89 -3.2 -3 -4 c -0.92 -0.66 -2.76 -1 -4 -1 c -1.53 0 -3.65 0.32 -5 1 c -1.7 0.85 -3.95 2.5 -5 4 c -1.04 1.48 -2.1 4.18 -2 6 c 0.2 3.85 1.65 8.79 3 13 c 1.31 4.1 3.17 7.94 5 12 c 1.26 2.79 2.38 6.01 4 8 c 1.06 1.29 3.92 3.13 5 3 c 0.93 -0.12 2.63 -2.58 3 -4 c 1.13 -4.29 1.85 -10.02 2 -15 c 0.18 -5.93 -0.24 -11.96 -1 -18 c -1.27 -10.19 -2.92 -20.39 -5 -30 c -0.52 -2.41 -2.34 -6.47 -3 -7 c -0.31 -0.25 -1.91 1.98 -2 3 c -0.5 5.95 -0.26 14.04 0 21 c 0.07 2.02 0.42 4.25 1 6 c 0.35 1.04 1.99 3.24 2 3 c 0.14 -3.27 0.24 -32.77 0 -50 c -0.1 -7.25 -0.23 -14.04 -1 -21 c -0.56 -5.07 -2.99 -15.28 -3 -15 c -0.02 1.23 1.76 43.36 2 66 c 0.11 10.29 -1 30 -1 30"/><path stroke-linejoin="round" stroke-linecap="round" stroke-width="2" stroke="rgb(52, 58, 64)" fill="none" d="M 626 32 l -1 9"/></svg>