<?xml version="1.0" encoding="UTF-8" standalone="no"?><!DOCTYPE svg PUBLIC "-//W3C//DTD SVG 1.1//EN" "http://www.w3.org/Graphics/SVG/1.1/DTD/svg11.dtd"><svg xmlns="http://www.w3.org/2000/svg" version="1.1" width="561" height="270"><path stroke-linejoin="round" stroke-linecap="round" stroke-width="2" stroke="rgb(52, 58, 64)" fill="none" d="M 82 23 c 0 -0.1 -0.26 -4.02 0 -6 c 1.41 -10.68 3.74 -21.12 5 -32 c 0.78 -6.73 0.11 -13.33 1 -20 c 1.8 -13.54 5.03 -26.22 7 -40 c 1.8 -12.63 3.04 -24.46 4 -37 c 0.39 -5.06 0 -15 0 -15"/><path stroke-linejoin="round" stroke-linecap="round" stroke-width="2" stroke="rgb(52, 58, 64)" fill="none" d="M 94 63 c -0.26 0.09 -9.9 3.63 -15 5 c -3.61 0.97 -7.24 1.6 -11 2 c -9.11 0.96 -18.34 2 -27 2 c -3.26 0 -6.64 -1.16 -10 -2 c -3.44 -0.86 -6.78 -1.75 -10 -3 c -2.76 -1.07 -5.51 -2.47 -8 -4 c -1.78 -1.1 -3.52 -2.52 -5 -4 c -1.81 -1.81 -3.79 -3.92 -5 -6 c -0.98 -1.69 -1.67 -4.04 -2 -6 c -0.31 -1.86 -0.31 -4.14 0 -6 c 0.33 -1.96 1.04 -4.18 2 -6 c 2.31 -4.38 5.07 -9.44 8 -13 c 1.38 -1.68 3.93 -3.05 6 -4 c 2.09 -0.96 4.62 -1.49 7 -2 c 2.31 -0.5 4.94 -1.27 7 -1 c 2.49 0.33 6 1.44 8 3 c 3.49 2.71 7.88 7.01 10 11 c 3.15 5.94 5.71 14.05 7 21 c 1.29 6.91 1.51 14.77 1 22 c -0.81 11.61 -3.08 26.14 -5 35 c -0.2 0.9 -2.99 2.37 -3 2 c -0.11 -2.85 1.01 -18.62 2 -28 c 0.36 -3.41 0.96 -6.78 2 -10 c 2.29 -7.09 5.05 -14.13 8 -21 c 1.06 -2.47 2.98 -6.42 4 -7 c 0.54 -0.31 2.71 1.93 3 3 c 0.55 2.03 -0.32 5.37 0 8 c 0.68 5.67 1.52 11.72 3 17 c 0.77 2.74 2.49 6.3 4 8 c 0.7 0.78 3.09 1.42 4 1 c 2.05 -0.93 5.35 -3.69 7 -6 c 3.05 -4.27 5.93 -9.82 8 -15 c 2.54 -6.36 5.22 -19.78 6 -20 c 0.67 -0.19 -0.01 12.28 1 18 c 0.94 5.32 2.9 11.16 5 16 c 1.08 2.48 3.15 4.97 5 7 c 1.38 1.51 3.3 3.15 5 4 c 1.35 0.68 3.41 1 5 1 c 2.21 0 5.63 0.19 7 -1 c 2.79 -2.42 5.74 -7.86 8 -12 c 1.69 -3.09 3.12 -6.62 4 -10 c 1.08 -4.13 2.18 -9.15 2 -13 c -0.12 -2.5 -1.7 -7.35 -3 -8 c -1.16 -0.58 -5.18 1.73 -7 3 c -1.2 0.84 -2.39 2.63 -3 4 c -0.62 1.4 -0.83 3.34 -1 5 c -0.16 1.63 -0.28 3.45 0 5 c 0.36 1.95 1.09 4.19 2 6 c 1.03 2.07 2.56 3.98 4 6 c 2 2.8 3.75 5.75 6 8 c 2.25 2.25 5.2 4.44 8 6 c 3.02 1.68 6.54 2.93 10 4 l 19 5"/><path stroke-linejoin="round" stroke-linecap="round" stroke-width="2" stroke="rgb(52, 58, 64)" fill="none" d="M 271 62 c -0.05 0.07 -1.75 3.37 -3 4 c -3.41 1.7 -8.64 3.05 -13 4 c -3.22 0.7 -7.08 1.75 -10 1 c -10.21 -2.61 -22.7 -7.45 -33 -12 c -3.58 -1.58 -7.16 -4.3 -10 -7 c -3.96 -3.77 -8.72 -8.62 -11 -13 c -1.63 -3.13 -2.51 -8.95 -2 -12 c 0.33 -1.96 3.1 -4.29 5 -6 c 4.68 -4.21 9.87 -8.96 15 -12 c 3.38 -2 7.88 -2.93 12 -4 c 4.98 -1.29 10.01 -2.47 15 -3 c 4.24 -0.45 8.7 -0.34 13 0 c 4.02 0.32 8.17 0.96 12 2 c 3.39 0.92 7.19 2.18 10 4 c 3.51 2.28 7.3 5.76 10 9 c 2.06 2.48 3.56 5.84 5 9 c 3.63 7.99 8.31 16.23 10 24 c 1.43 6.58 0.35 14.54 0 22 c -0.33 7.15 -1.02 13.93 -2 21 c -0.71 5.13 -1.78 10.11 -3 15 c -0.43 1.72 -1.07 4.07 -2 5 c -0.71 0.71 -3.57 1.52 -4 1 c -0.74 -0.89 -0.9 -4.64 -1 -7 c -0.24 -5.68 -0.57 -11.42 0 -17 c 0.75 -7.34 2.32 -14.81 4 -22 c 0.64 -2.75 2.62 -8.43 3 -8 c 0.73 0.83 2.24 11.17 4 16 c 0.77 2.11 2.76 5.75 4 6 c 1.24 0.25 5.01 -2.44 6 -4 c 0.97 -1.53 0.43 -4.71 1 -7 c 1.44 -5.74 4.86 -11.75 5 -17 c 0.16 -6.04 -2.2 -14.82 -4 -20 c -0.44 -1.27 -2.67 -2.6 -4 -3 c -1.6 -0.48 -4.65 -0.51 -6 0 c -0.81 0.3 -1.75 1.95 -2 3 c -0.97 4.13 -1.61 9.29 -2 14 c -0.28 3.33 -0.33 6.74 0 10 c 0.33 3.33 1.03 6.78 2 10 c 1.02 3.4 2.34 7.04 4 10 c 1.21 2.14 3.16 4.5 5 6 c 1.58 1.29 4.05 2.55 6 3 c 2.03 0.47 5.03 0.49 7 0 c 1.64 -0.41 3.75 -1.75 5 -3 c 1.85 -1.85 3.7 -4.51 5 -7 c 2.64 -5.06 4.42 -10.84 7 -16 c 1.07 -2.13 3.02 -3.91 4 -6 c 1.29 -2.75 2.95 -8.84 3 -9 c 0.03 -0.1 -1.91 4.06 -2 6 c -0.22 4.61 0.4 9.92 1 15 c 0.76 6.49 1.64 14.23 3 19 c 0.26 0.89 2.23 2.17 3 2 c 1.54 -0.34 5.12 -2.19 6 -4 c 4.29 -8.82 8.27 -21.82 12 -33 c 0.98 -2.93 1.37 -8.37 2 -9 c 0.34 -0.34 2.37 2.56 3 4 c 1.59 3.64 3.31 7.92 4 12 c 1.93 11.35 2.9 22.91 4 35 c 0.97 10.66 1.74 20.74 2 31 c 0.07 2.99 -0.42 6.1 -1 9 c -0.4 2.02 -1.07 4.52 -2 6 c -0.53 0.84 -2.6 2.4 -3 2 c -1.09 -1.09 -3.08 -5.95 -4 -9 c -1.04 -3.46 -1.73 -7.28 -2 -11 c -0.74 -10.32 -1.22 -20.69 -1 -31 c 0.11 -5.36 0.72 -11.06 2 -16 c 0.96 -3.7 3.03 -7.59 5 -11 c 1.63 -2.82 3.7 -5.85 6 -8 c 2.8 -2.63 6.62 -5.48 10 -7 c 2.83 -1.27 7.68 -0.67 10 -2 c 1.64 -0.94 4 -4.69 4 -6 c 0 -0.91 -2.65 -2.87 -4 -3 c -4.61 -0.44 -12.59 -0.98 -17 1 c -6.84 3.06 -14.45 10.46 -21 16 c -1.94 1.64 -4.59 3.97 -5 6 c -0.73 3.64 -0.6 10.65 1 14 c 1.54 3.21 6.49 6.82 10 9 c 3.06 1.89 7.26 2.98 11 4 c 3.57 0.97 7.43 1.84 11 2 c 3.53 0.16 7.86 0.05 11 -1 c 3.32 -1.11 7.21 -3.52 10 -6 c 5.91 -5.26 12.15 -11.82 17 -18 c 2.19 -2.79 3.6 -6.6 5 -10 c 0.91 -2.22 1.84 -4.8 2 -7 c 0.15 -2.14 -0.32 -4.95 -1 -7 c -0.56 -1.69 -1.82 -3.65 -3 -5 c -1.01 -1.15 -2.63 -2.32 -4 -3 c -1.13 -0.56 -3.17 -1.36 -4 -1 c -1.01 0.43 -2.76 2.63 -3 4 c -0.63 3.56 -0.71 9.12 0 13 c 0.53 2.94 2.25 6.44 4 9 c 2.39 3.5 5.72 7.02 9 10 c 4 3.64 8.45 7.49 13 10 c 4.74 2.62 10.64 4.74 16 6 c 5.68 1.34 12.48 2.57 18 2 c 6.66 -0.68 14.52 -3.24 21 -6 c 6.52 -2.77 12.95 -6.77 19 -11 l 41 -31"/></svg>