<?xml version="1.0" encoding="UTF-8" standalone="no"?><!DOCTYPE svg PUBLIC "-//W3C//DTD SVG 1.1//EN" "http://www.w3.org/Graphics/SVG/1.1/DTD/svg11.dtd"><svg xmlns="http://www.w3.org/2000/svg" version="1.1" width="468" height="100"><path stroke-linejoin="round" stroke-linecap="round" stroke-width="2" stroke="rgb(52, 58, 64)" fill="none" d="M 1 85 c 0.89 -0.54 34.3 -20.03 51 -31 c 5.77 -3.79 10.66 -8.37 16 -13 c 4.95 -4.29 9.76 -8.37 14 -13 c 3.02 -3.29 5.52 -7.13 8 -11 c 2.94 -4.59 7.12 -11.19 8 -14 c 0.2 -0.63 -2.18 -2.26 -3 -2 c -6.2 1.99 -16.75 6.87 -25 11 c -6.63 3.32 -13.67 6.67 -19 11 c -4.82 3.92 -9.07 9.7 -13 15 c -3.74 5.04 -7.34 10.5 -10 16 c -2.23 4.61 -3.63 9.9 -5 15 c -0.97 3.61 -2.16 7.72 -2 11 c 0.14 2.79 1.66 6.51 3 9 c 0.8 1.49 2.52 3.01 4 4 c 2.34 1.56 5.29 3.23 8 4 c 3.99 1.14 9.12 2.61 13 2 c 7.74 -1.22 16.76 -4.81 25 -8 c 8.29 -3.21 16.03 -6.86 24 -11 c 9.73 -5.05 18.49 -10.26 28 -16 c 8.75 -5.28 16.98 -10.12 25 -16 c 7.09 -5.2 13.38 -10.9 20 -17 c 10.87 -10.02 30.48 -29.45 31 -30 c 0.15 -0.16 -6.78 5.12 -10 8 c -3.2 2.87 -6.39 5.66 -9 9 c -9.39 12 -18.89 24.28 -27 37 c -4.12 6.46 -7.41 14.16 -10 21 c -0.9 2.37 -1.59 6.08 -1 8 c 0.52 1.68 3.28 3.97 5 5 c 1.24 0.75 3.66 1.53 5 1 c 31.75 -12.59 72.84 -30.48 111 -47 c 8.07 -3.49 15.08 -7.57 23 -11 c 4.62 -2 9.34 -3.78 14 -5 c 2.84 -0.74 6.51 -1.36 9 -1 c 1.6 0.23 3.93 1.78 5 3 c 0.98 1.13 1.7 3.37 2 5 c 0.33 1.82 -0.29 4.11 0 6 c 0.35 2.3 0.97 4.93 2 7 c 1.85 3.71 4.3 7.96 7 11 c 2.36 2.66 5.78 5.39 9 7 c 5.72 2.86 12.56 5.46 19 7 c 8.68 2.08 17.84 3.25 27 4 c 11.42 0.94 22.28 1 34 1 c 17.23 0 50 -1 50 -1"/></svg>