<?xml version="1.0" encoding="UTF-8" standalone="no"?><!DOCTYPE svg PUBLIC "-//W3C//DTD SVG 1.1//EN" "http://www.w3.org/Graphics/SVG/1.1/DTD/svg11.dtd"><svg xmlns="http://www.w3.org/2000/svg" version="1.1" width="400" height="95"><path stroke-linejoin="round" stroke-linecap="round" stroke-width="2" stroke="rgb(52, 58, 64)" fill="none" d="M 1 10 c 0.14 0.07 5.19 3.18 8 4 c 21.81 6.4 43.88 12.77 67 18 c 26.8 6.06 52.17 11.25 79 15 c 19.07 2.66 37.46 3.33 57 4 c 20.52 0.7 40.31 1.89 60 0 c 21.69 -2.08 44.69 -6.11 65 -12 c 11.96 -3.47 24.16 -10.36 35 -17 c 9.53 -5.84 25.22 -19.22 27 -21 c 0.31 -0.31 -4.29 -0.59 -6 0 c -5.34 1.86 -11.68 4.68 -17 8 c -23.1 14.4 -44.4 30.25 -68 45 c -11.92 7.45 -23.5 13.55 -36 20 c -8.69 4.49 -17.16 9 -26 12 c -8.54 2.9 -17.89 4.82 -27 6 c -11.54 1.49 -23.15 2 -35 2 c -13.54 0 -26.77 -0.33 -40 -2 c -13.15 -1.66 -25.59 -5 -39 -8 c -9.72 -2.18 -18.54 -4.23 -28 -7 c -10.36 -3.04 -30 -10 -30 -10"/></svg>