<?xml version="1.0" encoding="UTF-8" standalone="no"?><!DOCTYPE svg PUBLIC "-//W3C//DTD SVG 1.1//EN" "http://www.w3.org/Graphics/SVG/1.1/DTD/svg11.dtd"><svg xmlns="http://www.w3.org/2000/svg" version="1.1" width="471" height="90"><path stroke-linejoin="round" stroke-linecap="round" stroke-width="2" stroke="rgb(52, 58, 64)" fill="none" d="M 1 30 c 0.33 0 12.77 -0.53 19 0 c 5.34 0.46 10.58 2.63 16 3 c 24.01 1.64 47.19 2.72 72 3 c 35.46 0.41 67.78 0.01 103 -1 c 12.69 -0.36 24.22 -2.32 37 -3 c 19.64 -1.04 37.76 -0.33 57 -2 c 19.75 -1.72 38.66 -4.69 58 -8 c 6.17 -1.06 14.39 -2.91 18 -5 c 1.18 -0.68 1.67 -4.88 1 -6 c -0.89 -1.48 -4.58 -3 -7 -4 c -3.13 -1.29 -6.6 -2.35 -10 -3 c -5.25 -1.01 -10.55 -1.79 -16 -2 c -20.94 -0.81 -41.39 -2.2 -62 -1 c -19.46 1.14 -38.48 4.51 -58 8 c -12.7 2.27 -24.67 5.24 -37 9 c -15.47 4.71 -30.98 9.63 -45 16 c -7.41 3.37 -14.89 9.02 -21 14 c -2.42 1.97 -4.52 5.19 -6 8 c -1.73 3.29 -2.39 7.58 -4 11 c -0.99 2.11 -2.51 4.1 -4 6 c -2.2 2.8 -4.5 5.69 -7 8 c -1.7 1.57 -3.89 3.3 -6 4 c -5.4 1.8 -12.05 3.18 -18 4 c -3.55 0.49 -7.3 0.3 -11 0 c -8.8 -0.71 -18.94 -1.54 -26 -3 c -1.14 -0.24 -2.86 -2.18 -3 -3 c -0.12 -0.7 1.13 -2.48 2 -3 c 2.05 -1.23 5.36 -2.94 8 -3 c 25 -0.56 53.06 0.01 81 1 c 30.75 1.09 58.22 4 89 5 c 43.86 1.42 82.92 1.8 127 2 c 31.58 0.14 60.36 0.26 91 -1 l 31 -4"/></svg>