<?xml version="1.0" encoding="UTF-8" standalone="no"?><!DOCTYPE svg PUBLIC "-//W3C//DTD SVG 1.1//EN" "http://www.w3.org/Graphics/SVG/1.1/DTD/svg11.dtd"><svg xmlns="http://www.w3.org/2000/svg" version="1.1" width="478" height="178"><path stroke-linejoin="round" stroke-linecap="round" stroke-width="2" stroke="rgb(52, 58, 64)" fill="none" d="M 280 4 c 0.05 -0.33 2.27 -12.65 3 -19 c 0.27 -2.31 0.17 -4.67 0 -7 c -0.17 -2.36 -0.39 -4.75 -1 -7 c -1.37 -5.03 -3 -10.34 -5 -15 c -0.91 -2.12 -4 -6 -4 -6"/><path stroke-linejoin="round" stroke-linecap="round" stroke-width="2" stroke="rgb(52, 58, 64)" fill="none" d="M 7 6 c 0 0.14 0.32 5.44 0 8 c -0.33 2.64 -1.09 5.43 -2 8 c -1.08 3.07 -4.11 9.13 -4 9 c 0.18 -0.22 5.1 -9.53 8 -14 c 1.41 -2.16 5 -6 5 -6"/><path stroke-linejoin="round" stroke-linecap="round" stroke-width="2" stroke="rgb(52, 58, 64)" fill="none" d="M 12 44 c -0.14 0.31 -5.76 11.88 -8 18 c -1.41 3.84 -3 8.28 -3 12 c 0 4.6 1.5 10.71 3 15 c 0.63 1.79 2.57 3.57 4 5 c 0.8 0.8 1.93 1.64 3 2 c 4.62 1.54 10.5 3.29 15 4 c 1.2 0.19 2.91 -0.4 4 -1 c 1.69 -0.94 4 -2.4 5 -4 c 2.03 -3.24 3.64 -7.93 5 -12 c 0.96 -2.89 1.61 -5.92 2 -9 c 1.63 -12.79 1.91 -25.49 4 -38 c 1.24 -7.47 2.9 -15.81 6 -22 c 2.8 -5.6 13 -16 13 -16"/><path stroke-linejoin="round" stroke-linecap="round" stroke-width="2" stroke="rgb(52, 58, 64)" fill="none" d="M 73 85 l 1 1"/><path stroke-linejoin="round" stroke-linecap="round" stroke-width="2" stroke="rgb(52, 58, 64)" fill="none" d="M 122 43 c 0.05 0.07 1.9 2.9 3 4 c 0.8 0.8 1.93 1.57 3 2 c 3.76 1.5 8.11 3.18 12 4 c 2.15 0.45 4.93 0.55 7 0 c 3.85 -1.01 8.27 -2.93 12 -5 c 5.18 -2.88 10.73 -6.34 15 -10 c 2.37 -2.03 4.38 -5.17 6 -8 c 2.32 -4.06 5.47 -9.29 6 -13 c 0.32 -2.21 -1.69 -5.93 -3 -8 c -0.77 -1.21 -2.83 -2.87 -4 -3 c -1.26 -0.14 -3.67 1.03 -5 2 c -2.09 1.52 -3.82 4.21 -6 6 c -3.49 2.88 -7.8 4.87 -11 8 c -10.99 10.74 -20.82 22.82 -32 34 c -4.75 4.75 -9.84 9.02 -15 13 c -2.09 1.62 -4.58 2.94 -7 4 c -2.85 1.25 -6.85 3 -9 3 c -0.96 0 -3.1 -2.21 -3 -3 c 0.15 -1.19 2.49 -3.79 4 -5 c 1.58 -1.26 3.94 -2.21 6 -3 c 2.24 -0.86 4.69 -1.73 7 -2 c 3.17 -0.37 6.92 -0.67 10 0 c 7.12 1.56 15.16 3.88 22 7 c 8.23 3.76 15.81 9.51 24 14 l 7 3"/><path stroke-linejoin="round" stroke-linecap="round" stroke-width="2" stroke="rgb(52, 58, 64)" fill="none" d="M 200 75 l 1 1"/><path stroke-linejoin="round" stroke-linecap="round" stroke-width="2" stroke="rgb(52, 58, 64)" fill="none" d="M 248 21 c 0.04 0.14 1.76 5.31 2 8 c 0.74 8.15 1.46 17.26 1 25 c -0.17 2.93 -2.4 5.98 -3 9 c -0.7 3.51 -0.4 7.41 -1 11 c -0.39 2.36 -0.9 5.05 -2 7 c -1.72 3.05 -4.76 7.62 -7 9 c -1.19 0.73 -4.71 -0.1 -6 -1 c -1.53 -1.07 -2.95 -3.89 -4 -6 c -1.57 -3.15 -2.91 -6.56 -4 -10 c -1.26 -3.95 -2.52 -8.04 -3 -12 c -0.5 -4.17 -0.34 -8.7 0 -13 c 0.32 -4.02 0.7 -8.32 2 -12 c 2.58 -7.31 6.26 -14.97 10 -22 c 1.89 -3.55 4.39 -7.04 7 -10 c 2.27 -2.58 5.17 -5 8 -7 c 2.75 -1.94 5.95 -3.81 9 -5 c 2.73 -1.06 6.19 -2.11 9 -2 c 4.96 0.2 11.44 1.48 16 3 c 1.79 0.6 3.72 2.46 5 4 c 1.89 2.26 3.88 5.28 5 8 c 1.1 2.66 1.58 5.95 2 9 c 0.59 4.32 1.52 9.19 1 13 c -0.39 2.88 -2.42 6.1 -4 9 c -2.45 4.49 -5.02 10.02 -8 13 c -1.67 1.67 -5.31 2.28 -8 3 c -2.23 0.59 -4.8 1.13 -7 1 c -3.18 -0.19 -6.62 -1.2 -10 -2 c -2.42 -0.57 -4.97 -0.98 -7 -2 c -2.4 -1.2 -4.6 -3.88 -7 -5 c -2.3 -1.07 -5.79 -0.89 -8 -2 c -2.09 -1.05 -6.13 -5.04 -6 -5 c 0.18 0.06 6.42 3.61 9 6 c 6.24 5.78 12.25 12.36 18 19 c 2.99 3.45 5.89 7.05 8 11 c 5.82 10.91 16 34 16 34"/><path stroke-linejoin="round" stroke-linecap="round" stroke-width="2" stroke="rgb(52, 58, 64)" fill="none" d="M 326 50 c -0.05 -0.04 -2.08 -1.87 -3 -2 c -1.05 -0.15 -2.67 0.93 -4 1 c -4.83 0.25 -10.47 -0.62 -15 0 c -2.3 0.31 -4.99 1.63 -7 3 c -5.08 3.46 -10.94 7.73 -15 12 c -2.18 2.29 -5.53 9 -5 9 c 0.81 0 8.78 -6.52 13 -9 c 1.1 -0.65 2.68 -0.87 4 -1 c 1.93 -0.19 4.24 -0.35 6 0 c 1.31 0.26 2.98 1.1 4 2 c 1.77 1.58 3.24 4.24 5 6 c 0.81 0.81 2.37 2.36 3 2 c 2.61 -1.49 8.36 -8.77 11 -10 c 0.89 -0.41 3.12 1.77 4 3 c 2.2 3.08 3.54 8.54 6 11 c 1.93 1.93 6.39 3.65 9 4 c 1.68 0.22 4.38 -0.92 6 -2 c 4.01 -2.67 7.95 -6.96 12 -10 c 1.16 -0.87 2.64 -1.59 4 -2 c 1.85 -0.55 5.33 -1.67 6 -1 c 0.78 0.78 0.56 4.87 0 7 c -2.29 8.64 -5.24 18.69 -9 27 c -2.38 5.26 -6.42 10.52 -10 15 c -1.55 1.94 -4.42 3.23 -6 5 c -0.9 1.02 -1.16 3 -2 4 c -0.67 0.81 -2.08 1.87 -3 2 c -1.05 0.15 -3.71 -0.22 -4 -1 c -0.69 -1.9 -0.53 -7 0 -10 c 0.4 -2.29 1.6 -5.07 3 -7 c 2.72 -3.77 6.47 -7.68 10 -11 c 2.04 -1.92 4.5 -3.56 7 -5 c 6.23 -3.59 12.58 -7.22 19 -10 c 3.41 -1.48 7.41 -1.68 11 -3 c 6.49 -2.38 13.58 -4.38 19 -8 c 8.96 -5.97 17.59 -14.33 26 -22 c 2.97 -2.71 5.65 -5.81 8 -9 c 2.28 -3.09 4.17 -6.53 6 -10 c 1.54 -2.93 2.92 -5.93 4 -9 c 0.91 -2.57 1.63 -5.3 2 -8 c 0.63 -4.6 1.23 -9.93 1 -14 c -0.07 -1.3 -1.16 -3 -2 -4 c -0.67 -0.81 -1.99 -1.8 -3 -2 c -1.95 -0.39 -5.01 -0.63 -7 0 c -3.82 1.21 -8.68 3.6 -12 6 c -2.28 1.65 -4.24 4.5 -6 7 c -2.23 3.16 -4.43 6.5 -6 10 c -2.73 6.08 -5.2 12.71 -7 19 c -0.8 2.81 -1.12 6.08 -1 9 c 0.2 4.88 0.6 10.61 2 15 c 1.08 3.38 3.73 7.54 6 10 c 1.31 1.41 3.93 2.31 6 3 c 3.82 1.27 8.03 2.59 12 3 c 5.46 0.56 11.44 0.41 17 0 c 3.34 -0.25 6.86 -1.1 10 -2 c 1.38 -0.39 2.79 -1.19 4 -2 c 1.74 -1.16 3.51 -2.51 5 -4 c 2.15 -2.15 4.52 -4.68 6 -7 c 0.66 -1.04 1.14 -2.89 1 -4 c -0.15 -1.2 -1.03 -3.22 -2 -4 c -1.94 -1.56 -5.28 -3.14 -8 -4 c -3.39 -1.07 -7.72 -2.16 -11 -2 c -2.79 0.14 -6.7 1.74 -9 3 c -0.87 0.48 -2 2.09 -2 3 c 0 1.85 0.57 5.64 2 7 c 4.26 4.05 11.89 8.74 18 12 l 12 4"/></svg>