<?xml version="1.0" encoding="UTF-8" standalone="no"?><!DOCTYPE svg PUBLIC "-//W3C//DTD SVG 1.1//EN" "http://www.w3.org/Graphics/SVG/1.1/DTD/svg11.dtd"><svg xmlns="http://www.w3.org/2000/svg" version="1.1" width="412" height="98"><path stroke-linejoin="round" stroke-linecap="round" stroke-width="2" stroke="rgb(52, 58, 64)" fill="none" d="M 1 34 c 0.45 -0.05 17.28 -2.68 26 -3 c 9.67 -0.35 19.06 0.23 29 1 c 29.93 2.32 57.08 6.26 87 8 c 34.95 2.03 68.45 4.27 102 3 c 18.65 -0.71 37.93 -4.75 56 -9 c 9.88 -2.33 19.95 -6.57 29 -11 c 6.31 -3.09 12.84 -7.73 18 -12 c 2.05 -1.7 5.25 -5.73 5 -7 c -0.23 -1.13 -5.05 -3.37 -7 -3 c -5.27 1.01 -12.93 4.72 -19 8 c -14.38 7.78 -27.67 16.04 -42 25 c -18.87 11.79 -35.25 23.43 -54 35 c -9 5.56 -17.58 10.12 -27 15 c -9.14 4.74 -18.13 11.9 -27 13 c -20.73 2.56 -47.13 0.3 -70 -1 c -6.02 -0.34 -12.47 -1.94 -18 -4 c -5.77 -2.14 -12.21 -5.97 -17 -9 c -0.9 -0.57 -2.4 -2.87 -2 -3 c 1.56 -0.52 9.2 -0.96 14 -1 c 38.31 -0.3 73.12 0.26 112 0 c 13.54 -0.09 25.51 -0.34 39 -1 c 29.1 -1.42 54.85 -3.63 84 -5 c 22.53 -1.06 42.85 -0.8 65 -2 c 9.25 -0.5 27 -3 27 -3"/></svg>