<?xml version="1.0" encoding="UTF-8" standalone="no"?><!DOCTYPE svg PUBLIC "-//W3C//DTD SVG 1.1//EN" "http://www.w3.org/Graphics/SVG/1.1/DTD/svg11.dtd"><svg xmlns="http://www.w3.org/2000/svg" version="1.1" width="584" height="128"><path stroke-linejoin="round" stroke-linecap="round" stroke-width="2" stroke="rgb(52, 58, 64)" fill="none" d="M 38 31 c -0.02 0.42 -0.28 15.84 -1 24 c -0.99 11.3 -2.34 22.46 -4 33 c -0.27 1.71 -1.15 4.43 -2 5 c -0.65 0.43 -3.29 -0.17 -4 -1 c -2.62 -3.06 -5.94 -8.54 -8 -13 c -1.83 -3.97 -3.39 -8.74 -4 -13 c -0.67 -4.7 -0.53 -10.19 0 -15 c 0.44 -3.97 1.36 -8.71 3 -12 c 1.41 -2.83 4.42 -6.18 7 -8 c 2.62 -1.85 6.92 -3.71 10 -4 c 3.2 -0.3 7.7 0.8 11 2 c 3.7 1.35 8.07 3.49 11 6 c 3.65 3.13 7.73 7.75 10 12 c 2.75 5.16 4.93 12.03 6 18 c 1.19 6.61 1.52 14.29 1 21 c -0.45 5.89 -1.78 12.88 -4 18 c -1.81 4.17 -5.63 8.8 -9 12 c -2.93 2.78 -7.2 5.1 -11 7 c -3.41 1.7 -7.51 3.52 -11 4 c -3.29 0.45 -7.38 -0.37 -11 -1 c -4.06 -0.71 -8.77 -1.19 -12 -3 c -4.44 -2.49 -9.56 -7.33 -13 -11 l -2 -5"/><path stroke-linejoin="round" stroke-linecap="round" stroke-width="2" stroke="rgb(52, 58, 64)" fill="none" d="M 160 69 c -0.05 0.25 -1.63 9.9 -3 14 c -0.48 1.43 -1.9 2.9 -3 4 c -0.8 0.8 -2.46 2.22 -3 2 c -0.67 -0.27 -2.05 -2.74 -2 -4 c 0.24 -5.99 1.45 -14.23 3 -21 c 1.09 -4.75 2.78 -9.91 5 -14 c 1.91 -3.53 5.06 -7.4 8 -10 c 2.37 -2.09 6.09 -4.53 9 -5 c 4.54 -0.73 11.52 0.1 16 1 c 1.4 0.28 3.57 1.99 4 3 c 0.36 0.83 -0.28 3.02 -1 4 c -2.59 3.54 -10.34 8.48 -10 11 c 0.39 2.89 9.69 7.11 13 11 c 1.91 2.25 3.44 6 4 9 c 1.02 5.49 2.12 13.03 1 18 c -0.95 4.2 -4.93 9.75 -8 13 c -2.07 2.19 -6.15 3.98 -9 5 c -1.38 0.49 -5 0.21 -5 0 c 0 -0.23 3.38 -1.68 5 -2 c 1.51 -0.3 3.4 0.27 5 0 c 4.27 -0.71 8.78 -1.73 13 -3 c 2.41 -0.72 4.68 -1.84 7 -3 c 5.18 -2.59 10.33 -5.03 15 -8 c 2.53 -1.61 4.53 -4.24 7 -6 c 2.16 -1.54 5.23 -3.84 7 -4 c 1.1 -0.1 3.23 1.79 4 3 c 1.31 2.07 1.65 7.19 3 8 c 1.15 0.69 4.84 -2.16 7 -2 c 6.04 0.45 13.95 2.42 20 4 c 1.07 0.28 1.98 1.85 3 2 c 3.1 0.44 7.6 0.8 11 0 c 12.91 -3.04 26.58 -8.29 40 -12 c 2.27 -0.63 4.64 -0.88 7 -1 c 4 -0.21 8.07 -0.23 12 0 c 1.67 0.1 5.27 0.54 5 1 c -0.86 1.47 -8.28 7.28 -12 11 c -0.82 0.82 -1.88 2.06 -2 3 c -0.17 1.33 0.2 4.93 1 5 c 1.84 0.15 7.4 -2.39 11 -4 c 6.19 -2.78 12.26 -5.5 18 -9 c 7.99 -4.87 15.89 -10.08 23 -16 c 6.82 -5.68 13.28 -12.09 19 -19 c 10.34 -12.5 18.68 -26.49 29 -39 c 5.4 -6.55 18.26 -18.36 18 -18 c -0.87 1.2 -36.6 43.78 -53 66 c -3.9 5.28 -6.81 12.02 -9 18 c -1.33 3.62 -2.18 8.46 -2 12 c 0.12 2.49 1.45 8.15 3 8 c 7.38 -0.7 26.11 -7.35 39 -12 c 7.63 -2.75 14.62 -6.31 22 -10 c 6.97 -3.49 13.6 -6.84 20 -11 c 7.01 -4.56 19.58 -14.88 20 -15 c 0.31 -0.09 -9.5 8.34 -13 13 c -3.23 4.31 -5.7 9.95 -8 15 c -0.98 2.16 -2.16 5.21 -2 7 c 0.11 1.23 1.83 3.41 3 4 c 1.66 0.83 4.94 1.44 7 1 c 6.46 -1.38 14.02 -4.33 21 -7 c 4.52 -1.73 9.09 -3.56 13 -6 c 3.88 -2.42 7.65 -5.65 11 -9 c 7.01 -7.01 13.63 -14.41 20 -22 c 2.32 -2.76 3.76 -6.17 6 -9 c 2.78 -3.53 8.78 -9.82 9 -10 c 0.1 -0.08 -1.77 3.64 -3 5 c -1.95 2.14 -5.46 3.64 -7 6 c -3.74 5.72 -7.43 13.36 -10 20 c -1.29 3.32 -1.79 7.56 -2 11 c -0.1 1.57 0.44 3.46 1 5 c 0.73 2.02 1.49 5.35 3 6 c 4.11 1.76 12.05 2.7 18 3 l 21 -1"/></svg>