<?xml version="1.0" encoding="UTF-8" standalone="no"?><!DOCTYPE svg PUBLIC "-//W3C//DTD SVG 1.1//EN" "http://www.w3.org/Graphics/SVG/1.1/DTD/svg11.dtd"><svg xmlns="http://www.w3.org/2000/svg" version="1.1" width="278" height="99"><path stroke-linejoin="round" stroke-linecap="round" stroke-width="2" stroke="rgb(52, 58, 64)" fill="none" d="M 186 46 c 0.02 -0.1 2.05 -5.41 1 -6 c -7.47 -4.21 -26.14 -11.17 -40 -16 c -16.49 -5.74 -32.4 -11.71 -49 -15 c -21.85 -4.33 -44.38 -5.85 -67 -8 c -5.7 -0.54 -12.87 -1.26 -17 0 c -2.24 0.68 -5.22 4.55 -6 7 c -1.27 3.99 -2.64 11.2 -1 15 c 3.85 8.9 11.29 23.78 20 29 c 28.34 17 70.98 40.28 105 46 c 43.05 7.23 141.86 -0.77 145 -4 c 2.52 -2.6 -74.72 -20.44 -113 -29 c -12.9 -2.89 -25.86 -3.76 -39 -5 c -4.68 -0.44 -10.38 -0.64 -14 0 c -1.1 0.19 -3.48 2.78 -3 3 c 4.26 1.94 23.89 9.98 36 12 c 23.05 3.84 73.25 6.16 72 6 c -2.09 -0.26 -79.27 -8.58 -120 -12 c -7.77 -0.65 -18.41 -0.76 -23 0 c -0.82 0.14 -1.67 3.66 -1 4 c 4.28 2.14 16.41 6.07 25 8 c 18.3 4.12 51.94 9.63 55 10 c 0.35 0.04 -3.14 -3.32 -5 -4 c -13.4 -4.92 -28.99 -10.63 -44 -14 c -20.74 -4.65 -60.08 -9.27 -63 -10 c -0.52 -0.13 7.32 -2.59 11 -3 c 8.08 -0.9 17.07 -0.23 25 -1 c 2.01 -0.19 6.19 -1.17 6 -2 c -0.43 -1.86 -5.25 -9.38 -9 -11 c -20.01 -8.65 -68.33 -21.23 -72 -24 c -1.54 -1.16 20.64 -6.15 31 -7 c 21.51 -1.77 64.85 -0.94 66 -1 c 0.44 -0.02 -25 -1.55 -25 -1 c 0 0.56 17.19 3.56 25 6 c 2.45 0.77 4.71 3.46 7 4 c 2.84 0.67 6.72 0.4 10 0 l 23 -4"/></svg>