<?xml version="1.0" encoding="UTF-8" standalone="no"?><!DOCTYPE svg PUBLIC "-//W3C//DTD SVG 1.1//EN" "http://www.w3.org/Graphics/SVG/1.1/DTD/svg11.dtd"><svg xmlns="http://www.w3.org/2000/svg" version="1.1" width="423" height="99"><path stroke-linejoin="round" stroke-linecap="round" stroke-width="2" stroke="rgb(52, 58, 64)" fill="none" d="M 1 69 c 0.18 0.04 6.67 1.7 10 2 c 3.92 0.36 8.11 0.45 12 0 c 4.64 -0.54 9.58 -1.53 14 -3 c 4.42 -1.47 8.94 -3.63 13 -6 c 3.85 -2.25 7.55 -5.07 11 -8 c 3.23 -2.74 6.25 -5.73 9 -9 c 6 -7.15 14.6 -19.86 17 -22 c 0.46 -0.42 1.75 3.36 2 5 c 0.37 2.43 0.28 5.34 0 8 c -0.73 7.05 -1.46 14.41 -3 21 c -0.71 3.06 -2.96 5.89 -4 9 c -1.63 4.9 -2.39 10.18 -4 15 c -0.69 2.08 -2.77 6.34 -3 6 c -0.41 -0.61 -1.28 -8.17 -1 -12 c 0.36 -4.86 1.77 -9.92 3 -15 c 1.5 -6.21 3 -12.01 5 -18 c 1.73 -5.18 3.61 -10.22 6 -15 c 2.26 -4.52 4.95 -9.23 8 -13 c 2.4 -2.97 5.8 -5.92 9 -8 c 3.21 -2.08 7.44 -4.15 11 -5 c 2.94 -0.7 7.23 -0.77 10 0 c 2.62 0.73 6.57 2.93 8 5 c 1.72 2.51 3.28 7.9 3 11 c -0.3 3.28 -2.99 7.56 -5 11 c -2.63 4.51 -6.28 8.47 -9 13 c -2.31 3.84 -4.4 7.9 -6 12 c -1.36 3.48 -3 7.76 -3 11 c 0 2.7 1.44 6.73 3 9 c 1.75 2.55 5.16 5.71 8 7 c 3.82 1.74 9.44 2.69 14 3 c 4.79 0.33 10.29 0.09 15 -1 c 7.93 -1.83 17.14 -4.19 24 -8 c 7.32 -4.07 15.22 -11.22 21 -17 c 1.91 -1.91 3.5 -5.52 4 -8 c 0.39 -1.96 0.03 -5.58 -1 -7 c -1.18 -1.62 -4.71 -3.46 -7 -4 c -2.84 -0.67 -6.94 -0.58 -10 0 c -3.58 0.68 -7.77 2.22 -11 4 c -3.15 1.73 -6.62 4.44 -9 7 c -1.68 1.81 -3.69 4.96 -4 7 c -0.25 1.6 0.91 4.64 2 6 c 1.24 1.56 4.01 3.5 6 4 c 2.76 0.69 6.8 0.44 10 0 c 3.96 -0.54 8.36 -1.44 12 -3 c 5.4 -2.32 10.78 -5.74 16 -9 c 2.84 -1.78 5.98 -3.8 8 -6 c 1.35 -1.48 2.67 -4.18 3 -6 c 0.25 -1.39 -0.23 -3.85 -1 -5 c -0.97 -1.45 -3.27 -3.38 -5 -4 c -2.45 -0.87 -6.04 -1 -9 -1 c -3.28 0 -7.15 0.05 -10 1 c -2.67 0.89 -6.57 2.99 -8 5 c -1.4 1.96 -2.25 6.18 -2 9 c 0.99 11.17 5.54 26.3 6 36 c 0.09 1.92 -2.37 4.62 -4 6 c -2.33 1.98 -5.91 3.76 -9 5 c -3.42 1.37 -7.38 2.51 -11 3 c -3.49 0.48 -7.58 0.51 -11 0 c -2.95 -0.44 -6.15 -1.75 -9 -3 c -2.42 -1.06 -5.49 -2.34 -7 -4 c -1.42 -1.57 -2.69 -4.82 -3 -7 c -0.29 -2.02 0.12 -5.12 1 -7 c 1.24 -2.67 3.72 -5.72 6 -8 c 2.91 -2.91 6.43 -6.44 10 -8 c 6.36 -2.78 15.11 -5.5 22 -6 c 5.81 -0.43 12.77 1.37 19 3 c 15.56 4.07 30.32 9.97 46 14 c 9.28 2.38 18.46 3.83 28 5 c 9.75 1.2 19.15 1.84 29 2 c 10.85 0.18 21.11 -0.08 32 -1 c 25.33 -2.15 48.9 -4.8 74 -8 c 6.88 -0.88 21.01 -3.47 20 -4 c -3.64 -1.89 -70 -22 -70 -22"/><path stroke-linejoin="round" stroke-linecap="round" stroke-width="2" stroke="rgb(52, 58, 64)" fill="none" d="M 313 84 c -0.19 0.12 -7.81 4.37 -11 7 c -2.26 1.86 -6 7 -6 7"/></svg>