<?xml version="1.0" encoding="UTF-8" standalone="no"?><!DOCTYPE svg PUBLIC "-//W3C//DTD SVG 1.1//EN" "http://www.w3.org/Graphics/SVG/1.1/DTD/svg11.dtd"><svg xmlns="http://www.w3.org/2000/svg" version="1.1" width="319" height="87"><path stroke-linejoin="round" stroke-linecap="round" stroke-width="2" stroke="rgb(52, 58, 64)" fill="none" d="M 164 38 c -0.03 0.07 -1.06 3.06 -2 4 c -1.8 1.8 -4.51 3.46 -7 5 c -7.39 4.59 -14.41 9 -22 13 c -4.52 2.39 -9.12 4.05 -14 6 c -5.47 2.19 -10.5 4.28 -16 6 c -5.31 1.66 -10.48 2.92 -16 4 c -10.18 1.99 -19.75 3.57 -30 5 c -4.39 0.61 -8.66 1 -13 1 c -4.34 0 -8.92 -0.09 -13 -1 c -4.65 -1.03 -9.59 -2.99 -14 -5 c -2.8 -1.27 -5.86 -3.02 -8 -5 c -2.26 -2.1 -4.71 -5.26 -6 -8 c -1.19 -2.52 -1.85 -6.09 -2 -9 c -0.17 -3.48 0.01 -7.74 1 -11 c 1.2 -3.96 3.55 -8.48 6 -12 c 2.71 -3.9 6.34 -7.95 10 -11 c 4.1 -3.42 9.12 -6.48 14 -9 c 5.39 -2.78 11.25 -5.31 17 -7 c 5.4 -1.59 11.31 -2.51 17 -3 c 5.93 -0.51 12.3 -0.79 18 0 c 5.92 0.82 12.65 2.57 18 5 c 5.16 2.35 11.23 5.97 15 10 c 5.28 5.64 10.78 14 14 21 c 2.07 4.51 2.48 10.66 3 16 c 0.48 4.92 0.65 10.26 0 15 c -0.63 4.6 -2.37 9.8 -4 14 c -0.56 1.44 -3.03 4.08 -3 4 c 0.07 -0.17 2.86 -6.63 5 -9 c 3.84 -4.24 9.02 -8.3 14 -12 c 6.82 -5.07 13.6 -10.3 21 -14 c 12.36 -6.18 25.76 -11.59 39 -16 c 8.68 -2.89 17.85 -4.59 27 -6 c 8.29 -1.28 16.51 -1.87 25 -2 c 14.22 -0.21 28.19 1.46 42 1 l 18 -3"/></svg>