<?xml version="1.0" encoding="UTF-8" standalone="no"?><!DOCTYPE svg PUBLIC "-//W3C//DTD SVG 1.1//EN" "http://www.w3.org/Graphics/SVG/1.1/DTD/svg11.dtd"><svg xmlns="http://www.w3.org/2000/svg" version="1.1" width="428" height="84"><path stroke-linejoin="round" stroke-linecap="round" stroke-width="2" stroke="rgb(52, 58, 64)" fill="none" d="M 43 42 c 0 -0.33 0.62 -13 0 -19 c -0.34 -3.3 -1.58 -7.15 -3 -10 c -1.07 -2.13 -3.03 -4.82 -5 -6 c -4.08 -2.45 -10.8 -5.43 -15 -6 c -1.98 -0.27 -5.37 1.46 -7 3 c -3.81 3.6 -9.29 9.29 -11 14 c -1.83 5.04 -1 12.57 -1 19 c 0 6.09 -0.01 12.28 1 18 c 0.94 5.32 2.57 11.67 5 16 c 1.84 3.29 5.81 7.09 9 9 c 2.86 1.71 7.39 2.43 11 3 c 2.53 0.4 5.75 0.66 8 0 c 2.9 -0.85 6.25 -3.06 9 -5 c 2.83 -2 5.7 -4.42 8 -7 c 2.94 -3.31 5.84 -7.06 8 -11 c 5.46 -9.97 12.77 -30.3 15 -31 c 1.64 -0.52 2.09 17.84 4 25 c 0.48 1.81 3.5 5.61 4 5 c 1.89 -2.29 7.97 -20.73 10 -22 c 1.13 -0.71 3.69 8.34 6 12 c 1.59 2.52 4.06 6.48 6 7 c 2 0.53 6.22 -3.09 9 -3 c 6.26 0.21 14.79 4.66 21 4 c 7.99 -0.85 19.28 -7.95 26 -9 c 1.76 -0.28 3.98 3.16 6 4 c 1.7 0.71 4.18 1.29 6 1 c 5.88 -0.94 13.25 -5.14 19 -5 c 6.96 0.17 15.67 5.55 23 6 c 8.07 0.49 17.55 -3 26 -3 c 7.49 0 15.34 2.66 23 3 c 7.27 0.32 14.71 -1.46 22 -1 c 14 0.88 27.64 2.89 42 5 c 11.39 1.67 21.68 4.63 33 6 c 22.37 2.71 66 6 66 6"/></svg>