<?xml version="1.0" encoding="UTF-8" standalone="no"?><!DOCTYPE svg PUBLIC "-//W3C//DTD SVG 1.1//EN" "http://www.w3.org/Graphics/SVG/1.1/DTD/svg11.dtd"><svg xmlns="http://www.w3.org/2000/svg" version="1.1" width="190" height="61"><path stroke-linejoin="round" stroke-linecap="round" stroke-width="2" stroke="rgb(52, 58, 64)" fill="none" d="M 17 11 c -0.25 0.21 -10.62 7.98 -14 12 c -1.34 1.59 -1.82 4.85 -2 7 c -0.13 1.51 0.13 4.13 1 5 c 1.3 1.3 4.66 2.53 7 3 c 4.01 0.8 8.7 1.13 13 1 c 6.3 -0.2 12.95 -0.42 19 -2 c 16.62 -4.34 33.18 -10.03 50 -16 c 9.04 -3.21 17 -7.55 26 -11 c 7.05 -2.7 13.96 -5.37 21 -7 c 5.76 -1.33 12.82 -2 18 -2 c 1.28 0 3.5 1.12 4 2 c 0.56 0.98 0.33 3.46 0 5 c -0.62 2.91 -2.33 5.98 -3 9 c -0.64 2.89 -1.29 6.25 -1 9 c 0.33 3.17 1.45 7.19 3 10 c 1.9 3.45 4.87 7.49 8 10 c 6.38 5.1 22 14 22 14"/></svg>