<?xml version="1.0" encoding="UTF-8" standalone="no"?><!DOCTYPE svg PUBLIC "-//W3C//DTD SVG 1.1//EN" "http://www.w3.org/Graphics/SVG/1.1/DTD/svg11.dtd"><svg xmlns="http://www.w3.org/2000/svg" version="1.1" width="597" height="123"><path stroke-linejoin="round" stroke-linecap="round" stroke-width="2" stroke="rgb(52, 58, 64)" fill="none" d="M 92 38 l 1 1"/><path stroke-linejoin="round" stroke-linecap="round" stroke-width="2" stroke="rgb(52, 58, 64)" fill="none" d="M 124 36 l 1 1"/><path stroke-linejoin="round" stroke-linecap="round" stroke-width="2" stroke="rgb(52, 58, 64)" fill="none" d="M 44 84 l 1 1"/><path stroke-linejoin="round" stroke-linecap="round" stroke-width="2" stroke="rgb(52, 58, 64)" fill="none" d="M 48 41 l 1 1"/><path stroke-linejoin="round" stroke-linecap="round" stroke-width="2" stroke="rgb(52, 58, 64)" fill="none" d="M 82 1 l 1 1"/><path stroke-linejoin="round" stroke-linecap="round" stroke-width="2" stroke="rgb(52, 58, 64)" fill="none" d="M 1 86 l 1 1"/><path stroke-linejoin="round" stroke-linecap="round" stroke-width="2" stroke="rgb(52, 58, 64)" fill="none" d="M 85 37 l 1 1"/><path stroke-linejoin="round" stroke-linecap="round" stroke-width="2" stroke="rgb(52, 58, 64)" fill="none" d="M 92 40 l -4 23"/><path stroke-linejoin="round" stroke-linecap="round" stroke-width="2" stroke="rgb(52, 58, 64)" fill="none" d="M 33 120 c -0.09 -0.02 -3.48 -0.41 -5 -1 c -2.67 -1.03 -8 -4 -8 -4"/><path stroke-linejoin="round" stroke-linecap="round" stroke-width="2" stroke="rgb(52, 58, 64)" fill="none" d="M 134 122 c 0.21 -0.12 7.97 -5.27 12 -7 c 2.67 -1.15 6.41 -0.75 9 -2 c 5.31 -2.55 10.86 -6.33 16 -10 c 4.26 -3.04 7.77 -6.79 12 -10 c 4.28 -3.25 11.26 -5.1 13 -9 c 5.35 -11.97 9.22 -32.08 12 -47 c 0.69 -3.7 -0.47 -10.67 -1 -12 l -3 2"/><path stroke-linejoin="round" stroke-linecap="round" stroke-width="2" stroke="rgb(52, 58, 64)" fill="none" d="M 172 83 l 55 3"/><path stroke-linejoin="round" stroke-linecap="round" stroke-width="2" stroke="rgb(52, 58, 64)" fill="none" d="M 198 119 l 35 -25"/><path stroke-linejoin="round" stroke-linecap="round" stroke-width="2" stroke="rgb(52, 58, 64)" fill="none" d="M 118 63 l 1 1"/><path stroke-linejoin="round" stroke-linecap="round" stroke-width="2" stroke="rgb(52, 58, 64)" fill="none" d="M 126 39 l 1 1"/><path stroke-linejoin="round" stroke-linecap="round" stroke-width="2" stroke="rgb(52, 58, 64)" fill="none" d="M 318 38 c 0.02 0.26 0.39 9.94 1 15 c 0.74 6.14 3 18 3 18"/><path stroke-linejoin="round" stroke-linecap="round" stroke-width="2" stroke="rgb(52, 58, 64)" fill="none" d="M 277 40 c 0.14 -0.04 5.27 -1.61 8 -2 c 6.64 -0.95 13.2 -1.59 20 -2 c 4.4 -0.27 8.65 -0.31 13 0 c 5.06 0.36 10.05 0.98 15 2 c 4.76 0.98 10.36 2 14 4 c 2.3 1.27 4.62 4.58 6 7 c 1.09 1.91 2.15 5.06 2 7 c -0.14 1.79 -1.52 4.64 -3 6 c -6.14 5.65 -15.19 11.28 -22 17 l -3 4"/><path stroke-linejoin="round" stroke-linecap="round" stroke-width="2" stroke="rgb(52, 58, 64)" fill="none" d="M 331 116 c -0.59 0 -22.85 0.29 -34 0 c -1.67 -0.04 -5 -1 -5 -1"/><path stroke-linejoin="round" stroke-linecap="round" stroke-width="2" stroke="rgb(52, 58, 64)" fill="none" d="M 407 81 l 1 1"/><path stroke-linejoin="round" stroke-linecap="round" stroke-width="2" stroke="rgb(52, 58, 64)" fill="none" d="M 519 34 l 1 1"/><path stroke-linejoin="round" stroke-linecap="round" stroke-width="2" stroke="rgb(52, 58, 64)" fill="none" d="M 486 35 l 1 1"/><path stroke-linejoin="round" stroke-linecap="round" stroke-width="2" stroke="rgb(52, 58, 64)" fill="none" d="M 560 75 l 1 1"/><path stroke-linejoin="round" stroke-linecap="round" stroke-width="2" stroke="rgb(52, 58, 64)" fill="none" d="M 515 71 c 0.3 0.07 11.29 3.21 17 4 c 6.22 0.86 12.51 0.36 19 1 c 14.42 1.42 30.52 2.96 42 5 c 1.15 0.2 3 3 3 3"/><path stroke-linejoin="round" stroke-linecap="round" stroke-width="2" stroke="rgb(52, 58, 64)" fill="none" d="M 514 118 l 1 1"/><path stroke-linejoin="round" stroke-linecap="round" stroke-width="2" stroke="rgb(52, 58, 64)" fill="none" d="M 344 103 l 1 1"/></svg>