<?xml version="1.0" encoding="UTF-8" standalone="no"?><!DOCTYPE svg PUBLIC "-//W3C//DTD SVG 1.1//EN" "http://www.w3.org/Graphics/SVG/1.1/DTD/svg11.dtd"><svg xmlns="http://www.w3.org/2000/svg" version="1.1" width="526" height="122"><path stroke-linejoin="round" stroke-linecap="round" stroke-width="2" stroke="rgb(52, 58, 64)" fill="none" d="M 1 27 c 0.02 0.07 0.36 2.94 1 4 c 1.21 2.01 3.14 4.28 5 6 c 2.38 2.2 5.18 4.45 8 6 c 3.67 2.02 7.87 3.62 12 5 c 4.93 1.64 9.97 3.16 15 4 c 4.87 0.81 10.09 1.17 15 1 c 4.62 -0.16 9.9 -0.63 14 -2 c 3.38 -1.13 7.01 -3.71 10 -6 c 2.54 -1.94 5.36 -4.47 7 -7 c 1.78 -2.76 2.92 -6.59 4 -10 c 0.92 -2.92 1.74 -6.01 2 -9 c 0.39 -4.54 0.8 -10.41 0 -14 c -0.32 -1.45 -3.48 -4.65 -4 -4 c -3.92 4.98 -15.67 24.34 -22 37 c -3.91 7.81 -5.28 17.07 -9 25 c -3.89 8.29 -9.24 17.88 -14 24 c -1.3 1.68 -4.76 2.76 -7 3 c -3.54 0.37 -9.11 -0.17 -12 -1 c -0.87 -0.25 -1.59 -1.93 -2 -3 c -1.19 -3.09 -2.83 -6.97 -3 -10 c -0.13 -2.39 1.12 -5.58 2 -8 c 0.38 -1.06 1.22 -2.22 2 -3 c 0.78 -0.78 2 -1.78 3 -2 c 1.67 -0.37 4.45 -0.56 6 0 c 1.65 0.6 3.63 2.42 5 4 c 9.11 10.53 17.76 23.76 27 33 c 3.2 3.2 8.74 5.2 13 7 c 1.76 0.74 3.99 0.82 6 1 c 1.65 0.15 3.62 0.52 5 0 c 3.45 -1.3 7.49 -3.81 11 -6 c 1.79 -1.12 3.75 -2.47 5 -4 c 1.57 -1.92 3.3 -4.59 4 -7 c 1.51 -5.16 3 -11.98 3 -17 c 0 -2.48 -1.69 -5.93 -3 -8 c -0.77 -1.21 -3.21 -3.22 -4 -3 c -0.92 0.26 -2.89 3.46 -3 5 c -0.17 2.44 1.01 6.19 2 9 c 0.96 2.72 2.43 5.46 4 8 c 2.78 4.49 6.1 9.87 9 13 c 0.76 0.82 2.73 1 4 1 c 2.49 0 6.57 0.43 8 -1 c 4 -4 8.42 -12.51 12 -19 c 1.72 -3.11 2.37 -7.35 4 -10 c 0.76 -1.23 2.83 -2.87 4 -3 c 1.26 -0.14 4.17 0.8 5 2 c 3.67 5.28 7.06 14.11 11 21 c 1.43 2.5 3.64 6.4 5 7 c 0.79 0.35 3.24 -1.77 4 -3 c 1.63 -2.65 2.95 -6.65 4 -10 c 0.59 -1.89 0.42 -4.25 1 -6 c 0.35 -1.04 1.52 -3.28 2 -3 c 1.87 1.09 6.38 7.1 10 10 c 4.62 3.69 10.27 8.03 15 10 c 2.36 0.98 6.33 0.59 9 0 c 2.92 -0.65 6.74 -2.14 9 -4 c 2.93 -2.42 5.75 -6.62 8 -10 c 0.95 -1.42 1.62 -3.29 2 -5 c 0.93 -4.17 2.34 -10.59 2 -13 c -0.11 -0.76 -3.07 -1.27 -4 -1 c -0.96 0.27 -2.39 1.89 -3 3 c -0.92 1.65 -1.49 3.96 -2 6 c -0.49 1.96 -1.32 4.55 -1 6 c 0.22 1.01 1.86 2.6 3 3 c 3.86 1.36 9.56 1.77 14 3 c 1.39 0.39 2.92 1.08 4 2 c 5.63 4.82 11.24 11.02 17 16 c 1.44 1.24 3.26 2.35 5 3 c 3.41 1.28 7.83 3.15 11 3 c 2.99 -0.14 6.84 -2.35 10 -4 c 4.48 -2.34 9.55 -4.64 13 -8 c 8.34 -8.11 17.67 -18.62 24 -28 c 2.71 -4.02 3.8 -10 5 -15 c 0.76 -3.18 1 -9.82 1 -10 c 0 -0.16 -0.9 5.94 -1 9 c -0.24 7.76 -0.77 15.48 0 23 c 0.88 8.66 2.68 18.35 5 26 c 0.75 2.49 3.86 7.29 5 7 c 1.62 -0.41 4.59 -7.11 7 -10 c 0.71 -0.85 2.04 -2.05 3 -2 c 4.85 0.23 12.06 1.76 18 3 c 2.06 0.43 3.99 1.71 6 2 c 4.79 0.68 10.88 1.59 15 1 c 1.98 -0.28 3.99 -2.99 6 -4 c 1.15 -0.57 2.99 -0.37 4 -1 c 1.39 -0.87 2.56 -3.4 4 -4 c 2.06 -0.86 6.13 0.29 8 -1 c 6.57 -4.53 15.13 -12.88 21 -19 c 1.12 -1.16 1.4 -4.88 2 -5 c 0.56 -0.11 2.78 2.63 3 4 c 0.65 4.12 -0.49 10 0 15 c 1.19 12.1 3.93 32.8 5 36 c 0.23 0.69 3.69 -3.81 5 -6 c 3.61 -6.01 6.5 -13.87 10 -19 c 0.95 -1.39 3.31 -2.44 5 -3 c 2.05 -0.68 4.78 -1.12 7 -1 c 3.51 0.19 7.29 1.79 11 2 l 42 1"/></svg>