<?xml version="1.0" encoding="UTF-8" standalone="no"?><!DOCTYPE svg PUBLIC "-//W3C//DTD SVG 1.1//EN" "http://www.w3.org/Graphics/SVG/1.1/DTD/svg11.dtd"><svg xmlns="http://www.w3.org/2000/svg" version="1.1" width="422" height="75"><path stroke-linejoin="round" stroke-linecap="round" stroke-width="2" stroke="rgb(52, 58, 64)" fill="none" d="M 1 43 c 3.5 -0.04 130.5 -0.94 200 -2 c 21.56 -0.33 40.52 -0.91 62 -2 c 33.3 -1.69 63.4 -3.22 96 -6 c 11.31 -0.96 23.6 -2.07 33 -5 c 4.23 -1.31 9.87 -6.49 12 -9 c 0.58 -0.69 -0.13 -3.37 -1 -4 c -5.09 -3.7 -14.08 -8.97 -21 -12 c -3.2 -1.4 -7.31 -1.85 -11 -2 c -12.2 -0.51 -25.04 -1.46 -37 0 c -14.9 1.82 -30.11 5.77 -45 10 c -12.36 3.51 -24.03 8.21 -36 13 c -4.9 1.96 -9.38 4.35 -14 7 c -9 5.18 -17.64 10.21 -26 16 c -4.67 3.23 -8.63 7.65 -13 11 c -1.15 0.88 -2.63 1.77 -4 2 c -6.14 1.02 -13.2 1.68 -20 2 c -7.79 0.36 -15.12 0.33 -23 0 c -16.48 -0.7 -31.51 -2.54 -48 -3 c -20.23 -0.57 -39.44 0.3 -59 0 c -2.02 -0.03 -4.47 -0.24 -6 -1 c -1.42 -0.71 -3.75 -2.74 -4 -4 c -0.28 -1.41 0.86 -4.98 2 -6 c 1.32 -1.17 4.7 -1.71 7 -2 c 2.85 -0.36 6.16 -0.57 9 0 c 10.1 2.02 20.26 5.63 31 8 c 15.72 3.47 30.18 6.63 46 9 c 20.72 3.1 40.06 5.56 61 7 c 33.78 2.32 64.78 3.02 99 4 c 14.16 0.4 26.95 0.48 41 0 c 16.14 -0.55 30.74 -2.27 47 -3 c 14.5 -0.65 42 -1 42 -1"/></svg>