<?xml version="1.0" encoding="UTF-8" standalone="no"?><!DOCTYPE svg PUBLIC "-//W3C//DTD SVG 1.1//EN" "http://www.w3.org/Graphics/SVG/1.1/DTD/svg11.dtd"><svg xmlns="http://www.w3.org/2000/svg" version="1.1" width="397" height="81"><path stroke-linejoin="round" stroke-linecap="round" stroke-width="2" stroke="rgb(52, 58, 64)" fill="none" d="M 48 1 c 0.32 0.21 11.72 8.7 18 12 c 6.9 3.62 14.35 6.37 22 9 c 15.17 5.21 29.81 10.87 45 14 c 16.88 3.48 34.31 5.24 52 6 c 37.51 1.61 73.12 1.49 111 1 c 14.71 -0.19 29.45 -0.61 43 -3 c 8.35 -1.47 18.96 -5.87 25 -9 c 1.22 -0.63 2.51 -4.28 2 -5 c -0.69 -0.97 -4.63 -1.74 -7 -2 c -12.42 -1.38 -24.91 -2.54 -38 -3 c -45.7 -1.6 -89.54 -4.81 -133 -3 c -19.61 0.82 -39.9 6.48 -59 11 c -5.85 1.39 -11.49 4.25 -17 7 c -6.58 3.29 -12.4 7.61 -19 11 c -5.92 3.04 -11.84 5.95 -18 8 c -6.75 2.25 -13.98 4.19 -21 5 c -10.09 1.16 -21.11 1.46 -31 1 c -3.94 -0.18 -8.46 -1.48 -12 -3 c -3.1 -1.33 -7.09 -3.9 -9 -6 c -0.9 -0.99 -1.1 -4.8 -1 -5 c 0.07 -0.14 1.12 2.8 2 3 c 4.93 1.12 13.17 1.86 20 2 c 44.5 0.88 85.75 -0.3 131 1 c 50.83 1.46 96.86 3.66 147 7 c 16.48 1.1 32 3.3 48 6 c 7.86 1.33 15.2 3.68 23 6 l 24 8"/></svg>