<?xml version="1.0" encoding="UTF-8" standalone="no"?><!DOCTYPE svg PUBLIC "-//W3C//DTD SVG 1.1//EN" "http://www.w3.org/Graphics/SVG/1.1/DTD/svg11.dtd"><svg xmlns="http://www.w3.org/2000/svg" version="1.1" width="449" height="105"><path stroke-linejoin="round" stroke-linecap="round" stroke-width="2" stroke="rgb(52, 58, 64)" fill="none" d="M 104 30 l 1 1"/><path stroke-linejoin="round" stroke-linecap="round" stroke-width="2" stroke="rgb(52, 58, 64)" fill="none" d="M 9 78 c 0.02 0.14 -0.17 6.57 1 8 c 1.24 1.51 5.44 2.91 8 3 c 6.31 0.22 14.29 -0.62 21 -2 c 6.04 -1.24 12.22 -3.5 18 -6 c 6.54 -2.83 13.15 -6.1 19 -10 c 6 -4 11.91 -8.91 17 -14 c 4.44 -4.44 8.49 -9.73 12 -15 c 3.11 -4.66 5.93 -9.92 8 -15 c 1.51 -3.7 2.64 -8.18 3 -12 c 0.27 -2.8 -0.23 -6.48 -1 -9 c -0.43 -1.39 -1.89 -3.2 -3 -4 c -0.92 -0.66 -3.15 -1.46 -4 -1 c -2.04 1.11 -5.63 4.61 -7 7 c -0.98 1.71 -1.24 4.86 -1 7 c 0.38 3.45 1.71 7.41 3 11 c 1.73 4.79 3.51 9.57 6 14 c 6.53 11.61 13.2 23.15 21 34 c 7.62 10.6 23.76 27.78 25 30 c 0.33 0.59 -6.87 -1.6 -10 -3 c -6.44 -2.89 -12.35 -7.02 -19 -10 c -13.06 -5.85 -25.52 -10.83 -39 -16 c -7.08 -2.71 -13.81 -5.07 -21 -7 c -6.62 -1.78 -13.52 -3.88 -20 -4 c -10.21 -0.2 -22.41 1.13 -32 3 c -3.07 0.6 -6.67 3.02 -9 5 c -1.63 1.38 -4 4.28 -4 6 c 0 2.34 2.35 6.99 4 9 c 0.9 1.1 3.54 2.26 5 2 c 6.5 -1.16 15.61 -4.04 23 -7 c 7.57 -3.03 14.84 -6.74 22 -11 c 17.93 -10.66 33.92 -21.91 52 -33 c 7.75 -4.76 15.08 -9.23 23 -13 c 6.07 -2.89 12.73 -5.61 19 -7 c 5.27 -1.17 11.89 -1.68 17 -1 c 4.18 0.56 9.17 2.84 13 5 c 3.52 1.99 6.92 5.09 10 8 c 2.9 2.74 5.82 5.81 8 9 c 2.02 2.96 4.84 9.37 5 10 c 0.05 0.2 -2.34 -1.15 -3 -2 c -1.48 -1.9 -2.37 -4.92 -4 -7 c -4.29 -5.49 -9.04 -11.25 -14 -16 c -2.85 -2.73 -6.61 -5.55 -10 -7 c -3.1 -1.33 -7.53 -2 -11 -2 c -3.47 0 -7.88 0.64 -11 2 c -4.03 1.75 -8.86 4.86 -12 8 c -3.44 3.44 -6.72 8.45 -9 13 c -2.91 5.83 -5.9 12.97 -7 19 c -0.76 4.18 -0.26 9.93 1 14 c 1.53 4.93 4.7 11.54 8 15 c 2.6 2.73 8.03 4.97 12 6 c 4.45 1.15 10.34 1.57 15 1 c 5.79 -0.7 12.35 -2.74 18 -5 c 5.82 -2.33 11.82 -5.49 17 -9 c 4.97 -3.36 9.87 -7.68 14 -12 c 3.05 -3.18 5.93 -7.24 8 -11 c 1.44 -2.63 3.16 -6.65 3 -9 c -0.12 -1.79 -2.44 -5.01 -4 -6 c -1.53 -0.97 -5.14 -1.59 -7 -1 c -3.65 1.15 -8.87 4.2 -12 7 c -2.75 2.46 -5.09 6.53 -7 10 l -4 10"/><path stroke-linejoin="round" stroke-linecap="round" stroke-width="2" stroke="rgb(52, 58, 64)" fill="none" d="M 231 76 c -0.02 -0.3 -0.35 -11.38 -1 -17 c -0.35 -3.04 -1.01 -6.19 -2 -9 c -0.96 -2.72 -2.91 -5.26 -4 -8 c -0.89 -2.23 -2.61 -6.15 -2 -7 c 0.59 -0.82 5.01 -0.63 7 0 c 3.82 1.21 8.16 3.61 12 6 c 19.47 12.13 37.49 25.44 57 37 c 7.58 4.49 15.87 8.34 24 11 c 7.86 2.56 16.6 4.12 25 5 c 10.55 1.11 22.17 1.86 32 1 c 4.57 -0.4 9.82 -2.68 14 -5 c 7.48 -4.16 16.45 -9.66 22 -15 c 2.52 -2.42 4.48 -7.72 5 -11 c 0.35 -2.24 -0.73 -6.16 -2 -8 c -1.33 -1.92 -4.65 -4.44 -7 -5 c -3.83 -0.91 -9.6 -0.75 -14 0 c -6.87 1.18 -14.28 3.21 -21 6 c -23 9.56 -68 31 -68 31"/><path stroke-linejoin="round" stroke-linecap="round" stroke-width="2" stroke="rgb(52, 58, 64)" fill="none" d="M 202 92 c 0.18 -0.16 6.44 -6.15 10 -9 c 4.92 -3.94 9.7 -8.15 15 -11 c 7.41 -3.99 15.69 -7.02 24 -10 c 9.71 -3.48 19.01 -6.79 29 -9 c 25.11 -5.55 49.35 -10.02 75 -14 c 13.85 -2.15 26.8 -2.93 41 -4 c 17.95 -1.35 52 -3 52 -3"/></svg>