<?xml version="1.0" encoding="UTF-8" standalone="no"?><!DOCTYPE svg PUBLIC "-//W3C//DTD SVG 1.1//EN" "http://www.w3.org/Graphics/SVG/1.1/DTD/svg11.dtd"><svg xmlns="http://www.w3.org/2000/svg" version="1.1" width="484" height="111"><path stroke-linejoin="round" stroke-linecap="round" stroke-width="2" stroke="rgb(52, 58, 64)" fill="none" d="M 1 52 c 0.11 -0.02 4.08 -0.42 6 -1 c 4.7 -1.41 9.42 -2.98 14 -5 c 6.89 -3.04 13.06 -7.07 20 -10 c 8.25 -3.48 17.51 -4.97 25 -9 c 9.31 -5.01 20.26 -12.95 27 -19 c 1.49 -1.33 2.57 -6.92 2 -7 c -0.84 -0.12 -6.89 3.49 -9 6 c -4.38 5.22 -8.57 12.6 -12 19 c -1.45 2.7 -2.45 6.07 -3 9 c -0.41 2.16 -0.56 5.03 0 7 c 0.65 2.26 2.43 5.08 4 7 c 1.25 1.53 3.29 3.79 5 4 c 5.08 0.63 13.22 0.23 19 -1 c 4.63 -0.98 9.15 -4.29 14 -6 c 7.66 -2.69 17.06 -5.86 23 -7 c 0.89 -0.17 2.41 1.17 3 2 c 0.89 1.24 1.57 3.29 2 5 c 0.89 3.55 0.87 7.79 2 11 c 0.73 2.07 2.46 4.3 4 6 c 1.67 1.84 3.85 3.92 6 5 c 3.49 1.74 7.93 3.02 12 4 c 4.24 1.02 8.8 2.11 13 2 c 8.05 -0.21 17.19 -1.39 25 -3 c 3.06 -0.63 6 -3.4 9 -4 c 4.88 -0.98 11.47 -1.59 16 -1 c 2.28 0.3 5.3 2.3 7 4 c 2.28 2.28 4.56 5.95 6 9 c 1.09 2.33 1.01 5.82 2 8 c 0.51 1.12 2.05 3.11 3 3 c 3.31 -0.39 9.14 -3.6 14 -5 c 12.85 -3.71 25.58 -8.51 38 -10 c 11.7 -1.4 25.53 -0.38 37 1 c 4.32 0.52 9.38 2.83 13 5 c 2.58 1.55 5.99 4.81 7 7 c 0.62 1.35 -0.32 4.24 -1 6 c -0.9 2.34 -2.34 5.49 -4 7 c -1.57 1.42 -4.81 1.77 -7 3 c -3.11 1.75 -6.12 4.92 -9 6 c -1.86 0.7 -5.27 0.63 -7 0 c -1.4 -0.51 -3.45 -2.62 -4 -4 c -0.58 -1.46 -0.65 -4.57 0 -6 c 0.77 -1.69 3.11 -3.83 5 -5 c 4.78 -2.96 10.47 -5.87 16 -8 c 7.43 -2.86 15.17 -5.28 23 -7 c 8.89 -1.96 18.22 -3.62 27 -4 c 6.14 -0.27 13.08 0.4 19 2 c 9.62 2.61 19.05 8.16 29 11 l 41 9"/></svg>