<?xml version="1.0" encoding="UTF-8" standalone="no"?><!DOCTYPE svg PUBLIC "-//W3C//DTD SVG 1.1//EN" "http://www.w3.org/Graphics/SVG/1.1/DTD/svg11.dtd"><svg xmlns="http://www.w3.org/2000/svg" version="1.1" width="511" height="108"><path stroke-linejoin="round" stroke-linecap="round" stroke-width="2" stroke="rgb(52, 58, 64)" fill="none" d="M 56 60 c -0.3 -0.89 -10.87 -36.18 -17 -51 c -1.13 -2.73 -4.93 -6.41 -7 -7 c -1.59 -0.45 -5.07 1.6 -7 3 c -3.77 2.72 -8.51 6.21 -11 10 c -4.04 6.16 -7.72 14.63 -10 22 c -1.91 6.16 -2.31 13.29 -3 20 c -0.31 2.98 -0.18 5.98 0 9 c 0.16 2.71 0.28 5.66 1 8 c 0.52 1.69 1.84 3.51 3 5 c 1.12 1.44 2.58 2.93 4 4 c 1.12 0.84 2.72 1.9 4 2 c 2.58 0.2 7.29 0.57 9 -1 c 4.88 -4.47 10.43 -14.02 15 -21 c 0.95 -1.46 1.11 -3.76 2 -5 c 0.59 -0.83 2.21 -2 3 -2 c 0.79 0 2.33 1.13 3 2 c 2.41 3.14 4.9 7.26 7 11 c 0.87 1.55 1.15 4.43 2 5 c 0.65 0.43 2.76 -1.09 4 -1 c 3.06 0.22 7.67 2.78 10 2 c 2.58 -0.86 5.21 -5.64 8 -8 c 1.44 -1.22 3.56 -2.86 5 -3 c 1.33 -0.13 3.76 1.11 5 2 c 0.83 0.59 1.19 2.33 2 3 l 4 2"/><path stroke-linejoin="round" stroke-linecap="round" stroke-width="2" stroke="rgb(52, 58, 64)" fill="none" d="M 128 64 c -0.02 0.23 -1.16 8.76 -1 13 c 0.17 4.6 0.92 9.69 2 14 c 0.51 2.04 2.63 4.03 3 6 c 0.55 2.93 0.6 8.65 0 10 c -0.25 0.56 -4.15 -0.94 -4 -1 c 0.33 -0.13 6.39 -0.35 9 -1 c 1.04 -0.26 2.1 -1.21 3 -2 c 7.44 -6.55 14.48 -13.55 22 -20 c 1.82 -1.56 4.43 -2.35 6 -4 c 4.17 -4.4 8.98 -9.69 12 -15 c 3.73 -6.58 5.85 -15.45 9 -22 c 0.56 -1.17 2.58 -3.21 3 -3 c 0.5 0.25 0.45 3.54 1 5 c 0.39 1.03 1.21 2.1 2 3 c 3.87 4.43 7.79 9.75 12 13 c 2.56 1.98 6.79 3.2 10 4 c 1.79 0.45 4.24 -0.35 6 0 c 1.31 0.26 2.77 1.86 4 2 c 1.4 0.16 3.4 -1.08 5 -1 c 5.06 0.24 10.59 1.63 16 2 l 13 0"/><path stroke-linejoin="round" stroke-linecap="round" stroke-width="2" stroke="rgb(52, 58, 64)" fill="none" d="M 303 70 c 0.09 0.33 4.91 18.67 5 19 c 0.02 0.09 -1 -5 -1 -5"/><path stroke-linejoin="round" stroke-linecap="round" stroke-width="2" stroke="rgb(52, 58, 64)" fill="none" d="M 294 14 c 0.04 -0.05 1.13 -2.31 2 -3 c 3.8 -3.04 8.72 -7.29 13 -9 c 3.26 -1.3 8.41 -1.21 12 -1 c 1.6 0.09 3.54 1.12 5 2 c 1.74 1.05 3.54 2.54 5 4 c 1.14 1.14 2.45 2.62 3 4 c 0.67 1.68 1.35 4.25 1 6 c -0.86 4.28 -2.87 9.93 -5 14 c -1.32 2.53 -6 7 -6 7"/><path stroke-linejoin="round" stroke-linecap="round" stroke-width="2" stroke="rgb(52, 58, 64)" fill="none" d="M 347 81 c 0.02 0.07 0.34 3.67 1 4 c 0.82 0.41 3.58 -0.35 5 -1 c 2.01 -0.91 6 -4 6 -4"/><path stroke-linejoin="round" stroke-linecap="round" stroke-width="2" stroke="rgb(52, 58, 64)" fill="none" d="M 385 75 c -0.03 0.09 -2.28 3.68 -2 5 c 0.54 2.53 3.22 7.02 5 9 c 0.71 0.79 2.94 1.23 4 1 c 1.49 -0.33 3.7 -1.7 5 -3 c 4.42 -4.42 9.74 -9.57 13 -15 c 5.43 -9.06 13.76 -29.47 14 -30 c 0.03 -0.07 -1.63 2.62 -2 4 c -0.92 3.44 -1.86 7.4 -2 11 c -0.18 4.52 1 14 1 14"/><path stroke-linejoin="round" stroke-linecap="round" stroke-width="2" stroke="rgb(52, 58, 64)" fill="none" d="M 427 67 c 0 0.09 -0.34 3.62 0 5 c 0.25 1 1.22 2.93 2 3 c 1.98 0.18 7.15 -3.02 9 -2 c 3.42 1.88 7.38 10.19 11 13 c 1.5 1.17 5.09 1.41 7 1 c 2.18 -0.47 5.09 -2.33 7 -4 c 3.18 -2.79 6.59 -6.39 9 -10 c 3.44 -5.16 7.71 -17 9 -17 c 1.15 0 1.13 14.83 2 17 c 0.23 0.57 3.42 -1.07 4 -2 c 0.79 -1.26 0.28 -4.24 1 -6 c 1.49 -3.62 5.25 -10.46 6 -11 c 0.37 -0.26 0.22 4.33 1 6 l 6 9"/><path stroke-linejoin="round" stroke-linecap="round" stroke-width="2" stroke="rgb(52, 58, 64)" fill="none" d="M 510 65 c -0.63 -0.12 -23.6 -4.28 -36 -7 c -27.06 -5.94 -78 -18 -78 -18"/></svg>