<?xml version="1.0" encoding="UTF-8" standalone="no"?><!DOCTYPE svg PUBLIC "-//W3C//DTD SVG 1.1//EN" "http://www.w3.org/Graphics/SVG/1.1/DTD/svg11.dtd"><svg xmlns="http://www.w3.org/2000/svg" version="1.1" width="358" height="127"><path stroke-linejoin="round" stroke-linecap="round" stroke-width="2" stroke="rgb(52, 58, 64)" fill="none" d="M 68 70 c -0.04 0.05 -1.2 2.2 -2 3 c -1.1 1.1 -2.59 2.02 -4 3 c -3.06 2.12 -5.89 4.25 -9 6 c -2.19 1.23 -4.66 2.41 -7 3 c -2.79 0.7 -6.05 1 -9 1 c -2.95 0 -5.98 -0.5 -9 -1 c -3.07 -0.51 -6.19 -1.01 -9 -2 c -2.72 -0.96 -6.14 -2.14 -8 -4 c -3.29 -3.29 -7.07 -8.76 -9 -13 c -1.1 -2.43 -1.44 -6.25 -1 -9 c 1.12 -6.93 3.14 -15.7 6 -22 c 1.78 -3.92 5.85 -8.06 9 -11 c 1.49 -1.39 3.99 -2.38 6 -3 c 2.12 -0.65 4.64 -0.83 7 -1 c 2.33 -0.17 4.97 -0.47 7 0 c 1.95 0.45 4.19 1.79 6 3 c 2.11 1.4 4.3 3.15 6 5 c 1.87 2.04 4.03 4.49 5 7 c 2.82 7.29 5.96 16.03 7 24 c 1.55 11.79 1.59 24.83 1 37 c -0.4 8.33 -2.4 17.52 -4 25 c -0.23 1.07 -1.22 2.22 -2 3 c -0.78 0.78 -2.1 2 -3 2 c -1.57 0 -4.67 -1 -6 -2 c -0.94 -0.7 -1.71 -2.65 -2 -4 c -0.65 -3.04 -1.23 -6.74 -1 -10 c 0.75 -10.46 2.02 -21.36 4 -32 c 1.72 -9.2 4.26 -18.09 7 -27 c 1.28 -4.15 3.17 -8.79 5 -12 c 0.51 -0.89 2.24 -2.11 3 -2 c 1.05 0.15 3.64 1.82 4 3 c 0.73 2.36 0.78 7.12 0 10 c -1.05 3.86 -6 12.33 -6 12 c 0 -0.6 3.18 -16.68 6 -24 c 1.99 -5.18 5.86 -10.65 9 -15 c 0.9 -1.24 2.68 -2.56 4 -3 c 1.32 -0.44 4.2 -0.69 5 0 c 1.01 0.87 1.83 4.16 2 6 c 0.13 1.48 -0.35 3.52 -1 5 c -1.59 3.63 -3.74 7.72 -6 11 c -1.27 1.85 -5.38 5 -5 5 c 0.9 0 11.34 -4.36 16 -5 c 1.76 -0.24 4.65 0.95 6 2 c 1.25 0.97 2.56 3.37 3 5 c 0.46 1.68 0.14 3.99 0 6 c -0.19 2.7 -0.31 5.5 -1 8 c -0.93 3.34 -2.18 7.19 -4 10 c -2.28 3.51 -6.02 7.81 -9 10 c -1.35 0.99 -4.21 1.28 -6 1 c -4.01 -0.63 -8.89 -2.36 -13 -4 c -2.44 -0.97 -4.93 -2.39 -7 -4 l -11 -10"/><path stroke-linejoin="round" stroke-linecap="round" stroke-width="2" stroke="rgb(52, 58, 64)" fill="none" d="M 156 34 c -0.07 -0.07 -2.51 -2.94 -4 -4 c -3.06 -2.19 -6.56 -4.28 -10 -6 c -2.52 -1.26 -5.32 -2.44 -8 -3 c -3.46 -0.73 -7.93 -1.38 -11 -1 c -1.62 0.2 -3.76 1.76 -5 3 c -1.53 1.53 -3.07 3.87 -4 6 c -2.32 5.33 -4.91 11.37 -6 17 c -1.16 5.94 -1 12.75 -1 19 c 0 2.32 0.29 5.05 1 7 c 0.5 1.38 1.9 2.9 3 4 c 0.8 0.8 2.06 2 3 2 c 2.4 0 6.27 -0.98 9 -2 c 2.39 -0.9 5.1 -2.32 7 -4 c 3.51 -3.1 7.18 -7.18 10 -11 c 1.69 -2.3 2.91 -5.26 4 -8 c 0.89 -2.23 1.82 -4.85 2 -7 c 0.13 -1.51 -0.45 -3.54 -1 -5 c -0.39 -1.03 -1.22 -2.22 -2 -3 c -0.78 -0.78 -2.05 -1.89 -3 -2 c -1.61 -0.18 -4.32 0.33 -6 1 c -1.38 0.55 -4.11 2.66 -4 3 c 0.11 0.34 3.55 0.5 5 0 c 7.52 -2.59 16.48 -7.41 24 -10 c 1.45 -0.5 3.9 -0.55 5 0 c 1.1 0.55 3 2.71 3 4 c 0 4.19 -2.54 10.96 -3 16 c -0.17 1.88 0.25 5.79 1 6 c 0.89 0.25 4.66 -2.3 6 -4 c 3.26 -4.13 8.3 -14.22 9 -15 c 0.2 -0.22 0.27 3.4 0 5 c -0.71 4.27 -2.55 8.99 -3 13 c -0.17 1.53 0.47 3.42 1 5 c 0.79 2.36 1.67 6.2 3 7 c 1.24 0.74 5.24 -0.12 7 -1 c 1.76 -0.88 3.69 -3.16 5 -5 c 1.91 -2.67 3.49 -5.85 5 -9 c 2.57 -5.34 4.8 -10.49 7 -16 c 1.2 -2.99 2.38 -6.09 3 -9 c 0.33 -1.54 0.48 -5.07 0 -5 c -0.88 0.13 -5.68 3.8 -7 6 c -1.32 2.2 -1.6 5.93 -2 9 c -0.95 7.36 -1.8 14.66 -2 22 l 1 15"/><path stroke-linejoin="round" stroke-linecap="round" stroke-width="2" stroke="rgb(52, 58, 64)" fill="none" d="M 247 36 c -0.17 0.02 -7.35 -0.2 -10 1 c -3.95 1.8 -8.93 5.74 -12 9 c -1.83 1.94 -3.05 5.33 -4 8 c -0.65 1.81 -1.16 4.25 -1 6 c 0.14 1.55 1.07 3.75 2 5 c 0.87 1.16 2.62 2.5 4 3 c 1.95 0.71 4.98 1.29 7 1 c 2.18 -0.31 5.11 -1.61 7 -3 c 2.81 -2.06 5.58 -5.12 8 -8 c 2.91 -3.46 5.83 -7.16 8 -11 c 2.07 -3.67 3.71 -7.94 5 -12 c 1.01 -3.19 1.58 -6.6 2 -10 c 0.58 -4.68 1 -9.46 1 -14 c 0 -1.97 -0.45 -4.15 -1 -6 c -0.41 -1.36 -1.09 -3.55 -2 -4 c -1.22 -0.61 -5.21 -0.89 -6 0 c -1.22 1.37 -1.83 6.13 -2 9 c -0.15 2.51 0.55 5.28 1 8 c 0.57 3.44 0.95 6.77 2 10 c 3.62 11.12 8.19 21.57 12 33 c 3.06 9.17 5.93 18.02 8 27 c 0.89 3.84 0.8 7.9 1 12 c 0.15 3.06 0.36 6.15 0 9 c -0.29 2.3 -1.1 4.84 -2 7 c -0.72 1.73 -1.84 4 -3 5 c -0.82 0.7 -2.75 1 -4 1 c -1.85 0 -4.38 -0.26 -6 -1 c -1.71 -0.78 -3.84 -2.45 -5 -4 c -1.62 -2.16 -3.14 -5.28 -4 -8 c -1.07 -3.39 -1.86 -7.4 -2 -11 c -0.18 -4.52 0.04 -9.54 1 -14 c 1.65 -7.64 4.06 -15.76 7 -23 c 1.97 -4.86 5.01 -9.51 8 -14 c 3.05 -4.57 6.31 -9.14 10 -13 c 3.51 -3.67 7.77 -7.12 12 -10 c 4 -2.72 8.59 -5.43 13 -7 c 4.57 -1.63 9.92 -2.34 15 -3 c 5.33 -0.69 10.57 -1 16 -1 l 24 1"/></svg>