<?xml version="1.0" encoding="UTF-8" standalone="no"?><!DOCTYPE svg PUBLIC "-//W3C//DTD SVG 1.1//EN" "http://www.w3.org/Graphics/SVG/1.1/DTD/svg11.dtd"><svg xmlns="http://www.w3.org/2000/svg" version="1.1" width="560" height="172"><path stroke-linejoin="round" stroke-linecap="round" stroke-width="2" stroke="rgb(52, 58, 64)" fill="none" d="M 12 35 c -0.09 0.26 -3.71 9.86 -5 15 c -1.74 6.95 -3 13.82 -4 21 c -1.04 7.42 -2.22 16.43 -2 22 c 0.04 1.07 2.55 3.27 3 3 c 0.67 -0.4 1.02 -4.23 2 -6 c 2.24 -4.04 5.18 -7.88 8 -12 c 1.68 -2.46 3.18 -4.98 5 -7 c 1.06 -1.17 2.57 -2.39 4 -3 c 2.98 -1.28 8.06 -3.91 10 -3 c 2.43 1.14 4.41 7.81 7 11 c 1.55 1.91 3.99 3.79 6 5 c 1.06 0.64 2.93 1.33 4 1 c 3.47 -1.08 8.68 -3.6 12 -6 c 2.28 -1.65 4.76 -4.39 6 -7 c 5.08 -10.67 10.45 -23.45 14 -35 c 1.61 -5.25 1.62 -11.25 2 -17 c 0.29 -4.37 0.46 -9.33 0 -13 l -2 -3"/><path stroke-linejoin="round" stroke-linecap="round" stroke-width="2" stroke="rgb(52, 58, 64)" fill="none" d="M 90 26 c -0.26 0.04 -11.55 0.78 -15 2 c -1.02 0.36 -2 2.72 -2 4 c 0 4.88 0.94 11.5 2 17 c 0.59 3.05 2.3 5.94 3 9 c 0.97 4.25 1.1 8.66 2 13 c 0.78 3.77 1.78 7.33 3 11 c 1.84 5.51 3.78 10.82 6 16 l 3 5"/><path stroke-linejoin="round" stroke-linecap="round" stroke-width="2" stroke="rgb(52, 58, 64)" fill="none" d="M 128 73 c -0.03 0.09 -1.85 3.35 -2 5 c -0.47 5.21 -0.24 11.32 0 17 c 0.1 2.36 0.45 4.78 1 7 c 0.42 1.69 1.06 3.9 2 5 c 0.78 0.91 2.64 1.59 4 2 c 1.85 0.55 4.45 1.31 6 1 c 1.27 -0.25 2.91 -1.82 4 -3 c 2.8 -3.03 6.44 -6.37 8 -10 c 4.08 -9.51 8.06 -22.8 10 -32 c 0.37 -1.74 -1.49 -5.62 -2 -6 c -0.29 -0.22 -1.92 1.98 -2 3 c -0.5 6.81 -0.25 15.9 0 24 c 0.09 3.06 0.59 5.91 1 9 c 0.28 2.07 0.36 4.24 1 6 c 0.61 1.69 1.84 4 3 5 c 0.82 0.7 2.79 1.1 4 1 c 2.43 -0.2 6.03 -0.65 8 -2 c 3.72 -2.55 7.97 -6.96 11 -11 c 4.81 -6.41 8.92 -13.93 13 -21 c 0.89 -1.54 1.74 -5.17 2 -5 c 0.34 0.23 0.93 4.64 1 7 c 0.27 9.69 0 29 0 29"/><path stroke-linejoin="round" stroke-linecap="round" stroke-width="2" stroke="rgb(52, 58, 64)" fill="none" d="M 197 61 c 0.09 -0.09 3.19 -3.79 5 -5 c 1.95 -1.3 4.62 -2.34 7 -3 c 3.5 -0.97 7.41 -1.85 11 -2 c 4.19 -0.17 8.71 0.34 13 1 c 4.39 0.68 8.92 1.58 13 3 c 3.42 1.19 7.28 2.92 10 5 c 2.59 1.98 4.95 5.16 7 8 c 2.25 3.12 4.64 6.53 6 10 c 2.19 5.56 4.13 12.35 5 18 c 0.38 2.44 -0.09 5.72 -1 8 c -1.57 3.93 -4.52 8.29 -7 12 c -0.76 1.13 -2.18 2.86 -3 3 c -0.7 0.12 -2.76 -1.27 -3 -2 c -0.28 -0.83 0.39 -2.83 1 -4 c 3.89 -7.5 8.15 -15.5 13 -23 c 6.32 -9.77 12.94 -19.29 20 -28 c 2.76 -3.4 6.45 -6.74 10 -9 c 3.43 -2.18 8.02 -3.92 12 -5 c 3.07 -0.84 6.82 -1.16 10 -1 c 3.23 0.16 7.33 0.86 10 2 c 1.48 0.63 3.04 2.51 4 4 c 1.9 2.95 3.97 6.63 5 10 c 1.21 3.97 0.91 8.81 2 13 c 1.23 4.73 4.47 9.48 5 14 c 0.72 6.09 -1.22 19.1 -1 20 c 0.1 0.4 2.56 -6.88 4 -8 c 0.82 -0.64 3.65 0.32 5 1 c 1.7 0.85 3.19 2.87 5 4 c 6.21 3.88 12.54 7.97 19 11 c 4 1.87 8.58 3.02 13 4 c 4.59 1.02 9.4 1.83 14 2 c 4.24 0.16 8.92 -0.15 13 -1 c 3.66 -0.76 7.52 -2.33 11 -4 c 4.14 -1.98 8.32 -4.33 12 -7 c 3.56 -2.59 6.93 -5.76 10 -9 c 2.92 -3.08 6.38 -6.59 8 -10 c 1.42 -2.98 2 -7.49 2 -11 c 0 -4.44 -0.66 -9.82 -2 -14 c -1.18 -3.7 -3.36 -8.36 -6 -11 c -4.09 -4.09 -10.5 -8.48 -16 -11 c -5.57 -2.55 -12.61 -4.11 -19 -5 c -10.11 -1.41 -21.3 -2.95 -31 -2 c -9.7 0.95 -20.71 4.32 -30 8 c -7.9 3.13 -16.85 8.01 -23 13 c -3.68 2.99 -7.73 8.86 -9 13 c -1.05 3.41 -0.34 9.99 1 13 c 0.88 1.99 4.49 4.16 7 5 c 8.7 2.9 19.2 5.58 29 7 c 13.18 1.91 26.56 1.19 40 3 c 16.69 2.25 32.08 6.31 49 9 c 13.36 2.12 25.88 2.72 39 5 c 10.28 1.79 19.8 4.3 30 7 c 7.96 2.1 16.03 4.04 23 7 c 3.54 1.5 9.09 4.53 10 7 c 0.92 2.5 -0.9 9.06 -3 12 l -22 23"/></svg>