<?xml version="1.0" encoding="UTF-8" standalone="no"?><!DOCTYPE svg PUBLIC "-//W3C//DTD SVG 1.1//EN" "http://www.w3.org/Graphics/SVG/1.1/DTD/svg11.dtd"><svg xmlns="http://www.w3.org/2000/svg" version="1.1" width="399" height="87"><path stroke-linejoin="round" stroke-linecap="round" stroke-width="2" stroke="rgb(52, 58, 64)" fill="none" d="M 81 11 c 1.12 0.1 42.08 4.7 64 6 c 18.42 1.09 35.99 1.64 54 1 c 10.42 -0.37 21.2 -1.95 31 -4 c 4.08 -0.85 8.19 -3.01 12 -5 c 3.82 -2 10.88 -6.04 11 -7 c 0.09 -0.74 -7.22 -1.58 -10 -1 c -2.85 0.6 -6.18 3.07 -9 5 c -3.5 2.4 -7.15 4.9 -10 8 c -12.33 13.4 -23.47 28.19 -36 42 c -4.01 4.42 -8.33 8.69 -13 12 c -5.43 3.85 -11.83 7.7 -18 10 c -7.7 2.87 -16.58 4.86 -25 6 c -11.15 1.51 -22.31 1.64 -34 2 c -10.64 0.33 -20.87 0.9 -31 0 c -8.33 -0.74 -16.87 -2.7 -25 -5 c -7.17 -2.03 -14.33 -4.75 -21 -8 c -6.92 -3.38 -17.76 -9.9 -20 -12 c -0.48 -0.45 2.6 -2.67 4 -3 c 3.64 -0.86 8.63 -1 13 -1 c 5.7 0 11.18 0.45 17 1 c 8.6 0.82 16.39 1.7 25 3 c 32.53 4.92 61.46 10.21 94 15 c 14.46 2.13 27.69 4.42 42 5 c 44.65 1.8 87.42 2.51 132 2 c 14.25 -0.16 28.88 -1.34 42 -4 c 7.39 -1.5 15.28 -5.64 22 -9 l 6 -5"/></svg>