<?xml version="1.0" encoding="UTF-8" standalone="no"?><!DOCTYPE svg PUBLIC "-//W3C//DTD SVG 1.1//EN" "http://www.w3.org/Graphics/SVG/1.1/DTD/svg11.dtd"><svg xmlns="http://www.w3.org/2000/svg" version="1.1" width="251" height="73"><path stroke-linejoin="round" stroke-linecap="round" stroke-width="2" stroke="rgb(52, 58, 64)" fill="none" d="M 1 15 c 0.21 0.03 7.99 1.95 12 2 c 23.76 0.28 47.43 -0.06 72 -1 c 11.31 -0.43 21.65 -1.72 33 -3 c 10.03 -1.13 19.96 -1.69 29 -4 c 6.08 -1.55 16.01 -8 18 -8 c 0.83 0 -1.8 5.35 -2 8 c -0.45 5.79 -0.52 12.09 0 18 c 0.47 5.34 1.79 10.69 3 16 c 0.47 2.06 0.74 4.68 2 6 c 4.66 4.89 11.81 11.46 18 15 c 4.68 2.68 11.23 3.93 17 5 c 8.52 1.58 17.36 2.6 26 3 c 5.62 0.26 13.01 0.33 17 -1 l 4 -6"/></svg>