<?xml version="1.0" encoding="UTF-8" standalone="no"?><!DOCTYPE svg PUBLIC "-//W3C//DTD SVG 1.1//EN" "http://www.w3.org/Graphics/SVG/1.1/DTD/svg11.dtd"><svg xmlns="http://www.w3.org/2000/svg" version="1.1" width="371" height="131"><path stroke-linejoin="round" stroke-linecap="round" stroke-width="2" stroke="rgb(52, 58, 64)" fill="none" d="M 1 29 l 1 1"/><path stroke-linejoin="round" stroke-linecap="round" stroke-width="2" stroke="rgb(52, 58, 64)" fill="none" d="M 23 73 c -0.16 0.65 -5.86 25.58 -9 37 c -0.3 1.08 -2.03 3.08 -2 3 c 0.3 -0.85 8.81 -22.2 13 -34 c 3.38 -9.53 5.1 -19.23 9 -28 c 3.98 -8.95 9.56 -18.29 15 -26 c 2.18 -3.09 5.8 -5.6 9 -8 c 3.46 -2.6 8.09 -6.03 11 -7 c 1 -0.33 3.64 1.16 4 2 c 0.41 0.96 -1 3.4 -1 5 c 0 2.53 1.14 5.39 1 8 c -0.51 9.45 -1.61 19.3 -3 29 c -0.63 4.44 -3 13 -3 13"/><path stroke-linejoin="round" stroke-linecap="round" stroke-width="2" stroke="rgb(52, 58, 64)" fill="none" d="M 70 81 c 0.11 -0.47 3.02 -19.05 6 -27 c 1.7 -4.54 5.43 -9.84 9 -13 c 4.46 -3.94 12.7 -8.88 17 -10 c 1.57 -0.41 5.44 2.25 6 4 c 1.88 5.86 2.36 15.73 3 24 c 1.76 22.6 2.74 59.9 4 66 c 0.22 1.04 5.54 -5.16 8 -8 c 1.87 -2.16 3.66 -4.49 5 -7 c 3.97 -7.44 7.79 -14.97 11 -23 c 6.98 -17.44 12.22 -34.26 19 -52 c 2.14 -5.6 5.89 -14.4 7 -16 c 0.23 -0.33 2.1 2.03 2 3 c -1.54 15.69 -5.81 38.53 -8 58 c -0.49 4.32 0.36 8.73 0 13 c -0.31 3.68 -1.79 7.56 -2 11 c -0.1 1.57 0.94 5.19 1 5 c 0.21 -0.73 0.73 -13.48 3 -19 c 4.34 -10.54 11.27 -23.64 18 -32 c 3.21 -3.98 9.95 -6.36 15 -9 c 1.82 -0.96 4.19 -2 6 -2 c 2.37 0 6.17 0.63 8 2 c 2.84 2.13 6.09 6.45 8 10 c 2.55 4.74 5.1 10.78 6 16 c 1 5.81 0.51 12.64 0 19 c -0.84 10.46 -4 28.71 -4 31 c 0 0.41 3.04 -2.51 4 -4 c 1.9 -2.95 3.49 -6.49 5 -10 c 7.05 -16.35 13.85 -31.41 20 -48 c 5.09 -13.72 9 -27.12 13 -41 l 2 -11"/><path stroke-linejoin="round" stroke-linecap="round" stroke-width="2" stroke="rgb(52, 58, 64)" fill="none" d="M 251 8 c -0.02 0.96 -1.25 36.54 -1 55 c 0.08 6.08 0.54 12.29 2 18 c 2.47 9.67 6.36 20.16 10 29 c 0.76 1.85 2.55 3.73 4 5 c 1.02 0.89 3.26 2.49 4 2 c 2.12 -1.41 5.93 -6.4 8 -10 c 4.13 -7.17 7.5 -15 11 -23 c 3.7 -8.45 6.89 -16.33 10 -25 c 3.4 -9.48 6.33 -18.34 9 -28 c 2.79 -10.12 6.89 -29.47 7 -30 c 0.02 -0.09 -1.93 3.37 -2 5 c -0.24 6.04 1.29 13.37 1 20 c -0.38 8.67 -1.61 17.17 -3 26 c -1.68 10.65 -6 31 -6 31"/><path stroke-linejoin="round" stroke-linecap="round" stroke-width="2" stroke="rgb(52, 58, 64)" fill="none" d="M 307 81 c 0.51 -0.7 19.75 -28.64 29 -40 c 1.26 -1.54 4.22 -2.64 6 -3 c 1.1 -0.22 3.47 0.26 4 1 c 0.78 1.09 1.66 4.54 1 6 c -1.85 4.12 -6.32 9.5 -10 14 c -5.45 6.67 -12.32 12.68 -17 19 c -1.57 2.12 -2.67 5.51 -3 8 c -0.27 2.06 0.45 4.78 1 7 c 0.42 1.69 0.89 3.84 2 5 c 5.56 5.81 13.13 12.35 20 18 c 2.41 1.98 5.17 3.68 8 5 c 7.13 3.33 22 9 22 9"/></svg>