<?xml version="1.0" encoding="UTF-8" standalone="no"?><!DOCTYPE svg PUBLIC "-//W3C//DTD SVG 1.1//EN" "http://www.w3.org/Graphics/SVG/1.1/DTD/svg11.dtd"><svg xmlns="http://www.w3.org/2000/svg" version="1.1" width="683" height="96"><path stroke-linejoin="round" stroke-linecap="round" stroke-width="2" stroke="rgb(52, 58, 64)" fill="none" d="M 5 32 c 0.07 0.21 3.09 7.99 4 12 c 0.72 3.19 1.19 6.73 1 10 c -0.47 8.18 -1.49 16.83 -3 25 c -0.81 4.41 -2.48 8.95 -4 13 l -2 3"/><path stroke-linejoin="round" stroke-linecap="round" stroke-width="2" stroke="rgb(52, 58, 64)" fill="none" d="M 51 5 c -0.33 0.45 -12.28 17.43 -19 26 c -3.1 3.96 -6.35 7.81 -10 11 c -4.22 3.7 -13.79 9.79 -14 10 c -0.14 0.14 6.54 -4.27 10 -6 c 3.2 -1.6 6.57 -2.96 10 -4 c 4.25 -1.29 9.75 -3.71 13 -3 c 3.12 0.68 7.97 5.13 10 8 c 1.46 2.07 1.92 6.04 2 9 c 0.24 9.01 -1.25 20.14 -1 28 c 0.03 1.01 1.38 2.88 2 3 c 0.62 0.12 2.19 -1.19 3 -2 c 1.76 -1.76 3.78 -3.8 5 -6 c 3.97 -7.19 7.8 -15.22 11 -23 c 1.43 -3.48 3.46 -8.99 3 -11 c -0.26 -1.12 -4.69 -2.65 -6 -2 c -3.37 1.69 -9.78 7.25 -12 11 c -1.5 2.55 -1.55 8.44 -1 11 c 0.25 1.16 2.79 2.88 4 3 c 1.53 0.15 4.19 -1.02 6 -2 c 6.69 -3.6 13.94 -7.41 20 -12 c 6.07 -4.59 16.68 -15.75 17 -16 c 0.17 -0.13 -6.18 5.86 -8 9 c -1.58 2.72 -3.16 8.23 -3 10 c 0.06 0.7 2.8 1.18 4 1 c 4.82 -0.72 11.34 -1.67 16 -4 c 11.93 -5.97 30.96 -21.46 36 -22 c 2.15 -0.23 -0.22 13.31 1 18 c 0.48 1.84 3.2 3.53 5 5 c 1.83 1.5 3.97 3.36 6 4 c 2.84 0.89 6.62 1 10 1 c 16.84 0 33.78 -1.88 50 -1 c 7.95 0.43 15.81 3.51 24 5 c 3.02 0.55 6.03 1 9 1 l 11 -1"/><path stroke-linejoin="round" stroke-linecap="round" stroke-width="2" stroke="rgb(52, 58, 64)" fill="none" d="M 160 36 c 0.45 0.05 17.07 2.26 26 3 c 7.51 0.63 14.5 1 22 1 c 8.52 0 25 -1 25 -1"/><path stroke-linejoin="round" stroke-linecap="round" stroke-width="2" stroke="rgb(52, 58, 64)" fill="none" d="M 382 1 c -0.17 0.09 -7.33 2.78 -10 5 c -4.89 4.08 -10.04 9.72 -14 15 c -2.85 3.8 -5.37 8.65 -7 13 c -1.24 3.3 -1.82 7.45 -2 11 c -0.14 2.87 0.02 6.71 1 9 c 0.77 1.79 3.23 4.18 5 5 c 2.02 0.93 5.54 1.26 8 1 c 3.48 -0.37 7.25 -1.85 11 -3 c 5.2 -1.6 10.04 -2.97 15 -5 c 9.97 -4.08 19.09 -8.99 29 -13 c 4.24 -1.72 11.58 -5.31 13 -4 c 1.67 1.54 -0.44 10.92 0 16 c 0.2 2.31 0.91 5.09 2 7 c 1.38 2.42 3.77 5.21 6 7 c 2.5 2 5.95 3.93 9 5 c 3.31 1.16 7.32 1.69 11 2 c 4.27 0.36 8.54 0.15 13 0 c 5.5 -0.19 10.56 -0.4 16 -1 c 9.94 -1.1 19.23 -3.22 29 -4 c 7.01 -0.56 14.3 -0.74 21 0 c 4.95 0.55 10.31 2.24 15 4 c 3.11 1.17 5.89 3.73 9 5 c 4.11 1.68 8.46 2.64 13 4 c 5.92 1.78 11.14 3.58 17 5 c 6.74 1.64 13.09 2.82 20 4 c 7.19 1.23 13.87 2.59 21 3 c 16.46 0.94 49 1 49 1"/></svg>