<?xml version="1.0" encoding="UTF-8" standalone="no"?><!DOCTYPE svg PUBLIC "-//W3C//DTD SVG 1.1//EN" "http://www.w3.org/Graphics/SVG/1.1/DTD/svg11.dtd"><svg xmlns="http://www.w3.org/2000/svg" version="1.1" width="547" height="86"><path stroke-linejoin="round" stroke-linecap="round" stroke-width="2" stroke="rgb(52, 58, 64)" fill="none" d="M 20 27 c 0.02 -0.12 1.12 -4.78 1 -7 c -0.19 -3.51 -0.95 -9.65 -2 -11 c -0.5 -0.65 -4.01 1.01 -5 2 c -0.99 0.99 -1.58 3.26 -2 5 c -3.9 16.22 -7.8 32.98 -11 49 l 0 6"/><path stroke-linejoin="round" stroke-linecap="round" stroke-width="2" stroke="rgb(52, 58, 64)" fill="none" d="M 72 -1 c -0.07 0.02 -2.8 0.42 -4 1 c -6.26 3 -12.61 6.31 -19 10 c -15.62 9.03 -37.43 21.05 -45 27 c -0.97 0.76 1.65 4.65 3 6 c 1.62 1.62 4.98 2.34 7 4 c 5.15 4.21 10.1 9.1 15 14 c 2.2 2.2 4.28 4.49 6 7 c 2.59 3.78 4.52 8.29 7 12 c 0.76 1.13 2.35 3 3 3 l 2 -3"/><path stroke-linejoin="round" stroke-linecap="round" stroke-width="2" stroke="rgb(52, 58, 64)" fill="none" d="M 74 31 c -0.02 -0.12 -0.03 -5.47 -1 -7 c -0.99 -1.56 -4.24 -3.87 -6 -4 c -2.08 -0.15 -6.59 1.35 -8 3 c -1.93 2.26 -3.29 7.43 -4 11 c -0.55 2.75 -0.36 6.15 0 9 c 0.29 2.3 1.28 6.28 2 7 c 0.36 0.36 2.34 -1.15 3 -2 c 1.48 -1.9 2.93 -4.66 4 -7 c 0.55 -1.2 0.38 -3.63 1 -4 c 0.62 -0.37 3.1 0.26 4 1 c 2.32 1.9 4.59 5.81 7 8 c 1.02 0.92 2.72 1.9 4 2 c 2.58 0.2 6.39 -0.35 9 -1 c 1.04 -0.26 2.27 -1.17 3 -2 c 1.45 -1.66 3.21 -6.43 4 -6 c 1.52 0.83 4.55 8.88 7 12 c 0.79 1 2.73 1.89 4 2 c 2.29 0.19 5.91 -0.24 8 -1 c 1.1 -0.4 2.33 -1.88 3 -3 c 1.21 -2.01 2.31 -7 3 -7 c 0.69 0 1.67 5.51 3 7 c 0.94 1.06 3.56 2.11 5 2 c 2.28 -0.18 5.48 -1.85 8 -3 c 1.07 -0.48 2.22 -1.22 3 -2 c 0.78 -0.78 1.54 -3.25 2 -3 c 1.35 0.75 4.68 6.1 7 8 c 0.9 0.74 3.03 1.32 4 1 c 1.5 -0.5 3.68 -2.51 5 -4 c 1.2 -1.35 2.09 -5.09 3 -5 c 1.43 0.14 4.53 4.69 7 6 c 2.8 1.48 6.74 2.39 10 3 c 1.87 0.35 4.46 0.73 6 0 l 15 -10"/><path stroke-linejoin="round" stroke-linecap="round" stroke-width="2" stroke="rgb(52, 58, 64)" fill="none" d="M 246 23 c 0.21 -0.1 8.39 -3.83 12 -6 c 1.14 -0.69 2.39 -1.93 3 -3 c 0.59 -1.04 1.12 -2.82 1 -4 c -0.18 -1.81 -0.9 -4.9 -2 -6 c -1.1 -1.1 -4.11 -1.86 -6 -2 c -2.41 -0.17 -6.62 -0.11 -8 1 c -1.25 1 -2.14 5.01 -2 7 c 0.15 2.08 1.49 5.3 3 7 c 3.38 3.8 9.16 7.16 13 11 c 1.63 1.63 2.78 3.91 4 6 c 1.14 1.95 2.69 4.15 3 6 c 0.28 1.68 -0.36 4.24 -1 6 c -0.61 1.69 -1.78 3.78 -3 5 c -1.22 1.22 -3.28 2.55 -5 3 c -4.18 1.1 -10.04 2.5 -14 2 c -3.13 -0.39 -7.69 -3.07 -10 -5 c -1.11 -0.93 -2.14 -3.74 -2 -5 c 0.13 -1.17 2.06 -4 3 -4 c 1.52 0 4.55 2.9 7 4 c 4.23 1.9 8.67 3.7 13 5 c 2.2 0.66 4.75 1 7 1 c 2.25 0 4.95 -0.23 7 -1 c 2.98 -1.12 6.85 -3.03 9 -5 c 1.4 -1.28 2.63 -3.95 3 -6 c 1.51 -8.3 1.98 -26.77 3 -27 c 0.97 -0.22 5.78 22.51 6 25 c 0.04 0.43 -3.12 -1.12 -4 -2 c -0.88 -0.88 -1.14 -2.85 -2 -4 c -2.05 -2.73 -6.76 -7.81 -7 -8 c -0.1 -0.08 1.05 3.47 2 4 c 1.5 0.83 4.79 1 7 1 c 1.59 0 3.46 -0.44 5 -1 c 2.02 -0.73 4.27 -1.79 6 -3 c 1.46 -1.02 2.58 -2.93 4 -4 c 1.12 -0.84 2.69 -1.74 4 -2 c 1.76 -0.35 4.6 -0.79 6 0 c 3.15 1.77 6.82 5.82 10 9 c 1.84 1.84 4.68 6 5 6 c 0.26 0 -1.08 -4.35 -2 -6 c -0.61 -1.11 -1.93 -2.39 -3 -3 c -1.04 -0.59 -2.9 -1.22 -4 -1 c -1.78 0.36 -4.42 1.77 -6 3 c -1.18 0.92 -2 2.6 -3 4 c -0.72 1.01 -1.88 2.06 -2 3 c -0.17 1.33 0.18 4.42 1 5 c 0.96 0.69 4.94 0.85 6 0 c 1.58 -1.27 2.82 -7.27 4 -8 c 0.66 -0.41 2.9 1.9 4 3 c 0.8 0.8 1.17 2.41 2 3 c 1.24 0.89 3.75 2.31 5 2 c 1.99 -0.5 5.26 -3.01 7 -5 c 2.64 -3.01 4.45 -9.5 7 -11 c 1.97 -1.16 7.34 1.38 10 1 c 1.32 -0.19 3.87 -2.21 4 -3 c 0.11 -0.67 -2.04 -2.73 -3 -3 c -0.93 -0.27 -3.17 0.27 -4 1 c -1.45 1.27 -2.99 3.99 -4 6 c -0.57 1.15 -1.11 2.8 -1 4 c 0.19 2.11 1.04 5.27 2 7 c 0.48 0.86 1.99 1.8 3 2 c 1.95 0.39 4.71 0.19 7 0 c 1.67 -0.14 3.52 -0.41 5 -1 c 1.69 -0.68 3.89 -1.69 5 -3 c 2.23 -2.63 4.35 -6.69 6 -10 c 0.58 -1.17 0.85 -4.25 1 -4 c 0.76 1.27 7.52 18.22 8 19 c 0.14 0.23 -0.35 -4.24 0 -6 c 0.26 -1.31 1.27 -4.07 2 -4 c 1.54 0.15 5.37 4.31 8 5 c 3.06 0.81 7.86 0.7 11 0 c 2.3 -0.51 5.52 -2.52 7 -4 c 0.76 -0.76 0.65 -4.09 1 -4 c 0.49 0.12 1.72 3.98 3 5 c 1.67 1.33 4.92 2.85 7 3 c 1.99 0.14 4.87 -1.15 7 -2 c 1.06 -0.42 2.2 -1.2 3 -2 c 1.1 -1.1 2.14 -4.16 3 -4 c 1.72 0.31 5.55 5.13 8 6 c 1.49 0.53 4.38 -0.26 6 -1 c 1.71 -0.78 3.24 -3.19 5 -4 c 2.26 -1.04 5.69 -2 8 -2 c 1.51 0 3.9 1.06 5 2 c 0.91 0.78 2.14 3.17 2 4 c -0.11 0.67 -2.2 2.2 -3 2 c -2.28 -0.57 -8.84 -4.92 -9 -5 c -0.09 -0.05 3.26 2.45 5 3 c 4.28 1.35 9.68 2.81 14 3 c 2.78 0.12 6.92 -0.66 9 -2 c 1.94 -1.25 3.73 -4.67 5 -7 c 0.61 -1.12 1.1 -4 1 -4 c -0.11 0 -2.23 2.85 -2 4 c 1.14 5.7 4.41 17.12 7 21 l 7 0"/><path stroke-linejoin="round" stroke-linecap="round" stroke-width="2" stroke="rgb(52, 58, 64)" fill="none" d="M 506 10 c 0 0.14 0.36 5.51 0 8 c -0.28 1.97 -1.03 4.38 -2 6 c -0.87 1.45 -3.6 2.68 -4 4 c -0.43 1.42 0.31 4.44 1 6 c 0.48 1.09 1.9 2.31 3 3 c 1.39 0.87 3.37 1.73 5 2 c 2.12 0.35 5.15 0.66 7 0 c 2.28 -0.81 5.67 -3.17 7 -5 c 0.94 -1.29 0.9 -6.2 1 -6 c 0.2 0.4 1.05 8.44 2 12 c 0.28 1.06 1.16 2.47 2 3 c 1.48 0.93 4.27 2.12 6 2 c 2.34 -0.17 6.32 -1.46 8 -3 c 1.76 -1.61 3.68 -5.63 4 -8 c 0.26 -1.93 -1.07 -4.95 -2 -7 c -0.64 -1.41 -2.33 -3.87 -3 -4 c -0.49 -0.1 -1.88 2.06 -2 3 c -0.17 1.33 0.26 3.97 1 5 l 4 2"/></svg>