<?xml version="1.0" encoding="UTF-8" standalone="no"?><!DOCTYPE svg PUBLIC "-//W3C//DTD SVG 1.1//EN" "http://www.w3.org/Graphics/SVG/1.1/DTD/svg11.dtd"><svg xmlns="http://www.w3.org/2000/svg" version="1.1" width="286" height="116"><path stroke-linejoin="round" stroke-linecap="round" stroke-width="2" stroke="rgb(52, 58, 64)" fill="none" d="M 1 48 c 0.19 -0.02 7.3 -1.07 11 -1 c 14.41 0.27 28.16 1.74 43 2 c 24.13 0.43 46.03 0.63 70 0 c 15.45 -0.4 29.77 -1.29 45 -3 c 15.05 -1.69 29.18 -3.93 44 -7 c 14.76 -3.05 29.28 -6.36 43 -11 c 7.6 -2.57 15.93 -6.88 22 -11 c 2.47 -1.68 5.86 -5.91 6 -8 c 0.12 -1.8 -3.01 -6.12 -5 -7 c -3.01 -1.34 -8.89 -1.5 -13 -1 c -9.04 1.1 -19.69 2.82 -28 6 c -6.52 2.5 -12.97 7.52 -19 12 c -7.04 5.24 -13.86 10.86 -20 17 c -5.48 5.48 -10.31 11.56 -15 18 c -12.66 17.38 -23.93 36.51 -36 52 c -2.33 2.99 -6.58 5.86 -10 7 c -4.79 1.6 -11.24 1.68 -17 2 c -6.39 0.36 -13.03 0.97 -19 0 c -7.86 -1.28 -15.67 -4.99 -24 -7 c -20.12 -4.85 -56.67 -12.37 -59 -13 l 7 -1"/></svg>