<?xml version="1.0" encoding="UTF-8" standalone="no"?><!DOCTYPE svg PUBLIC "-//W3C//DTD SVG 1.1//EN" "http://www.w3.org/Graphics/SVG/1.1/DTD/svg11.dtd"><svg xmlns="http://www.w3.org/2000/svg" version="1.1" width="491" height="194"><path stroke-linejoin="round" stroke-linecap="round" stroke-width="2" stroke="rgb(52, 58, 64)" fill="none" d="M 11 113 c 0.21 -0.21 8.15 -7.76 12 -12 c 2.91 -3.2 5.37 -6.46 8 -10 c 6.33 -8.52 12.11 -16.26 18 -25 c 4.72 -7.01 8.95 -13.75 13 -21 c 2.35 -4.2 4.26 -8.54 6 -13 c 1.27 -3.25 2.2 -6.61 3 -10 c 0.54 -2.29 1 -4.79 1 -7 c 0 -1.59 -0.4 -5.07 -1 -5 c -1.08 0.13 -5.32 3.81 -7 6 c -1.39 1.81 -2.37 4.65 -3 7 c -0.66 2.48 -0.85 5.29 -1 8 c -0.19 3.36 -0.57 6.8 0 10 c 2.04 11.49 5.91 23.52 8 35 c 0.52 2.88 0.51 6.3 0 9 c -0.43 2.28 -1.59 5.31 -3 7 c -1.59 1.91 -4.54 3.7 -7 5 c -3.08 1.63 -6.67 3.24 -10 4 c -3.72 0.85 -8.01 1 -12 1 c -3.99 0 -8.12 -0.25 -12 -1 c -4.69 -0.9 -9.83 -2.21 -14 -4 c -2.47 -1.06 -5.35 -3.17 -7 -5 c -1.03 -1.15 -2.33 -3.68 -2 -5 c 0.77 -3.06 3.53 -8.07 6 -11 c 2.52 -3 6.45 -5.59 10 -8 c 4.85 -3.3 9.78 -6.21 15 -9 c 4.94 -2.64 9.79 -4.92 15 -7 c 6.67 -2.67 13.15 -5.17 20 -7 c 8.24 -2.2 16.72 -3.85 25 -5 c 3.57 -0.5 7.64 -0.42 11 0 c 1.64 0.21 4.38 1.01 5 2 c 0.69 1.11 0.58 4.37 0 6 c -0.91 2.56 -3.1 5.44 -5 8 c -4.87 6.57 -10.33 12.46 -15 19 c -1.99 2.78 -3.34 5.86 -5 9 c -1.44 2.73 -3.84 5.88 -4 8 c -0.11 1.38 2.17 5.33 3 5 c 2.31 -0.92 8.53 -6.93 12 -11 c 6.1 -7.15 10.99 -15.6 17 -23 c 2.68 -3.29 6.16 -5.8 9 -9 c 2.55 -2.86 7.13 -9.15 7 -9 c -0.46 0.54 -17.58 20.41 -26 31 c -1.96 2.47 -3.75 5.22 -5 8 c -1.68 3.73 -5.12 11.44 -4 12 l 16 -6"/><path stroke-linejoin="round" stroke-linecap="round" stroke-width="2" stroke="rgb(52, 58, 64)" fill="none" d="M 155 40 c -0.07 -0.02 -2.73 -1.06 -4 -1 c -4.97 0.25 -11.09 0.88 -16 2 c -2.04 0.46 -4.25 1.83 -6 3 c -1.11 0.74 -2.75 2.01 -3 3 c -0.3 1.19 0.41 3.52 1 5 c 0.68 1.69 1.78 3.56 3 5 c 2.36 2.79 6.02 5.11 8 8 c 2.12 3.09 4.14 7.79 5 11 c 0.29 1.1 -0.34 3.08 -1 4 c -0.8 1.11 -2.57 2.46 -4 3 c -3.54 1.33 -8.37 2.55 -12 3 c -1.21 0.15 -3.08 -0.39 -4 -1 c -0.8 -0.54 -2.1 -2.2 -2 -3 c 0.16 -1.3 1.71 -3.71 3 -5 c 3.77 -3.77 8.34 -7.94 13 -11 c 6.86 -4.51 14.49 -8.64 22 -12 c 5.02 -2.25 11.25 -4.05 16 -5 c 1.17 -0.23 3.92 0.36 4 1 c 0.15 1.19 -1.62 5.05 -3 7 c -2.43 3.45 -6.42 6.56 -9 10 c -1.29 1.72 -2.42 3.99 -3 6 c -0.69 2.42 -2.11 6.89 -1 8 c 1.87 1.87 8.77 3.19 13 4 c 2.49 0.47 5.49 0.42 8 0 c 3.27 -0.54 6.71 -1.79 10 -3 c 3.1 -1.14 6.19 -2.42 9 -4 c 2.46 -1.38 4.97 -3.15 7 -5 c 1.51 -1.38 3.06 -3.31 4 -5 c 0.6 -1.09 1 -2.78 1 -4 c 0 -1.22 -0.28 -3.86 -1 -4 c -1.61 -0.32 -6.56 0.98 -9 2 c -1.12 0.47 -2.32 1.84 -3 3 c -3.46 5.85 -8.37 13.03 -10 19 c -1.06 3.9 -0.01 10.57 1 14 c 0.36 1.22 2.68 2.56 4 3 c 1.32 0.44 3.75 0.63 5 0 l 11 -8"/><path stroke-linejoin="round" stroke-linecap="round" stroke-width="2" stroke="rgb(52, 58, 64)" fill="none" d="M 202 20 c -0.05 0.04 -2.43 1.14 -3 2 c -1.21 1.81 -3 7 -3 7"/><path stroke-linejoin="round" stroke-linecap="round" stroke-width="2" stroke="rgb(52, 58, 64)" fill="none" d="M 227 87 c 0.65 -0.84 25.04 -31.18 37 -48 c 9.85 -13.85 25.28 -39.95 27 -42 c 0.38 -0.45 -0.17 7.44 -1 11 c -3.82 16.35 -9.21 32.28 -13 49 c -1.97 8.67 -3.21 17.28 -4 26 c -0.54 5.97 -0.26 12.2 0 18 l 1 4"/><path stroke-linejoin="round" stroke-linecap="round" stroke-width="2" stroke="rgb(52, 58, 64)" fill="none" d="M 243 44 c -0.02 0.12 -1.44 5.22 -1 7 c 0.4 1.61 2.44 3.92 4 5 c 2.4 1.66 5.9 2.92 9 4 c 3.58 1.25 7.4 2.4 11 3 c 2.21 0.37 4.71 0.32 7 0 c 7.31 -1.01 14.89 -2.22 22 -4 c 3.42 -0.86 7.03 -2.22 10 -4 c 5.13 -3.08 10.31 -6.89 15 -11 c 8.74 -7.65 17.06 -15.8 25 -24 c 1.97 -2.04 5.23 -6.53 5 -7 c -0.21 -0.41 -5.55 1.36 -7 3 c -5.34 6.04 -11.2 15.07 -16 23 c -2.84 4.69 -5.18 9.91 -7 15 c -1.47 4.1 -2.27 8.59 -3 13 c -0.61 3.65 -1.18 7.55 -1 11 c 0.14 2.57 0.77 6.31 2 8 c 1 1.38 4.2 3.09 6 3 c 4.18 -0.2 10.45 -2.27 15 -4 c 2.11 -0.8 4.17 -2.44 6 -4 c 7.19 -6.13 14.08 -12.29 21 -19 c 4.67 -4.53 8.7 -9.09 13 -14 c 2.88 -3.29 5.54 -6.52 8 -10 c 1.55 -2.19 4.41 -6.92 4 -7 c -0.55 -0.11 -6.51 3.66 -9 6 c -2.94 2.77 -5.88 6.36 -8 10 c -7.11 12.2 -13.26 26.2 -20 38 l -4 4"/><path stroke-linejoin="round" stroke-linecap="round" stroke-width="2" stroke="rgb(52, 58, 64)" fill="none" d="M 337 62 c 0.23 0.04 8.63 1.71 13 2 c 5.65 0.38 11.54 0.81 17 0 c 9.89 -1.47 20.17 -4.34 30 -7 c 2.43 -0.66 6.42 -3.12 7 -3 c 0.34 0.07 -1.11 2.88 -2 4 c -2.97 3.71 -6.9 7.13 -10 11 c -2.25 2.82 -6 7.62 -6 9 c 0 0.78 4.18 1.14 6 1 c 2.18 -0.17 4.64 -1.21 7 -2 c 2.76 -0.92 5.42 -1.78 8 -3 c 3.79 -1.79 10.33 -6 11 -6 c 0.39 0 -2.47 4.47 -4 6 c -1.24 1.24 -3.65 1.82 -5 3 c -1.15 1.01 -3.12 3.13 -3 4 c 0.12 0.87 2.68 2.56 4 3 c 1.32 0.44 3.45 -0.28 5 0 c 1.95 0.36 4.22 1.11 6 2 c 1.4 0.7 3.08 1.82 4 3 c 1.23 1.58 2.51 4.06 3 6 c 0.43 1.74 0.39 4.18 0 6 c -0.56 2.59 -1.63 5.72 -3 8 c -1.48 2.46 -3.77 5.07 -6 7 c -2.61 2.26 -5.87 4.58 -9 6 c -3.93 1.79 -9.33 4 -13 4 c -2.66 0 -7.75 -2.44 -9 -4 c -0.77 -0.97 0.35 -4.19 1 -6 c 0.95 -2.67 2.19 -5.78 4 -8 c 8.16 -10.01 18.22 -19.5 27 -30 c 5.14 -6.14 9.84 -12.53 14 -19 c 1.74 -2.7 4.13 -7.96 4 -9 c -0.07 -0.54 -4.05 0.17 -5 1 c -1.26 1.1 -2.27 3.98 -3 6 c -0.56 1.54 -1 3.42 -1 5 c 0 1.88 0.22 4.59 1 6 c 0.64 1.16 2.58 2.23 4 3 c 2.16 1.18 4.63 2.53 7 3 c 5.63 1.13 12.06 2 18 2 c 7.57 0 21.25 -3.87 23 -2 c 1.46 1.56 -6.78 11.35 -9 17 l -2 11"/><path stroke-linejoin="round" stroke-linecap="round" stroke-width="2" stroke="rgb(52, 58, 64)" fill="none" d="M 400 26 l 1 1"/><path stroke-linejoin="round" stroke-linecap="round" stroke-width="2" stroke="rgb(52, 58, 64)" fill="none" d="M 41 126 c -0.09 0.35 -3.78 13.28 -5 20 c -0.77 4.25 -1 13 -1 13"/><path stroke-linejoin="round" stroke-linecap="round" stroke-width="2" stroke="rgb(52, 58, 64)" fill="none" d="M 14 123 c 0.07 -0.09 2.45 -3.62 4 -5 c 4.32 -3.84 9.15 -8.13 14 -11 c 3.79 -2.25 9.12 -4.68 13 -5 c 3.17 -0.26 7.88 1.53 11 3 c 2.14 1.01 4.5 3.16 6 5 c 1.29 1.58 2.14 3.93 3 6 c 0.81 1.95 1.67 4.04 2 6 c 0.31 1.86 0.35 4.24 0 6 c -0.26 1.31 -1 3.42 -2 4 c -2.34 1.36 -6.74 2.39 -10 3 c -1.87 0.35 -4.95 -0.6 -6 0 c -0.72 0.41 -1.37 2.96 -1 4 c 1.32 3.73 4.28 9 7 13 c 2.88 4.23 6.55 8.3 10 12 l 4 3"/><path stroke-linejoin="round" stroke-linecap="round" stroke-width="2" stroke="rgb(52, 58, 64)" fill="none" d="M 90 133 c -0.12 0.14 -5.25 5.37 -7 8 c -0.68 1.02 -1.28 3.17 -1 4 c 0.24 0.73 2.21 2.23 3 2 c 2.76 -0.79 7.91 -5.69 11 -6 c 2.43 -0.24 6.74 2.14 9 4 c 2.93 2.42 5.71 9.76 8 10 c 2.44 0.26 7.49 -5.15 11 -8 c 1.83 -1.48 3.25 -3.64 5 -5 c 1.11 -0.86 3.32 -2.39 4 -2 c 1.02 0.58 2.58 4.04 3 6 c 0.5 2.33 -0.51 5.56 0 8 c 0.75 3.56 2.34 8.79 4 11 c 0.72 0.96 3.49 1.13 5 1 l 7 -2"/><path stroke-linejoin="round" stroke-linecap="round" stroke-width="2" stroke="rgb(52, 58, 64)" fill="none" d="M 212 125 c 0 0.3 0.79 11.65 0 17 c -0.82 5.58 -2.87 11.88 -5 17 c -1.03 2.48 -4.42 7.12 -5 7 c -0.54 -0.11 -0.46 -5.56 0 -8 c 0.49 -2.6 1.75 -5.5 3 -8 c 1.38 -2.77 3.14 -5.46 5 -8 c 1.82 -2.48 3.74 -5.11 6 -7 c 3.54 -2.95 8.08 -5.8 12 -8 c 1.12 -0.63 2.89 -1.14 4 -1 c 1.2 0.15 3.06 1.06 4 2 c 2.11 2.11 4.99 5.17 6 8 c 2.06 5.77 2.37 13.29 4 20 c 1.09 4.48 3.07 8.79 4 13 c 0.34 1.55 -0.23 4.77 0 5 l 2 -3"/><path stroke-linejoin="round" stroke-linecap="round" stroke-width="2" stroke="rgb(52, 58, 64)" fill="none" d="M 206 150 c 0.26 0.05 10.03 2.32 15 3 c 2.28 0.31 7 0 7 0"/><path stroke-linejoin="round" stroke-linecap="round" stroke-width="2" stroke="rgb(52, 58, 64)" fill="none" d="M 272 167 c 0.05 -0.05 2.22 -1.87 3 -3 c 2.8 -4.07 5.79 -8.57 8 -13 c 1.38 -2.75 2.77 -6.09 3 -9 c 0.39 -4.91 0.18 -11.68 -1 -16 c -0.57 -2.11 -3.28 -4.66 -5 -6 c -0.91 -0.71 -2.95 -1.15 -4 -1 c -0.92 0.13 -2.37 1.16 -3 2 c -1.18 1.57 -2.27 3.94 -3 6 c -0.9 2.53 -2.1 5.51 -2 8 c 0.2 4.91 1.52 11.13 3 16 c 0.73 2.41 2.23 5.7 4 7 c 2.56 1.88 7.32 3.03 11 4 c 2.53 0.67 5.49 1.15 8 1 c 2.87 -0.17 6.19 -1.01 9 -2 c 2.72 -0.96 5.53 -2.39 8 -4 c 4.15 -2.7 8.55 -5.75 12 -9 c 1.98 -1.86 3.7 -4.56 5 -7 c 1.29 -2.42 2.33 -5.32 3 -8 c 0.63 -2.53 1 -5.37 1 -8 c 0 -3.6 -0.19 -8.35 -1 -11 c -0.27 -0.86 -2.5 -2.4 -3 -2 c -1.69 1.35 -5.61 6.69 -7 10 c -1.03 2.46 -1 6.05 -1 9 c 0 2.95 0.36 6.11 1 9 c 0.67 3.02 1.59 6.31 3 9 c 2.14 4.09 5.12 8.92 8 12 c 1.34 1.43 3.98 2.27 6 3 c 1.54 0.56 3.44 1 5 1 c 1.56 0 3.56 -0.33 5 -1 c 3.29 -1.54 7.33 -5.24 10 -6 c 1.02 -0.29 3.55 0.94 4 2 c 2.52 5.95 5.13 16.26 7 24 l 0 5"/><path stroke-linejoin="round" stroke-linecap="round" stroke-width="2" stroke="rgb(52, 58, 64)" fill="none" d="M 490 149 c -0.02 0.12 -0.43 4.74 -1 7 c -0.76 3.04 -3 9 -3 9"/><path stroke-linejoin="round" stroke-linecap="round" stroke-width="2" stroke="rgb(52, 58, 64)" fill="none" d="M 280 120 l 99 5"/></svg>