<?xml version="1.0" encoding="UTF-8" standalone="no"?><!DOCTYPE svg PUBLIC "-//W3C//DTD SVG 1.1//EN" "http://www.w3.org/Graphics/SVG/1.1/DTD/svg11.dtd"><svg xmlns="http://www.w3.org/2000/svg" version="1.1" width="554" height="100"><path stroke-linejoin="round" stroke-linecap="round" stroke-width="2" stroke="rgb(52, 58, 64)" fill="none" d="M 78 1 c -0.05 0.07 -2.29 2.54 -3 4 c -4.84 9.96 -8.92 20.83 -14 31 c -1.95 3.9 -4.49 7.33 -7 11 c -1.93 2.82 -3.63 5.77 -6 8 c -8.41 7.9 -27 23 -27 23"/><path stroke-linejoin="round" stroke-linecap="round" stroke-width="2" stroke="rgb(52, 58, 64)" fill="none" d="M 1 80 c 0.07 -0.05 2.63 -2.32 4 -3 c 1.13 -0.56 2.64 -0.84 4 -1 c 4.29 -0.5 8.71 -0.21 13 -1 c 12.12 -2.23 24.08 -4.75 36 -8 c 6.54 -1.78 12.95 -4.31 19 -7 c 2.82 -1.25 5.16 -3.71 8 -5 c 8.09 -3.68 17.12 -6.31 25 -10 c 2.52 -1.18 4.51 -3.55 7 -5 c 5.57 -3.25 12.21 -5.37 17 -9 c 4.4 -3.34 7.87 -8.87 12 -13 c 1.17 -1.17 4.07 -3.08 4 -3 c -0.93 1.07 -27.85 32.41 -43 48 c -8.49 8.74 -18.79 16.06 -27 24 c -1.33 1.28 -2.69 3.47 -3 5 c -0.27 1.34 0.29 4.8 1 5 c 0.94 0.27 4.14 -1.75 6 -3 c 13.51 -9.1 26.26 -18.1 40 -28 c 12.27 -8.84 23.59 -16.75 35 -26 c 6.48 -5.25 12.29 -11.06 18 -17 c 2.63 -2.74 6.78 -9.11 7 -9 c 0.22 0.11 -2.98 6.97 -5 10 c -2.56 3.85 -5.75 7.38 -9 11 c -5.65 6.31 -11.08 12.08 -17 18 c -2.21 2.21 -4.94 3.79 -7 6 c -2.55 2.73 -6.85 8.7 -7 9 c -0.07 0.13 2.83 -2.87 4 -3 c 1.26 -0.14 4.55 0.87 5 2 c 1.09 2.74 1.53 9.26 1 13 c -0.37 2.57 -4.45 7.55 -4 8 c 0.45 0.45 5.61 -2.28 8 -4 c 14.1 -10.15 28.63 -20.67 42 -32 c 6.27 -5.31 11.38 -11.65 17 -18 c 5 -5.65 14.04 -17.44 14 -17 c -0.06 0.62 -9.5 18.33 -15 27 c -3.17 5 -7.07 9.48 -11 14 c -2.81 3.23 -6.75 6.08 -9 9 c -0.73 0.95 -1.27 4.16 -1 4 c 1.89 -1.12 17.73 -14.27 23 -17 c 0.92 -0.48 3.02 1.8 4 3 c 1.85 2.26 3.18 5.97 5 8 c 0.86 0.96 2.72 1.91 4 2 c 2.88 0.21 6.85 -0.25 10 -1 c 3.67 -0.87 7.72 -2.36 11 -4 c 1.8 -0.9 3.52 -2.52 5 -4 c 1.81 -1.81 3.49 -3.86 5 -6 c 2.52 -3.58 5.2 -7.4 7 -11 c 0.7 -1.41 1.24 -3.58 1 -5 l -3 -7"/><path stroke-linejoin="round" stroke-linecap="round" stroke-width="2" stroke="rgb(52, 58, 64)" fill="none" d="M 296 72 l 1 1"/><path stroke-linejoin="round" stroke-linecap="round" stroke-width="2" stroke="rgb(52, 58, 64)" fill="none" d="M 410 25 c -0.05 -0.04 -1.94 -1.68 -3 -2 c -2.99 -0.92 -6.76 -1.85 -10 -2 c -3.51 -0.17 -7.76 -0.04 -11 1 c -4.6 1.47 -9.67 4.29 -14 7 c -3.55 2.22 -7.07 5.07 -10 8 c -2.61 2.61 -4.77 5.85 -7 9 c -1.84 2.61 -3.78 5.35 -5 8 c -0.66 1.43 -1.37 3.77 -1 5 c 0.47 1.55 2.57 4.28 4 5 c 1.34 0.67 4.25 0.56 6 0 c 6.94 -2.23 14.9 -5.45 22 -9 c 7.63 -3.81 15.72 -8.09 22 -13 c 3.84 -3 8.48 -11.87 10 -12 c 1.09 -0.09 1.08 7.56 2 11 c 0.37 1.38 1.16 3 2 4 c 0.67 0.81 2 1.78 3 2 c 1.67 0.37 4.21 0.49 6 0 c 5.11 -1.39 10.66 -3.78 16 -6 c 2.79 -1.16 5.77 -2.29 8 -4 c 3.18 -2.43 5.95 -6.42 9 -9 c 1.07 -0.91 3.56 -2.33 4 -2 c 0.49 0.37 0.34 3.62 0 5 c -0.25 1 -1.88 2.06 -2 3 c -0.17 1.33 0.3 3.73 1 5 c 0.78 1.41 2.64 3.4 4 4 c 1.2 0.53 3.43 0.26 5 0 c 2.29 -0.38 4.76 -1.08 7 -2 c 5.09 -2.08 10.29 -4.34 15 -7 c 2.85 -1.61 6.73 -5.72 8 -6 c 0.53 -0.12 0.34 3.01 1 4 c 1.14 1.7 3.12 4.48 5 5 c 6.44 1.78 20.85 0.6 24 3 c 1.74 1.32 -1.32 9.05 -3 13 c -3.83 9.01 -8.97 18.13 -14 27 c -2.02 3.56 -4.48 6.85 -7 10 c -1.46 1.83 -3.2 3.69 -5 5 c -1.7 1.24 -3.98 2.33 -6 3 c -1.83 0.61 -4.55 1.32 -6 1 c -1.01 -0.22 -3.39 -2.42 -3 -3 c 1.29 -1.94 6.98 -6.83 11 -9 c 12.16 -6.57 25.7 -12.44 39 -18 l 16 -5"/></svg>