<?xml version="1.0" encoding="UTF-8" standalone="no"?><!DOCTYPE svg PUBLIC "-//W3C//DTD SVG 1.1//EN" "http://www.w3.org/Graphics/SVG/1.1/DTD/svg11.dtd"><svg xmlns="http://www.w3.org/2000/svg" version="1.1" width="450" height="89"><path stroke-linejoin="round" stroke-linecap="round" stroke-width="2" stroke="rgb(52, 58, 64)" fill="none" d="M 425 4 l 1 1"/><path stroke-linejoin="round" stroke-linecap="round" stroke-width="2" stroke="rgb(52, 58, 64)" fill="none" d="M 1 50 c 0.24 -0.07 9.9 -1.79 14 -4 c 16.17 -8.73 32.03 -20.27 49 -30 c 8.59 -4.92 17.2 -8.88 26 -13 c 1.91 -0.9 4.72 -2.16 6 -2 c 0.73 0.09 2.42 2.38 2 3 c -4.02 6.04 -14.71 17.57 -22 27 c -4.36 5.64 -9.03 10.95 -12 17 c -6.15 12.53 -14.78 35.23 -16 40 c -0.17 0.67 4.31 -0.19 6 -1 c 4.87 -2.32 10.26 -5.56 15 -9 c 8.68 -6.3 16.96 -12.78 25 -20 c 8.53 -7.66 16.25 -15.46 24 -24 c 8.92 -9.83 16.79 -20.97 25 -30 c 1.23 -1.35 4.77 -3.23 5 -3 c 0.23 0.23 -1.57 4.03 -3 5 c -11.75 8.01 -27.69 16.31 -41 25 l -8 7"/><path stroke-linejoin="round" stroke-linecap="round" stroke-width="2" stroke="rgb(52, 58, 64)" fill="none" d="M 94 55 l 1 1"/><path stroke-linejoin="round" stroke-linecap="round" stroke-width="2" stroke="rgb(52, 58, 64)" fill="none" d="M 77 37 c 0.07 0.07 2.53 3.78 4 4 c 5.97 0.88 16.19 2.07 23 0 c 29.15 -8.87 63.31 -24.75 92 -35 c 1.75 -0.62 5.82 -0.72 6 0 c 0.27 1.07 -2.35 5.53 -4 8 c -5 7.51 -11.22 14.48 -16 22 c -2.12 3.34 -3.85 7.36 -5 11 c -0.77 2.43 -2.15 7.39 -1 8 c 2.27 1.21 11.16 1.13 16 0 c 8.71 -2.02 18.3 -5.99 27 -10 c 8.65 -3.99 16.49 -8.95 25 -14 c 11.87 -7.04 22.87 -14.76 34 -21 c 2.03 -1.14 7.24 -2.31 7 -2 c -0.9 1.18 -13.02 12.72 -20 19 l -10 8"/><path stroke-linejoin="round" stroke-linecap="round" stroke-width="2" stroke="rgb(52, 58, 64)" fill="none" d="M 281 62 c 0.19 -0.1 7.13 -4.25 11 -6 c 13.44 -6.06 30.92 -14.32 40 -17 c 1.18 -0.35 3.91 2.69 4 4 c 0.18 2.65 -2.33 7.41 -3 11 c -0.3 1.57 -0.63 4.12 0 5 c 0.68 0.95 3.41 2 5 2 c 5.65 0 12.54 -1.05 19 -2 c 7.56 -1.11 15 -1.85 22 -4 c 10.12 -3.11 20.04 -7.39 30 -12 c 12.82 -5.93 28.13 -15.23 37 -19 c 0.77 -0.33 3.21 1.46 3 2 c -0.63 1.58 -5.3 5.12 -7 8 c -2.44 4.13 -4.38 9.15 -6 14 c -3.09 9.28 -8 28 -8 28"/></svg>