<?xml version="1.0" encoding="UTF-8" standalone="no"?><!DOCTYPE svg PUBLIC "-//W3C//DTD SVG 1.1//EN" "http://www.w3.org/Graphics/SVG/1.1/DTD/svg11.dtd"><svg xmlns="http://www.w3.org/2000/svg" version="1.1" width="546" height="87"><path stroke-linejoin="round" stroke-linecap="round" stroke-width="2" stroke="rgb(52, 58, 64)" fill="none" d="M 1 8 c 0.16 0.18 6.05 7.68 9 10 c 1.12 0.88 3.66 1.27 5 1 c 1.53 -0.31 3.65 -1.75 5 -3 c 2.8 -2.58 7.74 -9.65 8 -9 c 0.42 1.04 -3.03 12.57 -4 19 c -0.7 4.65 -0.28 9.34 -1 14 c -1.3 8.47 -3.67 16.74 -5 25 c -0.31 1.94 -0.04 6.14 0 6 c 0.22 -0.87 4.79 -24.5 8 -37 c 2.93 -11.39 8.2 -29.26 10 -33 c 0.3 -0.61 3.68 2.62 4 4 c 0.51 2.21 -0.92 5.94 -1 9 c -0.26 9.45 0.53 18.59 0 28 c -0.48 8.46 -3.09 24.57 -3 25 c 0.07 0.35 2.21 -13.72 4 -20 c 0.79 -2.75 3.22 -5.33 4 -8 c 0.79 -2.7 0.15 -6.45 1 -9 c 0.68 -2.03 3.3 -4.07 4 -6 c 0.49 -1.34 -0.44 -3.68 0 -5 c 0.44 -1.32 2.38 -4 3 -4 c 0.55 0 1.91 2.67 2 4 c 0.52 8.04 -0.43 17.96 0 27 c 0.24 5.07 0.9 10.39 2 15 c 0.49 2.04 1.83 4.25 3 6 c 0.74 1.11 1.93 2.71 3 3 c 2.03 0.55 5.9 0.65 8 0 c 1.68 -0.52 3.61 -2.48 5 -4 c 2.17 -2.37 4.25 -5.2 6 -8 c 1.56 -2.5 3.41 -5.65 4 -8 c 0.27 -1.08 -0.54 -3.89 -1 -4 c -0.47 -0.12 -2.43 1.87 -3 3 c -1.27 2.53 -3 8.51 -3 9 c 0 0.22 2.35 -3 3 -3 c 0.55 0 1.2 2.66 2 3 c 1.11 0.47 3.62 0.34 5 0 c 1 -0.25 2.04 -1.25 3 -2 c 2.08 -1.62 4.34 -3.1 6 -5 c 2.89 -3.3 5.99 -7.42 8 -11 c 0.75 -1.34 0.45 -3.54 1 -5 c 0.39 -1.03 1.89 -3.25 2 -3 c 0.3 0.71 1.13 6.74 1 10 c -0.2 5.24 -2.29 15.02 -2 16 c 0.14 0.48 3.16 -4.16 5 -6 c 2.5 -2.5 6.51 -6.55 8 -7 c 0.63 -0.19 2 2.86 2 4 c 0 1.38 -1.01 3.76 -2 5 c -1.44 1.8 -3.87 3.63 -6 5 c -2.44 1.57 -7.45 3.04 -8 4 c -0.31 0.54 2.62 2.45 4 3 c 1.68 0.67 3.99 0.87 6 1 c 3.31 0.21 6.98 0.66 10 0 c 4.21 -0.91 9.53 -2.81 13 -5 c 2.3 -1.45 5.07 -4.95 6 -7 c 0.42 -0.91 -0.5 -3.75 -1 -4 c -0.44 -0.22 -2.18 1.18 -3 2 c -2.41 2.41 -5.11 5.27 -7 8 c -0.96 1.38 -2 3.7 -2 5 c 0 0.87 1.37 3.08 2 3 c 1.25 -0.16 4.3 -2.4 6 -4 c 4.16 -3.93 10.38 -12.63 12 -13 c 0.92 -0.21 0.08 9.21 1 10 c 0.66 0.57 4.22 -3.47 6 -4 c 1.02 -0.3 2.87 1.24 4 1 c 2.95 -0.63 6.83 -2.35 10 -4 c 5.16 -2.68 10.12 -6.56 15 -9 c 1.42 -0.71 3.44 -1 5 -1 c 1.56 0 3.84 0.34 5 1 c 0.82 0.47 2 2.02 2 3 c 0 5.21 -0.66 13.08 -2 19 c -0.91 4.03 -2.91 8.77 -5 12 c -1.26 1.94 -4.21 4.55 -6 5 c -1.45 0.36 -4.67 -1 -6 -2 c -0.94 -0.7 -2 -2.86 -2 -4 c 0 -1.38 1.16 -3.45 2 -5 c 1.13 -2.07 2.55 -4.34 4 -6 c 0.73 -0.83 2.2 -1.2 3 -2 c 1.1 -1.1 1.84 -3.36 3 -4 c 1.41 -0.78 4.34 -0.17 6 -1 c 4.54 -2.27 9.47 -5.76 14 -9 c 2.51 -1.79 4.85 -3.85 7 -6 c 1.49 -1.49 2.72 -3.24 4 -5 c 1.44 -1.98 3.01 -3.89 4 -6 c 1.61 -3.42 3.17 -7.45 4 -11 c 0.43 -1.82 0.31 -4.14 0 -6 c -0.33 -1.96 -0.92 -5.4 -2 -6 c -1.21 -0.67 -5.56 -0.17 -7 1 c -3.06 2.48 -7.04 7.81 -9 12 c -2.44 5.22 -3.78 12.15 -5 18 c -0.39 1.88 -0.17 4.02 0 6 c 0.17 2.01 0.45 4.15 1 6 c 0.41 1.36 1.13 3.27 2 4 c 0.8 0.67 2.79 1.1 4 1 c 2.43 -0.2 5.56 -1.06 8 -2 c 1.73 -0.66 3.71 -1.71 5 -3 c 3.45 -3.45 9.84 -11.73 10 -12 c 0.08 -0.14 -4.7 3.12 -6 5 c -1.42 2.05 -3.28 6.88 -3 8 c 0.16 0.65 4.02 -0.56 5 0 l 2 4"/><path stroke-linejoin="round" stroke-linecap="round" stroke-width="2" stroke="rgb(52, 58, 64)" fill="none" d="M 307 24 c -0.12 -0.07 -5.15 -4.12 -7 -4 c -2.16 0.14 -6.1 2.81 -8 5 c -6.19 7.14 -12.26 16.53 -18 25 c -1.25 1.84 -2.27 3.98 -3 6 c -0.56 1.54 -1.22 5.17 -1 5 c 0.68 -0.53 7.1 -7.85 10 -12 c 1.66 -2.38 2.91 -7.06 4 -8 c 0.44 -0.38 2.47 1.16 3 2 c 0.93 1.48 0.96 4.52 2 6 l 5 4"/><path stroke-linejoin="round" stroke-linecap="round" stroke-width="2" stroke="rgb(52, 58, 64)" fill="none" d="M 334 44 c 0.09 0.03 3.37 1.73 5 2 c 2.12 0.35 4.97 0.47 7 0 c 1.95 -0.45 4.07 -1.81 6 -3 c 6.86 -4.22 13.99 -8.43 20 -13 c 1.97 -1.5 3.21 -4.21 5 -6 c 1.15 -1.15 3.03 -1.87 4 -3 c 0.87 -1.01 2.03 -4.07 2 -4 c -0.19 0.46 -6.8 17.43 -11 26 c -4.6 9.38 -9.78 18.64 -15 27 c -1.2 1.91 -3.25 3.64 -5 5 c -1.11 0.86 -2.77 1.86 -4 2 c -1.4 0.16 -4.21 -0.21 -5 -1 c -0.79 -0.79 -1.1 -3.44 -1 -5 c 0.21 -3.11 0.79 -7.12 2 -10 c 1.29 -3.06 3.95 -6.95 6 -9 c 0.78 -0.78 3.26 -1.43 4 -1 c 1.05 0.6 2.35 3.26 3 5 c 1.28 3.41 1.76 7.47 3 11 c 0.73 2.07 1.83 4.25 3 6 c 0.74 1.11 1.89 2.39 3 3 c 1.65 0.92 4.24 2.12 6 2 c 2.63 -0.18 6.8 -1.28 9 -3 c 4.76 -3.72 9.45 -9.77 14 -15 c 2.22 -2.55 5.2 -8.23 6 -8 c 0.8 0.23 0.08 7.79 1 10 c 0.41 0.98 2.83 2.18 4 2 c 4.39 -0.66 11.33 -2.59 16 -5 c 5.18 -2.67 10.39 -8.59 15 -11 c 1.49 -0.78 5.12 -0.76 6 0 c 0.89 0.77 1.46 4.36 1 6 c -1.01 3.62 -3.69 8.34 -6 12 c -1.59 2.52 -3.8 4.8 -6 7 c -4.56 4.56 -13.45 12.67 -14 13 c -0.23 0.14 2.4 -5.08 4 -7 c 1.55 -1.86 3.81 -3.66 6 -5 c 8.05 -4.93 16.68 -9.06 25 -14 c 2.5 -1.48 4.82 -3.16 7 -5 c 2.15 -1.82 4.34 -3.79 6 -6 c 3.26 -4.34 6.52 -9.25 9 -14 c 1.41 -2.71 3 -8.66 3 -9 c 0 -0.18 -2.49 2.59 -3 4 c -1.03 2.88 -1.9 6.71 -2 10 c -0.23 7.44 -0.05 17.77 1 23 c 0.2 1.02 3.23 2.51 4 2 c 2.79 -1.86 10.19 -12.98 11 -12 c 1.2 1.44 -1.67 19.96 -1 24 c 0.14 0.84 3.62 0.49 5 0 c 2.85 -1.02 6.15 -3.98 9 -5 c 1.38 -0.49 3.8 -0.53 5 0 c 1.36 0.6 2.61 3.13 4 4 c 1.01 0.63 2.98 1.34 4 1 l 8 -5"/><path stroke-linejoin="round" stroke-linecap="round" stroke-width="2" stroke="rgb(52, 58, 64)" fill="none" d="M 441 34 c 0.09 0.03 3.32 1.64 5 2 c 2.83 0.61 5.88 0.77 9 1 c 25.54 1.85 48.64 3.59 74 5 c 5.47 0.3 16 0 16 0"/></svg>