<?xml version="1.0" encoding="UTF-8" standalone="no"?><!DOCTYPE svg PUBLIC "-//W3C//DTD SVG 1.1//EN" "http://www.w3.org/Graphics/SVG/1.1/DTD/svg11.dtd"><svg xmlns="http://www.w3.org/2000/svg" version="1.1" width="563" height="234"><path stroke-linejoin="round" stroke-linecap="round" stroke-width="2" stroke="rgb(52, 58, 64)" fill="none" d="M 182 -4 c 0.1 0 4.18 0.33 6 0 c 1.63 -0.3 3.95 -0.95 5 -2 c 1.57 -1.57 3.34 -4.54 4 -7 c 3.79 -14.09 5.88 -30.36 10 -45 c 1.84 -6.55 5.78 -12.55 8 -19 c 1.44 -4.17 2.31 -8.57 3 -13 c 0.99 -6.35 2 -19 2 -19"/><path stroke-linejoin="round" stroke-linecap="round" stroke-width="2" stroke="rgb(52, 58, 64)" fill="none" d="M 242 -1 c 0 -0.12 0.34 -4.75 0 -7 c -0.64 -4.28 -2.32 -8.72 -3 -13 c -0.3 -1.92 0.41 -4.22 0 -6 c -0.52 -2.26 -2.51 -4.73 -3 -7 c -0.45 -2.09 -0.31 -4.72 0 -7 c 0.68 -4.97 2.3 -9.85 3 -15 c 1.34 -9.81 2.2 -19.16 3 -29 l 0 -8"/><path stroke-linejoin="round" stroke-linecap="round" stroke-width="2" stroke="rgb(52, 58, 64)" fill="none" d="M -22 27 l 1 1"/><path stroke-linejoin="round" stroke-linecap="round" stroke-width="2" stroke="rgb(52, 58, 64)" fill="none" d="M 49 74 l 1 1"/><path stroke-linejoin="round" stroke-linecap="round" stroke-width="2" stroke="rgb(52, 58, 64)" fill="none" d="M 539 55 c -0.07 -0.05 -3.06 -1.75 -4 -3 c -4.73 -6.3 -9.26 -13.67 -14 -21 c -2.87 -4.43 -5.57 -8.46 -8 -13 c -2.64 -4.92 -5.05 -9.79 -7 -15 c -3.1 -8.25 -5.73 -16.66 -8 -25 c -0.7 -2.56 -0.25 -5.6 -1 -8 c -0.83 -2.67 -3.31 -5.42 -4 -8 c -0.54 -2.02 0.43 -4.77 0 -7 c -2.18 -11.46 -8 -35 -8 -35"/><path stroke-linejoin="round" stroke-linecap="round" stroke-width="2" stroke="rgb(52, 58, 64)" fill="none" d="M 11 90 l 1 1"/><path stroke-linejoin="round" stroke-linecap="round" stroke-width="2" stroke="rgb(52, 58, 64)" fill="none" d="M 47 87 l 4 1"/><path stroke-linejoin="round" stroke-linecap="round" stroke-width="2" stroke="rgb(52, 58, 64)" fill="none" d="M 54 45 l 1 1"/><path stroke-linejoin="round" stroke-linecap="round" stroke-width="2" stroke="rgb(52, 58, 64)" fill="none" d="M 10 50 l 1 1"/><path stroke-linejoin="round" stroke-linecap="round" stroke-width="2" stroke="rgb(52, 58, 64)" fill="none" d="M 5 42 l -2 6"/><path stroke-linejoin="round" stroke-linecap="round" stroke-width="2" stroke="rgb(52, 58, 64)" fill="none" d="M 11 99 l 1 1"/><path stroke-linejoin="round" stroke-linecap="round" stroke-width="2" stroke="rgb(52, 58, 64)" fill="none" d="M 1 58 l 1 1"/><path stroke-linejoin="round" stroke-linecap="round" stroke-width="2" stroke="rgb(52, 58, 64)" fill="none" d="M 7 90 c 0.07 -0.4 2.45 -15.26 4 -23 c 0.48 -2.41 1.04 -5.27 2 -7 c 0.48 -0.86 3 -2 3 -2"/><path stroke-linejoin="round" stroke-linecap="round" stroke-width="2" stroke="rgb(52, 58, 64)" fill="none" d="M 46 86 c 0.07 0.02 3.48 1.52 4 1 c 0.92 -0.92 1.84 -4.66 2 -7 c 0.81 -11.57 0.22 -24.1 1 -36 c 0.22 -3.37 2 -10 2 -10"/><path stroke-linejoin="round" stroke-linecap="round" stroke-width="2" stroke="rgb(52, 58, 64)" fill="none" d="M 129 84 c -0.19 0.05 -7.25 2.31 -11 3 c -5.3 0.98 -16 2 -16 2"/><path stroke-linejoin="round" stroke-linecap="round" stroke-width="2" stroke="rgb(52, 58, 64)" fill="none" d="M 55 51 c 0.18 -0.24 6.26 -9.92 10 -14 c 3.39 -3.7 7.99 -7.33 12 -10 c 1.62 -1.08 6 -2 6 -2"/><path stroke-linejoin="round" stroke-linecap="round" stroke-width="2" stroke="rgb(52, 58, 64)" fill="none" d="M 87 93 l 1 1"/><path stroke-linejoin="round" stroke-linecap="round" stroke-width="2" stroke="rgb(52, 58, 64)" fill="none" d="M 54 91 l 1 1"/><path stroke-linejoin="round" stroke-linecap="round" stroke-width="2" stroke="rgb(52, 58, 64)" fill="none" d="M 63 51 l 1 1"/><path stroke-linejoin="round" stroke-linecap="round" stroke-width="2" stroke="rgb(52, 58, 64)" fill="none" d="M -22 59 l 1 1"/><path stroke-linejoin="round" stroke-linecap="round" stroke-width="2" stroke="rgb(52, 58, 64)" fill="none" d="M 17 56 l 1 1"/><path stroke-linejoin="round" stroke-linecap="round" stroke-width="2" stroke="rgb(52, 58, 64)" fill="none" d="M -16 17 l 1 1"/><path stroke-linejoin="round" stroke-linecap="round" stroke-width="2" stroke="rgb(52, 58, 64)" fill="none" d="M 172 112 l 1 1"/><path stroke-linejoin="round" stroke-linecap="round" stroke-width="2" stroke="rgb(52, 58, 64)" fill="none" d="M -20 59 c 0.05 0.07 2.33 2.53 3 4 c 5.48 12.12 10.36 25.32 16 38 c 1.1 2.48 3.04 6.59 4 7 c 0.6 0.26 2.56 -2.58 3 -4 c 1.08 -3.45 1.11 -10.52 2 -12 c 0.33 -0.54 2.98 1.11 4 2 c 1.45 1.27 2.54 3.54 4 5 c 1.14 1.14 3.05 3 4 3 c 0.81 0 2.96 -1.93 3 -3 c 0.22 -5.57 -1.79 -14.7 -2 -22 c -0.12 -3.98 1 -12 1 -12"/><path stroke-linejoin="round" stroke-linecap="round" stroke-width="2" stroke="rgb(52, 58, 64)" fill="none" d="M 118 40 c 0.02 0.09 0.93 3.33 1 5 c 0.26 6.23 0 19 0 19"/><path stroke-linejoin="round" stroke-linecap="round" stroke-width="2" stroke="rgb(52, 58, 64)" fill="none" d="M 93 123 c -0.37 -0.05 -14.52 -1.44 -21 -3 c -2.73 -0.66 -5.21 -3.1 -8 -4 c -8.39 -2.72 -25.69 -6.27 -26 -7 c -0.27 -0.62 23 0 23 0"/><path stroke-linejoin="round" stroke-linecap="round" stroke-width="2" stroke="rgb(52, 58, 64)" fill="none" d="M 40 42 c 0.07 0.03 2.65 1.66 4 2 c 2.44 0.61 5.36 1 8 1 c 4.27 0 8.61 -0.35 13 -1 c 18.77 -2.76 55 -9 55 -9"/><path stroke-linejoin="round" stroke-linecap="round" stroke-width="2" stroke="rgb(52, 58, 64)" fill="none" d="M 116 79 c -0.07 0.05 -3.06 1.78 -4 3 c -2.18 2.84 -5.18 6.87 -6 10 c -0.64 2.43 -0.09 7.13 1 9 c 0.81 1.38 4.29 2.84 6 3 c 1.37 0.12 4.24 -0.98 5 -2 c 0.86 -1.15 1.31 -4.45 1 -6 c -0.25 -1.27 -1.82 -3.22 -3 -4 c -1.49 -0.99 -4.35 -1.08 -6 -2 c -1.11 -0.61 -3.09 -2.14 -3 -3 c 0.16 -1.64 2.43 -4.95 4 -7 c 1.66 -2.15 4.23 -3.82 6 -6 c 2.54 -3.13 4.24 -7.24 7 -10 c 4.98 -4.98 11.12 -9.53 17 -14 c 2.52 -1.92 6.46 -4.85 8 -5 c 0.73 -0.07 2.21 2.82 2 4 c -1.44 7.94 -5.88 19.32 -8 29 c -0.85 3.87 -0.37 7.99 -1 12 c -1.06 6.8 -2.98 13.39 -4 20 c -0.3 1.95 -0.67 5.92 0 6 c 1.06 0.13 5.54 -3.09 8 -5 c 3.51 -2.73 6.47 -6.53 10 -9 c 2.93 -2.05 7.01 -4.2 10 -5 c 1.36 -0.36 4.07 0.07 5 1 c 2.12 2.12 3.83 8.6 6 10 c 1.5 0.97 5.91 -0.24 8 -1 c 1.1 -0.4 2.06 -3 3 -3 c 1.9 0 6.36 1.51 8 3 c 1.47 1.33 2.34 6.47 3 7 c 0.31 0.25 1.2 -2.2 2 -3 c 1.1 -1.1 2.57 -2.34 4 -3 c 2.71 -1.25 5.92 -2.34 9 -3 l 19 -3"/><path stroke-linejoin="round" stroke-linecap="round" stroke-width="2" stroke="rgb(52, 58, 64)" fill="none" d="M 204 53 c 0.1 0 4.05 0.31 6 0 c 10.59 -1.67 22 -2.83 32 -6 c 9.48 -3 18.81 -8.4 28 -13 c 2.15 -1.07 4.47 -2.47 6 -4 c 1.24 -1.24 1.84 -3.51 3 -5 c 1.12 -1.44 4.1 -4 4 -4 c -0.11 0 -3.85 2.38 -5 4 c -4.18 5.91 -8.58 13.16 -12 20 c -2.18 4.36 -3.72 9.16 -5 14 c -3.45 13.04 -6.86 26.18 -9 39 c -0.8 4.8 -0.47 10.55 0 15 l 2 4"/><path stroke-linejoin="round" stroke-linecap="round" stroke-width="2" stroke="rgb(52, 58, 64)" fill="none" d="M 218 82 c 0.39 -0.04 14.61 -0.85 22 -2 c 12.27 -1.9 23.73 -4.87 36 -7 c 3.36 -0.58 10 -1 10 -1"/><path stroke-linejoin="round" stroke-linecap="round" stroke-width="2" stroke="rgb(52, 58, 64)" fill="none" d="M 249 116 c 0.18 -0.05 6.97 -1.67 10 -3 c 2.09 -0.92 4.05 -2.54 6 -4 c 2.11 -1.58 4.3 -3.1 6 -5 c 3.88 -4.33 10.61 -13.66 11 -14 c 0.17 -0.15 -2.71 4.8 -3 7 c -0.31 2.33 0.05 6.1 1 8 c 0.76 1.51 3.3 3.55 5 4 c 2.66 0.71 7.38 1 10 0 c 3.56 -1.36 7.28 -5.68 11 -8 c 1.47 -0.92 3.76 -1.11 5 -2 c 0.83 -0.59 1.9 -3.1 2 -3 c 0.11 0.11 -1 2.75 -1 4 c 0 1.85 0.14 4.85 1 6 c 0.76 1.02 3.56 2.11 5 2 c 2.28 -0.18 6.08 -1.56 8 -3 c 1.62 -1.21 2.95 -3.91 4 -6 c 1.24 -2.48 2.54 -5.39 3 -8 c 0.48 -2.75 0.47 -6.15 0 -9 c -0.82 -4.91 -2.36 -10.33 -4 -15 c -0.61 -1.75 -1.84 -4.49 -3 -5 c -1.21 -0.54 -4.92 0.04 -6 1 c -1.36 1.21 -2.72 4.79 -3 7 c -0.33 2.63 0.15 6.45 1 9 c 0.68 2.03 2.23 4.84 4 6 c 6.93 4.54 17.29 9.77 25 13 c 1.64 0.69 4.15 -0.37 6 0 c 2.92 0.58 5.92 2.23 9 3 c 3.62 0.91 7.32 1.75 11 2 c 5.93 0.41 12.46 1.31 18 0 c 18.7 -4.43 38.38 -13.29 58 -18 c 13.71 -3.29 42 -6 42 -6"/></svg>