<?xml version="1.0" encoding="UTF-8" standalone="no"?><!DOCTYPE svg PUBLIC "-//W3C//DTD SVG 1.1//EN" "http://www.w3.org/Graphics/SVG/1.1/DTD/svg11.dtd"><svg xmlns="http://www.w3.org/2000/svg" version="1.1" width="365" height="84"><path stroke-linejoin="round" stroke-linecap="round" stroke-width="2" stroke="rgb(52, 58, 64)" fill="none" d="M 1 39 c 0.72 0.05 26.8 2.27 41 3 c 19.35 1 36.61 1.62 56 2 c 15.91 0.31 30.12 0.34 46 0 c 16.59 -0.35 31.78 -0.63 48 -2 c 11.94 -1.01 23.05 -2.92 35 -5 c 11.74 -2.04 22.44 -4.35 34 -7 c 4.85 -1.11 9.67 -2.09 14 -4 c 6.79 -2.99 15.72 -7.33 20 -11 c 1.33 -1.14 1.33 -5.17 1 -7 c -0.23 -1.29 -1.8 -3.16 -3 -4 c -1.82 -1.27 -5.29 -3.26 -7 -3 c -1.76 0.27 -4.44 3.05 -6 5 c -4.89 6.11 -8.89 13.91 -14 20 c -3.41 4.06 -7.74 7.47 -12 11 c -5.61 4.64 -11.03 8.79 -17 13 c -5.65 3.98 -11.06 7.61 -17 11 c -5.9 3.37 -11.83 6.53 -18 9 c -5.43 2.17 -11.17 3.83 -17 5 c -12.66 2.53 -25.07 4.74 -38 6 c -14.8 1.44 -29.51 1.72 -44 2 c -2.33 0.05 -5.21 -0.19 -7 -1 c -1.43 -0.65 -3.07 -2.48 -4 -4 c -2.56 -4.2 -7.14 -11.86 -7 -14 c 0.07 -1.1 5.4 -1.16 8 -1 c 8.11 0.49 16.42 2.37 25 3 c 14.68 1.08 28.25 1.84 43 2 c 17.82 0.19 34.62 0.49 52 -1 c 17.91 -1.54 34.73 -5.96 53 -8 c 27.71 -3.1 54.55 -3.76 81 -7 l 17 -5"/></svg>