<?xml version="1.0" encoding="UTF-8" standalone="no"?><!DOCTYPE svg PUBLIC "-//W3C//DTD SVG 1.1//EN" "http://www.w3.org/Graphics/SVG/1.1/DTD/svg11.dtd"><svg xmlns="http://www.w3.org/2000/svg" version="1.1" width="542" height="132"><path stroke-linejoin="round" stroke-linecap="round" stroke-width="2" stroke="rgb(52, 58, 64)" fill="none" d="M 57 28 l 1 1"/><path stroke-linejoin="round" stroke-linecap="round" stroke-width="2" stroke="rgb(52, 58, 64)" fill="none" d="M 15 22 c 0.33 -0.09 12.82 -3.71 19 -5 c 1.57 -0.33 5 0 5 0"/><path stroke-linejoin="round" stroke-linecap="round" stroke-width="2" stroke="rgb(52, 58, 64)" fill="none" d="M 9 54 l 1 1"/><path stroke-linejoin="round" stroke-linecap="round" stroke-width="2" stroke="rgb(52, 58, 64)" fill="none" d="M 53 24 l 1 1"/><path stroke-linejoin="round" stroke-linecap="round" stroke-width="2" stroke="rgb(52, 58, 64)" fill="none" d="M 1 19 c 0.05 0.07 1.78 3.8 3 4 c 5.11 0.85 14.04 0.26 21 0 c 2.02 -0.07 4.39 -1.18 6 -1 c 0.95 0.11 3 1.39 3 2 c 0 0.84 -2.37 2.53 -3 4 c -4.18 9.76 -7.55 21.36 -12 31 c -1.34 2.9 -4.88 5.16 -6 8 c -2.3 5.86 -5.1 18.55 -5 20 c 0.04 0.55 4.44 -3.02 6 -5 c 9.13 -11.62 17.59 -24.63 27 -37 c 2.47 -3.25 5.86 -5.88 8 -9 c 1.36 -1.97 1.68 -5.18 3 -7 c 1.11 -1.53 4.39 -4.4 5 -4 c 0.76 0.51 1.3 5.48 1 8 c -0.97 8.28 -3.96 17.94 -5 26 c -0.2 1.55 0.31 5 1 5 c 1.27 0 5.54 -3.09 8 -5 c 3.51 -2.73 6.97 -5.78 10 -9 c 2.25 -2.39 4.33 -7 6 -8 c 0.75 -0.45 3.74 1.02 4 2 c 0.76 2.85 -0.41 8.87 0 13 c 0.23 2.31 0.96 5.27 2 7 l 4 3"/><path stroke-linejoin="round" stroke-linecap="round" stroke-width="2" stroke="rgb(52, 58, 64)" fill="none" d="M 164 58 c -0.26 0.07 -10.1 2.37 -15 4 c -3.11 1.04 -5.96 3.27 -9 4 c -4.97 1.19 -11.08 2 -16 2 c -2.22 0 -5.44 -0.96 -7 -2 c -0.96 -0.64 -2.14 -2.82 -2 -4 c 0.42 -3.58 2.19 -8.9 4 -13 c 3.15 -7.15 11 -21 11 -21"/><path stroke-linejoin="round" stroke-linecap="round" stroke-width="2" stroke="rgb(52, 58, 64)" fill="none" d="M 165 1 c -0.05 0.07 -2.2 2.54 -3 4 c -6.52 11.86 -11.87 24.16 -19 36 c -10.89 18.07 -22.94 34.06 -34 52 c -4.22 6.85 -7.98 13.83 -11 21 c -2.26 5.36 -5 17 -5 17"/><path stroke-linejoin="round" stroke-linecap="round" stroke-width="2" stroke="rgb(52, 58, 64)" fill="none" d="M 204 25 c 0.09 -0.05 3.28 -2.43 5 -3 c 3.02 -1.01 6.68 -1.59 10 -2 c 1.95 -0.24 5.53 -0.85 6 0 c 0.72 1.29 -0.09 6.26 -1 9 c -2.94 8.83 -6.92 18.15 -11 27 c -1.95 4.22 -5.05 7.81 -7 12 c -2.72 5.82 -5.64 12.56 -7 18 c -0.43 1.71 0.8 6.29 1 6 c 0.57 -0.82 3.25 -11.17 6 -16 c 6.73 -11.84 15.72 -23.24 23 -35 c 1.32 -2.14 1.77 -4.84 3 -7 c 1.39 -2.43 5.04 -7.14 5 -7 c -0.08 0.26 -4.96 9.18 -7 14 c -1.65 3.89 -2.3 8.25 -4 12 c -1.57 3.46 -4.35 6.54 -6 10 c -1.65 3.47 -4.28 11.3 -4 11 c 1.24 -1.33 20.85 -27.13 32 -41 c 2.88 -3.59 5.81 -6.81 9 -10 c 2.19 -2.19 7.06 -6.67 7 -6 c -0.34 3.86 -7.76 34.47 -11 52 c -0.79 4.3 -1.7 9.2 -1 13 l 6 14"/><path stroke-linejoin="round" stroke-linecap="round" stroke-width="2" stroke="rgb(52, 58, 64)" fill="none" d="M 317 26 c -0.38 0.02 -14.89 0.14 -22 1 c -3.68 0.45 -7.51 1.67 -11 3 c -3.43 1.31 -7 2.96 -10 5 c -4.18 2.85 -12 10 -12 10"/><path stroke-linejoin="round" stroke-linecap="round" stroke-width="2" stroke="rgb(52, 58, 64)" fill="none" d="M 277 27 l -4 1"/><path stroke-linejoin="round" stroke-linecap="round" stroke-width="2" stroke="rgb(52, 58, 64)" fill="none" d="M 281 49 l 6 0"/><path stroke-linejoin="round" stroke-linecap="round" stroke-width="2" stroke="rgb(52, 58, 64)" fill="none" d="M 317 65 c 0.16 -0.1 6.18 -3.75 9 -6 c 3.87 -3.1 7.3 -6.46 11 -10 c 4.23 -4.04 8.1 -7.75 12 -12 c 3.59 -3.91 7.48 -7.68 10 -12 c 4.26 -7.31 10.39 -21.2 11 -24 c 0.14 -0.65 -4.39 0.19 -6 1 c -2.65 1.33 -6.05 3.51 -8 6 c -12.04 15.32 -23.03 34.03 -36 50 c -8.79 10.81 -27.22 28.34 -29 30 c -0.18 0.16 0.27 -3.17 1 -4 c 1.27 -1.45 3.99 -2.99 6 -4 c 1.15 -0.57 2.79 -1.17 4 -1 c 5.13 0.73 11.5 3.74 17 4 c 7.9 0.38 16.57 -0.89 25 -2 c 9.56 -1.26 19.01 -4.03 28 -5 c 2.86 -0.31 6.19 1 9 1 c 1.28 0 2.81 -1.2 4 -1 c 4.19 0.7 9.44 3.13 14 4 c 2.19 0.42 4.97 0.47 7 0 c 1.95 -0.45 4.06 -2.51 6 -3 c 1.74 -0.43 4.18 -0.39 6 0 c 2.59 0.56 5.53 2.65 8 3 c 1.76 0.25 4.24 -0.36 6 -1 c 1.69 -0.61 3.48 -1.79 5 -3 c 8.15 -6.46 16.78 -12.78 24 -20 c 5.59 -5.59 10.73 -12.33 15 -19 c 3.95 -6.16 10.21 -20.33 10 -20 c -0.51 0.8 -18.18 30.71 -27 47 c -4.51 8.33 -8.32 16.59 -12 25 c -0.97 2.21 -2.06 7.11 -2 7 c 0.26 -0.55 8.26 -22.13 14 -32 c 7.07 -12.15 17.17 -22.91 25 -35 c 3.91 -6.03 6.54 -13.15 10 -19 c 0.68 -1.16 2.89 -3.11 3 -3 c 0.11 0.11 -1.8 2.68 -2 4 c -0.41 2.65 0.37 6.07 0 9 c -0.62 4.98 -2.42 9.9 -3 15 c -1.1 9.7 -1.76 19.35 -2 29 c -0.09 3.67 0.43 7.37 1 11 c 0.43 2.71 0.76 5.89 2 8 c 1.81 3.08 5.14 7.25 8 9 c 2.42 1.48 6.57 1.57 10 2 l 30 3"/></svg>