<?xml version="1.0" encoding="UTF-8" standalone="no"?><!DOCTYPE svg PUBLIC "-//W3C//DTD SVG 1.1//EN" "http://www.w3.org/Graphics/SVG/1.1/DTD/svg11.dtd"><svg xmlns="http://www.w3.org/2000/svg" version="1.1" width="559" height="128"><path stroke-linejoin="round" stroke-linecap="round" stroke-width="2" stroke="rgb(52, 58, 64)" fill="none" d="M 6 1 l 1 1"/><path stroke-linejoin="round" stroke-linecap="round" stroke-width="2" stroke="rgb(52, 58, 64)" fill="none" d="M 1 4 l 1 1"/><path stroke-linejoin="round" stroke-linecap="round" stroke-width="2" stroke="rgb(52, 58, 64)" fill="none" d="M 23 75 c 0.09 -0.19 2.83 -7.88 5 -11 c 2.93 -4.21 7.06 -8.06 11 -12 c 6.68 -6.68 13.1 -12.87 20 -19 c 2.15 -1.91 4.5 -3.7 7 -5 c 6.39 -3.31 13.62 -7.15 20 -9 c 3.2 -0.93 8.17 -0.94 11 0 c 2.37 0.79 5.45 3.75 7 6 c 1.81 2.63 3.61 6.65 4 10 c 1.5 12.76 1.05 26.95 2 41 c 0.42 6.2 0.99 12.72 2 18 c 0.2 1.05 1.54 3.25 2 3 c 1.35 -0.75 5.26 -5.04 7 -8 c 5.72 -9.71 10.26 -20.72 16 -31 c 2.37 -4.25 6.6 -10.74 8 -12 c 0.35 -0.32 1.87 1.96 2 3 c 1.06 8.71 0.54 20.38 2 30 c 0.82 5.36 2.82 11.24 5 16 c 1.3 2.84 4.43 7.74 6 8 c 1.33 0.22 4.99 -3.72 6 -6 c 2.6 -5.86 4.26 -13.84 6 -21 c 0.97 -3.99 0.78 -8.34 2 -12 c 1.34 -4.03 3.47 -8.72 6 -12 c 2.81 -3.63 7.29 -7.66 11 -10 c 2.06 -1.3 5.9 -2.3 8 -2 c 1.84 0.26 4.52 2.39 6 4 c 1.93 2.11 4.1 5.17 5 8 c 3.23 10.17 5.13 21.8 8 33 c 0.54 2.09 1.03 4.38 2 6 c 0.87 1.45 2.75 3.53 4 4 c 0.91 0.34 2.96 -0.34 4 -1 c 2.32 -1.48 4.97 -3.73 7 -6 c 6.25 -7 11.62 -14.65 18 -22 c 4.93 -5.67 9.75 -11.38 15 -16 c 2.79 -2.46 6.62 -4.5 10 -6 c 2.39 -1.06 5.84 -2.17 8 -2 c 1.53 0.12 4.39 1.77 5 3 c 0.74 1.47 0.39 4.81 0 7 c -0.58 3.26 -1.62 6.93 -3 10 c -1.54 3.43 -3.75 6.88 -6 10 c -2.05 2.84 -4.47 5.66 -7 8 c -2.04 1.9 -4.6 3.6 -7 5 c -1.5 0.88 -3.43 1.87 -5 2 c -2.06 0.17 -4.97 -0.39 -7 -1 c -1.04 -0.31 -2.22 -1.22 -3 -2 c -0.78 -0.78 -1.89 -3.25 -2 -3 c -0.3 0.71 -1.6 7.11 -1 10 c 0.91 4.38 3.61 9.82 6 14 c 1.45 2.53 3.8 4.96 6 7 c 2.39 2.22 5.18 4.28 8 6 c 3.15 1.92 6.68 4.2 10 5 c 4.47 1.07 10.52 1.54 15 1 c 3.21 -0.39 7.13 -2.25 10 -4 c 2.83 -1.73 6.19 -4.29 8 -7 c 3.8 -5.71 8.36 -13.43 10 -20 c 1.77 -7.06 1.62 -16.24 1 -24 c -0.68 -8.56 -4.9 -25.55 -5 -26 c -0.03 -0.14 0.29 5.42 1 8 c 4.6 16.68 9.58 33.18 15 50 c 1.35 4.19 3.07 8.14 5 12 c 1.4 2.8 3.11 5.74 5 8 c 1.28 1.54 3.49 3.73 5 4 c 1.49 0.27 4.45 -0.93 6 -2 c 2.43 -1.68 5.24 -4.43 7 -7 c 2.38 -3.48 4.54 -7.84 6 -12 c 2.83 -8.05 5.28 -16.57 7 -25 c 1.27 -6.2 1.64 -12.55 2 -19 c 0.32 -5.74 0.2 -11.21 0 -17 c -0.14 -4.1 -0.11 -8.27 -1 -12 c -1.03 -4.31 -4.24 -12.13 -5 -13 c -0.3 -0.34 -2 3.47 -2 5 c 0 2.61 1.04 6.11 2 9 c 1.36 4.07 2.96 8.1 5 12 c 12.52 23.88 25 47.67 38 70 c 1.97 3.38 5.14 6.53 8 9 c 1.91 1.66 4.92 3.7 7 4 c 1.88 0.27 5.4 -0.74 7 -2 c 2.51 -1.97 5.64 -5.86 7 -9 c 1.71 -3.94 2.69 -9.44 3 -14 c 0.33 -4.79 0.07 -10.26 -1 -15 c -1.86 -8.27 -5.01 -16.79 -8 -25 c -1.02 -2.8 -2.44 -5.43 -4 -8 c -3.15 -5.18 -6.04 -10.91 -10 -15 c -5.62 -5.81 -13.08 -11.45 -20 -16 c -4.47 -2.94 -9.92 -5.31 -15 -7 c -4.69 -1.56 -10.12 -2.66 -15 -3 c -4.48 -0.31 -9.66 0.03 -14 1 c -4.31 0.96 -8.95 2.97 -13 5 c -3.15 1.57 -6.78 3.63 -9 6 c -2.4 2.56 -4.77 6.62 -6 10 c -1.28 3.52 -2 8.11 -2 12 c 0 6.11 0.86 13.06 2 19 c 0.46 2.37 1.78 4.77 3 7 c 2.45 4.46 4.78 9.39 8 13 c 4.79 5.36 11.03 10.84 17 15 c 4.71 3.28 10.56 6.08 16 8 c 5.61 1.98 11.87 3.06 18 4 c 7.01 1.08 13.85 1.67 21 2 c 7.8 0.35 15.28 0.63 23 0 c 16.9 -1.39 32.73 -3.64 50 -6 c 15.62 -2.14 29.57 -5.02 45 -7 l 25 -2"/></svg>