<?xml version="1.0" encoding="UTF-8" standalone="no"?><!DOCTYPE svg PUBLIC "-//W3C//DTD SVG 1.1//EN" "http://www.w3.org/Graphics/SVG/1.1/DTD/svg11.dtd"><svg xmlns="http://www.w3.org/2000/svg" version="1.1" width="377" height="106"><path stroke-linejoin="round" stroke-linecap="round" stroke-width="2" stroke="rgb(52, 58, 64)" fill="none" d="M 11 18 c -0.04 0.16 -1.71 5.95 -2 9 c -1.04 10.94 -0.78 21.86 -2 33 c -1.16 10.58 -3.59 20.41 -5 31 c -0.63 4.73 -1.79 12.69 -1 14 c 0.45 0.76 5.54 -2.12 7 -4 c 5.77 -7.45 10.97 -17.95 17 -27 c 2.84 -4.25 5.8 -8 9 -12 c 2.27 -2.84 4.52 -5.52 7 -8 c 1.5 -1.5 4.33 -4.6 5 -4 c 1.46 1.31 4.2 8.64 5 13 c 1.44 7.84 1.02 16.67 2 25 c 0.36 3.06 1 6.4 2 9 c 0.54 1.41 2.3 4.28 3 4 c 1.5 -0.6 5.35 -5.2 7 -8 c 1.47 -2.5 1.65 -6.19 3 -9 c 2.61 -5.44 5.77 -10.7 9 -16 c 1.51 -2.48 3.08 -4.96 5 -7 l 11 -10"/><path stroke-linejoin="round" stroke-linecap="round" stroke-width="2" stroke="rgb(52, 58, 64)" fill="none" d="M 131 93 c 0.21 -0.47 7.41 -18.09 12 -27 c 6.96 -13.51 14.16 -26.26 22 -39 c 2.87 -4.67 6.45 -8.66 10 -13 c 2.61 -3.19 5.18 -6.18 8 -9 c 1.5 -1.5 4.55 -4.45 5 -4 c 0.64 0.64 0.74 6.42 0 9 c -1.1 3.85 -3.66 8.08 -6 12 c -13.32 22.29 -37.35 59.7 -40 65 c -0.33 0.66 6.48 -1.49 9 -3 c 3.77 -2.26 7.07 -6.21 11 -9 c 8.97 -6.37 17.68 -12.87 27 -18 c 6.82 -3.76 15.04 -6.84 22 -9 c 2.05 -0.64 5.92 -0.81 7 0 c 0.94 0.71 1.24 4.22 1 6 c -0.37 2.78 -1.38 6.48 -3 9 c -7.61 11.8 -27.53 36.49 -26 36 c 2.97 -0.94 64.94 -46.73 70 -50 c 0.37 -0.24 -0.79 4.49 -2 6 c -8.65 10.81 -20.03 22.32 -30 34 c -1.89 2.22 -5 6.45 -5 7 c 0 0.34 3.58 -1 5 -2 c 13.74 -9.65 27.75 -21.24 42 -31 c 3.66 -2.51 12.3 -6.57 12 -6 c -0.88 1.69 -26.13 29.53 -25 31 c 1.12 1.45 22.94 -12.1 35 -18 c 3.98 -1.95 7.83 -3.46 12 -5 c 5.07 -1.88 10.47 -4.09 15 -5 c 1.46 -0.29 4.51 0.12 5 1 c 0.77 1.38 0.82 5.81 0 8 c -1.89 5.03 -5.68 10.76 -9 16 c -3.11 4.91 -10.43 14.06 -10 14 c 0.57 -0.08 10.97 -10.44 17 -15 c 6.35 -4.8 12.96 -9.22 20 -13 c 11.08 -5.95 34 -16 34 -16"/></svg>