<?xml version="1.0" encoding="UTF-8" standalone="no"?><!DOCTYPE svg PUBLIC "-//W3C//DTD SVG 1.1//EN" "http://www.w3.org/Graphics/SVG/1.1/DTD/svg11.dtd"><svg xmlns="http://www.w3.org/2000/svg" version="1.1" width="540" height="144"><path stroke-linejoin="round" stroke-linecap="round" stroke-width="2" stroke="rgb(52, 58, 64)" fill="none" d="M 174 51 l 1 1"/><path stroke-linejoin="round" stroke-linecap="round" stroke-width="2" stroke="rgb(52, 58, 64)" fill="none" d="M 42 33 c 0.05 -0.04 2.2 -1.2 3 -2 c 1.1 -1.1 2.43 -2.57 3 -4 c 1.3 -3.26 2.65 -7.51 3 -11 c 0.28 -2.78 -0.1 -6.83 -1 -9 c -0.5 -1.2 -3.02 -3.3 -4 -3 c -2.23 0.69 -6.5 4.29 -9 7 c -5.31 5.75 -10.02 12.36 -15 19 c -3.25 4.34 -6.48 8.47 -9 13 c -2.42 4.36 -4.28 9.18 -6 14 c -1.64 4.61 -3.14 9.26 -4 14 c -1.13 6.22 -1.75 12.96 -2 19 c -0.07 1.61 0.41 3.48 1 5 c 1.03 2.67 2.56 5.36 4 8 c 0.58 1.06 1.2 2.2 2 3 c 1.1 1.1 2.59 2.46 4 3 c 2.6 1 6.03 1.58 9 2 c 1.61 0.23 3.52 0.45 5 0 c 5.7 -1.74 12.34 -4.17 18 -7 c 4.88 -2.44 9.79 -5.51 14 -9 c 7.34 -6.08 14.48 -12.82 21 -20 c 6.89 -7.57 13.31 -15.67 19 -24 c 3.58 -5.24 6.38 -11.11 9 -17 c 2.76 -6.2 5.81 -13.03 7 -19 c 0.65 -3.26 -0.05 -8.33 -1 -11 c -0.43 -1.21 -2.83 -3 -4 -3 c -1.78 0 -4.84 1.82 -7 3 c -1.42 0.77 -2.84 1.84 -4 3 c -3.12 3.12 -6.54 6.37 -9 10 c -4.42 6.53 -8.5 13.69 -12 21 c -4.22 8.81 -7.87 17.82 -11 27 c -1.87 5.5 -3.55 11.45 -4 17 c -0.52 6.36 -0.03 13.81 1 20 c 0.55 3.33 2.19 7.37 4 10 c 1.55 2.25 4.55 4.31 7 6 l 6 3"/><path stroke-linejoin="round" stroke-linecap="round" stroke-width="2" stroke="rgb(52, 58, 64)" fill="none" d="M 128 70 c 0.02 -0.07 1.28 -3.17 1 -4 c -0.24 -0.73 -2.08 -1.87 -3 -2 c -1.05 -0.15 -2.83 0.42 -4 1 c -3.31 1.65 -7.17 3.64 -10 6 c -2.92 2.44 -5.71 5.79 -8 9 c -2.65 3.71 -5.14 7.91 -7 12 c -1.4 3.08 -2.8 7.38 -3 10 c -0.07 0.91 1.2 2.46 2 3 c 0.92 0.61 2.87 1.2 4 1 c 2.08 -0.38 4.92 -1.68 7 -3 c 4.1 -2.59 8.35 -5.66 12 -9 c 4.3 -3.94 8.42 -8.65 12 -13 c 0.91 -1.1 2.14 -3.17 2 -4 c -0.11 -0.67 -2.08 -1.87 -3 -2 c -1.05 -0.15 -3.01 0.29 -4 1 c -3.24 2.31 -6.84 5.84 -10 9 c -1.5 1.5 -3.53 3.45 -4 5 c -0.37 1.23 0.13 4.88 1 5 c 2.27 0.32 8.95 -1.5 13 -3 c 4.75 -1.76 11.13 -6.28 14 -7 c 0.66 -0.17 2 2.21 2 3 c 0 0.79 -2.32 2.76 -2 3 c 0.53 0.39 4.19 0.45 6 0 c 4.5 -1.12 10.19 -4.36 14 -5 c 1.15 -0.19 3.35 1.1 4 2 c 0.74 1.03 0.18 4.42 1 5 c 0.96 0.69 4.36 0.68 6 0 l 23 -12"/><path stroke-linejoin="round" stroke-linecap="round" stroke-width="2" stroke="rgb(52, 58, 64)" fill="none" d="M 271 12 c 0 -0.09 0.32 -3.54 0 -5 c -0.29 -1.3 -1.12 -3.5 -2 -4 c -0.98 -0.56 -3.66 -0.49 -5 0 c -1.93 0.7 -4.13 2.48 -6 4 c -3.49 2.83 -7.15 5.61 -10 9 c -7.71 9.16 -15 18.93 -22 29 c -3.79 5.46 -7.05 11.1 -10 17 c -2.75 5.5 -5.12 11.19 -7 17 c -1.79 5.52 -3.13 11.28 -4 17 c -0.8 5.25 -1.34 10.89 -1 16 c 0.3 4.56 1.65 9.72 3 14 c 0.55 1.74 1.73 3.73 3 5 c 2.49 2.49 5.87 5.51 9 7 c 3.39 1.61 8.06 2.38 12 3 c 2.23 0.35 4.74 0.32 7 0 c 4.63 -0.66 9.67 -1.41 14 -3 c 5.41 -1.98 10.9 -4.98 16 -8 l 11 -8"/><path stroke-linejoin="round" stroke-linecap="round" stroke-width="2" stroke="rgb(52, 58, 64)" fill="none" d="M 263 99 c -0.02 0.07 -1 2.78 -1 4 c 0 1.22 0.44 2.87 1 4 c 0.68 1.37 2.13 4.2 3 4 c 2.12 -0.49 7.28 -4.49 10 -7 c 1.3 -1.2 1.82 -3.53 3 -5 c 1.43 -1.78 3.68 -3.1 5 -5 c 6.87 -9.89 13.62 -20.29 20 -31 c 3.09 -5.19 5.49 -10.42 8 -16 c 3.65 -8.12 7.9 -16.75 10 -24 c 0.57 -1.97 -0.27 -5.17 -1 -7 c -0.44 -1.1 -2.19 -3.2 -3 -3 c -2.07 0.52 -6.29 3.71 -9 6 c -3.55 2.99 -7.14 6.32 -10 10 c -6.41 8.24 -12.33 16.93 -18 26 c -4.49 7.19 -8.26 14.34 -12 22 c -3.75 7.66 -6.83 15.08 -10 23 c -1.6 3.99 -2.77 7.83 -4 12 c -2.21 7.52 -4.33 14.6 -6 22 l -1 9"/><path stroke-linejoin="round" stroke-linecap="round" stroke-width="2" stroke="rgb(52, 58, 64)" fill="none" d="M 293 107 c 0.03 0.09 1.07 4.07 2 5 c 0.71 0.71 2.8 1.11 4 1 c 2.11 -0.19 4.92 -0.96 7 -2 c 4.36 -2.18 9.1 -4.88 13 -8 c 5.97 -4.77 11.85 -10.22 17 -16 c 5.83 -6.53 11.14 -13.62 16 -21 c 4.87 -7.38 9.39 -15.17 13 -23 c 2.29 -4.97 4.59 -11.73 5 -16 c 0.14 -1.49 -1.84 -4.49 -3 -5 c -1.21 -0.54 -4.48 0.06 -6 1 c -4.79 2.96 -10.86 7.45 -15 12 c -5.87 6.44 -11.56 14.23 -16 22 c -6.13 10.73 -11.52 22.57 -16 34 c -2.08 5.31 -3.08 11.27 -4 17 c -0.74 4.6 -1.35 9.63 -1 14 c 0.28 3.55 1.8 7.63 3 11 c 0.38 1.07 1.18 2.29 2 3 c 1.33 1.14 3.39 2.79 5 3 c 2.78 0.37 6.91 -0.27 10 -1 c 2.34 -0.55 4.72 -1.81 7 -3 c 5.5 -2.87 10.88 -5.52 16 -9 c 13.79 -9.35 26.32 -19.61 40 -29 c 3.47 -2.38 7.37 -4.41 11 -6 c 1.48 -0.65 3.81 -1.3 5 -1 c 0.99 0.25 2.81 1.9 3 3 c 0.64 3.62 -0.42 9.55 0 14 c 0.22 2.31 1.15 4.87 2 7 c 0.42 1.06 1.15 2.34 2 3 c 1.9 1.48 4.7 3.51 7 4 c 3.43 0.72 7.99 0.4 12 0 c 16.18 -1.62 31.81 -4.51 48 -6 c 5.69 -0.53 11.3 -0.35 17 0 c 5.41 0.33 10.68 0.94 16 2 l 24 6"/></svg>