<?xml version="1.0" encoding="UTF-8" standalone="no"?><!DOCTYPE svg PUBLIC "-//W3C//DTD SVG 1.1//EN" "http://www.w3.org/Graphics/SVG/1.1/DTD/svg11.dtd"><svg xmlns="http://www.w3.org/2000/svg" version="1.1" width="640" height="164"><path stroke-linejoin="round" stroke-linecap="round" stroke-width="2" stroke="rgb(52, 58, 64)" fill="none" d="M 311 87 l 1 1"/><path stroke-linejoin="round" stroke-linecap="round" stroke-width="2" stroke="rgb(52, 58, 64)" fill="none" d="M 78 17 c -0.17 -0.05 -6.79 -2.71 -10 -3 c -3.7 -0.34 -8.24 0.34 -12 1 c -1.68 0.3 -3.59 1.03 -5 2 c -4.68 3.2 -9.65 7.03 -14 11 c -3.29 3 -5.82 6.82 -9 10 c -1.84 1.84 -4.32 3.08 -6 5 c -5.21 5.95 -10.55 12.72 -15 19 c -0.99 1.4 -1.53 3.27 -2 5 c -1.53 5.62 -3.23 11.39 -4 17 c -0.53 3.85 -0.37 8.11 0 12 c 0.28 2.99 0.99 6.78 2 9 c 0.4 0.87 2.14 2.09 3 2 c 1.81 -0.18 5.19 -1.61 7 -3 c 2.19 -1.68 4.03 -4.51 6 -7 c 4.57 -5.77 9.14 -10.91 13 -17 c 11.32 -17.86 26.6 -46.51 32 -54 c 0.49 -0.68 3.82 2.51 4 4 c 1.19 9.76 0.26 24.59 1 37 c 0.26 4.41 1.07 8.83 2 13 c 0.38 1.71 1.12 3.54 2 5 c 1.05 1.74 2.6 4.22 4 5 c 1.09 0.61 3.66 0.52 5 0 c 2.53 -0.97 5.62 -3.07 8 -5 c 2.85 -2.32 5.6 -5.1 8 -8 c 3.94 -4.78 7.95 -9.69 11 -15 c 4.55 -7.92 9.06 -16.54 12 -25 c 2.6 -7.48 4.02 -16.43 5 -24 c 0.28 -2.18 -0.12 -5.98 -1 -7 c -0.62 -0.72 -4.17 -0.72 -5 0 c -1.26 1.1 -2.37 4.6 -3 7 c -1.34 5.13 -2.47 10.67 -3 16 c -0.46 4.59 -0.4 9.34 0 14 c 0.61 7.06 1.68 13.89 3 21 c 1.41 7.56 3.04 14.56 5 22 c 1.46 5.53 3.16 10.75 5 16 c 0.49 1.4 1.11 2.98 2 4 c 1.27 1.45 3.57 4.1 5 4 c 2.49 -0.17 7.61 -2.61 10 -5 c 6.83 -6.83 16.72 -24.87 20 -25 c 2.53 -0.1 3.59 17.25 6 24 c 0.55 1.54 2.61 3.13 4 4 c 1.01 0.63 2.85 1.13 4 1 c 1.5 -0.17 3.57 -1.05 5 -2 c 4.36 -2.91 9.01 -6.45 13 -10 c 1.9 -1.69 3.4 -3.87 5 -6 c 2.49 -3.33 5.11 -6.46 7 -10 c 3.06 -5.7 7.86 -17.68 8 -18 c 0.03 -0.07 -1.64 2.61 -2 4 c -1.25 4.74 -2.57 10.24 -3 15 c -0.2 2.2 0.39 4.97 1 7 c 0.31 1.04 1.18 2.18 2 3 c 2.41 2.41 5.15 5.2 8 7 c 3.24 2.05 7.66 4.21 11 5 c 1.68 0.4 4.5 -0.18 6 -1 c 1.74 -0.95 3.97 -3.09 5 -5 c 3.01 -5.56 5.8 -12.62 8 -19 c 1.09 -3.16 1.59 -6.68 2 -10 c 0.24 -1.95 -0.47 -5.77 0 -6 c 0.44 -0.22 3.15 2.49 4 4 c 1.95 3.47 2.7 8.83 5 12 c 2.63 3.62 7.61 9.35 11 10 l 15 -5"/><path stroke-linejoin="round" stroke-linecap="round" stroke-width="2" stroke="rgb(52, 58, 64)" fill="none" d="M 199 27 l -3 -2"/><path stroke-linejoin="round" stroke-linecap="round" stroke-width="2" stroke="rgb(52, 58, 64)" fill="none" d="M 427 85 c -0.07 0.07 -2.53 2.87 -4 4 c -2.81 2.16 -5.82 4.67 -9 6 c -6.79 2.85 -14.71 5.54 -22 7 c -5.69 1.14 -12.05 1 -18 1 c -2.66 0 -5.45 -0.31 -8 -1 c -6.01 -1.62 -12.21 -3.64 -18 -6 c -3.14 -1.28 -6.3 -2.95 -9 -5 c -8.2 -6.21 -16.44 -12.78 -24 -20 c -7.2 -6.87 -13.57 -14.25 -20 -22 c -5.1 -6.15 -10.63 -12.65 -14 -19 c -1.91 -3.59 -3 -8.98 -3 -13 c 0 -4.31 0.34 -13.48 3 -14 c 8.95 -1.75 43.96 -3.05 48 4 c 5.42 9.46 -5.48 41.88 -9 64 c -4.8 30.21 -14.42 69.36 -15 87 c -0.08 2.6 10.54 6.94 12 5 c 9.82 -13.1 27.27 -51.36 42 -77 c 3.49 -6.08 7.72 -12.29 12 -17 c 1.94 -2.13 5.56 -4.3 8 -5 c 1.58 -0.45 4.71 0.06 6 1 c 1.83 1.33 3.91 4.56 5 7 c 1.44 3.24 2.44 7.25 3 11 c 1.78 11.92 2.01 24.58 4 36 c 0.59 3.39 2.3 7.35 4 10 c 1.01 1.58 3.37 3.35 5 4 c 1.28 0.51 3.66 0.52 5 0 c 2.53 -0.97 5.85 -2.98 8 -5 c 2.92 -2.74 5.55 -6.44 8 -10 c 4.31 -6.25 7.98 -12.37 12 -19 c 2.88 -4.76 5.76 -9.3 8 -14 c 1.01 -2.12 1.09 -4.78 2 -7 c 1.4 -3.4 3.17 -6.8 5 -10 c 0.82 -1.43 1.86 -2.86 3 -4 c 1.46 -1.46 3.29 -3.22 5 -4 c 1.62 -0.74 4.53 -1.61 6 -1 c 3.29 1.35 7.49 5.15 11 8 c 1.83 1.48 3.66 3.14 5 5 c 2.9 4.01 5.72 8.44 8 13 c 3.75 7.5 6.28 15.37 10 23 c 2.72 5.59 5.74 10.7 9 16 c 2.17 3.52 4.41 7.04 7 10 c 1.95 2.23 4.68 4.52 7 6 c 1.04 0.66 2.95 1.15 4 1 c 0.92 -0.13 1.99 -1.28 3 -2 c 1.4 -1 3.2 -1.76 4 -3 c 1.92 -2.99 3.54 -7.24 5 -11 c 0.88 -2.26 1.71 -4.65 2 -7 c 0.69 -5.5 1.16 -11.36 1 -17 c -0.17 -5.99 -0.97 -11.94 -2 -18 c -1.69 -9.91 -3.51 -19.17 -6 -29 c -4.36 -17.23 -14.79 -41.62 -14 -50 c 0.29 -3.1 14.8 -4.87 19 -3 c 5.57 2.47 11.6 12.35 17 19 c 3.35 4.12 6.08 8.4 9 13 c 13.28 20.91 24.71 40.24 38 61 c 3.18 4.97 6.36 9.5 10 14 c 3.44 4.26 7.02 8.51 11 12 l 13 9"/></svg>