<?xml version="1.0" encoding="UTF-8" standalone="no"?><!DOCTYPE svg PUBLIC "-//W3C//DTD SVG 1.1//EN" "http://www.w3.org/Graphics/SVG/1.1/DTD/svg11.dtd"><svg xmlns="http://www.w3.org/2000/svg" version="1.1" width="547" height="173"><path stroke-linejoin="round" stroke-linecap="round" stroke-width="2" stroke="rgb(52, 58, 64)" fill="none" d="M 28 -1 c -0.14 0.05 -5.25 2.25 -8 3 c -4.61 1.26 -9.66 2.54 -14 3 c -1.54 0.16 -4.94 -1.71 -5 -1 c -0.29 3.35 0.98 16.61 3 24 c 1.83 6.7 5.6 13.3 9 20 c 7.91 15.58 15.4 30.51 24 45 c 3 5.06 6.83 10.1 11 14 c 5.86 5.48 13.96 10.06 20 15 c 0.87 0.71 1.9 3.31 2 3 c 0.88 -2.73 5.37 -20.61 7 -31 c 1.03 -6.54 0.37 -13.28 1 -20 c 0.38 -4.08 1.05 -10.92 2 -12 c 0.5 -0.57 3.73 2.43 5 4 c 2.87 3.53 6 7.73 8 12 c 5.22 11.16 8.55 24.32 14 35 c 2.57 5.05 7.48 10.7 11 14 c 1.01 0.95 4.39 1.61 5 1 c 0.84 -0.84 1.12 -4.78 1 -7 c -0.19 -3.51 -1.03 -7.35 -2 -11 c -3.09 -11.58 -6.33 -22.49 -10 -34 c -1.44 -4.52 -3.89 -8.56 -5 -13 c -1.86 -7.43 -3.83 -15.67 -4 -23 c -0.15 -6.35 1.42 -14.12 3 -20 c 0.56 -2.1 2.47 -4.47 4 -6 c 1.24 -1.24 3.3 -2.55 5 -3 c 2.92 -0.78 6.73 -1 10 -1 c 2.62 0 5.72 0.05 8 1 c 5.2 2.17 11.72 5.31 16 9 c 4.81 4.15 8.84 10.45 13 16 c 1.9 2.54 3.88 5.28 5 8 c 1.1 2.66 1.86 6.09 2 9 c 0.18 3.81 -0.16 8.64 -1 12 c -0.35 1.39 -1.89 3.2 -3 4 c -0.92 0.66 -2.75 1 -4 1 c -1.85 0 -4.25 -0.42 -6 -1 c -1.04 -0.35 -2.46 -1.2 -3 -2 c -0.61 -0.92 -1.23 -2.94 -1 -4 c 0.33 -1.49 1.8 -4.1 3 -5 c 1.05 -0.79 3.41 -1 5 -1 c 2.21 0 5.35 -0.19 7 1 c 9.79 7.03 21.01 19.08 32 27 c 5.28 3.8 12.25 5.68 18 9 c 2.86 1.65 5.75 3.75 8 6 c 2.25 2.25 4.89 5.31 6 8 c 1 2.43 1.3 6.28 1 9 c -0.32 2.85 -1.75 6.15 -3 9 c -1.06 2.42 -2.43 5.43 -4 7 c -1.05 1.05 -3.47 1.85 -5 2 c -1.45 0.14 -3.62 -0.31 -5 -1 c -2.33 -1.17 -5.24 -3 -7 -5 c -2.95 -3.35 -8.37 -9.26 -8 -12 c 0.39 -2.82 7.13 -6.9 11 -10 c 2.82 -2.25 5.81 -4.16 9 -6 c 10.43 -6 21.16 -10.82 31 -17 c 4.35 -2.73 8.23 -6.43 12 -10 c 2.57 -2.43 5.17 -5.18 7 -8 c 1.69 -2.62 3.33 -5.94 4 -9 c 1.58 -7.2 2.78 -15.73 3 -23 c 0.1 -3.2 -1 -6.84 -2 -10 c -0.97 -3.06 -2.38 -6.3 -4 -9 c -1.28 -2.14 -3.16 -4.77 -5 -6 c -1.72 -1.14 -5.17 -2.43 -7 -2 c -2.94 0.69 -6.94 3.81 -10 6 c -1.49 1.06 -3.12 2.48 -4 4 c -2.58 4.46 -5.26 9.97 -7 15 c -1.18 3.4 -1.65 7.33 -2 11 c -0.31 3.28 -0.66 6.9 0 10 c 1.58 7.46 3.9 15.82 7 23 c 3.12 7.22 7.66 14.37 12 21 c 1.91 2.91 4.47 5.84 7 8 c 1.92 1.64 4.66 3.1 7 4 c 1.76 0.68 4.38 1.37 6 1 c 2.15 -0.5 5.24 -2.42 7 -4 c 1.27 -1.14 2.62 -3.3 3 -5 c 0.84 -3.8 1.49 -8.93 1 -13 c -0.78 -6.43 -5 -16.95 -5 -20 c 0 -0.74 4.11 -0.83 5 0 c 3.07 2.87 7.6 9 10 14 c 5.39 11.22 9.51 23.52 14 36 c 3.41 9.5 5.56 18.59 9 28 c 3.04 8.32 9.46 22.01 10 24 c 0.09 0.34 -3.17 -0.99 -4 -2 c -3.35 -4.07 -7.61 -9.88 -10 -15 c -2.06 -4.41 -2.9 -9.92 -4 -15 c -0.57 -2.64 -1 -5.44 -1 -8 c 0 -1.93 0.36 -4.24 1 -6 c 0.61 -1.69 1.84 -3.51 3 -5 c 1.12 -1.44 2.52 -3.01 4 -4 c 2.34 -1.56 5.38 -3.5 8 -4 c 3.81 -0.73 8.74 0.44 13 0 c 5.33 -0.55 10.78 -1.69 16 -3 c 2.74 -0.69 5.73 -1.76 8 -3 c 1.13 -0.61 2.36 -1.85 3 -3 c 2.5 -4.5 5.96 -10.84 7 -15 c 0.34 -1.35 -1.11 -3.76 -2 -5 c -0.59 -0.83 -2.39 -2.26 -3 -2 c -1.09 0.47 -3.44 3.23 -4 5 c -1.24 3.92 -2 9.62 -2 14 c 0 2.86 0.91 6.46 2 9 c 0.75 1.76 2.54 4.73 4 5 c 2.77 0.52 8.7 -0.72 12 -2 c 2.12 -0.82 5.15 -3.46 6 -5 c 0.45 -0.81 -1.4 -4 -1 -4 c 0.86 0 5.6 2.4 8 4 c 2.48 1.65 5.24 5.3 7 6 c 0.69 0.28 2.9 -1.17 3 -2 c 0.41 -3.48 -1.06 -14.34 -1 -15 c 0.02 -0.2 1.12 3.12 2 4 c 0.88 0.88 2.61 1.68 4 2 c 8.24 1.92 17.39 3.73 26 5 c 2.6 0.38 6.01 0.66 8 0 c 1.41 -0.47 3.22 -2.59 4 -4 c 0.7 -1.27 0.91 -3.33 1 -5 c 0.24 -4.26 0.29 -8.63 0 -13 c -0.38 -5.75 -0.73 -11.93 -2 -17 c -0.6 -2.39 -3.7 -6.9 -4 -7 c -0.23 -0.08 0.24 4.47 1 6 c 0.71 1.42 2.93 2.53 4 4 c 1.52 2.09 2.42 4.89 4 7 c 2.36 3.15 5.12 6.48 8 9 c 2.26 1.98 5.84 4.86 8 5 c 1.85 0.12 4.95 -2.43 7 -4 c 2.15 -1.66 3.99 -4.59 6 -6 c 0.98 -0.69 2.95 -1.15 4 -1 c 0.92 0.13 2.27 1.17 3 2 c 1.45 1.66 3.11 3.89 4 6 c 1.68 3.98 2.88 8.53 4 13 c 1.26 5.03 3.19 11.33 3 15 c -0.07 1.36 -2.84 3.71 -4 4 c -0.91 0.23 -3.06 -1.06 -4 -2 c -1.8 -1.8 -3.62 -4.54 -5 -7 c -1.58 -2.81 -3.08 -5.95 -4 -9 c -1.04 -3.46 -2 -7.53 -2 -11 c 0 -3.47 1.03 -7.43 2 -11 c 1.02 -3.74 1.81 -8.48 4 -11 c 3.75 -4.31 10.55 -8.28 16 -12 c 1.83 -1.25 3.91 -2.41 6 -3 c 8.31 -2.34 17.26 -4.51 26 -6 l 15 -1"/></svg>