<?xml version="1.0" encoding="UTF-8" standalone="no"?><!DOCTYPE svg PUBLIC "-//W3C//DTD SVG 1.1//EN" "http://www.w3.org/Graphics/SVG/1.1/DTD/svg11.dtd"><svg xmlns="http://www.w3.org/2000/svg" version="1.1" width="424" height="135"><path stroke-linejoin="round" stroke-linecap="round" stroke-width="2" stroke="rgb(52, 58, 64)" fill="none" d="M 14 1 c 0.07 0.05 3.2 1.89 4 3 c 0.66 0.92 0.13 3.54 1 4 c 4 2.1 11.94 4.95 18 6 c 10.9 1.89 22.39 2.82 34 3 c 54.76 0.84 105.18 0.29 161 0 c 11.79 -0.06 22.31 -0.4 34 -1 c 8.27 -0.43 15.8 -1.78 24 -2 c 16.69 -0.46 48.21 0.33 49 0 c 0.6 -0.25 -24.26 -3.73 -37 -5 c -14.7 -1.47 -28.4 -2.61 -43 -3 c -10.84 -0.29 -22.3 -0.83 -32 1 c -6.92 1.31 -15.71 5.17 -21 9 c -3.34 2.42 -6.22 7.74 -8 12 c -4.68 11.22 -8.7 23.68 -12 36 c -3.1 11.59 -4.13 23.54 -7 35 c -1.12 4.47 -2.79 9.17 -5 13 c -2.61 4.52 -6.08 10.35 -10 13 c -5.37 3.64 -14.08 6.52 -21 8 c -6.47 1.39 -13.76 0.81 -21 1 c -5.86 0.15 -11.38 0.63 -17 0 c -15.06 -1.7 -30.22 -3.95 -45 -7 c -6.16 -1.27 -12.19 -3.46 -18 -6 c -10.27 -4.49 -20.42 -9.59 -30 -15 c -3.26 -1.84 -6.9 -4.52 -9 -7 c -1.16 -1.37 -1.64 -4.05 -2 -6 c -0.28 -1.55 -0.56 -4.02 0 -5 c 0.5 -0.88 2.65 -1.88 4 -2 c 9.03 -0.8 20 -1.36 30 -1 c 8.72 0.31 17.11 1.62 26 3 c 20 3.09 37.87 6.98 58 10 c 28.3 4.24 54.2 9.49 82 11 c 53.1 2.88 103.84 2 158 2 c 13.04 0 25.02 -1.04 38 -2 c 5.5 -0.41 10.95 -0.83 16 -2 l 10 -4"/></svg>