<?xml version="1.0" encoding="UTF-8" standalone="no"?><!DOCTYPE svg PUBLIC "-//W3C//DTD SVG 1.1//EN" "http://www.w3.org/Graphics/SVG/1.1/DTD/svg11.dtd"><svg xmlns="http://www.w3.org/2000/svg" version="1.1" width="545" height="103"><path stroke-linejoin="round" stroke-linecap="round" stroke-width="2" stroke="rgb(52, 58, 64)" fill="none" d="M 473 51 c 0.07 -0.16 2.25 -6.32 4 -9 c 4.45 -6.79 15 -20 15 -20"/><path stroke-linejoin="round" stroke-linecap="round" stroke-width="2" stroke="rgb(52, 58, 64)" fill="none" d="M 40 1 c -0.09 0 -3.83 -0.59 -5 0 c -1.66 0.83 -4.6 3.41 -5 5 c -0.41 1.63 1.67 4.63 2 7 c 0.99 7.2 1.81 14.64 2 22 c 0.15 5.67 0.04 12.02 -1 17 c -0.49 2.36 -2.4 5.08 -4 7 c -1.55 1.86 -3.91 3.95 -6 5 c -2.21 1.11 -5.67 1.03 -8 2 l -4 3"/><path stroke-linejoin="round" stroke-linecap="round" stroke-width="2" stroke="rgb(52, 58, 64)" fill="none" d="M 1 60 l 1 1"/><path stroke-linejoin="round" stroke-linecap="round" stroke-width="2" stroke="rgb(52, 58, 64)" fill="none" d="M 58 52 c 0.21 -0.31 7.81 -12.88 12 -18 c 1.4 -1.71 4.07 -3.3 6 -4 c 1.34 -0.49 3.4 -0.18 5 0 c 1.32 0.15 3.11 0.23 4 1 c 3.51 3.04 10.62 11.81 11 12 c 0.24 0.12 -2.97 -7.28 -5 -9 c -1.63 -1.38 -5.6 -2.22 -8 -2 c -4.23 0.38 -10.18 2.09 -14 4 c -2.23 1.11 -4.27 3.88 -6 6 c -1.19 1.46 -2.18 3.24 -3 5 c -1.51 3.24 -3.61 7.27 -4 10 c -0.16 1.13 1.09 3.22 2 4 c 1.1 0.94 3.77 2.25 5 2 c 1.46 -0.29 3.62 -2.49 5 -4 c 1.85 -2.03 3.83 -4.54 5 -7 c 1.72 -3.62 3.67 -12.11 4 -12 c 0.34 0.11 -1.28 8.81 -1 13 c 0.37 5.55 1.5 14.9 3 17 c 0.66 0.93 5.07 -1.67 7 -3 c 2.15 -1.49 4.37 -3.79 6 -6 c 2.93 -3.98 5.18 -9.24 8 -13 c 0.92 -1.23 2.68 -2.56 4 -3 c 1.32 -0.44 4.43 -0.91 5 0 c 2.32 3.67 4.44 13.1 7 19 c 0.63 1.46 2.33 4.43 3 4 c 3.21 -2.09 13.21 -14.16 17 -17 c 0.57 -0.43 2.58 1.11 3 2 c 1.57 3.37 2.06 9.28 4 13 c 1.83 3.5 6.13 10.47 8 10 c 2.8 -0.7 8.4 -11.82 12 -15 c 0.94 -0.83 4.38 -0.72 5 0 c 0.88 1.02 0.39 4.97 1 7 c 0.31 1.04 1.2 2.2 2 3 c 1.1 1.1 2.79 2.88 4 3 c 1.53 0.15 4.28 -1.06 6 -2 c 1.75 -0.95 3.73 -2.43 5 -4 c 2.87 -3.53 6.63 -12.23 8 -12 c 1.39 0.23 2.42 10.38 4 14 c 0.39 0.9 2.17 2.15 3 2 c 2.05 -0.37 5.75 -2.31 8 -4 c 2.84 -2.13 7.03 -8.81 8 -8 l 4 18"/><path stroke-linejoin="round" stroke-linecap="round" stroke-width="2" stroke="rgb(52, 58, 64)" fill="none" d="M 331 47 c -0.02 -0.09 -0.32 -3.65 -1 -5 c -0.85 -1.7 -2.57 -4.28 -4 -5 c -1.34 -0.67 -4.13 -0.35 -6 0 c -3.26 0.61 -7.15 1.5 -10 3 c -3.12 1.64 -6.92 4.28 -9 7 c -2.85 3.74 -4.92 9.16 -7 14 c -1.97 4.6 -4.5 9.47 -5 14 c -0.75 6.71 -0.56 16.74 1 22 c 0.61 2.06 4.88 4.75 7 5 c 2.58 0.3 7.58 -1.16 10 -3 c 5.09 -3.87 10.32 -10.43 15 -16 c 2.31 -2.75 4.4 -6.03 6 -9 c 0.61 -1.13 0.92 -4.18 1 -4 c 0.21 0.49 0.64 8.28 2 11 c 0.95 1.9 4.06 4.12 6 5 c 1.24 0.56 3.59 0.51 5 0 c 5.31 -1.93 12.03 -4.74 17 -8 c 4.31 -2.82 7.99 -10.08 12 -11 c 5.72 -1.31 15.49 2.54 23 3 c 3.25 0.2 6.66 -0.47 10 -1 c 3.07 -0.48 6.18 -1.06 9 -2 c 2.05 -0.68 4.1 -1.86 6 -3 c 1.41 -0.85 3.57 -1.99 4 -3 c 0.36 -0.83 -0.48 -4 -1 -4 c -0.81 0 -3.73 2.55 -5 4 c -0.89 1.02 -1.63 2.64 -2 4 c -0.58 2.14 -1 4.83 -1 7 c 0 1.27 0.3 3.18 1 4 c 1 1.16 3.35 2.62 5 3 c 2.26 0.52 5.68 0.58 8 0 c 2.59 -0.65 5.59 -2.32 8 -4 c 7.48 -5.24 15.77 -10.77 22 -17 c 4.66 -4.66 9.91 -17 12 -17 c 1.78 0 2.76 12.12 5 17 c 1.16 2.54 3.84 5.2 6 7 c 1.57 1.31 3.99 2.42 6 3 c 2.42 0.69 5.49 1.15 8 1 c 2.87 -0.17 6.15 -0.97 9 -2 c 5.4 -1.94 11.18 -4.28 16 -7 c 2.54 -1.44 4.79 -3.79 7 -6 l 17 -18"/></svg>