<?xml version="1.0" encoding="UTF-8" standalone="no"?><!DOCTYPE svg PUBLIC "-//W3C//DTD SVG 1.1//EN" "http://www.w3.org/Graphics/SVG/1.1/DTD/svg11.dtd"><svg xmlns="http://www.w3.org/2000/svg" version="1.1" width="446" height="107"><path stroke-linejoin="round" stroke-linecap="round" stroke-width="2" stroke="rgb(52, 58, 64)" fill="none" d="M 272 1 l -2 6"/><path stroke-linejoin="round" stroke-linecap="round" stroke-width="2" stroke="rgb(52, 58, 64)" fill="none" d="M 73 48 c -0.16 -0.19 -5.95 -7.95 -9 -11 c -0.96 -0.96 -2.62 -1.58 -4 -2 c -2.84 -0.87 -6.13 -1.83 -9 -2 c -2.51 -0.15 -5.62 0.17 -8 1 c -3.95 1.38 -8.22 3.78 -12 6 c -1.8 1.06 -3.49 2.49 -5 4 c -4.17 4.17 -8.41 8.38 -12 13 c -3.38 4.34 -6.26 9.21 -9 14 c -1.25 2.19 -2.33 4.65 -3 7 c -0.62 2.18 -0.82 4.64 -1 7 c -0.15 2 -0.31 4.14 0 6 c 0.33 1.96 1.08 4.35 2 6 c 0.61 1.11 1.93 2.68 3 3 c 1.76 0.53 4.97 0.47 7 0 c 1.95 -0.45 4.44 -1.63 6 -3 c 3.78 -3.33 7.68 -7.76 11 -12 c 2.66 -3.39 5 -7.15 7 -11 c 2.68 -5.16 4.47 -10.93 7 -16 c 0.73 -1.45 1.9 -2.9 3 -4 c 0.8 -0.8 2.06 -1.88 3 -2 c 1.33 -0.17 3.47 1 5 1 c 1.24 0 3.89 -1.11 4 -1 c 0.1 0.1 -2.2 1.2 -3 2 c -1.43 1.43 -2.9 3.22 -4 5 c -1.53 2.49 -2.91 5.26 -4 8 c -0.89 2.23 -2.13 4.94 -2 7 c 0.17 2.68 1.73 6.47 3 9 c 0.57 1.13 1.9 2.31 3 3 c 1.39 0.87 3.47 1.85 5 2 c 1.45 0.14 3.48 -0.39 5 -1 c 3.33 -1.33 7.01 -3.01 10 -5 c 2.84 -1.9 5.59 -4.44 8 -7 c 2.9 -3.08 6.61 -9.16 8 -10 c 0.49 -0.29 1.78 2.68 2 4 c 0.39 2.35 0.33 5.37 0 8 c -1 8.01 -3.93 23.58 -4 24 c -0.02 0.1 0.17 -4.29 1 -6 c 4.83 -9.94 12.87 -25.1 17 -31 c 0.48 -0.69 3.41 0.29 4 1 c 0.73 0.88 1.47 3.78 1 5 c -0.92 2.39 -6.46 7.08 -6 8 c 0.46 0.92 6.71 0.39 10 0 c 8.01 -0.94 17.54 -3.52 24 -4 c 0.96 -0.07 2.52 1.14 3 2 c 0.96 1.73 0.96 5.44 2 7 c 0.64 0.96 2.67 1.87 4 2 c 4.75 0.47 11.27 0.64 16 0 c 1.98 -0.27 4.24 -1.75 6 -3 c 2.78 -1.99 5.92 -4.34 8 -7 c 3.69 -4.71 7.55 -10.69 10 -16 c 1.32 -2.87 2.11 -9.11 2 -10 c -0.04 -0.31 -2.75 1.13 -3 2 c -0.83 2.89 -1.2 8.33 -1 12 c 0.11 1.93 1.07 4.52 2 6 c 0.53 0.84 2.21 2 3 2 l 3 -2"/><path stroke-linejoin="round" stroke-linecap="round" stroke-width="2" stroke="rgb(52, 58, 64)" fill="none" d="M 150 44 l 1 1"/><path stroke-linejoin="round" stroke-linecap="round" stroke-width="2" stroke="rgb(52, 58, 64)" fill="none" d="M 286 25 c -0.28 -0.02 -11.28 -1.86 -16 -1 c -5.42 0.99 -11.91 4.25 -17 7 c -2.55 1.38 -5.01 3.83 -7 6 c -1.56 1.7 -3.05 3.93 -4 6 c -0.96 2.09 -1.84 4.8 -2 7 c -0.15 2.14 0.23 4.89 1 7 c 1.79 4.93 4.07 10.61 7 15 c 3.51 5.27 9.32 9.93 13 15 c 1.41 1.94 3 4.98 3 7 c 0 2.26 -1.33 6.66 -3 8 c -2.48 1.98 -8.17 3.52 -12 4 c -3.64 0.46 -8.24 -0.34 -12 -1 c -1.68 -0.3 -3.95 -0.95 -5 -2 c -1.57 -1.57 -3.31 -4.75 -4 -7 c -0.52 -1.68 -0.37 -4.33 0 -6 c 0.22 -1 1.13 -2.35 2 -3 c 2.81 -2.1 6.55 -4.5 10 -6 c 4.03 -1.75 8.86 -3.48 13 -4 c 3.36 -0.42 7.91 -0.16 11 1 c 4.27 1.6 9.4 4.97 13 8 c 2.36 1.98 4.9 7.45 6 8 c 0.49 0.25 1.1 -2.92 2 -4 c 2.28 -2.73 5.27 -5.72 8 -8 c 1.08 -0.9 2.7 -1.71 4 -2 c 1.46 -0.32 3.77 -0.46 5 0 c 1.04 0.39 2.22 1.89 3 3 c 1.48 2.12 2.46 5.64 4 7 c 0.97 0.86 3.85 1.53 5 1 c 2.39 -1.1 6.18 -6.34 8 -7 c 0.73 -0.26 1.93 2.39 3 3 c 1.04 0.59 3 1.25 4 1 c 1.22 -0.3 2.75 -2.72 4 -3 c 1.28 -0.28 3.7 0.35 5 1 c 1.08 0.54 1.93 2.39 3 3 c 1.04 0.59 2.89 1.14 4 1 c 1.2 -0.15 2.93 -1.09 4 -2 c 3.37 -2.89 6.83 -6.41 10 -10 c 4.62 -5.23 9.18 -10.48 13 -16 c 2.07 -2.99 4.55 -9.64 5 -10 c 0.24 -0.19 -0.36 4.11 0 6 c 0.93 4.89 2.16 10.7 4 15 c 0.93 2.17 3.28 4.66 5 6 c 0.91 0.71 2.79 1.1 4 1 c 2.43 -0.2 5.79 -0.79 8 -2 c 4.02 -2.21 8.13 -5.81 12 -9 c 1.82 -1.5 3.72 -3.13 5 -5 c 2.92 -4.26 6.72 -14.64 8 -14 c 1.74 0.87 3.33 14.84 6 21 c 1.39 3.22 4.39 6.88 7 9 c 2.26 1.83 8.39 3.91 9 4 c 0.22 0.03 -1.1 -2.6 -2 -3 c -4.2 -1.87 -10.64 -3.71 -16 -5 c -2.89 -0.69 -6.03 -0.37 -9 -1 c -8.11 -1.72 -16.17 -4.43 -24 -6 c -1.9 -0.38 -4.04 -0.18 -6 0 c -1.67 0.15 -3.44 0.4 -5 1 c -6.97 2.68 -14.11 5.67 -21 9 l -10 6"/><path stroke-linejoin="round" stroke-linecap="round" stroke-width="2" stroke="rgb(52, 58, 64)" fill="none" d="M 318 50 l 1 1"/></svg>