<?xml version="1.0" encoding="UTF-8" standalone="no"?><!DOCTYPE svg PUBLIC "-//W3C//DTD SVG 1.1//EN" "http://www.w3.org/Graphics/SVG/1.1/DTD/svg11.dtd"><svg xmlns="http://www.w3.org/2000/svg" version="1.1" width="599" height="309"><path stroke-linejoin="round" stroke-linecap="round" stroke-width="2" stroke="rgb(52, 58, 64)" fill="none" d="M 5 95 c -0.05 -0.12 -2.28 -4.65 -3 -7 c -0.58 -1.88 -0.86 -3.99 -1 -6 c -0.19 -2.65 -0.28 -5.37 0 -8 c 0.39 -3.67 0.9 -7.4 2 -11 c 19.76 -64.7 38.34 -130.85 60 -192 c 3.92 -11.05 19 -31 19 -31"/><path stroke-linejoin="round" stroke-linecap="round" stroke-width="2" stroke="rgb(52, 58, 64)" fill="none" d="M 52 26 c 0.05 0.26 2.61 10 3 15 c 0.59 7.52 0.31 15.14 0 23 c -0.38 9.59 -0.72 18.61 -2 28 c -1.76 12.93 -4.41 25.34 -7 38 c -0.42 2.07 -1.11 4.22 -2 6 l -3 4"/><path stroke-linejoin="round" stroke-linecap="round" stroke-width="2" stroke="rgb(52, 58, 64)" fill="none" d="M 87 38 c 0.12 0.51 4.97 18.97 7 29 c 2.77 13.65 3.98 26.62 7 40 c 2.4 10.64 9.96 30.79 9 31 c -1.01 0.23 -11.17 -20.1 -18 -29 c -7.37 -9.59 -15.99 -19.21 -25 -27 c -7.94 -6.87 -18.24 -13.13 -27 -18 c -2.49 -1.38 -6.17 -1.81 -9 -2 c -1.86 -0.12 -4.71 0.01 -6 1 c -2.41 1.86 -5.79 5.9 -7 9 c -1.51 3.85 -1.64 9.29 -2 14 c -0.31 4 -0.34 8.06 0 12 c 0.32 3.68 1.13 7.33 2 11 c 0.82 3.43 1.55 7.1 3 10 c 1.39 2.78 3.71 6.17 6 8 c 2.26 1.8 6 3.25 9 4 c 3.36 0.84 7.59 1.31 11 1 c 3.52 -0.32 7.52 -1.64 11 -3 c 4.1 -1.6 8.07 -3.72 12 -6 c 6.59 -3.82 13.24 -7.3 19 -12 c 14.16 -11.56 30.05 -28.61 41 -37 c 1.21 -0.92 4.8 0.02 6 1 c 1.87 1.53 4.7 7.77 5 8 c 0.16 0.12 -0.38 -3.52 -1 -5 c -0.97 -2.34 -2.43 -4.95 -4 -7 c -1.66 -2.15 -4.04 -4.93 -6 -6 c -1.15 -0.63 -3.89 -0.47 -5 0 c -0.8 0.34 -1.61 1.92 -2 3 c -2.17 5.97 -4.95 12.7 -6 19 c -1.21 7.28 -1.43 15.75 -1 23 c 0.21 3.59 1.71 8.2 3 11 c 0.41 0.88 2.24 2.11 3 2 c 1.05 -0.15 2.85 -1.85 4 -3 c 1.79 -1.79 3.57 -3.86 5 -6 c 1.88 -2.82 3.57 -5.84 5 -9 c 3.29 -7.3 6.63 -14.53 9 -22 c 1.94 -6.11 4 -19.34 4 -19 c 0 0.6 -3.27 22.49 -4 34 c -0.62 9.75 -0.24 27.99 0 29 c 0.1 0.44 3.02 -7.86 4 -12 c 2.38 -10 3.55 -20.22 6 -30 c 0.86 -3.44 3.42 -9.88 4 -10 c 0.49 -0.1 0.94 5.94 1 9 c 0.28 13.5 -0.29 27.1 0 40 c 0.03 1.33 0.5 3.75 1 4 c 0.44 0.22 2.57 -1.07 3 -2 c 6.76 -14.61 14.57 -35.35 22 -52 c 0.66 -1.47 2.44 -4.11 3 -4 c 0.6 0.12 2.09 3.41 2 5 c -0.81 13.96 -3.85 32.35 -5 47 c -0.1 1.28 0.83 4.28 1 4 c 1.65 -2.69 11.5 -23.25 18 -35 c 4.08 -7.37 8.42 -14.13 13 -21 c 1.45 -2.17 3.23 -4.42 5 -6 c 1.02 -0.9 3.45 -2.48 4 -2 c 1.06 0.91 3.07 5.49 3 8 c -0.23 8.32 -2.91 18.41 -4 28 c -0.62 5.43 -1 10.8 -1 16 c 0 1.97 0.29 5.29 1 6 c 0.48 0.48 3.09 -0.23 4 -1 c 4.7 -3.96 10.12 -9.72 15 -15 c 3.27 -3.54 6.12 -7.08 9 -11 c 8.42 -11.48 22.24 -30.78 24 -34 c 0.26 -0.47 -4.3 0.29 -6 1 c -2.02 0.84 -4.5 2.33 -6 4 c -3.86 4.31 -7.68 9.81 -11 15 c -2 3.12 -3.34 6.51 -5 10 c -1.8 3.77 -3.82 7.21 -5 11 c -2.12 6.77 -3.68 14.13 -5 21 c -0.31 1.59 -0.67 4.44 0 5 c 0.81 0.67 4.89 0.99 6 0 c 3.95 -3.54 9.06 -11.08 13 -17 c 2.72 -4.08 4.73 -8.46 7 -13 c 2.54 -5.09 4.83 -9.75 7 -15 c 6.76 -16.38 18.4 -46.68 19 -48 c 0.09 -0.21 -0.38 5.36 -1 8 c -3.42 14.51 -7.62 28.27 -11 43 c -1.39 6.06 -1.71 11.88 -3 18 c -2.48 11.71 -7.55 31.11 -8 34 c -0.05 0.3 2.34 -1.12 3 -2 c 3.97 -5.3 7.44 -12.66 12 -18 c 4.92 -5.77 11.31 -11.49 17 -16 c 1.86 -1.47 4.74 -2.48 7 -3 c 1.78 -0.41 4.33 -0.37 6 0 c 1 0.22 2.69 1.14 3 2 c 0.78 2.15 1.33 6.15 1 9 c -0.95 8.33 -3.61 17.4 -5 26 l 0 5"/><path stroke-linejoin="round" stroke-linecap="round" stroke-width="2" stroke="rgb(52, 58, 64)" fill="none" d="M 362 62 c -0.04 0.05 -1.65 1.96 -2 3 c -0.58 1.75 -0.4 4.07 -1 6 c -4.39 14.05 -8.26 29.24 -14 42 c -2.88 6.4 -8.19 13.19 -13 18 c -3.3 3.3 -8.67 6.82 -13 8 c -5.68 1.55 -14.29 1.79 -20 1 c -2.94 -0.41 -6.76 -2.91 -9 -5 c -2.35 -2.19 -4.78 -5.94 -6 -9 c -1.26 -3.16 -2 -7.53 -2 -11 c 0 -3.47 0.8 -7.7 2 -11 c 1.35 -3.7 3.53 -7.95 6 -11 c 2.93 -3.61 7.01 -7.55 11 -10 c 5.89 -3.61 13.22 -6.24 20 -9 c 2.25 -0.92 4.71 -1.92 7 -2 c 7.23 -0.24 15.87 -0.19 23 1 c 4.31 0.72 9.12 2.83 13 5 c 4.18 2.34 8.62 5.62 12 9 c 3.38 3.38 6.3 7.79 9 12 c 2.65 4.15 5.23 8.58 7 13 c 1.48 3.7 2.67 8.15 3 12 c 0.3 3.44 -0.24 7.5 -1 11 l -4 12"/><path stroke-linejoin="round" stroke-linecap="round" stroke-width="2" stroke="rgb(52, 58, 64)" fill="none" d="M 263 35 c -0.04 -0.05 -2.28 -2.31 -2 -3 c 0.7 -1.76 3.59 -5.87 6 -7 c 7.68 -3.61 18.39 -6.28 28 -9 c 6.03 -1.7 11.87 -3.19 18 -4 c 11.67 -1.54 23.6 -2.77 35 -3 c 4.59 -0.09 9.82 0.66 14 2 c 3.7 1.18 7.63 3.7 11 6 c 2.86 1.95 6.27 4.4 8 7 c 1.91 2.86 3.81 7.46 4 11 c 0.43 7.88 -0.03 17.86 -2 26 c -3.21 13.22 -14 40 -14 40"/><path stroke-linejoin="round" stroke-linecap="round" stroke-width="2" stroke="rgb(52, 58, 64)" fill="none" d="M 388 73 c -0.07 0.24 -2.99 9.19 -4 14 c -1.69 8.03 -2.9 16.01 -4 24 c -0.23 1.64 -0.34 3.62 0 5 c 0.25 1 1.29 2.9 2 3 c 1.06 0.15 3.88 -0.88 5 -2 c 4.88 -4.88 10.24 -11.61 15 -18 c 7.15 -9.6 13.35 -18.91 20 -29 c 3.3 -5.01 5.66 -10.14 9 -15 c 4.09 -5.95 8.73 -12.23 13 -17 c 0.89 -1 3.61 -2.47 4 -2 c 0.71 0.85 1.27 5.57 1 8 c -0.35 3.15 -1.78 6.63 -3 10 c -7.7 21.33 -22.6 60.91 -23 62 c -0.08 0.23 3.03 -8.71 5 -13 c 3.8 -8.27 7.67 -16.02 12 -24 c 2.11 -3.88 4.4 -7.48 7 -11 c 3.12 -4.22 6.47 -8.25 10 -12 c 1.77 -1.88 3.92 -3.68 6 -5 c 1.43 -0.91 3.51 -2 5 -2 c 2.01 0 5.27 1.04 7 2 c 0.86 0.48 1.62 1.92 2 3 c 1.85 5.29 3.63 11.28 5 17 c 0.62 2.6 0.26 5.49 1 8 c 1.87 6.3 4.18 12.99 7 19 c 2.12 4.53 5.06 9.22 8 13 c 1.5 1.93 3.88 3.79 6 5 c 2.32 1.32 5.39 2.54 8 3 c 2.75 0.48 6.42 0.74 9 0 c 3.85 -1.1 8.07 -3.73 12 -6 c 4.87 -2.81 9.51 -5.68 14 -9 c 4.59 -3.4 9.14 -6.98 13 -11 c 4.04 -4.21 7.75 -9.05 11 -14 c 3.75 -5.72 7.2 -12.14 10 -18 c 0.69 -1.45 1.38 -3.67 1 -5 c -0.77 -2.69 -2.95 -7.1 -5 -9 c -1.7 -1.57 -5.38 -2.63 -8 -3 c -3.99 -0.57 -8.73 -0.59 -13 0 c -21.98 3.06 -43.05 7.05 -66 11 c -9.42 1.62 -17.87 2.84 -27 5 c -16.85 3.99 -32.1 8.89 -49 13 c -8.5 2.07 -16.66 2.87 -25 5 c -7.55 1.93 -20.6 6 -22 7 c -0.52 0.37 5.33 2.51 8 3 c 4.39 0.8 9.28 1 14 1 c 6.74 0 13.22 -0.21 20 -1 c 28.35 -3.3 54.1 -7.47 83 -11 c 30.92 -3.77 58.4 -6.36 89 -10 c 4.16 -0.49 8.64 -0.81 12 -2 l 5 -4"/><path stroke-linejoin="round" stroke-linecap="round" stroke-width="2" stroke="rgb(52, 58, 64)" fill="none" d="M 394 27 l 1 1"/></svg>