<?xml version="1.0" encoding="UTF-8" standalone="no"?><!DOCTYPE svg PUBLIC "-//W3C//DTD SVG 1.1//EN" "http://www.w3.org/Graphics/SVG/1.1/DTD/svg11.dtd"><svg xmlns="http://www.w3.org/2000/svg" version="1.1" width="574" height="136"><path stroke-linejoin="round" stroke-linecap="round" stroke-width="2" stroke="rgb(52, 58, 64)" fill="none" d="M 9 98 l 1 1"/><path stroke-linejoin="round" stroke-linecap="round" stroke-width="2" stroke="rgb(52, 58, 64)" fill="none" d="M 1 98 c 0.03 -0.09 1.13 -3.47 2 -5 c 1.75 -3.07 3.72 -6.17 6 -9 c 6.13 -7.61 13.16 -14.27 19 -22 c 4.52 -5.98 11.63 -18.52 12 -19 c 0.1 -0.13 -0.96 4.29 -2 6 c -3.43 5.64 -8.19 11.04 -12 17 c -4.02 6.29 -6.96 12.84 -11 19 c -3.02 4.6 -9.8 12.8 -10 13 c -0.13 0.13 3.72 -6.18 6 -9 c 4.77 -5.91 9.75 -11.75 15 -17 c 2.31 -2.31 5.9 -3.74 8 -6 c 1.98 -2.14 2.95 -6.09 5 -8 c 2.54 -2.37 7.04 -5.01 10 -6 c 1.3 -0.43 5.19 0.34 5 1 c -0.72 2.44 -6.3 10.85 -10 16 c -4.05 5.63 -8.73 10.36 -13 16 c -5.34 7.06 -10.79 13.9 -15 21 c -1.91 3.22 -4.3 9.22 -4 11 c 0.15 0.93 4.1 1.11 6 1 c 3.8 -0.21 11.15 -3.27 12 -2 c 1.01 1.52 -3.8 10.24 -4 14 c -0.08 1.51 1.67 4.67 3 5 c 3.88 0.97 11.65 0.79 17 0 c 5.58 -0.82 11.49 -3.02 17 -5 c 2.78 -1 5.19 -2.88 8 -4 c 9.03 -3.61 19.21 -5.48 27 -10 c 8.07 -4.68 15.71 -12.52 23 -19 c 1.57 -1.39 2.33 -3.89 4 -5 c 23.45 -15.54 51.39 -31.02 76 -48 c 8.73 -6.03 16.55 -13.55 24 -21 c 4.49 -4.49 10.06 -10.74 12 -15 c 0.73 -1.62 -0.8 -6.6 -2 -7 c -1.72 -0.57 -7.69 0.97 -10 3 c -15.04 13.22 -32.23 31.15 -48 48 c -9.07 9.69 -17.68 19.67 -25 30 c -3.77 5.32 -8.34 12.86 -9 18 c -0.46 3.56 2.88 9.34 5 13 l 6 6"/><path stroke-linejoin="round" stroke-linecap="round" stroke-width="2" stroke="rgb(52, 58, 64)" fill="none" d="M 262 121 c 0.11 -0.19 3.67 -7.5 6 -11 c 5.06 -7.6 10.01 -15.22 16 -22 c 9.02 -10.23 18.76 -19.28 29 -29 c 10.07 -9.56 19.48 -17.87 30 -27 c 7.78 -6.75 15.62 -12.29 23 -19 c 3.68 -3.34 9.59 -10.8 10 -11 c 0.24 -0.12 -2.24 5.77 -4 8 c -4.33 5.46 -9.63 10.77 -15 16 c -7.96 7.76 -16.03 14.2 -24 22 c -7.45 7.28 -13.59 15 -21 22 c -4.68 4.42 -15 12 -15 12"/><path stroke-linejoin="round" stroke-linecap="round" stroke-width="2" stroke="rgb(52, 58, 64)" fill="none" d="M 321 105 c 0.19 0.04 7.58 2.14 11 2 c 4.38 -0.18 9.55 -1.52 14 -3 c 5.43 -1.81 11.57 -3.66 16 -7 c 17.63 -13.29 37.61 -30.4 53 -45 c 2.48 -2.35 4.64 -7.67 5 -10 c 0.14 -0.88 -2.2 -3.34 -3 -3 c -6.09 2.55 -18.55 10.23 -28 16 c -9.1 5.56 -17.36 10.85 -26 17 c -9.13 6.49 -18.17 12.74 -26 20 c -5.59 5.18 -11.64 12.07 -15 18 c -1.75 3.08 -2.35 8.69 -2 12 c 0.23 2.2 2.35 5.65 4 7 c 1.49 1.22 4.86 2.11 7 2 c 3.91 -0.2 8.69 -1.69 13 -3 c 6.85 -2.08 13.51 -4.08 20 -7 c 13.7 -6.16 26.72 -12.95 40 -20 c 3.21 -1.7 6.03 -4.4 9 -6 c 1.13 -0.61 3.17 -1.28 4 -1 c 0.73 0.24 2 2.21 2 3 c 0 0.79 -2.3 2.33 -2 3 c 0.9 1.98 4.32 5.81 7 8 c 8.11 6.64 26 19 26 19"/><path stroke-linejoin="round" stroke-linecap="round" stroke-width="2" stroke="rgb(52, 58, 64)" fill="none" d="M 573 96 l 1 1"/></svg>