<?xml version="1.0" encoding="UTF-8" standalone="no"?><!DOCTYPE svg PUBLIC "-//W3C//DTD SVG 1.1//EN" "http://www.w3.org/Graphics/SVG/1.1/DTD/svg11.dtd"><svg xmlns="http://www.w3.org/2000/svg" version="1.1" width="549" height="117"><path stroke-linejoin="round" stroke-linecap="round" stroke-width="2" stroke="rgb(52, 58, 64)" fill="none" d="M 1 33 c 0.07 0.02 2.73 1.09 4 1 c 7.13 -0.53 15.75 -1.11 23 -3 c 7.72 -2.01 15.09 -6.3 23 -9 c 5.99 -2.04 12.52 -4.05 18 -5 c 1.5 -0.26 3.54 0.45 5 1 c 1.03 0.39 3.11 1.28 3 2 c -0.57 3.61 -3.59 11.5 -6 17 c -2.27 5.19 -4.66 10.58 -8 15 c -8.78 11.62 -19.32 23.15 -29 34 c -1.08 1.21 -3.78 3.22 -4 3 c -0.23 -0.23 1.01 -3.65 2 -5 c 2.47 -3.37 5.68 -7.06 9 -10 c 5.28 -4.67 11.42 -8.3 17 -13 c 7.38 -6.22 13.78 -12.32 21 -19 c 6.68 -6.17 12.75 -11.59 19 -18 c 7.44 -7.62 19.05 -21.33 21 -23 c 0.31 -0.27 0.93 4.23 0 5 c -7.91 6.55 -26.06 15.72 -35 24 c -3.21 2.97 -5.42 10.5 -6 14 c -0.19 1.15 1.79 3.57 3 4 c 2.67 0.95 7.47 1.38 11 1 c 11.67 -1.24 24.98 -4.62 36 -6 c 1.25 -0.16 4.07 0.46 4 1 c -0.14 1.14 -3.88 4.6 -5 7 c -1.07 2.3 -2 5.63 -2 8 c 0 1.81 0.84 5.19 2 6 c 1.48 1.04 5.38 1 8 1 c 3.27 0 6.67 -0.39 10 -1 c 7.81 -1.42 15.89 -4.62 23 -5 c 4.33 -0.23 10.42 1.53 14 3 c 1.25 0.51 2.45 2.62 3 4 c 0.67 1.68 1.32 4.22 1 6 c -0.89 4.91 -4.05 11.25 -5 16 c -0.23 1.17 0.28 3.86 1 4 c 1.61 0.32 6.35 -0.76 9 -2 c 7.58 -3.56 15.49 -8.28 23 -13 c 4.26 -2.68 7.82 -6.56 12 -9 c 3.62 -2.11 8.09 -3.05 12 -5 c 4.85 -2.42 12.61 -7.57 14 -8 c 0.35 -0.11 -0.43 2.8 -1 4 c -2.03 4.31 -5.68 9.27 -7 13 c -0.37 1.04 0.21 3.98 1 4 l 35 -3"/><path stroke-linejoin="round" stroke-linecap="round" stroke-width="2" stroke="rgb(52, 58, 64)" fill="none" d="M 348 45 c -0.07 0.12 -2.4 4.86 -4 7 c -4.37 5.83 -9.18 12.18 -14 17 c -1.76 1.76 -5.08 2.47 -7 4 c -1.19 0.95 -1.9 2.9 -3 4 c -0.8 0.8 -2.21 2 -3 2 c -0.79 0 -2.76 -1.27 -3 -2 c -0.28 -0.83 0.31 -2.94 1 -4 c 3.33 -5.12 7.52 -11 12 -16 c 9.99 -11.15 20.22 -22.35 31 -32 c 4.9 -4.39 11.36 -7.94 17 -11 c 2.03 -1.1 4.89 -1.81 7 -2 c 1.2 -0.11 3.67 0.34 4 1 c 0.41 0.82 -0.04 4.04 -1 5 c -3.24 3.24 -9.04 6.98 -14 10 c -8.9 5.43 -28.23 14.25 -27 15 c 1.8 1.1 30.89 -3.14 45 -4 c 1.29 -0.08 4.14 0.59 4 1 c -0.26 0.78 -3.84 3.68 -6 5 c -3.71 2.27 -7.82 4.61 -12 6 c -11.65 3.88 -23.85 6.26 -36 10 c -5.56 1.71 -15.72 5.87 -16 6 c -0.08 0.04 3.7 -1.4 5 -1 c 2.4 0.74 5.89 3.07 8 5 c 1.61 1.48 3.09 3.88 4 6 c 2 4.66 3.07 10.08 5 15 c 1.09 2.78 2.31 5.75 4 8 c 2.13 2.84 5.04 6.28 8 8 c 4.46 2.6 10.65 4.96 16 6 c 7.85 1.53 16.54 1.84 25 2 c 9.78 0.18 19.32 -0.02 29 -1 c 10.15 -1.03 20.02 -2.6 30 -5 c 16.72 -4.02 32.15 -8.95 49 -14 c 7.32 -2.2 13.95 -4.31 21 -7 l 21 -9"/></svg>