<?xml version="1.0" encoding="UTF-8" standalone="no"?><!DOCTYPE svg PUBLIC "-//W3C//DTD SVG 1.1//EN" "http://www.w3.org/Graphics/SVG/1.1/DTD/svg11.dtd"><svg xmlns="http://www.w3.org/2000/svg" version="1.1" width="544" height="117"><path stroke-linejoin="round" stroke-linecap="round" stroke-width="2" stroke="rgb(52, 58, 64)" fill="none" d="M 1 59 c 0.3 -0.16 11.46 -6.59 17 -9 c 1.75 -0.76 4.11 -0.41 6 -1 c 3.35 -1.05 6.67 -3.17 10 -4 c 3.11 -0.78 6.67 -0.42 10 -1 c 4.41 -0.77 8.72 -2.36 13 -3 c 2.25 -0.34 6.75 -1.13 7 0 c 0.81 3.73 0.11 16.25 -2 23 c -2.57 8.24 -12.64 23.64 -13 25 c -0.13 0.48 5.73 -3.73 8 -6 c 2.58 -2.58 4.42 -6.09 7 -9 c 13.47 -15.19 29.06 -33.31 40 -44 l 5 0"/><path stroke-linejoin="round" stroke-linecap="round" stroke-width="2" stroke="rgb(52, 58, 64)" fill="none" d="M 76 93 c 0.25 -0.38 8.89 -15.06 14 -22 c 3.19 -4.33 7.93 -7.64 11 -12 c 5.49 -7.81 11.95 -21.1 15 -25 l 3 2"/><path stroke-linejoin="round" stroke-linecap="round" stroke-width="2" stroke="rgb(52, 58, 64)" fill="none" d="M 124 116 l 1 1"/><path stroke-linejoin="round" stroke-linecap="round" stroke-width="2" stroke="rgb(52, 58, 64)" fill="none" d="M 151 73 c 0.03 -0.09 1.94 -5.22 2 -5 c 0.14 0.49 -0.97 9.89 0 12 c 0.49 1.07 4.09 1 6 1 c 1.91 0 4.45 -0.17 6 -1 c 2.35 -1.27 4.81 -3.81 7 -6 c 3.87 -3.87 8.44 -7.64 11 -12 c 3.74 -6.36 8.79 -21.64 9 -22 c 0.11 -0.19 -1.63 8.09 -3 12 c -2.99 8.51 -7.76 17.79 -10 25 c -0.34 1.1 0.54 4.23 1 4 c 1.89 -0.94 13 -11 13 -11"/><path stroke-linejoin="round" stroke-linecap="round" stroke-width="2" stroke="rgb(52, 58, 64)" fill="none" d="M 222 83 c 0.07 0.02 2.78 1.16 4 1 c 5.77 -0.75 12.94 -2.18 19 -4 c 3.77 -1.13 11 -5 11 -5"/><path stroke-linejoin="round" stroke-linecap="round" stroke-width="2" stroke="rgb(52, 58, 64)" fill="none" d="M 181 41 l 1 1"/><path stroke-linejoin="round" stroke-linecap="round" stroke-width="2" stroke="rgb(52, 58, 64)" fill="none" d="M 337 40 c -0.05 0.05 -2.39 1.85 -3 3 c -1.87 3.52 -3 8.15 -5 12 c -2.69 5.18 -5.64 10.46 -9 15 c -2.17 2.94 -5.27 5.72 -8 8 c -1.08 0.9 -3.78 2.44 -4 2 c -0.39 -0.79 0.28 -5.5 1 -8 c 1.24 -4.33 2.96 -8.8 5 -13 c 3.67 -7.56 7.53 -14.92 12 -22 c 3.57 -5.65 7.64 -10.94 12 -16 c 4.01 -4.65 8.47 -8.92 13 -13 c 2.12 -1.91 4.6 -3.8 7 -5 c 2.03 -1.02 5.15 -2 7 -2 c 0.91 0 2.78 1.24 3 2 c 0.31 1.07 -0.32 3.56 -1 5 c -1.85 3.94 -4.25 8.3 -7 12 c -5.9 7.95 -19 23 -19 23"/><path stroke-linejoin="round" stroke-linecap="round" stroke-width="2" stroke="rgb(52, 58, 64)" fill="none" d="M 357 64 c -0.09 0.24 -5 11.64 -5 14 c 0 0.81 3.42 1.09 5 1 c 3.76 -0.22 8 -1.08 12 -2 c 4.79 -1.1 9.49 -3.53 14 -4 c 4.66 -0.48 10.09 1 15 1 c 2.31 0 4.69 -0.45 7 -1 c 6.1 -1.46 13.25 -4.8 18 -5 c 1.83 -0.08 4.09 3.92 6 4 c 4.57 0.2 11.23 -1.73 17 -3 c 8.27 -1.81 18.59 -5.6 24 -6 c 1.09 -0.08 1.86 3.72 3 4 c 2.06 0.51 6.08 -0.32 9 -1 c 7.05 -1.64 14.54 -3.61 21 -6 c 2.13 -0.79 3.89 -3.3 6 -4 c 5.4 -1.8 12.97 -3.54 18 -4 c 1.22 -0.11 2.63 1.66 4 2 l 12 2"/></svg>