<?xml version="1.0" encoding="UTF-8" standalone="no"?><!DOCTYPE svg PUBLIC "-//W3C//DTD SVG 1.1//EN" "http://www.w3.org/Graphics/SVG/1.1/DTD/svg11.dtd"><svg xmlns="http://www.w3.org/2000/svg" version="1.1" width="558" height="99"><path stroke-linejoin="round" stroke-linecap="round" stroke-width="2" stroke="rgb(52, 58, 64)" fill="none" d="M 5 42 l 1 1"/><path stroke-linejoin="round" stroke-linecap="round" stroke-width="2" stroke="rgb(52, 58, 64)" fill="none" d="M 1 17 c 0.05 0.26 1.54 10.42 3 15 c 0.77 2.41 3.21 4.52 4 7 c 4.39 13.71 12 43 12 43"/><path stroke-linejoin="round" stroke-linecap="round" stroke-width="2" stroke="rgb(52, 58, 64)" fill="none" d="M 64 8 c -0.05 0.07 -1.73 3.13 -3 4 c -9.61 6.59 -21.02 13.41 -32 20 c -2.6 1.56 -5.33 3.05 -8 4 c -1.81 0.65 -4.39 1.18 -6 1 c -0.95 -0.11 -3.14 -1.43 -3 -2 c 0.31 -1.24 3.08 -4.4 5 -6 c 3.89 -3.24 8.58 -6.88 13 -9 c 3.45 -1.66 8.26 -2.58 12 -3 c 1.84 -0.2 4.24 0.36 6 1 c 1.69 0.61 3.82 1.82 5 3 c 0.91 0.91 1.71 2.7 2 4 c 0.32 1.46 0.15 3.31 0 5 c -0.87 9.83 -2.76 19.77 -3 29 c -0.08 3.23 0.59 7.97 2 10 c 1.05 1.52 5.13 3.31 7 3 c 3.08 -0.51 7.74 -3.7 11 -6 c 2.21 -1.56 4.51 -3.76 6 -6 c 2.99 -4.49 7.04 -10.97 8 -15 c 0.38 -1.59 -1.91 -5.22 -3 -6 c -0.67 -0.48 -2.85 0.43 -4 1 c -2.01 1.01 -4.95 2.28 -6 4 c -2.16 3.54 -4.79 9.55 -5 14 c -0.4 8.44 1.02 20.28 3 28 c 0.65 2.53 3.89 5.27 6 7 c 1.24 1.01 3.94 2.35 5 2 c 1.26 -0.42 3.05 -3.25 4 -5 c 0.94 -1.72 1.45 -3.93 2 -6 c 0.8 -3.02 1.85 -6.09 2 -9 c 0.17 -3.48 -0.45 -7.33 -1 -11 c -0.46 -3.06 -1.01 -6.19 -2 -9 c -0.96 -2.72 -2.55 -5.29 -4 -8 c -1.3 -2.45 -2.39 -4.93 -4 -7 c -2.97 -3.82 -7.41 -7.46 -10 -11 c -0.72 -0.98 -1.14 -2.89 -1 -4 c 0.15 -1.2 0.96 -3.29 2 -4 c 4.46 -3.05 11.65 -7.07 17 -9 c 2.23 -0.8 5.44 0.32 8 0 c 2.64 -0.33 5.56 -2 8 -2 c 2.44 0 5.47 1.1 8 2 c 2.06 0.73 4.42 1.74 6 3 c 1.51 1.21 3.91 3.42 4 5 c 0.18 3.06 -1.57 8.18 -3 12 c -2.54 6.78 -6.3 13.14 -9 20 c -1.68 4.25 -3.25 8.62 -4 13 c -1.22 7.12 -2 15.63 -2 22 c 0 1.29 1.18 2.86 2 4 c 0.77 1.08 1.96 2.61 3 3 c 1.23 0.46 3.77 0.46 5 0 c 1.04 -0.39 1.9 -2.31 3 -3 c 1.39 -0.87 4 -0.86 5 -2 c 3.08 -3.52 7.73 -9.26 9 -14 c 2.07 -7.7 2.21 -18.34 2 -27 c -0.12 -4.89 -2.78 -10.99 -3 -15 c -0.05 -0.94 1.2 -2.66 2 -3 c 1.11 -0.47 3.44 -0.33 5 0 c 4.55 0.96 9.62 2.39 14 4 c 1.76 0.65 3.51 1.84 5 3 c 1.44 1.12 3.13 2.55 4 4 c 0.97 1.62 2 4.06 2 6 c 0 9.85 -2 21.78 -2 32 l 2 9"/><path stroke-linejoin="round" stroke-linecap="round" stroke-width="2" stroke="rgb(52, 58, 64)" fill="none" d="M 218 22 c 0.07 0.33 2.88 12.43 4 19 c 1.97 11.63 3.92 22.58 5 34 c 0.6 6.31 -0.27 12.87 0 19 c 0.06 1.33 1.01 4.07 1 4 c -0.19 -1.05 -7.49 -39.5 -11 -60 c -0.58 -3.38 -1 -6.66 -1 -10 c 0 -6 -0.59 -14.11 1 -18 c 0.79 -1.93 5.26 -3.23 8 -4 c 5.28 -1.48 11.55 -2.83 17 -3 c 4.78 -0.15 11.25 0.75 15 2 c 1.24 0.41 2.9 2.73 3 4 c 0.18 2.33 -0.49 6.83 -2 9 c -3.24 4.66 -9.19 10.06 -14 14 l -8 4"/><path stroke-linejoin="round" stroke-linecap="round" stroke-width="2" stroke="rgb(52, 58, 64)" fill="none" d="M 257 63 c 0.12 0 5.12 0.77 7 0 c 4.69 -1.92 10.7 -5.44 15 -9 c 5.04 -4.17 10.24 -10.07 14 -15 c 1.16 -1.52 2.29 -4.7 2 -6 c -0.23 -1.03 -2.88 -3.16 -4 -3 c -2.51 0.36 -6.93 3.08 -10 5 c -2.15 1.34 -4.68 3.02 -6 5 c -3.02 4.53 -7.04 11.02 -8 16 c -0.82 4.21 0.67 10.62 2 15 c 0.83 2.73 3.13 6.13 5 8 c 1.06 1.06 3.77 2.25 5 2 c 1.46 -0.29 3.5 -2.5 5 -4 c 2.48 -2.48 5.2 -5.15 7 -8 c 2.05 -3.24 3.44 -7.18 5 -11 c 1.51 -3.7 3.35 -7.42 4 -11 c 0.61 -3.37 0.62 -7.56 0 -11 c -0.99 -5.55 -2.87 -11.88 -5 -17 c -1.03 -2.48 -3.18 -4.98 -5 -7 c -1.06 -1.17 -2.87 -1.87 -4 -3 c -1.13 -1.13 -2.7 -2.78 -3 -4 c -0.25 -1 0.33 -4.12 1 -4 c 4.47 0.83 18.19 5.58 26 9 c 2.22 0.97 4.33 3.16 6 5 c 1.54 1.7 3.39 3.9 4 6 c 1.55 5.31 2.61 11.96 3 18 c 0.61 9.6 -0.28 19.49 0 29 l 1 5"/><path stroke-linejoin="round" stroke-linecap="round" stroke-width="2" stroke="rgb(52, 58, 64)" fill="none" d="M 407 18 c -0.44 0.35 -16.77 12.98 -25 20 c -3.27 2.79 -5.78 6.29 -9 9 c -3.09 2.6 -6.89 4.44 -10 7 c -2.53 2.08 -4.89 4.47 -7 7 c -2.9 3.47 -5.27 7.78 -8 11 c -0.72 0.85 -3.15 2.02 -3 2 c 1.12 -0.19 18.46 -4.78 27 -6 c 2.49 -0.36 5.24 0.61 8 1 c 2.08 0.3 4.39 0.19 6 1 c 2.65 1.33 5.61 3.78 8 6 c 2.2 2.04 3.94 5.5 6 7 c 1.14 0.83 3.43 1.22 5 1 c 20.84 -2.89 44 -6.61 67 -11 c 29.43 -5.62 85 -18 85 -18"/></svg>