<?xml version="1.0" encoding="UTF-8" standalone="no"?><!DOCTYPE svg PUBLIC "-//W3C//DTD SVG 1.1//EN" "http://www.w3.org/Graphics/SVG/1.1/DTD/svg11.dtd"><svg xmlns="http://www.w3.org/2000/svg" version="1.1" width="334" height="57"><path stroke-linejoin="round" stroke-linecap="round" stroke-width="2" stroke="rgb(52, 58, 64)" fill="none" d="M 54 11 l 1 1"/><path stroke-linejoin="round" stroke-linecap="round" stroke-width="2" stroke="rgb(52, 58, 64)" fill="none" d="M 49 1 l 1 1"/><path stroke-linejoin="round" stroke-linecap="round" stroke-width="2" stroke="rgb(52, 58, 64)" fill="none" d="M 38 16 l 3 2"/><path stroke-linejoin="round" stroke-linecap="round" stroke-width="2" stroke="rgb(52, 58, 64)" fill="none" d="M 47 49 l 1 1"/><path stroke-linejoin="round" stroke-linecap="round" stroke-width="2" stroke="rgb(52, 58, 64)" fill="none" d="M 35 8 l 4 3"/><path stroke-linejoin="round" stroke-linecap="round" stroke-width="2" stroke="rgb(52, 58, 64)" fill="none" d="M 86 39 c -0.05 0.07 -1.73 3.21 -3 4 c -5.11 3.16 -11.89 6.79 -18 9 c -5.6 2.02 -12.02 3.5 -18 4 c -9.74 0.81 -21.07 0.53 -30 0 c -1.33 -0.08 -2.64 -1.59 -4 -2 c -1.85 -0.55 -4.09 -1 -6 -1 l -6 1"/><path stroke-linejoin="round" stroke-linecap="round" stroke-width="2" stroke="rgb(52, 58, 64)" fill="none" d="M 147 44 c 0.03 -0.09 2.13 -3.67 2 -5 c -0.14 -1.44 -1.93 -3.3 -3 -5 c -0.66 -1.05 -1.14 -2.4 -2 -3 c -2.14 -1.5 -5.33 -3.11 -8 -4 c -2.11 -0.7 -4.88 -1.25 -7 -1 c -3.13 0.37 -7.46 1.42 -10 3 c -2.24 1.4 -4.95 4.73 -6 7 c -0.68 1.48 -0.6 4.95 0 6 c 0.41 0.72 2.85 1.19 4 1 c 2.38 -0.4 5.51 -2.67 8 -3 c 2.06 -0.27 5.17 0.27 7 1 c 1.1 0.44 1.83 2.56 3 3 c 6 2.25 14.48 4.84 21 6 c 2.11 0.38 4.64 -0.91 7 -1 c 6.34 -0.24 12.62 0.24 19 0 c 2.71 -0.1 5.36 -0.4 8 -1 c 9.13 -2.09 17.94 -4.2 27 -7 c 9.66 -2.99 18.67 -7.51 28 -10 c 5.37 -1.43 11.32 -1.85 17 -2 c 6.97 -0.18 14.1 1.42 21 1 c 9.29 -0.57 19.33 -1.57 28 -4 c 7.41 -2.07 22 -10 22 -10"/></svg>