<?xml version="1.0" encoding="UTF-8" standalone="no"?><!DOCTYPE svg PUBLIC "-//W3C//DTD SVG 1.1//EN" "http://www.w3.org/Graphics/SVG/1.1/DTD/svg11.dtd"><svg xmlns="http://www.w3.org/2000/svg" version="1.1" width="332" height="89"><path stroke-linejoin="round" stroke-linecap="round" stroke-width="2" stroke="rgb(52, 58, 64)" fill="none" d="M 165 82 c -0.68 0 -25.76 -0.75 -39 0 c -22.84 1.29 -44.17 4.51 -67 6 c -8.48 0.55 -16.57 0.39 -25 0 c -6.11 -0.28 -12.56 -0.55 -18 -2 c -4.03 -1.07 -9.08 -3.67 -12 -6 c -1.46 -1.17 -3.11 -4.31 -3 -6 c 0.16 -2.47 1.99 -6.9 4 -9 c 4.65 -4.87 11.63 -9.58 18 -14 c 10.31 -7.15 20.18 -13.91 31 -20 c 10.75 -6.05 21.64 -11.38 33 -16 c 10.09 -4.1 20.46 -7.27 31 -10 c 7.56 -1.96 15.41 -3.5 23 -4 c 7.49 -0.49 15.32 0.23 23 1 c 5.76 0.58 12.09 1.14 17 3 c 4.1 1.55 8.62 4.98 12 8 c 2.67 2.39 5.19 5.83 7 9 c 2.07 3.62 2.37 9.37 5 12 c 5.38 5.38 14.53 11.36 22 15 c 5.51 2.69 12.49 3.98 19 5 c 21.36 3.35 42.15 5.05 64 8 c 3.45 0.47 6.86 0.95 10 2 l 11 5"/></svg>