<?xml version="1.0" encoding="UTF-8" standalone="no"?><!DOCTYPE svg PUBLIC "-//W3C//DTD SVG 1.1//EN" "http://www.w3.org/Graphics/SVG/1.1/DTD/svg11.dtd"><svg xmlns="http://www.w3.org/2000/svg" version="1.1" width="363" height="67"><path stroke-linejoin="round" stroke-linecap="round" stroke-width="2" stroke="rgb(52, 58, 64)" fill="none" d="M 40 5 c 0.37 0.07 13.74 2.93 21 4 c 16.09 2.37 30.85 4.63 47 6 c 24.24 2.05 46.91 4.13 71 4 c 38.32 -0.21 74.4 -2.64 113 -5 c 11.68 -0.72 22.79 -2.13 34 -4 c 4.77 -0.79 9.62 -2.39 14 -4 c 1.76 -0.65 5.26 -2.56 5 -3 c -0.37 -0.62 -5.34 -1.82 -8 -2 c -7.08 -0.47 -14.55 -0.23 -22 0 c -3.4 0.11 -6.66 0.39 -10 1 c -9.51 1.75 -18.78 3.19 -28 6 c -22.81 6.96 -44.47 14.27 -67 23 c -21.51 8.34 -40.92 18.76 -62 27 c -8.09 3.16 -16.69 6.01 -25 7 c -13.44 1.61 -28.1 1.83 -42 1 c -14.04 -0.84 -28.05 -3.34 -42 -6 c -7.18 -1.37 -14.22 -3.59 -21 -6 c -3.47 -1.23 -6.8 -3.11 -10 -5 c -2.47 -1.45 -6.87 -3.75 -7 -5 c -0.11 -1.14 3.82 -4.13 6 -5 c 5.5 -2.2 12.71 -4.5 19 -5 c 14.09 -1.12 28.76 -0.21 44 0 c 10.39 0.14 19.89 0.21 30 1 c 7.15 0.56 13.8 2.43 21 3 c 18.68 1.48 35.81 2.07 55 3 c 24.06 1.16 44.98 2.23 69 3 c 40.71 1.31 117 3 117 3"/></svg>