<?xml version="1.0" encoding="UTF-8" standalone="no"?><!DOCTYPE svg PUBLIC "-//W3C//DTD SVG 1.1//EN" "http://www.w3.org/Graphics/SVG/1.1/DTD/svg11.dtd"><svg xmlns="http://www.w3.org/2000/svg" version="1.1" width="598" height="276"><path stroke-linejoin="round" stroke-linecap="round" stroke-width="2" stroke="rgb(52, 58, 64)" fill="none" d="M 248 6 c -0.03 -0.1 -1.85 -4.02 -2 -6 c -0.48 -6.26 -0.66 -13.4 0 -20 c 1 -10.04 3.7 -19.8 5 -30 c 0.73 -5.71 0.19 -11.36 1 -17 c 1.21 -8.44 3.62 -16.51 5 -25 c 0.65 -4.01 0.36 -7.95 1 -12 c 3.45 -21.83 6.79 -43.49 11 -64 c 0.64 -3.11 4 -9 4 -9"/><path stroke-linejoin="round" stroke-linecap="round" stroke-width="2" stroke="rgb(52, 58, 64)" fill="none" d="M 597 7 l 1 1"/><path stroke-linejoin="round" stroke-linecap="round" stroke-width="2" stroke="rgb(52, 58, 64)" fill="none" d="M 21 26 l 1 1"/><path stroke-linejoin="round" stroke-linecap="round" stroke-width="2" stroke="rgb(52, 58, 64)" fill="none" d="M 18 23 c -0.07 0.14 -3.04 5.28 -4 8 c -0.99 2.81 -1.69 5.93 -2 9 c -1.7 17.02 -3.9 50.11 -4 51 c -0.04 0.4 0.23 -15.19 1 -23 c 1.62 -16.42 3.53 -32.33 6 -48 c 0.49 -3.07 1.79 -6.07 3 -9 c 1.14 -2.76 2.47 -5.51 4 -8 c 1.1 -1.78 2.54 -3.54 4 -5 c 1.14 -1.14 2.77 -2.89 4 -3 c 1.79 -0.16 5.27 0.96 7 2 c 1.19 0.71 2.86 2.65 3 4 c 0.43 4.05 0.14 10.42 -1 15 c -1.4 5.6 -4.27 11.75 -7 17 c -1.48 2.86 -3.77 5.51 -6 8 c -3.47 3.87 -7.07 7.54 -11 11 c -4.5 3.96 -14 11 -14 11"/><path stroke-linejoin="round" stroke-linecap="round" stroke-width="2" stroke="rgb(52, 58, 64)" fill="none" d="M 50 52 c -0.05 -0.1 -1.8 -4.8 -3 -6 c -0.74 -0.74 -2.8 -1.11 -4 -1 c -2.11 0.19 -4.87 1.15 -7 2 c -1.06 0.42 -2.32 1.15 -3 2 c -1.78 2.23 -3.88 5.28 -5 8 c -1.1 2.66 -2 6.2 -2 9 c 0 3.1 0.96 8.81 2 10 c 0.55 0.63 3.99 -0.84 5 -2 c 4.85 -5.58 14.75 -20.62 15 -21 c 0.08 -0.11 -3.9 3.98 -5 6 c -0.72 1.32 -1 3.41 -1 5 c 0 2.21 0.17 5.34 1 7 c 0.59 1.17 2.91 3 4 3 c 1.27 0 3.78 -1.78 5 -3 c 1.22 -1.22 2.35 -3.24 3 -5 c 1.61 -4.38 2.84 -9.17 4 -14 c 1.22 -5.07 2.29 -9.87 3 -15 c 0.98 -7.07 1.7 -19.72 2 -21 c 0.06 -0.27 1.59 2.64 2 4 c 0.55 1.85 0.86 3.96 1 6 c 0.53 7.73 0.24 15.7 1 23 c 0.21 2.01 1.01 5.67 2 6 c 1.2 0.4 5.19 -1.61 7 -3 c 2.19 -1.68 3.92 -4.92 6 -7 c 0.81 -0.81 2.96 -2.38 3 -2 c 0.23 2.4 -1.61 17.93 -1 23 c 0.12 0.98 2.7 1.71 4 2 c 1.46 0.32 3.61 0.46 5 0 c 2.23 -0.74 4.66 -2.93 7 -4 c 1.2 -0.55 3.26 -1.5 4 -1 c 1.55 1.03 3.08 5.67 5 7 c 1.84 1.27 5.57 1.8 8 2 c 1.21 0.1 2.91 -0.4 4 -1 l 5 -4"/><path stroke-linejoin="round" stroke-linecap="round" stroke-width="2" stroke="rgb(52, 58, 64)" fill="none" d="M 50 37 c 0.7 0.12 26.38 4.94 40 7 c 4.37 0.66 13 1 13 1"/><path stroke-linejoin="round" stroke-linecap="round" stroke-width="2" stroke="rgb(52, 58, 64)" fill="none" d="M 171 15 c -0.09 0 -3.43 -0.31 -5 0 c -4.89 0.98 -10.32 2.16 -15 4 c -4.45 1.75 -9.81 4.14 -13 7 c -2.52 2.26 -5.47 7.51 -6 10 c -0.23 1.07 1.72 3.59 3 4 c 6.52 2.1 20.4 2.98 25 5 c 1.08 0.48 0.46 4.32 0 6 c -0.44 1.63 -1.72 3.72 -3 5 c -2.81 2.81 -6.44 5.67 -10 8 c -5.1 3.33 -10.99 7.04 -16 9 l -7 0"/><path stroke-linejoin="round" stroke-linecap="round" stroke-width="2" stroke="rgb(52, 58, 64)" fill="none" d="M 187 11 c -0.02 0.33 0.22 12.89 -1 19 c -3.05 15.26 -12 46 -12 46"/><path stroke-linejoin="round" stroke-linecap="round" stroke-width="2" stroke="rgb(52, 58, 64)" fill="none" d="M 213 12 c -0.04 0.19 -0.9 7.44 -2 11 c -4.25 13.8 -9 27.66 -14 41 c -0.93 2.48 -2.47 5.08 -4 7 c -0.95 1.19 -2.6 2.3 -4 3 c -1.78 0.89 -4.2 2.11 -6 2 c -3.24 -0.19 -8.02 -1.24 -11 -3 c -5.39 -3.19 -10.69 -9.21 -16 -13 c -1.39 -0.99 -5.21 -1.99 -5 -2 c 1.29 -0.05 21.97 1.48 33 1 c 12.1 -0.53 23.98 -2.36 36 -4 l 8 -2"/><path stroke-linejoin="round" stroke-linecap="round" stroke-width="2" stroke="rgb(52, 58, 64)" fill="none" d="M 186 97 c 0.12 -0.16 4.45 -6.14 7 -9 c 2.84 -3.2 6.22 -5.73 9 -9 c 6.68 -7.87 12.77 -16.64 19 -24 c 0.73 -0.87 2.91 -2.19 3 -2 c 0.12 0.23 -1.71 2.7 -2 4 c -0.32 1.46 -0.49 4.63 0 5 c 0.44 0.33 2.99 -1.13 4 -2 c 1.13 -0.97 2.17 -2.55 3 -4 c 4.18 -7.25 8.69 -14.46 12 -22 c 2.63 -5.99 5.73 -18.38 6 -19 c 0.07 -0.16 0.23 3.37 0 5 c -0.76 5.31 -2.44 10.59 -3 16 c -0.78 7.65 -1.3 21.12 -1 23 c 0.07 0.46 2.98 -2.54 4 -4 c 1.21 -1.73 2.46 -3.95 3 -6 c 1.06 -4.01 1.52 -13.19 2 -13 c 0.55 0.22 1.78 10.11 3 15 l 2 5"/><path stroke-linejoin="round" stroke-linecap="round" stroke-width="2" stroke="rgb(52, 58, 64)" fill="none" d="M 228 27 l 1 1"/></svg>