<?xml version="1.0" encoding="UTF-8" standalone="no"?><!DOCTYPE svg PUBLIC "-//W3C//DTD SVG 1.1//EN" "http://www.w3.org/Graphics/SVG/1.1/DTD/svg11.dtd"><svg xmlns="http://www.w3.org/2000/svg" version="1.1" width="567" height="225"><path stroke-linejoin="round" stroke-linecap="round" stroke-width="2" stroke="rgb(52, 58, 64)" fill="none" d="M 247 72 l 1 1"/><path stroke-linejoin="round" stroke-linecap="round" stroke-width="2" stroke="rgb(52, 58, 64)" fill="none" d="M 8 22 c -0.02 0.28 -1 10.54 -1 16 c 0 14.64 -0.19 28.7 1 43 c 0.82 9.78 5 29 5 29"/><path stroke-linejoin="round" stroke-linecap="round" stroke-width="2" stroke="rgb(52, 58, 64)" fill="none" d="M 66 17 c -0.04 0.05 -1.93 2.01 -2 3 c -0.22 3.31 1 7.95 1 12 c 0 8.07 -1.14 15.86 -1 24 c 0.2 11.54 2 34 2 34"/><path stroke-linejoin="round" stroke-linecap="round" stroke-width="2" stroke="rgb(52, 58, 64)" fill="none" d="M 1 96 c 0.09 -0.03 3.29 -1.6 5 -2 c 3.86 -0.91 8.12 -0.91 12 -2 c 6.75 -1.9 13.17 -5.44 20 -7 c 12.07 -2.75 37 -6 37 -6"/><path stroke-linejoin="round" stroke-linecap="round" stroke-width="2" stroke="rgb(52, 58, 64)" fill="none" d="M 116 65 c -0.1 0.09 -4.68 3.18 -6 5 c -1.07 1.47 -2.16 4.72 -2 6 c 0.09 0.73 2.36 1.11 3 2 c 4.89 6.79 15 23 15 23"/><path stroke-linejoin="round" stroke-linecap="round" stroke-width="2" stroke="rgb(52, 58, 64)" fill="none" d="M 127 122 c 0.16 -0.54 5.62 -20.47 9 -31 c 2.45 -7.64 4.86 -15.27 8 -22 c 1.34 -2.87 3.83 -5.63 6 -8 c 1.39 -1.52 3.61 -3.69 5 -4 c 0.97 -0.22 3 1.16 4 2 c 0.81 0.67 1.58 1.94 2 3 c 0.85 2.13 2 7 2 7"/><path stroke-linejoin="round" stroke-linecap="round" stroke-width="2" stroke="rgb(52, 58, 64)" fill="none" d="M 199 92 c 0.02 0.14 0.37 5.68 1 8 c 0.28 1.04 2 3 2 3"/><path stroke-linejoin="round" stroke-linecap="round" stroke-width="2" stroke="rgb(52, 58, 64)" fill="none" d="M 233 53 l 3 5"/><path stroke-linejoin="round" stroke-linecap="round" stroke-width="2" stroke="rgb(52, 58, 64)" fill="none" d="M 267 79 c 0.07 -0.09 2.44 -3.56 4 -5 c 12.05 -11.17 28.41 -26.51 37 -33 c 0.77 -0.59 3.62 1.06 4 2 c 0.67 1.68 -0.36 5.39 0 8 c 0.96 6.97 4 21 4 21"/><path stroke-linejoin="round" stroke-linecap="round" stroke-width="2" stroke="rgb(52, 58, 64)" fill="none" d="M 388 57 c 0.09 0.07 3.21 3.04 5 4 c 3.01 1.61 6.67 3.12 10 4 c 2.8 0.74 9 0.3 9 1 c 0 0.84 -9.21 6.07 -9 6 c 0.59 -0.19 19.12 -9.27 28 -12 c 3.21 -0.99 7.51 -0.48 11 0 c 3.62 0.49 8.08 1.27 11 3 c 3.81 2.25 9.55 6.16 11 10 c 3.47 9.17 3.35 25.36 6 35 c 0.53 1.92 3.28 3.97 5 5 c 1.24 0.75 3.55 1.22 5 1 c 2.43 -0.37 5.93 -1.69 8 -3 c 1.21 -0.77 1.84 -3.13 3 -4 c 1.25 -0.93 3.35 -1.84 5 -2 c 4.9 -0.47 10.65 0.35 16 0 c 5.06 -0.33 9.94 -1.1 15 -2 c 4.46 -0.8 8.72 -1.66 13 -3 c 6.49 -2.03 12.68 -5.06 19 -7 c 2.21 -0.68 6.19 -1.54 7 -1 l -1 5"/><path stroke-linejoin="round" stroke-linecap="round" stroke-width="2" stroke="rgb(52, 58, 64)" fill="none" d="M 445 71 c -0.02 -0.23 -1.09 -8.63 -1 -13 c 0.24 -11.4 0.73 -22.57 2 -34 c 1.1 -9.87 2.79 -19.52 5 -29 c 1.11 -4.79 3.91 -9.19 5 -14 c 2.9 -12.81 4.4 -25.54 7 -39 c 1.55 -7.99 3.07 -15.28 5 -23 c 0.78 -3.11 2.4 -5.98 3 -9 c 0.7 -3.51 1 -11 1 -11"/></svg>