<?xml version="1.0" encoding="UTF-8" standalone="no"?><!DOCTYPE svg PUBLIC "-//W3C//DTD SVG 1.1//EN" "http://www.w3.org/Graphics/SVG/1.1/DTD/svg11.dtd"><svg xmlns="http://www.w3.org/2000/svg" version="1.1" width="335" height="87"><path stroke-linejoin="round" stroke-linecap="round" stroke-width="2" stroke="rgb(52, 58, 64)" fill="none" d="M 115 72 c -0.42 0.05 -15.79 2.32 -24 3 c -8.16 0.68 -15.82 1.11 -24 1 c -16.37 -0.23 -32.34 -0.53 -48 -2 c -5.38 -0.5 -14.06 -1.09 -16 -4 c -2.71 -4.07 -4.74 -17.8 -2 -23 c 5.29 -10.03 20.25 -23.31 31 -32 c 5.61 -4.53 13.91 -7.64 21 -10 c 6.52 -2.17 14 -3.32 21 -4 c 6.55 -0.64 13.74 -0.87 20 0 c 5.25 0.73 10.99 2.85 16 5 c 4.15 1.78 9.06 4.24 12 7 c 2.18 2.05 3.62 5.9 5 9 c 1.27 2.86 2.54 5.99 3 9 c 0.83 5.4 0.13 12.88 1 17 c 0.18 0.87 1.96 1.79 3 2 c 3.47 0.69 8.17 1.52 12 1 c 19.7 -2.7 40.38 -6.42 61 -11 c 19.28 -4.29 37.79 -11.21 56 -15 c 5.03 -1.05 11.14 -0.75 16 0 c 3.27 0.5 7.37 2.46 10 4 c 0.88 0.51 2.13 2.12 2 3 c -0.41 2.85 -2.39 7.58 -4 11 c -0.99 2.11 -3.73 4.02 -4 6 c -0.6 4.41 -0.05 11.81 1 16 c 0.37 1.48 2.46 3.2 4 4 c 6.24 3.24 13.73 6.31 21 9 l 25 8"/></svg>