<?xml version="1.0" encoding="UTF-8" standalone="no"?><!DOCTYPE svg PUBLIC "-//W3C//DTD SVG 1.1//EN" "http://www.w3.org/Graphics/SVG/1.1/DTD/svg11.dtd"><svg xmlns="http://www.w3.org/2000/svg" version="1.1" width="509" height="118"><path stroke-linejoin="round" stroke-linecap="round" stroke-width="2" stroke="rgb(52, 58, 64)" fill="none" d="M 213 27 l 1 1"/><path stroke-linejoin="round" stroke-linecap="round" stroke-width="2" stroke="rgb(52, 58, 64)" fill="none" d="M 5 98 c -0.07 0.11 -3.66 4.46 -4 6 c -0.17 0.77 1.67 3.33 2 3 c 1.67 -1.67 7.38 -9.66 10 -15 c 6.97 -14.19 13.21 -28.79 19 -44 c 5.08 -13.35 12.41 -38.65 13 -40 c 0.14 -0.32 0.31 6.67 0 10 c -0.69 7.4 -2.55 14.52 -3 22 c -0.9 14.82 -0.44 28.98 -1 44 c -0.13 3.43 -0.35 6.76 -1 10 c -0.67 3.36 -1.62 7.25 -3 10 c -0.75 1.49 -2.61 3.13 -4 4 c -1.01 0.63 -2.76 1 -4 1 c -1.53 0 -3.62 -0.27 -5 -1 c -3.91 -2.07 -8.53 -5.27 -12 -8 c -0.87 -0.68 -2.22 -2.56 -2 -3 c 0.25 -0.5 2.95 -1.29 4 -1 c 2.06 0.56 4.66 3.03 7 4 c 1.48 0.62 3.34 0.83 5 1 c 1.63 0.16 3.57 0.44 5 0 c 2.55 -0.78 6.06 -2.18 8 -4 c 2.94 -2.76 5.82 -7.19 8 -11 c 1.72 -3.01 2.95 -6.52 4 -10 c 3.34 -11.04 8.15 -33.32 9 -33 c 0.9 0.34 -1.22 23.95 -1 36 c 0.11 6.06 0.99 12.46 2 18 c 0.25 1.37 1.12 3.12 2 4 c 0.88 0.88 3.08 2.34 4 2 c 1.9 -0.69 5.32 -3.81 7 -6 c 1.39 -1.81 2.29 -4.58 3 -7 c 1.62 -5.54 3.42 -11.54 4 -17 c 0.37 -3.45 -0.58 -11.28 -1 -11 c -0.6 0.4 -3.73 9.92 -5 15 c -1.06 4.23 -1.58 8.64 -2 13 c -0.25 2.65 -0.53 5.6 0 8 c 0.72 3.23 2.39 7.59 4 10 c 0.67 1 2.94 2.12 4 2 c 1.38 -0.15 3.51 -1.84 5 -3 c 1.44 -1.12 2.84 -2.55 4 -4 c 1.48 -1.85 3.13 -3.88 4 -6 c 2.02 -4.94 4.93 -15.71 5 -16 c 0.02 -0.08 -1.77 2.65 -2 4 c -0.71 4.24 -1 9.51 -1 14 c 0 1.63 0.45 3.54 1 5 c 0.39 1.03 1.38 2.88 2 3 c 0.62 0.12 2.2 -1.2 3 -2 c 1.43 -1.43 3 -3.19 4 -5 c 2.58 -4.69 5.12 -9.87 7 -15 c 1.77 -4.82 3.86 -14.76 4 -15 c 0.09 -0.15 -1 6.82 -1 10 c 0 1.62 0.45 3.54 1 5 c 0.39 1.03 1.29 2.9 2 3 c 1.06 0.15 4.01 -0.91 5 -2 c 1.9 -2.09 4.04 -6.13 5 -9 c 0.56 -1.67 0.6 -4.95 0 -6 c -0.41 -0.72 -3.36 -1.57 -4 -1 c -1.8 1.62 -4.66 6.58 -6 10 c -1.53 3.91 -2.59 8.9 -3 13 c -0.22 2.17 0.42 4.86 1 7 c 0.37 1.36 1.12 3.12 2 4 c 0.88 0.88 3.03 2.37 4 2 c 3.14 -1.18 8.9 -4.9 12 -8 c 2.8 -2.8 6.18 -11 7 -11 c 0.69 0 -0.44 7.9 0 11 c 0.15 1.02 1.25 3.08 2 3 c 3.68 -0.39 12.93 -4.59 17 -5 c 0.97 -0.1 2.25 1.87 3 3 l 5 9"/><path stroke-linejoin="round" stroke-linecap="round" stroke-width="2" stroke="rgb(52, 58, 64)" fill="none" d="M 29 52 c 0.16 0.03 6.04 1.91 9 2 c 7.38 0.23 15.18 -0.29 23 -1 c 10.95 -1 21.1 -2.32 32 -4 c 6.89 -1.06 20 -4 20 -4"/><path stroke-linejoin="round" stroke-linecap="round" stroke-width="2" stroke="rgb(52, 58, 64)" fill="none" d="M 202 63 c -0.02 0.07 -0.91 2.65 -1 4 c -0.56 8.17 -0.16 16.76 -1 25 c -0.48 4.71 -1.71 9.39 -3 14 c -1.06 3.77 -4.02 11.2 -4 11 c 0.06 -0.52 3.54 -19.16 6 -29 c 3.71 -14.83 7.91 -29.55 12 -43 c 0.33 -1.09 2 -3.2 2 -3 c 0 1.35 -0.96 16.44 -2 24 c -0.23 1.69 -1.72 3.32 -2 5 c -0.68 4.07 -1.3 12.19 -1 13 c 0.15 0.4 3.05 -3.16 4 -5 c 4.24 -8.22 8.19 -17.11 12 -26 c 1.26 -2.94 1.69 -6.22 3 -9 c 1.3 -2.76 3.62 -5.23 5 -8 c 1.25 -2.5 1.62 -5.57 3 -8 c 4.2 -7.41 9.08 -15.68 14 -22 c 1.62 -2.09 5.37 -4.67 7 -5 c 0.8 -0.16 2.6 1.9 3 3 c 0.76 2.09 1.24 5.41 1 8 c -1.7 18.44 -5.18 37.77 -7 57 c -0.54 5.69 -0.98 11.91 0 17 l 6 14"/><path stroke-linejoin="round" stroke-linecap="round" stroke-width="2" stroke="rgb(52, 58, 64)" fill="none" d="M 264 102 c 0.07 0.02 2.98 1.34 4 1 c 2.33 -0.78 6.2 -2.78 8 -5 c 6.19 -7.62 11.74 -18.39 18 -27 c 1.64 -2.25 4.78 -5.54 6 -6 c 0.52 -0.19 1.67 1.93 2 3 c 1.23 3.94 1.64 10.28 3 13 c 0.42 0.84 2.82 1.17 4 1 c 3 -0.43 6.91 -1.81 10 -3 c 1.07 -0.41 2.22 -1.22 3 -2 c 0.78 -0.78 1.17 -2.27 2 -3 c 1.66 -1.45 4.32 -2.5 6 -4 c 1.17 -1.04 2.86 -2.88 3 -4 c 0.13 -1.01 -1.15 -3.92 -2 -4 c -1.8 -0.16 -6.25 1.71 -9 3 c -2.09 0.98 -4.18 2.49 -6 4 c -2.14 1.78 -4.33 3.92 -6 6 c -0.88 1.1 -1.16 3 -2 4 c -0.67 0.81 -2.47 1.16 -3 2 c -0.93 1.48 -1.83 4.16 -2 6 c -0.13 1.48 0.26 3.97 1 5 c 0.65 0.9 2.7 1.71 4 2 c 1.46 0.32 3.52 0.37 5 0 c 2.25 -0.56 4.92 -1.68 7 -3 c 4.1 -2.59 8.36 -5.62 12 -9 c 5.66 -5.26 10.94 -11.07 16 -17 c 2.64 -3.1 5.37 -6.48 7 -10 c 2.54 -5.47 4.5 -12.23 6 -18 c 0.4 -1.52 0.34 -3.62 0 -5 c -0.25 -1 -1.35 -3 -2 -3 c -1.05 0 -4.08 1.62 -5 3 c -2.61 3.91 -5.29 9.86 -7 15 c -2.23 6.7 -3.47 13.77 -5 21 c -0.86 4.07 -1.63 7.98 -2 12 c -0.3 3.3 -0.21 6.69 0 10 c 0.13 2.01 0.22 4.59 1 6 c 0.64 1.16 2.75 2.72 4 3 c 1.28 0.28 3.54 -0.45 5 -1 c 1.03 -0.39 2.12 -1.19 3 -2 c 7.07 -6.48 17.62 -17.65 21 -20 c 0.52 -0.36 1.76 2.69 2 4 c 0.37 2.05 -0.35 4.88 0 7 c 0.27 1.63 1.07 3.75 2 5 c 0.87 1.16 2.65 2.66 4 3 c 2.16 0.54 5.51 0.36 8 0 c 1.97 -0.28 4.55 -0.86 6 -2 c 2.76 -2.17 5.97 -6.07 8 -9 c 0.7 -1 1.28 -3.17 1 -4 c -0.24 -0.73 -2.36 -2.35 -3 -2 c -2.4 1.29 -7.68 6.05 -10 9 c -0.88 1.12 -1.31 3.93 -1 5 c 0.22 0.76 2 1.75 3 2 c 1.38 0.34 3.43 0.26 5 0 c 2.29 -0.38 4.76 -1.14 7 -2 c 2.06 -0.79 4.24 -1.75 6 -3 c 2.78 -1.99 7.18 -7.35 8 -7 c 0.77 0.33 -1.64 7.45 -1 10 c 0.5 1.98 3.31 4.99 5 6 c 1.08 0.65 3.45 0.28 5 0 c 1.95 -0.36 4.21 -1.05 6 -2 c 3.06 -1.63 6.03 -4.4 9 -6 c 1.13 -0.61 3.01 -1.4 4 -1 c 3.14 1.26 7.57 5.5 11 7 c 1.31 0.57 3.52 0.37 5 0 c 2.25 -0.56 5.04 -1.59 7 -3 c 6.04 -4.35 12.86 -9.52 18 -15 c 4.57 -4.87 8.21 -11.19 12 -17 c 1.22 -1.87 2.31 -3.92 3 -6 c 1.61 -4.82 3.38 -10.27 4 -15 c 0.32 -2.46 0.12 -6.14 -1 -8 c -1.47 -2.45 -5.3 -5.65 -8 -7 c -2.05 -1.02 -5.73 -1.57 -8 -1 c -4.92 1.23 -11.4 4.04 -16 7 c -4.29 2.76 -8.41 7.05 -12 11 c -3 3.3 -6.17 7.19 -8 11 c -1.96 4.08 -3.61 9.45 -4 14 c -0.56 6.57 -0.19 14.64 1 21 c 0.69 3.66 2.99 7.72 5 11 c 1.53 2.51 3.81 5.91 6 7 l 10 1"/><path stroke-linejoin="round" stroke-linecap="round" stroke-width="2" stroke="rgb(52, 58, 64)" fill="none" d="M 306 44 l 1 1"/></svg>