<?xml version="1.0" encoding="UTF-8" standalone="no"?><!DOCTYPE svg PUBLIC "-//W3C//DTD SVG 1.1//EN" "http://www.w3.org/Graphics/SVG/1.1/DTD/svg11.dtd"><svg xmlns="http://www.w3.org/2000/svg" version="1.1" width="491" height="79"><path stroke-linejoin="round" stroke-linecap="round" stroke-width="2" stroke="rgb(52, 58, 64)" fill="none" d="M 1 31 c 0.18 0 6.95 0.41 10 0 c 1.64 -0.22 3.47 -1.1 5 -2 c 7.39 -4.38 14.98 -9.23 22 -14 c 1.14 -0.78 3.05 -3.08 3 -3 c -0.59 0.94 -17.96 26.87 -27 41 c -1.9 2.96 -3.62 6 -5 9 c -0.55 1.2 -1.08 4.09 -1 4 c 0.19 -0.23 3.06 -6.15 5 -9 c 3.77 -5.54 7.69 -10.65 12 -16 c 5.65 -7.02 10.93 -13.56 17 -20 c 4.74 -5.04 10.52 -10.87 15 -14 c 1.09 -0.76 4.38 -0.62 5 0 c 0.62 0.62 0.35 3.49 0 5 c -0.6 2.58 -1.7 5.53 -3 8 c -1.98 3.77 -4.2 7.95 -7 11 c -4.26 4.65 -10.24 9.67 -15 13 c -1.22 0.86 -4.79 1.42 -5 1 c -0.24 -0.48 1.73 -4.11 3 -5 c 1.59 -1.11 4.82 -1.83 7 -2 c 1.82 -0.14 4.95 -0.05 6 1 c 1.94 1.94 3.86 6.59 5 10 c 1.46 4.37 1.77 9.56 3 14 c 0.39 1.39 1.16 2.88 2 4 l 4 4"/><path stroke-linejoin="round" stroke-linecap="round" stroke-width="2" stroke="rgb(52, 58, 64)" fill="none" d="M 84 37 c -0.07 0.03 -2.89 1.14 -4 2 c -1.75 1.36 -3.44 3.2 -5 5 c -2.83 3.27 -5.54 6.52 -8 10 c -1.55 2.19 -3.35 4.74 -4 7 c -0.56 1.97 -0.64 5.55 0 7 c 0.41 0.93 2.87 2.16 4 2 c 2.73 -0.39 7.18 -2.31 10 -4 c 1.85 -1.11 3.75 -3.13 5 -5 c 2.6 -3.9 6.08 -9.16 7 -13 c 0.51 -2.15 -0.84 -6.35 -2 -8 c -0.76 -1.08 -3.74 -2.14 -5 -2 c -1.17 0.13 -2.87 1.87 -4 3 l -3 4"/><path stroke-linejoin="round" stroke-linecap="round" stroke-width="2" stroke="rgb(52, 58, 64)" fill="none" d="M 88 49 c 0.09 -0.12 3.17 -5.35 5 -7 c 1.15 -1.03 3.47 -1.85 5 -2 c 1.45 -0.14 4.2 0.1 5 1 c 1.35 1.51 2.56 5.39 3 8 c 0.51 3.06 -0.34 6.76 0 10 c 0.31 2.99 1.1 6.3 2 9 c 0.35 1.06 1.18 2.73 2 3 l 7 0"/><path stroke-linejoin="round" stroke-linecap="round" stroke-width="2" stroke="rgb(52, 58, 64)" fill="none" d="M 116 42 c -0.19 0.16 -7.72 5.72 -11 9 c -2.96 2.96 -5.63 6.55 -8 10 c -1.24 1.8 -2.38 3.99 -3 6 c -0.65 2.12 -1 7 -1 7"/><path stroke-linejoin="round" stroke-linecap="round" stroke-width="2" stroke="rgb(52, 58, 64)" fill="none" d="M 111 72 c 0.09 -0.03 3.51 -1.09 5 -2 c 4.38 -2.68 9.26 -5.55 13 -9 c 4.7 -4.34 12.77 -14.74 13 -15 c 0.09 -0.1 -3.66 3.85 -5 6 c -1.92 3.07 -3.95 6.84 -5 10 c -0.47 1.42 -0.47 3.89 0 5 c 0.34 0.8 2.16 2 3 2 c 1.04 0 2.89 -1.1 4 -2 c 4.03 -3.27 8.21 -7.21 12 -11 c 1.16 -1.16 2.32 -2.63 3 -4 c 0.56 -1.13 1 -2.76 1 -4 c 0 -1.53 -0.46 -4.6 -1 -5 c -0.38 -0.28 -2.46 1.2 -3 2 c -0.61 0.92 -0.88 2.67 -1 4 c -0.2 2.25 -0.2 4.75 0 7 c 0.12 1.33 0.47 2.81 1 4 c 0.75 1.69 1.77 4.18 3 5 c 1.28 0.86 4.42 1.49 6 1 l 10 -6"/><path stroke-linejoin="round" stroke-linecap="round" stroke-width="2" stroke="rgb(52, 58, 64)" fill="none" d="M 169 4 l -4 7"/><path stroke-linejoin="round" stroke-linecap="round" stroke-width="2" stroke="rgb(52, 58, 64)" fill="none" d="M 219 22 c 0.28 0.02 11.52 0.1 16 1 c 1.4 0.28 2.87 1.87 4 3 c 1.13 1.13 2.39 2.63 3 4 c 0.62 1.4 1.4 3.62 1 5 c -1.35 4.74 -3.95 11.36 -7 16 c -4.34 6.6 -15.71 18.68 -16 19 c -0.12 0.13 3.63 -5.77 6 -8 c 8.41 -7.9 17.7 -16.13 27 -23 c 4.46 -3.29 12.99 -7.6 15 -8 c 0.59 -0.12 0.49 3.66 0 5 c -0.7 1.93 -2.43 4.18 -4 6 c -6.77 7.86 -20.63 22.6 -21 23 c -0.14 0.15 5.02 -6.27 8 -9 c 12.47 -11.39 25.49 -21.43 38 -33 c 5.45 -5.04 15.15 -16.35 15 -16 c -0.2 0.47 -12.19 14.89 -18 23 c -7.18 10.01 -13.17 19.61 -20 30 c -1.1 1.68 -3 3.73 -3 5 c 0 1.09 2.26 4.42 3 4 c 4.39 -2.53 14.96 -12.81 23 -19 c 5.24 -4.03 14.04 -10.26 16 -11 c 0.51 -0.19 0.48 3.57 0 5 c -1.37 4.1 -4.41 8.7 -6 13 c -0.67 1.83 -1 4.15 -1 6 c 0 1.25 0.33 3.93 1 4 c 1.38 0.15 5.76 -1.54 8 -3 c 4.09 -2.66 8.22 -6.32 12 -10 c 8.39 -8.16 23.09 -24.28 24 -25 c 0.29 -0.23 -3.05 6.78 -5 10 c -4.8 7.92 -10.62 15.61 -15 23 c -0.66 1.11 -1.46 3.94 -1 4 c 1.05 0.13 6.58 -1.43 9 -3 l 11 -10"/><path stroke-linejoin="round" stroke-linecap="round" stroke-width="2" stroke="rgb(52, 58, 64)" fill="none" d="M 320 39 c 0.33 -0.02 13.05 -0.12 19 -1 c 2.67 -0.4 8 -3 8 -3"/><path stroke-linejoin="round" stroke-linecap="round" stroke-width="2" stroke="rgb(52, 58, 64)" fill="none" d="M 330 1 l 3 3"/><path stroke-linejoin="round" stroke-linecap="round" stroke-width="2" stroke="rgb(52, 58, 64)" fill="none" d="M 349 78 c 0.04 -0.05 1.15 -2.23 2 -3 c 5.87 -5.31 19 -16 19 -16"/><path stroke-linejoin="round" stroke-linecap="round" stroke-width="2" stroke="rgb(52, 58, 64)" fill="none" d="M 397 22 c -0.21 0.19 -8.23 7.06 -12 11 c -3.62 3.78 -7.07 7.79 -10 12 c -2.35 3.38 -5.22 8.06 -6 11 c -0.28 1.05 1.2 3.6 2 4 c 0.74 0.37 2.77 -0.45 4 -1 c 7.63 -3.39 15.58 -6.95 23 -11 c 3.55 -1.94 9.92 -7.42 10 -7 c 0.1 0.52 -7.32 8.63 -9 12 c -0.46 0.93 0.29 4.09 1 4 c 5.34 -0.69 19.69 -5.35 30 -8 c 1.69 -0.44 3.47 -1 5 -1 c 1.24 0 3.33 0.33 4 1 c 0.67 0.67 1.45 3.04 1 4 c -1.98 4.19 -6.15 11.32 -10 15 c -3.15 3.02 -8.69 4.97 -13 7 c -1.2 0.57 -2.89 1.14 -4 1 c -1.2 -0.15 -3.73 -1.33 -4 -2 c -0.22 -0.54 1.19 -2.19 2 -3 c 1.76 -1.76 3.83 -3.58 6 -5 c 5.48 -3.58 10.99 -7.37 17 -10 c 18.32 -8.03 56 -22 56 -22"/></svg>