<?xml version="1.0" encoding="UTF-8" standalone="no"?><!DOCTYPE svg PUBLIC "-//W3C//DTD SVG 1.1//EN" "http://www.w3.org/Graphics/SVG/1.1/DTD/svg11.dtd"><svg xmlns="http://www.w3.org/2000/svg" version="1.1" width="462" height="117"><path stroke-linejoin="round" stroke-linecap="round" stroke-width="2" stroke="rgb(52, 58, 64)" fill="none" d="M 48 34 c -0.12 0.16 -4.91 5.8 -7 9 c -3.62 5.54 -6.82 11.04 -10 17 c -5.04 9.46 -8.92 18.51 -14 28 c -5.24 9.77 -15.68 27.53 -16 28 c -0.13 0.19 3.07 -8.02 5 -12 c 3.52 -7.26 6.78 -14.18 11 -21 c 8.99 -14.52 18.13 -27.79 28 -42 c 4.19 -6.02 8.27 -11.73 13 -17 c 3.91 -4.36 8.45 -8.28 13 -12 c 2.78 -2.28 5.85 -4.67 9 -6 c 5.16 -2.18 11.77 -4.09 17 -5 c 1.8 -0.31 4.59 0.3 6 1 c 0.83 0.42 2.32 2.3 2 3 c -1.35 2.89 -5.74 8.09 -9 12 c -3.53 4.24 -6.98 8.2 -11 12 c -15.03 14.23 -30.39 27.3 -45 41 c -1.2 1.13 -1.9 2.9 -3 4 c -0.8 0.8 -2.33 1.19 -3 2 c -0.84 1 -2.13 3.07 -2 4 c 0.13 0.89 1.92 2.97 3 3 c 8.19 0.23 22.16 -2.45 32 -2 c 3.88 0.18 8.48 4 12 4 c 3.52 0 8.42 -2.09 12 -4 c 6.11 -3.26 12.7 -8.03 18 -12 c 0.88 -0.66 1.22 -2.22 2 -3 c 0.78 -0.78 3 -2 3 -2 c 0 0 -2.41 1.17 -3 2 c -0.89 1.24 -1.66 3.32 -2 5 c -0.63 3.14 -1.21 7.26 -1 10 c 0.08 0.98 1.2 2.66 2 3 c 1.11 0.47 3.44 0.31 5 0 c 3.25 -0.65 6.79 -1.72 10 -3 c 3.43 -1.37 7.19 -4.44 10 -5 c 1.35 -0.27 3.5 1.12 5 2 c 2.4 1.4 4.74 4.13 7 5 c 1.57 0.61 4.26 0.43 6 0 l 6 -3"/><path stroke-linejoin="round" stroke-linecap="round" stroke-width="2" stroke="rgb(52, 58, 64)" fill="none" d="M 229 9 c -0.24 0.45 -9.95 16.91 -14 26 c -7.08 15.89 -18.89 46.84 -19 48 c -0.06 0.7 11.01 -17.51 17 -26 c 2.05 -2.9 4.47 -5.66 7 -8 c 2.04 -1.9 5.01 -3.23 7 -5 c 0.83 -0.74 1.09 -2.46 2 -3 c 5.62 -3.32 13.55 -8.3 20 -10 c 5.19 -1.37 12.16 0.75 18 0 c 9.61 -1.23 20.22 -4.67 29 -6 c 1.22 -0.19 4.29 0.8 4 1 c -2.24 1.59 -18.21 11.03 -28 16 c -13.04 6.62 -26.07 12.29 -39 18 c -1.24 0.55 -3.63 0.38 -4 1 c -0.37 0.62 0.26 3.47 1 4 c 1.09 0.78 3.98 0.95 6 1 c 11.93 0.28 24.49 -0.73 36 0 c 3.64 0.23 8.18 1.59 11 3 c 1.24 0.62 2.32 2.63 3 4 c 0.56 1.13 1.1 2.79 1 4 c -0.2 2.43 -1.57 5.29 -2 8 c -0.57 3.63 -1.69 9.75 -1 11 c 0.4 0.71 4.13 -1.15 6 -2 c 1.73 -0.79 3.49 -1.79 5 -3 c 6.8 -5.44 13.19 -10.97 20 -17 c 11.21 -9.91 20.79 -19.3 32 -29 c 6.65 -5.75 13.03 -10.77 20 -16 c 3.93 -2.95 11.07 -7.72 12 -8 c 0.35 -0.1 -0.91 3.8 -2 5 c -5.02 5.53 -11.63 11.37 -18 17 c -8.4 7.43 -16.74 13.57 -25 21 c -5.37 4.83 -10.56 10.03 -15 15 c -0.94 1.05 -2.39 3.61 -2 4 c 0.52 0.52 4.19 0.53 6 0 c 13.35 -3.89 27.66 -10.02 42 -14 c 9.91 -2.75 20.9 -4.66 30 -6 c 1.23 -0.18 4.29 0.67 4 1 c -1.73 1.96 -12.92 10.39 -19 16 c -2.6 2.4 -5.72 5.43 -7 8 c -0.72 1.45 -0.51 4.65 0 6 c 0.3 0.81 1.96 1.79 3 2 c 3.47 0.69 8.09 1.24 12 1 c 6.88 -0.42 13.99 -1.46 21 -3 c 17.72 -3.88 52 -13 52 -13"/></svg>