<?xml version="1.0" encoding="UTF-8" standalone="no"?><!DOCTYPE svg PUBLIC "-//W3C//DTD SVG 1.1//EN" "http://www.w3.org/Graphics/SVG/1.1/DTD/svg11.dtd"><svg xmlns="http://www.w3.org/2000/svg" version="1.1" width="325" height="351"><path stroke-linejoin="round" stroke-linecap="round" stroke-width="2" stroke="rgb(52, 58, 64)" fill="none" d="M 94 54 c -0.07 0.05 -2.9 1.9 -4 3 c -0.8 0.8 -1.38 2.88 -2 3 c -0.62 0.12 -3.14 -1.24 -3 -2 c 2.3 -12.33 9.85 -37.36 14 -57 c 3.37 -15.95 5.75 -30.87 8 -47 c 1.51 -10.88 2.82 -21.09 3 -32 c 0.84 -52.29 -0.32 -102.54 0 -154 c 0.01 -2.36 1.08 -6.76 1 -7 l -2 4"/><path stroke-linejoin="round" stroke-linecap="round" stroke-width="2" stroke="rgb(52, 58, 64)" fill="none" d="M 52 21 c -0.35 -0.03 -13.4 -2 -20 -2 c -6.93 0 -14.12 1.02 -21 2 c -2.38 0.34 -4.87 1.15 -7 2 c -1.06 0.42 -2.89 1.33 -3 2 c -0.14 0.83 0.94 3.47 2 4 c 5.56 2.78 14.97 4.72 22 8 c 7.94 3.7 16.68 8.11 23 13 c 3.25 2.52 5.92 7.16 8 11 c 2.13 3.93 3.92 8.69 5 13 c 0.86 3.42 1 7.38 1 11 c 0 2.97 -0.1 6.44 -1 9 c -0.94 2.67 -2.74 6.76 -5 8 c -6.05 3.34 -17.1 6.62 -24 8 c -1.73 0.35 -4.35 -1.08 -6 -2 c -1.11 -0.61 -2.46 -1.92 -3 -3 c -0.65 -1.3 -1.21 -3.53 -1 -5 c 0.39 -2.74 1.28 -6.8 3 -9 c 3.72 -4.76 9.68 -9.4 15 -14 c 7.37 -6.37 14.97 -11.65 22 -18 c 3.33 -3 6.17 -6.47 9 -10 c 2.57 -3.21 5.19 -6.57 7 -10 c 1.4 -2.67 2.61 -6.26 3 -9 c 0.21 -1.47 -0.45 -5.08 -1 -5 c -0.92 0.13 -4.32 3.81 -6 6 c -2.58 3.37 -5 7.18 -7 11 c -1.99 3.81 -3.62 7.87 -5 12 c -1.64 4.93 -4.21 13.96 -4 15 c 0.11 0.53 4.49 -3.04 6 -5 c 3.92 -5.07 8.51 -16.03 11 -17 c 1.5 -0.58 4.47 7.05 7 10 c 1.33 1.55 3.4 3.91 5 4 c 3.32 0.18 9.53 -1.04 13 -3 c 5.72 -3.24 12.76 -11.58 17 -14 c 0.86 -0.49 3.25 1.04 4 2 c 1.27 1.63 1.79 5.19 3 7 c 0.57 0.86 1.98 1.92 3 2 c 6.81 0.5 15.98 0.26 24 0 c 2.36 -0.08 4.86 -0.42 7 -1 l 4 -2"/><path stroke-linejoin="round" stroke-linecap="round" stroke-width="2" stroke="rgb(52, 58, 64)" fill="none" d="M 157 13 c 0.05 0.18 2.36 6.64 3 10 c 0.68 3.55 0.87 7.25 1 11 c 0.22 6.45 0.25 12.7 0 19 c -0.08 2.02 -1 6.11 -1 6 c 0 -0.14 0.22 -5.66 1 -8 c 0.78 -2.34 2.52 -4.7 4 -7 c 1.58 -2.45 3.15 -4.97 5 -7 c 1.38 -1.51 3.39 -3.6 5 -4 c 1.78 -0.44 5.6 0.02 7 1 c 1.33 0.93 2.21 3.9 3 6 c 2.23 5.94 3.41 12.81 6 18 c 1.45 2.91 4.7 7.14 7 8 c 1.99 0.75 6.57 -0.64 9 -2 c 5.28 -2.96 11.74 -9.97 16 -12 c 1.15 -0.55 3.69 1.01 5 2 c 2.41 1.81 4.52 5.61 7 7 c 2.31 1.3 6.13 2.23 9 2 c 20.37 -1.65 43.1 -5.66 65 -8 c 3.34 -0.36 6.95 -0.41 10 0 l 5 2"/></svg>