<?xml version="1.0" encoding="UTF-8" standalone="no"?><!DOCTYPE svg PUBLIC "-//W3C//DTD SVG 1.1//EN" "http://www.w3.org/Graphics/SVG/1.1/DTD/svg11.dtd"><svg xmlns="http://www.w3.org/2000/svg" version="1.1" width="482" height="87"><path stroke-linejoin="round" stroke-linecap="round" stroke-width="2" stroke="rgb(52, 58, 64)" fill="none" d="M 34 49 l 1 1"/><path stroke-linejoin="round" stroke-linecap="round" stroke-width="2" stroke="rgb(52, 58, 64)" fill="none" d="M 1 23 c 0.07 0.09 2.5 3.5 4 5 c 3.49 3.49 7.14 7.24 11 10 c 2.91 2.08 6.62 3.82 10 5 c 3.08 1.08 6.75 1.86 10 2 c 4.16 0.18 8.71 -0.34 13 -1 c 4.39 -0.68 9.08 -1.43 13 -3 c 4.08 -1.63 9.17 -3.95 12 -7 c 5.14 -5.54 10.01 -13.97 14 -21 c 1.5 -2.64 1.65 -6.68 3 -9 c 0.71 -1.22 3.28 -3.4 4 -3 c 1.37 0.76 4.31 5.37 5 8 c 0.81 3.06 -0.49 7.45 0 11 c 0.82 5.95 3.18 11.94 4 18 c 0.84 6.25 0.33 12.6 1 19 c 0.68 6.47 2.52 12.98 3 19 c 0.15 1.9 -0.21 4.74 -1 6 c -0.58 0.93 -3 2.31 -4 2 c -2.41 -0.74 -5.8 -4.23 -9 -6 c -9.65 -5.33 -19.5 -9.82 -29 -15 c -1.46 -0.79 -3.45 -1.9 -4 -3 c -0.55 -1.1 -0.94 -4.48 0 -5 c 5.85 -3.23 18.94 -7.45 29 -11 c 7.49 -2.64 14.35 -4.87 22 -7 c 17.12 -4.76 39.24 -10.93 50 -13 c 0.75 -0.14 1.69 1.96 2 3 c 0.61 2.03 0.93 4.64 1 7 c 0.26 8.68 0.82 17.49 0 26 c -0.83 8.67 -3.91 22.72 -5 26 c -0.15 0.45 -2.36 -1.12 -3 -2 c -3.34 -4.63 -6.38 -10.77 -10 -16 c -2.46 -3.55 -5.73 -6.45 -8 -10 c -3.02 -4.72 -6.01 -9.93 -8 -15 c -1.56 -3.98 -3.35 -10.02 -3 -13 c 0.17 -1.43 3.24 -3.25 5 -4 c 2.54 -1.09 6.03 -1.93 9 -2 c 11.29 -0.26 23.54 -0.08 35 1 c 6.04 0.57 12.03 2.32 18 4 c 4.81 1.35 9.79 2.9 14 5 c 2.83 1.42 5.77 3.77 8 6 c 1.92 1.92 3.83 4.67 5 7 c 0.69 1.38 1.16 3.6 1 5 c -0.14 1.23 -1.1 2.87 -2 4 c -6.88 8.6 -21.9 24.39 -22 26 c -0.07 1.1 13.95 -6.31 21 -10 c 8.01 -4.19 15.5 -8.45 23 -13 c 1.82 -1.1 3.26 -2.95 5 -4 c 1.46 -0.88 3.7 -2 5 -2 c 0.87 0 2.73 1.18 3 2 c 0.53 1.6 0.35 4.88 0 7 c -0.27 1.63 -1.86 3.45 -2 5 c -0.16 1.75 1.16 4.25 1 6 c -0.14 1.55 -1.83 3.5 -2 5 c -0.13 1.15 0.59 4.08 1 4 c 0.64 -0.13 3.04 -3.23 4 -5 c 1.28 -2.37 1.7 -5.47 3 -8 c 4.37 -8.48 11.83 -22.44 14 -25 c 0.44 -0.52 2.75 3.33 3 5 l 0 15"/><path stroke-linejoin="round" stroke-linecap="round" stroke-width="2" stroke="rgb(52, 58, 64)" fill="none" d="M 373 37 c -0.07 -0.02 -2.72 -1 -4 -1 c -2.81 0 -6.09 0.34 -9 1 c -4.36 0.99 -8.97 2.05 -13 4 c -17.09 8.28 -34.68 17.72 -51 27 c -2.61 1.48 -5.12 3.91 -7 6 c -0.91 1.02 -2.14 3.17 -2 4 c 0.11 0.67 1.96 1.69 3 2 c 2.03 0.61 4.81 1.25 7 1 c 6 -0.69 13.26 -1.76 19 -4 c 7.41 -2.89 15.59 -7.58 22 -12 c 2.72 -1.88 4.86 -5.22 7 -8 c 1.17 -1.53 2.32 -3.31 3 -5 c 0.59 -1.48 1.48 -4.92 1 -5 c -0.76 -0.13 -5.73 2.42 -7 4 c -0.95 1.19 -0.16 4.42 -1 6 c -1.58 2.97 -5.86 6.33 -7 9 c -0.51 1.19 0.28 5 1 5 c 1.45 0 6.12 -4.1 9 -5 c 1.96 -0.61 4.71 -0.3 7 0 c 5.32 0.69 10.68 2.33 16 3 c 2.61 0.33 5.53 0.44 8 0 c 2.93 -0.52 6.14 -1.73 9 -3 c 3.1 -1.38 6.39 -3 9 -5 c 2.87 -2.19 5.76 -5.12 8 -8 c 2.31 -2.97 4.24 -6.48 6 -10 c 3.99 -7.97 10.03 -22.63 11 -24 c 0.26 -0.37 1.14 4.73 1 7 c -0.51 8.4 -2.61 17.34 -3 26 c -0.28 6.3 -0.24 13.85 1 19 c 0.51 2.11 3.2 4.56 5 6 l 5 2"/><path stroke-linejoin="round" stroke-linecap="round" stroke-width="2" stroke="rgb(52, 58, 64)" fill="none" d="M 481 63 c -0.35 -0.16 -13.11 -6.49 -20 -9 c -7.86 -2.86 -15.71 -4.93 -24 -7 c -9.5 -2.37 -18.37 -4.46 -28 -6 c -15.94 -2.55 -31.7 -5.06 -47 -6 c -5.85 -0.36 -12.46 0.66 -18 2 c -3.7 0.89 -11 5 -11 5"/></svg>