<?xml version="1.0" encoding="UTF-8" standalone="no"?><!DOCTYPE svg PUBLIC "-//W3C//DTD SVG 1.1//EN" "http://www.w3.org/Graphics/SVG/1.1/DTD/svg11.dtd"><svg xmlns="http://www.w3.org/2000/svg" version="1.1" width="630" height="116"><path stroke-linejoin="round" stroke-linecap="round" stroke-width="2" stroke="rgb(52, 58, 64)" fill="none" d="M 114 1 c -0.51 0.19 -19.31 6.82 -29 11 c -10.06 4.34 -19.18 8.87 -29 14 c -13.93 7.27 -27.15 14.06 -40 22 c -5.41 3.34 -12.21 8.09 -15 12 c -1.31 1.83 -1.41 7.59 0 9 c 2.73 2.73 10.56 5.69 16 7 c 10.7 2.57 22.27 3.92 34 5 c 55.46 5.09 162 13 162 13"/><path stroke-linejoin="round" stroke-linecap="round" stroke-width="2" stroke="rgb(52, 58, 64)" fill="none" d="M 310 82 c -0.12 -0.03 -4.58 -1.56 -7 -2 c -17.86 -3.27 -52.07 -8.83 -53 -9 c -0.45 -0.08 17.12 2.25 26 4 c 38.29 7.55 72.57 15.37 111 23 c 10.31 2.05 19.95 4.1 30 5 c 8.59 0.77 18.46 0.91 26 0 c 2.34 -0.28 6.05 -2.38 7 -4 c 0.94 -1.61 0.77 -5.8 0 -8 c -1.34 -3.82 -4.23 -8.31 -7 -12 c -7.22 -9.63 -17.45 -19.79 -23 -28 c -0.92 -1.36 -0.93 -5.17 0 -6 c 1.61 -1.45 6.85 -3.08 10 -3 c 8.85 0.23 19.48 1.77 29 4 c 17.6 4.13 34.65 9.01 52 15 c 20.01 6.91 38.77 14.2 58 23 c 20.81 9.52 60 31 60 31"/></svg>