<?xml version="1.0" encoding="UTF-8" standalone="no"?><!DOCTYPE svg PUBLIC "-//W3C//DTD SVG 1.1//EN" "http://www.w3.org/Graphics/SVG/1.1/DTD/svg11.dtd"><svg xmlns="http://www.w3.org/2000/svg" version="1.1" width="427" height="114"><path stroke-linejoin="round" stroke-linecap="round" stroke-width="2" stroke="rgb(52, 58, 64)" fill="none" d="M 4 1 c 0.14 0.16 4.93 7.03 8 9 c 5.59 3.59 13.13 6.71 20 9 c 9.04 3.01 18.46 5.43 28 7 c 14.97 2.46 29.67 4.35 45 5 c 32.5 1.38 63.42 1.68 96 1 c 16.01 -0.34 30.77 -2.45 47 -4 c 5.55 -0.53 10.7 -1.02 16 -2 c 3.75 -0.69 9.68 -1.53 11 -3 c 0.85 -0.94 -0.54 -5.92 -2 -7 c -3.69 -2.72 -11.17 -5.32 -17 -7 c -9.08 -2.62 -18.76 -5.32 -28 -6 c -12.92 -0.95 -27.1 -0.31 -40 1 c -6.34 0.64 -12.6 3.06 -19 5 c -4.84 1.47 -9.48 2.93 -14 5 c -7.21 3.3 -13.99 6.97 -21 11 c -6.64 3.82 -13.15 7.61 -19 12 c -3.31 2.48 -6.21 5.77 -9 9 c -3.6 4.17 -6.42 8.82 -10 13 c -2.47 2.88 -5.15 5.68 -8 8 c -2.38 1.93 -5.24 3.9 -8 5 c -3.62 1.45 -8.02 2.73 -12 3 c -10.3 0.7 -21.58 1.03 -32 0 c -9.65 -0.95 -19.46 -4.32 -29 -6 c -1.61 -0.28 -4.16 0.56 -5 0 c -0.69 -0.46 -1.52 -3.48 -1 -4 c 0.92 -0.92 4.62 -1.63 7 -2 c 6.24 -0.96 12.54 -1.77 19 -2 c 12.17 -0.44 23.85 -0.45 36 0 c 6.11 0.23 11.9 1.13 18 2 c 3.44 0.49 6.99 0.82 10 2 c 4.36 1.71 8.46 4.98 13 7 c 7.6 3.38 15 6.25 23 9 c 13.94 4.79 26.99 10.4 41 13 c 39.81 7.37 79.99 13.22 121 17 c 28.54 2.63 57 2.92 85 2 c 12.34 -0.4 25.11 -3.26 37 -6 c 5.12 -1.18 13.45 -4.59 15 -6 l -4 -4"/></svg>