<?xml version="1.0" encoding="UTF-8" standalone="no"?><!DOCTYPE svg PUBLIC "-//W3C//DTD SVG 1.1//EN" "http://www.w3.org/Graphics/SVG/1.1/DTD/svg11.dtd"><svg xmlns="http://www.w3.org/2000/svg" version="1.1" width="363" height="65"><path stroke-linejoin="round" stroke-linecap="round" stroke-width="2" stroke="rgb(52, 58, 64)" fill="none" d="M 1 43 c 0.12 0 4.7 0.29 7 0 c 5.66 -0.71 11.38 -1.47 17 -3 c 24.1 -6.57 46.5 -13.48 71 -21 c 10.47 -3.21 19.69 -7.11 30 -10 c 9.01 -2.53 17.81 -4.4 27 -6 c 6.35 -1.1 12.75 -1.78 19 -2 c 3.29 -0.11 8.16 0 10 1 c 0.93 0.51 1.82 4.13 1 5 c -7.98 8.43 -24.78 21.6 -37 33 c -2.97 2.77 -7.15 6.63 -8 9 c -0.41 1.15 1.74 5 3 5 c 6.36 0 19.2 -2.76 29 -5 c 26.1 -5.97 49.61 -12.74 76 -19 c 14.47 -3.43 27.53 -6.37 42 -9 c 11.91 -2.16 22.94 -3.57 35 -5 c 8.21 -0.97 16.41 -2.21 24 -2 c 4.21 0.11 10.43 1.29 13 3 c 1.4 0.93 2.52 5.25 2 7 c -0.86 2.94 -4.41 6.83 -7 10 c -3.46 4.23 -7.45 7.74 -11 12 c -4.98 5.97 -14 18 -14 18"/></svg>