<?xml version="1.0" encoding="UTF-8" standalone="no"?><!DOCTYPE svg PUBLIC "-//W3C//DTD SVG 1.1//EN" "http://www.w3.org/Graphics/SVG/1.1/DTD/svg11.dtd"><svg xmlns="http://www.w3.org/2000/svg" version="1.1" width="480" height="397"><path stroke-linejoin="round" stroke-linecap="round" stroke-width="2" stroke="rgb(52, 58, 64)" fill="none" d="M 312 71 c 0.11 -0.91 3.67 -34.79 6 -52 c 0.32 -2.39 1.57 -4.58 2 -7 c 2.94 -16.47 8 -49 8 -49"/><path stroke-linejoin="round" stroke-linecap="round" stroke-width="2" stroke="rgb(52, 58, 64)" fill="none" d="M 1 44 c 0.05 0.33 1.72 12.88 3 19 c 0.36 1.71 1.16 3.43 2 5 c 1.48 2.74 3.11 5.92 5 8 c 1.17 1.28 3.57 3 5 3 c 1.86 0 5.37 -1.73 7 -3 c 0.96 -0.75 0.98 -3.24 2 -4 c 3.67 -2.75 10.38 -7.05 14 -8 c 1.31 -0.34 3.24 2.32 5 3 c 4.1 1.59 9.1 3.84 13 4 c 3.27 0.14 7.69 -1.47 11 -3 c 5.07 -2.34 10.51 -5.58 15 -9 c 3.63 -2.76 6.42 -6.91 10 -10 c 3.79 -3.28 8.11 -6.57 12 -9 c 1.07 -0.67 3.26 -1.54 4 -1 c 2.04 1.48 5.27 5.79 7 9 c 2.79 5.18 4.27 11.75 7 17 c 1.48 2.86 3.86 5.64 6 8 c 1.07 1.18 2.63 2.39 4 3 c 1.4 0.62 3.63 1.32 5 1 c 2.41 -0.56 5.29 -3.19 8 -4 c 3.69 -1.11 8.34 -2 12 -2 c 2.19 0 4.81 1.03 7 2 c 6.07 2.67 11.81 6.22 18 9 c 3.6 1.61 7.26 3.21 11 4 c 7.09 1.5 14.46 1.88 22 3 c 1.73 0.26 3.54 0.45 5 1 l 3 2"/><path stroke-linejoin="round" stroke-linecap="round" stroke-width="2" stroke="rgb(52, 58, 64)" fill="none" d="M 251 65 l 3 12"/><path stroke-linejoin="round" stroke-linecap="round" stroke-width="2" stroke="rgb(52, 58, 64)" fill="none" d="M 277 78 l 4 6"/><path stroke-linejoin="round" stroke-linecap="round" stroke-width="2" stroke="rgb(52, 58, 64)" fill="none" d="M 290 54 c -0.11 0.07 -6.17 4 -6 4 c 0.25 0 6.65 -2.95 10 -4 c 1.89 -0.59 4.09 -1.1 6 -1 c 4.13 0.22 9.15 1.04 13 2 c 1.05 0.26 3.11 1.33 3 2 c -0.35 2.08 -4.2 7.01 -5 10 c -0.36 1.36 0.17 4.05 1 5 c 1.1 1.26 3.98 2.27 6 3 c 1.54 0.56 4.07 0.21 5 1 c 0.98 0.84 2.34 3.86 2 5 c -0.45 1.49 -3.8 3.11 -5 5 c -3.27 5.14 -6.33 11.39 -9 17 c -0.57 1.2 -1.37 3.38 -1 4 c 0.37 0.62 2.94 1.35 4 1 c 4.02 -1.34 9.33 -4.39 14 -7 c 6.95 -3.88 13.36 -7.63 20 -12 c 6.32 -4.16 13.05 -8.05 18 -13 c 5.26 -5.26 10.26 -12.51 14 -19 c 2.35 -4.09 3.62 -14.11 5 -14 c 1.57 0.12 4.98 10.28 8 15 c 2.27 3.55 5.17 7.37 8 10 c 1.48 1.38 4.25 1.71 6 3 c 4.43 3.27 8.91 7.13 13 11 c 1.88 1.77 2.95 5.32 5 6 c 9.92 3.31 24.57 5.93 37 8 l 17 1"/><path stroke-linejoin="round" stroke-linecap="round" stroke-width="2" stroke="rgb(52, 58, 64)" fill="none" d="M 403 19 c 0 -0.21 0.28 -7.97 0 -12 c -0.4 -5.75 -1.71 -11.18 -2 -17 c -1.07 -21.1 -1.75 -40.81 -2 -62 c -0.09 -7.86 1.68 -15.71 1 -23 c -0.61 -6.52 -3.82 -13.16 -5 -20 c -1.85 -10.69 -2.33 -21.05 -4 -32 c -1.42 -9.32 -2.8 -17.93 -5 -27 c -3.58 -14.75 -8.18 -28.18 -12 -43 c -1.66 -6.44 -2.14 -12.77 -4 -19 c -2.84 -9.54 -6.17 -18.69 -10 -28 c -3.29 -7.98 -11 -23 -11 -23"/></svg>