<?xml version="1.0" encoding="UTF-8" standalone="no"?><!DOCTYPE svg PUBLIC "-//W3C//DTD SVG 1.1//EN" "http://www.w3.org/Graphics/SVG/1.1/DTD/svg11.dtd"><svg xmlns="http://www.w3.org/2000/svg" version="1.1" width="500" height="133"><path stroke-linejoin="round" stroke-linecap="round" stroke-width="2" stroke="rgb(52, 58, 64)" fill="none" d="M 8 40 c 0.03 0.12 1.58 4.63 2 7 c 0.58 3.27 0.91 6.6 1 10 c 0.25 9.49 0.38 18.49 0 28 c -0.3 7.5 -0.93 14.73 -2 22 c -0.6 4.07 -1.89 10.89 -3 12 c -0.58 0.58 -4.69 -2.43 -5 -4 c -1.03 -5.15 -0.37 -13.93 0 -21 c 0.3 -5.76 1.07 -11.24 2 -17 c 1.11 -6.87 2.36 -13.26 4 -20 c 1.42 -5.86 2.81 -11.71 5 -17 c 1.72 -4.15 4.29 -8.45 7 -12 c 2.48 -3.25 5.79 -6.33 9 -9 c 2.73 -2.27 5.89 -4.25 9 -6 c 2.19 -1.23 4.87 -2.65 7 -3 c 1.42 -0.24 4.29 0.17 5 1 c 0.85 0.99 1.63 4.46 1 6 c -2.5 6.13 -7.47 14.27 -12 21 c -5.89 8.73 -12.85 16.45 -19 25 c -1.58 2.2 -2.93 4.66 -4 7 c -0.55 1.2 -1.15 2.95 -1 4 c 0.13 0.92 1.14 2.71 2 3 c 2.4 0.8 7.06 -0.02 10 1 c 5.23 1.81 10.97 4.98 16 8 c 3.21 1.92 6.82 4.46 9 7 c 1.46 1.7 2.33 4.65 3 7 c 0.62 2.18 1.37 5 1 7 c -0.52 2.78 -2.31 6.38 -4 9 c -1.83 2.82 -4.37 5.9 -7 8 c -3.77 3.02 -9.21 6.53 -13 8 c -1.27 0.49 -4.12 -0.27 -5 -1 c -0.71 -0.59 -1 -2.76 -1 -4 c 0 -1.53 0.17 -3.73 1 -5 c 3.72 -5.7 9.12 -12.39 14 -18 c 1.67 -1.92 3.86 -3.99 6 -5 c 3.12 -1.47 8.35 -3.66 11 -3 c 2.8 0.7 5.85 5.64 9 8 c 2.11 1.58 4.82 3.9 7 4 c 4.13 0.19 10.21 -2.58 15 -3 c 2.52 -0.22 5.66 0.28 8 1 c 1.69 0.52 3.36 2.59 5 3 c 1.97 0.49 4.95 0.37 7 0 c 1.31 -0.24 2.78 -2.07 4 -2 c 3.64 0.21 8.68 2.62 13 3 l 21 0"/><path stroke-linejoin="round" stroke-linecap="round" stroke-width="2" stroke="rgb(52, 58, 64)" fill="none" d="M 224 29 c -0.12 0.03 -4.75 1.1 -7 2 c -4.42 1.77 -8.73 3.69 -13 6 c -8.29 4.48 -18.91 9.97 -24 14 c -0.92 0.73 0.37 3.44 0 5 c -3.17 13.24 -8.02 27.71 -11 41 c -0.56 2.5 -0.37 5.57 0 8 c 0.25 1.64 1.09 3.63 2 5 c 0.96 1.44 2.47 3.27 4 4 c 4.89 2.33 11.48 4.9 17 6 c 3.98 0.8 8.93 0.63 13 0 c 4.26 -0.66 8.97 -2.25 13 -4 l 10 -6"/><path stroke-linejoin="round" stroke-linecap="round" stroke-width="2" stroke="rgb(52, 58, 64)" fill="none" d="M 270 2 c 0.14 1.21 5.86 45.42 8 69 c 0.93 10.19 1 30 1 30"/><path stroke-linejoin="round" stroke-linecap="round" stroke-width="2" stroke="rgb(52, 58, 64)" fill="none" d="M 321 1 c 0 0.12 0.57 4.96 0 7 c -0.98 3.52 -3.03 7.48 -5 11 c -2.72 4.85 -5.7 9.48 -9 14 c -3.1 4.24 -6.32 8.22 -10 12 c -8.16 8.39 -17.47 15.95 -25 24 c -1.75 1.87 -3.64 4.75 -4 7 c -0.53 3.36 0.16 8.64 1 12 c 0.35 1.39 1.75 3.25 3 4 c 3.24 1.94 8.15 4.45 12 5 c 4.75 0.68 11.02 -1.5 16 -1 c 4.52 0.45 10.27 4.17 14 4 c 2.42 -0.11 5.34 -3.67 8 -5 c 1.16 -0.58 2.68 -0.85 4 -1 c 1.6 -0.18 3.62 -0.34 5 0 c 1 0.25 1.97 1.61 3 2 c 1.46 0.55 3.7 1.4 5 1 c 2.4 -0.74 5.47 -4.03 8 -5 c 1.34 -0.52 3.52 -0.37 5 0 c 2.25 0.56 4.92 2.62 7 3 c 1.13 0.2 2.75 -1 4 -1 c 1.85 0 4.42 0.21 6 1 c 2.03 1.02 3.92 3.79 6 5 c 1.69 0.98 4.16 1.83 6 2 c 1.48 0.13 3.78 -0.16 5 -1 c 3.55 -2.44 7.47 -6.47 11 -10 c 2.19 -2.19 4.7 -4.4 6 -7 c 4.74 -9.48 10.39 -29.26 13 -31 c 1.46 -0.97 5.67 11.17 8 17 c 1.69 4.22 2.29 8.89 4 13 c 1.58 3.79 4.59 7.3 6 11 c 1.15 3.01 0.73 7.04 2 10 c 2.56 5.97 8.2 16.07 10 18 c 0.44 0.47 2.69 -2.6 3 -4 c 0.87 -3.92 1.18 -9.48 1 -14 c -0.14 -3.6 -1.61 -7.26 -2 -11 c -0.62 -6.03 -0.24 -11.93 -1 -18 c -1.96 -15.67 -6.94 -45.01 -7 -46 c -0.02 -0.32 3.74 9.16 5 14 c 3.12 12 5.68 23.62 8 36 c 1.78 9.49 3.5 19.58 4 28 l -2 6"/><path stroke-linejoin="round" stroke-linecap="round" stroke-width="2" stroke="rgb(52, 58, 64)" fill="none" d="M 378 64 c 0.07 -0.05 2.57 -2.43 4 -3 c 3.26 -1.3 7.19 -2.24 11 -3 c 14.93 -2.99 29.01 -5.86 44 -8 c 8.74 -1.25 17.09 -1.07 26 -2 c 7.58 -0.79 14.91 -1.43 22 -3 c 4.74 -1.05 14 -5 14 -5"/></svg>