<?xml version="1.0" encoding="UTF-8" standalone="no"?><!DOCTYPE svg PUBLIC "-//W3C//DTD SVG 1.1//EN" "http://www.w3.org/Graphics/SVG/1.1/DTD/svg11.dtd"><svg xmlns="http://www.w3.org/2000/svg" version="1.1" width="508" height="88"><path stroke-linejoin="round" stroke-linecap="round" stroke-width="2" stroke="rgb(52, 58, 64)" fill="none" d="M 233 3 l 1 1"/><path stroke-linejoin="round" stroke-linecap="round" stroke-width="2" stroke="rgb(52, 58, 64)" fill="none" d="M 106 23 l 1 1"/><path stroke-linejoin="round" stroke-linecap="round" stroke-width="2" stroke="rgb(52, 58, 64)" fill="none" d="M 68 57 c -0.09 -0.03 -3.29 -1.64 -5 -2 c -6.12 -1.28 -12.76 -1.52 -19 -3 c -6.46 -1.53 -19 -6 -19 -6"/><path stroke-linejoin="round" stroke-linecap="round" stroke-width="2" stroke="rgb(52, 58, 64)" fill="none" d="M 40 2 c 0.19 -0.02 7.55 -1.37 11 -1 c 5.46 0.58 12.3 2.21 17 4 c 1.52 0.58 3.13 2.55 4 4 c 0.97 1.62 2.09 4.16 2 6 c -0.21 4.16 -0.83 10.38 -3 14 c -4.19 6.99 -11.64 14.02 -18 21 c -4.23 4.64 -8.39 9.63 -13 13 c -3.59 2.62 -8.47 4.26 -13 6 c -8.7 3.35 -25.33 8.85 -26 9 c -0.23 0.05 5.27 -3.63 8 -5 c 1.83 -0.92 3.91 -1.47 6 -2 c 12.57 -3.22 24.42 -6.6 37 -9 c 8.64 -1.65 26 -3 26 -3"/><path stroke-linejoin="round" stroke-linecap="round" stroke-width="2" stroke="rgb(52, 58, 64)" fill="none" d="M 109 56 c 0.07 -0.14 2.96 -5.22 4 -8 c 1.95 -5.21 4.93 -15.1 5 -16 c 0.03 -0.3 -3.13 2.55 -4 4 c -0.97 1.62 -1.64 4.05 -2 6 c -0.28 1.55 -0.79 4.39 0 5 c 1.45 1.13 5.95 1.62 9 2 c 4.97 0.62 10.26 1.44 15 1 c 5.51 -0.52 11.18 -2.91 17 -4 c 5.04 -0.95 10.53 -2.34 15 -2 c 3.46 0.27 7.81 2.18 11 4 c 3.49 1.99 10 8 10 8"/><path stroke-linejoin="round" stroke-linecap="round" stroke-width="2" stroke="rgb(52, 58, 64)" fill="none" d="M 313 16 c -0.12 -0.09 -4.59 -4.48 -7 -5 c -5.88 -1.26 -14.15 -1.35 -21 -1 c -5.95 0.3 -12.05 1.55 -18 3 c -7.84 1.91 -15.9 3.86 -23 7 c -6.88 3.04 -14.04 7.4 -20 12 c -5.42 4.18 -10.68 9.64 -15 15 c -3.85 4.77 -7.5 10.61 -10 16 c -1.64 3.53 -2.62 8.2 -3 12 c -0.25 2.48 0.24 6.1 1 8 c 0.34 0.85 1.96 1.78 3 2 c 3.18 0.68 7.53 1.36 11 1 c 5.79 -0.6 11.8 -2.89 18 -4 c 7.13 -1.28 14.15 -1.41 21 -3 c 7.45 -1.73 14.95 -4.14 22 -7 c 5.19 -2.11 10.09 -5.06 15 -8 c 3.52 -2.11 7.46 -4.46 10 -7 c 1.4 -1.4 3 -4.59 3 -6 c 0 -0.89 -2.2 -3.16 -3 -3 c -1.63 0.33 -5.15 3.15 -7 5 c -1.25 1.25 -1.86 3.67 -3 5 c -0.71 0.82 -2.9 1.29 -3 2 c -0.15 1.06 0.98 3.98 2 5 c 1.28 1.28 3.99 2.38 6 3 c 2.12 0.65 4.8 1.13 7 1 c 3.18 -0.19 6.78 -1.03 10 -2 c 3.4 -1.02 6.94 -2.32 10 -4 c 3.47 -1.91 6.9 -4.42 10 -7 c 2.87 -2.39 5.51 -5.15 8 -8 c 2.2 -2.52 3.95 -5.2 6 -8 c 1.77 -2.41 3.62 -4.54 5 -7 c 1.58 -2.81 4.02 -9.17 4 -9 c -0.04 0.32 -3.94 11.93 -5 18 c -1.26 7.18 -1.47 14.51 -2 22 c -0.15 2.03 -0.48 4.4 0 6 c 0.4 1.33 1.88 3.69 3 4 c 1.81 0.49 5.47 -0.37 8 -1 c 2.68 -0.67 5.53 -1.7 8 -3 c 3.77 -1.98 8.18 -4.08 11 -7 c 6.01 -6.23 12.9 -15.49 17 -22 c 0.74 -1.17 0.46 -4.77 0 -5 c -0.46 -0.23 -3.25 1.75 -4 3 c -1.94 3.24 -4.15 8.41 -5 12 c -0.33 1.41 0.21 3.95 1 5 c 0.9 1.2 3.37 2.56 5 3 c 1.68 0.46 4.08 0.27 6 0 c 2.63 -0.38 5.44 -1.85 8 -2 c 2.81 -0.17 6.33 1.19 9 1 c 1.59 -0.11 3.43 -1.87 5 -2 c 2.06 -0.17 5.34 0.26 7 1 c 0.84 0.38 1.75 2 2 3 c 0.34 1.38 -0.72 4.38 0 5 c 1.02 0.88 4.73 1.14 7 1 c 8.4 -0.51 17.37 -2.59 26 -3 c 5.29 -0.25 11.07 0.14 16 1 c 2.34 0.41 5.02 1.58 7 3 l 25 20"/><path stroke-linejoin="round" stroke-linecap="round" stroke-width="2" stroke="rgb(52, 58, 64)" fill="none" d="M 380 17 l 1 1"/></svg>