<?xml version="1.0" encoding="UTF-8" standalone="no"?><!DOCTYPE svg PUBLIC "-//W3C//DTD SVG 1.1//EN" "http://www.w3.org/Graphics/SVG/1.1/DTD/svg11.dtd"><svg xmlns="http://www.w3.org/2000/svg" version="1.1" width="266" height="134"><path stroke-linejoin="round" stroke-linecap="round" stroke-width="2" stroke="rgb(52, 58, 64)" fill="none" d="M 181 50 c -0.59 0 -22.5 -0.55 -34 0 c -9.86 0.47 -19.22 1.47 -29 3 c -11.97 1.87 -22.96 4.34 -35 7 c -11.46 2.53 -21.75 4.95 -33 8 c -9.01 2.44 -17.78 4.67 -26 8 c -5.55 2.25 -11.91 5.44 -16 9 c -2.9 2.53 -5.82 7.45 -7 11 c -0.91 2.72 -0.93 7.34 0 10 c 1.14 3.25 4.12 8 7 10 c 4.87 3.37 12.45 5.9 19 8 c 10.18 3.26 20.69 6.75 31 8 c 13.85 1.68 28.8 1.95 43 1 c 15.69 -1.05 31.37 -3.7 47 -7 c 14.68 -3.1 28.29 -7.52 43 -12 c 13.55 -4.13 26.44 -7.82 39 -13 c 8.34 -3.44 16.63 -8.16 24 -13 c 4.01 -2.64 9.01 -6.74 11 -10 c 1.07 -1.76 1.23 -6.52 0 -8 c -2.78 -3.33 -9.67 -8.29 -15 -10 c -19.15 -6.14 -41.93 -11.42 -63 -15 c -12.05 -2.05 -24.38 -1.82 -37 -2 c -10.9 -0.16 -21.84 -0.48 -32 1 c -7.63 1.11 -15.41 4.22 -23 7 c -6.22 2.28 -12.37 4.89 -18 8 c -3.89 2.15 -8.09 5.09 -11 8 c -1.73 1.73 -3.84 5.23 -4 7 c -0.1 1.1 1.79 3.12 3 4 c 2.16 1.57 5.32 3.67 8 4 c 9.89 1.21 23.36 2.38 33 1 c 5.22 -0.75 11.13 -4.8 16 -8 c 5.61 -3.68 11.94 -8.03 16 -13 c 5.74 -7.03 10.23 -16.38 15 -25 c 2.34 -4.24 5.23 -8.86 6 -13 c 0.75 -4.06 -0.37 -9.4 -1 -14 c -0.37 -2.7 -0.79 -6.64 -2 -8 c -0.89 -1 -5.29 -1.87 -6 -1 c -1.44 1.76 -2.34 7.88 -3 12 c -2.04 12.76 -4.08 25.18 -5 38 c -0.76 10.71 -0.44 21.23 0 32 c 0.24 5.76 1.38 15.96 2 17 c 0.29 0.49 3.33 -4.54 4 -7 c 3.47 -12.81 5.42 -27.33 9 -41 c 1.81 -6.9 4.32 -13.3 7 -20 c 2.77 -6.93 6.59 -16.47 9 -20 c 0.45 -0.66 3.3 0.22 4 1 c 1.51 1.7 3.11 5.2 4 8 c 3.39 10.69 5.3 22.04 9 33 c 4.76 14.1 10.09 27.52 16 41 c 2.47 5.62 5.58 10.96 9 16 c 3.58 5.28 8.71 13.8 12 15 c 2.09 0.76 7.46 -4.46 10 -7 c 1.4 -1.4 3.75 -5.04 3 -6 c -1.8 -2.3 -9.1 -6.73 -14 -8 c -23.26 -6.01 -49.64 -11.23 -75 -15 c -15.29 -2.27 -30.45 -3 -46 -3 c -20.94 0 -41.08 2.46 -62 3 c -5.07 0.13 -10.26 -1.21 -15 -1 c -2.6 0.11 -7.8 2 -8 2 c -0.11 0 2.68 -1.78 4 -2 c 2.35 -0.39 5.35 0.31 8 0 c 8.7 -1.02 17.19 -2.21 26 -4 c 16.5 -3.34 31.84 -6.59 48 -11 c 13.8 -3.76 26.26 -8.19 40 -13 c 26.77 -9.38 77 -28 77 -28"/></svg>