<?xml version="1.0" encoding="UTF-8" standalone="no"?><!DOCTYPE svg PUBLIC "-//W3C//DTD SVG 1.1//EN" "http://www.w3.org/Graphics/SVG/1.1/DTD/svg11.dtd"><svg xmlns="http://www.w3.org/2000/svg" version="1.1" width="531" height="143"><path stroke-linejoin="round" stroke-linecap="round" stroke-width="2" stroke="rgb(52, 58, 64)" fill="none" d="M 12 38 c 0.12 -0.05 4.98 -3 7 -3 c 2.26 0 6.42 1.42 8 3 c 1.82 1.82 3.49 6.06 4 9 c 0.73 4.18 1.22 10.01 0 14 c -2.14 7.02 -6.99 15.39 -11 22 c -1.38 2.28 -3.77 4.71 -6 6 c -3.66 2.12 -13 5 -13 5"/><path stroke-linejoin="round" stroke-linecap="round" stroke-width="2" stroke="rgb(52, 58, 64)" fill="none" d="M 31 51 c 0.19 -0.07 7.21 -2.96 11 -4 c 5.96 -1.65 11.76 -2.86 18 -4 c 14.41 -2.64 27.73 -5.07 42 -7 c 5.71 -0.77 11.31 -1 17 -1 c 4.02 0 8.23 1 12 1 c 1.29 0 4.16 -1.16 4 -1 c -1.43 1.43 -18.16 16.64 -28 25 c -8.39 7.13 -17.05 12.84 -25 20 c -5.45 4.9 -10.68 10.36 -15 16 c -3.18 4.15 -5.99 9.26 -8 14 c -1.54 3.64 -2.48 8.04 -3 12 c -0.46 3.52 -1.03 8.21 0 11 c 0.99 2.69 4.86 6.75 7 8 c 1.03 0.6 3.86 -0.08 5 -1 c 6.19 -4.95 12.98 -13.01 20 -19 c 4.38 -3.73 9.07 -7.89 14 -10 c 8.35 -3.58 19.48 -5.07 28 -8 c 1.46 -0.5 3.19 -1.78 4 -3 c 1.6 -2.4 2.53 -7.69 4 -9 c 0.76 -0.68 3.46 0.44 5 1 c 2.02 0.73 4.28 1.68 6 3 c 6.72 5.17 13.44 12.01 20 17 c 1.35 1.02 3.47 2 5 2 c 2.61 0 6.15 -1.82 9 -2 c 2.19 -0.14 4.7 1 7 1 c 3.91 0 7.96 -1.07 12 -1 c 15.12 0.27 29.52 1.06 45 2 c 7.25 0.44 14.6 2 21 2 c 1.92 0 5.24 -0.6 6 -2 c 4.01 -7.35 8.22 -20.32 12 -31 l 5 -17"/><path stroke-linejoin="round" stroke-linecap="round" stroke-width="2" stroke="rgb(52, 58, 64)" fill="none" d="M 382 127 c 0.09 -0.07 3.81 -2.36 5 -4 c 9.61 -13.29 20.32 -28.24 29 -43 c 4.57 -7.77 7 -16.57 11 -25 c 2.49 -5.25 7.81 -10.32 8 -15 c 0.38 -9.23 -3.61 -22.37 -6 -33 c -0.54 -2.41 -1.72 -6.68 -3 -7 c -1.66 -0.41 -6.6 2.34 -9 4 c -1.56 1.08 -3.13 3.15 -4 5 c -4.26 9.05 -10.15 19.31 -12 29 c -3.24 17.03 -3.24 36.5 -4 55 c -0.25 6.05 1.39 15.92 1 18 c -0.1 0.51 -3.12 -1 -4 -2 c -3.66 -4.14 -9.73 -14.65 -11 -15 c -0.82 -0.22 -1.01 8.6 0 12 c 1.43 4.82 4.9 10.74 8 15 c 1.94 2.66 5.36 5.37 8 7 c 1.27 0.78 3.81 1.3 5 1 c 0.99 -0.25 2.39 -1.86 3 -3 c 1.56 -2.89 3.08 -6.61 4 -10 c 1.04 -3.83 0.96 -8.17 2 -12 c 0.92 -3.39 2.39 -6.99 4 -10 c 0.96 -1.79 2.62 -4.45 4 -5 c 1.31 -0.52 4.29 0.27 6 1 c 2.65 1.14 5.39 3.16 8 5 c 3.15 2.23 6.26 4.42 9 7 c 2.89 2.72 5.21 6.21 8 9 c 1.16 1.16 3.05 3.12 4 3 c 1.07 -0.13 2.93 -2.58 4 -4 c 0.84 -1.12 1.04 -3.25 2 -4 c 1.63 -1.27 4.89 -2.86 7 -3 c 2.28 -0.15 5.91 0.63 8 2 c 7.75 5.08 15.87 13.16 24 19 c 2.38 1.71 5.55 3.48 8 4 c 1.67 0.36 4.47 -0.24 6 -1 c 1.42 -0.71 2.5 -3.2 4 -4 l 11 -4"/></svg>