<?xml version="1.0" encoding="UTF-8" standalone="no"?><!DOCTYPE svg PUBLIC "-//W3C//DTD SVG 1.1//EN" "http://www.w3.org/Graphics/SVG/1.1/DTD/svg11.dtd"><svg xmlns="http://www.w3.org/2000/svg" version="1.1" width="609" height="160"><path stroke-linejoin="round" stroke-linecap="round" stroke-width="2" stroke="rgb(52, 58, 64)" fill="none" d="M 112 26 c -0.05 -0.14 -1.31 -6.84 -3 -8 c -2.64 -1.82 -8.69 -2.52 -13 -3 c -4.52 -0.5 -9.85 -1.11 -14 0 c -8.64 2.32 -19.07 6.62 -27 11 c -4.05 2.24 -7.74 6.39 -11 10 c -2.99 3.3 -4.97 7.58 -8 11 c -10.09 11.39 -23.36 22.98 -31 33 c -1.53 2 -0.3 6.21 -1 9 c -0.59 2.34 -3.23 5.08 -3 7 c 0.33 2.81 3.07 7.69 5 10 c 0.93 1.11 3.32 1.64 5 2 c 2.83 0.61 5.95 0.87 9 1 c 4.72 0.21 9.53 0.73 14 0 c 9.53 -1.55 19.48 -4.21 29 -7 c 4.15 -1.21 8.22 -2.91 12 -5 c 8.89 -4.91 18.37 -10.82 26 -16 c 0.9 -0.61 2.12 -3.04 2 -3 c -0.21 0.07 -3.62 2.49 -5 4 c -1.85 2.03 -3.73 4.67 -5 7 c -0.61 1.12 -1.49 3.96 -1 4 c 1.48 0.13 8.14 -1.6 12 -3 c 7.13 -2.59 19.6 -8.56 21 -9 c 0.22 -0.07 -2.28 2.53 -2 3 c 0.42 0.7 3.88 2.66 5 2 c 12.82 -7.56 34.18 -22.86 51 -35 c 3.66 -2.64 6.76 -5.76 10 -9 c 5.28 -5.28 14.38 -15.13 15 -16 c 0.15 -0.21 -3.77 0.96 -5 2 c -2.74 2.32 -5.05 6.17 -8 9 c -13.34 12.78 -26.86 24.11 -40 37 c -4.79 4.69 -9.27 10.03 -13 15 c -1.01 1.35 -2 3.57 -2 5 c 0 1.43 1.11 4.91 2 5 c 1.48 0.15 5.24 -2.93 8 -4 c 3.22 -1.25 6.96 -1.54 10 -3 c 5.74 -2.77 11.34 -7.29 17 -10 c 2.36 -1.13 6.59 -2.31 8 -2 c 0.7 0.16 1 2.78 1 4 c 0 1.22 -1.15 2.95 -1 4 c 0.13 0.92 1.22 2.22 2 3 c 0.78 0.78 3 1.22 3 2 c 0 3.11 -4.04 12.43 -3 14 c 0.82 1.22 8.06 -0.39 11 -2 c 7.16 -3.91 15 -11.43 22 -16 c 1.06 -0.69 4.06 -1.28 4 -1 c -0.11 0.54 -4.18 4.03 -5 6 c -0.63 1.51 -0.94 5.53 0 6 c 1.88 0.94 8.62 -0.45 12 0 l 3 2"/><path stroke-linejoin="round" stroke-linecap="round" stroke-width="2" stroke="rgb(52, 58, 64)" fill="none" d="M 237 68 l 1 1"/><path stroke-linejoin="round" stroke-linecap="round" stroke-width="2" stroke="rgb(52, 58, 64)" fill="none" d="M 313 36 c -0.12 0.25 -3.8 10.17 -7 14 c -14.74 17.64 -48.17 52.05 -49 53 c -0.15 0.17 6.81 -5.08 10 -8 c 4.58 -4.19 8.24 -9.15 13 -13 c 10.93 -8.84 22.26 -17.25 34 -25 c 5.97 -3.94 17.69 -10.71 19 -10 c 1.09 0.59 -4.98 10.84 -8 16 c -2.67 4.56 -6.18 8.53 -9 13 c -1.2 1.9 -2.47 4.07 -3 6 c -0.39 1.44 -0.62 4.38 0 5 c 0.62 0.62 3.56 0.45 5 0 c 3.49 -1.09 7.25 -3.15 11 -5 c 20.12 -9.91 38.3 -18.61 58 -29 c 11.57 -6.1 22.27 -12.05 33 -19 c 7.44 -4.82 14.47 -10.17 21 -16 c 5.78 -5.15 15.6 -16.31 16 -17 c 0.18 -0.31 -6.24 3 -9 5 c -6.87 4.98 -12.95 10.71 -20 16 c -10.85 8.14 -21.6 14.55 -32 23 c -20.57 16.73 -42.87 35.66 -59 51 c -1.51 1.43 -2.6 5.57 -2 7 c 0.71 1.69 4.66 4.39 7 5 c 3.26 0.86 8.13 -0.6 12 0 c 10.89 1.69 22.14 5.15 33 7 c 2.58 0.44 6.15 -0.67 8 0 c 1.16 0.42 3.11 2.99 3 4 c -0.14 1.29 -2.31 4.04 -4 5 c -18.8 10.66 -42.85 24.3 -63 33 c -5.13 2.22 -15.56 2.29 -18 2 c -0.55 -0.07 0.23 -3.16 1 -4 c 2.4 -2.62 6.34 -6.24 10 -8 c 12.32 -5.91 26.07 -10.87 40 -16 c 18.82 -6.93 37.24 -11.27 55 -19 c 18.3 -7.96 34.86 -19.85 53 -28 c 11.48 -5.16 23.52 -8.16 36 -12 c 9.9 -3.04 19.63 -7.55 29 -8 c 17.18 -0.82 36.18 2.94 55 4 l 16 0"/></svg>