<?xml version="1.0" encoding="UTF-8" standalone="no"?><!DOCTYPE svg PUBLIC "-//W3C//DTD SVG 1.1//EN" "http://www.w3.org/Graphics/SVG/1.1/DTD/svg11.dtd"><svg xmlns="http://www.w3.org/2000/svg" version="1.1" width="423" height="122"><path stroke-linejoin="round" stroke-linecap="round" stroke-width="2" stroke="rgb(52, 58, 64)" fill="none" d="M 155 20 c -0.54 -0.21 -20.34 -8.38 -31 -12 c -7.31 -2.48 -14.65 -4.53 -22 -6 c -4.2 -0.84 -8.76 -1.16 -13 -1 c -4.6 0.17 -9.43 0.93 -14 2 c -5.42 1.26 -11.06 2.63 -16 5 c -10.82 5.18 -22.62 11.16 -32 18 c -5.96 4.35 -11.29 11.06 -16 17 c -2.8 3.53 -5.3 7.92 -7 12 c -1.52 3.64 -2.5 8.04 -3 12 c -0.48 3.84 -0.64 8.32 0 12 c 0.62 3.59 2.05 8.15 4 11 c 2 2.93 5.79 6.1 9 8 c 3.72 2.2 8.69 4.08 13 5 c 4.65 1 10.12 1.29 15 1 c 6.24 -0.37 12.79 -1.39 19 -3 c 11.84 -3.07 23.29 -6.53 35 -11 c 44.67 -17.06 85.21 -34.5 130 -52 c 7.08 -2.77 13.73 -4.94 21 -7 c 10.84 -3.07 22.01 -7 32 -8 c 5.53 -0.55 14.19 1.28 18 3 c 1.32 0.59 2 4.19 2 6 c 0 2.37 -0.6 6.03 -2 8 c -3.72 5.25 -9.62 11.14 -15 16 c -4.91 4.43 -10.29 8.29 -16 12 c -20.52 13.32 -39.99 25.82 -61 38 c -8.76 5.08 -17.92 9 -27 13 c -2.2 0.97 -7 2.41 -7 2 c 0 -0.56 4.55 -4.95 7 -7 c 1.45 -1.2 3.23 -2.25 5 -3 c 6.84 -2.89 13.76 -5.59 21 -8 c 6.02 -2.01 11.79 -3.72 18 -5 c 15.19 -3.14 29.48 -6.02 45 -8 c 38.25 -4.87 73.24 -7.5 112 -12 c 14.94 -1.74 43 -6 43 -6"/></svg>