<?xml version="1.0" encoding="UTF-8" standalone="no"?><!DOCTYPE svg PUBLIC "-//W3C//DTD SVG 1.1//EN" "http://www.w3.org/Graphics/SVG/1.1/DTD/svg11.dtd"><svg xmlns="http://www.w3.org/2000/svg" version="1.1" width="200" height="104"><path stroke-linejoin="round" stroke-linecap="round" stroke-width="2" stroke="rgb(52, 58, 64)" fill="none" d="M 78 1 l 1 1"/><path stroke-linejoin="round" stroke-linecap="round" stroke-width="2" stroke="rgb(52, 58, 64)" fill="none" d="M 36 38 c -0.02 0.16 -1.11 6.06 -1 9 c 0.21 5.55 0.93 11.35 2 17 c 1.29 6.8 3.05 13.43 5 20 c 0.72 2.43 2.51 4.73 3 7 c 0.45 2.09 0 7 0 7"/><path stroke-linejoin="round" stroke-linecap="round" stroke-width="2" stroke="rgb(52, 58, 64)" fill="none" d="M 1 36 c 0.11 0.07 3.91 3.08 6 4 c 3.03 1.33 6.69 1.72 10 3 c 16.06 6.2 32.29 11.54 47 19 c 9.18 4.65 17.99 11.69 26 18 c 2.69 2.12 5.35 5.26 7 8 c 1.13 1.88 2.15 5.06 2 7 c -0.14 1.79 -1.72 4.72 -3 6 c -1.02 1.02 -3.51 2.09 -5 2 c -3.16 -0.2 -7.77 -1.38 -11 -3 c -6.37 -3.18 -12.32 -8.34 -19 -12 c -11.3 -6.18 -22.6 -10.86 -34 -17 c -6.33 -3.41 -18 -11 -18 -11"/><path stroke-linejoin="round" stroke-linecap="round" stroke-width="2" stroke="rgb(52, 58, 64)" fill="none" d="M 104 75 c -0.07 -0.26 -2.41 -11.13 -4 -15 c -0.37 -0.9 -2.75 -2.37 -3 -2 c -0.55 0.83 -1.17 5.59 -1 8 c 0.14 1.89 0.93 4.29 2 6 c 5.34 8.54 14.32 21.79 18 26 c 0.42 0.48 2.6 -1.13 3 -2 c 1.01 -2.22 0.35 -9 2 -9 c 8.73 0 31.71 6.7 48 9 c 10.03 1.41 30 2 30 2"/></svg>