<?xml version="1.0" encoding="UTF-8" standalone="no"?><!DOCTYPE svg PUBLIC "-//W3C//DTD SVG 1.1//EN" "http://www.w3.org/Graphics/SVG/1.1/DTD/svg11.dtd"><svg xmlns="http://www.w3.org/2000/svg" version="1.1" width="434" height="67"><path stroke-linejoin="round" stroke-linecap="round" stroke-width="2" stroke="rgb(52, 58, 64)" fill="none" d="M 44 1 c -0.4 0.25 -15.54 8.95 -23 14 c -3.94 2.66 -8.16 5.6 -11 9 c -3.49 4.19 -8.94 14.64 -9 15 c -0.04 0.25 5.06 -6.52 8 -9 c 3.18 -2.68 7.86 -5.74 11 -7 c 0.99 -0.4 2.99 0.37 4 1 c 1.39 0.87 3.04 2.56 4 4 c 0.91 1.37 1.61 3.28 2 5 c 1.25 5.51 1.24 12.3 3 17 c 0.94 2.51 3.86 5.78 6 7 c 1.87 1.07 5.67 1.31 8 1 c 2.2 -0.29 4.65 -2.28 7 -3 c 1.88 -0.58 4.3 -0.29 6 -1 c 2.02 -0.84 4.08 -3.62 6 -4 c 2.42 -0.48 5.95 0.56 9 1 c 1.72 0.25 3.88 0.14 5 1 c 2.65 2.04 5.26 6.68 8 9 c 1.23 1.04 3.29 1.62 5 2 c 4.17 0.93 9.03 2.58 13 2 c 10.91 -1.59 23.52 -7.12 35 -9 c 6.35 -1.04 14.25 0.69 20 0 c 1.68 -0.2 3.28 -2.57 5 -3 c 4.47 -1.12 10.23 -2 15 -2 c 3.52 0 7.73 1.06 11 2 c 1.06 0.3 2.29 1.18 3 2 c 1.14 1.33 1.86 3.67 3 5 l 3 2"/><path stroke-linejoin="round" stroke-linecap="round" stroke-width="2" stroke="rgb(52, 58, 64)" fill="none" d="M 256 66 c 0.26 -0.28 9.72 -10.72 15 -16 c 3.24 -3.24 6.75 -6.83 10 -9 c 1.23 -0.82 3.34 -0.83 5 -1 c 1.63 -0.16 4.01 -0.78 5 0 c 2.81 2.21 5.95 7.95 9 11 c 0.96 0.96 2.63 1.66 4 2 c 3.74 0.93 8.7 2.97 12 2 c 9.58 -2.83 21.09 -10.21 32 -15 c 2.93 -1.29 6.09 -2.38 9 -3 c 1.54 -0.33 3.91 -0.61 5 0 c 1.4 0.78 2.97 3.23 4 5 c 1.23 2.1 1.82 4.84 3 7 c 0.77 1.42 1.76 3.2 3 4 c 2.99 1.92 7.39 4.4 11 5 c 5.67 0.94 12.64 0.45 19 0 c 7.76 -0.55 15.55 -2.52 23 -3 l 8 1"/></svg>