<?xml version="1.0" encoding="UTF-8" standalone="no"?><!DOCTYPE svg PUBLIC "-//W3C//DTD SVG 1.1//EN" "http://www.w3.org/Graphics/SVG/1.1/DTD/svg11.dtd"><svg xmlns="http://www.w3.org/2000/svg" version="1.1" width="361" height="107"><path stroke-linejoin="round" stroke-linecap="round" stroke-width="2" stroke="rgb(52, 58, 64)" fill="none" d="M 4 2 c 0.11 0.46 4.51 17.26 6 26 c 0.84 4.92 1 9.95 1 15 c 0 5.72 -0.91 11.15 -1 17 c -0.25 15.8 0 46 0 46"/><path stroke-linejoin="round" stroke-linecap="round" stroke-width="2" stroke="rgb(52, 58, 64)" fill="none" d="M 40 1 c -0.16 0.35 -5.62 13.43 -9 20 c -2.7 5.24 -5.61 10.14 -9 15 c -6.78 9.72 -20.59 27.55 -21 28 c -0.22 0.24 6.32 -10.96 10 -16 c 2.62 -3.59 5.77 -6.95 9 -10 c 2.74 -2.59 6.09 -5.8 9 -7 c 2.04 -0.84 6.1 -0.89 8 0 c 2.35 1.1 5.38 4.43 7 7 c 2.13 3.37 3.53 7.83 5 12 c 2.62 7.41 4.31 15.39 7 22 c 0.75 1.83 2.5 4.42 4 5 c 2.1 0.81 6.59 0.75 9 0 c 2.31 -0.72 4.96 -3.12 7 -5 c 2.19 -2.02 4.52 -4.54 6 -7 c 1.37 -2.28 2.69 -5.49 3 -8 c 0.3 -2.37 -0.19 -5.73 -1 -8 c -0.72 -2.03 -2.83 -5.88 -4 -6 c -1.27 -0.13 -5.13 3.14 -6 5 c -1.12 2.4 -1.15 6.78 -1 10 c 0.18 3.89 1.03 8.12 2 12 c 0.68 2.72 1.72 5.63 3 8 c 0.96 1.77 2.6 4.22 4 5 c 1.09 0.61 3.9 0.55 5 0 c 1.1 -0.55 2.39 -2.57 3 -4 c 1.28 -2.98 2.57 -7 3 -10 c 0.17 -1.18 -1.08 -4.11 -1 -4 c 0.34 0.47 5.95 11.01 9 15 c 0.78 1.02 2.7 1.71 4 2 c 1.46 0.32 3.76 0.56 5 0 c 1.94 -0.88 4.19 -3.19 6 -5 c 1.48 -1.48 3.09 -3.17 4 -5 c 2.94 -5.89 6.96 -17.54 8 -19 c 0.27 -0.38 1.61 3.28 2 5 l 3 17"/><path stroke-linejoin="round" stroke-linecap="round" stroke-width="2" stroke="rgb(52, 58, 64)" fill="none" d="M 171 26 c -0.03 0.21 -1.77 7.94 -2 12 c -0.77 13.69 -0.78 38.21 -1 41 c -0.02 0.25 -1.76 -1.96 -2 -3 c -0.67 -2.89 -1.28 -6.76 -1 -10 c 1.02 -11.71 2.88 -23.96 5 -36 c 0.91 -5.14 2.41 -10.02 4 -15 c 1.11 -3.45 2.23 -7.52 4 -10 c 1.19 -1.66 4.23 -3.71 6 -4 c 1.55 -0.26 4.83 0.83 6 2 c 1.66 1.66 3.14 5.28 4 8 c 1.07 3.39 2.13 7.54 2 11 c -0.19 5.03 -1.55 11.01 -3 16 c -0.8 2.74 -2.4 5.6 -4 8 c -1.65 2.48 -3.79 5.1 -6 7 c -2.26 1.94 -8.5 4.57 -8 5 c 0.79 0.68 10.14 1.47 15 1 c 12.11 -1.16 24.37 -3.58 37 -6 c 10.71 -2.05 21.59 -7 31 -7 c 7.97 0 17.05 5.01 26 7 c 9.45 2.1 18.41 3.86 28 5 c 16.24 1.92 48 4 48 4"/></svg>