<?xml version="1.0" encoding="UTF-8" standalone="no"?><!DOCTYPE svg PUBLIC "-//W3C//DTD SVG 1.1//EN" "http://www.w3.org/Graphics/SVG/1.1/DTD/svg11.dtd"><svg xmlns="http://www.w3.org/2000/svg" version="1.1" width="499" height="159"><path stroke-linejoin="round" stroke-linecap="round" stroke-width="2" stroke="rgb(52, 58, 64)" fill="none" d="M 57 1 c -0.1 0.88 -2.85 33.81 -6 50 c -1.78 9.15 -5.44 17.93 -9 27 c -10.82 27.57 -27.49 68.54 -33 80 c -0.32 0.66 -3.47 -1.74 -4 -3 c -1.75 -4.16 -3.73 -10.85 -4 -16 c -0.36 -6.9 1.06 -14.51 2 -22 c 0.77 -6.19 1.47 -12.21 3 -18 c 1.44 -5.43 3.55 -10.93 6 -16 c 2.51 -5.19 5.7 -11.08 9 -15 c 1.52 -1.81 4.57 -2.87 7 -4 c 2.57 -1.2 5.43 -2.77 8 -3 c 4.22 -0.38 14 1 14 1"/><path stroke-linejoin="round" stroke-linecap="round" stroke-width="2" stroke="rgb(52, 58, 64)" fill="none" d="M 78 6 c -0.23 0.09 -9.06 2.94 -13 5 c -2.83 1.48 -5.63 3.83 -8 6 c -1.52 1.39 -2.98 3.21 -4 5 c -1.57 2.75 -3.14 5.93 -4 9 c -1.42 5.08 -3.35 11.49 -3 16 c 0.24 3.1 2.92 7.28 5 10 c 1.98 2.59 5.22 4.86 8 7 c 1.53 1.17 3.31 2.32 5 3 c 1.48 0.59 3.33 0.94 5 1 c 6.88 0.26 14.24 0.8 21 0 c 6.94 -0.83 14.13 -3.68 21 -5 c 1.59 -0.31 4.16 -0.56 5 0 l 1 4"/><path stroke-linejoin="round" stroke-linecap="round" stroke-width="2" stroke="rgb(52, 58, 64)" fill="none" d="M 123 62 c 0.03 -0.1 1.11 -4.22 2 -6 c 0.7 -1.4 1.8 -2.98 3 -4 c 2.93 -2.48 6.53 -4.88 10 -7 c 2.55 -1.56 5.43 -3.65 8 -4 c 4.04 -0.55 10.57 -0.01 14 1 c 1.22 0.36 2.61 2.58 3 4 c 1.11 4.01 1.81 9.28 2 14 c 0.48 12.02 -0.29 24.2 0 36 l 1 5"/><path stroke-linejoin="round" stroke-linecap="round" stroke-width="2" stroke="rgb(52, 58, 64)" fill="none" d="M 243 63 l -2 4"/><path stroke-linejoin="round" stroke-linecap="round" stroke-width="2" stroke="rgb(52, 58, 64)" fill="none" d="M 287 30 l 1 1"/><path stroke-linejoin="round" stroke-linecap="round" stroke-width="2" stroke="rgb(52, 58, 64)" fill="none" d="M 223 69 c 0.07 0.02 3.17 0.27 4 1 c 1.45 1.27 2.44 4.76 4 6 c 1.36 1.09 3.95 1.57 6 2 c 4.26 0.9 8.72 2.15 13 2 c 23.46 -0.83 47.34 -3.61 72 -5 c 5.81 -0.33 11.62 -0.92 17 0 c 9.82 1.67 20.23 4.82 30 8 c 4.5 1.47 8.49 4.25 13 6 c 5.97 2.31 11.74 4.03 18 6 c 5.85 1.84 11.13 3.57 17 5 c 8.12 1.98 15.84 3.81 24 5 c 8.02 1.17 16.3 2.45 24 2 c 8.78 -0.52 18.01 -3.09 27 -5 l 6 -2"/></svg>