<?xml version="1.0" encoding="UTF-8" standalone="no"?><!DOCTYPE svg PUBLIC "-//W3C//DTD SVG 1.1//EN" "http://www.w3.org/Graphics/SVG/1.1/DTD/svg11.dtd"><svg xmlns="http://www.w3.org/2000/svg" version="1.1" width="495" height="106"><path stroke-linejoin="round" stroke-linecap="round" stroke-width="2" stroke="rgb(52, 58, 64)" fill="none" d="M 41 45 l 1 1"/><path stroke-linejoin="round" stroke-linecap="round" stroke-width="2" stroke="rgb(52, 58, 64)" fill="none" d="M 70 58 l 0 11"/><path stroke-linejoin="round" stroke-linecap="round" stroke-width="2" stroke="rgb(52, 58, 64)" fill="none" d="M 25 72 c -0.17 -0.12 -7.05 -4.36 -10 -7 c -3.26 -2.91 -6.74 -6.45 -9 -10 c -2.18 -3.43 -4.15 -8.41 -5 -12 c -0.33 -1.41 0.13 -3.94 1 -5 c 1.7 -2.08 6.71 -3.5 8 -6 c 3.39 -6.56 3.8 -20.18 8 -25 c 3.19 -3.66 13.35 -6.73 19 -6 c 17.06 2.22 47.67 12.19 58 16 c 0.88 0.32 -0.31 3.55 -1 5 c -2.8 5.86 -7.28 11.93 -10 18 c -1.51 3.36 -2.66 7.36 -3 11 c -0.63 6.7 -0.27 14.23 0 21 c 0.05 1.33 0.44 2.87 1 4 c 0.68 1.37 1.9 2.74 3 4 c 1.24 1.42 2.51 2.91 4 4 l 11 7"/><path stroke-linejoin="round" stroke-linecap="round" stroke-width="2" stroke="rgb(52, 58, 64)" fill="none" d="M 11 20 c 0.09 0.02 3.71 0.25 5 1 c 2.33 1.36 5.07 3.73 7 6 c 3.6 4.23 6.92 9.11 10 14 c 2.64 4.2 4.95 8.52 7 13 c 1.63 3.55 3.46 7.56 4 11 c 0.37 2.37 -0.47 5.37 -1 8 c -0.48 2.38 -0.94 5.94 -2 7 c -0.73 0.73 -3.75 0.63 -5 0 c -3.41 -1.7 -7.86 -5.05 -11 -8 c -2.31 -2.17 -4.26 -5.13 -6 -8 c -4.98 -8.21 -9.78 -16.85 -14 -25 c -0.61 -1.17 -1.14 -2.89 -1 -4 c 0.15 -1.2 1.04 -3.36 2 -4 c 1.56 -1.04 4.78 -1.09 7 -2 c 3.4 -1.4 6.53 -3.77 10 -5 c 6.78 -2.41 14.13 -4.85 21 -6 c 4.72 -0.79 10.44 -0.73 15 0 c 3.27 0.52 7.37 2.19 10 4 c 2.25 1.55 4.52 4.54 6 7 c 1.37 2.28 2.82 5.8 3 8 c 0.1 1.15 -1.85 2.8 -2 4 c -0.14 1.11 1.15 2.95 1 4 c -0.13 0.92 -1.68 1.94 -2 3 c -0.92 2.99 -1.08 7.01 -2 10 c -0.32 1.06 -1.62 1.94 -2 3 c -0.88 2.42 -1.8 5.57 -2 8 c -0.1 1.21 0.44 2.87 1 4 c 0.68 1.37 1.77 2.96 3 4 c 11.04 9.29 35 28 35 28"/><path stroke-linejoin="round" stroke-linecap="round" stroke-width="2" stroke="rgb(52, 58, 64)" fill="none" d="M 115 63 c 0 -0.37 0.15 -19.63 0 -21 c -0.03 -0.23 -1.67 1.93 -2 3 c -1.23 3.94 -2.29 8.73 -3 13 c -0.27 1.6 -0.32 3.54 0 5 c 0.29 1.3 1.2 3.6 2 4 c 0.74 0.37 2.87 -0.44 4 -1 c 1.37 -0.68 3.06 -1.77 4 -3 c 3.14 -4.1 9 -14 9 -14"/><path stroke-linejoin="round" stroke-linecap="round" stroke-width="2" stroke="rgb(52, 58, 64)" fill="none" d="M 128 48 c -0.05 0.05 -2.53 1.88 -3 3 c -1.02 2.44 -1.58 6.03 -2 9 c -0.23 1.61 -0.34 3.62 0 5 c 0.25 1 1.59 3.1 2 3 c 0.51 -0.13 0.96 -3.42 2 -4 c 3.98 -2.21 10.94 -3.56 16 -6 c 4.52 -2.18 8.96 -5.15 13 -8 c 1.5 -1.06 2.9 -2.53 4 -4 c 1.84 -2.45 4.19 -8.3 5 -8 c 0.98 0.37 1.27 8.08 3 11 c 2.25 3.81 6.79 8.25 10 11 c 0.89 0.76 2.78 1 4 1 c 1.22 0 2.8 -0.45 4 -1 c 3 -1.38 6.12 -4.1 9 -5 c 1.96 -0.61 4.98 -0.54 7 0 c 2.58 0.69 5.63 2.49 8 4 c 1.12 0.72 1.89 2.22 3 3 c 2.12 1.48 4.61 3.57 7 4 c 7.72 1.4 17.26 1.15 26 2 c 1.71 0.17 3.52 0.41 5 1 l 5 3"/><path stroke-linejoin="round" stroke-linecap="round" stroke-width="2" stroke="rgb(52, 58, 64)" fill="none" d="M 212 38 l 1 1"/><path stroke-linejoin="round" stroke-linecap="round" stroke-width="2" stroke="rgb(52, 58, 64)" fill="none" d="M 280 99 c 0.23 -0.24 9.95 -8.82 13 -14 c 6.5 -11.04 10.79 -24.82 17 -37 c 2.88 -5.64 7.52 -13.52 10 -16 c 0.59 -0.59 3.15 1.01 4 2 c 2.74 3.2 5.95 7.73 8 12 c 5.54 11.55 10.17 23.78 15 36 c 0.9 2.28 2 7 2 7"/><path stroke-linejoin="round" stroke-linecap="round" stroke-width="2" stroke="rgb(52, 58, 64)" fill="none" d="M 313 75 l 30 -2"/><path stroke-linejoin="round" stroke-linecap="round" stroke-width="2" stroke="rgb(52, 58, 64)" fill="none" d="M 355 77 c 0.05 -0.04 2.18 -1.18 3 -2 c 2.41 -2.41 5.54 -5.24 7 -8 c 1.27 -2.4 2.47 -6.52 2 -9 c -0.69 -3.61 -4.96 -10.83 -6 -12 c -0.28 -0.32 -2 2.04 -2 3 c 0 3.24 0.94 8.1 2 12 c 1.94 7.1 4.46 14.9 7 21 c 0.49 1.17 1.88 2.28 3 3 c 2.37 1.51 5.27 2.98 8 4 c 2.51 0.94 5.6 2.22 8 2 c 4.23 -0.38 10.38 -2.42 14 -4 c 0.9 -0.39 1.53 -1.94 2 -3 c 0.82 -1.85 1.67 -4.04 2 -6 c 0.31 -1.86 0.3 -4.08 0 -6 c -0.68 -4.28 -2.72 -12.36 -3 -13 c -0.09 -0.2 -1.11 2.8 -1 4 c 0.19 2.11 1.18 4.66 2 7 c 1.91 5.5 3.79 11.33 6 16 c 0.55 1.16 1.98 2.92 3 3 c 2.45 0.19 6.93 -0.88 10 -2 c 4.04 -1.47 8.02 -5.04 12 -6 c 5.05 -1.22 11.43 -0.33 17 -1 c 2.7 -0.32 5.79 -0.89 8 -2 c 2.09 -1.05 3.9 -4.37 6 -5 c 3.77 -1.13 9.3 -1 14 -1 l 15 1"/></svg>