<?xml version="1.0" encoding="UTF-8" standalone="no"?><!DOCTYPE svg PUBLIC "-//W3C//DTD SVG 1.1//EN" "http://www.w3.org/Graphics/SVG/1.1/DTD/svg11.dtd"><svg xmlns="http://www.w3.org/2000/svg" version="1.1" width="351" height="74"><path stroke-linejoin="round" stroke-linecap="round" stroke-width="2" stroke="rgb(52, 58, 64)" fill="none" d="M 1 51 c 0.58 -0.17 22.43 -5.85 33 -10 c 7.95 -3.12 15.06 -8.41 23 -12 c 6.19 -2.8 13.17 -3.95 19 -7 c 7.9 -4.14 16.1 -9.96 23 -15 c 1.26 -0.92 3 -3.16 3 -4 c 0 -0.61 -2.17 -2.22 -3 -2 c -4.03 1.06 -11.17 4.02 -16 7 c -7.92 4.87 -16.09 11.01 -23 17 c -2.75 2.39 -4.72 5.84 -7 9 c -2.17 3 -4.89 6 -6 9 c -1.03 2.79 -1.18 6.91 -1 10 c 0.13 2.24 0.86 5.28 2 7 c 1.23 1.84 3.82 4.13 6 5 c 5.5 2.2 12.76 4.05 19 5 c 4.45 0.67 9.7 0.91 14 0 c 7.78 -1.64 16.74 -4.99 24 -8 c 1.84 -0.76 3.92 -2.44 5 -4 c 1.66 -2.4 4.26 -7.95 4 -9 c -0.16 -0.65 -4.25 0.42 -6 1 c -1.04 0.35 -2.22 1.22 -3 2 c -0.78 0.78 -2.1 2.2 -2 3 c 0.16 1.3 1.7 4.06 3 5 c 1.9 1.38 5.33 2.51 8 3 c 4.39 0.8 9.2 0.83 14 1 c 5.13 0.18 9.98 0.33 15 0 c 5.06 -0.34 10.11 -2 15 -2 c 5.85 0 12.46 0.99 18 2 c 1.37 0.25 3.42 1.07 4 2 c 0.79 1.26 0.22 4.91 1 6 c 0.53 0.74 2.76 1.17 4 1 c 16.18 -2.27 35.79 -4.98 53 -9 c 8.21 -1.92 15.8 -7.04 24 -9 c 15.25 -3.65 31.69 -7.07 47 -8 c 11.28 -0.69 35 3 35 3"/></svg>