<?xml version="1.0" encoding="UTF-8" standalone="no"?><!DOCTYPE svg PUBLIC "-//W3C//DTD SVG 1.1//EN" "http://www.w3.org/Graphics/SVG/1.1/DTD/svg11.dtd"><svg xmlns="http://www.w3.org/2000/svg" version="1.1" width="468" height="130"><path stroke-linejoin="round" stroke-linecap="round" stroke-width="2" stroke="rgb(52, 58, 64)" fill="none" d="M 177 11 c -0.04 -0.17 -1.61 -6.68 -2 -10 c -0.27 -2.28 -0.27 -4.72 0 -7 c 0.39 -3.32 2 -10 2 -10"/><path stroke-linejoin="round" stroke-linecap="round" stroke-width="2" stroke="rgb(52, 58, 64)" fill="none" d="M 20 90 c 0.11 -0.12 4.38 -4.5 6 -7 c 1.96 -3.03 3.69 -6.57 5 -10 c 1.33 -3.49 2.6 -7.58 3 -11 c 0.21 -1.82 -0.2 -5.33 -1 -6 c -0.67 -0.56 -3.7 0.35 -5 1 c -1.08 0.54 -2.73 2.04 -3 3 c -0.27 0.93 0.42 2.84 1 4 c 1.33 2.66 3.07 5.89 5 8 c 1.48 1.61 4.37 2.37 6 4 c 4.82 4.82 9.41 10.55 14 16 c 0.78 0.93 1.61 1.97 2 3 c 0.55 1.46 1.31 3.93 1 5 c -0.22 0.76 -1.98 1.85 -3 2 c -3.1 0.44 -7.34 0.29 -11 0 c -4.71 -0.38 -9.45 -0.95 -14 -2 c -4.07 -0.94 -8.08 -2.43 -12 -4 c -2.78 -1.11 -5.51 -2.47 -8 -4 l -5 -4"/><path stroke-linejoin="round" stroke-linecap="round" stroke-width="2" stroke="rgb(52, 58, 64)" fill="none" d="M 56 109 c 0.12 0.05 4.71 2.6 7 3 c 3 0.53 7.12 0.78 10 0 c 3.86 -1.05 9.3 -3.92 12 -6 c 0.83 -0.64 0.4 -4 1 -4 c 1.16 0 4.66 2.93 7 4 c 1.2 0.55 2.7 1 4 1 c 5.06 0 11.57 0.36 16 -1 c 3.37 -1.04 7.07 -4.52 10 -7 c 1.2 -1.02 2.41 -2.55 3 -4 c 2.26 -5.52 5.84 -17.65 6 -18 c 0.06 -0.13 -1 4.72 -1 7 c 0 2.91 0.37 6.26 1 9 c 0.31 1.35 1.12 3.12 2 4 c 0.88 0.88 2.67 1.84 4 2 c 3.85 0.45 9.03 0.84 13 0 c 6.48 -1.37 14.89 -5.89 20 -7 c 0.87 -0.19 2.22 1.22 3 2 c 0.78 0.78 1.17 2.41 2 3 c 1.24 0.89 3.37 1.7 5 2 c 1.82 0.33 4.11 0.33 6 0 c 3.6 -0.63 7.69 -2.56 11 -3 c 1.2 -0.16 2.96 0.41 4 1 c 1.07 0.61 1.85 2.65 3 3 l 20 4"/><path stroke-linejoin="round" stroke-linecap="round" stroke-width="2" stroke="rgb(52, 58, 64)" fill="none" d="M 164 78 l 1 1"/><path stroke-linejoin="round" stroke-linecap="round" stroke-width="2" stroke="rgb(52, 58, 64)" fill="none" d="M 359 62 c -0.16 0.16 -6.5 5.88 -9 9 c -1.32 1.65 -2.43 3.95 -3 6 c -1.03 3.71 -2 8.48 -2 12 c 0 1.56 1.13 3.61 2 5 c 0.69 1.1 1.89 2.19 3 3 c 2.48 1.8 5.35 3.86 8 5 l 6 1"/><path stroke-linejoin="round" stroke-linecap="round" stroke-width="2" stroke="rgb(52, 58, 64)" fill="none" d="M 395 92 c -0.03 0.07 -1.86 2.77 -2 4 c -0.16 1.4 0.13 4.65 1 5 c 1.55 0.62 7.47 0.61 9 -1 c 4.09 -4.29 7.83 -13.85 12 -21 c 0.62 -1.07 1.22 -2.22 2 -3 c 0.78 -0.78 2.16 -2 3 -2 c 1.04 0 3.38 0.99 4 2 c 1.63 2.65 2.16 7.99 4 11 c 1.56 2.55 4.5 5.75 7 7 c 2.83 1.41 7.56 1.79 11 2 c 1.57 0.1 3.44 -1.1 5 -1 c 3.11 0.21 7.07 0.9 10 2 l 6 4"/></svg>