<?xml version="1.0" encoding="UTF-8" standalone="no"?><!DOCTYPE svg PUBLIC "-//W3C//DTD SVG 1.1//EN" "http://www.w3.org/Graphics/SVG/1.1/DTD/svg11.dtd"><svg xmlns="http://www.w3.org/2000/svg" version="1.1" width="650" height="156"><path stroke-linejoin="round" stroke-linecap="round" stroke-width="2" stroke="rgb(52, 58, 64)" fill="none" d="M 1 31 c 0.12 0.42 5.36 15.82 7 24 c 2.38 11.9 3.71 23.91 5 36 c 0.39 3.66 0.78 7.74 0 11 c -1.08 4.52 -3.87 10.21 -6 14 c -0.5 0.9 -2.3 2.12 -3 2 c -0.82 -0.14 -3.1 -1.99 -3 -3 c 0.66 -6.55 3.12 -18.55 6 -27 c 2.33 -6.83 6.4 -13.23 10 -20 c 2.23 -4.21 4.24 -8.37 7 -12 c 4.5 -5.93 9.76 -11.52 15 -17 c 2.13 -2.23 4.59 -4.25 7 -6 c 1.17 -0.85 2.69 -1.76 4 -2 c 2.05 -0.37 5.73 -0.63 7 0 c 0.75 0.37 1.13 2.74 1 4 c -1.11 10.79 -4.21 23.21 -5 35 c -0.89 13.34 -0.28 26.64 0 40 c 0.05 2.36 0.26 5.34 1 7 c 0.38 0.84 2.39 2.26 3 2 c 1.09 -0.47 3.05 -3.15 4 -5 c 5.55 -10.83 10.95 -22.21 16 -34 c 4.17 -9.73 8.53 -24.56 11 -29 c 0.36 -0.64 3.47 1.05 4 2 c 0.83 1.5 0.29 5.05 1 7 c 0.5 1.38 2.39 2.63 3 4 c 0.62 1.4 0.34 3.57 1 5 c 1.22 2.65 4.07 7.47 5 8 c 0.44 0.25 1.11 -2.88 2 -4 c 2.97 -3.71 7.04 -7.05 10 -11 c 4.03 -5.37 7.21 -11.58 11 -17 c 0.79 -1.13 2.02 -2.9 3 -3 c 1.68 -0.17 5.54 0.83 7 2 c 1.35 1.08 2.32 3.95 3 6 c 0.94 2.82 1.65 5.92 2 9 c 1.67 14.74 3.04 39.08 4 44 c 0.11 0.56 3.45 -1.69 4 -3 c 5.23 -12.55 10.73 -29.45 16 -45 c 1.95 -5.77 3.04 -12.86 5 -17 c 0.49 -1.04 3.89 -2.6 4 -2 c 1.53 8.09 3.84 40.8 7 60 c 0.73 4.43 3.42 10.9 5 13 c 0.47 0.62 3 -0.3 4 -1 c 2.93 -2.03 7.08 -5.31 9 -8 c 0.97 -1.36 0.36 -4.24 1 -6 c 0.61 -1.69 2.65 -5 3 -5 c 0.3 0 -0.47 3.89 0 5 c 0.34 0.8 1.94 1.65 3 2 c 2.7 0.9 6.02 1.67 9 2 c 2.91 0.32 6.05 0.3 9 0 c 3.67 -0.37 7.61 -0.93 11 -2 c 2.72 -0.86 5.45 -2.47 8 -4 c 2.45 -1.47 5.12 -3.12 7 -5 c 1.58 -1.58 3.3 -4.07 4 -6 c 0.49 -1.34 0.34 -3.62 0 -5 c -0.25 -1 -1.2 -2.66 -2 -3 c -1.11 -0.47 -3.49 -0.38 -5 0 c -3.53 0.88 -8.65 2.43 -11 4 c -0.83 0.55 -1.54 3.61 -1 4 c 1.06 0.76 5.33 1 8 1 c 6.96 0 14.07 -0.13 21 -1 c 6.4 -0.8 12.77 -2.44 19 -4 c 1.73 -0.43 5.07 -2.06 5 -2 c -0.16 0.13 -6.91 3.86 -10 6 c -1.13 0.78 -2.87 2.11 -3 3 c -0.13 0.93 1.09 3.55 2 4 c 1.22 0.61 4.06 0.31 6 0 c 6.27 -1 12.77 -2.2 19 -4 c 6.49 -1.88 18.37 -6.83 19 -7 c 0.16 -0.04 -3.36 1.84 -4 3 c -0.78 1.41 -1.3 4.38 -1 6 c 0.28 1.56 1.86 3.67 3 5 c 0.71 0.82 2.06 1.88 3 2 c 1.33 0.17 3.68 -0.22 5 -1 c 3.88 -2.28 8.51 -5.7 12 -9 c 2.65 -2.51 5.03 -5.82 7 -9 c 2.32 -3.74 4.3 -7.8 6 -12 c 4.73 -11.7 9.5 -23.13 13 -35 c 2.48 -8.42 4.87 -25.45 5 -26 c 0.02 -0.1 0.29 3.39 0 5 c -2.33 12.83 -6.01 25.65 -8 39 c -2.42 16.18 -3.54 31.46 -5 48 c -0.61 6.86 -1.27 13.34 -1 20 c 0.4 9.7 1.72 19.26 3 29 c 0.41 3.08 0.89 6.6 2 9 c 0.68 1.47 3.29 4.4 4 4 c 1.3 -0.72 3.66 -5.88 5 -9 c 1.64 -3.83 3.03 -7.86 4 -12 c 2.73 -11.68 4.56 -25.96 7 -35 c 0.25 -0.91 2.21 -2 3 -2 c 0.79 0 1.95 1.86 3 2 c 7.86 1.05 18.39 2.71 27 2 c 11.04 -0.91 22.92 -4.06 34 -7 c 5.16 -1.37 11.85 -5.44 15 -6 c 0.7 -0.12 1.11 2.52 2 3 c 2.88 1.55 7.31 3.49 11 4 c 10.1 1.41 21.24 1.77 32 2 c 5.04 0.11 10.15 -1.19 15 -1 c 3.6 0.14 7.3 1.18 11 2 c 2.41 0.54 5.24 0.79 7 2 c 3.08 2.12 5.7 7.52 9 9 c 5.29 2.37 13.42 3.54 20 4 c 7.42 0.52 15.28 -0.2 23 -1 c 8.49 -0.88 17.36 -1.62 25 -4 c 6.75 -2.1 14.53 -5.9 20 -10 c 4.51 -3.38 10.46 -9.53 12 -14 c 1.26 -3.67 0.5 -12.04 -2 -15 c -5 -5.92 -16.19 -13.77 -25 -17 c -19.51 -7.15 -43.03 -12.16 -65 -16 c -18.13 -3.17 -37.1 -5.18 -55 -5 c -13.75 0.14 -28.93 2.5 -42 6 c -9.79 2.62 -20.22 7.85 -29 13 c -6.08 3.57 -11.94 8.94 -17 14 c -3.77 3.77 -9.54 9.93 -10 13 c -0.28 1.85 4.39 5.41 7 7 c 4.6 2.8 10.41 5.21 16 7 c 29.09 9.32 57.22 18.29 87 26 c 17.37 4.5 34.05 7.04 52 10 c 15.39 2.54 29.85 4.6 45 6 l 20 0"/></svg>