<?xml version="1.0" encoding="UTF-8" standalone="no"?><!DOCTYPE svg PUBLIC "-//W3C//DTD SVG 1.1//EN" "http://www.w3.org/Graphics/SVG/1.1/DTD/svg11.dtd"><svg xmlns="http://www.w3.org/2000/svg" version="1.1" width="475" height="217"><path stroke-linejoin="round" stroke-linecap="round" stroke-width="2" stroke="rgb(52, 58, 64)" fill="none" d="M 460 16 c 0.05 -0.38 1.61 -14.82 3 -22 c 0.59 -3.07 2.49 -5.96 3 -9 c 1.13 -6.76 0.83 -14.45 2 -21 c 0.42 -2.37 2.56 -4.63 3 -7 c 1.16 -6.25 1.46 -13.21 2 -20 c 0.14 -1.69 0.44 -3.68 0 -5 c -0.44 -1.32 -2.72 -2.75 -3 -4 c -0.28 -1.28 1 -3.44 1 -5 c 0 -1.56 -0.48 -3.45 -1 -5 c -0.45 -1.36 -1.91 -2.72 -2 -4 l 1 -10"/><path stroke-linejoin="round" stroke-linecap="round" stroke-width="2" stroke="rgb(52, 58, 64)" fill="none" d="M 14 56 c 0.37 0.14 14.09 6.22 21 8 c 4.31 1.11 9.34 1 14 1 c 3.67 0 7.41 -0.35 11 -1 c 3.71 -0.67 8.2 -1.42 11 -3 c 1.92 -1.08 3.6 -3.89 5 -6 c 1.21 -1.81 2.71 -4.13 3 -6 c 0.3 -1.97 -0.02 -5.6 -1 -7 c -0.93 -1.33 -3.95 -2.32 -6 -3 c -2.82 -0.94 -7.1 -2.59 -9 -2 c -1.49 0.46 -3.05 3.86 -4 6 c -2.97 6.67 -4.89 14.2 -8 21 c -2.23 4.88 -4.96 9.49 -8 14 c -6.08 9.01 -12.06 18.29 -19 26 c -4.74 5.27 -11.63 10.34 -17 14 c -1.24 0.85 -4.26 1.49 -5 1 c -0.74 -0.49 -1.49 -3.83 -1 -5 c 0.88 -2.12 3.79 -5.1 6 -7 c 2.26 -1.94 5.27 -4.23 8 -5 c 4.96 -1.39 11.76 -2 17 -2 c 2.23 0 4.78 1.09 7 2 c 3.4 1.4 6.85 3.08 10 5 l 8 6"/><path stroke-linejoin="round" stroke-linecap="round" stroke-width="2" stroke="rgb(52, 58, 64)" fill="none" d="M 53 103 c 0.02 0.07 0.33 3.33 1 4 c 0.67 0.67 2.78 1 4 1 c 1.22 0 2.87 -0.44 4 -1 c 1.37 -0.68 2.77 -2.89 4 -3 c 1.79 -0.16 4.84 2 7 2 c 3.03 0 6.99 -2.15 10 -2 c 3.08 0.15 6.75 2.78 10 3 c 5.92 0.41 12.67 -0.47 19 -1 c 1.7 -0.14 3.44 -0.44 5 -1 c 3.02 -1.08 7.47 -4 9 -4 c 0.64 0 0.31 3.83 1 4 c 1.21 0.3 5.01 -1 7 -2 c 1.75 -0.88 3.65 -2.5 5 -4 c 1.52 -1.69 2.94 -3.87 4 -6 c 2.25 -4.49 4.2 -9.19 6 -14 c 1.24 -3.3 2.97 -9.8 3 -10 c 0.01 -0.08 -1.73 2.65 -2 4 c -0.67 3.34 -0.4 7.41 -1 11 c -0.39 2.36 -2.1 4.85 -2 7 c 0.2 4.23 1.76 9.77 3 14 c 0.31 1.07 1.2 2.2 2 3 c 1.1 1.1 2.68 2.56 4 3 c 1.32 0.44 3.49 -0.3 5 0 c 1.62 0.32 3.5 1.83 5 2 l 4 -1"/><path stroke-linejoin="round" stroke-linecap="round" stroke-width="2" stroke="rgb(52, 58, 64)" fill="none" d="M 265 47 c 0.05 0.11 3.14 4.19 3 6 c -0.43 5.57 -2.68 14.72 -5 20 c -0.88 2 -3.92 3.68 -6 5 c -1.43 0.91 -3.3 1.49 -5 2 c -1.61 0.48 -3.37 1 -5 1 c -3.84 0 -9.74 -1.52 -12 -1 c -0.78 0.18 -1.15 2.95 -1 4 c 0.13 0.92 1.12 2.49 2 3 c 2.63 1.54 6.74 3.43 10 4 c 3.94 0.69 8.73 0.36 13 0 c 3.68 -0.31 7.43 -0.98 11 -2 c 5.76 -1.65 11.67 -3.68 17 -6 c 2.13 -0.93 4.34 -2.55 6 -4 c 0.83 -0.73 1.2 -2.2 2 -3 c 1.1 -1.1 3.96 -3.39 4 -3 c 0.1 1.04 -2.48 8.7 -3 13 c -0.46 3.87 -0.04 11.74 0 12 c 0.02 0.11 0.27 -4.12 1 -5 c 0.59 -0.71 3.26 -1.37 4 -1 c 0.8 0.4 1.04 3.68 2 4 c 2.15 0.72 7.16 -0.57 10 0 c 1.66 0.33 3.31 2.48 5 3 c 2.34 0.72 5.47 1 8 1 c 1.6 0 3.27 -0.63 5 -1 c 3.13 -0.67 6.69 -0.61 9 -2 c 3.72 -2.23 7.48 -6.48 11 -10 c 1.85 -1.85 3.88 -3.91 5 -6 c 1.05 -1.95 1.04 -4.91 2 -7 c 0.95 -2.07 3.05 -3.93 4 -6 c 0.96 -2.09 1.91 -6.91 2 -7 c 0.08 -0.08 -0.9 3.99 -1 6 c -0.24 4.97 -0.45 10.05 0 15 c 0.55 6.03 3.98 15.75 3 18 c -0.55 1.26 -6.75 -1.13 -10 -2 c -1.72 -0.46 -5 -1.54 -5 -2 c 0 -0.46 3.3 -1.69 5 -2 c 5.4 -0.98 12.35 -2 17 -2 c 0.98 0 1.97 1.61 3 2 c 1.46 0.55 3.33 0.89 5 1 c 3.27 0.22 7.67 -1.02 10 0 c 2.14 0.94 4.06 6.03 6 7 c 1.28 0.64 4.17 -0.39 6 -1 c 2.02 -0.67 3.98 -2.27 6 -3 c 1.54 -0.56 3.55 -1.27 5 -1 c 3.33 0.62 7.34 3.37 11 4 c 5.64 0.97 12.21 1.35 18 1 c 4.91 -0.3 9.99 -1.71 15 -3 l 16 -5"/></svg>