<?xml version="1.0" encoding="UTF-8" standalone="no"?><!DOCTYPE svg PUBLIC "-//W3C//DTD SVG 1.1//EN" "http://www.w3.org/Graphics/SVG/1.1/DTD/svg11.dtd"><svg xmlns="http://www.w3.org/2000/svg" version="1.1" width="510" height="158"><path stroke-linejoin="round" stroke-linecap="round" stroke-width="2" stroke="rgb(52, 58, 64)" fill="none" d="M 272 1 l 1 1"/><path stroke-linejoin="round" stroke-linecap="round" stroke-width="2" stroke="rgb(52, 58, 64)" fill="none" d="M 74 48 l 1 1"/><path stroke-linejoin="round" stroke-linecap="round" stroke-width="2" stroke="rgb(52, 58, 64)" fill="none" d="M 35 107 l 1 1"/><path stroke-linejoin="round" stroke-linecap="round" stroke-width="2" stroke="rgb(52, 58, 64)" fill="none" d="M 1 157 c 0.02 -0.17 0.25 -6.78 1 -10 c 1.56 -6.68 3.24 -13.63 6 -20 c 8.23 -18.96 15.79 -40.71 27 -56 c 9.33 -12.72 25.77 -23.02 39 -34 c 2.41 -2 5.2 -3.88 8 -5 c 5.26 -2.1 11.28 -3.63 17 -5 c 2.6 -0.62 5.71 -1.19 8 -1 c 1.27 0.11 3.55 1.09 4 2 c 0.61 1.22 0.43 4.18 0 6 c -0.83 3.55 -2.37 7.45 -4 11 c -2.05 4.48 -4.18 9.05 -7 13 c -5.43 7.6 -11.81 15.32 -18 22 l -7 5"/><path stroke-linejoin="round" stroke-linecap="round" stroke-width="2" stroke="rgb(52, 58, 64)" fill="none" d="M 78 127 c 0.14 -0.05 5.32 -2.33 8 -3 c 2.53 -0.63 6.21 0.28 8 -1 c 4.23 -3.02 8.37 -9.37 13 -14 c 5.65 -5.65 11.75 -10.25 17 -16 c 5.45 -5.96 10.08 -12.37 15 -19 c 2.93 -3.95 5.33 -7.81 8 -12 c 2.16 -3.39 4.6 -6.58 6 -10 c 1.49 -3.63 3 -12 3 -12"/><path stroke-linejoin="round" stroke-linecap="round" stroke-width="2" stroke="rgb(52, 58, 64)" fill="none" d="M 111 113 l 1 1"/><path stroke-linejoin="round" stroke-linecap="round" stroke-width="2" stroke="rgb(52, 58, 64)" fill="none" d="M 132 109 c 0.09 0.03 3.51 2 5 2 c 2.01 0 5.01 -1 7 -2 c 1.75 -0.88 3.19 -2.88 5 -4 c 5.18 -3.21 11.26 -5.38 16 -9 c 7.68 -5.86 15.23 -13.01 22 -20 c 3.1 -3.2 5.83 -7.16 8 -11 c 2.07 -3.67 3.66 -7.85 5 -12 c 2.36 -7.28 6.07 -21.24 6 -22 c -0.04 -0.43 -4.86 7.14 -7 11 c -2.94 5.29 -4.95 10.76 -8 16 c -5.44 9.35 -11.94 17.73 -17 27 c -2.91 5.34 -7 17 -7 17"/><path stroke-linejoin="round" stroke-linecap="round" stroke-width="2" stroke="rgb(52, 58, 64)" fill="none" d="M 208 80 c 0.12 0.02 5.35 0.1 7 1 c 1.5 0.82 3.4 3.35 4 5 c 0.56 1.55 0.6 4.25 0 6 c -3.75 10.97 -8.57 24.15 -14 35 c -2.68 5.36 -7.02 10.42 -11 15 c -2.58 2.97 -5.85 5.64 -9 8 c -2.11 1.58 -5.21 3.64 -7 4 c -0.8 0.16 -3.06 -1.28 -3 -2 c 0.18 -2.35 2.31 -7.5 4 -11 c 2.98 -6.16 6.33 -11.99 10 -18 c 4.89 -8.02 9.53 -15.41 15 -23 c 6.81 -9.46 13.2 -20.05 21 -27 c 6.54 -5.82 16.97 -10.11 25 -14 l 6 -1"/><path stroke-linejoin="round" stroke-linecap="round" stroke-width="2" stroke="rgb(52, 58, 64)" fill="none" d="M 201 51 l 1 1"/><path stroke-linejoin="round" stroke-linecap="round" stroke-width="2" stroke="rgb(52, 58, 64)" fill="none" d="M 171 77 l 1 1"/><path stroke-linejoin="round" stroke-linecap="round" stroke-width="2" stroke="rgb(52, 58, 64)" fill="none" d="M 336 14 c -0.05 0.04 -2.36 1.1 -3 2 c -8.28 11.71 -17.64 25.3 -26 39 c -11.51 18.84 -22.4 36.8 -32 56 c -5.42 10.84 -13 34 -13 34"/><path stroke-linejoin="round" stroke-linecap="round" stroke-width="2" stroke="rgb(52, 58, 64)" fill="none" d="M 369 20 c -0.07 0.03 -2.99 1.04 -4 2 c -6.21 5.94 -12.27 13.27 -19 20 c -8.1 8.1 -15.58 15.04 -24 23 c -10.75 10.17 -20.4 19.73 -31 29 c -2.7 2.36 -6.34 3.65 -9 6 c -5.91 5.22 -17.46 15.85 -17 17 c 0.42 1.06 14.04 -4.29 21 -7 c 5.2 -2.02 9.82 -5.19 15 -7 c 8.13 -2.85 16.39 -4.89 25 -7 c 6.77 -1.65 13.19 -3.41 20 -4 c 35.82 -3.1 70.28 -5.42 107 -7 c 19.17 -0.82 56 0 56 0"/></svg>