<?xml version="1.0" encoding="UTF-8" standalone="no"?><!DOCTYPE svg PUBLIC "-//W3C//DTD SVG 1.1//EN" "http://www.w3.org/Graphics/SVG/1.1/DTD/svg11.dtd"><svg xmlns="http://www.w3.org/2000/svg" version="1.1" width="266" height="112"><path stroke-linejoin="round" stroke-linecap="round" stroke-width="2" stroke="rgb(52, 58, 64)" fill="none" d="M 1 52 l 1 1"/><path stroke-linejoin="round" stroke-linecap="round" stroke-width="2" stroke="rgb(52, 58, 64)" fill="none" d="M 30 30 l 1 1"/><path stroke-linejoin="round" stroke-linecap="round" stroke-width="2" stroke="rgb(52, 58, 64)" fill="none" d="M 33 72 c 0.26 -0.23 10.51 -8.51 15 -13 c 1.63 -1.63 3.19 -3.9 4 -6 c 1.4 -3.59 2.36 -7.92 3 -12 c 1.04 -6.63 1.79 -13.38 2 -20 c 0.12 -3.97 -0.18 -8.49 -1 -12 c -0.4 -1.7 -1.95 -4.4 -3 -5 c -0.74 -0.43 -3.47 0.21 -4 1 c -1.05 1.58 -2.34 5.73 -2 8 c 0.54 3.58 5 12 5 12"/><path stroke-linejoin="round" stroke-linecap="round" stroke-width="2" stroke="rgb(52, 58, 64)" fill="none" d="M 74 78 c -0.33 -0.02 -12.86 -0.29 -19 -1 c -2.35 -0.27 -7 -2 -7 -2"/><path stroke-linejoin="round" stroke-linecap="round" stroke-width="2" stroke="rgb(52, 58, 64)" fill="none" d="M 90 1 c -0.03 1.14 -2 43.49 -2 65 c 0 4.68 1.15 13.15 2 14 c 0.52 0.52 4.23 -4.53 5 -7 c 1.99 -6.43 2.13 -15.45 4 -22 c 0.6 -2.11 2.99 -5.57 4 -6 c 0.6 -0.26 2.42 1.83 3 3 c 3.46 6.91 7.59 19.78 10 23 c 0.56 0.75 3.91 -1.69 5 -3 c 1.92 -2.31 3.27 -8.51 5 -9 c 1.73 -0.49 6.42 4.86 9 5 c 2.7 0.14 7.07 -2.24 10 -4 c 3.48 -2.09 7.64 -4.9 10 -8 c 3.54 -4.66 6.41 -11.13 9 -17 c 2.43 -5.5 6 -17.36 6 -17 c 0 0.75 -4.2 24.16 -6 37 c -2.7 19.34 -7 55.01 -7 56 c 0 0.54 4.34 -19.77 7 -30 c 1.8 -6.93 3.62 -13.33 6 -20 c 2.71 -7.59 5.94 -16.36 9 -22 c 0.57 -1.06 2.69 -1.74 4 -2 l 6 0"/><path stroke-linejoin="round" stroke-linecap="round" stroke-width="2" stroke="rgb(52, 58, 64)" fill="none" d="M 196 87 c 0.07 -0.05 2.88 -1.81 4 -3 c 4.12 -4.37 7.8 -9.56 12 -14 c 1.78 -1.88 4.08 -4.41 6 -5 c 1.74 -0.53 5.19 0.09 7 1 c 2.37 1.18 4.55 4.31 7 6 c 1.78 1.23 4.06 2.81 6 3 c 4.06 0.41 10.18 0.42 14 -1 c 4.31 -1.6 13 -9 13 -9"/></svg>