<?xml version="1.0" encoding="UTF-8" standalone="no"?><!DOCTYPE svg PUBLIC "-//W3C//DTD SVG 1.1//EN" "http://www.w3.org/Graphics/SVG/1.1/DTD/svg11.dtd"><svg xmlns="http://www.w3.org/2000/svg" version="1.1" width="498" height="117"><path stroke-linejoin="round" stroke-linecap="round" stroke-width="2" stroke="rgb(52, 58, 64)" fill="none" d="M 10 1 c -0.03 0.07 -1.71 2.65 -2 4 c -0.65 3.04 -0.83 6.56 -1 10 c -0.86 17.84 -0.9 34.1 -2 52 c -0.97 15.88 -4 46 -4 46"/><path stroke-linejoin="round" stroke-linecap="round" stroke-width="2" stroke="rgb(52, 58, 64)" fill="none" d="M 72 3 c -0.23 0.35 -8.07 13.96 -13 20 c -5.26 6.44 -11.62 12.15 -18 18 c -5.87 5.38 -11.8 10.41 -18 15 c -2.72 2.02 -6.33 3.09 -9 5 c -1.84 1.31 -3.25 3.64 -5 5 c -1.11 0.86 -4 2.09 -4 2 c 0 -0.1 3.19 -3.54 4 -3 c 4.45 2.96 12.95 13.48 20 19 c 5.04 3.95 11.28 7.99 17 10 c 5.86 2.06 14.07 3 20 3 c 2.51 0 5.5 -1.75 8 -3 c 2.77 -1.38 5.59 -3.11 8 -5 c 2.17 -1.7 4.52 -3.74 6 -6 c 3.98 -6.09 10.14 -15.88 11 -20 c 0.27 -1.3 -4.59 -3.84 -6 -4 c -0.83 -0.09 -2.49 1.84 -3 3 c -1.92 4.31 -3.99 10.14 -5 15 c -0.58 2.77 -0.37 6.2 0 9 c 0.26 1.97 1.15 4.13 2 6 c 0.79 1.73 1.75 4.03 3 5 c 1.35 1.05 4.11 1.86 6 2 c 2.41 0.17 5.55 -0.28 8 -1 c 3 -0.88 6.35 -2.34 9 -4 c 2.48 -1.55 4.81 -3.81 7 -6 c 3.19 -3.19 6.28 -6.42 9 -10 c 3.64 -4.79 7.01 -9.82 10 -15 c 2 -3.47 3.56 -7.22 5 -11 c 1.24 -3.27 2.48 -6.65 3 -10 c 0.79 -5.14 1.23 -11.33 1 -16 c -0.07 -1.3 -1.22 -3.9 -2 -4 c -1.16 -0.15 -4.79 1.57 -6 3 c -2.01 2.38 -4.25 6.6 -5 10 c -1.77 7.95 -3.57 18.38 -3 26 c 0.33 4.44 3.61 9.82 6 14 c 1.45 2.53 3.81 5.14 6 7 c 1.92 1.62 4.82 3.53 7 4 c 1.91 0.41 4.74 -0.43 7 -1 c 3.04 -0.76 6.41 -1.56 9 -3 c 3.11 -1.73 6.4 -4.4 9 -7 c 2.6 -2.6 5.22 -5.77 7 -9 c 3.43 -6.21 6.55 -13.31 9 -20 c 1.14 -3.11 2 -7.18 2 -10 c 0 -1.24 -1.11 -3.7 -2 -4 c -1.41 -0.47 -5.57 -0.07 -7 1 c -1.91 1.43 -4.04 5.24 -5 8 c -1.56 4.48 -3.15 10.43 -3 15 c 0.15 4.64 2.25 10.62 4 15 c 0.72 1.81 2.5 3.95 4 5 c 1.48 1.04 4.04 1.93 6 2 c 7.43 0.25 16.15 -1.22 24 -1 c 3.98 0.11 8.58 0.74 12 2 c 2.42 0.89 5.09 3.09 7 5 c 1.91 1.91 3.88 4.6 5 7 c 1.07 2.3 1.67 5.36 2 8 c 0.32 2.56 0.52 5.74 0 8 c -0.38 1.65 -1.8 3.65 -3 5 c -1.32 1.49 -3.64 4.1 -5 4 c -2 -0.15 -6.48 -3.02 -8 -5 c -1.33 -1.73 -1.84 -5.34 -2 -8 c -0.49 -8.05 -1.01 -17.06 0 -25 c 0.93 -7.25 3.08 -15.29 6 -22 c 3.55 -8.17 8.99 -16.36 14 -24 c 1.92 -2.92 4.39 -6.35 7 -8 c 3.11 -1.97 8.79 -3.81 12 -4 c 1.48 -0.09 3.75 1.75 5 3 c 1.85 1.85 3.63 4.53 5 7 c 1.93 3.47 4.5 7.34 5 11 c 1.36 10 -0.26 33.29 1 33 c 1.45 -0.33 7.54 -25.59 12 -36 c 1 -2.33 4.21 -5.11 6 -6 c 0.87 -0.43 3.41 0.18 4 1 c 1.55 2.13 3.46 6.64 4 10 c 1.37 8.44 0.94 18.77 2 27 c 0.18 1.36 1.16 3.64 2 4 c 0.96 0.41 4.07 -0.21 5 -1 c 0.98 -0.84 1.06 -3.55 2 -5 c 2.61 -4.04 6.86 -10.93 9 -12 c 1.01 -0.5 3.9 3.13 5 5 c 2.02 3.43 3.13 8.25 5 12 c 0.72 1.44 1.87 2.87 3 4 c 1.13 1.13 2.71 2.77 4 3 c 1.83 0.33 4.97 -0.39 7 -1 c 1.04 -0.31 2.33 -1.19 3 -2 c 0.84 -1 1.16 -3 2 -4 c 0.67 -0.81 2.34 -2.35 3 -2 c 2.85 1.52 8.19 8.1 12 10 c 1.95 0.98 5.32 0.17 8 0 c 2.7 -0.17 5.66 -0.18 8 -1 c 2.98 -1.05 6.25 -3.06 9 -5 c 2.83 -2 5.79 -4.45 8 -7 c 1.96 -2.26 3.83 -5.18 5 -8 c 2.74 -6.62 5.51 -14.21 7 -21 c 0.74 -3.38 0.32 -7.37 0 -11 c -0.35 -4.02 -0.8 -9.01 -2 -12 c -0.49 -1.23 -2.87 -3 -4 -3 c -1.52 0 -4.43 1.69 -6 3 c -2.16 1.8 -4.47 4.49 -6 7 c -2.01 3.28 -4.26 7.31 -5 11 c -1.47 7.36 -1.77 16.06 -2 24 c -0.1 3.31 0.27 6.91 1 10 c 0.55 2.34 1.61 5.19 3 7 c 1.68 2.19 4.7 5.54 7 6 c 3.28 0.66 9.3 -0.71 13 -2 c 2.42 -0.85 4.96 -3.07 7 -5 c 3.87 -3.65 7.21 -8.21 11 -12 c 1.16 -1.16 3.63 -3.37 4 -3 c 0.51 0.51 0.34 4.75 0 7 c -0.64 4.28 -3.18 9.55 -3 13 c 0.1 1.87 2.57 5.28 4 6 c 1.21 0.6 4.42 -0.09 6 -1 c 6.35 -3.66 13.19 -9.77 20 -14 c 2.75 -1.71 5.92 -3.1 9 -4 c 4.78 -1.39 11 -3.62 15 -3 c 3.41 0.53 9.13 4.35 11 7 c 1.44 2.05 1.21 7.12 1 10 c -0.09 1.28 -1.14 2.83 -2 4 c -2.73 3.73 -5.67 7.83 -9 11 c -3.51 3.34 -7.97 6.99 -12 9 c -2.74 1.37 -6.75 1.85 -10 2 c -3.83 0.17 -8.09 -0.32 -12 -1 c -3.7 -0.64 -7.42 -1.75 -11 -3 l -9 -4"/><path stroke-linejoin="round" stroke-linecap="round" stroke-width="2" stroke="rgb(52, 58, 64)" fill="none" d="M 361 34 l 1 1"/></svg>