<?xml version="1.0" encoding="UTF-8" standalone="no"?><!DOCTYPE svg PUBLIC "-//W3C//DTD SVG 1.1//EN" "http://www.w3.org/Graphics/SVG/1.1/DTD/svg11.dtd"><svg xmlns="http://www.w3.org/2000/svg" version="1.1" width="661" height="123"><path stroke-linejoin="round" stroke-linecap="round" stroke-width="2" stroke="rgb(52, 58, 64)" fill="none" d="M 73 23 l 1 1"/><path stroke-linejoin="round" stroke-linecap="round" stroke-width="2" stroke="rgb(52, 58, 64)" fill="none" d="M 9 49 c -0.07 0.11 -2.95 3.91 -4 6 c -1.24 2.48 -2.33 5.32 -3 8 c -0.63 2.53 -1 8 -1 8"/><path stroke-linejoin="round" stroke-linecap="round" stroke-width="2" stroke="rgb(52, 58, 64)" fill="none" d="M 53 83 c 0.07 -0.17 3.2 -6.79 4 -10 c 0.45 -1.79 -0.23 -4.03 0 -6 c 0.43 -3.66 1.82 -11.36 2 -11 c 0.34 0.68 1.26 14.39 3 21 c 1.51 5.73 3.64 16.29 7 17 c 5.91 1.24 21.47 -5.19 31 -9 c 4.91 -1.96 10.56 -5.24 14 -9 c 6.53 -7.14 12.64 -17.32 18 -26 c 1.45 -2.34 2.01 -5.22 3 -8 c 0.74 -2.06 2.09 -4.16 2 -6 c -0.21 -4.16 -1.97 -14.1 -3 -14 c -1.19 0.12 -5.44 9.99 -7 15 c -1.33 4.28 -1.73 9.28 -2 14 c -0.4 7.01 -0.68 14.63 0 21 c 0.25 2.31 1.68 5.18 3 7 c 1.11 1.53 3.2 3.2 5 4 c 3.83 1.7 8.88 3.46 13 4 c 3.05 0.4 7.42 0.29 10 -1 c 4.57 -2.28 10.55 -10.71 14 -11 c 2.6 -0.22 6.95 8.31 10 9 l 12 -4"/><path stroke-linejoin="round" stroke-linecap="round" stroke-width="2" stroke="rgb(52, 58, 64)" fill="none" d="M 222 55 c -0.07 0.03 -3.28 1.01 -4 2 c -1.58 2.18 -2.92 5.98 -4 9 c -0.56 1.56 -1.38 3.67 -1 5 c 0.77 2.69 2.91 7.21 5 9 c 1.93 1.65 6.04 2.69 9 3 c 6.25 0.65 14.55 1.49 20 0 c 4.31 -1.18 13 -9 13 -9"/><path stroke-linejoin="round" stroke-linecap="round" stroke-width="2" stroke="rgb(52, 58, 64)" fill="none" d="M 214 76 l 1 1"/><path stroke-linejoin="round" stroke-linecap="round" stroke-width="2" stroke="rgb(52, 58, 64)" fill="none" d="M 194 46 l 1 1"/><path stroke-linejoin="round" stroke-linecap="round" stroke-width="2" stroke="rgb(52, 58, 64)" fill="none" d="M 424 96 c -0.16 -0.03 -6.06 -1.88 -9 -2 c -5.1 -0.2 -10.96 1.79 -16 1 c -15.47 -2.42 -32.55 -6.36 -48 -11 c -7.58 -2.27 -14.73 -6.27 -22 -10 c -5.94 -3.04 -11.74 -6.12 -17 -10 c -8.71 -6.43 -16.96 -13.74 -25 -21 c -2.27 -2.05 -4.52 -4.54 -6 -7 c -1.37 -2.28 -3.55 -5.97 -3 -8 c 1.08 -3.96 5.73 -9.51 9 -14 c 2.09 -2.87 4.5 -5.5 7 -8 c 1.84 -1.84 4.27 -4.53 6 -5 c 1.2 -0.33 4.06 0.94 5 2 c 1.33 1.49 2.73 4.69 3 7 c 0.66 5.75 0.5 12.7 0 19 c -0.5 6.38 -1.11 12.99 -3 19 c -5.35 17.02 -12.2 34.41 -19 51 c -1.46 3.56 -4.28 6.56 -6 10 c -1.26 2.52 -1.78 5.57 -3 8 c -0.71 1.42 -3.08 4.07 -3 4 c 0.47 -0.39 13.62 -12.82 21 -19 c 5.21 -4.36 10.39 -8.14 16 -12 c 5.29 -3.64 10.39 -6.91 16 -10 c 7.98 -4.39 16.24 -8.85 24 -12 c 2.33 -0.95 5.49 -1.15 8 -1 c 2.87 0.17 7.05 0.65 9 2 c 1.7 1.18 2.98 4.54 4 7 c 2.29 5.49 4.47 11.27 6 17 c 1.12 4.18 1.06 11.79 2 13 c 0.46 0.59 3.68 -2.51 5 -4 c 1.2 -1.35 2.28 -3.24 3 -5 c 1.57 -3.81 2.25 -8.18 4 -12 c 3.58 -7.84 7.67 -15.78 12 -23 c 1.54 -2.57 3.75 -4.98 6 -7 c 4.34 -3.91 9.35 -8.25 14 -11 c 2.15 -1.27 5.36 -1.65 8 -2 c 2.24 -0.3 4.97 -0.47 7 0 c 1.95 0.45 4.3 1.76 6 3 c 1.8 1.31 3.82 3.16 5 5 c 1.65 2.56 2.92 5.93 4 9 l 2 8"/><path stroke-linejoin="round" stroke-linecap="round" stroke-width="2" stroke="rgb(52, 58, 64)" fill="none" d="M 459 95 c -0.07 -0.14 -2.92 -5.19 -4 -8 c -3.97 -10.33 -6.87 -20.47 -11 -31 c -5.85 -14.92 -12.72 -28.76 -18 -43 c -1.27 -3.42 -2 -11 -2 -11"/><path stroke-linejoin="round" stroke-linecap="round" stroke-width="2" stroke="rgb(52, 58, 64)" fill="none" d="M 405 14 c 0.02 0.16 0.02 6.43 1 9 c 1.5 3.94 4.08 8.94 7 12 c 3.91 4.09 9.68 8.22 15 11 c 8.33 4.36 17.72 8.1 27 11 c 12.12 3.79 24.36 6.7 37 9 c 13.38 2.43 26.24 2.98 40 5 c 12.12 1.78 23.86 2.98 35 6 c 8.15 2.21 16.43 5.86 24 10 c 13.73 7.51 26.33 17.19 40 25 c 5.06 2.89 10.56 5.13 16 7 c 4.15 1.43 13 3 13 3"/></svg>