<?xml version="1.0" encoding="UTF-8" standalone="no"?><!DOCTYPE svg PUBLIC "-//W3C//DTD SVG 1.1//EN" "http://www.w3.org/Graphics/SVG/1.1/DTD/svg11.dtd"><svg xmlns="http://www.w3.org/2000/svg" version="1.1" width="606" height="86"><path stroke-linejoin="round" stroke-linecap="round" stroke-width="2" stroke="rgb(52, 58, 64)" fill="none" d="M 63 40 c -0.07 -0.05 -2.85 -1.85 -4 -3 c -2.12 -2.12 -4.43 -4.43 -6 -7 c -4.65 -7.59 -8.5 -16.59 -13 -24 c -0.93 -1.54 -2.61 -3.13 -4 -4 c -1.01 -0.63 -2.76 -1 -4 -1 c -1.53 0 -3.6 0.38 -5 1 c -1.37 0.61 -2.98 1.8 -4 3 c -2.48 2.93 -5.45 6.71 -7 10 c -0.9 1.91 -1.1 4.74 -1 7 c 0.22 5.16 0.16 11.85 2 16 c 1.7 3.83 6.63 8.08 10 11 c 1.22 1.06 3.37 1.73 5 2 c 2.12 0.35 4.83 0.33 7 0 c 1.96 -0.3 4.72 -0.84 6 -2 c 1.91 -1.73 3.44 -6.78 5 -8 c 0.68 -0.53 3.2 0.33 4 1 c 0.87 0.73 1.13 2.84 2 4 c 3.04 4.05 10.12 10.95 10 12 c -0.09 0.77 -7.52 -1.64 -11 -3 c -4.1 -1.6 -7.88 -4.47 -12 -6 c -4.77 -1.77 -10.1 -3.11 -15 -4 c -2.21 -0.4 -4.79 -0.32 -7 0 c -2.3 0.33 -4.84 1.1 -7 2 c -1.73 0.72 -3.64 1.77 -5 3 c -2.14 1.95 -4.62 4.58 -6 7 c -1.09 1.91 -2 4.82 -2 7 c 0 3.34 0.84 7.91 2 11 c 0.66 1.77 2.51 3.68 4 5 c 1.35 1.2 3.28 2.43 5 3 l 10 2"/><path stroke-linejoin="round" stroke-linecap="round" stroke-width="2" stroke="rgb(52, 58, 64)" fill="none" d="M 78 30 c -0.02 0.28 -1 10.94 -1 16 c 0 1.3 0.27 3.17 1 4 c 1.27 1.45 4.23 3.71 6 4 c 1.55 0.26 4.74 -0.86 6 -2 c 1.61 -1.45 4 -6.47 4 -7 c 0 -0.29 -3.88 1.39 -4 2 c -0.12 0.58 1.93 2.39 3 3 c 1.04 0.59 2.8 1.19 4 1 c 4.5 -0.71 10.51 -2.13 15 -4 c 3.13 -1.3 5.93 -4.25 9 -6 c 1.53 -0.87 3.37 -1.73 5 -2 c 2.12 -0.35 5.05 -0.39 7 0 c 1.01 0.2 2.46 1.2 3 2 c 0.61 0.92 1.27 3.07 1 4 c -0.27 0.96 -1.93 2.39 -3 3 c -1.04 0.59 -2.68 0.85 -4 1 c -1.6 0.18 -5.12 0.04 -5 0 c 0.32 -0.12 8.75 -1.71 13 -3 c 3.43 -1.04 6.52 -2.88 10 -4 c 8.07 -2.61 16.24 -5.25 24 -7 c 2.17 -0.49 5.4 -0.53 7 0 c 0.82 0.27 2 2.21 2 3 c 0 0.79 -1.22 2.22 -2 3 c -0.78 0.78 -1.92 1.54 -3 2 c -5.78 2.48 -16.96 6.36 -18 7 c -0.27 0.17 3.33 0.9 5 1 c 3.93 0.23 8.11 0.57 12 0 c 9.59 -1.4 22.97 -5.61 29 -6 c 0.91 -0.06 1.01 3.5 2 4 c 2.27 1.13 6.9 2 10 2 c 2.8 0 6.34 -0.9 9 -2 c 2.72 -1.12 7.86 -4.92 8 -5 c 0.05 -0.03 -3.07 2.13 -3 2 c 0.23 -0.45 6.29 -7.53 7 -10 c 0.29 -1.01 -1.84 -3.13 -3 -4 c -1.25 -0.93 -3.7 -1 -5 -2 c -2.73 -2.1 -6.06 -5.18 -8 -8 c -1.46 -2.13 -2.17 -7.88 -3 -8 l -4 7"/><path stroke-linejoin="round" stroke-linecap="round" stroke-width="2" stroke="rgb(52, 58, 64)" fill="none" d="M 294 14 c 0 0.61 0.71 23.66 0 35 c -0.27 4.32 -3 13 -3 13"/><path stroke-linejoin="round" stroke-linecap="round" stroke-width="2" stroke="rgb(52, 58, 64)" fill="none" d="M 330 8 c -0.38 0.32 -14.19 13.05 -22 18 c -9.21 5.85 -19.75 10.61 -30 15 c -6.09 2.61 -18.89 5.58 -19 6 c -0.1 0.38 12.07 -1.8 18 -2 c 3.62 -0.12 7.55 0.14 11 1 c 5.64 1.41 11.95 3.59 17 6 c 2.19 1.05 4.21 3.21 6 5 l 3 4"/><path stroke-linejoin="round" stroke-linecap="round" stroke-width="2" stroke="rgb(52, 58, 64)" fill="none" d="M 324 73 c 0.03 -0.1 0.98 -4.24 2 -6 c 3.83 -6.65 8.36 -13.37 13 -20 c 2.49 -3.56 5.27 -7.27 8 -10 c 0.95 -0.95 3.34 -2.33 4 -2 c 0.8 0.4 2.16 3.53 2 5 c -0.41 3.71 -3.37 8.99 -4 13 c -0.28 1.79 0.08 4.95 1 6 c 0.95 1.09 4.2 2.17 6 2 c 4.41 -0.42 10.15 -2.47 15 -4 c 1.4 -0.44 3 -1.16 4 -2 c 0.81 -0.67 2.1 -2.2 2 -3 c -0.16 -1.3 -1.59 -4.44 -3 -5 c -5.45 -2.18 -20.01 -4.11 -22 -5 c -0.44 -0.2 2.57 -2.34 4 -3 c 2.71 -1.25 5.93 -2.12 9 -3 c 1.65 -0.47 3.67 -1.17 5 -1 c 0.94 0.12 3.05 1.26 3 2 c -0.18 2.58 -3.29 8.09 -4 12 c -0.56 3.09 -0.47 6.86 0 10 c 0.49 3.28 1.4 7.6 3 10 c 1.32 1.98 4.95 4.53 7 5 c 1.51 0.35 4.35 -1.08 6 -2 c 1.11 -0.61 2.92 -1.99 3 -3 c 0.18 -2.19 -1 -6.4 -2 -9 c -0.54 -1.41 -1.78 -3.04 -3 -4 c -3.18 -2.5 -9.57 -6.74 -11 -7 c -0.55 -0.1 -0.81 4.35 0 5 c 1.69 1.35 6.73 2.46 10 3 c 2.51 0.42 5.5 0.5 8 0 c 5.53 -1.11 14.96 -6.27 17 -5 c 1.73 1.08 -1.54 12.12 -1 15 c 0.15 0.79 3.15 1.51 4 1 c 3.07 -1.84 7.18 -6.85 11 -10 c 1.86 -1.53 3.98 -3.16 6 -4 c 1.7 -0.71 4.62 -1.69 6 -1 c 3.55 1.78 7.83 8.19 12 10 c 4.87 2.11 12.47 2.5 18 3 c 1.25 0.11 3.08 -0.34 4 -1 c 1.11 -0.8 3.46 -3.19 3 -4 c -1.37 -2.39 -8.25 -6.79 -11 -10 c -0.76 -0.89 -1 -2.75 -1 -4 c 0 -1.85 0.04 -4.52 1 -6 c 2.91 -4.47 7.77 -9.55 12 -14 c 2.11 -2.23 4.48 -4.28 7 -6 c 4.79 -3.26 11.64 -7.88 15 -9 c 0.81 -0.27 3.08 1.97 3 3 c -0.69 9.14 -5.27 26.51 -6 37 c -0.13 1.88 1.77 4.42 3 6 c 0.92 1.18 2.68 3 4 3 c 5.84 0 19.63 -3.37 22 -3 c 0.72 0.11 -1.83 4.25 -3 6 c -0.74 1.11 -2.6 1.87 -3 3 c -1.06 2.97 -2.5 8.65 -2 11 c 0.26 1.23 3.58 3.17 5 3 c 3.17 -0.37 9.24 -3.03 12 -5 c 1.15 -0.82 2.15 -3.94 2 -5 c -0.1 -0.71 -3 -2 -3 -2 c 0 0 1.99 1.8 3 2 c 1.95 0.39 4.76 0.3 7 0 c 2.64 -0.35 5.34 -1.17 8 -2 c 2.75 -0.86 5.42 -1.77 8 -3 c 4.46 -2.13 8.76 -4.5 13 -7 c 1.44 -0.85 2.98 -1.8 4 -3 c 2.48 -2.93 6.84 -10.33 7 -10 c 0.2 0.4 -4.08 9.87 -5 14 c -0.25 1.15 0.2 3.52 1 4 c 1.79 1.08 6.13 2.09 9 2 c 7.21 -0.23 20.94 -3.1 23 -3 c 0.44 0.02 -1.83 3.41 -3 4 c -1.66 0.83 -4.64 0.93 -7 1 c -8.35 0.26 -16.53 0.58 -25 0 c -21.43 -1.46 -41.37 -3.44 -63 -6 c -16.24 -1.92 -31.23 -4.28 -47 -7 c -3.78 -0.65 -7.66 -1.6 -11 -3 c -2.76 -1.16 -7.75 -4.11 -8 -5 c -0.17 -0.6 4 -1.82 6 -2 c 8.88 -0.78 18.36 -0.35 28 -1 c 21.06 -1.42 39.82 -3.55 61 -5 l 56 -3"/></svg>