<?xml version="1.0" encoding="UTF-8" standalone="no"?><!DOCTYPE svg PUBLIC "-//W3C//DTD SVG 1.1//EN" "http://www.w3.org/Graphics/SVG/1.1/DTD/svg11.dtd"><svg xmlns="http://www.w3.org/2000/svg" version="1.1" width="250" height="67"><path stroke-linejoin="round" stroke-linecap="round" stroke-width="2" stroke="rgb(52, 58, 64)" fill="none" d="M 1 24 c 0.18 0 6.73 -0.38 10 0 c 5.33 0.61 10.55 2.43 16 3 c 10.72 1.12 20.96 1.71 32 2 c 28.23 0.74 54.01 1.44 82 1 c 15.74 -0.25 30.53 -1.33 46 -3 c 9.55 -1.03 18.42 -3.05 28 -5 c 7.27 -1.48 14.56 -2.66 21 -5 c 4.14 -1.51 9.23 -4.66 12 -7 c 0.82 -0.7 1.28 -3.17 1 -4 c -0.24 -0.73 -1.94 -1.79 -3 -2 c -6.52 -1.3 -14.57 -2.69 -22 -3 c -17.07 -0.7 -35.44 -1.23 -51 0 c -3.97 0.31 -9.46 2.36 -12 5 c -5.1 5.3 -10.09 14.65 -14 22 c -1.56 2.94 -1.72 6.79 -3 10 c -1.37 3.43 -3.12 6.75 -5 10 c -1.82 3.15 -3.62 6.62 -6 9 c -2.99 2.99 -7.36 6.44 -11 8 c -2.69 1.15 -6.6 0.91 -10 1 c -9.15 0.25 -18.15 0.95 -27 0 c -12.67 -1.36 -26.06 -4.01 -38 -7 c -3.46 -0.86 -10.66 -4.91 -10 -5 c 5.91 -0.79 65.4 -5.27 100 -7 c 34.53 -1.73 100 -3 100 -3"/></svg>