<?xml version="1.0" encoding="UTF-8" standalone="no"?><!DOCTYPE svg PUBLIC "-//W3C//DTD SVG 1.1//EN" "http://www.w3.org/Graphics/SVG/1.1/DTD/svg11.dtd"><svg xmlns="http://www.w3.org/2000/svg" version="1.1" width="368" height="83"><path stroke-linejoin="round" stroke-linecap="round" stroke-width="2" stroke="rgb(52, 58, 64)" fill="none" d="M 46 66 c -0.35 0.02 -13.21 0.35 -20 1 c -7.53 0.72 -16.02 2.76 -22 3 c -0.97 0.04 -3.08 -1.37 -3 -2 c 0.16 -1.25 2.38 -4.31 4 -6 c 5.23 -5.48 10.89 -11.11 17 -16 c 9 -7.2 18.16 -14.07 28 -20 c 11.25 -6.79 23.17 -13.71 35 -18 c 10.43 -3.78 22.71 -5.75 34 -7 c 9.44 -1.05 19.43 -0.74 29 0 c 7.7 0.59 15.77 1.88 23 4 c 6.1 1.78 12.78 4.69 18 8 c 4.32 2.73 8.53 7.12 12 11 c 2.01 2.25 4.18 5.2 5 8 c 2.31 7.85 2.28 18.2 5 26 c 2.03 5.81 6.05 12.88 10 17 c 2.96 3.08 8.72 6.21 13 7 c 7.25 1.34 16.66 0.84 25 0 c 28.28 -2.85 57.41 -8.87 84 -11 c 5.11 -0.41 10.78 1.69 16 3 l 8 3"/></svg>