<?xml version="1.0" encoding="UTF-8" standalone="no"?><!DOCTYPE svg PUBLIC "-//W3C//DTD SVG 1.1//EN" "http://www.w3.org/Graphics/SVG/1.1/DTD/svg11.dtd"><svg xmlns="http://www.w3.org/2000/svg" version="1.1" width="354" height="97"><path stroke-linejoin="round" stroke-linecap="round" stroke-width="2" stroke="rgb(52, 58, 64)" fill="none" d="M 54 1 c -0.05 0.37 -0.75 14.76 -3 21 c -3.46 9.6 -9.44 20.32 -15 29 c -2.41 3.76 -6.67 7.96 -10 10 c -1.9 1.16 -5.72 1.48 -8 1 c -3.41 -0.72 -8.18 -2.89 -11 -5 c -2.01 -1.51 -4.06 -4.65 -5 -7 c -0.88 -2.21 -1.17 -5.59 -1 -8 c 0.14 -1.89 0.9 -4.9 2 -6 c 1.1 -1.1 4.16 -1.83 6 -2 c 1.48 -0.13 3.73 0.22 5 1 c 2.64 1.63 5.46 4.46 8 7 c 3.55 3.55 6.42 8.44 10 11 c 2.82 2.01 7.46 3.61 11 4 c 4.85 0.54 16 -1 16 -1"/><path stroke-linejoin="round" stroke-linecap="round" stroke-width="2" stroke="rgb(52, 58, 64)" fill="none" d="M 71 41 l 0 9"/><path stroke-linejoin="round" stroke-linecap="round" stroke-width="2" stroke="rgb(52, 58, 64)" fill="none" d="M 77 61 c 0.16 -0.19 5.94 -7.69 9 -11 c 0.78 -0.84 2.46 -2.22 3 -2 c 0.67 0.27 1.81 2.68 2 4 c 0.42 2.95 0.23 6.78 0 10 c -0.09 1.33 -1.15 4.12 -1 4 c 0.41 -0.34 4.33 -6.78 7 -9 c 2.93 -2.44 8.26 -5.45 11 -6 c 1.09 -0.22 3.29 1.86 4 3 c 0.73 1.16 0.78 5.15 1 5 c 0.32 -0.21 2 -4.81 2 -7 c 0 -3.66 -1.29 -11.53 -2 -12 l -4 8"/><path stroke-linejoin="round" stroke-linecap="round" stroke-width="2" stroke="rgb(52, 58, 64)" fill="none" d="M 92 68 c 0.23 -0.14 9.71 -4.71 13 -8 c 4.49 -4.49 8.8 -11.05 12 -17 c 3.66 -6.8 6.17 -14.45 9 -22 c 1.24 -3.32 3.03 -10.18 3 -10 c -0.08 0.51 -6 29 -6 29"/><path stroke-linejoin="round" stroke-linecap="round" stroke-width="2" stroke="rgb(52, 58, 64)" fill="none" d="M 128 57 c 0.1 -0.1 5.42 -6.65 6 -6 c 1.03 1.16 0.66 11.75 2 15 c 0.48 1.16 3.99 2.55 5 2 c 2.26 -1.22 5.26 -6.26 8 -9 c 0.82 -0.82 2.76 -2.32 3 -2 l 0 6"/><path stroke-linejoin="round" stroke-linecap="round" stroke-width="2" stroke="rgb(52, 58, 64)" fill="none" d="M 132 96 c 0 -0.14 -0.24 -5.34 0 -8 c 0.43 -4.71 0.89 -10.22 2 -14 c 0.33 -1.13 1.86 -2.2 3 -3 c 7.74 -5.44 16.05 -10.21 24 -16 c 8.43 -6.15 24 -19 24 -19"/><path stroke-linejoin="round" stroke-linecap="round" stroke-width="2" stroke="rgb(52, 58, 64)" fill="none" d="M 211 23 c 0.03 0.21 1.7 7.98 2 12 c 0.37 4.96 0 15 0 15"/><path stroke-linejoin="round" stroke-linecap="round" stroke-width="2" stroke="rgb(52, 58, 64)" fill="none" d="M 214 30 c 0.02 -0.16 0.25 -6.37 1 -9 c 0.48 -1.69 1.8 -3.65 3 -5 c 1.32 -1.49 3.35 -3.4 5 -4 c 1.55 -0.56 4.15 -0.37 6 0 c 2.92 0.58 6.77 1.26 9 3 c 5.99 4.66 14.48 12.32 18 18 c 1.52 2.45 0 11 0 11"/><path stroke-linejoin="round" stroke-linecap="round" stroke-width="2" stroke="rgb(52, 58, 64)" fill="none" d="M 237 52 c 0.11 -0.03 4.13 -2 6 -2 c 3.6 0 12 2 12 2"/><path stroke-linejoin="round" stroke-linecap="round" stroke-width="2" stroke="rgb(52, 58, 64)" fill="none" d="M 293 56 c 0.25 -0.09 9.39 -3.05 14 -5 c 4.16 -1.76 8.07 -3.69 12 -6 c 11.72 -6.88 34 -21 34 -21"/></svg>