<?xml version="1.0" encoding="UTF-8" standalone="no"?><!DOCTYPE svg PUBLIC "-//W3C//DTD SVG 1.1//EN" "http://www.w3.org/Graphics/SVG/1.1/DTD/svg11.dtd"><svg xmlns="http://www.w3.org/2000/svg" version="1.1" width="352" height="107"><path stroke-linejoin="round" stroke-linecap="round" stroke-width="2" stroke="rgb(52, 58, 64)" fill="none" d="M 272 1 l 1 1"/><path stroke-linejoin="round" stroke-linecap="round" stroke-width="2" stroke="rgb(52, 58, 64)" fill="none" d="M 214 43 l 1 1"/><path stroke-linejoin="round" stroke-linecap="round" stroke-width="2" stroke="rgb(52, 58, 64)" fill="none" d="M 3 93 c -0.04 -0.19 -2 -7.45 -2 -11 c 0 -5.75 2 -18 2 -18"/><path stroke-linejoin="round" stroke-linecap="round" stroke-width="2" stroke="rgb(52, 58, 64)" fill="none" d="M 89 88 l 1 1"/><path stroke-linejoin="round" stroke-linecap="round" stroke-width="2" stroke="rgb(52, 58, 64)" fill="none" d="M 39 90 l -2 -4"/><path stroke-linejoin="round" stroke-linecap="round" stroke-width="2" stroke="rgb(52, 58, 64)" fill="none" d="M 47 40 c 0.35 -0.09 13.31 -4.02 20 -5 c 6.82 -1 14.04 -1 21 -1 c 2.67 0 5.47 0.37 8 1 c 2.68 0.67 5.63 1.72 8 3 c 1.77 0.96 3.68 2.51 5 4 c 1.2 1.35 2.8 3.38 3 5 c 0.38 3.07 0.3 7.94 -1 11 c -3 7.07 -8.18 14.84 -13 22 c -5.66 8.4 -15.47 19.61 -18 24 c -0.3 0.53 2.23 2.26 3 2 c 2.97 -0.99 7.74 -5.14 12 -7 c 19.51 -8.52 59 -24 59 -24"/><path stroke-linejoin="round" stroke-linecap="round" stroke-width="2" stroke="rgb(52, 58, 64)" fill="none" d="M 201 65 l 1 1"/><path stroke-linejoin="round" stroke-linecap="round" stroke-width="2" stroke="rgb(52, 58, 64)" fill="none" d="M 250 90 c 0.07 -0.03 2.62 -1.58 4 -2 c 2.84 -0.87 6.03 -1.58 9 -2 c 1.61 -0.23 3.43 0.33 5 0 c 6.18 -1.29 12.41 -3.55 19 -5 c 13.68 -3.01 26.48 -4.83 40 -8 c 8.28 -1.94 24 -7 24 -7"/><path stroke-linejoin="round" stroke-linecap="round" stroke-width="2" stroke="rgb(52, 58, 64)" fill="none" d="M 316 77 c -0.21 0.09 -7.82 3.69 -12 5 c -13.02 4.08 -39 11 -39 11"/><path stroke-linejoin="round" stroke-linecap="round" stroke-width="2" stroke="rgb(52, 58, 64)" fill="none" d="M 192 91 l -6 -3"/></svg>