<?xml version="1.0" encoding="UTF-8" standalone="no"?><!DOCTYPE svg PUBLIC "-//W3C//DTD SVG 1.1//EN" "http://www.w3.org/Graphics/SVG/1.1/DTD/svg11.dtd"><svg xmlns="http://www.w3.org/2000/svg" version="1.1" width="300" height="155"><path stroke-linejoin="round" stroke-linecap="round" stroke-width="2" stroke="rgb(52, 58, 64)" fill="none" d="M 1 73 c 0.12 0 4.86 0.49 7 0 c 4.84 -1.1 10.26 -2.86 15 -5 c 5.5 -2.48 10.82 -5.67 16 -9 c 4.23 -2.72 8.86 -5.56 12 -9 c 3.48 -3.81 6.55 -9.32 9 -14 c 1.07 -2.05 1.66 -4.64 2 -7 c 0.65 -4.54 1 -9.46 1 -14 c 0 -1.97 -0.45 -4.15 -1 -6 c -0.41 -1.36 -1.16 -3 -2 -4 c -0.67 -0.81 -2.08 -1.87 -3 -2 c -1.05 -0.15 -2.98 0.32 -4 1 c -2.63 1.75 -6.27 4.3 -8 7 c -3.2 5.01 -5.89 11.81 -8 18 c -2.55 7.46 -4.49 15.14 -6 23 c -1.86 9.68 -3.06 19.01 -4 29 c -1.8 19.15 -3.19 37.29 -4 56 c -0.19 4.34 0.3 9.24 1 13 c 0.19 1.04 1.2 2.46 2 3 l 4 1"/><path stroke-linejoin="round" stroke-linecap="round" stroke-width="2" stroke="rgb(52, 58, 64)" fill="none" d="M 118 28 c -0.1 -0.21 -3.88 -8.7 -6 -12 c -0.57 -0.89 -2.08 -1.87 -3 -2 c -1.05 -0.15 -2.85 0.43 -4 1 c -2.01 1.01 -4.55 2.31 -6 4 c -4.18 4.88 -8.7 11.1 -12 17 c -2.92 5.22 -5.67 11.28 -7 17 c -1.89 8.14 -3.48 17.88 -3 26 c 0.47 7.98 3.76 19.71 6 25 c 0.44 1.05 3.55 1.14 5 1 c 1.53 -0.15 3.6 -1.06 5 -2 c 2.4 -1.6 4.91 -3.75 7 -6 c 6.26 -6.76 13 -13.4 18 -21 c 10.19 -15.51 24.57 -43.86 28 -49 c 0.27 -0.41 1.78 2.68 2 4 c 0.39 2.35 0.24 5.32 0 8 c -0.77 8.44 -1.41 16.72 -3 25 c -1.76 9.18 -3.94 18.36 -7 27 c -2.55 7.21 -9.33 20.06 -10 21 c -0.2 0.28 -0.77 -5.06 0 -7 c 3.18 -8.07 8.31 -17.22 13 -26 c 3.19 -5.96 6.22 -11.5 10 -17 c 7.39 -10.76 14.88 -21.25 23 -31 c 3.43 -4.11 7.74 -7.47 12 -11 c 5.61 -4.64 11.12 -9.51 17 -13 l 15 -6"/><path stroke-linejoin="round" stroke-linecap="round" stroke-width="2" stroke="rgb(52, 58, 64)" fill="none" d="M 196 57 c -0.07 0.02 -2.87 0.44 -4 1 c -1.37 0.68 -3 1.78 -4 3 c -3.45 4.19 -7.2 9.33 -10 14 c -1.03 1.72 -1.64 4.05 -2 6 c -0.28 1.55 -0.37 3.52 0 5 c 0.56 2.25 1.76 5.58 3 7 c 0.67 0.77 2.98 1.38 4 1 c 3.43 -1.29 8.89 -4.24 12 -7 c 2.42 -2.15 4.59 -5.83 6 -9 c 2.47 -5.55 3.77 -12.06 6 -18 c 0.79 -2.1 1.77 -4.59 3 -6 c 0.82 -0.94 2.9 -2.11 4 -2 c 1.65 0.16 4.8 1.8 6 3 c 0.74 0.74 1.21 2.82 1 4 c -0.68 3.88 -2.36 8.89 -4 13 c -0.97 2.44 -3.12 4.57 -4 7 c -1.7 4.69 -3.59 10.52 -4 15 c -0.19 2.1 0.98 5.64 2 7 c 0.58 0.77 2.87 1.27 4 1 c 3.82 -0.9 9.01 -2.92 13 -5 c 3.49 -1.82 6.73 -5.25 10 -7 c 1.37 -0.73 4.1 -1.73 5 -1 c 3.14 2.55 7.43 10.85 11 14 c 1.22 1.08 4.16 1.27 6 1 c 6.52 -0.97 14.13 -3.68 21 -5 c 1.59 -0.31 3.46 -0.33 5 0 c 2.91 0.62 6.68 1.65 9 3 c 1.22 0.71 2.39 2.63 3 4 c 0.62 1.4 1.14 3.55 1 5 c -0.15 1.53 -0.97 3.85 -2 5 c -1.65 1.83 -4.62 4.25 -7 5 c -3.33 1.05 -8.09 1 -12 1 c -2.3 0 -4.77 -0.41 -7 -1 l -8 -3"/><path stroke-linejoin="round" stroke-linecap="round" stroke-width="2" stroke="rgb(52, 58, 64)" fill="none" d="M 245 70 l 1 1"/></svg>