<?xml version="1.0" encoding="UTF-8" standalone="no"?><!DOCTYPE svg PUBLIC "-//W3C//DTD SVG 1.1//EN" "http://www.w3.org/Graphics/SVG/1.1/DTD/svg11.dtd"><svg xmlns="http://www.w3.org/2000/svg" version="1.1" width="570" height="124"><path stroke-linejoin="round" stroke-linecap="round" stroke-width="2" stroke="rgb(52, 58, 64)" fill="none" d="M 26 111 l 1 1"/><path stroke-linejoin="round" stroke-linecap="round" stroke-width="2" stroke="rgb(52, 58, 64)" fill="none" d="M 24 116 c 0 -0.23 0.72 -8.98 0 -13 c -0.87 -4.89 -3.55 -9.78 -5 -15 c -4.37 -15.69 -8.38 -30.3 -12 -46 c -1.47 -6.35 -1.73 -12.63 -3 -19 c -0.76 -3.78 -2.84 -7.58 -3 -11 c -0.15 -3.35 0.98 -10.36 2 -11 c 0.77 -0.48 4.21 3.82 6 6 c 2.88 3.49 5.52 7.11 8 11 c 4.66 7.32 8.92 14.31 13 22 c 4.78 9.01 9.01 17.64 13 27 c 3.83 8.99 7.06 17.77 10 27 c 1.78 5.6 3.6 11.78 4 17 c 0.21 2.76 -1.1 6.3 -2 9 c -0.35 1.06 -1.21 2.94 -2 3 c -2.46 0.19 -7.36 -1.06 -11 -2 c -5.46 -1.41 -10.99 -3.16 -16 -5 c -1.08 -0.4 -3.16 -2.02 -3 -2 c 1.6 0.24 24.09 5.15 36 7 c 2.92 0.45 6.15 0.36 9 0 c 2.3 -0.29 4.76 -1.14 7 -2 c 2.06 -0.79 5.33 -1.42 6 -3 c 3.1 -7.31 5.48 -24.19 8 -30 c 0.41 -0.94 3.81 -0.67 5 0 c 3.39 1.91 7.16 6.31 11 9 c 2.78 1.95 5.86 3.56 9 5 c 4.93 2.26 10.22 4.63 15 6 c 1.77 0.51 4.66 0.67 6 0 c 1.43 -0.72 2.34 -4.06 4 -5 c 7.43 -4.21 17.53 -7.64 26 -12 c 3.2 -1.65 6.62 -3.62 9 -6 c 2.99 -2.99 6.57 -7.1 8 -11 c 3.23 -8.84 4.72 -19.63 7 -30 c 0.83 -3.76 1.57 -7.34 2 -11 c 0.23 -1.97 -0.39 -6 0 -6 c 0.47 0 3.07 3.87 4 6 c 2.32 5.33 3.67 11.32 6 17 c 3.12 7.61 6.46 14.36 10 22 c 3.08 6.64 5.72 12.67 9 19 c 1.82 3.51 4.46 6.57 6 10 c 1.38 3.07 1.53 9.55 3 10 c 1.64 0.51 6.45 -4.29 10 -6 c 15.37 -7.41 31.62 -13.14 46 -21 c 6.48 -3.55 13.19 -9.43 18 -14 c 1.14 -1.08 1.37 -5 2 -5 c 0.75 0 2.38 3.89 4 5 c 5.22 3.56 11.76 7.53 18 10 c 9.49 3.76 19.91 7.02 30 9 c 10.03 1.97 20.45 2.38 31 3 c 6.77 0.4 14.1 1.44 20 0 c 8.06 -1.97 16.59 -7.98 25 -11 c 4.41 -1.58 9.61 -3.12 14 -3 c 6.85 0.19 14.89 1.92 22 4 c 12.17 3.57 23.52 9.26 36 13 c 21.59 6.48 64 17 64 17"/></svg>