<?xml version="1.0" encoding="UTF-8" standalone="no"?><!DOCTYPE svg PUBLIC "-//W3C//DTD SVG 1.1//EN" "http://www.w3.org/Graphics/SVG/1.1/DTD/svg11.dtd"><svg xmlns="http://www.w3.org/2000/svg" version="1.1" width="743" height="144"><path stroke-linejoin="round" stroke-linecap="round" stroke-width="2" stroke="rgb(52, 58, 64)" fill="none" d="M 428 40 c -0.1 0.37 -4.98 13.96 -6 21 c -1.6 10.97 -2 22.47 -2 34 c 0 15.59 2 46 2 46"/><path stroke-linejoin="round" stroke-linecap="round" stroke-width="2" stroke="rgb(52, 58, 64)" fill="none" d="M 4 102 l 1 1"/><path stroke-linejoin="round" stroke-linecap="round" stroke-width="2" stroke="rgb(52, 58, 64)" fill="none" d="M 10 72 c -0.23 0.04 -8.65 1.03 -13 2 c -7.86 1.75 -23.4 6.11 -23 6 c 1.21 -0.34 66.57 -16.38 69 -19 c 1.52 -1.64 -41.72 -6.98 -44 -8 c -0.81 -0.36 10.3 -2.77 15 -5 c 8.51 -4.04 17.27 -9.1 25 -14 c 1.91 -1.21 5 -5 5 -5"/><path stroke-linejoin="round" stroke-linecap="round" stroke-width="2" stroke="rgb(52, 58, 64)" fill="none" d="M 79 61 c -0.09 0.16 -3.64 5.84 -5 9 c -3.67 8.56 -7.42 17.04 -10 26 c -4.47 15.53 -11 47 -11 47"/><path stroke-linejoin="round" stroke-linecap="round" stroke-width="2" stroke="rgb(52, 58, 64)" fill="none" d="M 122 91 l -2 3"/><path stroke-linejoin="round" stroke-linecap="round" stroke-width="2" stroke="rgb(52, 58, 64)" fill="none" d="M 60 62 c -0.38 0.1 -14.58 4.27 -22 6 c -2.62 0.61 -5.42 0.35 -8 1 c -5.37 1.34 -16.29 5.05 -16 5 c 0.81 -0.14 30.2 -6.16 46 -10 c 22.55 -5.48 42.83 -10.54 65 -17 c 21.5 -6.26 40.97 -12.89 62 -20 c 4.2 -1.42 12 -5 12 -5"/><path stroke-linejoin="round" stroke-linecap="round" stroke-width="2" stroke="rgb(52, 58, 64)" fill="none" d="M 136 89 c -0.1 0.12 -4.61 4.48 -6 7 c -2.09 3.81 -3.59 8.57 -5 13 c -0.93 2.93 -1.81 6.17 -2 9 c -0.12 1.86 0.35 4.19 1 6 c 0.95 2.67 2.29 6.45 4 8 c 1.39 1.26 5.02 2.31 7 2 c 3.53 -0.56 8.57 -2.98 12 -5 c 1.87 -1.1 3.54 -3.17 5 -5 c 2.52 -3.15 5.25 -6.73 7 -10 c 0.73 -1.37 1.13 -3.49 1 -5 c -0.18 -2.15 -0.65 -5.65 -2 -7 c -2.32 -2.32 -11.86 -5.57 -11 -6 c 2.58 -1.29 24.81 -4.01 37 -7 c 6.86 -1.68 13.21 -4.96 20 -7 c 3.27 -0.98 6.92 -0.92 10 -2 c 3.38 -1.18 6.68 -3.76 10 -5 c 1.8 -0.68 5.45 -0.45 6 -1 c 0.33 -0.33 -1.9 -3.29 -2 -3 c -0.49 1.38 -2.8 11.68 -3 17 c -0.12 3.14 1.26 6.56 2 10 c 0.3 1.39 0.44 2.87 1 4 c 0.68 1.37 1.9 3.45 3 4 c 1.1 0.55 4.24 0.9 5 0 c 3.55 -4.18 8.45 -13.08 12 -20 c 2.8 -5.45 5.49 -11.23 7 -17 c 2.08 -7.94 3.81 -17.11 4 -25 c 0.12 -5.07 -1.48 -11.65 -3 -16 c -0.53 -1.51 -2.68 -3.6 -4 -4 c -1.42 -0.43 -4.82 0.08 -6 1 c -1.3 1.01 -2.4 3.95 -3 6 c -1 3.41 -1.83 7.31 -2 11 c -0.49 10.88 -0.66 22.15 0 33 c 0.33 5.35 1.74 10.96 3 16 c 0.35 1.38 1.13 2.99 2 4 c 0.97 1.13 2.99 3.29 4 3 c 2.47 -0.71 7.11 -4.59 10 -7 c 0.85 -0.71 1.19 -2.33 2 -3 c 1 -0.84 3.27 -1.13 4 -2 c 0.67 -0.8 0.67 -4 1 -4 c 0.35 0 1.58 2.62 2 4 c 0.87 2.84 0.87 6.42 2 9 c 1.05 2.41 3.08 5.67 5 7 c 1.84 1.27 5.89 2.4 8 2 c 2.42 -0.45 6.41 -2.79 8 -5 c 3.77 -5.24 7.24 -13.33 10 -20 c 1.14 -2.75 1.34 -5.86 2 -9 c 0.73 -3.47 1.83 -6.79 2 -10 c 0.15 -2.85 -1 -6.07 -1 -9 c 0 -2.61 1.2 -5.45 1 -8 c -0.44 -5.45 -1.73 -11.91 -3 -17 c -0.27 -1.06 -1.35 -3.07 -2 -3 c -1.46 0.16 -6.52 2.08 -7 4 c -2.64 10.54 -4.51 30.28 -5 44 c -0.14 3.83 1.62 8.14 3 12 c 1.95 5.45 4.51 10.53 7 16 c 0.96 2.1 1.86 4.1 3 6 c 0.85 1.41 1.9 2.9 3 4 l 3 2"/><path stroke-linejoin="round" stroke-linecap="round" stroke-width="2" stroke="rgb(52, 58, 64)" fill="none" d="M 395 44 c -0.35 0.19 -13.1 7.55 -20 11 c -3.93 1.96 -7.98 3.58 -12 5 c -1.58 0.56 -3.54 0.45 -5 1 c -1.03 0.39 -3.06 2.03 -3 2 c 1.05 -0.52 39.48 -19.46 60 -30 c 4.93 -2.53 9.2 -5.15 14 -8 c 4.55 -2.7 8.95 -5.01 13 -8 c 3.57 -2.64 7 -5.8 10 -9 l 5 -7"/><path stroke-linejoin="round" stroke-linecap="round" stroke-width="2" stroke="rgb(52, 58, 64)" fill="none" d="M 483 101 l 1 1"/><path stroke-linejoin="round" stroke-linecap="round" stroke-width="2" stroke="rgb(52, 58, 64)" fill="none" d="M 482 100 c 0.19 -0.31 7.53 -11.71 11 -18 c 3.68 -6.66 6.94 -13.18 10 -20 c 1.3 -2.89 1.68 -6.36 3 -9 c 0.89 -1.78 2.94 -3.2 4 -5 c 2.22 -3.78 5.88 -8.43 6 -12 c 0.16 -4.72 -4.36 -16.09 -5 -17 c -0.26 -0.37 -1.86 4.77 -2 7 c -0.17 2.77 0.56 5.9 1 9 c 3.03 21.48 5.71 41.99 9 62 c 0.28 1.72 1.58 3.31 2 5 c 0.55 2.22 0.88 7.24 1 7 c 0.26 -0.52 1.46 -10.23 3 -15 c 2.08 -6.43 5.46 -17.45 8 -19 c 1.58 -0.96 6.89 6.34 10 8 c 1.21 0.65 3.78 0.67 5 0 c 4.56 -2.51 10.56 -9.33 15 -11 c 2.2 -0.83 6.12 1.84 9 2 c 2.83 0.16 6.05 -0.45 9 -1 c 2.37 -0.44 4.88 -1 7 -2 c 4.04 -1.92 7.9 -5.05 12 -7 c 2.8 -1.33 6.08 -2.42 9 -3 c 1.85 -0.37 4.13 0.35 6 0 c 3.26 -0.61 9.23 -2.23 10 -3 c 0.37 -0.37 -2.63 -2.32 -4 -3 c -1.13 -0.56 -2.63 -0.85 -4 -1 c -28.73 -3.19 -57.2 -6.92 -86 -9 c -8.33 -0.6 -16.49 0.14 -25 1 c -35.59 3.59 -105.3 10.7 -104 12 c 1.33 1.33 70.06 -6.65 107 -9 c 28.23 -1.79 53.62 -2.29 82 -3 c 13.14 -0.33 25.01 -0.63 38 0 c 29.47 1.43 86 6 86 6"/></svg>