<?xml version="1.0" encoding="UTF-8" standalone="no"?><!DOCTYPE svg PUBLIC "-//W3C//DTD SVG 1.1//EN" "http://www.w3.org/Graphics/SVG/1.1/DTD/svg11.dtd"><svg xmlns="http://www.w3.org/2000/svg" version="1.1" width="427" height="113"><path stroke-linejoin="round" stroke-linecap="round" stroke-width="2" stroke="rgb(52, 58, 64)" fill="none" d="M 1 33 l 1 1"/><path stroke-linejoin="round" stroke-linecap="round" stroke-width="2" stroke="rgb(52, 58, 64)" fill="none" d="M 379 17 c -0.47 -0.07 -17.72 -2.95 -27 -4 c -8.87 -1 -17.1 -1.68 -26 -2 c -9.9 -0.36 -19.06 -0.33 -29 0 c -10.64 0.35 -20.43 0.94 -31 2 c -9.96 1 -19.32 2.1 -29 4 c -9.22 1.81 -18.28 3.98 -27 7 c -7.55 2.62 -15.78 5.7 -22 10 c -7.1 4.9 -15.28 12.64 -20 19 c -2.11 2.85 -2.46 8.04 -3 12 c -0.44 3.2 -1.57 8.43 0 10 c 3.09 3.09 11.74 5.72 18 8 c 12.37 4.5 24.52 9.61 37 12 c 18.39 3.52 37.65 4.75 57 6 c 12.15 0.78 23.63 0.35 36 0 c 12.04 -0.34 23.03 -0.9 35 -2 c 14.1 -1.3 27.78 -2.6 41 -5 c 4.76 -0.87 9.86 -2.77 14 -5 c 4.18 -2.25 10.19 -5.49 12 -9 c 2.45 -4.73 4.68 -15.8 3 -20 c -1.5 -3.75 -9.76 -7.64 -15 -10 c -7.64 -3.44 -16.59 -6.32 -25 -8 c -9.66 -1.93 -19.79 -2.53 -30 -3 c -11.85 -0.55 -23.33 -0.83 -35 0 c -11.79 0.84 -23.36 2.6 -35 5 c -11.26 2.32 -21.97 5.45 -33 9 c -8.98 2.89 -17.42 6.19 -26 10 c -6.61 2.94 -13 6.28 -19 10 c -3.58 2.22 -7.52 5.14 -10 8 c -1.47 1.7 -3.7 6.79 -3 7 c 1.26 0.38 8.68 -2.38 13 -4 c 6.54 -2.45 12.66 -4.98 19 -8 c 7.98 -3.8 15.24 -7.63 23 -12 c 8.73 -4.91 16.93 -9.36 25 -15 c 13.23 -9.24 25.17 -18.9 38 -29 c 3.23 -2.54 7.89 -8.25 9 -8 c 0.92 0.2 0.79 6.96 0 10 c -3.01 11.54 -8.65 23.67 -12 36 c -3.06 11.28 -5.39 22.75 -7 34 c -0.69 4.86 -0.63 11.45 0 15 c 0.15 0.85 2.41 2.33 3 2 c 1.52 -0.84 4.52 -4.4 6 -7 c 6.66 -11.71 12.1 -24.62 19 -37 c 4.69 -8.42 9.6 -15.99 15 -24 c 4.51 -6.68 8.86 -12.96 14 -19 c 6.31 -7.42 17.68 -20.19 20 -21 c 1.12 -0.39 0.4 9.34 0 14 c -0.61 7.06 -1.58 13.88 -3 21 c -5.08 25.4 -14.58 60.55 -16 74 c -0.15 1.46 6.42 3.01 8 2 c 4.09 -2.6 10.15 -10.12 14 -16 c 15.04 -22.95 43.52 -66.98 43 -71 c -0.36 -2.79 -31.24 21.18 -48 32 c -10.56 6.82 -20.19 13.35 -31 19 c -11.71 6.12 -24.09 12.9 -36 16 c -11.22 2.92 -25.69 3.62 -37 3 c -5.78 -0.32 -12.62 -3.31 -18 -6 c -4.87 -2.44 -10.64 -6.45 -14 -10 c -1.67 -1.76 -3.85 -6.58 -3 -8 c 1.39 -2.31 7.92 -6.51 12 -7 c 21.17 -2.52 47.31 -1.53 72 -3 c 9.99 -0.59 19.27 -1.46 29 -3 c 9.56 -1.51 18.5 -3.63 28 -6 c 8.29 -2.07 16.29 -4.06 24 -7 c 6.21 -2.36 12.74 -5.49 18 -9 c 3.33 -2.22 6.78 -5.85 9 -9 l 3 -8"/><path stroke-linejoin="round" stroke-linecap="round" stroke-width="2" stroke="rgb(52, 58, 64)" fill="none" d="M 400 16 l 4 3"/></svg>