<?xml version="1.0" encoding="UTF-8" standalone="no"?><!DOCTYPE svg PUBLIC "-//W3C//DTD SVG 1.1//EN" "http://www.w3.org/Graphics/SVG/1.1/DTD/svg11.dtd"><svg xmlns="http://www.w3.org/2000/svg" version="1.1" width="624" height="114"><path stroke-linejoin="round" stroke-linecap="round" stroke-width="2" stroke="rgb(52, 58, 64)" fill="none" d="M 1 18 c 0.26 -0.04 10.36 -0.57 15 -2 c 7.97 -2.45 16.03 -6.98 24 -10 c 1.56 -0.59 3.52 -0.38 5 -1 c 2.34 -0.97 4.89 -3.47 7 -4 c 1.34 -0.33 5 1 5 1"/><path stroke-linejoin="round" stroke-linecap="round" stroke-width="2" stroke="rgb(52, 58, 64)" fill="none" d="M 57 19 c 0.04 0.05 1.64 1.92 2 3 c 1.86 5.58 3.83 11.98 5 18 c 0.81 4.2 0.25 8.73 1 13 c 1.25 7.07 3.58 13.88 5 21 c 0.6 2.99 1.14 6.11 1 9 c -0.18 3.88 -0.81 8.64 -2 12 c -0.62 1.77 -2.49 3.79 -4 5 c -1.58 1.26 -3.95 2.46 -6 3 c -4.01 1.06 -8.58 1.66 -13 2 c -8.75 0.67 -17.49 1.22 -26 1 c -3.98 -0.1 -12 -2 -12 -2"/><path stroke-linejoin="round" stroke-linecap="round" stroke-width="2" stroke="rgb(52, 58, 64)" fill="none" d="M 107 99 c 0.07 -0.09 3.05 -3.25 4 -5 c 0.94 -1.72 1.7 -4.04 2 -6 c 0.33 -2.17 0.51 -4.86 0 -7 c -1.39 -5.8 -6.73 -18.08 -6 -18 c 0.93 0.1 10.13 13.88 15 19 c 1.08 1.14 3.36 1.79 5 2 c 3.36 0.42 7.75 0.43 11 0 c 1.32 -0.18 3.09 -1.02 4 -2 c 3.05 -3.28 6.11 -9.69 9 -12 c 1.16 -0.92 4.24 -0.35 6 0 c 1.31 0.26 2.98 1.1 4 2 c 1.77 1.58 3.86 3.83 5 6 c 2.03 3.86 4.92 12.77 5 13 c 0.02 0.07 -1.71 -2.7 -2 -4 c -0.32 -1.46 -0.3 -3.49 0 -5 c 0.32 -1.62 1 -4.85 2 -5 c 2.12 -0.33 7.64 1.52 11 3 c 4.75 2.09 11.04 7.3 14 8 c 0.92 0.22 2.28 -2.57 3 -4 c 1.54 -3.09 2.3 -7.54 4 -10 c 0.92 -1.33 3.42 -2.74 5 -3 c 1.91 -0.32 5.12 0.12 7 1 c 2.67 1.24 5.7 3.7 8 6 c 4.25 4.25 8.74 9.03 12 14 l 9 18"/><path stroke-linejoin="round" stroke-linecap="round" stroke-width="2" stroke="rgb(52, 58, 64)" fill="none" d="M 152 34 l 1 1"/><path stroke-linejoin="round" stroke-linecap="round" stroke-width="2" stroke="rgb(52, 58, 64)" fill="none" d="M 288 113 c 0.03 -0.1 1.05 -4.24 2 -6 c 1.29 -2.4 3.83 -4.67 5 -7 c 0.69 -1.38 0.41 -3.52 1 -5 c 0.68 -1.69 2.39 -3.24 3 -5 c 1.96 -5.65 3.82 -11.91 5 -18 c 1.15 -5.9 1.72 -11.85 2 -18 c 0.74 -16.31 1.14 -46.25 1 -48 c -0.03 -0.43 -3.11 7.22 -4 11 c -2.1 8.86 -4.29 18.73 -5 27 c -0.21 2.48 1.1 5.47 2 8 c 0.73 2.06 1.83 4.25 3 6 c 0.74 1.11 1.93 2.11 3 3 c 0.91 0.76 1.94 1.68 3 2 c 2.99 0.92 6.8 1.06 10 2 c 2.39 0.7 4.97 1.7 7 3 c 2.45 1.58 4.91 3.78 7 6 c 3.22 3.42 6.65 7.14 9 11 c 2.15 3.53 4.7 8.39 5 12 c 0.29 3.44 -1.47 9.14 -3 12 c -0.72 1.35 -3.34 2.67 -5 3 c -2.84 0.57 -6.68 0.29 -10 0 c -4.36 -0.38 -8.6 -1.08 -13 -2 c -10.3 -2.15 -30 -7 -30 -7"/><path stroke-linejoin="round" stroke-linecap="round" stroke-width="2" stroke="rgb(52, 58, 64)" fill="none" d="M 352 106 c 0.16 -0.03 6.97 -0.89 9 -2 c 0.99 -0.54 1.59 -2.64 2 -4 c 0.55 -1.85 1.11 -4.1 1 -6 c -0.21 -3.8 -1.07 -8.26 -2 -12 c -0.34 -1.37 -2.21 -3.9 -2 -4 c 0.23 -0.12 3.02 1.76 4 3 c 5.06 6.39 9.94 14.61 15 21 c 0.98 1.24 3.16 3 4 3 c 0.61 0 2 -2.09 2 -3 c 0 -1.85 -0.95 -4.9 -2 -7 c -2.84 -5.68 -10.99 -16.93 -10 -17 c 1.45 -0.1 15.92 11.51 24 16 c 3.54 1.97 8.12 3.14 12 4 c 1.84 0.41 5.32 1.02 6 0 c 1.76 -2.64 3.87 -10.24 4 -15 c 0.19 -7.11 -1.59 -18.17 -3 -23 c -0.25 -0.86 -4.08 -0.92 -4 -1 c 0.1 -0.1 3.49 0.3 5 0 c 1.62 -0.32 3.31 -1.24 5 -2 c 5.19 -2.33 10.87 -4.57 15 -7 c 0.9 -0.53 2.32 -2.76 2 -3 c -0.53 -0.39 -4.09 -0.35 -6 0 c -5.24 0.95 -12.03 1.84 -16 4 c -2.41 1.31 -4.97 5.42 -6 8 c -0.72 1.81 -0.56 5.03 0 7 c 0.65 2.26 2.45 4.93 4 7 c 1.36 1.81 3.17 3.52 5 5 c 3.51 2.85 7.28 5.68 11 8 c 1.47 0.92 3.5 1.83 5 2 c 1.15 0.13 3.41 -0.29 4 -1 c 0.73 -0.88 1.19 -3.49 1 -5 c -0.42 -3.38 -1.58 -7.58 -3 -11 c -1.84 -4.42 -6.86 -12.78 -7 -13 c -0.05 -0.08 1.13 3.61 2 5 c 0.69 1.1 2.49 1.84 3 3 c 1.92 4.31 3.06 11.33 5 15 c 0.55 1.04 2.71 2 4 2 c 6.66 0 15.84 -0.81 23 -2 c 2.36 -0.39 5.7 -1.7 7 -3 c 0.87 -0.87 1 -3.42 1 -5 c 0 -1.88 -0.45 -4.15 -1 -6 c -0.41 -1.36 -1.16 -2.88 -2 -4 c -1.07 -1.42 -3.89 -4.11 -4 -4 c -0.11 0.11 1.75 3.59 3 5 c 3.94 4.43 8.58 9.47 13 13 c 1.83 1.46 4.65 2.28 7 3 c 1.88 0.58 4.25 1.16 6 1 c 1.55 -0.14 4.64 -0.83 5 -2 c 1.4 -4.6 0.87 -15.82 2 -21 c 0.19 -0.88 2.33 -2.3 3 -2 c 1.98 0.9 5.66 4.38 8 7 c 5.95 6.67 14.23 18.37 17 21 c 0.37 0.35 1.81 -1.96 2 -3 c 0.7 -3.76 0.32 -8.93 1 -13 c 0.28 -1.68 1.11 -3.76 2 -5 c 0.59 -0.83 2.08 -1.87 3 -2 c 1.05 -0.15 2.8 0.45 4 1 c 2.34 1.07 5.26 2.26 7 4 c 3.23 3.23 5.86 8.63 9 12 c 1.22 1.31 3.75 3.12 5 3 c 1.37 -0.14 4.03 -2.36 5 -4 c 2.97 -5.03 5.05 -12.11 8 -18 c 1.41 -2.82 3 -6.15 5 -8 c 1.9 -1.75 5.66 -3.86 8 -4 c 2.49 -0.15 6.41 1.56 9 3 c 3.11 1.73 6.52 4.3 9 7 l 13 17"/><path stroke-linejoin="round" stroke-linecap="round" stroke-width="2" stroke="rgb(52, 58, 64)" fill="none" d="M 453 8 l 1 1"/></svg>