<?xml version="1.0" encoding="UTF-8" standalone="no"?><!DOCTYPE svg PUBLIC "-//W3C//DTD SVG 1.1//EN" "http://www.w3.org/Graphics/SVG/1.1/DTD/svg11.dtd"><svg xmlns="http://www.w3.org/2000/svg" version="1.1" width="467" height="133"><path stroke-linejoin="round" stroke-linecap="round" stroke-width="2" stroke="rgb(52, 58, 64)" fill="none" d="M 16 25 c -0.17 0.07 -6.8 2.52 -10 4 c -1.07 0.49 -2.22 1.22 -3 2 c -0.78 0.78 -2 3 -2 3"/><path stroke-linejoin="round" stroke-linecap="round" stroke-width="2" stroke="rgb(52, 58, 64)" fill="none" d="M 14 33 c -0.04 -0.05 -1.61 -1.97 -2 -3 c -0.55 -1.46 -1 -5.09 -1 -5 c 0 0.18 1.48 6.86 1 10 c -2.39 15.65 -7.42 32.55 -10 49 c -1.09 6.91 -1.17 13.98 -1 21 c 0.17 7.05 1 14.22 2 21 c 0.3 2.03 1.11 5.26 2 6 c 0.58 0.48 3.54 -0.09 4 -1 c 5.66 -11.08 12.78 -30.18 20 -46 c 10.81 -23.71 20.73 -44.91 32 -68 c 2.75 -5.64 9 -16 9 -16"/><path stroke-linejoin="round" stroke-linecap="round" stroke-width="2" stroke="rgb(52, 58, 64)" fill="none" d="M 111 81 c -0.16 -0.12 -6.18 -5.59 -9 -7 c -1.24 -0.62 -3.65 -0.57 -5 0 c -4.34 1.83 -9.8 5 -14 8 c -2.58 1.84 -4.83 4.5 -7 7 c -2.19 2.53 -4.63 5.27 -6 8 c -1.13 2.25 -1.83 5.47 -2 8 c -0.14 2.17 0.29 5.05 1 7 c 0.5 1.38 1.87 3.03 3 4 c 1.01 0.87 2.77 2 4 2 c 2.53 0 6.76 -0.59 9 -2 c 3.43 -2.17 7.11 -6.63 10 -10 c 0.91 -1.07 2 -4.16 2 -4 c 0 0.56 -2 10.47 -2 15 c 0 1.89 0.87 5.62 2 6 c 1.83 0.61 7.71 -0.26 10 -2 c 6.19 -4.7 13.39 -12.8 19 -20 c 7.34 -9.41 14.54 -19.58 20 -30 c 5.37 -10.25 9.3 -21.89 13 -33 c 1.6 -4.79 2.42 -10.02 3 -15 c 0.41 -3.58 0.2 -7.33 0 -11 c -0.13 -2.36 -0.18 -5.69 -1 -7 c -0.48 -0.76 -3.27 -1.59 -4 -1 c -3.24 2.64 -8.32 9.18 -12 14 c -1.61 2.11 -2.92 4.53 -4 7 c -3.61 8.25 -7.23 16.5 -10 25 c -1.9 5.82 -3.13 11.94 -4 18 c -0.8 5.6 -1 11.26 -1 17 c 0 5.74 -0.03 11.68 1 17 c 0.9 4.65 2.84 9.85 5 14 c 1.66 3.18 4.36 7.47 7 9 c 2.81 1.63 8.49 2.42 12 2 c 4.02 -0.48 9.03 -2.86 13 -5 c 4.5 -2.42 8.72 -5.75 13 -9 c 4.23 -3.21 7.95 -6.45 12 -10 c 4.22 -3.7 8.56 -7.32 12 -11 c 0.94 -1.01 2.05 -4.06 2 -4 c -0.26 0.34 -10.25 13.44 -14 20 c -1.27 2.21 -1.62 5.37 -2 8 c -0.27 1.92 -0.58 4.54 0 6 c 0.55 1.38 2.57 3.35 4 4 c 1.79 0.81 4.84 1.23 7 1 c 3.78 -0.4 8.42 -1.43 12 -3 c 4.41 -1.94 8.95 -4.93 13 -8 c 6.97 -5.28 13.43 -10.87 20 -17 c 13.98 -13.05 26.76 -26.65 40 -39 c 1.38 -1.29 3.47 -2.69 5 -3 c 1.34 -0.27 4.36 0.23 5 1 c 0.63 0.76 0.3 3.43 0 5 c -0.67 3.59 -1.61 7.53 -3 11 c -1.91 4.77 -4.11 9.7 -7 14 c -8.72 12.96 -27.53 37.32 -28 38 c -0.35 0.5 13.14 -19.48 21 -28 c 11.75 -12.75 24.59 -24.89 38 -36 c 9.95 -8.24 21.72 -16.13 32 -22 c 2.7 -1.54 7.28 -2.18 10 -2 c 1.56 0.1 4.94 1.79 5 3 c 0.18 3.42 -1.96 11.01 -4 16 c -4.53 11.1 -11.95 22.2 -16 33 c -1.67 4.46 -2.34 10.53 -2 15 c 0.27 3.46 1.88 8.61 4 11 c 2.52 2.83 7.92 5.68 12 7 c 5.65 1.82 12.69 2.72 19 3 c 8.53 0.38 17.28 0.04 26 -1 c 22.37 -2.67 66 -10 66 -10"/></svg>