<?xml version="1.0" encoding="UTF-8" standalone="no"?><!DOCTYPE svg PUBLIC "-//W3C//DTD SVG 1.1//EN" "http://www.w3.org/Graphics/SVG/1.1/DTD/svg11.dtd"><svg xmlns="http://www.w3.org/2000/svg" version="1.1" width="607" height="74"><path stroke-linejoin="round" stroke-linecap="round" stroke-width="2" stroke="rgb(52, 58, 64)" fill="none" d="M 602 6 c -0.1 -0.37 -4.37 -13.87 -6 -21 c -1.06 -4.62 -1.79 -9.5 -2 -14 c -0.11 -2.25 0.45 -4.78 1 -7 c 0.42 -1.69 2 -5 2 -5"/><path stroke-linejoin="round" stroke-linecap="round" stroke-width="2" stroke="rgb(52, 58, 64)" fill="none" d="M 7 8 c -0.11 -0.07 -5.9 -2.68 -6 -4 c -0.15 -1.89 2.99 -6.65 5 -9 c 1.68 -1.96 4.56 -3.78 7 -5 c 2.69 -1.34 6.06 -2.54 9 -3 c 3.1 -0.49 6.95 -0.41 10 0 c 1.64 0.22 3.65 1.06 5 2 c 1.77 1.24 4.41 3.24 5 5 c 0.83 2.49 0.41 6.95 0 10 c -0.22 1.64 -1.64 3.32 -2 5 c -0.61 2.83 -1.37 6.62 -1 9 c 0.2 1.31 1.85 3.54 3 4 c 1.6 0.64 5.27 0.87 7 0 c 4.06 -2.03 8.87 -6.36 13 -10 c 4.27 -3.76 7.75 -8.1 12 -12 c 3.91 -3.59 7.82 -7.75 12 -10 l 14 -4"/><path stroke-linejoin="round" stroke-linecap="round" stroke-width="2" stroke="rgb(52, 58, 64)" fill="none" d="M 82 25 c 0.61 -0.46 24.03 -18.4 35 -26 c 1.04 -0.72 3.65 -1.56 4 -1 c 0.77 1.23 1.2 6.54 1 9 c -0.08 0.98 -1.58 1.94 -2 3 c -0.85 2.13 -2 4.94 -2 7 c 0 1.79 0.88 4.63 2 6 c 1.52 1.86 4.6 3.71 7 5 c 1.76 0.95 3.95 1.44 6 2 c 1.65 0.45 3.44 1 5 1 c 1.56 0 3.52 -0.41 5 -1 c 1.69 -0.68 3.51 -1.84 5 -3 c 1.44 -1.12 3.05 -2.47 4 -4 c 4.83 -7.78 11.94 -22.16 14 -25 c 0.26 -0.36 1.68 1.94 2 3 c 0.92 2.99 2.21 9.37 2 10 c -0.12 0.35 -2.61 -3.13 -4 -4 c -1.01 -0.63 -3 -1.25 -4 -1 c -1.22 0.3 -3.29 1.86 -4 3 c -0.73 1.16 -1.47 3.94 -1 5 c 0.59 1.34 3.33 3.44 5 4 c 1.83 0.61 5.34 0.88 7 0 c 3.19 -1.69 7.04 -5.83 10 -9 c 1.59 -1.7 2.88 -3.88 4 -6 c 2.22 -4.21 4.4 -8.61 6 -13 c 1.03 -2.83 2.15 -9.07 2 -9 c -0.17 0.09 -2.92 6.52 -4 10 c -3.66 11.77 -9.81 33.76 -10 35 c -0.06 0.37 3.74 -6.39 6 -9 c 1.93 -2.23 5.92 -5.87 7 -6 c 0.6 -0.07 0.25 3.76 1 5 c 1.03 1.72 3.25 4.77 5 5 l 18 -2"/><path stroke-linejoin="round" stroke-linecap="round" stroke-width="2" stroke="rgb(52, 58, 64)" fill="none" d="M 606 15 l 1 1"/></svg>