<?xml version="1.0" encoding="UTF-8" standalone="no"?><!DOCTYPE svg PUBLIC "-//W3C//DTD SVG 1.1//EN" "http://www.w3.org/Graphics/SVG/1.1/DTD/svg11.dtd"><svg xmlns="http://www.w3.org/2000/svg" version="1.1" width="397" height="69"><path stroke-linejoin="round" stroke-linecap="round" stroke-width="2" stroke="rgb(52, 58, 64)" fill="none" d="M 1 68 c 0.18 -0.12 7.05 -4.36 10 -7 c 3.26 -2.91 5.68 -7.06 9 -10 c 5.28 -4.67 11.6 -8.18 17 -13 c 13.56 -12.11 35.05 -34.16 39 -37 c 0.66 -0.47 0.83 6.34 0 9 c -4.16 13.27 -11.68 28.78 -16 42 c -0.67 2.06 -0.81 5.52 0 7 l 6 4"/><path stroke-linejoin="round" stroke-linecap="round" stroke-width="2" stroke="rgb(52, 58, 64)" fill="none" d="M 140 32 l 4 13"/><path stroke-linejoin="round" stroke-linecap="round" stroke-width="2" stroke="rgb(52, 58, 64)" fill="none" d="M 232 21 c 0.07 0.05 2.9 1.9 4 3 c 0.8 0.8 2 3 2 3"/><path stroke-linejoin="round" stroke-linecap="round" stroke-width="2" stroke="rgb(52, 58, 64)" fill="none" d="M 287 32 c 0.61 -0.05 23.27 -2.56 35 -3 c 6.02 -0.23 11.84 1 18 1 c 16.05 0 31.6 -0.18 47 -1 c 3.02 -0.16 9 -2 9 -2"/></svg>