<?xml version="1.0" encoding="UTF-8" standalone="no"?><!DOCTYPE svg PUBLIC "-//W3C//DTD SVG 1.1//EN" "http://www.w3.org/Graphics/SVG/1.1/DTD/svg11.dtd"><svg xmlns="http://www.w3.org/2000/svg" version="1.1" width="575" height="191"><path stroke-linejoin="round" stroke-linecap="round" stroke-width="2" stroke="rgb(52, 58, 64)" fill="none" d="M 337 33 c 0 -0.12 0.3 -4.71 0 -7 c -0.69 -5.32 -1.84 -10.49 -3 -16 c -1.61 -7.63 -3.05 -14.7 -5 -22 c -0.74 -2.76 -2.65 -5.53 -3 -8 c -0.25 -1.76 1.18 -4.39 1 -6 c -0.11 -0.95 -1.87 -2.08 -2 -3 c -0.15 -1.05 0.91 -2.67 1 -4 c 0.24 -3.54 0.28 -7.32 0 -11 c -0.39 -5.06 -2 -15 -2 -15"/><path stroke-linejoin="round" stroke-linecap="round" stroke-width="2" stroke="rgb(52, 58, 64)" fill="none" d="M 1 79 c 0.02 0.07 0.41 2.82 1 4 c 2.3 4.61 5.09 9.97 8 14 c 1.15 1.6 3.26 2.84 5 4 c 1.21 0.81 2.96 2 4 2 c 0.84 0 2.19 -1.19 3 -2 c 1.76 -1.76 3.46 -5.15 5 -6 c 0.81 -0.45 3.28 0.15 4 1 c 4.01 4.72 8.87 14.66 13 19 c 1.09 1.15 4.45 1.31 6 1 c 1.27 -0.25 2.99 -1.85 4 -3 c 1.18 -1.35 2.44 -3.25 3 -5 c 1.67 -5.25 2.34 -12.25 4 -17 l 3 -3"/><path stroke-linejoin="round" stroke-linecap="round" stroke-width="2" stroke="rgb(52, 58, 64)" fill="none" d="M 114 114 c -0.05 -0.04 -1.96 -1.74 -3 -2 c -2.61 -0.65 -6.19 -1 -9 -1 c -1.28 0 -2.96 0.41 -4 1 c -1.07 0.61 -3.06 3.04 -3 3 c 0.11 -0.08 3.99 -3.79 6 -5 c 1.06 -0.64 2.67 -0.94 4 -1 c 5.48 -0.26 11.69 -0.61 17 0 c 2.96 0.34 6.15 2.89 9 3 c 5.15 0.2 11.44 -2 17 -2 c 5.88 0 11.9 1.56 18 2 c 3.37 0.24 6.76 0.34 10 0 c 2.99 -0.31 6.03 -1.58 9 -2 c 1.61 -0.23 3.77 0.46 5 0 c 1.04 -0.39 3.18 -3.04 3 -3 c -0.55 0.12 -8.76 3.06 -12 5 c -1.25 0.75 -2.7 2.78 -3 4 c -0.25 1 0.48 4 1 4 c 0.81 0 3.92 -2.44 5 -4 c 1.66 -2.4 3.06 -5.92 4 -9 c 1.36 -4.48 2.24 -12.6 3 -14 c 0.23 -0.41 2.51 1.86 3 3 c 1.31 3.06 1.63 7.58 3 11 c 1.24 3.09 2.95 7.1 5 9 c 1.7 1.57 5.49 2.69 8 3 c 2.37 0.3 6.1 -0.24 8 -1 c 0.85 -0.34 2.11 -2.89 2 -3 c -0.11 -0.11 -3.27 1.55 -3 2 l 9 8"/><path stroke-linejoin="round" stroke-linecap="round" stroke-width="2" stroke="rgb(52, 58, 64)" fill="none" d="M 293 130 c 0.05 -0.16 2.48 -6.07 3 -9 c 0.44 -2.47 0.43 -5.42 0 -8 c -1.54 -9.22 -3.57 -18.71 -6 -28 c -1.26 -4.82 -3.82 -9.52 -5 -14 c -0.4 -1.51 -0.87 -4.32 0 -5 c 2.64 -2.07 9.37 -4.46 14 -6 c 2.15 -0.72 5.16 0.02 7 -1 c 6.35 -3.53 16.72 -12.81 20 -14 c 0.85 -0.31 1.64 4.05 2 6 c 0.28 1.55 -0.36 3.47 0 5 c 0.91 3.87 2.2 8.4 4 12 c 1.73 3.47 5.02 6.49 7 10 c 2.33 4.11 5.04 8.99 6 13 c 0.54 2.26 -0.24 5.91 -1 8 c -0.4 1.1 -1.86 2.21 -3 3 c -6.4 4.45 -13.25 9.14 -20 13 c -2.42 1.38 -5.23 2.19 -8 3 c -5.34 1.56 -10.72 3.3 -16 4 c -4.48 0.6 -10.04 0.47 -14 0 l -3 -2"/><path stroke-linejoin="round" stroke-linecap="round" stroke-width="2" stroke="rgb(52, 58, 64)" fill="none" d="M 363 107 c 0.09 0.12 2.97 5.42 5 7 c 3.49 2.71 8.72 5.68 13 7 c 3.78 1.16 9.02 1.21 13 1 c 1.93 -0.1 4.12 -1.13 6 -2 c 2.4 -1.11 4.91 -2.48 7 -4 c 1.47 -1.07 3.2 -2.47 4 -4 c 2.61 -4.98 5.62 -11.95 7 -17 c 0.38 -1.4 -0.38 -3.6 -1 -5 c -0.61 -1.37 -1.86 -3.29 -3 -4 c -1.16 -0.73 -3.67 -1.17 -5 -1 c -0.94 0.12 -2.47 1.16 -3 2 c -0.93 1.48 -2 4.12 -2 6 c 0 3.91 1.07 8.83 2 13 c 0.38 1.71 0.99 3.86 2 5 c 1.36 1.52 3.97 3.36 6 4 c 2.84 0.89 7.19 1.64 10 1 c 3.76 -0.85 8.67 -3.78 12 -6 c 1.24 -0.83 2.52 -2.55 3 -4 c 1.99 -5.98 4.91 -19.65 5 -20 c 0.02 -0.09 -1 3.39 -1 5 c 0 2.86 0.42 6.1 1 9 c 0.4 2.02 1.01 4.27 2 6 c 1.56 2.73 3.89 5.89 6 8 c 0.94 0.94 2.64 1.55 4 2 c 1.55 0.52 3.51 1.2 5 1 c 3.06 -0.41 7.06 -3.13 10 -3 c 3.56 0.16 8.05 3.58 12 4 c 8.12 0.86 18.62 -0.51 26 0 c 1.02 0.07 1.98 1.91 3 2 c 5.38 0.49 12.87 -0.75 19 0 c 7.28 0.89 14.71 4.15 22 5 l 21 0"/><path stroke-linejoin="round" stroke-linecap="round" stroke-width="2" stroke="rgb(52, 58, 64)" fill="none" d="M 513 82 l 1 1"/><path stroke-linejoin="round" stroke-linecap="round" stroke-width="2" stroke="rgb(52, 58, 64)" fill="none" d="M 363 48 l 1 1"/></svg>