<?xml version="1.0" encoding="UTF-8" standalone="no"?><!DOCTYPE svg PUBLIC "-//W3C//DTD SVG 1.1//EN" "http://www.w3.org/Graphics/SVG/1.1/DTD/svg11.dtd"><svg xmlns="http://www.w3.org/2000/svg" version="1.1" width="534" height="119"><path stroke-linejoin="round" stroke-linecap="round" stroke-width="2" stroke="rgb(52, 58, 64)" fill="none" d="M 128 3 c 0.19 0.09 7.15 3.81 11 5 c 19.85 6.15 39.38 11.73 60 17 c 10.11 2.58 19.74 4.57 30 6 c 14.15 1.97 27.58 3.08 42 4 c 12.31 0.79 23.78 1.19 36 1 c 9.86 -0.15 19.39 -0.77 29 -2 c 6.1 -0.78 12.44 -2.08 18 -4 c 3.78 -1.3 8.2 -3.84 11 -6 c 1 -0.77 1.89 -2.73 2 -4 c 0.19 -2.29 0.19 -6.33 -1 -8 c -1.6 -2.24 -5.93 -4.25 -9 -6 c -1.53 -0.87 -3.27 -1.52 -5 -2 c -4.28 -1.19 -8.68 -2.68 -13 -3 c -9.07 -0.66 -18.88 -0.78 -28 0 c -6.32 0.54 -12.92 1.97 -19 4 c -10.82 3.61 -21.49 7.99 -32 13 c -10.76 5.12 -20.46 10.95 -31 17 c -5.62 3.23 -10.32 7.45 -16 10 c -17.15 7.71 -34.88 16 -53 21 c -26.24 7.25 -53.13 11.29 -81 16 c -18.72 3.17 -39.27 8 -55 7 c -7.61 -0.48 -25.19 -11.29 -24 -12 c 1.95 -1.17 28.88 -0.63 44 0 c 50.59 2.12 96.5 4.41 147 8 c 22.09 1.57 41.82 4.23 64 7 c 33.37 4.17 62.68 8.24 96 13 c 15.32 2.19 28.77 4.92 44 7 c 15.14 2.06 28.98 3.96 44 5 c 14.59 1.01 28.7 1.59 43 1 c 10.06 -0.41 21.04 -1.39 30 -4 c 6.09 -1.78 13.49 -6.62 18 -10 c 1.18 -0.88 1.7 -3.37 2 -5 l 0 -6"/></svg>