<?xml version="1.0" encoding="UTF-8" standalone="no"?><!DOCTYPE svg PUBLIC "-//W3C//DTD SVG 1.1//EN" "http://www.w3.org/Graphics/SVG/1.1/DTD/svg11.dtd"><svg xmlns="http://www.w3.org/2000/svg" version="1.1" width="636" height="147"><path stroke-linejoin="round" stroke-linecap="round" stroke-width="2" stroke="rgb(52, 58, 64)" fill="none" d="M 60 58 c -0.04 -0.05 -1.79 -1.96 -2 -3 c -0.69 -3.47 -1.49 -8.18 -1 -12 c 1.76 -13.56 5.03 -41.54 8 -42 c 2.92 -0.45 12.7 24.93 18 38 c 4.11 10.13 7.96 21.24 10 31 c 0.75 3.61 -0.43 8.01 -1 12 c -0.44 3.06 -0.9 6.21 -2 9 c -2.5 6.36 -5.63 12.85 -9 19 c -2.31 4.22 -5.04 8.21 -8 12 c -3.05 3.9 -6.41 7.77 -10 11 c -2.95 2.66 -6.48 5.42 -10 7 c -5.75 2.58 -12.85 4.68 -19 6 c -2.78 0.6 -6.56 0.85 -9 0 c -3.53 -1.24 -8.12 -4.56 -11 -7 l -2 -4"/><path stroke-linejoin="round" stroke-linecap="round" stroke-width="2" stroke="rgb(52, 58, 64)" fill="none" d="M 138 56 c -0.07 0.05 -3.19 1.78 -4 3 c -1.6 2.4 -2.98 5.94 -4 9 c -0.96 2.87 -1.81 6.17 -2 9 c -0.12 1.86 0.43 4.08 1 6 c 1.09 3.7 2.31 7.61 4 11 c 1.56 3.13 3.87 6.16 6 9 c 0.83 1.11 1.87 2.39 3 3 c 2.27 1.24 8 3 8 3"/><path stroke-linejoin="round" stroke-linecap="round" stroke-width="2" stroke="rgb(52, 58, 64)" fill="none" d="M 162 83 c -0.11 -0.14 -3.65 -6.17 -6 -8 c -3.16 -2.46 -12.9 -5.2 -12 -6 c 2.2 -1.97 21.25 -6.67 31 -11 c 4.93 -2.19 9.73 -5.65 14 -9 c 3.27 -2.56 6.08 -5.85 9 -9 c 1.47 -1.58 3.29 -3.24 4 -5 c 1.12 -2.81 2 -7.18 2 -10 c 0 -1.24 -1.85 -2.8 -2 -4 c -0.14 -1.11 1.15 -2.95 1 -4 c -0.13 -0.92 -1.22 -2.22 -2 -3 c -0.78 -0.78 -2.18 -2.19 -3 -2 c -2.54 0.59 -7.32 2.81 -10 5 c -4.24 3.47 -8.71 8.43 -12 13 c -2.5 3.47 -4.17 7.83 -6 12 c -1.9 4.33 -3.57 8.54 -5 13 c -1.27 3.96 -2.3 7.88 -3 12 c -1.67 9.75 -3.57 19.64 -4 29 c -0.22 4.84 0.93 10.28 2 15 c 0.54 2.37 1.76 5.58 3 7 c 0.67 0.77 3.4 1.66 4 1 c 4.29 -4.7 11.46 -16.79 17 -24 c 0.68 -0.88 2.84 -2.43 3 -2 l 3 18"/><path stroke-linejoin="round" stroke-linecap="round" stroke-width="2" stroke="rgb(52, 58, 64)" fill="none" d="M 199 130 l 1 1"/><path stroke-linejoin="round" stroke-linecap="round" stroke-width="2" stroke="rgb(52, 58, 64)" fill="none" d="M 218 93 c 0.02 0.35 0.39 18.79 1 20 c 0.29 0.57 3.44 -6.78 5 -8 c 0.68 -0.53 4 1 4 1"/><path stroke-linejoin="round" stroke-linecap="round" stroke-width="2" stroke="rgb(52, 58, 64)" fill="none" d="M 223 37 c -1.24 -0.07 -46.38 -3.02 -71 -4 c -27.36 -1.09 -52.21 -2 -79 -2 c -9.18 0 -17.84 0.85 -27 2 c -15.41 1.93 -45 7 -45 7"/><path stroke-linejoin="round" stroke-linecap="round" stroke-width="2" stroke="rgb(52, 58, 64)" fill="none" d="M 327 37 c 0.07 0.63 2.24 23.71 4 36 c 1.67 11.72 6 34 6 34"/><path stroke-linejoin="round" stroke-linecap="round" stroke-width="2" stroke="rgb(52, 58, 64)" fill="none" d="M 259 34 c 0.05 -0.09 1.72 -3.83 3 -5 c 2.08 -1.89 5.16 -3.62 8 -5 c 10.24 -4.99 20.36 -9.75 31 -14 c 6.23 -2.49 12.69 -4.77 19 -6 c 5.39 -1.05 11.27 -1 17 -1 c 5.39 0 10.8 0.05 16 1 c 9.36 1.7 20.01 3.89 28 7 c 2.94 1.15 5.73 4.42 8 7 c 2.61 2.96 5.4 6.62 7 10 c 1.21 2.55 1.67 6.02 2 9 c 0.32 2.91 0.83 6.51 0 9 c -1.28 3.84 -4.05 8.65 -7 12 c -8.7 9.9 -18.86 20.34 -29 29 c -5.56 4.75 -12.33 8.19 -19 12 c -10.09 5.77 -20.41 11.82 -30 16 c -2.55 1.11 -6.39 0.35 -9 1 l -3 2"/><path stroke-linejoin="round" stroke-linecap="round" stroke-width="2" stroke="rgb(52, 58, 64)" fill="none" d="M 418 97 c -0.12 -0.09 -4.71 -4.52 -7 -5 c -3.2 -0.67 -9.11 0.17 -12 1 c -0.87 0.25 -2.12 2.38 -2 3 c 0.12 0.62 2.05 1.89 3 2 c 1.61 0.18 4.24 -0.32 6 -1 c 2.34 -0.9 4.88 -2.52 7 -4 c 1.11 -0.78 2.53 -3.12 3 -3 c 0.46 0.11 0.27 3.05 1 4 c 2.25 2.92 5.76 6.57 9 9 c 3.19 2.39 11 6 11 6"/><path stroke-linejoin="round" stroke-linecap="round" stroke-width="2" stroke="rgb(52, 58, 64)" fill="none" d="M 459 90 c 0.05 0.45 2.96 25.54 3 26 c 0.01 0.07 -1 -2.78 -1 -4 c 0 -1.22 0.39 -2.88 1 -4 c 1.27 -2.33 5 -7 5 -7"/><path stroke-linejoin="round" stroke-linecap="round" stroke-width="2" stroke="rgb(52, 58, 64)" fill="none" d="M 508 48 c -0.04 0.37 -1.56 13.77 -2 21 c -0.59 9.6 -1.24 18.92 -1 28 c 0.09 3.3 1.8 6.85 2 10 c 0.12 1.88 -1 6 -1 6"/><path stroke-linejoin="round" stroke-linecap="round" stroke-width="2" stroke="rgb(52, 58, 64)" fill="none" d="M 522 52 c -0.02 0.16 0.07 6.41 -1 9 c -3.31 8.05 -9.22 16.69 -13 25 c -1.11 2.43 -2 5.76 -2 8 c 0 1.21 1.09 3.22 2 4 c 1.1 0.94 3.45 1.13 5 2 c 3.74 2.1 7.63 4.42 11 7 c 2.19 1.68 4.61 3.84 6 6 c 1.4 2.17 1.76 5.73 3 8 l 3 3"/><path stroke-linejoin="round" stroke-linecap="round" stroke-width="2" stroke="rgb(52, 58, 64)" fill="none" d="M 551 84 c -0.03 0.33 -2.21 13.3 -2 19 c 0.09 2.55 1.76 5.73 3 8 c 0.61 1.13 1.9 2.31 3 3 c 1.39 0.87 5 2 5 2"/><path stroke-linejoin="round" stroke-linecap="round" stroke-width="2" stroke="rgb(52, 58, 64)" fill="none" d="M 538 88 c 0.05 -0.04 2.04 -1.9 3 -2 c 1.89 -0.19 4.86 1.15 7 1 c 2.2 -0.16 4.85 -1.82 7 -2 c 1.51 -0.13 5 1 5 1"/><path stroke-linejoin="round" stroke-linecap="round" stroke-width="2" stroke="rgb(52, 58, 64)" fill="none" d="M 541 115 l 6 0"/><path stroke-linejoin="round" stroke-linecap="round" stroke-width="2" stroke="rgb(52, 58, 64)" fill="none" d="M 585 95 c 0.03 0.35 1.35 17.66 2 20 c 0.12 0.42 2.5 -1.1 3 -2 c 2.13 -3.79 3.67 -9.51 6 -14 c 2 -3.84 4.49 -7.58 7 -11 c 1.09 -1.49 2.58 -2.93 4 -4 c 1.12 -0.84 2.9 -2 4 -2 c 1.1 0 4 1.38 4 2 c 0 0.79 -3.31 2.47 -4 4 c -2.04 4.53 -3.83 10.83 -5 16 c -0.42 1.85 -0.63 4.42 0 6 c 1.14 2.86 3.75 6.57 6 9 c 1.5 1.62 3.92 3.46 6 4 c 4.93 1.29 17 2 17 2"/><path stroke-linejoin="round" stroke-linecap="round" stroke-width="2" stroke="rgb(52, 58, 64)" fill="none" d="M 556 81 c 0.25 -0.05 9.38 -1.68 14 -3 c 4.79 -1.37 14 -5 14 -5"/><path stroke-linejoin="round" stroke-linecap="round" stroke-width="2" stroke="rgb(52, 58, 64)" fill="none" d="M 554 108 c 0.09 -0.03 3.29 -1.57 5 -2 c 3.55 -0.89 11 -2 11 -2"/><path stroke-linejoin="round" stroke-linecap="round" stroke-width="2" stroke="rgb(52, 58, 64)" fill="none" d="M 466 114 c 0 -0.12 -0.32 -4.79 0 -7 c 0.33 -2.3 1.02 -4.9 2 -7 c 1.27 -2.73 3.03 -6.03 5 -8 c 1.68 -1.68 4.66 -3.03 7 -4 c 1.48 -0.62 3.6 -1.16 5 -1 c 1.23 0.14 3.89 1.26 4 2 c 0.14 0.96 -1.83 3.44 -3 5 c -2.85 3.8 -5.94 7.69 -9 11 c -0.78 0.84 -2.27 1.17 -3 2 c -1.45 1.66 -3.84 4.59 -4 6 c -0.09 0.83 1.87 2.39 3 3 c 2.27 1.24 5.75 1.6 8 3 c 2.79 1.75 5.56 4.43 8 7 c 3.91 4.12 11 13 11 13"/></svg>