<?xml version="1.0" encoding="UTF-8" standalone="no"?><!DOCTYPE svg PUBLIC "-//W3C//DTD SVG 1.1//EN" "http://www.w3.org/Graphics/SVG/1.1/DTD/svg11.dtd"><svg xmlns="http://www.w3.org/2000/svg" version="1.1" width="538" height="95"><path stroke-linejoin="round" stroke-linecap="round" stroke-width="2" stroke="rgb(52, 58, 64)" fill="none" d="M 3 32 c 0.11 0.05 3.91 2.37 6 3 c 7.72 2.31 15.88 4.56 24 6 c 6.92 1.23 13.85 1.67 21 2 c 7.46 0.35 14.65 0.66 22 0 c 15.16 -1.36 29.96 -3.42 45 -6 c 6.51 -1.12 12.53 -3.05 19 -5 c 11.76 -3.55 23.18 -6.82 34 -11 c 3.53 -1.36 7.61 -3.81 10 -6 c 1.1 -1.01 1.43 -3.29 2 -5 c 0.44 -1.31 1.45 -3.19 1 -4 c -0.85 -1.54 -3.95 -4.66 -6 -5 c -4.74 -0.79 -12.22 0.17 -18 1 c -3.35 0.48 -6.87 1.62 -10 3 c -5.1 2.24 -10.06 4.98 -15 8 c -11.76 7.2 -22.03 15.46 -34 22 c -20.76 11.34 -41.41 21.52 -63 31 c -11.38 4.99 -25.28 9.57 -35 12 c -1.41 0.35 -5.23 -1.62 -5 -2 c 0.36 -0.6 5.27 -2.44 8 -3 c 6.77 -1.4 13.85 -2.4 21 -3 c 9.11 -0.76 17.84 -1.16 27 -1 c 10.87 0.18 21.04 1.02 32 2 c 8.27 0.74 16.04 1.41 24 3 c 10.54 2.11 31 8 31 8"/><path stroke-linejoin="round" stroke-linecap="round" stroke-width="2" stroke="rgb(52, 58, 64)" fill="none" d="M 148 82 c 0.11 0.02 4.54 1.66 6 1 c 4.12 -1.85 9.47 -6.38 14 -10 c 3.91 -3.13 7.77 -6.41 11 -10 c 2.66 -2.95 4.38 -6.82 7 -10 c 6.85 -8.32 17.83 -21.24 21 -24 c 0.44 -0.39 1.83 2.65 2 4 c 0.75 6.04 0.07 13.98 1 20 c 0.31 2.01 1.82 4.43 3 6 c 0.63 0.84 1.96 1.65 3 2 c 1.75 0.58 4.07 1.09 6 1 c 4.79 -0.23 10.02 -1.85 15 -2 c 5.93 -0.18 12.51 -0.02 18 1 c 3 0.56 5.9 3.01 9 4 c 5.19 1.66 10.76 2.4 16 4 c 2.42 0.74 4.62 2.34 7 3 c 3.5 0.97 7.54 0.96 11 2 c 3.05 0.92 8.49 4.1 9 4 c 0.33 -0.07 -2.97 -3.23 -4 -5 c -1.23 -2.1 -1.73 -4.82 -3 -7 c -3.38 -5.79 -7 -11.74 -11 -17 c -2.24 -2.94 -5.15 -5.51 -8 -8 c -2.52 -2.2 -5.17 -4.38 -8 -6 c -4.06 -2.32 -9.08 -4.97 -13 -6 c -1.67 -0.44 -5.64 0.64 -6 1 c -0.21 0.21 1.92 1.63 3 2 c 8.17 2.82 18.41 4.51 26 8 c 3.96 1.82 8.06 5.62 11 9 c 3.44 3.96 6.19 9.13 9 14 l 6 12"/><path stroke-linejoin="round" stroke-linecap="round" stroke-width="2" stroke="rgb(52, 58, 64)" fill="none" d="M 212 9 c 0.05 0.11 1.76 4.3 3 6 c 1.31 1.8 5 5 5 5"/><path stroke-linejoin="round" stroke-linecap="round" stroke-width="2" stroke="rgb(52, 58, 64)" fill="none" d="M 351 79 c 0.04 -0.3 0.37 -11.79 2 -17 c 3.2 -10.23 8.13 -21.25 13 -31 c 1.97 -3.94 4.99 -7.7 8 -11 c 3.91 -4.29 9.3 -9.74 13 -12 c 1.07 -0.65 4.3 0.1 5 1 c 1.14 1.46 1.66 5.3 2 8 c 0.66 5.24 0.14 11.07 1 16 c 0.41 2.34 1.82 4.84 3 7 c 0.77 1.42 1.86 2.86 3 4 c 1.46 1.46 3.35 3.4 5 4 c 1.55 0.56 4.03 -0.23 6 0 c 3.66 0.43 7.79 0.87 11 2 c 2.07 0.73 4.64 2.48 6 4 c 1.01 1.14 0.97 3.85 2 5 c 1.65 1.83 4.5 3.93 7 5 c 6.44 2.76 14.43 4.32 21 7 c 2.14 0.87 4.32 2.5 6 4 c 1.17 1.04 1.73 3.48 3 4 c 5.01 2.05 13.06 3.02 19 5 c 1.76 0.59 3.24 2.32 5 3 c 4.1 1.59 9.08 2.39 13 4 c 1.44 0.59 2.68 2.56 4 3 c 1.32 0.44 3.62 0.34 5 0 c 1 -0.25 2.69 -1.14 3 -2 c 0.78 -2.15 1 -6.02 1 -9 c 0 -4.29 -0.14 -8.85 -1 -13 c -1.1 -5.33 -2.66 -11.32 -5 -16 c -2.09 -4.19 -5.61 -8.77 -9 -12 c -3.26 -3.11 -7.79 -6.34 -12 -8 c -7.86 -3.1 -17.55 -5.21 -26 -7 c -2.2 -0.47 -7.22 -0.1 -7 0 c 0.83 0.37 16.52 6.12 25 8 c 9.45 2.1 19 2.89 29 4 l 25 2"/><path stroke-linejoin="round" stroke-linecap="round" stroke-width="2" stroke="rgb(52, 58, 64)" fill="none" d="M 468 25 l 7 1"/></svg>