<?xml version="1.0" encoding="UTF-8" standalone="no"?><!DOCTYPE svg PUBLIC "-//W3C//DTD SVG 1.1//EN" "http://www.w3.org/Graphics/SVG/1.1/DTD/svg11.dtd"><svg xmlns="http://www.w3.org/2000/svg" version="1.1" width="596" height="110"><path stroke-linejoin="round" stroke-linecap="round" stroke-width="2" stroke="rgb(52, 58, 64)" fill="none" d="M 56 59 l 1 1"/><path stroke-linejoin="round" stroke-linecap="round" stroke-width="2" stroke="rgb(52, 58, 64)" fill="none" d="M 58 62 c 0.03 -0.33 2 -12.89 2 -19 c 0 -3.89 -0.65 -8.37 -2 -12 c -2.83 -7.62 -6.92 -16.42 -11 -23 c -1.48 -2.38 -4.67 -4.64 -7 -6 c -1.29 -0.75 -3.44 -1 -5 -1 c -1.56 0 -3.46 0.44 -5 1 c -2.02 0.73 -4.51 1.59 -6 3 c -4.1 3.87 -8.87 9.06 -12 14 c -2.96 4.68 -5.05 10.55 -7 16 c -1.38 3.86 -2.54 7.97 -3 12 c -0.86 7.49 -1 15.29 -1 23 c 0 3.7 0.27 7.54 1 11 c 0.56 2.68 1.71 5.58 3 8 c 1.3 2.44 3.09 5.24 5 7 c 1.79 1.64 4.61 3.1 7 4 c 2.73 1.02 6.01 1.7 9 2 c 3.56 0.36 7.39 0.33 11 0 c 3.67 -0.33 7.61 -0.77 11 -2 c 7.32 -2.66 15.19 -6.11 22 -10 c 4.62 -2.64 9.19 -6.39 13 -10 c 2.32 -2.2 4.44 -5.23 6 -8 c 1.33 -2.37 2.35 -5.28 3 -8 c 1 -4.18 1.52 -8.65 2 -13 c 0.18 -1.65 0.34 -3.62 0 -5 c -0.25 -1 -1.74 -3.17 -2 -3 c -0.37 0.25 -1 3.47 -1 5 c 0 1.24 0.49 2.73 1 4 c 2.82 7.05 5.59 14.86 9 21 c 1.27 2.28 3.83 4.26 6 6 c 2.77 2.22 6.4 5 9 6 c 0.99 0.38 3.2 -0.33 4 -1 c 0.87 -0.73 1.75 -2.62 2 -4 c 1.96 -10.93 4.53 -33 5 -35 c 0.07 -0.31 1.9 3.35 2 5 c 0.52 8.6 -0.99 27.12 0 28 c 0.77 0.69 5.81 -13.62 9 -20 c 0.73 -1.46 1.9 -2.9 3 -4 c 0.8 -0.8 2.1 -2 3 -2 c 1.57 0 4.71 0.82 6 2 c 2.2 2.02 4.26 5.87 6 9 c 1.58 2.85 2.4 6.41 4 9 c 0.92 1.49 2.58 3.56 4 4 c 2.26 0.69 6.45 0.71 9 0 c 2.91 -0.81 6.52 -2.96 9 -5 c 2.9 -2.39 5.48 -5.81 8 -9 c 2.55 -3.23 4.57 -7.35 7 -10 c 0.89 -0.97 3.07 -2.13 4 -2 c 0.89 0.13 2.87 2.11 3 3 c 0.13 0.93 -1.1 3.35 -2 4 c -1.03 0.74 -3.41 1.08 -5 1 c -4.41 -0.23 -9.44 -1.01 -14 -2 c -3.06 -0.66 -9 -3.98 -9 -3 c 0 2.94 5.99 19.73 9 27 c 0.38 0.92 1.96 1.69 3 2 c 2.03 0.61 5.11 1.19 7 1 c 0.96 -0.1 2.57 -1.09 3 -2 c 2.44 -5.12 5.04 -12.47 7 -19 c 2.09 -6.96 3.89 -13.95 5 -21 c 0.88 -5.56 1.07 -16 1 -17 c -0.02 -0.21 -2.08 2.05 -2 3 c 0.47 5.61 1.71 14.53 4 21 c 3.21 9.07 8.09 18.67 13 27 c 2.56 4.34 7.02 10.25 10 12 c 1.39 0.82 5.75 -0.91 7 -2 c 0.87 -0.77 0.94 -3.33 1 -5 c 0.27 -8.2 0.28 -16.94 0 -25 c -0.05 -1.33 -1.02 -4.07 -1 -4 c 0.09 0.35 2.9 13.93 5 20 c 0.74 2.12 2.34 4.55 4 6 c 3.32 2.91 7.97 5.88 12 8 c 2.03 1.07 5 2.24 7 2 c 2.96 -0.35 7.15 -2.37 10 -4 c 1.5 -0.86 2.98 -2.54 4 -4 c 1.21 -1.73 2.46 -3.94 3 -6 c 1.38 -5.31 2.78 -16.39 3 -17 c 0.08 -0.22 1 4.03 1 6 c 0 5.2 -0.1 10.93 -1 16 c -0.71 4 -2.41 8.36 -4 12 c -0.63 1.44 -1.9 2.74 -3 4 c -1.24 1.42 -2.56 2.88 -4 4 c -1.49 1.16 -3.27 2.38 -5 3 c -2.73 0.97 -6.03 1.58 -9 2 c -1.61 0.23 -3.41 0.25 -5 0 c -2.63 -0.4 -7.12 -1.12 -8 -2 c -0.48 -0.48 1.09 -3.22 2 -4 c 1.1 -0.94 3.56 -1.07 5 -2 c 3.06 -1.97 6.32 -4.32 9 -7 l 25 -27"/><path stroke-linejoin="round" stroke-linecap="round" stroke-width="2" stroke="rgb(52, 58, 64)" fill="none" d="M 100 15 l 1 1"/><path stroke-linejoin="round" stroke-linecap="round" stroke-width="2" stroke="rgb(52, 58, 64)" fill="none" d="M 302 5 c 0.03 0.21 1.87 8.04 2 12 c 0.2 5.86 -1.34 12.05 -1 18 c 0.65 11.3 2.06 22.77 4 34 c 1.06 6.13 2.81 12.44 5 18 c 1.36 3.47 3.9 7.19 6 10 c 0.65 0.87 2.32 2.2 3 2 c 1.07 -0.31 3.32 -2.53 4 -4 c 1.11 -2.4 1.54 -5.92 2 -9 c 0.9 -6.05 1.67 -11.89 2 -18 c 0.35 -6.41 -0.31 -17.37 0 -19 c 0.07 -0.36 2.39 1.86 3 3 c 1.56 2.89 2.23 6.98 4 10 c 3.79 6.47 8.42 13.5 13 19 c 1.71 2.05 4.95 4.53 7 5 c 1.51 0.35 4.52 -1.07 6 -2 c 0.84 -0.53 1.81 -1.95 2 -3 c 1.01 -5.57 2.12 -12.74 2 -19 c -0.21 -10.54 -1.64 -21.66 -3 -32 l -2 -6"/><path stroke-linejoin="round" stroke-linecap="round" stroke-width="2" stroke="rgb(52, 58, 64)" fill="none" d="M 386 95 c 0.11 -0.05 4.31 -1.74 6 -3 c 2.13 -1.6 4.71 -3.77 6 -6 c 2.12 -3.66 3.66 -8.59 5 -13 c 0.98 -3.23 1.85 -6.75 2 -10 c 0.17 -3.83 -0.34 -8.24 -1 -12 c -0.3 -1.68 -1.11 -3.76 -2 -5 c -0.59 -0.83 -1.97 -1.61 -3 -2 c -1.46 -0.55 -3.55 -1.14 -5 -1 c -1.53 0.15 -4.16 1.02 -5 2 c -0.79 0.93 -1.1 3.43 -1 5 c 0.21 3.44 0.97 7.69 2 11 c 0.54 1.72 1.73 3.65 3 5 c 3.54 3.77 7.79 8.07 12 11 c 3.12 2.17 7.35 4.22 11 5 c 5.15 1.1 12.05 1.43 17 1 c 1.95 -0.17 4.42 -1.74 6 -3 c 1.51 -1.21 3.14 -3.19 4 -5 c 1.99 -4.21 3.95 -9.23 5 -14 c 1.92 -8.75 3.43 -18.06 4 -27 c 0.42 -6.56 0.19 -14.03 -1 -20 c -0.67 -3.33 -3.73 -8.73 -5 -10 c -0.41 -0.41 -2.26 1.17 -3 2 c -1.77 1.99 -4.09 4.49 -5 7 c -2.85 7.85 -5.26 17.54 -7 26 c -0.52 2.51 -0.3 5.36 0 8 c 0.69 6.01 1.65 12.16 3 18 c 0.63 2.73 1.7 5.51 3 8 c 2.33 4.44 5.15 8.96 8 13 c 1.06 1.5 2.56 3.04 4 4 c 1.37 0.91 3.45 1.86 5 2 c 1.75 0.16 4.89 0 6 -1 c 1.63 -1.47 2.89 -5.22 4 -8 c 1.57 -3.92 2.26 -8.34 4 -12 c 1.49 -3.13 3.84 -6.19 6 -9 c 1.13 -1.47 2.52 -3.14 4 -4 c 2.23 -1.3 5.45 -2.73 8 -3 c 3.29 -0.35 7.86 0.01 11 1 c 2.68 0.85 8 5.17 8 5 c 0 -0.19 -5.27 -4.95 -8 -7 c -1.15 -0.86 -2.75 -1.88 -4 -2 c -1.69 -0.17 -5.01 -0.08 -6 1 c -1.97 2.15 -3.84 7.2 -5 11 c -2.47 8.08 -5.1 17.36 -6 25 c -0.32 2.74 0.87 6.42 2 9 c 1.05 2.41 3.12 5.29 5 7 c 1.47 1.33 3.99 2.38 6 3 c 2.12 0.65 4.9 1.16 7 1 c 1.88 -0.14 4.41 -0.99 6 -2 c 1.78 -1.13 3.98 -3.07 5 -5 c 4.6 -8.69 9.38 -19.11 13 -29 c 2.7 -7.4 4.4 -15.19 6 -23 c 1.09 -5.3 1.63 -10.59 2 -16 c 0.3 -4.36 0.24 -8.74 0 -13 c -0.09 -1.67 -0.41 -3.52 -1 -5 c -0.68 -1.69 -2.32 -4.73 -3 -5 c -0.42 -0.17 -2 2.09 -2 3 c 0 1.85 1.68 4.63 2 7 c 1 7.52 1.7 15.15 2 23 c 0.39 10.2 0.65 20.18 0 30 c -0.33 5.01 -3.06 14.63 -3 15 c 0.04 0.24 2.38 -6.24 4 -9 c 1.65 -2.8 3.79 -5.79 6 -8 c 1.59 -1.59 4.19 -3.72 6 -4 c 1.82 -0.28 5.4 0.84 7 2 c 1.58 1.15 2.45 4.21 4 6 c 2.73 3.15 5.77 6.19 9 9 c 4.52 3.93 9.06 8.53 14 11 l 22 7"/></svg>