<?xml version="1.0" encoding="UTF-8" standalone="no"?><!DOCTYPE svg PUBLIC "-//W3C//DTD SVG 1.1//EN" "http://www.w3.org/Graphics/SVG/1.1/DTD/svg11.dtd"><svg xmlns="http://www.w3.org/2000/svg" version="1.1" width="397" height="118"><path stroke-linejoin="round" stroke-linecap="round" stroke-width="2" stroke="rgb(52, 58, 64)" fill="none" d="M 1 95 c 0.05 -0.05 2.29 -1.86 3 -3 c 2.48 -3.98 4.91 -8.44 7 -13 c 5.4 -11.77 10.88 -22.98 15 -35 c 4.25 -12.4 7.14 -25.7 10 -38 c 0.36 -1.56 0.62 -4.69 0 -5 c -0.79 -0.39 -4.88 0.72 -6 2 c -2.85 3.26 -6.41 9.22 -8 14 c -2.21 6.62 -3.28 15.01 -4 22 c -0.23 2.21 0.45 4.78 1 7 c 0.42 1.69 0.92 3.79 2 5 c 4.12 4.6 10.63 9.37 15 14 c 0.95 1.01 1.89 2.74 2 4 c 0.18 1.99 -0.08 5.15 -1 7 c -1.49 2.98 -4.53 6.31 -7 9 c -1.08 1.18 -2.6 2.3 -4 3 c -1.78 0.89 -4.09 2 -6 2 c -5.78 0 -19 -2 -19 -2"/><path stroke-linejoin="round" stroke-linecap="round" stroke-width="2" stroke="rgb(52, 58, 64)" fill="none" d="M 60 20 c -0.23 0.3 -12.93 16.59 -13 17 c -0.05 0.31 7.88 -7.61 12 -11 c 1.47 -1.21 3.31 -2.39 5 -3 c 1.76 -0.64 4.58 -1.43 6 -1 c 1.32 0.4 3.6 2.68 4 4 c 0.43 1.42 -0.45 4.08 -1 6 c -0.77 2.7 -1.75 5.5 -3 8 c -1.38 2.77 -3.22 5.25 -5 8 c -2.04 3.15 -3.75 6.18 -6 9 c -3.1 3.87 -8.91 10.45 -10 11 c -0.44 0.22 -0.92 -4.84 0 -6 c 2.31 -2.89 8.31 -7.05 12 -9 c 1.23 -0.65 3.49 -0.3 5 0 c 1.62 0.32 3.76 1.03 5 2 c 1.48 1.15 3.04 3.23 4 5 c 1.28 2.37 2.54 5.39 3 8 c 0.48 2.75 0.63 6.23 0 9 c -1.61 7.11 -4.36 14.79 -7 22 c -1.02 2.79 -2.31 5.75 -4 8 c -2.13 2.84 -5.27 5.9 -8 8 c -1.3 1 -3.7 2 -5 2 c -0.87 0 -2.41 -1.17 -3 -2 c -0.89 -1.24 -1.89 -3.41 -2 -5 c -0.19 -2.67 0.41 -6.05 1 -9 c 0.74 -3.72 1.67 -7.51 3 -11 c 1.31 -3.43 3.15 -6.64 5 -10 c 3.64 -6.6 7.04 -12.94 11 -19 c 1.66 -2.54 3.68 -5.31 6 -7 l 16 -9"/><path stroke-linejoin="round" stroke-linecap="round" stroke-width="2" stroke="rgb(52, 58, 64)" fill="none" d="M 98 27 c -0.1 0.47 -4.78 18.08 -6 27 c -0.75 5.49 -0.25 11.43 0 17 c 0.08 1.67 0.21 4.21 1 5 c 0.79 0.79 3.81 1.3 5 1 c 0.99 -0.25 2.42 -1.85 3 -3 c 1.89 -3.78 3.75 -8.55 5 -13 c 1.75 -6.21 3.72 -18.81 4 -19 c 0.25 -0.17 -1.18 11.42 -1 17 c 0.15 4.63 0.89 10.22 2 14 c 0.33 1.13 1.93 2.39 3 3 c 1.04 0.59 2.89 1.14 4 1 c 1.2 -0.15 3.26 -0.98 4 -2 c 2.46 -3.35 5.5 -8.51 7 -13 c 2.7 -8.11 5.06 -17.54 6 -26 c 0.67 -6.03 -0.01 -13.05 -1 -19 c -0.61 -3.66 -2.37 -8.35 -4 -11 l -4 -2"/><path stroke-linejoin="round" stroke-linecap="round" stroke-width="2" stroke="rgb(52, 58, 64)" fill="none" d="M 138 75 c 0.14 -0.12 5.59 -4.44 8 -7 c 2.9 -3.08 5.44 -6.48 8 -10 c 2.89 -3.97 5.63 -7.85 8 -12 c 1.62 -2.83 3.94 -8.84 4 -9 c 0.03 -0.07 -1.59 2.64 -2 4 c -0.55 1.85 -0.87 3.99 -1 6 c -0.21 3.31 -0.28 6.67 0 10 c 0.39 4.71 0.89 9.99 2 14 c 0.39 1.42 1.9 2.9 3 4 c 0.8 0.8 2.06 1.88 3 2 c 1.33 0.17 3.58 -0.35 5 -1 c 2.01 -0.91 4.17 -2.5 6 -4 c 1.8 -1.47 3.8 -3.1 5 -5 c 4.25 -6.75 8.39 -14.4 12 -22 c 2.78 -5.86 5.17 -12.05 7 -18 c 0.76 -2.49 1.28 -5.6 1 -8 c -0.33 -2.83 -1.91 -8.89 -3 -9 c -1.23 -0.12 -5.56 5.11 -7 8 c -2.28 4.55 -4.2 10.68 -5 16 c -1.14 7.62 -1.44 16.5 -1 24 c 0.19 3.26 1.72 7.02 3 10 c 0.61 1.43 1.94 3.79 3 4 c 1.54 0.31 5.48 -0.64 7 -2 c 3.73 -3.31 8.17 -9.04 11 -14 c 3.64 -6.37 6.77 -13.93 9 -21 c 1.69 -5.34 2.58 -11.52 3 -17 c 0.22 -2.87 -0.37 -6.26 -1 -9 c -0.31 -1.35 -1.88 -4.28 -2 -4 c -0.37 0.83 -1.79 8.63 -2 13 c -0.46 9.65 0.53 19.24 0 29 c -0.48 8.81 -1.68 17.55 -3 26 c -0.32 2.04 -1.66 6 -2 6 c -0.33 0 -1.41 -4.27 -1 -6 c 1.38 -5.75 4.27 -13.31 7 -19 c 1.05 -2.2 3.11 -4.38 5 -6 c 2.61 -2.24 6.4 -5.54 9 -6 c 2.06 -0.36 7.31 1.5 8 3 c 0.82 1.79 -0.82 7.14 -2 10 c -0.99 2.41 -3.07 5.07 -5 7 c -2.56 2.56 -9.12 6.42 -9 7 c 0.1 0.52 6.84 -1 10 -2 c 3.06 -0.97 6.07 -2.46 9 -4 c 3.47 -1.83 6.99 -3.74 10 -6 c 2.19 -1.64 4.78 -5.54 6 -6 c 0.52 -0.19 1.8 1.99 2 3 c 0.39 1.95 -0.26 4.7 0 7 c 0.41 3.67 0.75 9.89 2 11 c 0.85 0.76 5.3 -1.49 7 -3 c 3.8 -3.38 8.49 -11.02 11 -13 c 0.53 -0.42 2.88 1.17 3 2 c 0.39 2.76 -1.59 11.41 -1 12 c 0.45 0.45 3.92 -4.92 6 -7 c 0.81 -0.81 2.08 -1.87 3 -2 c 1.05 -0.15 3.55 0.15 4 1 c 1.6 3 2.05 11.72 4 14 c 1.07 1.25 5.81 0.82 8 0 c 5.03 -1.89 10.47 -6.23 16 -9 c 3.92 -1.96 8.63 -4.64 12 -5 c 1.98 -0.21 5.95 1.43 7 3 c 1.7 2.55 1.67 8.67 3 12 c 0.46 1.14 2.15 3.28 3 3 c 5.37 -1.79 15.91 -8.92 24 -12 l 18 -4"/><path stroke-linejoin="round" stroke-linecap="round" stroke-width="2" stroke="rgb(52, 58, 64)" fill="none" d="M 304 39 l 1 1"/><path stroke-linejoin="round" stroke-linecap="round" stroke-width="2" stroke="rgb(52, 58, 64)" fill="none" d="M 162 37 l 1 1"/></svg>