<?xml version="1.0" encoding="UTF-8" standalone="no"?><!DOCTYPE svg PUBLIC "-//W3C//DTD SVG 1.1//EN" "http://www.w3.org/Graphics/SVG/1.1/DTD/svg11.dtd"><svg xmlns="http://www.w3.org/2000/svg" version="1.1" width="409" height="124"><path stroke-linejoin="round" stroke-linecap="round" stroke-width="2" stroke="rgb(52, 58, 64)" fill="none" d="M 57 1 l -4 12"/><path stroke-linejoin="round" stroke-linecap="round" stroke-width="2" stroke="rgb(52, 58, 64)" fill="none" d="M 9 49 l 1 1"/><path stroke-linejoin="round" stroke-linecap="round" stroke-width="2" stroke="rgb(52, 58, 64)" fill="none" d="M 15 53 l -3 8"/><path stroke-linejoin="round" stroke-linecap="round" stroke-width="2" stroke="rgb(52, 58, 64)" fill="none" d="M 1 114 l 1 1"/><path stroke-linejoin="round" stroke-linecap="round" stroke-width="2" stroke="rgb(52, 58, 64)" fill="none" d="M 45 29 c 0.07 -0.12 2.32 -5.32 4 -7 c 1.97 -1.97 5.28 -3.94 8 -5 c 2.94 -1.14 10 -2 10 -2"/><path stroke-linejoin="round" stroke-linecap="round" stroke-width="2" stroke="rgb(52, 58, 64)" fill="none" d="M 53 52 l 1 1"/><path stroke-linejoin="round" stroke-linecap="round" stroke-width="2" stroke="rgb(52, 58, 64)" fill="none" d="M 43 82 l 1 1"/><path stroke-linejoin="round" stroke-linecap="round" stroke-width="2" stroke="rgb(52, 58, 64)" fill="none" d="M 125 26 c 0.09 -0.16 4.75 -8.75 5 -9 c 0.12 -0.12 -1 5 -1 5"/><path stroke-linejoin="round" stroke-linecap="round" stroke-width="2" stroke="rgb(52, 58, 64)" fill="none" d="M 174 52 l 1 1"/><path stroke-linejoin="round" stroke-linecap="round" stroke-width="2" stroke="rgb(52, 58, 64)" fill="none" d="M 206 35 c -0.05 0.04 -1.92 1.61 -3 2 c -5.97 2.17 -12.81 3.65 -19 6 c -3.48 1.32 -7.28 3.19 -10 5 c -0.88 0.58 -2.45 2.48 -2 3 c 3.15 3.71 12.89 11.16 19 17 c 1.53 1.47 2.9 3.22 4 5 c 1.53 2.49 3.27 5.43 4 8 c 0.49 1.72 0.69 4.44 0 6 c -1.67 3.75 -5.09 8.46 -8 12 c -1.58 1.92 -4.28 3.14 -6 5 c -2.2 2.38 -3.92 6.3 -6 8 l -5 1"/><path stroke-linejoin="round" stroke-linecap="round" stroke-width="2" stroke="rgb(52, 58, 64)" fill="none" d="M 235 44 c 0.07 -0.05 2.63 -2.39 4 -3 c 1.4 -0.62 3.6 -1.16 5 -1 c 1.23 0.14 3.7 1.11 4 2 c 0.47 1.41 -0.34 4.76 -1 7 c -2.65 9.01 -6.77 18.34 -9 27 c -0.63 2.43 -0.41 5.76 0 8 c 0.18 1.01 1.2 2.84 2 3 c 1.79 0.36 5.54 -0.21 8 -1 c 5.61 -1.79 11.78 -4.08 17 -7 c 5.9 -3.3 15.13 -12.25 17 -12 c 1.27 0.17 -2.2 10.52 -2 14 l 3 3"/><path stroke-linejoin="round" stroke-linecap="round" stroke-width="2" stroke="rgb(52, 58, 64)" fill="none" d="M 323 123 l 1 1"/><path stroke-linejoin="round" stroke-linecap="round" stroke-width="2" stroke="rgb(52, 58, 64)" fill="none" d="M 326 84 l 82 0"/><path stroke-linejoin="round" stroke-linecap="round" stroke-width="2" stroke="rgb(52, 58, 64)" fill="none" d="M 330 87 c -0.51 -0.04 -18.96 -1.59 -29 -2 c -23.83 -0.97 -67.82 -1.73 -69 -2 c -0.96 -0.22 36.69 -1.15 56 -1 c 23.8 0.19 45.51 0.56 69 2 c 15.41 0.95 45 5 45 5"/></svg>