<?xml version="1.0" encoding="UTF-8" standalone="no"?><!DOCTYPE svg PUBLIC "-//W3C//DTD SVG 1.1//EN" "http://www.w3.org/Graphics/SVG/1.1/DTD/svg11.dtd"><svg xmlns="http://www.w3.org/2000/svg" version="1.1" width="612" height="64"><path stroke-linejoin="round" stroke-linecap="round" stroke-width="2" stroke="rgb(52, 58, 64)" fill="none" d="M 109 38 c -0.19 0.04 -7.43 1.84 -11 2 c -3.53 0.16 -7.37 -1.17 -11 -1 c -10.24 0.49 -20.67 2.55 -31 3 c -4.98 0.22 -10.16 -0.01 -15 -1 c -11.32 -2.31 -25.08 -5.21 -34 -9 c -2.54 -1.08 -5.28 -5.85 -6 -8 c -0.32 -0.96 1.1 -2.98 2 -4 c 1.58 -1.77 3.79 -4.17 6 -5 c 7.61 -2.85 17.18 -5.06 26 -7 c 4.96 -1.09 9.93 -1.77 15 -2 c 10.05 -0.45 20.06 -0.47 30 0 c 4.03 0.19 8.38 0.67 12 2 c 5.98 2.19 12.36 5.71 18 9 c 2.19 1.28 4.6 3.08 6 5 c 2.01 2.74 4.47 6.66 5 10 c 1.32 8.37 1.47 20.77 1 28 c -0.07 1.09 -2.01 3 -3 3 c -2.65 0 -7.59 -1.72 -11 -3 c -1.74 -0.65 -3.64 -1.77 -5 -3 c -2.14 -1.95 -4.88 -4.76 -6 -7 c -0.61 -1.21 -0.3 -3.49 0 -5 c 0.32 -1.62 0.85 -3.97 2 -5 c 4.74 -4.26 11.75 -9.8 18 -13 c 6.23 -3.19 14.27 -5.25 21 -7 c 1.82 -0.47 4.15 0.37 6 0 c 2.92 -0.58 9.23 -2.98 9 -3 c -0.5 -0.05 -13.57 0.8 -20 2 c -4.04 0.76 -11.56 3.34 -12 4 c -0.29 0.43 5.26 1.64 8 2 c 12.35 1.65 34.49 3.33 37 4 c 0.54 0.15 -5.73 2.42 -7 4 c -0.95 1.19 -1.86 5.14 -1 6 c 1.84 1.84 7.97 3.99 12 5 c 5 1.25 10.7 2 16 2 c 9.55 0 19.72 -0.78 29 -2 c 3.03 -0.4 6.15 -1.75 9 -3 c 2.42 -1.06 4.91 -2.48 7 -4 c 1.47 -1.07 3.45 -2.62 4 -4 c 0.58 -1.46 0.35 -4.24 0 -6 c -0.26 -1.31 -1.13 -2.99 -2 -4 c -0.97 -1.13 -4.11 -3.04 -4 -3 c 0.62 0.25 17.23 8.88 26 12 c 5.94 2.11 13.43 3.79 19 4 c 2.45 0.09 7.13 -1.5 8 -3 c 0.92 -1.59 -0.43 -6.02 -1 -9 c -0.78 -4.07 -3.2 -11.7 -3 -12 c 0.17 -0.25 3.06 6.25 5 9 c 2 2.83 4.54 5.54 7 8 c 1.16 1.16 3.94 2.94 4 3 c 0.04 0.04 -1.94 -1.62 -3 -2 c -2.42 -0.88 -5.3 -1.68 -8 -2 c -5.57 -0.67 -11.26 -1.11 -17 -1 c -11.47 0.22 -22.65 0.97 -34 2 c -3.4 0.31 -7.12 0.97 -10 2 c -1.41 0.51 -4 2.2 -4 3 c 0 0.9 2.54 3.51 4 4 c 2.86 0.95 7.36 1.19 11 1 c 15.23 -0.8 30.53 -1.79 46 -4 c 17.74 -2.53 38.13 -8.57 52 -10 c 1.89 -0.2 3.89 3.01 6 4 c 3.42 1.61 8.15 3.59 11 4 c 0.88 0.13 2.92 -1.25 3 -2 c 0.17 -1.52 -0.8 -5.4 -2 -7 c -1.42 -1.89 -7.3 -4.95 -7 -5 c 0.48 -0.08 8.58 3.16 13 4 c 7.86 1.49 15.72 2.22 24 3 c 9.95 0.94 19.06 1.59 29 2 c 6.84 0.28 13.89 0.93 20 0 c 4.26 -0.64 9.71 -2.87 13 -5 c 1.7 -1.1 4.22 -4.48 4 -6 c -0.3 -2.11 -3.7 -5.85 -6 -8 c -2.8 -2.63 -6.73 -5.25 -10 -7 c -1.37 -0.73 -3.6 -1.16 -5 -1 c -1.23 0.14 -3.77 1.21 -4 2 c -0.27 0.95 0.91 3.79 2 5 c 4.42 4.91 10.29 10.4 16 15 c 6.35 5.12 14.06 11.24 20 14 c 1.96 0.91 5.68 -0.37 8 -1 c 1.04 -0.28 2.16 -2 3 -2 c 1.04 0 2.65 1.69 4 2 c 2.74 0.63 6.15 0.22 9 1 c 7.97 2.17 16.24 4.9 24 8 c 3.84 1.54 7.18 4.52 11 6 c 6.36 2.46 13.77 5.24 20 6 c 3.92 0.48 8.59 -1.75 13 -2 c 13.41 -0.76 26.32 -0.33 40 -1 l 21 -2"/></svg>