<?xml version="1.0" encoding="UTF-8" standalone="no"?><!DOCTYPE svg PUBLIC "-//W3C//DTD SVG 1.1//EN" "http://www.w3.org/Graphics/SVG/1.1/DTD/svg11.dtd"><svg xmlns="http://www.w3.org/2000/svg" version="1.1" width="559" height="111"><path stroke-linejoin="round" stroke-linecap="round" stroke-width="2" stroke="rgb(52, 58, 64)" fill="none" d="M 43 55 l 1 1"/><path stroke-linejoin="round" stroke-linecap="round" stroke-width="2" stroke="rgb(52, 58, 64)" fill="none" d="M 100 13 c -0.44 0.09 -16.51 3.03 -25 5 c -6.22 1.45 -12.13 2.85 -18 5 c -7.88 2.88 -15.48 6.53 -23 10 c -1.08 0.5 -2.2 1.2 -3 2 c -1.1 1.1 -3.4 3.28 -3 4 c 0.76 1.37 5.18 4.2 8 5 c 10.36 2.96 22.49 4.29 34 7 c 5.88 1.38 11.62 2.98 17 5 c 2.45 0.92 5.55 2.39 7 4 c 1.14 1.26 1.83 4.16 2 6 c 0.13 1.48 -0.15 3.94 -1 5 c -1.43 1.79 -4.51 3.76 -7 5 c -4.67 2.34 -9.86 4.51 -15 6 c -7.49 2.17 -15.43 3.74 -23 5 c -2.25 0.38 -4.69 -0.24 -7 0 c -4.01 0.42 -8.04 1.88 -12 2 c -6.53 0.2 -14.24 0.34 -20 -1 c -3.35 -0.78 -8.43 -4.08 -10 -6 c -0.69 -0.84 0.2 -3.85 1 -5 c 1.23 -1.76 3.83 -3.8 6 -5 c 4.24 -2.33 9.37 -4.46 14 -6 c 2.15 -0.72 4.64 -0.91 7 -1 c 6.34 -0.24 12.53 -0.21 19 0 c 4.1 0.13 8.36 0.32 12 1 c 1.35 0.25 2.88 1.16 4 2 c 1.42 1.07 3.73 2.78 4 4 c 0.26 1.16 -0.92 3.84 -2 5 c -2.84 3.06 -7.11 6.25 -11 9 l -13 8"/><path stroke-linejoin="round" stroke-linecap="round" stroke-width="2" stroke="rgb(52, 58, 64)" fill="none" d="M 132 80 l 1 1"/><path stroke-linejoin="round" stroke-linecap="round" stroke-width="2" stroke="rgb(52, 58, 64)" fill="none" d="M 265 27 c -0.35 0.49 -14.18 19.13 -20 28 c -0.7 1.06 -0.45 2.8 -1 4 c -1.07 2.34 -3.1 4.66 -4 7 c -0.68 1.76 -1 4.12 -1 6 c 0 1.58 0.34 3.84 1 5 c 0.47 0.82 2.2 2.1 3 2 c 1.3 -0.16 3.53 -1.82 5 -3 c 1.78 -1.43 3.53 -3.2 5 -5 c 1.5 -1.83 2.8 -3.9 4 -6 c 1.49 -2.61 2.98 -5.27 4 -8 c 0.94 -2.51 1.6 -5.37 2 -8 c 0.25 -1.59 0.31 -3.44 0 -5 c -0.65 -3.25 -1.59 -6.92 -3 -10 c -2.18 -4.76 -4.89 -10.16 -8 -14 c -2.2 -2.72 -5.83 -4.94 -9 -7 c -3.49 -2.27 -7.21 -4.49 -11 -6 c -4.4 -1.76 -9.22 -2.94 -14 -4 c -4.31 -0.96 -8.64 -1.58 -13 -2 c -2.65 -0.25 -5.34 -0.28 -8 0 c -7.05 0.73 -14.09 1.58 -21 3 c -4.43 0.91 -8.83 2.28 -13 4 c -5.48 2.27 -11.47 4.98 -16 8 c -1.98 1.32 -3.55 3.93 -5 6 c -0.83 1.19 -1.59 2.64 -2 4 c -0.55 1.85 -1.15 4.21 -1 6 c 0.16 1.86 0.75 4.75 2 6 c 3.41 3.41 9.12 7.77 14 10 c 6.2 2.83 13.88 4.42 21 6 c 4.93 1.1 9.93 1.73 15 2 c 7.7 0.41 15.28 0.49 23 0 c 8.11 -0.52 15.81 -1.66 24 -3 c 12.75 -2.09 37 -7 37 -7"/><path stroke-linejoin="round" stroke-linecap="round" stroke-width="2" stroke="rgb(52, 58, 64)" fill="none" d="M 308 58 c -0.09 -0.1 -3.09 -5.1 -5 -6 c -2.98 -1.4 -8.28 -2.15 -12 -2 c -4.08 0.16 -9.17 1.44 -13 3 c -3.1 1.27 -6.84 3.84 -9 6 c -1.08 1.08 -1.7 3.37 -2 5 c -0.33 1.82 -0.48 4.4 0 6 c 0.4 1.33 1.87 3.03 3 4 c 1.01 0.87 2.64 1.55 4 2 c 1.55 0.52 3.47 1 5 1 c 1.24 0 2.69 -0.56 4 -1 c 1.71 -0.57 3.63 -1.09 5 -2 c 1.44 -0.96 3.01 -2.52 4 -4 c 1.56 -2.34 4 -7.14 4 -8 c 0 -0.4 -2.96 0.41 -4 1 c -1.07 0.61 -2.53 1.88 -3 3 c -1.02 2.44 -2 6.6 -2 9 c 0 0.94 1.18 2.53 2 3 c 1.16 0.66 3.42 1 5 1 c 1.88 0 4.28 -0.25 6 -1 c 3.29 -1.44 6.98 -3.63 10 -6 c 6.24 -4.9 17.2 -15.71 18 -16 c 0.46 -0.17 -5.35 7.97 -7 12 c -1.21 2.96 -1.79 6.89 -2 10 c -0.1 1.56 0.13 4.13 1 5 c 1.3 1.3 4.87 2.87 7 3 c 2.58 0.16 6.45 -0.79 9 -2 c 3.38 -1.6 7.04 -4.37 10 -7 c 2.92 -2.59 5.64 -5.85 8 -9 c 1.58 -2.11 2.52 -4.88 4 -7 c 0.78 -1.11 3.05 -3.05 3 -3 c -0.07 0.07 -2.94 2.5 -4 4 c -2.85 4.04 -5.2 8.93 -8 13 c -0.78 1.13 -2.37 1.83 -3 3 c -3.77 7.01 -10.82 22.59 -11 23 c -0.03 0.06 1.55 -1.92 2 -3 c 3.47 -8.38 6.3 -17.62 10 -26 c 1.25 -2.84 4.77 -8.47 5 -8 c 0.4 0.79 -1.23 11.33 -1 16 c 0.07 1.3 1.2 3.6 2 4 c 0.74 0.37 2.87 -0.44 4 -1 c 1.37 -0.68 2.84 -1.84 4 -3 c 3.79 -3.79 7.73 -7.62 11 -12 c 12.54 -16.8 35.41 -49.78 36 -51 c 0.27 -0.57 -15.09 12.84 -21 20 c -4.75 5.76 -8.56 13.36 -12 20 c -1.08 2.07 -1.83 4.82 -2 7 c -0.14 1.82 0.24 4.35 1 6 c 1.08 2.34 3.13 6.63 5 7 c 3.33 0.67 10.28 -1.48 15 -3 c 4.41 -1.42 8.91 -3.6 13 -6 c 5.55 -3.25 10.96 -7.06 16 -11 c 2.57 -2.01 5.31 -4.68 7 -7 c 0.7 -0.97 1.48 -3.42 1 -4 c -0.74 -0.89 -4.04 -1.7 -6 -2 c -2.17 -0.33 -4.9 -0.52 -7 0 c -4.18 1.04 -9.51 3.04 -13 5 c -1.25 0.7 -2.32 2.63 -3 4 c -0.56 1.13 -1 2.78 -1 4 c 0 1.22 0.23 3.23 1 4 c 1.76 1.76 5.27 3.73 8 5 c 2.1 0.98 4.62 1.52 7 2 c 2.63 0.53 5.42 1 8 1 c 2.27 0 4.86 -0.42 7 -1 c 1.36 -0.37 2.69 -1.25 4 -2 c 1.05 -0.6 2.78 -1.24 3 -2 c 0.31 -1.07 -0.31 -3.62 -1 -5 c -1.17 -2.33 -3.06 -5.06 -5 -7 c -2.89 -2.89 -9.07 -6.14 -10 -8 c -0.41 -0.82 2.54 -2.98 4 -4 c 1.73 -1.21 3.98 -2.27 6 -3 c 1.54 -0.56 3.6 -0.38 5 -1 c 1.37 -0.61 2.55 -2.28 4 -3 c 4.41 -2.2 9.21 -4.45 14 -6 c 5.5 -1.77 12.1 -3.55 17 -4 c 1.51 -0.14 4.32 1.05 5 2 c 0.63 0.88 0.28 3.45 0 5 c -0.36 1.95 -1.04 4.18 -2 6 c -2.31 4.38 -5.11 8.6 -8 13 c -4.35 6.63 -8.34 13.01 -13 19 c -2.29 2.94 -5.54 5.1 -8 8 c -4.95 5.85 -13.28 17.23 -14 18 c -0.13 0.14 0.31 -2.94 1 -4 c 3.33 -5.12 7.48 -11.22 12 -16 c 7.04 -7.45 15.21 -14.51 23 -21 c 2.02 -1.68 4.95 -2.43 7 -4 c 2.15 -1.66 3.78 -4.31 6 -6 c 6.04 -4.59 12.51 -8.85 19 -13 c 1.89 -1.21 3.91 -2.08 6 -3 c 3.36 -1.47 6.67 -3.17 10 -4 c 3.11 -0.78 8.15 -1.51 10 -1 c 0.76 0.21 1.3 2.98 1 4 c -0.53 1.78 -2.44 4.3 -4 6 c -1.99 2.17 -4.43 4.46 -7 6 c -7.22 4.33 -15.14 8.78 -23 12 c -6.62 2.71 -14.33 4.96 -21 6 c -3.37 0.53 -7.92 -0.18 -11 -1 c -1.39 -0.37 -3.28 -1.72 -4 -3 c -3.17 -5.61 -8.95 -20.38 -9 -20 c -0.06 0.51 4.83 18.69 8 28 c 2.58 7.6 5.72 14.93 9 22 c 1 2.14 2.5 4.17 4 6 c 1.47 1.8 3.2 3.53 5 5 c 1.83 1.5 3.86 3.01 6 4 c 6.39 2.95 13.25 6.38 20 8 c 9.49 2.28 19.77 3.1 30 4 l 27 1"/></svg>