<?xml version="1.0" encoding="UTF-8" standalone="no"?><!DOCTYPE svg PUBLIC "-//W3C//DTD SVG 1.1//EN" "http://www.w3.org/Graphics/SVG/1.1/DTD/svg11.dtd"><svg xmlns="http://www.w3.org/2000/svg" version="1.1" width="519" height="71"><path stroke-linejoin="round" stroke-linecap="round" stroke-width="2" stroke="rgb(52, 58, 64)" fill="none" d="M 70 22 c -0.12 0.09 -4.6 3.8 -7 5 c -2.03 1.02 -4.92 0.96 -7 2 c -4.36 2.18 -8.47 5.73 -13 8 c -5.46 2.73 -11.49 5.83 -17 7 c -4.8 1.02 -11.6 0.66 -16 0 c -1.38 -0.21 -3.36 -1.84 -4 -3 c -0.78 -1.41 -1.13 -4.15 -1 -6 c 0.18 -2.5 0.87 -5.75 2 -8 c 1.37 -2.73 3.77 -5.61 6 -8 c 2.37 -2.54 5.16 -4.95 8 -7 c 3.12 -2.25 6.54 -4.27 10 -6 c 3.2 -1.6 6.67 -3.17 10 -4 c 3.11 -0.78 6.86 -1.27 10 -1 c 4.17 0.36 10.43 1.53 13 3 c 0.98 0.56 1.13 3.49 1 5 c -0.18 2.15 -0.69 5.25 -2 7 c -6.01 8.01 -14.11 17.11 -22 25 c -7.22 7.22 -14.99 13.89 -23 20 c -4.6 3.51 -12.03 7.95 -15 9 c -0.61 0.22 -2.14 -2.15 -2 -3 c 0.39 -2.31 2.28 -6.36 4 -9 c 2.48 -3.82 5.69 -7.69 9 -11 c 3.97 -3.97 8.41 -7.77 13 -11 c 4.35 -3.06 9.19 -6.16 14 -8 c 6.15 -2.35 14.03 -4.6 20 -5 c 3.02 -0.2 6.94 1.64 10 3 c 2.76 1.23 5.52 3.1 8 5 l 9 8"/><path stroke-linejoin="round" stroke-linecap="round" stroke-width="2" stroke="rgb(52, 58, 64)" fill="none" d="M 114 15 c -0.09 0.03 -3.32 1.77 -5 2 c -5.3 0.72 -11.86 0.27 -17 1 c -1.35 0.19 -4.19 1.37 -4 2 c 0.45 1.49 4.43 6.34 7 8 c 2.52 1.63 6.71 2.59 10 3 c 4.41 0.55 13.1 -0.16 14 0 c 0.23 0.04 -3.17 1.74 -3 2 c 0.25 0.37 3.55 1.3 5 1 c 4.22 -0.89 9.87 -4.08 14 -5 c 1.15 -0.25 2.85 0.43 4 1 c 2.01 1.01 3.93 3.17 6 4 c 2.64 1.06 5.92 1.56 9 2 c 6.38 0.91 13.53 2.22 19 2 l 6 -3"/><path stroke-linejoin="round" stroke-linecap="round" stroke-width="2" stroke="rgb(52, 58, 64)" fill="none" d="M 159 10 c -0.1 0.02 -6.1 1.03 -6 1 c 0.43 -0.14 18.62 -6.12 25 -7 c 1.23 -0.17 3.5 1.87 4 3 c 0.6 1.35 0.37 4.15 0 6 c -0.58 2.92 -1.65 6.19 -3 9 c -2.61 5.44 -5.71 10.95 -9 16 c -1.65 2.53 -6.14 7.09 -6 7 c 0.27 -0.17 9.14 -8.24 14 -12 c 2.49 -1.92 5.2 -3.6 8 -5 c 3.86 -1.93 8.54 -4.42 12 -5 c 1.69 -0.28 5.13 0.99 6 2 c 0.69 0.8 0.49 3.66 0 5 c -0.7 1.93 -4.31 6.12 -4 6 c 0.86 -0.33 11.36 -7.94 17 -11 c 2.03 -1.1 4.7 -1.65 7 -2 c 1.89 -0.29 4.45 -0.56 6 0 c 1.65 0.6 4.03 2.55 5 4 c 0.77 1.15 1 3.47 1 5 c 0 1.24 -1.42 3.93 -1 4 c 0.77 0.13 5 -1.67 7 -3 c 2.79 -1.86 5.47 -4.47 8 -7 c 2.86 -2.86 8 -7.87 8 -9 c 0 -0.75 -5.51 -0.36 -8 0 c -1.97 0.28 -5.05 0.91 -6 2 c -0.92 1.05 -1.54 4.79 -1 6 c 0.51 1.16 3.39 3.04 5 3 c 9.47 -0.24 22.79 -2.13 34 -4 c 4.77 -0.79 9.45 -3.04 14 -4 c 1.56 -0.33 3.89 -0.47 5 0 c 0.8 0.34 1.25 3.05 2 3 c 2.81 -0.19 9.69 -1.72 13 -4 c 5.51 -3.8 14.65 -13.92 16 -16 c 0.3 -0.47 -4 -1.74 -5 -1 c -5.94 4.4 -14.95 13.71 -22 21 c -2.64 2.73 -5.19 6.05 -7 9 c -0.66 1.07 -1.49 3.88 -1 4 c 1.1 0.28 6.01 -1.69 9 -2 c 3.24 -0.34 7.09 -0.65 10 0 c 2.6 0.58 5.33 3.11 8 4 l 7 1"/><path stroke-linejoin="round" stroke-linecap="round" stroke-width="2" stroke="rgb(52, 58, 64)" fill="none" d="M 364 5 c 0.11 0.16 3.79 6.39 6 9 c 1.31 1.54 3.22 2.9 5 4 c 2.49 1.53 5.33 3.26 8 4 c 3 0.83 6.75 1.13 10 1 c 4.9 -0.2 10.2 -0.96 15 -2 c 2.71 -0.59 5.96 -1.54 8 -3 c 2.21 -1.58 5.7 -5.34 6 -7 c 0.19 -1.02 -2.59 -3.75 -4 -4 c -3.26 -0.58 -9.24 -0.25 -13 1 c -5.55 1.85 -11.34 5.66 -17 9 c -9.38 5.55 -17.86 11.62 -27 17 c -2.18 1.28 -4.65 2.28 -7 3 c -1.88 0.58 -4.09 1 -6 1 c -1.91 0 -5.9 -0.3 -6 -1 c -0.13 -0.9 3.16 -4.77 5 -6 c 1.72 -1.14 4.7 -1.71 7 -2 c 2.85 -0.36 6.71 -1.05 9 0 c 4.73 2.17 11.47 6.94 15 11 c 2.47 2.84 3.64 7.93 5 12 c 0.96 2.89 0.87 7.55 2 9 c 0.61 0.79 3.9 0.55 5 0 l 3 -4"/><path stroke-linejoin="round" stroke-linecap="round" stroke-width="2" stroke="rgb(52, 58, 64)" fill="none" d="M 430 17 c -0.09 0.05 -3.31 2.32 -5 3 c -1.48 0.59 -5.18 0.82 -5 1 c 0.29 0.29 5.35 1.8 8 2 c 5.79 0.45 12.48 -0.48 18 0 c 1.65 0.14 4.6 1.2 5 2 c 0.33 0.66 -2.54 3.58 -2 4 c 1.38 1.07 7.61 3.19 11 3 c 7.28 -0.42 18.18 -2.39 24 -5 c 2.24 -1 3.94 -5.34 5 -8 c 0.8 -1.99 1 -4.77 1 -7 c 0 -1.92 -0.22 -4.59 -1 -6 c -0.64 -1.16 -2.68 -2.56 -4 -3 c -1.32 -0.44 -3.91 -0.61 -5 0 c -1.4 0.78 -3.22 3.29 -4 5 c -0.74 1.62 -1.13 4.15 -1 6 c 0.18 2.5 0.71 6.06 2 8 c 1.67 2.5 5.08 5.54 8 7 c 5.83 2.91 13.39 5.4 20 7 l 13 1"/></svg>