<?xml version="1.0" encoding="UTF-8" standalone="no"?><!DOCTYPE svg PUBLIC "-//W3C//DTD SVG 1.1//EN" "http://www.w3.org/Graphics/SVG/1.1/DTD/svg11.dtd"><svg xmlns="http://www.w3.org/2000/svg" version="1.1" width="482" height="102"><path stroke-linejoin="round" stroke-linecap="round" stroke-width="2" stroke="rgb(52, 58, 64)" fill="none" d="M 216 11 c -0.17 0.14 -7.06 4.93 -10 8 c -12.02 12.55 -23.45 25.3 -35 39 c -8.64 10.25 -15.78 20.23 -24 31 c -1.8 2.36 -3.6 4.6 -5 7 c -0.88 1.5 -1.93 5.26 -2 5 c -0.21 -0.76 0.35 -11.34 -1 -16 c -1.43 -4.94 -4.64 -10.94 -8 -15 c -4.2 -5.07 -10.48 -9.97 -16 -14 c -2.9 -2.12 -6.59 -3.86 -10 -5 c -4.37 -1.46 -9.34 -2.59 -14 -3 c -6.5 -0.57 -13.46 -0.56 -20 0 c -5 0.43 -10.12 1.58 -15 3 c -5.45 1.58 -10.73 3.62 -16 6 c -8.96 4.05 -17.41 8.34 -26 13 c -3.2 1.73 -6.19 3.84 -9 6 c -1.47 1.13 -3.69 2.93 -4 4 c -0.2 0.68 1.16 2.62 2 3 c 1.66 0.74 4.83 1.22 7 1 c 4.1 -0.41 8.51 -2.26 13 -3 c 16.32 -2.67 31.44 -5.04 48 -7 c 15.42 -1.82 29.46 -2.86 45 -4 c 7.92 -0.58 15.05 -0.92 23 -1 c 27.61 -0.27 52.99 0.3 80 0 c 3.06 -0.03 6.16 -0.29 9 -1 c 3.67 -0.92 8.47 -2.19 11 -4 c 1.45 -1.04 2.58 -4.04 3 -6 c 0.5 -2.33 -0.38 -5.41 0 -8 c 0.93 -6.28 4 -17.05 4 -19 c 0 -0.45 -3.06 1.06 -4 2 c -1.8 1.8 -3.4 4.52 -5 7 c -5.26 8.16 -10.13 15.72 -15 24 c -1.92 3.27 -3.55 6.56 -5 10 c -1.23 2.92 -2.45 6.07 -3 9 c -0.41 2.16 -0.49 5.03 0 7 c 0.41 1.64 1.78 3.93 3 5 c 1.13 0.98 3.51 2 5 2 c 2.01 0 4.72 -1.15 7 -2 c 3.08 -1.16 6.15 -2.42 9 -4 c 3.13 -1.74 6.11 -3.75 9 -6 c 6.25 -4.86 12.99 -9.49 18 -15 c 4.63 -5.09 11.7 -17.77 12 -18 c 0.24 -0.18 -5.95 9.88 -8 15 c -1.87 4.68 -3.29 10.5 -4 15 c -0.19 1.2 0.26 3.47 1 4 c 1.09 0.78 4.52 1.62 6 1 c 3.85 -1.62 8.76 -5.77 13 -9 c 2.85 -2.17 5.46 -4.46 8 -7 c 4.57 -4.57 9.15 -9.05 13 -14 c 3.07 -3.95 7.84 -12.64 8 -13 c 0.06 -0.13 -2.85 2.52 -4 4 c -3.5 4.5 -6.83 9.14 -10 14 c -1.9 2.91 -3.64 5.87 -5 9 c -1.97 4.52 -4.61 10.28 -5 14 c -0.15 1.46 1.93 5.07 3 5 c 2.46 -0.16 8.52 -3.62 12 -6 c 2.57 -1.76 4.7 -4.52 7 -7 c 2.14 -2.31 4.43 -4.47 6 -7 c 2.66 -4.29 6.89 -13.75 7 -14 c 0.03 -0.06 -1.57 1.93 -2 3 c -1.5 3.76 -2.87 7.95 -4 12 c -0.54 1.95 -1.17 4.31 -1 6 c 0.12 1.25 1.04 3.68 2 4 c 2.15 0.72 6.83 0.37 10 0 c 2.31 -0.27 5.08 -0.85 7 -2 c 4.33 -2.6 12.25 -10.11 13 -10 c 0.57 0.08 -4.51 7.38 -6 11 c -0.72 1.76 -1 4.12 -1 6 c 0 1.58 0.18 3.94 1 5 c 1.16 1.49 3.97 3.28 6 4 c 2.27 0.81 5.38 1 8 1 c 3.27 0 6.81 -0.23 10 -1 c 6.33 -1.53 13.22 -3.55 19 -6 c 2.5 -1.06 4.96 -3.13 7 -5 c 1.85 -1.7 3.68 -3.92 5 -6 c 0.91 -1.43 1.87 -3.43 2 -5 c 0.17 -2.06 -0.35 -4.88 -1 -7 c -0.62 -2.01 -1.65 -4.65 -3 -6 c -1.62 -1.62 -4.65 -3.38 -7 -4 c -3.51 -0.92 -8.44 -1.49 -12 -1 c -3.18 0.43 -7 2.22 -10 4 c -5.8 3.44 -12.3 7.46 -17 12 c -4.2 4.05 -8.59 10.39 -11 15 c -0.78 1.49 -0.6 4.65 0 6 c 0.5 1.13 2.59 2.41 4 3 c 2.33 0.97 5.41 1.88 8 2 c 4.09 0.19 8.56 -0.46 13 -1 c 9.62 -1.17 18.46 -2.22 28 -4 c 21.7 -4.05 41.36 -8.67 63 -13 c 2.38 -0.48 5.09 -1.32 7 -1 c 1.58 0.26 4.56 2.11 5 3 c 0.27 0.55 -1.15 2.3 -2 3 c -2.56 2.1 -5.94 4.89 -9 6 c -3.73 1.36 -10.77 2.64 -13 2 c -1.03 -0.29 -1.52 -4.34 -1 -6 c 2.13 -6.85 5.99 -16.12 10 -23 c 2.72 -4.67 6.95 -9.1 11 -13 l 17 -14"/><path stroke-linejoin="round" stroke-linecap="round" stroke-width="2" stroke="rgb(52, 58, 64)" fill="none" d="M 179 20 c 0.04 -0.05 1.18 -2.29 2 -3 c 1.33 -1.14 3.23 -2.31 5 -3 c 5.75 -2.25 11.9 -4.37 18 -6 c 3.91 -1.04 7.9 -1.71 12 -2 c 29.38 -2.08 87 -5 87 -5"/></svg>