<?xml version="1.0" encoding="UTF-8" standalone="no"?><!DOCTYPE svg PUBLIC "-//W3C//DTD SVG 1.1//EN" "http://www.w3.org/Graphics/SVG/1.1/DTD/svg11.dtd"><svg xmlns="http://www.w3.org/2000/svg" version="1.1" width="312" height="74"><path stroke-linejoin="round" stroke-linecap="round" stroke-width="2" stroke="rgb(52, 58, 64)" fill="none" d="M 2 34 c 0.05 -0.05 3.1 -2.21 3 -3 c -0.15 -1.19 -4 -5 -4 -5"/><path stroke-linejoin="round" stroke-linecap="round" stroke-width="2" stroke="rgb(52, 58, 64)" fill="none" d="M 34 21 c -0.05 0.23 -1.73 8.78 -3 13 c -0.72 2.41 -1.84 4.69 -3 7 c -1.9 3.8 -3.68 7.91 -6 11 c -1.44 1.92 -5.28 5.24 -6 5 c -0.65 -0.22 -0.39 -4.81 0 -7 c 0.58 -3.26 1.63 -6.81 3 -10 c 3.63 -8.48 7.51 -17.59 12 -25 c 1.83 -3.02 5.14 -5.64 8 -8 c 2.74 -2.26 6.17 -4.79 9 -6 c 1.31 -0.56 4.43 -0.76 5 0 c 0.91 1.22 1.13 5.44 1 8 c -0.19 3.86 -0.32 9.2 -2 12 c -1.77 2.95 -6.52 5.54 -10 8 c -2.19 1.55 -4.58 3.11 -7 4 c -3.71 1.37 -8.22 2.6 -12 3 l -7 -1"/><path stroke-linejoin="round" stroke-linecap="round" stroke-width="2" stroke="rgb(52, 58, 64)" fill="none" d="M 59 43 c -0.12 0.02 -5.67 -0.09 -7 1 c -1.68 1.37 -4 6.65 -4 8 c 0 0.62 2.94 1.23 4 1 c 1.49 -0.33 4.27 -1.84 5 -3 c 0.62 -1 0.36 -4.76 0 -5 c -0.31 -0.21 -3 2.91 -3 3 c 0 0.08 2.53 -1.18 3 -2 c 0.66 -1.16 1.33 -5 1 -5 c -0.46 0 -3.86 3.3 -5 5 c -0.66 0.99 -1.2 2.87 -1 4 c 0.38 2.08 1.67 5.33 3 7 c 1.02 1.28 3.47 2.69 5 3 c 1.34 0.27 4.12 -0.27 5 -1 c 0.71 -0.59 0.64 -3.88 1 -4 c 0.32 -0.11 1.27 2.91 2 3 c 1.28 0.16 4.72 -0.72 6 -2 c 4.88 -4.88 11.88 -13.87 15 -19 c 0.53 -0.87 -0.88 -4.23 -1 -4 c -0.48 0.88 -3.85 10.17 -5 15 c -0.44 1.83 -0.19 4.07 0 6 c 0.13 1.32 0.28 3.73 1 4 l 7 -1"/><path stroke-linejoin="round" stroke-linecap="round" stroke-width="2" stroke="rgb(52, 58, 64)" fill="none" d="M 78 43 c 0.1 0 4.03 0.23 6 0 c 3.66 -0.43 11 -2 11 -2"/><path stroke-linejoin="round" stroke-linecap="round" stroke-width="2" stroke="rgb(52, 58, 64)" fill="none" d="M 156 24 c -0.05 -0.04 -2 -1.75 -3 -2 c -1.38 -0.34 -3.4 -0.18 -5 0 c -1.32 0.15 -2.83 0.42 -4 1 c -3.31 1.65 -7.65 3.51 -10 6 c -2.8 2.97 -5.42 7.97 -7 12 c -1.27 3.24 -1.8 7.52 -2 11 c -0.11 1.89 0.42 4.25 1 6 c 0.35 1.04 1.19 2.95 2 3 c 3.17 0.2 9.69 -0.92 14 -2 c 2.04 -0.51 4.68 -1.58 6 -3 c 2.57 -2.77 4.42 -7.5 7 -11 l 7 -8"/><path stroke-linejoin="round" stroke-linecap="round" stroke-width="2" stroke="rgb(52, 58, 64)" fill="none" d="M 157 32 c -0.07 0.28 -2.24 10.92 -4 16 c -1.19 3.44 -5.42 10.14 -5 10 c 0.72 -0.24 11.36 -12.27 14 -13 c 1.23 -0.34 2.5 5.86 4 8 c 0.6 0.86 1.99 1.8 3 2 c 1.95 0.39 7 0 7 0"/><path stroke-linejoin="round" stroke-linecap="round" stroke-width="2" stroke="rgb(52, 58, 64)" fill="none" d="M 189 51 c -0.02 -0.09 -0.32 -4.46 -1 -5 c -0.55 -0.44 -3.17 0.27 -4 1 c -1.45 1.27 -3.69 4.28 -4 6 c -0.23 1.28 1.13 4.63 2 5 c 0.87 0.37 3.9 -1.06 5 -2 c 0.91 -0.78 1.44 -4.09 2 -4 c 0.8 0.13 2.66 4.41 4 5 c 1.06 0.47 3.84 -0.34 5 -1 c 0.82 -0.47 2 -2.21 2 -3 c 0 -0.79 -1.85 -3.32 -2 -3 c -0.97 2.16 -7 22.58 -7 23 c 0 0.39 4.24 -14.56 7 -21 c 1.07 -2.5 3.23 -5.01 5 -7 c 0.74 -0.83 2.08 -1.87 3 -2 l 4 1"/><path stroke-linejoin="round" stroke-linecap="round" stroke-width="2" stroke="rgb(52, 58, 64)" fill="none" d="M 203 55 l 1 1"/><path stroke-linejoin="round" stroke-linecap="round" stroke-width="2" stroke="rgb(52, 58, 64)" fill="none" d="M 207 53 c 0.14 -0.07 6.32 -3.83 8 -4 c 0.68 -0.07 1.2 2.2 2 3 c 1.1 1.1 2.75 2.72 4 3 c 1.28 0.28 3.85 -0.23 5 -1 c 1.45 -0.97 2.58 -3.93 4 -5 c 0.92 -0.69 2.81 -1.24 4 -1 c 8.93 1.84 20.02 6.24 30 8 c 6.76 1.19 14.65 1.24 21 1 c 1.63 -0.06 3.54 -1.05 5 -2 c 6.98 -4.57 21 -15 21 -15"/></svg>