<?xml version="1.0" encoding="UTF-8" standalone="no"?><!DOCTYPE svg PUBLIC "-//W3C//DTD SVG 1.1//EN" "http://www.w3.org/Graphics/SVG/1.1/DTD/svg11.dtd"><svg xmlns="http://www.w3.org/2000/svg" version="1.1" width="542" height="157"><path stroke-linejoin="round" stroke-linecap="round" stroke-width="2" stroke="rgb(52, 58, 64)" fill="none" d="M 1 48 c 0.05 0.11 1.74 4.42 3 6 c 1.21 1.51 3.27 3.34 5 4 c 2.17 0.84 5.45 1.13 8 1 c 3.53 -0.19 7.51 -0.94 11 -2 c 4.06 -1.23 8.1 -3.05 12 -5 c 4.16 -2.08 8.59 -4.24 12 -7 c 3.3 -2.67 6.64 -6.46 9 -10 c 2.12 -3.18 3.8 -7.25 5 -11 c 1.42 -4.45 2.56 -9.61 3 -14 c 0.19 -1.86 -0.42 -4.25 -1 -6 c -0.35 -1.04 -1.75 -3.25 -2 -3 c -0.5 0.5 -1.69 4.61 -2 7 c -2.68 20.83 -4.3 41.43 -7 63 c -0.73 5.87 -1.61 11.32 -3 17 c -2.68 10.94 -9 32 -9 32"/><path stroke-linejoin="round" stroke-linecap="round" stroke-width="2" stroke="rgb(52, 58, 64)" fill="none" d="M 24 75 c 0.04 0.05 1.2 2.2 2 3 c 1.43 1.43 3.22 3.11 5 4 c 2.64 1.32 5.99 2.43 9 3 c 3.83 0.73 8 1 12 1 c 4.33 0 8.8 -0.22 13 -1 c 4.69 -0.87 9.48 -2.28 14 -4 c 5.14 -1.95 10.08 -4.36 15 -7 c 4.54 -2.43 8.89 -5 13 -8 c 4.58 -3.35 9.2 -7.02 13 -11 c 3.04 -3.18 5.73 -7.17 8 -11 c 2.01 -3.41 3.91 -7.36 5 -11 c 0.82 -2.73 1.18 -6.27 1 -9 c -0.13 -1.9 -0.82 -5.06 -2 -6 c -1.53 -1.23 -5.7 -2.26 -8 -2 c -3 0.33 -7.31 2.12 -10 4 c -3.53 2.47 -7.14 6.38 -10 10 c -3.37 4.26 -6.57 9.14 -9 14 c -2.49 4.99 -4.66 10.63 -6 16 c -1.27 5.07 -1.82 10.71 -2 16 c -0.15 4.6 -0.02 9.76 1 14 c 0.88 3.65 2.74 8.44 5 11 c 2.18 2.47 6.69 4.78 10 6 c 2.57 0.95 6.37 1.33 9 1 c 2.21 -0.28 5.4 -1.52 7 -3 c 2.27 -2.1 4.84 -6.01 6 -9 c 0.97 -2.51 1.16 -6.17 1 -9 c -0.16 -2.88 -1.09 -6.1 -2 -9 c -0.75 -2.39 -1.86 -4.72 -3 -7 c -0.87 -1.75 -1.82 -3.65 -3 -5 c -1.01 -1.15 -4.08 -3.03 -4 -3 c 0.13 0.04 4.66 3.1 7 4 c 1.76 0.68 4.09 1 6 1 c 1.91 0 4 -0.54 6 -1 c 2.39 -0.55 5.49 -0.7 7 -2 c 2.54 -2.18 6.51 -7.4 7 -10 c 0.29 -1.53 -2.7 -5.19 -4 -6 c -0.75 -0.47 -2.87 0.44 -4 1 c -1.37 0.68 -3.13 1.84 -4 3 c -0.93 1.25 -1.68 3.38 -2 5 c -0.3 1.51 -0.3 3.49 0 5 c 0.32 1.62 1.02 4.84 2 5 c 1.9 0.32 7.48 -3.17 10 -3 c 1.55 0.1 4.34 2.54 5 4 c 0.72 1.59 0.44 4.79 0 7 c -1.5 7.5 -4.31 15.16 -6 23 c -1.01 4.66 -0.79 9.49 -2 14 c -2.43 9.07 -6.19 17.7 -9 27 c -1.63 5.39 -3.62 15.47 -4 16 c -0.21 0.29 -0.91 -5.94 -1 -9 c -0.25 -8.1 -0.75 -16.09 0 -24 c 0.91 -9.7 2.9 -19.42 5 -29 c 0.9 -4.12 2.41 -8.03 4 -12 c 1.8 -4.49 3.5 -9.11 6 -13 c 3.36 -5.22 7.83 -10.6 12 -15 c 1.57 -1.65 5.25 -4.25 6 -4 c 0.62 0.21 0.83 4.52 0 6 c -4.38 7.79 -13.14 17.82 -18 26 c -0.93 1.57 -1 4.15 -1 6 c 0 1.25 0.29 3.29 1 4 c 0.93 0.93 3.37 1.73 5 2 c 2.12 0.35 4.74 0.28 7 0 c 2.98 -0.37 6.13 -1.04 9 -2 c 3.06 -1.02 6.29 -2.34 9 -4 c 3.14 -1.92 6.51 -4.51 9 -7 c 1.27 -1.27 2.71 -5.19 3 -5 c 0.35 0.23 -0.61 5.04 0 7 c 0.9 2.88 3.15 6.74 5 9 c 0.8 0.98 2.7 1.71 4 2 c 1.46 0.32 3.94 0.71 5 0 c 2.26 -1.5 5.24 -5.27 7 -8 c 1.05 -1.63 1.05 -4.2 2 -6 l 7 -11"/><path stroke-linejoin="round" stroke-linecap="round" stroke-width="2" stroke="rgb(52, 58, 64)" fill="none" d="M 233 44 c -0.02 0.1 -1.63 4.57 -1 6 c 1.32 3.01 4.86 7.91 8 10 c 5.05 3.37 12.66 6.14 19 8 c 4.65 1.37 10.04 1.83 15 2 c 4.93 0.16 10.51 0.2 15 -1 c 4.94 -1.32 11.02 -4.16 15 -7 c 2.4 -1.72 4.54 -5.27 6 -8 c 1.06 -1.99 1.88 -4.75 2 -7 c 0.2 -3.72 -0.72 -11.15 -1 -12 c -0.09 -0.26 -1.74 1.96 -2 3 c -0.65 2.61 -1.11 6.01 -1 9 c 0.56 15.9 2.5 31.84 3 48 c 0.17 5.39 -0.41 10.56 -1 16 c -0.78 7.19 -1.7 14.26 -3 21 c -0.33 1.71 -1.07 4.07 -2 5 l -4 1"/><path stroke-linejoin="round" stroke-linecap="round" stroke-width="2" stroke="rgb(52, 58, 64)" fill="none" d="M 280 93 c 0.09 0.05 3.27 2.34 5 3 c 2.44 0.94 5.29 1.59 8 2 c 3.95 0.59 8.04 1.19 12 1 c 9.93 -0.47 20.17 -1.44 30 -3 c 4.75 -0.76 9.9 -1.89 14 -4 c 7.73 -3.97 16.27 -9.53 23 -15 c 3.48 -2.83 6.84 -7.17 9 -11 c 1.93 -3.41 3.37 -8.08 4 -12 c 0.65 -4.03 1.03 -9.26 0 -13 c -1.42 -5.14 -4.81 -11.68 -8 -16 c -2.04 -2.75 -5.92 -5.61 -9 -7 c -3.02 -1.36 -7.8 -2.3 -11 -2 c -3.08 0.29 -7.29 2.15 -10 4 c -3.2 2.19 -6.77 5.73 -9 9 c -2.51 3.68 -4.8 8.64 -6 13 c -1.35 4.91 -1.69 10.59 -2 16 c -0.36 6.38 -0.52 12.74 0 19 c 0.47 5.69 1.6 11.41 3 17 c 1.28 5.12 2.86 10.37 5 15 c 1.76 3.82 4.22 8.22 7 11 c 2.78 2.78 7.49 5.71 11 7 c 2.15 0.79 5.9 0.65 8 0 c 1.68 -0.52 3.51 -2.51 5 -4 c 2.15 -2.15 4.53 -4.51 6 -7 c 1.71 -2.91 2.92 -6.59 4 -10 c 0.92 -2.92 1.6 -5.95 2 -9 c 0.61 -4.64 1 -13.75 1 -14 c 0 -0.09 -1.41 3.67 -1 5 c 1.02 3.26 3.77 7.46 6 11 c 1.78 2.82 3.75 5.75 6 8 c 2.25 2.25 5.23 4.34 8 6 c 2.11 1.27 4.82 2.69 7 3 c 2.02 0.29 5.24 -0.12 7 -1 c 1.76 -0.88 4.5 -3.16 5 -5 c 1.21 -4.42 2.03 -12.14 1 -17 c -1.08 -5.11 -5 -11.72 -8 -16 c -1.21 -1.73 -5.53 -4.12 -6 -4 c -0.35 0.09 0.94 3.94 2 5 c 1.87 1.87 5.22 3.68 8 5 c 3.46 1.64 7.33 3.17 11 4 c 3.46 0.79 7.36 1 11 1 c 3.64 0 7.86 -0.01 11 -1 c 2.68 -0.85 5.57 -3.13 8 -5 c 1.82 -1.4 3.95 -3.21 5 -5 c 1.08 -1.85 2 -4.94 2 -7 c 0 -1.79 -1.01 -4.51 -2 -6 c -0.78 -1.18 -2.65 -2.66 -4 -3 c -2.16 -0.54 -6.41 -0.87 -8 0 c -1.33 0.73 -2.58 4.04 -3 6 c -0.5 2.33 -0.56 5.64 0 8 c 0.68 2.91 2.28 6.41 4 9 c 2.11 3.16 5.08 6.41 8 9 c 2.96 2.63 6.53 5.18 10 7 c 3.33 1.74 7.59 3.43 11 4 c 2.06 0.34 5.05 -0.29 7 -1 c 1.38 -0.5 3.29 -1.81 4 -3 c 1.04 -1.73 2 -4.9 2 -7 c 0 -2.1 -1.04 -4.91 -2 -7 c -0.95 -2.07 -2.5 -4.32 -4 -6 c -1.04 -1.17 -2.95 -2.85 -4 -3 c -0.76 -0.11 -2.76 1.27 -3 2 c -0.28 0.83 0.27 3.03 1 4 c 2.88 3.84 7.15 8.76 11 12 c 2.12 1.78 5.33 3.26 8 4 c 3 0.83 6.87 1.17 10 1 c 2.57 -0.14 5.79 -0.89 8 -2 c 2.09 -1.05 4.17 -3.17 6 -5 c 2.16 -2.16 4.47 -4.45 6 -7 c 3.34 -5.57 6.29 -12.03 9 -18 c 0.56 -1.22 1.22 -3.89 1 -4 c -0.23 -0.11 -1.83 2.8 -3 3 c -28.85 4.85 -68.43 9.57 -104 15 c -4.85 0.74 -9.3 1.75 -14 3 c -5.5 1.47 -10.84 3.77 -16 5 c -1.54 0.37 -3.56 0.39 -5 0 c -1.93 -0.53 -4.43 -1.82 -6 -3 c -0.84 -0.63 -1.78 -2 -2 -3 l 0 -6"/></svg>