<?xml version="1.0" encoding="UTF-8" standalone="no"?><!DOCTYPE svg PUBLIC "-//W3C//DTD SVG 1.1//EN" "http://www.w3.org/Graphics/SVG/1.1/DTD/svg11.dtd"><svg xmlns="http://www.w3.org/2000/svg" version="1.1" width="470" height="70"><path stroke-linejoin="round" stroke-linecap="round" stroke-width="2" stroke="rgb(52, 58, 64)" fill="none" d="M 1 27 c 0.23 0.11 8.71 4.75 13 6 c 3.31 0.96 7.33 1 11 1 c 5 0 10.14 -0.34 15 -1 c 2.35 -0.32 5.11 -0.84 7 -2 c 3.69 -2.26 7.78 -5.78 11 -9 c 1.95 -1.95 4.93 -6.71 5 -7 c 0.04 -0.17 -3 1.76 -4 3 c -5.71 7.07 -10.93 16.06 -17 23 c -3.02 3.45 -7.44 6.63 -11 9 c -1.03 0.69 -2.95 1.15 -4 1 c -0.92 -0.13 -3.17 -1.74 -3 -2 c 0.25 -0.37 3.77 -1.49 5 -1 c 2.95 1.18 6.79 4.43 10 7 c 3.53 2.83 6.47 6.53 10 9 c 2.93 2.05 7.01 4.88 10 5 c 3.89 0.16 9.6 -2.32 14 -4 c 2.43 -0.93 4.66 -3.16 7 -4 c 2.05 -0.73 5.02 -0.24 7 -1 c 2.02 -0.78 4.07 -3.3 6 -4 c 1.34 -0.49 3.44 -0.31 5 0 c 3.25 0.65 7.02 1.72 10 3 c 1.43 0.61 2.88 2.86 4 3 c 1.01 0.13 2.81 -1.14 4 -2 c 8.37 -6.06 16.77 -13.24 25 -19 c 1.41 -0.99 3.37 -1.7 5 -2 c 1.82 -0.33 4.42 -0.63 6 0 c 2.86 1.14 6.41 3.84 9 6 c 1.2 1 1.8 3.16 3 4 c 1.82 1.27 4.72 2.85 7 3 c 7.2 0.46 16.24 -1.4 24 -1 c 4.94 0.25 10.18 1.68 15 3 c 2.4 0.66 4.66 2.55 7 3 c 4.31 0.82 9.59 1.2 14 1 c 2.59 -0.12 5.44 -1 8 -2 c 17.15 -6.69 34.28 -14.55 51 -21 c 1.84 -0.71 4.38 -1.3 6 -1 c 1.56 0.28 3.83 1.72 5 3 c 1.89 2.08 3.34 6.84 5 8 c 0.9 0.63 3.58 -0.35 5 -1 c 2.01 -0.91 4.05 -3.35 6 -4 c 1.62 -0.54 5.04 -0.86 6 0 c 1.37 1.22 1.43 7.22 3 8 c 2.02 1.01 7.66 -1.33 11 -1 c 2.87 0.29 6.29 1.75 9 3 c 1.43 0.66 2.84 1.84 4 3 c 2.79 2.79 5.1 6.61 8 9 c 2.48 2.04 6.15 4.4 9 5 c 2.78 0.58 6.79 -0.4 10 -1 c 2.02 -0.38 3.99 -1.23 6 -2 c 2.42 -0.93 4.76 -1.78 7 -3 c 5.14 -2.81 10.09 -6.42 15 -9 c 1.16 -0.61 3.17 -1.36 4 -1 c 1.01 0.43 2.56 2.68 3 4 c 0.44 1.32 -0.34 3.62 0 5 c 0.25 1 1.22 2.93 2 3 c 1.98 0.18 6.27 -0.94 9 -2 c 3.05 -1.19 5.83 -3.59 9 -5 l 27 -11"/><path stroke-linejoin="round" stroke-linecap="round" stroke-width="2" stroke="rgb(52, 58, 64)" fill="none" d="M 469 42 c -0.31 -0.19 -11.89 -8.14 -18 -11 c -4.22 -1.98 -10.19 -4.61 -14 -4 c -5.03 0.81 -12.19 5.43 -17 9 c -3.72 2.76 -9.53 10.06 -10 11 c -0.16 0.32 3.82 -0.16 5 -1 c 2.95 -2.1 6.1 -5.79 9 -9 c 3.56 -3.94 6.81 -7.74 10 -12 c 4.99 -6.65 9.16 -13.54 14 -20 c 1.12 -1.5 2.75 -3.53 4 -4 l 4 1"/></svg>