<?xml version="1.0" encoding="UTF-8" standalone="no"?><!DOCTYPE svg PUBLIC "-//W3C//DTD SVG 1.1//EN" "http://www.w3.org/Graphics/SVG/1.1/DTD/svg11.dtd"><svg xmlns="http://www.w3.org/2000/svg" version="1.1" width="431" height="160"><path stroke-linejoin="round" stroke-linecap="round" stroke-width="2" stroke="rgb(52, 58, 64)" fill="none" d="M 19 22 l 1 1"/><path stroke-linejoin="round" stroke-linecap="round" stroke-width="2" stroke="rgb(52, 58, 64)" fill="none" d="M 16 19 c 0.09 0.14 3.15 5.74 5 8 c 0.98 1.2 2.6 2.13 4 3 c 1.25 0.78 2.64 1.59 4 2 c 1.85 0.55 4.18 1.21 6 1 c 3.42 -0.4 7.59 -1.54 11 -3 c 5.75 -2.47 11.99 -5.53 17 -9 c 3.31 -2.29 7.43 -6.45 9 -9 c 0.51 -0.83 -0.34 -3.67 -1 -4 c -0.82 -0.41 -3.68 0.28 -5 1 c -2.02 1.1 -4.19 3.12 -6 5 c -6.22 6.48 -12.85 12.79 -18 20 c -8.08 11.31 -14.49 24.6 -22 36 c -1.26 1.91 -3.23 3.43 -5 5 c -1.25 1.11 -2.77 2.89 -4 3 c -1.79 0.16 -4.87 -1.15 -7 -2 c -1.06 -0.42 -2.66 -1.2 -3 -2 c -0.47 -1.11 -0.87 -4.88 0 -5 c 6.06 -0.87 23.4 -0.28 35 0 c 2.02 0.05 4.08 0.42 6 1 l 14 5"/><path stroke-linejoin="round" stroke-linecap="round" stroke-width="2" stroke="rgb(52, 58, 64)" fill="none" d="M 65 63 c 0.05 -0.09 2.28 -3.27 3 -5 c 0.9 -2.16 2.17 -5.32 2 -7 c -0.1 -0.98 -2.02 -2.9 -3 -3 c -1.68 -0.17 -4.87 1.15 -7 2 c -1.06 0.42 -2.22 1.22 -3 2 c -0.78 0.78 -1.61 1.97 -2 3 c -0.55 1.46 -1 3.42 -1 5 c 0 1.88 0.42 4.25 1 6 c 0.35 1.04 1.27 2.76 2 3 c 0.83 0.28 3.11 -0.24 4 -1 c 2.92 -2.47 8.42 -9.56 9 -10 c 0.18 -0.13 -1.25 3 -1 4 c 0.3 1.22 1.78 3.29 3 4 c 2.32 1.35 6.31 2.59 9 3 c 1.17 0.18 2.99 -0.37 4 -1 c 1.39 -0.87 2.93 -2.53 4 -4 c 1.52 -2.09 3.42 -7.29 4 -7 c 0.73 0.36 0.72 9.68 2 10 c 1.53 0.38 9.82 -6.88 10 -7 c 0.07 -0.05 -2.9 1.9 -4 3 c -0.8 0.8 -2.31 2.87 -2 3 c 0.62 0.25 4.81 -0.35 7 -1 c 3.34 -0.98 8.87 -4 10 -4 c 0.43 0 -1.19 4.06 -1 4 c 0.29 -0.1 2.51 -3.51 4 -5 c 2.15 -2.15 4.59 -4.25 7 -6 c 1.17 -0.85 3.34 -2.33 4 -2 c 0.8 0.4 1.13 3.61 2 5 c 0.69 1.1 2.79 1.97 3 3 c 0.34 1.71 -0.17 5.34 -1 7 c -0.59 1.17 -4.36 2.8 -4 3 c 0.78 0.45 7.76 1.36 11 1 c 2.23 -0.25 5.19 -1.79 7 -3 c 0.86 -0.57 1.22 -2.22 2 -3 c 0.78 -0.78 3 -2 3 -2 c 0 0 -2.33 1.19 -3 2 c -0.84 1 -2.39 3.32 -2 4 c 0.58 1.02 3.94 2.27 6 3 c 2.53 0.9 5.57 1.8 8 2 c 1.21 0.1 2.74 -0.53 4 -1 c 1.36 -0.51 3.22 -1.03 4 -2 c 1.56 -1.94 2.88 -5.31 4 -8 c 0.52 -1.24 1.37 -3.26 1 -4 c -0.4 -0.8 -3.05 -2.38 -4 -2 c -2.88 1.15 -8.38 5.38 -11 8 c -0.79 0.79 -1.43 3.13 -1 4 c 0.89 1.79 3.77 5.13 6 6 c 4.53 1.77 11.57 2.82 17 3 l 14 -2"/><path stroke-linejoin="round" stroke-linecap="round" stroke-width="2" stroke="rgb(52, 58, 64)" fill="none" d="M 166 33 l 1 1"/><path stroke-linejoin="round" stroke-linecap="round" stroke-width="2" stroke="rgb(52, 58, 64)" fill="none" d="M 278 15 l 3 7"/><path stroke-linejoin="round" stroke-linecap="round" stroke-width="2" stroke="rgb(52, 58, 64)" fill="none" d="M 274 3 c -0.17 0.12 -6.75 4.43 -10 7 c -4.9 3.88 -9.53 7.74 -14 12 c -2.92 2.78 -5.53 5.82 -8 9 c -2.22 2.86 -4.53 5.9 -6 9 c -1.42 2.99 -2.79 6.75 -3 10 c -0.42 6.55 -0.56 14.76 1 21 c 1.56 6.24 5.63 13.38 9 19 c 1.36 2.27 3.93 5.42 6 6 c 2.94 0.82 8.57 0.14 12 -1 c 3.96 -1.32 8.21 -4.36 12 -7 c 3.88 -2.7 7.66 -5.66 11 -9 c 6 -6 15.98 -16.84 17 -19 c 0.32 -0.68 -5.36 -0.3 -8 0 c -6.01 0.69 -13.07 1.59 -18 3 c -1.15 0.33 -2.79 1.97 -3 3 c -0.34 1.71 -0.07 6.17 1 7 c 1.2 0.94 5.89 0.85 8 0 c 3.81 -1.52 8.49 -4.91 12 -8 c 4.65 -4.09 8.65 -11.28 13 -14 c 2.51 -1.57 8.24 -1.39 11 -1 c 1.06 0.15 3 2.19 3 3 c 0 0.95 -1.81 2.88 -3 4 c -4.71 4.45 -10.95 8.71 -15 13 c -1.1 1.16 -1.85 3.47 -2 5 c -0.14 1.45 0.34 4.91 1 5 c 0.94 0.13 5.06 -2.36 6 -4 c 1.33 -2.32 1.59 -6.68 2 -10 c 0.24 -1.95 -0.55 -5.31 0 -6 c 0.38 -0.48 2.82 1.12 4 1 c 1.81 -0.18 4.31 -1.02 6 -2 c 2.08 -1.21 4.31 -3.08 6 -5 c 5.54 -6.3 11.15 -13.02 16 -20 c 3.48 -5 6.84 -10.61 9 -16 c 1.68 -4.21 3.35 -10.99 3 -14 c -0.14 -1.23 -3.72 -3.36 -5 -3 c -3.36 0.93 -9.39 4.93 -13 8 c -2.69 2.29 -4.94 5.83 -7 9 c -2.27 3.49 -4.57 7.14 -6 11 c -4.18 11.3 -6.98 23.49 -11 35 c -0.98 2.81 -3.55 7.89 -4 8 c -0.35 0.09 -0.67 -4.98 0 -7 c 2.41 -7.24 6.12 -15.86 10 -23 c 2.32 -4.27 5.77 -8.05 9 -12 c 2.9 -3.54 5.8 -6.8 9 -10 c 2.53 -2.53 5.21 -5.25 8 -7 c 2.25 -1.4 5.4 -2.48 8 -3 c 2.13 -0.43 5.03 -0.56 7 0 c 2.26 0.65 5.54 2.28 7 4 c 1.78 2.1 3.7 6.27 4 9 c 0.28 2.56 -0.94 6.27 -2 9 c -1.19 3.05 -2.96 6.52 -5 9 c -2.39 2.9 -5.81 5.45 -9 8 c -3.6 2.88 -7.07 5.69 -11 8 c -11.52 6.76 -24.87 12.98 -35 19 c -0.92 0.55 -2.17 2.23 -2 3 c 0.34 1.54 2.41 4.25 4 6 c 5.32 5.82 10.84 11.87 17 17 c 9.89 8.24 20.2 15.8 31 23 c 7.39 4.93 14.98 8.91 23 13 c 8.69 4.44 16.98 8.21 26 12 l 24 9"/></svg>