<?xml version="1.0" encoding="UTF-8" standalone="no"?><!DOCTYPE svg PUBLIC "-//W3C//DTD SVG 1.1//EN" "http://www.w3.org/Graphics/SVG/1.1/DTD/svg11.dtd"><svg xmlns="http://www.w3.org/2000/svg" version="1.1" width="501" height="118"><path stroke-linejoin="round" stroke-linecap="round" stroke-width="2" stroke="rgb(52, 58, 64)" fill="none" d="M 1 6 c 0.18 0.05 6.71 2.59 10 3 c 4.41 0.55 9.35 0.45 14 0 c 9.06 -0.88 18.75 -3.51 27 -4 c 2.2 -0.13 6.62 0.77 7 2 c 0.59 1.92 -1.6 7.66 -3 11 c -1.16 2.76 -3.59 5.18 -5 8 c -2.61 5.21 -4.34 11.12 -7 16 c -1.19 2.18 -3.76 3.81 -5 6 c -2.97 5.26 -5.15 11.55 -8 17 c -0.76 1.45 -3.02 4.2 -3 4 c 0.06 -0.59 2.28 -9.6 4 -14 c 1.22 -3.11 3.01 -6.22 5 -9 c 4.67 -6.54 9.41 -13.57 15 -19 c 6.09 -5.93 13.7 -10.75 21 -16 c 3.61 -2.59 7.24 -5.61 11 -7 c 4.69 -1.74 11.49 -2.77 16 -3 c 1.24 -0.06 3.15 1.05 4 2 c 1.52 1.71 3.03 4.66 4 7 c 0.62 1.48 1.18 3.48 1 5 c -0.43 3.69 -1.52 8.49 -3 12 c -1.03 2.44 -2.98 5.15 -5 7 c -5.68 5.21 -12.42 10.23 -19 15 c -3.17 2.3 -6.5 4.48 -10 6 c -6.36 2.76 -13.35 5.1 -20 7 c -2.53 0.72 -5.51 1.16 -8 1 c -2.54 -0.16 -7.89 -2.23 -8 -2 c -0.11 0.22 4.55 3.04 7 4 c 5.09 1.99 10.77 4.57 16 5 c 10.3 0.84 22.26 -0.21 33 -1 c 2.68 -0.2 5.56 -0.95 8 -2 c 4.37 -1.87 9.27 -5.68 13 -7 c 1.04 -0.37 3.01 0.34 4 1 c 1.7 1.14 3.21 4.23 5 5 c 2.29 0.98 6.09 1 9 1 c 2.28 0 4.92 -0.21 7 -1 c 4.6 -1.75 9.69 -4.23 14 -7 c 4.9 -3.15 9.72 -7.22 14 -11 c 1.2 -1.06 1.82 -3.08 3 -4 c 1.58 -1.23 6.06 -3.28 6 -3 c -0.09 0.45 -5.24 5.27 -7 8 c -1.05 1.63 -1.84 4.14 -2 6 c -0.15 1.79 0.1 4.71 1 6 c 1.07 1.53 3.97 3.32 6 4 c 2.55 0.85 6.19 1 9 1 c 1.28 0 2.67 -0.91 4 -1 c 3.22 -0.23 7.92 -1.04 10 0 c 1.68 0.84 2.46 5.64 4 7 c 0.97 0.86 3.42 1 5 1 c 1.88 0 4.91 -0.22 6 -1 c 0.74 -0.53 0.21 -3.47 1 -4 c 1.58 -1.05 5.43 -1.09 8 -2 c 3.07 -1.08 5.91 -3.18 9 -4 c 6.7 -1.79 14.12 -2.34 21 -4 c 2.75 -0.66 5.42 -2.4 8 -3 c 1.51 -0.35 4.24 -0.63 5 0 c 0.77 0.64 1 3.44 1 5 c 0 1.56 -1.6 4.11 -1 5 c 0.94 1.41 4.59 3.4 7 4 c 6.34 1.58 14.23 3 21 3 c 7.09 0 14.59 -2.35 22 -3 c 4 -0.35 8.74 -0.86 12 0 l 7 5"/><path stroke-linejoin="round" stroke-linecap="round" stroke-width="2" stroke="rgb(52, 58, 64)" fill="none" d="M 386 39 c 0.02 -0.4 1.43 -17.59 1 -23 c -0.07 -0.85 -2.26 -2.3 -3 -2 c -3.4 1.4 -10.05 5.42 -14 9 c -6.39 5.79 -12.48 12.96 -18 20 c -4.15 5.3 -8.2 11.22 -11 17 c -2.01 4.16 -4 10.45 -4 14 c 0 1.56 2.45 4.59 4 5 c 3.63 0.96 9.93 0.34 15 0 c 10.19 -0.68 21.15 -0.45 30 -3 c 7.36 -2.12 15.65 -7.38 22 -12 c 4.12 -3 7.73 -7.97 11 -12 c 0.9 -1.11 2.02 -4.08 2 -4 c -0.09 0.32 -4.79 12.69 -6 18 c -0.26 1.15 0.28 3.59 1 4 c 1.05 0.6 4.14 0.31 6 0 c 1.96 -0.33 4.15 -2 6 -2 c 2.98 0 6.8 1.06 10 2 c 2.39 0.7 4.64 2.65 7 3 c 8.39 1.23 18.49 2.22 27 2 c 3.89 -0.1 8.06 -2.38 12 -3 l 7 0"/><path stroke-linejoin="round" stroke-linecap="round" stroke-width="2" stroke="rgb(52, 58, 64)" fill="none" d="M 500 42 c -0.33 0.4 -12.74 14.87 -19 23 c -10.95 14.23 -20.23 28.34 -31 42 c -2.92 3.7 -10 10 -10 10"/></svg>