<?xml version="1.0" standalone="no"?>
<!DOCTYPE svg PUBLIC "-//W3C//DTD SVG 20010904//EN"
 "http://www.w3.org/TR/2001/REC-SVG-20010904/DTD/svg10.dtd">
<svg version="1.0" xmlns="http://www.w3.org/2000/svg"
 width="1000.000000pt" height="1000.000000pt" viewBox="0 0 1000.000000 1000.000000"
 preserveAspectRatio="xMidYMid meet">
<metadata>
Created by potrace 1.11, written by Peter Selinger 2001-2013
</metadata>
<g transform="translate(0.000000,1000.000000) scale(0.100000,-0.100000)"
fill="#000000" stroke="none">
<path d="M4719 9996 c-2 -2 -49 -6 -104 -10 -55 -3 -116 -8 -135 -11 -19 -2
-57 -7 -85 -10 -51 -6 -68 -9 -145 -20 -121 -18 -136 -20 -255 -45 -55 -12
-111 -24 -125 -26 -169 -33 -497 -137 -748 -238 -927 -373 -1725 -1025 -2289
-1871 -154 -231 -297 -491 -408 -740 -14 -33 -30 -69 -36 -80 -29 -62 -132
-349 -167 -465 -71 -232 -136 -507 -157 -660 -3 -25 -10 -70 -15 -100 -6 -30
-12 -82 -15 -115 -3 -33 -8 -71 -10 -84 -27 -155 -27 -869 0 -1045 2 -11 6
-48 10 -81 4 -32 9 -68 11 -80 2 -11 6 -39 9 -62 18 -150 72 -403 135 -628 6
-22 34 -111 62 -197 56 -174 53 -170 129 -141 69 26 235 23 326 -6 140 -44
252 -141 318 -275 31 -63 44 -109 59 -213 2 -17 -2 -63 -10 -102 -25 -133
-104 -255 -222 -338 -24 -18 -37 -33 -30 -35 68 -23 660 -7 687 18 2 2 -15 30
-37 61 -167 231 -289 435 -410 681 -96 197 -93 190 -156 353 -127 329 -236
777 -261 1074 -4 44 -9 89 -11 99 -21 112 -20 633 1 801 2 17 7 59 10 95 12
128 63 411 100 555 29 109 33 126 39 153 3 9 15 49 27 87 12 39 24 75 25 80 5
23 75 208 119 315 53 131 205 431 286 565 213 356 481 683 800 977 533 491
1199 848 1909 1023 80 20 181 43 225 51 84 17 90 18 170 28 28 4 61 9 75 11
231 38 752 49 985 21 17 -2 57 -7 90 -11 109 -12 129 -15 250 -36 962 -164
1836 -645 2499 -1374 72 -79 169 -193 182 -213 1 -2 44 23 96 56 149 94 261
158 357 204 50 24 90 45 91 48 0 6 -96 127 -163 205 -151 175 -344 370 -492
499 -49 43 -104 91 -120 105 -48 43 -273 213 -360 272 -442 302 -919 530
-1405 672 -148 44 -245 70 -300 81 -14 3 -56 12 -95 21 -72 15 -337 60 -415
69 -51 6 -146 16 -205 22 -51 5 -691 14 -696 10z"/>
<path d="M9567 7994 c-1 -1 -28 -4 -60 -8 -125 -13 -326 -78 -497 -159 -163
-79 -328 -178 -570 -344 -112 -77 -475 -367 -580 -463 -9 -8 -50 -44 -91 -80
-65 -57 -245 -219 -305 -275 -299 -281 -391 -371 -1454 -1425 -469 -465 -590
-583 -594 -579 -2 2 -7 33 -10 69 -39 380 -159 757 -325 1020 -162 259 -430
489 -713 611 -324 141 -648 140 -932 -2 -354 -177 -610 -565 -700 -1064 -5
-28 -11 -73 -21 -170 -6 -53 -6 -365 -1 -435 5 -51 12 -120 21 -180 2 -14 7
-45 10 -70 65 -458 292 -984 573 -1329 37 -45 77 -95 90 -110 l23 -28 -128
-85 c-137 -91 -322 -204 -468 -285 -106 -59 -441 -223 -455 -223 -6 0 -18 -4
-28 -10 -96 -54 -521 -189 -682 -216 -25 -4 -47 -8 -50 -9 -13 -3 -149 -25
-180 -29 -175 -23 -533 -24 -659 -1 -9 1 -38 6 -66 9 -74 11 -183 43 -245 74
-63 31 -138 103 -163 153 -15 32 -39 150 -32 157 2 2 16 -3 32 -11 66 -34 242
-49 323 -27 135 36 253 189 245 316 -12 173 -137 299 -311 311 -194 14 -407
-129 -471 -317 -19 -58 -25 -232 -11 -316 31 -184 169 -342 368 -424 75 -31
245 -75 322 -84 27 -4 68 -9 93 -12 98 -12 499 -20 555 -10 14 3 59 7 100 10
78 6 128 13 168 22 13 3 43 7 65 11 80 11 318 73 454 118 392 132 779 329
1214 621 l166 111 29 -26 c68 -59 104 -86 209 -156 126 -83 219 -134 355 -192
89 -38 235 -88 289 -98 13 -2 26 -7 29 -9 9 -9 -116 -168 -220 -280 -21 -22
-36 -42 -33 -44 4 -4 703 -6 872 -3 29 1 43 15 139 131 59 72 112 130 118 131
6 1 22 2 36 4 14 1 54 5 90 8 36 4 74 9 86 11 12 2 45 7 75 11 135 17 383 94
521 160 254 123 468 315 620 555 65 103 61 105 -33 15 -137 -131 -254 -219
-454 -342 -113 -69 -392 -183 -535 -218 -8 -2 -41 -10 -73 -19 -32 -8 -77 -18
-100 -21 -23 -4 -61 -10 -85 -15 l-42 -8 27 37 c15 20 33 43 40 51 7 8 40 51
75 95 34 44 65 82 68 85 3 3 19 23 36 45 17 22 115 150 219 285 259 336 997
1322 1095 1463 8 12 104 143 213 292 434 593 649 885 746 1015 47 64 95 128
106 144 27 37 342 457 358 476 6 9 45 60 85 114 41 54 80 105 88 114 28 34
273 358 565 747 165 220 303 405 307 410 5 6 34 47 66 92 32 46 62 85 67 88
20 13 7 23 -31 22 -22 0 -41 -2 -43 -3z m-169 -115 c-47 -26 -171 -126 -332
-269 -74 -65 -443 -436 -571 -574 -186 -200 -233 -252 -325 -356 -41 -47 -82
-92 -90 -100 -20 -20 -401 -455 -560 -640 -69 -80 -135 -156 -147 -170 -11
-14 -108 -126 -213 -250 -106 -124 -204 -238 -219 -255 -14 -16 -74 -86 -131
-155 -58 -69 -107 -127 -110 -130 -5 -4 -58 -67 -188 -225 -10 -11 -66 -81
-127 -155 -60 -74 -114 -140 -120 -146 -12 -14 -251 -316 -482 -609 -86 -110
-160 -202 -163 -205 -3 -3 -21 -25 -40 -50 -103 -133 -477 -580 -486 -580 -3
0 2 12 10 28 48 83 175 457 212 617 1 6 11 46 22 90 18 69 31 136 57 280 5 29
13 109 20 210 2 28 5 86 6 129 l1 79 112 112 c61 62 246 251 411 421 391 403
1034 1046 1205 1206 191 179 208 195 296 273 43 39 85 77 94 85 8 8 65 58 125
110 61 52 121 106 136 120 14 14 52 48 84 75 33 28 67 57 75 65 9 8 43 38 75
65 32 28 72 62 89 77 26 22 198 166 271 227 91 75 335 259 395 297 25 16 47
32 50 35 11 14 251 154 328 191 90 43 234 98 242 91 3 -3 -3 -9 -12 -14z
m-5083 -1722 c86 -22 119 -33 181 -64 318 -157 579 -549 709 -1061 19 -76 39
-171 45 -212 6 -41 13 -86 16 -100 2 -14 7 -63 10 -110 l6 -85 -124 -116 c-67
-64 -135 -127 -150 -140 -14 -14 -67 -62 -117 -108 -49 -45 -98 -90 -109 -99
-11 -9 -55 -49 -98 -88 -125 -113 -359 -314 -489 -423 -38 -31 -310 -246 -365
-289 -30 -23 -59 -45 -65 -50 -61 -47 -196 -142 -202 -142 -13 0 -142 175
-200 271 -147 245 -265 575 -308 864 -4 22 -8 51 -11 65 -24 137 -23 523 1
665 5 29 12 70 21 125 24 140 87 326 159 471 123 250 282 424 488 532 76 41
206 84 275 93 26 3 48 7 50 9 6 5 253 -2 277 -8z m970 -1895 c-2 -15 -6 -61
-10 -102 -22 -286 -120 -622 -290 -995 -100 -221 -268 -522 -372 -669 l-31
-44 -104 30 c-267 78 -539 223 -713 381 l-58 53 104 79 c97 73 408 321 419
334 3 4 68 60 145 126 77 66 147 127 156 135 8 8 42 39 75 69 188 171 454 423
598 567 39 39 74 70 78 68 3 -2 5 -16 3 -32z"/>
<path d="M9254 7110 c-93 -122 -176 -231 -184 -243 -8 -12 -25 -33 -37 -47
-13 -14 -23 -30 -23 -37 0 -6 16 -49 36 -95 120 -281 230 -664 278 -970 30
-191 39 -269 52 -453 11 -168 5 -538 -11 -675 -2 -19 -7 -60 -10 -90 -9 -86
-15 -133 -21 -160 -2 -14 -6 -38 -8 -55 -7 -50 -56 -285 -77 -370 -122 -480
-360 -1001 -640 -1402 -83 -119 -184 -252 -242 -319 -18 -21 -52 -60 -76 -88
-114 -133 -338 -351 -499 -485 -482 -401 -1073 -703 -1692 -865 -74 -19 -148
-38 -165 -41 -29 -5 -53 -9 -105 -20 -80 -16 -181 -32 -245 -40 -27 -3 -70 -8
-95 -11 -215 -29 -733 -35 -890 -10 -14 3 -54 7 -90 11 -36 3 -92 10 -125 15
-33 5 -76 11 -95 14 -29 4 -155 29 -270 52 -154 32 -462 129 -659 209 -216 87
-552 257 -681 345 -14 10 -68 46 -120 80 -145 96 -311 223 -450 346 -117 103
-128 110 -155 102 -17 -4 -42 -10 -58 -13 -15 -3 -58 -12 -95 -19 -37 -8 -92
-17 -122 -21 -30 -4 -62 -9 -70 -10 -49 -9 -246 -23 -353 -25 l-28 0 22 -31
c38 -54 368 -380 488 -482 418 -357 912 -657 1391 -845 256 -101 278 -109 476
-166 221 -64 471 -118 653 -142 19 -2 46 -6 60 -9 24 -3 73 -10 156 -20 220
-27 900 -27 1042 -1 10 2 45 7 78 10 33 4 71 9 85 11 14 2 45 7 70 10 25 3 68
10 95 15 28 5 66 12 85 15 96 14 307 66 500 122 485 141 958 367 1405 672 79
54 304 223 354 266 163 140 229 202 366 340 648 652 1099 1464 1314 2365 24
100 67 324 76 395 3 28 8 57 10 65 3 13 8 50 21 185 15 148 19 265 19 525 0
281 -3 334 -25 545 -11 103 -14 118 -40 275 -83 485 -218 906 -431 1345 -32
66 -62 126 -67 134 -7 9 -54 -45 -178 -209z"/>
</g>
</svg>
